<?xml version="1.0" encoding="UTF-8"?><svg xmlns="http://www.w3.org/2000/svg" xmlns:xlink="http://www.w3.org/1999/xlink" fill-opacity="1" color-rendering="auto" color-interpolation="auto" text-rendering="auto" stroke="black" stroke-linecap="square" width="1195" stroke-miterlimit="10" shape-rendering="auto" stroke-opacity="1" fill="black" stroke-dasharray="none" font-weight="normal" stroke-width="1" height="899" font-family="'Dialog'" font-style="normal" stroke-linejoin="miter" font-size="12px" stroke-dashoffset="0" image-rendering="auto">
  <!--Generated by ySVG 2.6-->
  <defs id="genericDefs"/>
  <g>
    <defs id="defs1">
      <linearGradient x1="718.1486" gradientUnits="userSpaceOnUse" x2="971" y1="139.3598" y2="179.3598" id="linearGradient1" spreadMethod="reflect">
        <stop stop-opacity="1" stop-color="white" offset="0%"/>
        <stop stop-opacity="1" stop-color="white" offset="100%"/>
      </linearGradient>
      <linearGradient x1="718.1486" gradientUnits="userSpaceOnUse" x2="971" y1="205.6426" y2="245.6426" id="linearGradient2" spreadMethod="reflect">
        <stop stop-opacity="1" stop-color="white" offset="0%"/>
        <stop stop-opacity="1" stop-color="white" offset="100%"/>
      </linearGradient>
      <linearGradient x1="1048.0532" gradientUnits="userSpaceOnUse" x2="1128.0532" y1="112.7196" y2="206" id="linearGradient3" spreadMethod="reflect">
        <stop stop-opacity="1" stop-color="white" offset="0%"/>
        <stop stop-opacity="1" stop-color="white" offset="100%"/>
      </linearGradient>
      <linearGradient x1="718.1486" gradientUnits="userSpaceOnUse" x2="971" y1="271.9254" y2="311.9254" id="linearGradient4" spreadMethod="reflect">
        <stop stop-opacity="1" stop-color="white" offset="0%"/>
        <stop stop-opacity="1" stop-color="white" offset="100%"/>
      </linearGradient>
      <linearGradient x1="718.1486" gradientUnits="userSpaceOnUse" x2="971" y1="404.4909" y2="444.4909" id="linearGradient5" spreadMethod="reflect">
        <stop stop-opacity="1" stop-color="white" offset="0%"/>
        <stop stop-opacity="1" stop-color="white" offset="100%"/>
      </linearGradient>
      <linearGradient x1="718.1486" gradientUnits="userSpaceOnUse" x2="971" y1="338.2081" y2="378.2081" id="linearGradient6" spreadMethod="reflect">
        <stop stop-opacity="1" stop-color="white" offset="0%"/>
        <stop stop-opacity="1" stop-color="white" offset="100%"/>
      </linearGradient>
      <linearGradient x1="718.1486" gradientUnits="userSpaceOnUse" x2="971" y1="469.5345" y2="514.4908" id="linearGradient7" spreadMethod="reflect">
        <stop stop-opacity="1" stop-color="white" offset="0%"/>
        <stop stop-opacity="1" stop-color="white" offset="100%"/>
      </linearGradient>
      <linearGradient x1="1461.1486" gradientUnits="userSpaceOnUse" x2="1714" y1="188.1231" y2="281.4035" id="linearGradient8" spreadMethod="reflect">
        <stop stop-opacity="1" stop-color="white" offset="0%"/>
        <stop stop-opacity="1" stop-color="white" offset="100%"/>
      </linearGradient>
      <linearGradient x1="1593.73" gradientUnits="userSpaceOnUse" x2="1882.5146" y1="306.4472" y2="351.4035" id="linearGradient9" spreadMethod="reflect">
        <stop stop-opacity="1" stop-color="white" offset="0%"/>
        <stop stop-opacity="1" stop-color="white" offset="100%"/>
      </linearGradient>
      <linearGradient x1="1593.73" gradientUnits="userSpaceOnUse" x2="1882.5146" y1="384.9873" y2="429.9436" id="linearGradient10" spreadMethod="reflect">
        <stop stop-opacity="1" stop-color="white" offset="0%"/>
        <stop stop-opacity="1" stop-color="white" offset="100%"/>
      </linearGradient>
      <linearGradient x1="1593.73" gradientUnits="userSpaceOnUse" x2="1882.5146" y1="459.9436" y2="504.8999" id="linearGradient11" spreadMethod="reflect">
        <stop stop-opacity="1" stop-color="white" offset="0%"/>
        <stop stop-opacity="1" stop-color="white" offset="100%"/>
      </linearGradient>
      <linearGradient x1="1593.73" gradientUnits="userSpaceOnUse" x2="1882.5146" y1="534.8999" y2="616.4091" id="linearGradient12" spreadMethod="reflect">
        <stop stop-opacity="1" stop-color="white" offset="0%"/>
        <stop stop-opacity="1" stop-color="white" offset="100%"/>
      </linearGradient>
      <linearGradient x1="1593.73" gradientUnits="userSpaceOnUse" x2="1882.5146" y1="646.4091" y2="735.3526" id="linearGradient13" spreadMethod="reflect">
        <stop stop-opacity="1" stop-color="white" offset="0%"/>
        <stop stop-opacity="1" stop-color="white" offset="100%"/>
      </linearGradient>
      <linearGradient x1="1593.73" gradientUnits="userSpaceOnUse" x2="1882.5146" y1="765.3526" y2="805.3526" id="linearGradient14" spreadMethod="reflect">
        <stop stop-opacity="1" stop-color="white" offset="0%"/>
        <stop stop-opacity="1" stop-color="white" offset="100%"/>
      </linearGradient>
      <linearGradient x1="1461.1486" gradientUnits="userSpaceOnUse" x2="1714" y1="861.3733" y2="906.3296" id="linearGradient15" spreadMethod="reflect">
        <stop stop-opacity="1" stop-color="white" offset="0%"/>
        <stop stop-opacity="1" stop-color="white" offset="100%"/>
      </linearGradient>
      <linearGradient x1="1461.1486" gradientUnits="userSpaceOnUse" x2="1714" y1="940.0468" y2="980.0468" id="linearGradient16" spreadMethod="reflect">
        <stop stop-opacity="1" stop-color="white" offset="0%"/>
        <stop stop-opacity="1" stop-color="white" offset="100%"/>
      </linearGradient>
      <linearGradient x1="1547.5743" gradientUnits="userSpaceOnUse" x2="1627.5743" y1="123.0794" y2="163.0795" id="linearGradient17" spreadMethod="reflect">
        <stop stop-opacity="1" stop-color="white" offset="0%"/>
        <stop stop-opacity="1" stop-color="white" offset="100%"/>
      </linearGradient>
      <linearGradient x1="804.5743" gradientUnits="userSpaceOnUse" x2="884.5743" y1="544.4908" y2="584.4908" id="linearGradient18" spreadMethod="reflect">
        <stop stop-opacity="1" stop-color="white" offset="0%"/>
        <stop stop-opacity="1" stop-color="white" offset="100%"/>
      </linearGradient>
      <clipPath clipPathUnits="userSpaceOnUse" id="clipPath1">
        <path d="M0 0 L1195 0 L1195 899 L0 899 L0 0 Z"/>
      </clipPath>
      <clipPath clipPathUnits="userSpaceOnUse" id="clipPath2">
        <path d="M703 97 L1898 97 L1898 996 L703 996 L703 97 Z"/>
      </clipPath>
    </defs>
    <g fill="white" text-rendering="geometricPrecision" shape-rendering="geometricPrecision" transform="translate(-703,-97)" stroke="white">
      <rect x="703" width="1195" height="899" y="97" clip-path="url(#clipPath2)" stroke="none"/>
    </g>
    <g fill="url(#linearGradient1)" text-rendering="geometricPrecision" shape-rendering="geometricPrecision" transform="matrix(1,0,0,1,-703,-97)" stroke="url(#linearGradient1)">
      <rect x="718.1486" y="139.3598" clip-path="url(#clipPath2)" width="252.8514" rx="20" ry="20" height="40" stroke="none"/>
    </g>
    <g text-rendering="geometricPrecision" stroke-miterlimit="1.45" shape-rendering="geometricPrecision" transform="matrix(1,0,0,1,-703,-97)" stroke-linecap="butt">
      <rect x="718.1486" y="139.3598" clip-path="url(#clipPath2)" fill="none" width="252.8514" rx="20" ry="20" height="40"/>
      <text x="823.1846" xml:space="preserve" y="163.895" clip-path="url(#clipPath2)" font-family="sans-serif" stroke="none">Начало</text>
    </g>
    <g fill="url(#linearGradient2)" text-rendering="geometricPrecision" shape-rendering="geometricPrecision" transform="matrix(1,0,0,1,-703,-97)" stroke="url(#linearGradient2)">
      <path d="M718.1486 205.6426 L971 205.6426 L971 245.6426 L718.1486 245.6426 Z" stroke="none" clip-path="url(#clipPath2)"/>
    </g>
    <g text-rendering="geometricPrecision" stroke-miterlimit="1.45" shape-rendering="geometricPrecision" transform="matrix(1,0,0,1,-703,-97)" stroke-linecap="butt">
      <path fill="none" d="M718.1486 205.6426 L971 205.6426 L971 245.6426 L718.1486 245.6426 Z" clip-path="url(#clipPath2)"/>
      <text x="755.4561" xml:space="preserve" y="223.1113" clip-path="url(#clipPath2)" font-family="sans-serif" stroke="none">Инициализация производной</text>
      <text x="767.0284" xml:space="preserve" y="237.2441" clip-path="url(#clipPath2)" font-family="sans-serif" stroke="none">радиуса dr значением 1.0</text>
    </g>
    <g fill="url(#linearGradient3)" text-rendering="geometricPrecision" shape-rendering="geometricPrecision" transform="matrix(1,0,0,1,-703,-97)" stroke="url(#linearGradient3)">
      <rect x="1048.0532" width="80" height="93.2804" y="112.7196" clip-path="url(#clipPath2)" stroke="none"/>
    </g>
    <g text-rendering="geometricPrecision" stroke-miterlimit="1.45" shape-rendering="geometricPrecision" transform="matrix(1,0,0,1,-703,-97)" stroke-linecap="butt">
      <path fill="none" d="M1058.0532 112.7196 L1048.0532 112.7196 L1048.0532 206 L1058.0532 206" clip-path="url(#clipPath2)"/>
      <text x="1054.0532" xml:space="preserve" y="130.3212" clip-path="url(#clipPath2)" font-family="sans-serif" stroke="none">SDF-функция "оболочки Мандельброта"</text>
      <text x="1054.0532" xml:space="preserve" y="144.454" clip-path="url(#clipPath2)" font-family="sans-serif" stroke="none">Вход: point - координаты точки,</text>
      <text x="1054.0532" xml:space="preserve" y="158.5868" clip-path="url(#clipPath2)" font-family="sans-serif" stroke="none">          POWER - степень фрактала,</text>
      <text x="1054.0532" xml:space="preserve" y="172.7196" clip-path="url(#clipPath2)" font-family="sans-serif" stroke="none">          ESC_R - радиус отсечения,</text>
      <text x="1054.0532" xml:space="preserve" y="186.8524" clip-path="url(#clipPath2)" font-family="sans-serif" stroke="none">          ITERS - количество итераций.</text>
      <text x="1054.0532" xml:space="preserve" y="200.9853" clip-path="url(#clipPath2)" font-family="sans-serif" stroke="none">Выход: dist - расстояние от точки до фрактала</text>
    </g>
    <g fill="url(#linearGradient4)" text-rendering="geometricPrecision" shape-rendering="geometricPrecision" transform="matrix(1,0,0,1,-703,-97)" stroke="url(#linearGradient4)">
      <path d="M718.1486 271.9254 L971 271.9254 L971 311.9254 L718.1486 311.9254 Z" stroke="none" clip-path="url(#clipPath2)"/>
    </g>
    <g text-rendering="geometricPrecision" stroke-miterlimit="1.45" shape-rendering="geometricPrecision" transform="matrix(1,0,0,1,-703,-97)" stroke-linecap="butt">
      <path fill="none" d="M718.1486 271.9254 L971 271.9254 L971 311.9254 L718.1486 311.9254 Z" clip-path="url(#clipPath2)"/>
      <text x="770.9131" xml:space="preserve" y="289.3941" clip-path="url(#clipPath2)" font-family="sans-serif" stroke="none">Инициализация радиуса</text>
      <text x="797.1778" xml:space="preserve" y="303.5269" clip-path="url(#clipPath2)" font-family="sans-serif" stroke="none">r значением 0.0</text>
    </g>
    <g fill="url(#linearGradient5)" text-rendering="geometricPrecision" shape-rendering="geometricPrecision" transform="matrix(1,0,0,1,-703,-97)" stroke="url(#linearGradient5)">
      <path d="M728.1486 404.4909 L961 404.4909 L971 414.4909 L971 444.4909 L718.1486 444.4909 L718.1486 414.4909 Z" stroke="none" clip-path="url(#clipPath2)"/>
    </g>
    <g text-rendering="geometricPrecision" stroke-miterlimit="1.45" shape-rendering="geometricPrecision" transform="matrix(1,0,0,1,-703,-97)" stroke-linecap="butt">
      <path fill="none" d="M728.1486 404.4909 L961 404.4909 L971 414.4909 L971 444.4909 L718.1486 444.4909 L718.1486 414.4909 Z" clip-path="url(#clipPath2)"/>
      <text x="758.7139" xml:space="preserve" y="429.026" clip-path="url(#clipPath2)" font-family="sans-serif" stroke="none">Цикл по i от 0 до MAX_ITERS</text>
    </g>
    <g fill="url(#linearGradient6)" text-rendering="geometricPrecision" shape-rendering="geometricPrecision" transform="matrix(1,0,0,1,-703,-97)" stroke="url(#linearGradient6)">
      <path d="M718.1486 338.2081 L971 338.2081 L971 378.2081 L718.1486 378.2081 Z" stroke="none" clip-path="url(#clipPath2)"/>
    </g>
    <g text-rendering="geometricPrecision" stroke-miterlimit="1.45" shape-rendering="geometricPrecision" transform="matrix(1,0,0,1,-703,-97)" stroke-linecap="butt">
      <path fill="none" d="M718.1486 338.2081 L971 338.2081 L971 378.2081 L718.1486 378.2081 Z" clip-path="url(#clipPath2)"/>
      <text x="773.1251" xml:space="preserve" y="355.6768" clip-path="url(#clipPath2)" font-family="sans-serif" stroke="none">Инициализация точки z</text>
      <text x="795.8536" xml:space="preserve" y="369.8097" clip-path="url(#clipPath2)" font-family="sans-serif" stroke="none">значением point</text>
    </g>
    <g fill="url(#linearGradient7)" text-rendering="geometricPrecision" shape-rendering="geometricPrecision" transform="matrix(1,0,0,1,-703,-97)" stroke="url(#linearGradient7)">
      <path d="M718.1486 469.5345 L971 469.5345 L971 514.4908 L718.1486 514.4908 Z" stroke="none" clip-path="url(#clipPath2)"/>
    </g>
    <g text-rendering="geometricPrecision" stroke-miterlimit="1.45" shape-rendering="geometricPrecision" transform="matrix(1,0,0,1,-703,-97)" stroke-linecap="butt">
      <path fill="none" d="M718.1486 469.5345 L971 469.5345 L971 514.4908 L718.1486 514.4908 Z" clip-path="url(#clipPath2)"/>
      <text x="726.1768" xml:space="preserve" y="482.4151" clip-path="url(#clipPath2)" font-family="sans-serif" stroke="none">Вычисляем радиус, равный расстоянию</text>
      <text x="745.0089" xml:space="preserve" y="496.5479" clip-path="url(#clipPath2)" font-family="sans-serif" stroke="none">от точки z до центра координат:</text>
      <text x="825.6309" xml:space="preserve" y="510.6807" clip-path="url(#clipPath2)" font-family="sans-serif" stroke="none">r = |z|</text>
    </g>
    <g fill="url(#linearGradient8)" text-rendering="geometricPrecision" shape-rendering="geometricPrecision" transform="matrix(1,0,0,1,-703,-97)" stroke="url(#linearGradient8)">
      <path d="M1587.5743 188.1231 L1714 234.7633 L1587.5743 281.4035 L1461.1486 234.7633 Z" stroke="none" clip-path="url(#clipPath2)"/>
    </g>
    <g text-rendering="geometricPrecision" stroke-miterlimit="1.45" shape-rendering="geometricPrecision" transform="matrix(1,0,0,1,-703,-97)" stroke-linecap="butt">
      <path fill="none" d="M1587.5743 188.1231 L1714 234.7633 L1587.5743 281.4035 L1461.1486 234.7633 Z" clip-path="url(#clipPath2)"/>
      <text x="1493.9152" xml:space="preserve" y="232.2321" clip-path="url(#clipPath2)" font-family="sans-serif" stroke="none">Значение в пределах границы?</text>
      <text x="1556.5929" xml:space="preserve" y="246.3649" clip-path="url(#clipPath2)" font-family="sans-serif" stroke="none">r &lt; ESC_R?</text>
    </g>
    <g fill="url(#linearGradient9)" text-rendering="geometricPrecision" shape-rendering="geometricPrecision" transform="matrix(1,0,0,1,-703,-97)" stroke="url(#linearGradient9)">
      <path d="M1593.73 306.4472 L1882.5146 306.4472 L1882.5146 351.4035 L1593.73 351.4035 Z" stroke="none" clip-path="url(#clipPath2)"/>
    </g>
    <g text-rendering="geometricPrecision" stroke-miterlimit="1.45" shape-rendering="geometricPrecision" transform="matrix(1,0,0,1,-703,-97)" stroke-linecap="butt">
      <path fill="none" d="M1593.73 306.4472 L1882.5146 306.4472 L1882.5146 351.4035 L1593.73 351.4035 Z" clip-path="url(#clipPath2)"/>
      <text x="1617.6799" xml:space="preserve" y="319.3277" clip-path="url(#clipPath2)" font-family="sans-serif" stroke="none">Переходим в сферические координаты:</text>
      <text x="1671.3752" xml:space="preserve" y="333.4605" clip-path="url(#clipPath2)" font-family="sans-serif" stroke="none">theta = arctan(z.y, z.x)</text>
      <text x="1679.5842" xml:space="preserve" y="347.5933" clip-path="url(#clipPath2)" font-family="sans-serif" stroke="none">phi = arccos(z.z / r)</text>
    </g>
    <g fill="url(#linearGradient10)" text-rendering="geometricPrecision" shape-rendering="geometricPrecision" transform="matrix(1,0,0,1,-703,-97)" stroke="url(#linearGradient10)">
      <path d="M1593.73 384.9873 L1882.5146 384.9873 L1882.5146 429.9436 L1593.73 429.9436 Z" stroke="none" clip-path="url(#clipPath2)"/>
    </g>
    <g text-rendering="geometricPrecision" stroke-miterlimit="1.45" shape-rendering="geometricPrecision" transform="matrix(1,0,0,1,-703,-97)" stroke-linecap="butt">
      <path fill="none" d="M1593.73 384.9873 L1882.5146 384.9873 L1882.5146 429.9436 L1593.73 429.9436 Z" clip-path="url(#clipPath2)"/>
      <text x="1648.8342" xml:space="preserve" y="404.9342" clip-path="url(#clipPath2)" font-family="sans-serif" stroke="none">Масштабируем производную:</text>
      <text x="1618.3362" xml:space="preserve" y="419.067" clip-path="url(#clipPath2)" font-family="sans-serif" stroke="none">dr = (r ^ (POWER- 1)) * POWER * dr + 1.0</text>
    </g>
    <g fill="url(#linearGradient11)" text-rendering="geometricPrecision" shape-rendering="geometricPrecision" transform="matrix(1,0,0,1,-703,-97)" stroke="url(#linearGradient11)">
      <path d="M1593.73 459.9436 L1882.5146 459.9436 L1882.5146 504.8999 L1593.73 504.8999 Z" stroke="none" clip-path="url(#clipPath2)"/>
    </g>
    <g text-rendering="geometricPrecision" stroke-miterlimit="1.45" shape-rendering="geometricPrecision" transform="matrix(1,0,0,1,-703,-97)" stroke-linecap="butt">
      <path fill="none" d="M1593.73 459.9436 L1882.5146 459.9436 L1882.5146 504.8999 L1593.73 504.8999 Z" clip-path="url(#clipPath2)"/>
      <text x="1596.3108" xml:space="preserve" y="479.8905" clip-path="url(#clipPath2)" font-family="sans-serif" stroke="none">Возводим текущий радиус в степень фрактала:</text>
      <text x="1693.4592" xml:space="preserve" y="494.0233" clip-path="url(#clipPath2)" font-family="sans-serif" stroke="none">zr = r ^ POWER</text>
    </g>
    <g fill="url(#linearGradient12)" text-rendering="geometricPrecision" shape-rendering="geometricPrecision" transform="matrix(1,0,0,1,-703,-97)" stroke="url(#linearGradient12)">
      <path d="M1593.73 534.8999 L1882.5146 534.8999 L1882.5146 616.4091 L1593.73 616.4091 Z" stroke="none" clip-path="url(#clipPath2)"/>
    </g>
    <g text-rendering="geometricPrecision" stroke-miterlimit="1.45" shape-rendering="geometricPrecision" transform="matrix(1,0,0,1,-703,-97)" stroke-linecap="butt">
      <path fill="none" d="M1593.73 534.8999 L1882.5146 534.8999 L1882.5146 616.4091 L1593.73 616.4091 Z" clip-path="url(#clipPath2)"/>
      <text x="1614.0999" xml:space="preserve" y="551.924" clip-path="url(#clipPath2)" font-family="sans-serif" stroke="none">Масштабируем сферические координаты</text>
      <text x="1668.7883" xml:space="preserve" y="566.0568" clip-path="url(#clipPath2)" font-family="sans-serif" stroke="none">(тем самым увеличивая</text>
      <text x="1642.093" xml:space="preserve" y="580.1896" clip-path="url(#clipPath2)" font-family="sans-serif" stroke="none">частоту фрактальных структур):</text>
      <text x="1672.9749" xml:space="preserve" y="594.3224" clip-path="url(#clipPath2)" font-family="sans-serif" stroke="none">theta = theta * POWER</text>
      <text x="1684.2424" xml:space="preserve" y="608.4553" clip-path="url(#clipPath2)" font-family="sans-serif" stroke="none">phi = phi * POWER</text>
    </g>
    <g fill="url(#linearGradient13)" text-rendering="geometricPrecision" shape-rendering="geometricPrecision" transform="matrix(1,0,0,1,-703,-97)" stroke="url(#linearGradient13)">
      <path d="M1593.73 646.4091 L1882.5146 646.4091 L1882.5146 735.3526 L1593.73 735.3526 Z" stroke="none" clip-path="url(#clipPath2)"/>
    </g>
    <g text-rendering="geometricPrecision" stroke-miterlimit="1.45" shape-rendering="geometricPrecision" transform="matrix(1,0,0,1,-703,-97)" stroke-linecap="butt">
      <path fill="none" d="M1593.73 646.4091 L1882.5146 646.4091 L1882.5146 735.3526 L1593.73 735.3526 Z" clip-path="url(#clipPath2)"/>
      <text x="1651.2454" xml:space="preserve" y="660.084" clip-path="url(#clipPath2)" font-family="sans-serif" stroke="none">Преобразовываем результат </text>
      <text x="1662.5159" xml:space="preserve" y="674.2168" clip-path="url(#clipPath2)" font-family="sans-serif" stroke="none">в декартовы координаты</text>
      <text x="1662.8733" xml:space="preserve" y="688.3496" clip-path="url(#clipPath2)" font-family="sans-serif" stroke="none">x_c = sin(phi) * cos(theta)</text>
      <text x="1664.719" xml:space="preserve" y="702.4824" clip-path="url(#clipPath2)" font-family="sans-serif" stroke="none">y_c = sin(phi) * sin(theta)</text>
      <text x="1697.0891" xml:space="preserve" y="716.6152" clip-path="url(#clipPath2)" font-family="sans-serif" stroke="none">z_c = cos(phi)</text>
      <text x="1673.5637" xml:space="preserve" y="730.748" clip-path="url(#clipPath2)" font-family="sans-serif" stroke="none">z = zr * {x_c, y_c, z_c}</text>
    </g>
    <g fill="url(#linearGradient14)" text-rendering="geometricPrecision" shape-rendering="geometricPrecision" transform="matrix(1,0,0,1,-703,-97)" stroke="url(#linearGradient14)">
      <path d="M1593.73 765.3526 L1882.5146 765.3526 L1882.5146 795.3526 L1872.5146 805.3526 L1603.73 805.3526 L1593.73 795.3526 Z" stroke="none" clip-path="url(#clipPath2)"/>
    </g>
    <g text-rendering="geometricPrecision" stroke-miterlimit="1.45" shape-rendering="geometricPrecision" transform="matrix(1,0,0,1,-703,-97)" stroke-linecap="butt">
      <path fill="none" d="M1593.73 765.3526 L1882.5146 765.3526 L1882.5146 795.3526 L1872.5146 805.3526 L1603.73 805.3526 L1593.73 795.3526 Z" clip-path="url(#clipPath2)"/>
      <text x="1713.7268" xml:space="preserve" y="789.8878" clip-path="url(#clipPath2)" font-family="sans-serif" stroke="none">i = i + 1</text>
    </g>
    <g fill="url(#linearGradient15)" text-rendering="geometricPrecision" shape-rendering="geometricPrecision" transform="matrix(1,0,0,1,-703,-97)" stroke="url(#linearGradient15)">
      <path d="M1461.1486 861.3733 L1714 861.3733 L1714 906.3296 L1461.1486 906.3296 Z" stroke="none" clip-path="url(#clipPath2)"/>
    </g>
    <g text-rendering="geometricPrecision" stroke-miterlimit="1.45" shape-rendering="geometricPrecision" transform="matrix(1,0,0,1,-703,-97)" stroke-linecap="butt">
      <path fill="none" d="M1461.1486 861.3733 L1714 861.3733 L1714 906.3296 L1461.1486 906.3296 Z" clip-path="url(#clipPath2)"/>
      <text x="1522.6613" xml:space="preserve" y="874.2538" clip-path="url(#clipPath2)" font-family="sans-serif" stroke="none">Находим расстояние:</text>
      <text x="1514.1827" xml:space="preserve" y="888.3866" clip-path="url(#clipPath2)" font-family="sans-serif" stroke="none">dist = 0.5 * log(r) * r / dr</text>
      <text x="1556.9181" xml:space="preserve" y="902.5194" clip-path="url(#clipPath2)" font-family="sans-serif" stroke="none">return dist</text>
    </g>
    <g fill="url(#linearGradient16)" text-rendering="geometricPrecision" shape-rendering="geometricPrecision" transform="matrix(1,0,0,1,-703,-97)" stroke="url(#linearGradient16)">
      <rect x="1461.1486" y="940.0468" clip-path="url(#clipPath2)" width="252.8514" rx="20" ry="20" height="40" stroke="none"/>
    </g>
    <g text-rendering="geometricPrecision" stroke-miterlimit="1.45" shape-rendering="geometricPrecision" transform="matrix(1,0,0,1,-703,-97)" stroke-linecap="butt">
      <rect x="1461.1486" y="940.0468" clip-path="url(#clipPath2)" fill="none" width="252.8514" rx="20" ry="20" height="40"/>
      <text x="1569.0206" xml:space="preserve" y="964.582" clip-path="url(#clipPath2)" font-family="sans-serif" stroke="none">Конец</text>
    </g>
    <g fill="url(#linearGradient17)" text-rendering="geometricPrecision" shape-rendering="geometricPrecision" transform="matrix(1,0,0,1,-703,-97)" stroke="url(#linearGradient17)">
      <circle r="20" clip-path="url(#clipPath2)" cx="1587.5743" cy="143.0794" stroke="none"/>
    </g>
    <g text-rendering="geometricPrecision" stroke-miterlimit="1.45" shape-rendering="geometricPrecision" transform="matrix(1,0,0,1,-703,-97)" stroke-linecap="butt">
      <circle fill="none" r="20" clip-path="url(#clipPath2)" cx="1587.5743" cy="143.0794"/>
      <text x="1583.4347" xml:space="preserve" y="147.6146" clip-path="url(#clipPath2)" font-family="sans-serif" stroke="none">А</text>
    </g>
    <g fill="url(#linearGradient18)" text-rendering="geometricPrecision" shape-rendering="geometricPrecision" transform="matrix(1,0,0,1,-703,-97)" stroke="url(#linearGradient18)">
      <circle r="20" clip-path="url(#clipPath2)" cx="844.5743" cy="564.4909" stroke="none"/>
    </g>
    <g text-rendering="geometricPrecision" stroke-miterlimit="1.45" shape-rendering="geometricPrecision" transform="matrix(1,0,0,1,-703,-97)" stroke-linecap="butt">
      <circle fill="none" r="20" clip-path="url(#clipPath2)" cx="844.5743" cy="564.4909"/>
      <text x="840.4346" xml:space="preserve" y="569.026" clip-path="url(#clipPath2)" font-family="sans-serif" stroke="none">А</text>
    </g>
    <g text-rendering="geometricPrecision" stroke-miterlimit="1.45" shape-rendering="geometricPrecision" transform="matrix(1,0,0,1,-703,-97)" stroke-linecap="butt">
      <path fill="none" d="M844.5743 179.3288 L844.5743 197.6064" clip-path="url(#clipPath2)"/>
    </g>
    <g text-rendering="geometricPrecision" stroke-miterlimit="1.45" shape-rendering="geometricPrecision" transform="matrix(1,0,0,1,-703,-97)" stroke-linecap="butt">
      <path d="M844.5743 205.6064 L849.5743 193.6064 L844.5743 196.6064 L839.5743 193.6064 Z" stroke="none" clip-path="url(#clipPath2)"/>
      <path fill="none" stroke-dasharray="6,2" d="M970.98 159.3598 L1048.0665 159.3598" clip-path="url(#clipPath2)"/>
      <path fill="none" d="M844.5743 245.6116 L844.5743 263.8892" clip-path="url(#clipPath2)"/>
      <path d="M844.5743 271.8892 L849.5743 259.8892 L844.5743 262.8892 L839.5743 259.8892 Z" clip-path="url(#clipPath2)" stroke="none"/>
      <path fill="none" d="M844.5743 311.8943 L844.5743 330.172" clip-path="url(#clipPath2)"/>
      <path d="M844.5743 338.172 L849.5743 326.172 L844.5743 329.172 L839.5743 326.172 Z" clip-path="url(#clipPath2)" stroke="none"/>
      <path fill="none" d="M844.5743 378.1771 L844.5743 396.4547" clip-path="url(#clipPath2)"/>
      <path d="M844.5743 404.4547 L849.5743 392.4547 L844.5743 395.4547 L839.5743 392.4547 Z" clip-path="url(#clipPath2)" stroke="none"/>
      <path fill="none" d="M844.5743 444.5034 L844.5743 461.5108" clip-path="url(#clipPath2)"/>
      <path d="M844.5743 469.5108 L849.5743 457.5108 L844.5743 460.5108 L839.5743 457.5108 Z" clip-path="url(#clipPath2)" stroke="none"/>
      <path fill="none" d="M1713.9744 234.7633 L1738.1223 234.7633 L1738.1223 298.4423" clip-path="url(#clipPath2)"/>
      <path d="M1738.1223 306.4423 L1743.1223 294.4423 L1738.1223 297.4423 L1733.1223 294.4423 Z" clip-path="url(#clipPath2)" stroke="none"/>
      <text x="1723.2803" xml:space="preserve" y="224.4549" clip-path="url(#clipPath2)" font-family="sans-serif" stroke="none">да</text>
      <path fill="none" d="M1738.1223 351.4366 L1738.1223 377.0047" clip-path="url(#clipPath2)"/>
      <path d="M1738.1223 385.0047 L1743.1223 373.0047 L1738.1223 376.0047 L1733.1223 373.0047 Z" clip-path="url(#clipPath2)" stroke="none"/>
      <path fill="none" d="M1738.1223 429.9743 L1738.1223 451.9626" clip-path="url(#clipPath2)"/>
      <path d="M1738.1223 459.9626 L1743.1223 447.9626 L1738.1223 450.9626 L1733.1223 447.9626 Z" clip-path="url(#clipPath2)" stroke="none"/>
      <path fill="none" d="M1738.1223 504.865 L1738.1223 526.9021" clip-path="url(#clipPath2)"/>
      <path d="M1738.1223 534.9021 L1743.1223 522.9021 L1738.1223 525.9021 L1733.1223 522.9021 Z" clip-path="url(#clipPath2)" stroke="none"/>
      <path fill="none" d="M1738.1223 616.4169 L1738.1223 638.4134" clip-path="url(#clipPath2)"/>
      <path d="M1738.1223 646.4134 L1743.1223 634.4134 L1738.1223 637.4134 L1733.1223 634.4134 Z" clip-path="url(#clipPath2)" stroke="none"/>
      <path fill="none" d="M1738.1223 735.3951 L1738.1223 757.3989" clip-path="url(#clipPath2)"/>
      <path d="M1738.1223 765.3989 L1743.1223 753.3989 L1738.1223 756.3989 L1733.1223 753.3989 Z" clip-path="url(#clipPath2)" stroke="none"/>
      <path fill="none" d="M1738.1223 805.3967 L1738.1223 833.4208 L1587.5743 833.4208 L1587.5743 853.3448" clip-path="url(#clipPath2)"/>
      <path d="M1587.5743 861.3448 L1592.5743 849.3448 L1587.5743 852.3448 L1582.5743 849.3448 Z" clip-path="url(#clipPath2)" stroke="none"/>
      <path fill="none" d="M1461.1104 234.7633 L1389.9413 234.7633 L1389.9413 832.8013 L1587.5743 832.8013 L1587.5743 853.4036" clip-path="url(#clipPath2)"/>
      <path d="M1587.5743 861.4036 L1592.5743 849.4036 L1587.5743 852.4036 L1582.5743 849.4036 Z" clip-path="url(#clipPath2)" stroke="none"/>
      <path fill="none" d="M1587.5743 906.3604 L1587.5743 932.0455" clip-path="url(#clipPath2)"/>
      <path d="M1587.5743 940.0455 L1592.5743 928.0455 L1587.5743 931.0455 L1582.5743 928.0455 Z" clip-path="url(#clipPath2)" stroke="none"/>
      <path fill="none" d="M1587.5743 163.0905 L1587.5743 180.113" clip-path="url(#clipPath2)"/>
      <path d="M1587.5743 188.113 L1592.5743 176.113 L1587.5743 179.113 L1582.5743 176.113 Z" clip-path="url(#clipPath2)" stroke="none"/>
      <path fill="none" d="M844.5743 514.4852 L844.5743 536.5179" clip-path="url(#clipPath2)"/>
      <path d="M844.5743 544.5179 L849.5743 532.5179 L844.5743 535.5179 L839.5743 532.5179 Z" clip-path="url(#clipPath2)" stroke="none"/>
    </g>
  </g>
</svg>
