<?xml version="1.0" encoding="UTF-8"?><svg xmlns="http://www.w3.org/2000/svg" xmlns:xlink="http://www.w3.org/1999/xlink" fill-opacity="1" color-rendering="auto" color-interpolation="auto" text-rendering="auto" stroke="black" stroke-linecap="square" width="1184" stroke-miterlimit="10" shape-rendering="auto" stroke-opacity="1" fill="black" stroke-dasharray="none" font-weight="normal" stroke-width="1" height="755" font-family="'Dialog'" font-style="normal" stroke-linejoin="miter" font-size="12px" stroke-dashoffset="0" image-rendering="auto">
  <!--Generated by ySVG 2.6-->
  <defs id="genericDefs"/>
  <g>
    <defs id="defs1">
      <linearGradient x1="909.4321" gradientUnits="userSpaceOnUse" x2="989.4321" y1="278.1312" y2="419.7929" id="linearGradient1" spreadMethod="reflect">
        <stop stop-opacity="1" stop-color="white" offset="0%"/>
        <stop stop-opacity="1" stop-color="white" offset="100%"/>
      </linearGradient>
      <linearGradient x1="702.2809" gradientUnits="userSpaceOnUse" x2="782.2809" y1="810.618" y2="850.618" id="linearGradient2" spreadMethod="reflect">
        <stop stop-opacity="1" stop-color="white" offset="0%"/>
        <stop stop-opacity="1" stop-color="white" offset="100%"/>
      </linearGradient>
      <linearGradient x1="1469.2809" gradientUnits="userSpaceOnUse" x2="1549.2809" y1="126.5713" y2="166.5713" id="linearGradient3" spreadMethod="reflect">
        <stop stop-opacity="1" stop-color="white" offset="0%"/>
        <stop stop-opacity="1" stop-color="white" offset="100%"/>
      </linearGradient>
      <clipPath clipPathUnits="userSpaceOnUse" id="clipPath1">
        <path d="M0 0 L1184 0 L1184 755 L0 755 L0 0 Z"/>
      </clipPath>
      <clipPath clipPathUnits="userSpaceOnUse" id="clipPath2">
        <path d="M607 111 L1791 111 L1791 866 L607 866 L607 111 Z"/>
      </clipPath>
    </defs>
    <g fill="white" text-rendering="geometricPrecision" shape-rendering="geometricPrecision" transform="translate(-607,-111)" stroke="white">
      <rect x="607" width="1184" height="755" y="111" clip-path="url(#clipPath2)" stroke="none"/>
    </g>
    <g fill="white" text-rendering="geometricPrecision" shape-rendering="geometricPrecision" transform="matrix(1,0,0,1,-607,-111)" stroke="white">
      <rect x="622.7303" y="328.9621" clip-path="url(#clipPath2)" width="239.1013" rx="20" ry="20" height="40" stroke="none"/>
    </g>
    <g text-rendering="geometricPrecision" stroke-miterlimit="1.45" shape-rendering="geometricPrecision" transform="matrix(1,0,0,1,-607,-111)" stroke-linecap="butt">
      <rect x="622.7303" y="328.9621" clip-path="url(#clipPath2)" fill="none" width="239.1013" rx="20" ry="20" height="40"/>
      <text x="720.8913" xml:space="preserve" y="353.4972" clip-path="url(#clipPath2)" font-family="sans-serif" stroke="none">Начало</text>
    </g>
    <g fill="white" text-rendering="geometricPrecision" shape-rendering="geometricPrecision" transform="matrix(1,0,0,1,-607,-111)" stroke="white">
      <path d="M622.7303 398.9621 L861.8315 398.9621 L861.8315 438.9621 L622.7303 438.9621 Z" stroke="none" clip-path="url(#clipPath2)"/>
    </g>
    <g text-rendering="geometricPrecision" stroke-miterlimit="1.45" shape-rendering="geometricPrecision" transform="matrix(1,0,0,1,-607,-111)" stroke-linecap="butt">
      <path fill="none" d="M622.7303 398.9621 L861.8315 398.9621 L861.8315 438.9621 L622.7303 438.9621 Z" clip-path="url(#clipPath2)"/>
      <text x="666.4431" xml:space="preserve" y="416.4308" clip-path="url(#clipPath2)" font-family="sans-serif" stroke="none">Инициализация totalDist </text>
      <text x="704.9304" xml:space="preserve" y="430.5636" clip-path="url(#clipPath2)" font-family="sans-serif" stroke="none">значением 0</text>
    </g>
    <g fill="white" text-rendering="geometricPrecision" shape-rendering="geometricPrecision" transform="matrix(1,0,0,1,-607,-111)" stroke="white">
      <path d="M632.7303 550.1673 L851.8315 550.1673 L861.8315 560.1673 L861.8315 590.1673 L622.7303 590.1673 L622.7303 560.1673 Z" stroke="none" clip-path="url(#clipPath2)"/>
    </g>
    <g text-rendering="geometricPrecision" stroke-miterlimit="1.45" shape-rendering="geometricPrecision" transform="matrix(1,0,0,1,-607,-111)" stroke-linecap="butt">
      <path fill="none" d="M632.7303 550.1673 L851.8315 550.1673 L861.8315 560.1673 L861.8315 590.1673 L622.7303 590.1673 L622.7303 560.1673 Z" clip-path="url(#clipPath2)"/>
      <text x="712.1403" xml:space="preserve" y="567.636" clip-path="url(#clipPath2)" font-family="sans-serif" stroke="none">Цикл по i </text>
      <text x="685.5358" xml:space="preserve" y="581.7689" clip-path="url(#clipPath2)" font-family="sans-serif" stroke="none">от 0 до MAX_STEPS</text>
    </g>
    <g fill="white" text-rendering="geometricPrecision" shape-rendering="geometricPrecision" transform="matrix(1,0,0,1,-607,-111)" stroke="white">
      <path d="M632.7303 677.1345 L851.8315 677.1345 L861.8315 687.1345 L861.8315 717.1345 L622.7303 717.1345 L622.7303 687.1345 Z" stroke="none" clip-path="url(#clipPath2)"/>
    </g>
    <g text-rendering="geometricPrecision" stroke-miterlimit="1.45" shape-rendering="geometricPrecision" transform="matrix(1,0,0,1,-607,-111)" stroke-linecap="butt">
      <path fill="none" d="M632.7303 677.1345 L851.8315 677.1345 L861.8315 687.1345 L861.8315 717.1345 L622.7303 717.1345 L622.7303 687.1345 Z" clip-path="url(#clipPath2)"/>
      <text x="687.1091" xml:space="preserve" y="694.6032" clip-path="url(#clipPath2)" font-family="sans-serif" stroke="none">Цикл для каждого</text>
      <text x="644.8981" xml:space="preserve" y="708.736" clip-path="url(#clipPath2)" font-family="sans-serif" stroke="none">объекта object в массиве objects</text>
    </g>
    <g fill="white" text-rendering="geometricPrecision" shape-rendering="geometricPrecision" transform="matrix(1,0,0,1,-607,-111)" stroke="white">
      <path d="M622.7303 613.6509 L861.8315 613.6509 L861.8315 653.6509 L622.7303 653.6509 Z" stroke="none" clip-path="url(#clipPath2)"/>
    </g>
    <g text-rendering="geometricPrecision" stroke-miterlimit="1.45" shape-rendering="geometricPrecision" transform="matrix(1,0,0,1,-607,-111)" stroke-linecap="butt">
      <path fill="none" d="M622.7303 613.6509 L861.8315 613.6509 L861.8315 653.6509 L622.7303 653.6509 Z" clip-path="url(#clipPath2)"/>
      <text x="668.6052" xml:space="preserve" y="631.1196" clip-path="url(#clipPath2)" font-family="sans-serif" stroke="none">Инициализация minDist </text>
      <text x="679.4128" xml:space="preserve" y="645.2524" clip-path="url(#clipPath2)" font-family="sans-serif" stroke="none">значением MAX_DIST</text>
    </g>
    <g fill="white" text-rendering="geometricPrecision" shape-rendering="geometricPrecision" transform="matrix(1,0,0,1,-607,-111)" stroke="white">
      <rect x="622.7303" width="239.1013" height="40" y="740.618" clip-path="url(#clipPath2)" stroke="none"/>
    </g>
    <g text-rendering="geometricPrecision" stroke-miterlimit="1.45" shape-rendering="geometricPrecision" transform="matrix(1,0,0,1,-607,-111)" stroke-linecap="butt">
      <rect fill="none" x="622.7303" width="239.1013" height="40" y="740.618" clip-path="url(#clipPath2)"/>
      <path fill="none" d="M632.7303 740.618 L632.7303 780.618 M851.8315 740.618 L851.8315 780.618 M632.7303 740.618 Z" clip-path="url(#clipPath2)"/>
      <text x="636.0827" xml:space="preserve" y="758.0867" clip-path="url(#clipPath2)" font-family="sans-serif" stroke="none">Вычисление расстояния до объекта</text>
      <text x="673.0495" xml:space="preserve" y="772.2195" clip-path="url(#clipPath2)" font-family="sans-serif" stroke="none">dist = sdf(object, point)</text>
    </g>
    <g fill="white" text-rendering="geometricPrecision" shape-rendering="geometricPrecision" transform="matrix(1,0,0,1,-607,-111)" stroke="white">
      <path d="M1509.2809 188.3996 L1625.0815 218.1073 L1509.2809 247.815 L1393.4803 218.1073 Z" stroke="none" clip-path="url(#clipPath2)"/>
    </g>
    <g text-rendering="geometricPrecision" stroke-miterlimit="1.45" shape-rendering="geometricPrecision" transform="matrix(1,0,0,1,-607,-111)" stroke-linecap="butt">
      <path fill="none" d="M1509.2809 188.3996 L1625.0815 218.1073 L1509.2809 247.815 L1393.4803 218.1073 Z" clip-path="url(#clipPath2)"/>
      <text x="1432.3971" xml:space="preserve" y="215.576" clip-path="url(#clipPath2)" font-family="sans-serif" stroke="none">Объект ближе остальных:</text>
      <text x="1464.7789" xml:space="preserve" y="229.7088" clip-path="url(#clipPath2)" font-family="sans-serif" stroke="none">dist &lt; minDist?</text>
    </g>
    <g fill="white" text-rendering="geometricPrecision" shape-rendering="geometricPrecision" transform="matrix(1,0,0,1,-607,-111)" stroke="white">
      <path d="M1507.7897 262.815 L1775.4321 262.815 L1775.4321 311.815 L1507.7897 311.815 Z" stroke="none" clip-path="url(#clipPath2)"/>
    </g>
    <g text-rendering="geometricPrecision" stroke-miterlimit="1.45" shape-rendering="geometricPrecision" transform="matrix(1,0,0,1,-607,-111)" stroke-linecap="butt">
      <path fill="none" d="M1507.7897 262.815 L1775.4321 262.815 L1775.4321 311.815 L1507.7897 311.815 Z" clip-path="url(#clipPath2)"/>
      <text x="1518.4498" xml:space="preserve" y="277.7173" clip-path="url(#clipPath2)" font-family="sans-serif" stroke="none">Устанавливаем минимальное расстояние</text>
      <text x="1516.443" xml:space="preserve" y="291.8501" clip-path="url(#clipPath2)" font-family="sans-serif" stroke="none">равынм расстоянию до текущего объекта</text>
      <text x="1599.6403" xml:space="preserve" y="305.9829" clip-path="url(#clipPath2)" font-family="sans-serif" stroke="none">minDist = dist</text>
    </g>
    <g fill="white" text-rendering="geometricPrecision" shape-rendering="geometricPrecision" transform="matrix(1,0,0,1,-607,-111)" stroke="white">
      <path d="M1509.2809 439.7406 L1638.7065 487.9483 L1509.2809 536.1559 L1379.8553 487.9483 Z" stroke="none" clip-path="url(#clipPath2)"/>
    </g>
    <g text-rendering="geometricPrecision" stroke-miterlimit="1.45" shape-rendering="geometricPrecision" transform="matrix(1,0,0,1,-607,-111)" stroke-linecap="butt">
      <path fill="none" d="M1509.2809 439.7406 L1638.7065 487.9483 L1509.2809 536.1559 L1379.8553 487.9483 Z" clip-path="url(#clipPath2)"/>
      <text x="1412.6979" xml:space="preserve" y="485.417" clip-path="url(#clipPath2)" font-family="sans-serif" stroke="none">Находимся на границе объекта:</text>
      <text x="1465.7926" xml:space="preserve" y="499.5498" clip-path="url(#clipPath2)" font-family="sans-serif" stroke="none">minDist &lt; EPS?</text>
    </g>
    <g fill="white" text-rendering="geometricPrecision" shape-rendering="geometricPrecision" transform="matrix(1,0,0,1,-607,-111)" stroke="white">
      <rect x="1543.8309" width="231.6013" height="40" y="550.1673" clip-path="url(#clipPath2)" stroke="none"/>
    </g>
    <g text-rendering="geometricPrecision" stroke-miterlimit="1.45" shape-rendering="geometricPrecision" transform="matrix(1,0,0,1,-607,-111)" stroke-linecap="butt">
      <rect fill="none" x="1543.8309" width="231.6013" height="40" y="550.1673" clip-path="url(#clipPath2)"/>
      <path fill="none" d="M1553.8309 550.1673 L1553.8309 590.1673 M1765.4321 550.1673 L1765.4321 590.1673 M1553.8309 550.1673 Z" clip-path="url(#clipPath2)"/>
      <text x="1569.2623" xml:space="preserve" y="567.636" clip-path="url(#clipPath2)" font-family="sans-serif" stroke="none">Находим цвет точки по Фонгу</text>
      <text x="1573.5719" xml:space="preserve" y="581.7689" clip-path="url(#clipPath2)" font-family="sans-serif" stroke="none">color := phongShading(point)</text>
    </g>
    <g fill="white" text-rendering="geometricPrecision" shape-rendering="geometricPrecision" transform="matrix(1,0,0,1,-607,-111)" stroke="white">
      <path d="M1409.2303 379.4483 L1609.3315 379.4483 L1609.3315 409.4483 L1599.3315 419.4483 L1419.2303 419.4483 L1409.2303 409.4483 Z" stroke="none" clip-path="url(#clipPath2)"/>
    </g>
    <g text-rendering="geometricPrecision" stroke-miterlimit="1.45" shape-rendering="geometricPrecision" transform="matrix(1,0,0,1,-607,-111)" stroke-linecap="butt">
      <path fill="none" d="M1409.2303 379.4483 L1609.3315 379.4483 L1609.3315 409.4483 L1599.3315 419.4483 L1419.2303 419.4483 L1409.2303 409.4483 Z" clip-path="url(#clipPath2)"/>
      <text x="1441.7311" xml:space="preserve" y="403.9834" clip-path="url(#clipPath2)" font-family="sans-serif" stroke="none">Конец цикла по object</text>
    </g>
    <g fill="white" text-rendering="geometricPrecision" shape-rendering="geometricPrecision" transform="matrix(1,0,0,1,-607,-111)" stroke="white">
      <path d="M1389.7303 650.8864 L1628.8315 650.8864 L1628.8315 680.8864 L1618.8315 690.8864 L1399.7303 690.8864 L1389.7303 680.8864 Z" stroke="none" clip-path="url(#clipPath2)"/>
    </g>
    <g text-rendering="geometricPrecision" stroke-miterlimit="1.45" shape-rendering="geometricPrecision" transform="matrix(1,0,0,1,-607,-111)" stroke-linecap="butt">
      <path fill="none" d="M1389.7303 650.8864 L1628.8315 650.8864 L1628.8315 680.8864 L1618.8315 690.8864 L1399.7303 690.8864 L1389.7303 680.8864 Z" clip-path="url(#clipPath2)"/>
      <text x="1484.8854" xml:space="preserve" y="675.4216" clip-path="url(#clipPath2)" font-family="sans-serif" stroke="none">i = i + 1</text>
    </g>
    <g fill="white" text-rendering="geometricPrecision" shape-rendering="geometricPrecision" transform="matrix(1,0,0,1,-607,-111)" stroke="white">
      <path d="M1389.7303 729.9566 L1628.8315 729.9566 L1628.8315 769.9566 L1389.7303 769.9566 Z" stroke="none" clip-path="url(#clipPath2)"/>
    </g>
    <g text-rendering="geometricPrecision" stroke-miterlimit="1.45" shape-rendering="geometricPrecision" transform="matrix(1,0,0,1,-607,-111)" stroke-linecap="butt">
      <path fill="none" d="M1389.7303 729.9566 L1628.8315 729.9566 L1628.8315 769.9566 L1389.7303 769.9566 Z" clip-path="url(#clipPath2)"/>
      <text x="1474.8043" xml:space="preserve" y="754.4918" clip-path="url(#clipPath2)" font-family="sans-serif" stroke="none">return сolor</text>
    </g>
    <g fill="white" text-rendering="geometricPrecision" shape-rendering="geometricPrecision" transform="matrix(1,0,0,1,-607,-111)" stroke="white">
      <rect x="1389.7303" y="799.9566" clip-path="url(#clipPath2)" width="239.1013" rx="20" ry="20" height="40" stroke="none"/>
    </g>
    <g text-rendering="geometricPrecision" stroke-miterlimit="1.45" shape-rendering="geometricPrecision" transform="matrix(1,0,0,1,-607,-111)" stroke-linecap="butt">
      <rect x="1389.7303" y="799.9566" clip-path="url(#clipPath2)" fill="none" width="239.1013" rx="20" ry="20" height="40"/>
      <text x="1490.7272" xml:space="preserve" y="824.4918" clip-path="url(#clipPath2)" font-family="sans-serif" stroke="none">Конец</text>
    </g>
    <g fill="white" text-rendering="geometricPrecision" shape-rendering="geometricPrecision" transform="matrix(1,0,0,1,-607,-111)" stroke="white">
      <path d="M622.7303 468.9621 L861.8315 468.9621 L861.8315 517.962 L622.7303 517.962 Z" stroke="none" clip-path="url(#clipPath2)"/>
    </g>
    <g text-rendering="geometricPrecision" stroke-miterlimit="1.45" shape-rendering="geometricPrecision" transform="matrix(1,0,0,1,-607,-111)" stroke-linecap="butt">
      <path fill="none" d="M622.7303 468.9621 L861.8315 468.9621 L861.8315 517.962 L622.7303 517.962 Z" clip-path="url(#clipPath2)"/>
      <text x="676.5622" xml:space="preserve" y="483.8644" clip-path="url(#clipPath2)" font-family="sans-serif" stroke="none">Инициализация color </text>
      <text x="703.5417" xml:space="preserve" y="497.9972" clip-path="url(#clipPath2)" font-family="sans-serif" stroke="none">цветом фона</text>
      <text x="695.8513" xml:space="preserve" y="512.13" clip-path="url(#clipPath2)" font-family="sans-serif" stroke="none">color = bgColor</text>
    </g>
    <g fill="url(#linearGradient1)" text-rendering="geometricPrecision" shape-rendering="geometricPrecision" transform="matrix(1,0,0,1,-607,-111)" stroke="url(#linearGradient1)">
      <rect x="909.4321" width="80" height="141.6617" y="278.1312" clip-path="url(#clipPath2)" stroke="none"/>
    </g>
    <g text-rendering="geometricPrecision" stroke-miterlimit="1.45" shape-rendering="geometricPrecision" transform="matrix(1,0,0,1,-607,-111)" stroke-linecap="butt">
      <path fill="none" d="M919.4321 278.1312 L909.4321 278.1312 L909.4321 419.7929 L919.4321 419.7929" clip-path="url(#clipPath2)"/>
      <text x="915.4321" xml:space="preserve" y="298.1992" clip-path="url(#clipPath2)" font-family="sans-serif" stroke="none">Алгоритм марширования лучей</text>
      <text x="915.4321" xml:space="preserve" y="312.332" clip-path="url(#clipPath2)" font-family="sans-serif" stroke="none">Вход: point - координаты (x, y) пикселя, </text>
      <text x="915.4321" xml:space="preserve" y="326.4648" clip-path="url(#clipPath2)" font-family="sans-serif" stroke="none">          objects - массив объектов сцены,</text>
      <text x="915.4321" xml:space="preserve" y="340.5976" clip-path="url(#clipPath2)" font-family="sans-serif" stroke="none">          bgColor - цвет заднего фона, </text>
      <text x="915.4321" xml:space="preserve" y="354.7304" clip-path="url(#clipPath2)" font-family="sans-serif" stroke="none">          MAX_STEPS - максимально допустимое количество итераций </text>
      <text x="915.4321" xml:space="preserve" y="368.8632" clip-path="url(#clipPath2)" font-family="sans-serif" stroke="none">	для нахождения пересечения с объектами сцены,</text>
      <text x="915.4321" xml:space="preserve" y="382.996" clip-path="url(#clipPath2)" font-family="sans-serif" stroke="none">          MAX_DIST - максимально допустимое расстояние до </text>
      <text x="915.4321" xml:space="preserve" y="397.1288" clip-path="url(#clipPath2)" font-family="sans-serif" stroke="none">	близжайшего объекта сцены</text>
      <text x="915.4321" xml:space="preserve" y="411.2617" clip-path="url(#clipPath2)" font-family="sans-serif" stroke="none">Выход: color - цвет, соответствующий данному пикселю</text>
    </g>
    <g fill="url(#linearGradient2)" text-rendering="geometricPrecision" shape-rendering="geometricPrecision" transform="matrix(1,0,0,1,-607,-111)" stroke="url(#linearGradient2)">
      <circle r="20" clip-path="url(#clipPath2)" cx="742.2809" cy="830.618" stroke="none"/>
    </g>
    <g text-rendering="geometricPrecision" stroke-miterlimit="1.45" shape-rendering="geometricPrecision" transform="matrix(1,0,0,1,-607,-111)" stroke-linecap="butt">
      <circle fill="none" r="20" clip-path="url(#clipPath2)" cx="742.2809" cy="830.618"/>
    </g>
    <g fill="white" text-rendering="geometricPrecision" shape-rendering="geometricPrecision" transform="matrix(1,0,0,1,-607,-111)" stroke="white">
      <rect x="736.1413" width="12.2793" height="18.1328" y="821.5516" clip-path="url(#clipPath2)" stroke="none"/>
      <rect x="736.1413" y="821.5516" clip-path="url(#clipPath2)" fill="none" width="12.2793" height="18.1328" stroke-miterlimit="1.6"/>
    </g>
    <g text-rendering="geometricPrecision" stroke-miterlimit="1.45" shape-rendering="geometricPrecision" font-family="sans-serif" transform="matrix(1,0,0,1,-607,-111)" stroke-linecap="butt">
      <text x="738.1413" xml:space="preserve" y="835.1531" clip-path="url(#clipPath2)" stroke="none">А</text>
    </g>
    <g fill="url(#linearGradient3)" text-rendering="geometricPrecision" shape-rendering="geometricPrecision" transform="matrix(1,0,0,1,-607,-111)" stroke="url(#linearGradient3)">
      <circle r="20" clip-path="url(#clipPath2)" cx="1509.2809" cy="146.5713" stroke="none"/>
    </g>
    <g text-rendering="geometricPrecision" stroke-miterlimit="1.45" shape-rendering="geometricPrecision" transform="matrix(1,0,0,1,-607,-111)" stroke-linecap="butt">
      <circle fill="none" r="20" clip-path="url(#clipPath2)" cx="1509.2809" cy="146.5713"/>
    </g>
    <g fill="white" text-rendering="geometricPrecision" shape-rendering="geometricPrecision" transform="matrix(1,0,0,1,-607,-111)" stroke="white">
      <rect x="1503.1413" width="12.2793" height="18.1328" y="137.5049" clip-path="url(#clipPath2)" stroke="none"/>
      <rect x="1503.1413" y="137.5049" clip-path="url(#clipPath2)" fill="none" width="12.2793" height="18.1328" stroke-miterlimit="1.6"/>
    </g>
    <g text-rendering="geometricPrecision" stroke-miterlimit="1.45" shape-rendering="geometricPrecision" font-family="sans-serif" transform="matrix(1,0,0,1,-607,-111)" stroke-linecap="butt">
      <text x="1505.1412" xml:space="preserve" y="151.1065" clip-path="url(#clipPath2)" stroke="none">А</text>
    </g>
    <g text-rendering="geometricPrecision" stroke-miterlimit="1.45" shape-rendering="geometricPrecision" transform="matrix(1,0,0,1,-607,-111)" stroke-linecap="butt">
      <path fill="none" d="M742.2809 368.9572 L742.2809 390.9894" clip-path="url(#clipPath2)"/>
    </g>
    <g text-rendering="geometricPrecision" stroke-miterlimit="1.45" shape-rendering="geometricPrecision" transform="matrix(1,0,0,1,-607,-111)" stroke-linecap="butt">
      <path d="M742.2809 398.9894 L747.2809 386.9894 L742.2809 389.9894 L737.2809 386.9894 Z" stroke="none" clip-path="url(#clipPath2)"/>
      <path fill="none" d="M742.2809 590.1609 L742.2809 605.6472" clip-path="url(#clipPath2)"/>
      <path d="M742.2809 613.6472 L747.2809 601.6472 L742.2809 604.6472 L737.2809 601.6472 Z" clip-path="url(#clipPath2)" stroke="none"/>
      <path fill="none" d="M742.2809 653.6445 L742.2809 669.1307" clip-path="url(#clipPath2)"/>
      <path d="M742.2809 677.1307 L747.2809 665.1307 L742.2809 668.1307 L737.2809 665.1307 Z" clip-path="url(#clipPath2)" stroke="none"/>
      <path fill="none" d="M742.2809 717.1281 L742.2809 732.6143" clip-path="url(#clipPath2)"/>
      <path d="M742.2809 740.6143 L747.2809 728.6143 L742.2809 731.6143 L737.2809 728.6143 Z" clip-path="url(#clipPath2)" stroke="none"/>
      <path fill="none" d="M1625.1019 218.1073 L1641.611 218.1073 L1641.611 223.3996 L1641.611 254.8161" clip-path="url(#clipPath2)"/>
      <path d="M1641.611 262.8162 L1646.611 250.8162 L1641.611 253.8162 L1636.611 250.8162 Z" clip-path="url(#clipPath2)" stroke="none"/>
      <text x="1628.4554" xml:space="preserve" y="208.6853" clip-path="url(#clipPath2)" font-family="sans-serif" stroke="none">да</text>
      <path fill="none" d="M1638.7045 487.9483 L1659.584 487.9483 L1659.6154 542.1345" clip-path="url(#clipPath2)"/>
      <path d="M1659.62 550.1345 L1664.613 538.1316 L1659.6147 541.1345 L1654.613 538.1374 Z" clip-path="url(#clipPath2)" stroke="none"/>
      <text x="1646.0789" xml:space="preserve" y="481.7648" clip-path="url(#clipPath2)" font-family="sans-serif" stroke="none">да</text>
      <path fill="none" d="M1393.485 218.1073 L1335.7354 218.1073 L1335.7354 332.4269 L1509.2809 332.4269 L1508 360.2436 L1508.3655 371.4291" clip-path="url(#clipPath2)"/>
      <path d="M1508.6267 379.4248 L1513.2322 367.2679 L1508.3328 370.4296 L1503.2375 367.5945 Z" clip-path="url(#clipPath2)" stroke="none"/>
      <path fill="none" d="M1641.611 311.8534 L1641.611 332.4269 L1509.2809 332.4269 L1509.2809 371.4531" clip-path="url(#clipPath2)"/>
      <path d="M1509.2809 379.4531 L1514.2809 367.4531 L1509.2809 370.4531 L1504.2809 367.4531 Z" clip-path="url(#clipPath2)" stroke="none"/>
      <path fill="none" d="M1509.2809 419.4558 L1509.2809 431.7561" clip-path="url(#clipPath2)"/>
      <path d="M1509.2809 439.7561 L1514.2809 427.7561 L1509.2809 430.7561 L1504.2809 427.7561 Z" clip-path="url(#clipPath2)" stroke="none"/>
      <path fill="none" d="M1379.8584 487.9483 L1338 487.9483 L1338 620.8784 L1509.2809 620.8784 L1509.2809 642.9125" clip-path="url(#clipPath2)"/>
      <path d="M1509.2809 650.9125 L1514.2809 638.9125 L1509.2809 641.9125 L1504.2809 638.9125 Z" clip-path="url(#clipPath2)" stroke="none"/>
      <path fill="none" d="M1509.2809 690.9242 L1509.2809 721.9813" clip-path="url(#clipPath2)"/>
      <path d="M1509.2809 729.9813 L1514.2809 717.9813 L1509.2809 720.9813 L1504.2809 717.9813 Z" clip-path="url(#clipPath2)" stroke="none"/>
      <path fill="none" d="M1659.6315 590.1403 L1659.6315 706.2889 L1509.4846 706.2889 L1509.3792 721.939" clip-path="url(#clipPath2)"/>
      <path d="M1509.3253 729.9388 L1514.406 717.9728 L1509.3859 720.939 L1504.4061 717.9055 Z" clip-path="url(#clipPath2)" stroke="none"/>
      <path fill="none" d="M1509.2809 769.9517 L1509.2809 791.9839" clip-path="url(#clipPath2)"/>
      <path d="M1509.2809 799.9839 L1514.2809 787.9839 L1509.2809 790.9839 L1504.2809 787.9839 Z" clip-path="url(#clipPath2)" stroke="none"/>
      <path fill="none" d="M742.2809 438.933 L742.2809 460.9399" clip-path="url(#clipPath2)"/>
      <path d="M742.2809 468.9399 L747.2809 456.9399 L742.2809 459.9399 L737.2809 456.9399 Z" clip-path="url(#clipPath2)" stroke="none"/>
      <path fill="none" d="M742.2809 517.9943 L742.2809 542.1694" clip-path="url(#clipPath2)"/>
      <path d="M742.2809 550.1694 L747.2809 538.1694 L742.2809 541.1694 L737.2809 538.1694 Z" clip-path="url(#clipPath2)" stroke="none"/>
      <path fill="none" stroke-dasharray="6,2" d="M861.8126 348.9621 L909.4301 348.9621" clip-path="url(#clipPath2)"/>
      <path fill="none" d="M742.2809 780.6131 L742.2809 802.6453" clip-path="url(#clipPath2)"/>
      <path d="M742.2809 810.6453 L747.2809 798.6453 L742.2809 801.6453 L737.2809 798.6453 Z" clip-path="url(#clipPath2)" stroke="none"/>
      <path fill="none" d="M1509.2809 166.586 L1509.2809 180.397" clip-path="url(#clipPath2)"/>
      <path d="M1509.2809 188.397 L1514.2809 176.397 L1509.2809 179.397 L1504.2809 176.397 Z" clip-path="url(#clipPath2)" stroke="none"/>
    </g>
  </g>
</svg>
