<?xml version="1.0" encoding="UTF-8"?><svg xmlns="http://www.w3.org/2000/svg" xmlns:xlink="http://www.w3.org/1999/xlink" fill-opacity="1" color-rendering="auto" color-interpolation="auto" text-rendering="auto" stroke="black" stroke-linecap="square" width="1195" stroke-miterlimit="10" shape-rendering="auto" stroke-opacity="1" fill="black" stroke-dasharray="none" font-weight="normal" stroke-width="1" height="761" font-family="'Dialog'" font-style="normal" stroke-linejoin="miter" font-size="12px" stroke-dashoffset="0" image-rendering="auto">
  <!--Generated by ySVG 2.6-->
  <defs id="genericDefs"/>
  <g>
    <defs id="defs1">
      <linearGradient x1="919.4321" gradientUnits="userSpaceOnUse" x2="999.4321" y1="33.6692" y2="175.3309" id="linearGradient1" spreadMethod="reflect">
        <stop stop-opacity="1" stop-color="white" offset="0%"/>
        <stop stop-opacity="1" stop-color="white" offset="100%"/>
      </linearGradient>
      <linearGradient x1="712.2809" gradientUnits="userSpaceOnUse" x2="792.2809" y1="724" y2="764" id="linearGradient2" spreadMethod="reflect">
        <stop stop-opacity="1" stop-color="white" offset="0%"/>
        <stop stop-opacity="1" stop-color="white" offset="100%"/>
      </linearGradient>
      <linearGradient x1="1436.2809" gradientUnits="userSpaceOnUse" x2="1516.2809" y1="154.7178" y2="194.7178" id="linearGradient3" spreadMethod="reflect">
        <stop stop-opacity="1" stop-color="white" offset="0%"/>
        <stop stop-opacity="1" stop-color="white" offset="100%"/>
      </linearGradient>
      <clipPath clipPathUnits="userSpaceOnUse" id="clipPath1">
        <path d="M0 0 L1195 0 L1195 761 L0 761 L0 0 Z"/>
      </clipPath>
      <clipPath clipPathUnits="userSpaceOnUse" id="clipPath2">
        <path d="M563 18 L1758 18 L1758 779 L563 779 L563 18 Z"/>
      </clipPath>
    </defs>
    <g fill="white" text-rendering="geometricPrecision" shape-rendering="geometricPrecision" transform="translate(-563,-18)" stroke="white">
      <rect x="563" width="1195" height="761" y="18" clip-path="url(#clipPath2)" stroke="none"/>
    </g>
    <g fill="white" text-rendering="geometricPrecision" shape-rendering="geometricPrecision" transform="matrix(1,0,0,1,-563,-18)" stroke="white">
      <rect x="632.7303" y="84.5" clip-path="url(#clipPath2)" width="239.1013" rx="20" ry="20" height="40" stroke="none"/>
    </g>
    <g text-rendering="geometricPrecision" stroke-miterlimit="1.45" shape-rendering="geometricPrecision" transform="matrix(1,0,0,1,-563,-18)" stroke-linecap="butt">
      <rect x="632.7303" y="84.5" clip-path="url(#clipPath2)" fill="none" width="239.1013" rx="20" ry="20" height="40"/>
      <text x="730.8913" xml:space="preserve" y="109.0352" clip-path="url(#clipPath2)" font-family="sans-serif" stroke="none">Начало</text>
    </g>
    <g fill="white" text-rendering="geometricPrecision" shape-rendering="geometricPrecision" transform="matrix(1,0,0,1,-563,-18)" stroke="white">
      <path d="M632.7303 154.5 L871.8315 154.5 L871.8315 194.5 L632.7303 194.5 Z" stroke="none" clip-path="url(#clipPath2)"/>
    </g>
    <g text-rendering="geometricPrecision" stroke-miterlimit="1.45" shape-rendering="geometricPrecision" transform="matrix(1,0,0,1,-563,-18)" stroke-linecap="butt">
      <path fill="none" d="M632.7303 154.5 L871.8315 154.5 L871.8315 194.5 L632.7303 194.5 Z" clip-path="url(#clipPath2)"/>
      <text x="676.4431" xml:space="preserve" y="171.9688" clip-path="url(#clipPath2)" font-family="sans-serif" stroke="none">Инициализация totalDist </text>
      <text x="714.9304" xml:space="preserve" y="186.1016" clip-path="url(#clipPath2)" font-family="sans-serif" stroke="none">значением 0</text>
    </g>
    <g fill="white" text-rendering="geometricPrecision" shape-rendering="geometricPrecision" transform="matrix(1,0,0,1,-563,-18)" stroke="white">
      <path d="M642.7303 305.7053 L861.8315 305.7053 L871.8315 315.7053 L871.8315 345.7053 L632.7303 345.7053 L632.7303 315.7053 Z" stroke="none" clip-path="url(#clipPath2)"/>
    </g>
    <g text-rendering="geometricPrecision" stroke-miterlimit="1.45" shape-rendering="geometricPrecision" transform="matrix(1,0,0,1,-563,-18)" stroke-linecap="butt">
      <path fill="none" d="M642.7303 305.7053 L861.8315 305.7053 L871.8315 315.7053 L871.8315 345.7053 L632.7303 345.7053 L632.7303 315.7053 Z" clip-path="url(#clipPath2)"/>
      <text x="722.1403" xml:space="preserve" y="323.174" clip-path="url(#clipPath2)" font-family="sans-serif" stroke="none">Цикл по i </text>
      <text x="695.5358" xml:space="preserve" y="337.3068" clip-path="url(#clipPath2)" font-family="sans-serif" stroke="none">от 0 до MAX_STEPS</text>
    </g>
    <g fill="white" text-rendering="geometricPrecision" shape-rendering="geometricPrecision" transform="matrix(1,0,0,1,-563,-18)" stroke="white">
      <path d="M642.7303 432.6724 L861.8315 432.6724 L871.8315 442.6724 L871.8315 472.6724 L632.7303 472.6724 L632.7303 442.6724 Z" stroke="none" clip-path="url(#clipPath2)"/>
    </g>
    <g text-rendering="geometricPrecision" stroke-miterlimit="1.45" shape-rendering="geometricPrecision" transform="matrix(1,0,0,1,-563,-18)" stroke-linecap="butt">
      <path fill="none" d="M642.7303 432.6724 L861.8315 432.6724 L871.8315 442.6724 L871.8315 472.6724 L632.7303 472.6724 L632.7303 442.6724 Z" clip-path="url(#clipPath2)"/>
      <text x="697.1091" xml:space="preserve" y="450.1411" clip-path="url(#clipPath2)" font-family="sans-serif" stroke="none">Цикл для каждого</text>
      <text x="654.8981" xml:space="preserve" y="464.274" clip-path="url(#clipPath2)" font-family="sans-serif" stroke="none">объекта object в массиве objects</text>
    </g>
    <g fill="white" text-rendering="geometricPrecision" shape-rendering="geometricPrecision" transform="matrix(1,0,0,1,-563,-18)" stroke="white">
      <path d="M632.7303 369.1888 L871.8315 369.1888 L871.8315 409.1888 L632.7303 409.1888 Z" stroke="none" clip-path="url(#clipPath2)"/>
    </g>
    <g text-rendering="geometricPrecision" stroke-miterlimit="1.45" shape-rendering="geometricPrecision" transform="matrix(1,0,0,1,-563,-18)" stroke-linecap="butt">
      <path fill="none" d="M632.7303 369.1888 L871.8315 369.1888 L871.8315 409.1888 L632.7303 409.1888 Z" clip-path="url(#clipPath2)"/>
      <text x="678.6052" xml:space="preserve" y="386.6576" clip-path="url(#clipPath2)" font-family="sans-serif" stroke="none">Инициализация minDist </text>
      <text x="689.4128" xml:space="preserve" y="400.7904" clip-path="url(#clipPath2)" font-family="sans-serif" stroke="none">значением MAX_DIST</text>
    </g>
    <g fill="white" text-rendering="geometricPrecision" shape-rendering="geometricPrecision" transform="matrix(1,0,0,1,-563,-18)" stroke="white">
      <rect x="632.7303" width="239.1013" height="40" y="496.156" clip-path="url(#clipPath2)" stroke="none"/>
    </g>
    <g text-rendering="geometricPrecision" stroke-miterlimit="1.45" shape-rendering="geometricPrecision" transform="matrix(1,0,0,1,-563,-18)" stroke-linecap="butt">
      <rect fill="none" x="632.7303" width="239.1013" height="40" y="496.156" clip-path="url(#clipPath2)"/>
      <path fill="none" d="M642.7303 496.1559 L642.7303 536.1559 M861.8315 496.1559 L861.8315 536.1559 M642.7303 496.1559 Z" clip-path="url(#clipPath2)"/>
      <text x="646.0827" xml:space="preserve" y="513.6247" clip-path="url(#clipPath2)" font-family="sans-serif" stroke="none">Вычисление расстояния до объекта</text>
      <text x="683.0495" xml:space="preserve" y="527.7575" clip-path="url(#clipPath2)" font-family="sans-serif" stroke="none">dist = sdf(object, point)</text>
    </g>
    <g fill="white" text-rendering="geometricPrecision" shape-rendering="geometricPrecision" transform="matrix(1,0,0,1,-563,-18)" stroke="white">
      <path d="M752.2809 551.1559 L868.0815 580.8636 L752.2809 610.5714 L636.4803 580.8636 Z" stroke="none" clip-path="url(#clipPath2)"/>
    </g>
    <g text-rendering="geometricPrecision" stroke-miterlimit="1.45" shape-rendering="geometricPrecision" transform="matrix(1,0,0,1,-563,-18)" stroke-linecap="butt">
      <path fill="none" d="M752.2809 551.1559 L868.0815 580.8636 L752.2809 610.5714 L636.4803 580.8636 Z" clip-path="url(#clipPath2)"/>
      <text x="675.3972" xml:space="preserve" y="578.3324" clip-path="url(#clipPath2)" font-family="sans-serif" stroke="none">Объект ближе остальных:</text>
      <text x="707.779" xml:space="preserve" y="592.4652" clip-path="url(#clipPath2)" font-family="sans-serif" stroke="none">dist &lt; minDist?</text>
    </g>
    <g fill="white" text-rendering="geometricPrecision" shape-rendering="geometricPrecision" transform="matrix(1,0,0,1,-563,-18)" stroke="white">
      <path d="M750.7897 625.5714 L1018.4321 625.5714 L1018.4321 674.5714 L750.7897 674.5714 Z" stroke="none" clip-path="url(#clipPath2)"/>
    </g>
    <g text-rendering="geometricPrecision" stroke-miterlimit="1.45" shape-rendering="geometricPrecision" transform="matrix(1,0,0,1,-563,-18)" stroke-linecap="butt">
      <path fill="none" d="M750.7897 625.5714 L1018.4321 625.5714 L1018.4321 674.5714 L750.7897 674.5714 Z" clip-path="url(#clipPath2)"/>
      <text x="761.4498" xml:space="preserve" y="640.4737" clip-path="url(#clipPath2)" font-family="sans-serif" stroke="none">Устанавливаем минимальное расстояние</text>
      <text x="759.4429" xml:space="preserve" y="654.6065" clip-path="url(#clipPath2)" font-family="sans-serif" stroke="none">равынм расстоянию до текущего объекта</text>
      <text x="842.6402" xml:space="preserve" y="668.7393" clip-path="url(#clipPath2)" font-family="sans-serif" stroke="none">minDist = dist</text>
    </g>
    <g fill="white" text-rendering="geometricPrecision" shape-rendering="geometricPrecision" transform="matrix(1,0,0,1,-563,-18)" stroke="white">
      <path d="M1476.2809 285.0101 L1605.7065 333.2178 L1476.2809 381.4255 L1346.8553 333.2178 Z" stroke="none" clip-path="url(#clipPath2)"/>
    </g>
    <g text-rendering="geometricPrecision" stroke-miterlimit="1.45" shape-rendering="geometricPrecision" transform="matrix(1,0,0,1,-563,-18)" stroke-linecap="butt">
      <path fill="none" d="M1476.2809 285.0101 L1605.7065 333.2178 L1476.2809 381.4255 L1346.8553 333.2178 Z" clip-path="url(#clipPath2)"/>
      <text x="1379.6979" xml:space="preserve" y="330.6866" clip-path="url(#clipPath2)" font-family="sans-serif" stroke="none">Находимся на границе объекта:</text>
      <text x="1432.7926" xml:space="preserve" y="344.8194" clip-path="url(#clipPath2)" font-family="sans-serif" stroke="none">minDist &lt; EPS?</text>
    </g>
    <g fill="white" text-rendering="geometricPrecision" shape-rendering="geometricPrecision" transform="matrix(1,0,0,1,-563,-18)" stroke="white">
      <rect x="1510.8309" width="231.6013" height="40" y="395.4369" clip-path="url(#clipPath2)" stroke="none"/>
    </g>
    <g text-rendering="geometricPrecision" stroke-miterlimit="1.45" shape-rendering="geometricPrecision" transform="matrix(1,0,0,1,-563,-18)" stroke-linecap="butt">
      <rect fill="none" x="1510.8309" width="231.6013" height="40" y="395.4369" clip-path="url(#clipPath2)"/>
      <path fill="none" d="M1520.8309 395.4369 L1520.8309 435.4369 M1732.4321 395.4369 L1732.4321 435.4369 M1520.8309 395.4369 Z" clip-path="url(#clipPath2)"/>
      <text x="1536.2623" xml:space="preserve" y="412.9056" clip-path="url(#clipPath2)" font-family="sans-serif" stroke="none">Находим цвет точки по Фонгу</text>
      <text x="1540.5719" xml:space="preserve" y="427.0385" clip-path="url(#clipPath2)" font-family="sans-serif" stroke="none">color := phongShading(point)</text>
    </g>
    <g fill="white" text-rendering="geometricPrecision" shape-rendering="geometricPrecision" transform="matrix(1,0,0,1,-563,-18)" stroke="white">
      <path d="M1376.2303 224.7178 L1576.3315 224.7178 L1576.3315 254.7178 L1566.3315 264.7178 L1386.2303 264.7178 L1376.2303 254.7178 Z" stroke="none" clip-path="url(#clipPath2)"/>
    </g>
    <g text-rendering="geometricPrecision" stroke-miterlimit="1.45" shape-rendering="geometricPrecision" transform="matrix(1,0,0,1,-563,-18)" stroke-linecap="butt">
      <path fill="none" d="M1376.2303 224.7178 L1576.3315 224.7178 L1576.3315 254.7178 L1566.3315 264.7178 L1386.2303 264.7178 L1376.2303 254.7178 Z" clip-path="url(#clipPath2)"/>
      <text x="1408.7311" xml:space="preserve" y="249.253" clip-path="url(#clipPath2)" font-family="sans-serif" stroke="none">Конец цикла по object</text>
    </g>
    <g fill="white" text-rendering="geometricPrecision" shape-rendering="geometricPrecision" transform="matrix(1,0,0,1,-563,-18)" stroke="white">
      <path d="M1356.7303 496.1559 L1595.8315 496.1559 L1595.8315 526.1559 L1585.8315 536.1559 L1366.7303 536.1559 L1356.7303 526.1559 Z" stroke="none" clip-path="url(#clipPath2)"/>
    </g>
    <g text-rendering="geometricPrecision" stroke-miterlimit="1.45" shape-rendering="geometricPrecision" transform="matrix(1,0,0,1,-563,-18)" stroke-linecap="butt">
      <path fill="none" d="M1356.7303 496.1559 L1595.8315 496.1559 L1595.8315 526.1559 L1585.8315 536.1559 L1366.7303 536.1559 L1356.7303 526.1559 Z" clip-path="url(#clipPath2)"/>
      <text x="1451.8854" xml:space="preserve" y="520.6911" clip-path="url(#clipPath2)" font-family="sans-serif" stroke="none">i = i + 1</text>
    </g>
    <g fill="white" text-rendering="geometricPrecision" shape-rendering="geometricPrecision" transform="matrix(1,0,0,1,-563,-18)" stroke="white">
      <path d="M1356.7303 575.2261 L1595.8315 575.2261 L1595.8315 615.2261 L1356.7303 615.2261 Z" stroke="none" clip-path="url(#clipPath2)"/>
    </g>
    <g text-rendering="geometricPrecision" stroke-miterlimit="1.45" shape-rendering="geometricPrecision" transform="matrix(1,0,0,1,-563,-18)" stroke-linecap="butt">
      <path fill="none" d="M1356.7303 575.2261 L1595.8315 575.2261 L1595.8315 615.2261 L1356.7303 615.2261 Z" clip-path="url(#clipPath2)"/>
      <text x="1441.8043" xml:space="preserve" y="599.7613" clip-path="url(#clipPath2)" font-family="sans-serif" stroke="none">return сolor</text>
    </g>
    <g fill="white" text-rendering="geometricPrecision" shape-rendering="geometricPrecision" transform="matrix(1,0,0,1,-563,-18)" stroke="white">
      <rect x="1356.7303" y="645.2262" clip-path="url(#clipPath2)" width="239.1013" rx="20" ry="20" height="40" stroke="none"/>
    </g>
    <g text-rendering="geometricPrecision" stroke-miterlimit="1.45" shape-rendering="geometricPrecision" transform="matrix(1,0,0,1,-563,-18)" stroke-linecap="butt">
      <rect x="1356.7303" y="645.2262" clip-path="url(#clipPath2)" fill="none" width="239.1013" rx="20" ry="20" height="40"/>
      <text x="1457.7272" xml:space="preserve" y="669.7613" clip-path="url(#clipPath2)" font-family="sans-serif" stroke="none">Конец</text>
    </g>
    <g fill="white" text-rendering="geometricPrecision" shape-rendering="geometricPrecision" transform="matrix(1,0,0,1,-563,-18)" stroke="white">
      <path d="M632.7303 224.5 L871.8315 224.5 L871.8315 273.5 L632.7303 273.5 Z" stroke="none" clip-path="url(#clipPath2)"/>
    </g>
    <g text-rendering="geometricPrecision" stroke-miterlimit="1.45" shape-rendering="geometricPrecision" transform="matrix(1,0,0,1,-563,-18)" stroke-linecap="butt">
      <path fill="none" d="M632.7303 224.5 L871.8315 224.5 L871.8315 273.5 L632.7303 273.5 Z" clip-path="url(#clipPath2)"/>
      <text x="686.5622" xml:space="preserve" y="239.4023" clip-path="url(#clipPath2)" font-family="sans-serif" stroke="none">Инициализация color </text>
      <text x="713.5417" xml:space="preserve" y="253.5352" clip-path="url(#clipPath2)" font-family="sans-serif" stroke="none">цветом фона</text>
      <text x="705.8513" xml:space="preserve" y="267.668" clip-path="url(#clipPath2)" font-family="sans-serif" stroke="none">color = bgColor</text>
    </g>
    <g fill="url(#linearGradient1)" text-rendering="geometricPrecision" shape-rendering="geometricPrecision" transform="matrix(1,0,0,1,-563,-18)" stroke="url(#linearGradient1)">
      <rect x="919.4321" width="80" height="141.6617" y="33.6692" clip-path="url(#clipPath2)" stroke="none"/>
    </g>
    <g text-rendering="geometricPrecision" stroke-miterlimit="1.45" shape-rendering="geometricPrecision" transform="matrix(1,0,0,1,-563,-18)" stroke-linecap="butt">
      <path fill="none" d="M929.4321 33.6692 L919.4321 33.6692 L919.4321 175.3309 L929.4321 175.3309" clip-path="url(#clipPath2)"/>
      <text x="925.4321" xml:space="preserve" y="53.7371" clip-path="url(#clipPath2)" font-family="sans-serif" stroke="none">Алгоритм марширования лучей</text>
      <text x="925.4321" xml:space="preserve" y="67.8699" clip-path="url(#clipPath2)" font-family="sans-serif" stroke="none">Вход: point - координаты (x, y) пикселя, </text>
      <text x="925.4321" xml:space="preserve" y="82.0027" clip-path="url(#clipPath2)" font-family="sans-serif" stroke="none">          objects - массив объектов сцены,</text>
      <text x="925.4321" xml:space="preserve" y="96.1355" clip-path="url(#clipPath2)" font-family="sans-serif" stroke="none">          bgColor - цвет заднего фона, </text>
      <text x="925.4321" xml:space="preserve" y="110.2683" clip-path="url(#clipPath2)" font-family="sans-serif" stroke="none">          MAX_STEPS - максимально допустимое количество итераций </text>
      <text x="925.4321" xml:space="preserve" y="124.4012" clip-path="url(#clipPath2)" font-family="sans-serif" stroke="none">	для нахождения пересечения с объектами сцены,</text>
      <text x="925.4321" xml:space="preserve" y="138.534" clip-path="url(#clipPath2)" font-family="sans-serif" stroke="none">          MAX_DIST - максимально допустимое расстояние до </text>
      <text x="925.4321" xml:space="preserve" y="152.6668" clip-path="url(#clipPath2)" font-family="sans-serif" stroke="none">	близжайшего объекта сцены</text>
      <text x="925.4321" xml:space="preserve" y="166.7996" clip-path="url(#clipPath2)" font-family="sans-serif" stroke="none">Выход: color - цвет, соответствующий данному пикселю</text>
    </g>
    <g fill="url(#linearGradient2)" text-rendering="geometricPrecision" shape-rendering="geometricPrecision" transform="matrix(1,0,0,1,-563,-18)" stroke="url(#linearGradient2)">
      <circle r="20" clip-path="url(#clipPath2)" cx="752.2809" cy="744" stroke="none"/>
    </g>
    <g text-rendering="geometricPrecision" stroke-miterlimit="1.45" shape-rendering="geometricPrecision" transform="matrix(1,0,0,1,-563,-18)" stroke-linecap="butt">
      <circle fill="none" r="20" clip-path="url(#clipPath2)" cx="752.2809" cy="744"/>
    </g>
    <g fill="white" text-rendering="geometricPrecision" shape-rendering="geometricPrecision" transform="matrix(1,0,0,1,-563,-18)" stroke="white">
      <rect x="746.1413" width="12.2793" height="18.1328" y="734.9336" clip-path="url(#clipPath2)" stroke="none"/>
      <rect x="746.1413" y="734.9336" clip-path="url(#clipPath2)" fill="none" width="12.2793" height="18.1328" stroke-miterlimit="1.6"/>
    </g>
    <g text-rendering="geometricPrecision" stroke-miterlimit="1.45" shape-rendering="geometricPrecision" font-family="sans-serif" transform="matrix(1,0,0,1,-563,-18)" stroke-linecap="butt">
      <text x="748.1413" xml:space="preserve" y="748.5352" clip-path="url(#clipPath2)" stroke="none">А</text>
    </g>
    <g fill="url(#linearGradient3)" text-rendering="geometricPrecision" shape-rendering="geometricPrecision" transform="matrix(1,0,0,1,-563,-18)" stroke="url(#linearGradient3)">
      <circle r="20" clip-path="url(#clipPath2)" cx="1476.2809" cy="174.7178" stroke="none"/>
    </g>
    <g text-rendering="geometricPrecision" stroke-miterlimit="1.45" shape-rendering="geometricPrecision" transform="matrix(1,0,0,1,-563,-18)" stroke-linecap="butt">
      <circle fill="none" r="20" clip-path="url(#clipPath2)" cx="1476.2809" cy="174.7178"/>
    </g>
    <g fill="white" text-rendering="geometricPrecision" shape-rendering="geometricPrecision" transform="matrix(1,0,0,1,-563,-18)" stroke="white">
      <rect x="1470.1413" width="12.2793" height="18.1328" y="165.6514" clip-path="url(#clipPath2)" stroke="none"/>
      <rect x="1470.1413" y="165.6514" clip-path="url(#clipPath2)" fill="none" width="12.2793" height="18.1328" stroke-miterlimit="1.6"/>
    </g>
    <g text-rendering="geometricPrecision" stroke-miterlimit="1.45" shape-rendering="geometricPrecision" font-family="sans-serif" transform="matrix(1,0,0,1,-563,-18)" stroke-linecap="butt">
      <text x="1472.1412" xml:space="preserve" y="179.253" clip-path="url(#clipPath2)" stroke="none">А</text>
    </g>
    <g text-rendering="geometricPrecision" stroke-miterlimit="1.45" shape-rendering="geometricPrecision" transform="matrix(1,0,0,1,-563,-18)" stroke-linecap="butt">
      <path fill="none" d="M752.2809 124.4951 L752.2809 146.5273" clip-path="url(#clipPath2)"/>
    </g>
    <g text-rendering="geometricPrecision" stroke-miterlimit="1.45" shape-rendering="geometricPrecision" transform="matrix(1,0,0,1,-563,-18)" stroke-linecap="butt">
      <path d="M752.2809 154.5273 L757.2809 142.5273 L752.2809 145.5273 L747.2809 142.5273 Z" stroke="none" clip-path="url(#clipPath2)"/>
      <path fill="none" d="M752.2809 345.6989 L752.2809 361.1852" clip-path="url(#clipPath2)"/>
      <path d="M752.2809 369.1852 L757.2809 357.1852 L752.2809 360.1852 L747.2809 357.1852 Z" clip-path="url(#clipPath2)" stroke="none"/>
      <path fill="none" d="M752.2809 409.1824 L752.2809 424.6687" clip-path="url(#clipPath2)"/>
      <path d="M752.2809 432.6687 L757.2809 420.6687 L752.2809 423.6687 L747.2809 420.6687 Z" clip-path="url(#clipPath2)" stroke="none"/>
      <path fill="none" d="M752.2809 472.666 L752.2809 488.1523" clip-path="url(#clipPath2)"/>
      <path d="M752.2809 496.1523 L757.2809 484.1523 L752.2809 487.1523 L747.2809 484.1523 Z" clip-path="url(#clipPath2)" stroke="none"/>
      <path fill="none" d="M752.2809 536.1559 L752.2809 543.1313" clip-path="url(#clipPath2)"/>
      <path d="M752.2809 551.1313 L757.2809 539.1313 L752.2809 542.1313 L747.2809 539.1313 Z" clip-path="url(#clipPath2)" stroke="none"/>
      <path fill="none" d="M868.102 580.8636 L884.6109 580.8636 L884.6109 586.1559 L884.6109 617.5725" clip-path="url(#clipPath2)"/>
      <path d="M884.6109 625.5725 L889.6109 613.5725 L884.6109 616.5725 L879.6109 613.5725 Z" clip-path="url(#clipPath2)" stroke="none"/>
      <text x="871.4554" xml:space="preserve" y="571.4417" clip-path="url(#clipPath2)" font-family="sans-serif" stroke="none">да</text>
      <path fill="none" d="M1605.7045 333.2178 L1626.584 333.2178 L1626.6154 387.404" clip-path="url(#clipPath2)"/>
      <path d="M1626.62 395.404 L1631.613 383.4011 L1626.6147 386.404 L1621.613 383.4069 Z" clip-path="url(#clipPath2)" stroke="none"/>
      <text x="1613.0789" xml:space="preserve" y="327.0343" clip-path="url(#clipPath2)" font-family="sans-serif" stroke="none">да</text>
      <path fill="none" d="M1476.2809 264.7254 L1476.2809 277.0256" clip-path="url(#clipPath2)"/>
      <path d="M1476.2809 285.0256 L1481.2809 273.0256 L1476.2809 276.0256 L1471.2809 273.0256 Z" clip-path="url(#clipPath2)" stroke="none"/>
      <path fill="none" d="M1346.8584 333.2178 L1305 333.2178 L1305 466.148 L1476.2809 466.148 L1476.2809 488.1821" clip-path="url(#clipPath2)"/>
      <path d="M1476.2809 496.1821 L1481.2809 484.1821 L1476.2809 487.1821 L1471.2809 484.1821 Z" clip-path="url(#clipPath2)" stroke="none"/>
      <path fill="none" d="M1476.2809 536.1938 L1476.2809 567.2509" clip-path="url(#clipPath2)"/>
      <path d="M1476.2809 575.2509 L1481.2809 563.2509 L1476.2809 566.2509 L1471.2809 563.2509 Z" clip-path="url(#clipPath2)" stroke="none"/>
      <path fill="none" d="M1626.6315 435.4098 L1626.6315 551.5585 L1476.4846 551.5585 L1476.3792 567.2086" clip-path="url(#clipPath2)"/>
      <path d="M1476.3253 575.2084 L1481.406 563.2423 L1476.3859 566.2086 L1471.4061 563.175 Z" clip-path="url(#clipPath2)" stroke="none"/>
      <path fill="none" d="M1476.2809 615.2213 L1476.2809 637.2535" clip-path="url(#clipPath2)"/>
      <path d="M1476.2809 645.2535 L1481.2809 633.2535 L1476.2809 636.2535 L1471.2809 633.2535 Z" clip-path="url(#clipPath2)" stroke="none"/>
      <path fill="none" d="M752.2809 194.4709 L752.2809 216.4779" clip-path="url(#clipPath2)"/>
      <path d="M752.2809 224.4779 L757.2809 212.4779 L752.2809 215.4779 L747.2809 212.4779 Z" clip-path="url(#clipPath2)" stroke="none"/>
      <path fill="none" d="M752.2809 273.5322 L752.2809 297.7073" clip-path="url(#clipPath2)"/>
      <path d="M752.2809 305.7073 L757.2809 293.7073 L752.2809 296.7073 L747.2809 293.7073 Z" clip-path="url(#clipPath2)" stroke="none"/>
      <path fill="none" stroke-dasharray="6,2" d="M871.8126 104.5 L919.4301 104.5" clip-path="url(#clipPath2)"/>
      <path fill="none" d="M884.6109 674.6097 L884.6109 695.1833 L752.2809 695.1833 L752.2809 716.0252" clip-path="url(#clipPath2)"/>
      <path d="M752.2809 724.0252 L757.2809 712.0252 L752.2809 715.0252 L747.2809 712.0252 Z" clip-path="url(#clipPath2)" stroke="none"/>
      <path fill="none" d="M636.485 580.8636 L578.7354 580.8636 L578.7354 695.1833 L752.2809 695.1833 L752.2809 716.0252" clip-path="url(#clipPath2)"/>
      <path d="M752.2809 724.0252 L757.2809 712.0252 L752.2809 715.0252 L747.2809 712.0252 Z" clip-path="url(#clipPath2)" stroke="none"/>
      <path fill="none" d="M1476.2809 194.7129 L1476.2809 216.7452" clip-path="url(#clipPath2)"/>
      <path d="M1476.2809 224.7452 L1481.2809 212.7452 L1476.2809 215.7452 L1471.2809 212.7452 Z" clip-path="url(#clipPath2)" stroke="none"/>
    </g>
  </g>
</svg>
