<?xml version="1.0" standalone="no"?>
<!DOCTYPE svg PUBLIC "-//W3C//DTD SVG 20010904//EN"
 "http://www.w3.org/TR/2001/REC-SVG-20010904/DTD/svg10.dtd">
<svg version="1.0" xmlns="http://www.w3.org/2000/svg"
 width="499.000000pt" height="400.000000pt" viewBox="0 0 499.000000 400.000000"
 preserveAspectRatio="xMidYMid meet">

<g transform="translate(0.000000,400.000000) scale(0.100000,-0.100000)"
fill="#000000" stroke="none">
<path d="M2302 3727 c-2 -89 -7 -166 -13 -172 -5 -5 -9 -15 -9 -22 0 -20 -76
-118 -106 -138 -15 -10 -23 -22 -20 -31 8 -21 -20 -133 -39 -154 -8 -9 -13
-24 -9 -34 3 -9 3 -45 -1 -81 l-6 -64 -62 -20 c-33 -12 -69 -21 -79 -21 -13 0
-18 -8 -18 -29 0 -37 -10 -43 -69 -45 -49 -1 -66 -21 -36 -46 8 -7 15 -18 15
-25 0 -15 -94 -35 -131 -28 -40 8 -47 -15 -13 -46 16 -15 62 -62 103 -104 l74
-76 -28 -43 c-15 -24 -36 -53 -47 -65 -11 -12 -17 -26 -13 -32 9 -16 35 -13
42 4 3 9 25 29 50 46 l45 31 24 -23 c24 -23 24 -23 4 -31 -22 -8 -26 -28 -9
-45 9 -9 -1 -28 -41 -75 -30 -35 -57 -66 -60 -71 -9 -10 -291 350 -299 382 -8
30 -38 40 -47 16 -4 -9 1 -30 9 -48 18 -37 107 -354 114 -408 5 -31 1 -40 -28
-67 -19 -18 -42 -32 -53 -32 -34 0 -231 63 -239 76 -10 18 -34 18 -44 1 -13
-21 -241 -138 -248 -127 -3 5 -1 19 6 31 9 17 8 25 -5 37 -21 22 -36 6 -41
-44 -2 -24 -11 -45 -24 -55 -24 -19 -26 -30 -10 -46 14 -14 39 -6 39 13 0 8 5
14 10 14 6 0 10 -28 10 -62 0 -35 3 -107 7 -162 5 -80 4 -98 -7 -94 -8 2 -18
13 -24 23 -6 11 -16 24 -23 30 -11 10 -105 350 -107 390 -1 16 5 20 29 20 23
0 31 5 33 23 2 12 -1 22 -6 22 -13 0 -43 135 -39 175 2 24 -2 30 -18 30 -17 0
-21 -9 -27 -59 -11 -85 -12 -86 -119 -65 -50 9 -93 20 -96 23 -8 8 69 106 84
106 7 0 13 11 13 25 0 21 -5 25 -32 25 -18 0 -49 4 -68 9 -19 5 -86 20 -148
35 -62 14 -122 32 -134 40 -11 8 -27 12 -34 9 -18 -7 -18 -42 0 -49 26 -10
149 -155 150 -177 1 -19 7 -22 44 -24 24 -1 51 -4 60 -8 16 -6 16 -7 0 -16
-10 -6 -18 -18 -19 -27 0 -9 -13 -27 -29 -40 -27 -21 -33 -22 -70 -11 -22 7
-45 18 -51 26 -15 17 -29 16 -68 -3 -22 -11 -44 -14 -71 -9 -32 5 -41 3 -46
-9 -3 -9 -1 -23 6 -31 7 -9 11 -38 8 -77 l-3 -63 77 0 c42 0 79 -3 83 -7 4 -3
3 -27 0 -52 -6 -36 -10 -44 -20 -36 -7 6 -16 22 -19 35 -4 15 -14 25 -24 25
-15 0 -20 -26 -42 -205 -23 -197 -25 -207 -49 -218 -33 -16 -45 -39 -37 -71 9
-35 43 -51 79 -37 37 14 46 55 18 85 l-22 23 20 154 c32 238 29 224 52 203 10
-9 19 -23 19 -29 0 -7 7 -18 16 -25 12 -11 18 -10 32 3 15 15 15 18 1 33 -13
12 -14 24 -6 65 l10 49 52 0 c64 0 142 -26 156 -51 11 -22 35 -25 46 -6 13 22
55 28 68 11 14 -19 45 -8 45 16 0 10 -10 20 -22 24 -21 5 -22 7 -7 22 9 9 32
19 50 23 30 6 35 11 39 46 l6 40 16 -55 c9 -30 31 -110 47 -177 17 -67 36
-134 41 -149 7 -17 7 -31 1 -37 -15 -15 -1 -37 23 -37 29 0 46 -18 46 -48 0
-20 4 -23 27 -20 30 3 30 1 13 88 -5 25 -9 105 -9 177 l-1 133 119 60 c66 33
133 60 148 61 22 2 161 -32 232 -57 9 -3 -1 -17 -30 -44 -51 -46 -63 -49 -55
-16 4 15 0 28 -9 36 -21 17 -32 6 -38 -41 -3 -24 -13 -46 -21 -51 -21 -12 -20
-37 1 -45 11 -4 24 3 39 22 21 27 24 28 30 10 3 -11 19 -55 35 -97 16 -43 29
-82 29 -88 0 -15 -21 -12 -41 6 -10 9 -25 14 -34 11 -20 -8 -20 -47 0 -47 27
0 93 -51 99 -76 7 -27 27 -31 45 -10 10 12 8 19 -8 35 -26 26 -27 41 -2 41 11
0 23 -4 26 -10 9 -15 45 -12 45 3 0 7 -9 31 -20 52 -15 30 -19 52 -16 85 7 57
33 180 40 188 3 3 14 -2 24 -11 24 -22 44 -21 59 2 7 11 28 20 53 24 52 7 164
-23 168 -46 4 -20 -77 -132 -106 -146 -27 -13 -26 -44 1 -49 12 -3 20 4 24 17
3 12 9 21 13 21 4 0 45 27 90 59 88 63 105 65 126 17 10 -24 50 -29 47 -6 -1
8 -16 55 -33 104 -16 49 -30 94 -30 101 0 15 80 27 96 14 14 -12 44 -1 44 16
0 16 -25 37 -33 28 -4 -3 -35 2 -70 11 l-64 17 -28 90 c-18 56 -25 93 -19 99
11 11 25 2 40 -25 22 -39 39 -23 44 39 3 35 10 61 18 64 6 2 12 -1 12 -7 0 -6
11 -11 25 -11 31 0 32 13 4 39 l-22 20 31 18 c18 10 32 21 32 25 0 4 13 5 29
2 33 -7 49 17 25 37 -11 9 -21 9 -40 0 -29 -13 -64 -15 -64 -3 0 4 14 16 30
25 32 19 41 47 15 47 -22 0 -18 18 5 25 13 4 20 15 20 30 0 32 16 40 30 15 13
-25 38 -26 47 -2 8 24 115 132 130 132 7 0 13 6 13 13 0 8 30 49 67 91 54 64
78 84 131 107 35 16 70 29 78 29 8 0 28 -14 46 -30 36 -35 51 -34 57 1 4 30
38 79 56 79 15 0 24 19 18 38 -6 16 -38 15 -52 -1 -6 -8 -40 -26 -75 -41 l-63
-27 -89 41 c-49 23 -91 44 -93 46 -8 7 74 73 92 74 9 0 17 6 18 13 1 6 2 21 3
32 0 11 8 20 16 20 25 0 15 -105 -11 -127 -22 -19 -20 -48 3 -48 8 0 21 9 31
20 9 11 28 20 41 20 33 0 51 23 31 40 -9 7 -25 26 -36 42 -19 25 -19 34 -9 80
6 29 18 60 27 70 15 17 15 20 1 34 -18 19 -38 11 -38 -14 0 -10 -7 -28 -16
-40 -15 -22 -17 -22 -35 -6 -13 12 -22 14 -31 6 -18 -14 -175 -45 -222 -44
-30 1 -43 -4 -58 -23 -10 -13 -28 -25 -41 -27 -36 -5 -29 -42 8 -46 17 -2 34
-7 38 -12 5 -4 -26 -48 -69 -96 -43 -49 -78 -90 -78 -90 -1 -1 -12 -5 -24 -9
-22 -6 -23 -5 -17 17 4 12 12 25 16 26 5 2 9 18 9 35 0 49 27 140 45 149 8 5
15 18 15 29 0 26 80 129 100 129 13 0 15 22 12 161 -2 90 0 165 5 170 11 11
399 -230 420 -261 19 -26 40 -25 49 3 7 21 178 218 197 226 14 5 3 -257 -11
-271 -20 -20 -14 -48 9 -48 12 0 68 -23 126 -51 l106 -51 -6 -65 c-4 -50 -2
-66 9 -70 8 -3 20 -1 27 5 6 5 44 15 82 22 39 6 78 14 88 17 14 4 18 0 15 -12
-4 -24 -259 -155 -287 -148 -30 8 -39 -23 -14 -46 14 -14 19 -30 18 -67 -3
-79 -26 -177 -47 -197 -23 -23 -19 -41 11 -45 16 -3 24 2 28 17 7 26 155 141
182 141 22 0 171 -104 171 -119 0 -5 -24 -30 -52 -56 -29 -26 -112 -105 -184
-176 -72 -71 -138 -129 -147 -129 -23 0 -33 -26 -17 -45 10 -12 15 -12 33 0
18 12 59 13 240 6 121 -5 223 -13 230 -19 6 -6 27 -12 46 -14 19 -2 36 -7 38
-13 3 -13 -203 -89 -217 -80 -14 9 -40 -13 -34 -29 2 -6 -11 -33 -30 -60 l-34
-48 -17 26 c-21 31 -40 33 -55 6 -15 -27 -300 -290 -315 -290 -20 0 -28 -33
-12 -45 12 -9 77 -194 77 -219 0 -8 -64 -36 -82 -36 -7 0 -22 7 -33 16 -20 15
-20 15 4 33 13 10 21 23 17 30 -11 17 -34 13 -46 -9 -12 -22 -45 -28 -37 -6 3
7 8 35 12 62 4 27 16 61 26 77 21 30 18 47 -9 47 -12 0 -26 -23 -47 -75 -17
-41 -34 -75 -39 -75 -5 0 -53 29 -107 65 -53 36 -105 68 -114 71 -9 4 -21 18
-26 31 -16 42 -44 26 -46 -27 -1 -25 -10 -76 -20 -114 -24 -90 -43 -104 -139
-107 -90 -3 -118 14 -119 68 0 31 -4 38 -20 38 -16 0 -20 -7 -20 -35 -1 -47
-91 -291 -115 -312 -11 -9 -20 -23 -20 -31 0 -10 -61 -52 -76 -52 -1 0 -5 -10
-9 -23 -6 -20 -4 -23 17 -20 37 5 116 -24 121 -44 5 -19 47 -26 47 -8 0 16 46
41 63 35 18 -7 29 -42 16 -51 -5 -3 -9 -14 -9 -25 0 -23 -87 -129 -107 -129
-7 0 -17 -9 -23 -20 -8 -16 -6 -21 14 -32 41 -22 157 -129 166 -154 10 -25 34
-32 45 -14 4 6 22 17 41 25 34 14 35 13 98 -30 35 -25 69 -51 76 -60 16 -19
37 -19 56 0 9 8 25 17 38 21 25 6 124 -28 157 -55 l23 -18 -59 -129 c-32 -71
-62 -133 -67 -139 -10 -11 -66 19 -86 46 -23 33 -38 12 -36 -51 1 -46 6 -63
21 -77 35 -31 163 -209 163 -227 0 -28 27 -29 84 -2 30 14 58 26 63 26 4 0 51
16 103 35 55 21 104 34 117 30 20 -5 36 7 39 30 0 6 2 15 2 22 1 7 11 17 22
23 16 9 41 2 127 -31 60 -23 113 -49 119 -57 14 -19 44 -9 44 16 0 25 87 281
101 298 6 8 9 20 6 28 -7 17 85 255 105 270 18 14 11 46 -10 46 -11 0 -33 30
-60 81 -24 45 -41 83 -39 85 2 3 104 7 227 9 203 4 225 6 257 25 54 31 75 24
89 -32 6 -25 9 -59 6 -74 -4 -25 -3 -26 22 -22 22 4 27 1 32 -21 3 -14 8 -34
11 -44 2 -10 -1 -25 -8 -33 -8 -10 -9 -18 -2 -25 16 -16 46 -6 53 17 5 19 43
75 95 141 14 16 33 26 55 28 40 3 43 7 71 103 12 40 28 79 36 88 30 30 9 42
-62 36 -45 -3 -74 -1 -91 9 -21 11 -27 11 -33 0 -5 -7 -18 -11 -29 -9 -18 3
-14 12 44 88 36 47 76 94 89 105 22 18 35 55 19 55 -3 0 -26 -12 -51 -27 -25
-15 -62 -29 -82 -33 -29 -4 -35 -9 -33 -27 2 -14 -14 -38 -48 -73 -38 -39 -48
-55 -41 -68 11 -23 23 -132 14 -132 -5 0 -20 28 -35 63 -14 34 -33 63 -42 65
-20 4 -22 -34 -2 -41 7 -3 16 -19 19 -35 3 -16 9 -41 13 -56 4 -16 2 -26 -5
-26 -6 0 -11 9 -11 19 0 27 -21 37 -35 18 -16 -23 -32 -21 -45 4 -8 14 -17 18
-28 13 -36 -15 -407 -51 -429 -41 -21 9 -14 16 82 88 57 44 111 79 120 79 8 0
15 4 15 9 0 10 225 71 263 71 33 0 43 16 25 38 -8 9 -19 35 -25 57 -6 22 -18
64 -27 94 -10 36 -12 60 -6 72 10 18 86 46 129 47 34 1 115 -42 129 -70 21
-41 24 -87 7 -105 -11 -11 -13 -19 -6 -26 7 -7 41 4 107 35 54 26 103 44 111
41 10 -4 13 -36 15 -127 3 -269 5 -296 12 -303 4 -4 6 92 5 213 -1 122 1 226
5 233 10 15 1 27 -25 34 -15 4 -23 0 -26 -13 -4 -16 -138 -90 -163 -90 -10 0
-17 84 -9 108 9 24 0 42 -21 42 -28 0 -112 41 -130 63 -17 20 -17 20 -36 -1
-24 -26 -95 -52 -122 -45 -27 7 -38 -14 -19 -35 9 -10 20 -35 26 -57 6 -22 17
-67 25 -99 9 -36 12 -66 6 -75 -8 -16 -193 -67 -265 -73 -16 -2 -30 -8 -30
-15 0 -10 -69 -67 -188 -157 -37 -28 -38 -28 -58 -10 l-21 19 24 5 c29 7 30
34 1 38 -25 4 -31 30 -11 50 10 10 6 18 -17 36 -26 21 -29 27 -20 52 8 21 19
30 40 34 18 3 31 13 35 25 9 36 84 135 102 135 9 0 20 5 23 10 9 14 -13 40
-28 34 -7 -2 -37 -5 -67 -7 l-55 -2 -6 -40 c-3 -22 -15 -65 -26 -95 -16 -46
-23 -55 -44 -55 -15 0 -28 8 -34 23 -13 30 -28 28 -64 -9 -17 -17 -35 -29 -40
-27 -5 2 -32 34 -60 73 -61 84 -66 101 -21 73 15 -10 22 -10 32 0 18 18 -17
39 -95 57 -21 4 -27 10 -23 22 8 20 -11 43 -30 36 -18 -7 -17 3 7 112 27 123
27 120 4 120 -12 0 -21 -8 -23 -20 -5 -31 -54 -145 -63 -145 -13 0 -60 168
-57 203 3 27 25 53 144 164 77 72 149 132 160 133 37 4 46 0 40 -16 -12 -32
-100 -144 -113 -144 -18 0 -16 -37 2 -44 8 -3 20 3 27 12 7 9 34 27 60 39 54
26 98 19 148 -23 31 -27 60 -26 60 1 0 9 -8 18 -17 22 -10 3 -45 36 -79 72
l-61 66 35 52 c19 29 39 53 45 53 5 0 15 6 21 14 18 22 206 88 233 81 16 -4
25 -1 30 10 7 21 -10 38 -43 41 -14 2 -34 10 -43 18 -14 13 -60 17 -251 22
-129 3 -240 9 -248 13 -9 5 41 59 171 184 102 97 187 177 191 177 17 0 174
-122 179 -140 6 -24 35 -27 44 -4 3 9 -3 23 -16 35 -11 11 -21 25 -22 32 0 7
-4 4 -8 -6 -6 -16 -15 -12 -80 35 -40 29 -68 54 -62 56 21 7 111 -30 127 -51
12 -16 15 -17 11 -4 -8 21 5 22 45 1 20 -11 34 -12 40 -6 15 15 2 42 -18 42
-20 0 -84 38 -100 59 -15 19 -44 7 -44 -18 0 -24 -36 -17 -51 10 -12 23 -35
25 -46 4 -7 -13 -20 -7 -73 30 -36 25 -77 59 -92 77 l-27 32 -34 -35 c-42 -43
-146 -123 -152 -117 -8 8 33 162 44 166 14 5 15 42 1 42 -5 0 -14 10 -21 21
-9 18 -8 25 7 39 24 23 276 150 297 150 11 0 16 7 14 22 -1 17 4 24 21 26 13
2 29 -1 36 -7 15 -12 37 5 30 23 -3 7 9 24 25 40 23 22 39 28 82 29 l54 2 6
55 c7 64 20 92 63 138 56 60 60 60 207 -29 73 -44 139 -84 146 -88 10 -5 2
-23 -30 -69 -23 -34 -48 -62 -55 -62 -7 0 -24 11 -38 25 -14 14 -31 25 -39 25
-22 0 -18 -38 5 -45 11 -3 20 -10 20 -14 0 -10 -71 -32 -81 -25 -15 9 -49 -16
-43 -31 4 -9 19 -13 44 -12 25 1 46 -5 59 -17 24 -22 51 -15 51 14 0 11 4 20
9 20 14 0 196 -234 193 -248 -2 -8 4 -22 12 -31 8 -9 18 -34 21 -56 6 -34 3
-43 -18 -63 -27 -25 -45 -16 -29 15 5 10 7 24 5 31 -8 23 -33 12 -47 -20 -20
-48 -83 -105 -98 -90 -17 17 -48 15 -48 -3 0 -8 9 -20 20 -27 19 -12 16 -16
-42 -75 -34 -35 -70 -63 -80 -63 -13 0 -18 -8 -18 -25 0 -26 26 -35 46 -16 13
13 113 41 146 41 39 0 45 23 14 54 l-26 25 6 -24 c5 -21 1 -27 -27 -39 -19 -8
-52 -17 -74 -22 l-40 -7 50 54 c28 30 58 54 67 53 11 0 16 6 15 20 -3 27 29
33 53 11 22 -20 40 -12 40 16 0 20 15 26 25 9 3 -5 14 -10 23 -11 25 -1 142
-146 142 -176 0 -20 4 -24 23 -21 24 3 26 23 7 88 -1 3 -5 -3 -9 -14 -6 -15
-17 -7 -71 54 -35 40 -70 84 -77 98 -12 22 -11 28 8 49 27 28 34 23 34 -25 0
-30 4 -37 20 -37 15 0 19 6 17 25 -4 38 19 110 40 123 27 17 24 49 -4 45 -13
-2 -23 -10 -23 -19 0 -21 -24 -49 -40 -49 -17 0 -26 40 -19 78 5 24 2 31 -12
36 -11 4 -31 24 -46 45 -15 21 -38 51 -52 67 -50 59 -116 144 -116 149 0 15
39 -2 156 -66 71 -40 139 -81 151 -92 25 -22 56 -16 51 10 -2 10 -12 19 -23
21 -11 2 -49 32 -85 66 -154 146 -149 142 -171 128 -12 -8 -23 -11 -26 -9 -9
10 42 77 59 77 9 0 19 4 22 9 11 17 -6 41 -27 39 -29 -1 -297 159 -297 178 0
20 -29 17 -37 -3 -7 -21 -53 -73 -64 -73 -4 0 1 26 10 57 11 38 23 59 34 61
26 5 166 -55 186 -79 17 -22 18 -22 37 -2 27 28 235 63 258 44 12 -10 19 -11
30 -2 10 9 55 7 182 -5 194 -18 210 -25 194 -84 -11 -39 -148 -236 -182 -262
-19 -14 -20 -18 -9 -32 8 -9 19 -15 25 -14 12 3 174 -60 194 -75 18 -14 15
-52 -8 -72 -15 -14 -17 -22 -9 -37 5 -10 9 -42 7 -71 -3 -51 -4 -52 -32 -50
-17 1 -34 9 -38 18 -10 17 -44 20 -53 5 -9 -14 13 -40 34 -40 15 -1 54 -62
153 -242 20 -36 34 -68 32 -71 -3 -2 -37 8 -77 23 -40 16 -119 45 -177 66 -58
21 -113 44 -122 52 -20 16 -48 10 -48 -11 0 -8 7 -20 15 -27 10 -9 15 -9 15
-1 0 6 8 11 19 11 35 0 346 -121 360 -141 14 -20 46 -25 56 -9 4 6 11 8 16 5
5 -4 9 -2 9 3 0 5 -10 14 -22 21 -13 7 -61 79 -110 164 -79 140 -95 184 -49
143 10 -9 22 -16 28 -16 16 0 25 32 13 44 -13 13 -13 103 1 112 6 3 8 15 5 27
-6 22 9 56 32 73 23 17 7 43 -25 42 -41 0 -197 67 -201 86 -2 9 34 69 79 134
79 112 92 127 114 135 6 2 6 13 -2 28 -7 13 -13 33 -15 44 -3 16 -11 20 -43
21 -110 1 -346 28 -356 40 -7 9 -17 11 -28 5 -18 -10 -246 -51 -283 -51 -27 0
-176 57 -199 77 -8 7 -24 13 -33 13 -14 0 -17 -6 -14 -24 3 -14 -3 -57 -13
-96 -14 -56 -26 -81 -60 -118 -87 -97 -104 -109 -163 -116 -53 -7 -56 -9 -56
-36 0 -16 -4 -31 -10 -35 -5 -3 -55 -14 -112 -25 -112 -20 -125 -17 -128 30
-3 39 -1 43 15 30 15 -13 45 -7 45 8 0 5 -10 20 -21 33 -12 13 -28 38 -35 56
-16 38 -32 49 -47 34 -9 -9 -8 -16 1 -31 6 -11 12 -27 12 -35 0 -21 -175 67
-191 97 -15 28 -6 273 11 294 7 7 10 21 6 29 -7 19 -46 20 -46 2 0 -8 -45 -64
-101 -125 -71 -79 -107 -112 -123 -112 -24 0 -391 228 -418 260 -37 45 -43 29
-46 -143z m1423 -260 c-9 -34 -40 -61 -61 -53 -15 6 -12 13 21 46 21 22 40 38
42 36 2 -2 1 -15 -2 -29z m-1059 -43 c-5 -19 -10 -24 -17 -17 -8 8 -7 18 1 33
15 28 24 19 16 -16z m-46 -5 c0 -3 -10 -16 -22 -29 -13 -13 -27 -33 -33 -44
-5 -10 -27 -33 -47 -49 l-37 -30 -43 17 c-69 26 -76 33 -54 49 11 8 16 19 12
25 -10 17 -46 15 -46 -2 0 -22 -17 -28 -40 -16 -16 9 -18 15 -10 30 6 11 21
20 34 20 12 0 26 3 30 8 4 4 53 16 109 27 76 15 108 18 124 10 13 -5 23 -13
23 -16z m634 -5 c4 -9 4 -19 2 -21 -8 -8 -26 8 -26 23 0 19 16 18 24 -2z m326
-40 c0 -12 -46 -43 -64 -44 -18 0 -18 2 4 25 21 22 60 35 60 19z m-894 -61 c5
-19 2 -30 -11 -39 -25 -18 -29 -12 -21 31 8 42 23 46 32 8z m1594 -51 l75 -74
-90 47 c-145 77 -165 88 -165 97 0 4 24 7 53 6 50 -2 54 -5 127 -76z m-240 34
c0 -19 -34 -29 -62 -20 -22 7 -22 8 7 20 40 17 55 17 55 0z m-1629 -17 c27
-12 49 -24 48 -28 -1 -16 -126 -111 -145 -111 -23 0 -40 -25 -24 -35 18 -11
10 -23 -10 -18 -11 3 -20 8 -20 12 0 9 93 201 97 201 3 0 27 -10 54 -21z m-84
4 c-3 -5 -19 -39 -36 -78 -47 -103 -55 -113 -85 -108 -14 3 -26 12 -26 20 0 8
32 50 71 94 64 71 89 94 76 72z m263 -94 c0 -14 -20 -21 -112 -40 -142 -30
-144 -28 -55 49 l59 51 54 -27 c30 -14 54 -29 54 -33z m230 12 c0 -18 -51 -63
-66 -57 -9 3 -20 6 -25 6 -23 0 -5 21 34 39 49 22 57 24 57 12z m-166 -42 c-9
-15 -34 -10 -28 5 3 8 12 12 20 9 8 -3 11 -9 8 -14z m-84 -17 c0 -12 -30 -37
-65 -54 -33 -17 -100 -22 -158 -12 -59 9 -32 26 86 50 117 25 137 27 137 16z
m-344 -65 c6 -5 -49 -76 -60 -77 -4 0 -6 6 -3 14 7 17 -18 40 -33 31 -6 -4
-10 5 -10 23 l0 29 51 -8 c28 -5 53 -10 55 -12z m199 -38 c13 -13 19 -12 45
11 27 24 38 19 19 -8 -38 -53 -72 -85 -92 -86 -16 -1 -22 -7 -22 -23 -1 -32
-101 -132 -126 -126 -10 3 -19 7 -19 9 0 13 71 142 84 153 20 17 20 37 0 45
-19 7 -34 -1 -34 -19 0 -16 -118 -97 -131 -90 -11 7 1 68 15 77 6 4 23 8 38 8
23 0 27 4 26 30 -2 54 11 59 105 43 45 -8 86 -18 92 -24z m-332 -50 c-6 -21
-39 -39 -84 -45 -44 -6 -25 32 25 50 57 20 65 19 59 -5z m39 6 c0 -5 -5 -11
-11 -13 -6 -2 -11 4 -11 13 0 9 5 15 11 13 6 -2 11 -8 11 -13z m-4 -72 c-4
-62 -28 -71 -28 -10 0 24 3 47 7 50 16 17 24 3 21 -40z m152 30 c0 -5 -13 -30
-28 -58 -28 -51 -61 -70 -94 -53 -30 15 -20 31 45 74 64 43 77 49 77 37z
m-190 -17 c0 -8 -3 -21 -6 -30 -5 -14 -9 -13 -31 1 -24 16 -24 17 -7 30 23 17
44 17 44 -1z m2260 -13 c-1 -5 -7 -19 -14 -32 -11 -21 -14 -21 -20 -6 -3 10
-1 24 5 31 12 15 29 19 29 7z m-2365 -13 c7 -12 -3 -50 -13 -50 -20 1 -34 19
-27 39 7 22 29 28 40 11z m95 -51 c0 -9 -15 -26 -32 -37 -30 -19 -34 -20 -50
-5 -22 20 -22 21 2 61 l20 33 30 -18 c17 -9 30 -25 30 -34z m-163 6 c-12 -42
-19 -43 -42 -9 -19 30 -9 44 32 44 20 0 20 -2 10 -35z m2306 3 c7 -27 -4 -42
-44 -58 -44 -18 -46 -6 -8 39 40 46 45 48 52 19z m-2103 -28 c0 -5 -4 -10 -10
-10 -5 0 -10 5 -10 10 0 6 5 10 10 10 6 0 10 -4 10 -10z m-160 -19 c0 -6 -5
-13 -10 -16 -15 -9 -43 3 -35 15 8 13 45 13 45 1z m216 -12 c16 -17 16 -22 4
-29 -23 -15 -38 -12 -45 10 -7 21 0 40 14 40 4 0 16 -9 27 -21z m1530 -6 c-8
-8 -36 5 -36 17 0 7 6 7 21 0 11 -7 18 -14 15 -17z m-1603 -36 c-3 -4 -10 -3
-17 2 -7 6 -16 8 -19 4 -4 -3 -13 0 -22 7 -14 11 -14 14 1 25 13 9 21 7 39 -9
13 -11 21 -24 18 -29z m-223 33 c13 -8 12 -11 -5 -25 -20 -15 -20 -15 4 -35
l23 -20 -25 0 c-31 0 -43 -16 -27 -35 10 -12 15 -12 35 1 43 28 52 -6 17 -61
-12 -19 -17 -15 -92 64 -44 46 -80 88 -80 92 0 21 122 37 150 19z m110 -11 c0
-5 -4 -9 -10 -9 -5 0 -10 7 -10 16 0 8 5 12 10 9 6 -3 10 -10 10 -16z m-56
-40 c-11 -18 -24 -8 -24 19 1 26 1 26 15 8 8 -10 12 -23 9 -27z m99 17 c23
-18 6 -30 -29 -22 -21 6 -24 9 -14 21 15 18 20 18 43 1z m127 -26 c0 -5 -13
-22 -30 -40 -25 -26 -32 -30 -50 -20 -25 13 -25 24 -1 47 19 18 81 27 81 13z
m-113 -24 c-11 -9 -14 -17 -8 -20 6 -4 7 -14 4 -23 -5 -14 -9 -13 -25 7 -21
27 -23 41 -4 34 8 -3 17 -1 21 5 3 6 12 11 18 11 7 0 4 -7 -6 -14z m-43 -40
c14 -19 26 -37 26 -41 0 -9 -43 -51 -71 -69 -24 -15 -27 -15 -43 3 -17 18 -17
21 -1 45 10 14 23 26 31 26 22 0 27 20 10 39 -21 23 -20 31 3 31 10 0 30 -15
45 -34z m86 -25 c14 -27 13 -31 -10 -31 -20 0 -44 32 -33 44 12 12 32 6 43
-13z m-392 -211 c63 -80 120 -151 126 -159 7 -10 6 -16 -7 -26 -26 -19 -20
-39 18 -59 19 -11 35 -22 35 -26 0 -10 -205 -34 -224 -27 -10 4 -21 -1 -28
-13 -13 -20 -38 -27 -38 -11 0 14 58 53 69 47 5 -3 14 1 21 9 10 13 10 19 -3
33 -14 15 -103 309 -121 397 l-6 30 21 -25 c12 -14 74 -90 137 -170z m443 150
c-26 -22 -37 -25 -46 -10 -11 18 5 30 38 30 l32 -1 -24 -19z m-64 -40 c-22 -6
-38 -40 -18 -40 17 0 13 -60 -5 -67 -27 -10 -40 14 -19 37 16 18 17 23 5 30
-21 14 -30 12 -37 -6 -5 -13 -9 -12 -29 7 -13 12 -24 25 -24 29 0 10 60 41 69
36 4 -3 17 1 27 9 17 12 21 11 36 -8 16 -21 16 -22 -5 -27z m-168 6 c9 -11 6
-18 -16 -33 -53 -37 -56 -37 -33 5 26 46 32 49 49 28z m-1402 -64 c67 -16 126
-33 132 -37 18 -10 13 -23 -26 -76 -36 -49 -40 -50 -77 -46 -22 3 -43 13 -48
21 -5 9 -15 16 -23 16 -14 0 -145 145 -145 160 0 5 15 4 33 0 17 -4 87 -21
154 -38z m1448 -162 c-7 -49 -8 -50 -25 -35 -19 17 -40 13 -40 -7 0 -5 9 -23
21 -39 18 -26 19 -49 1 -49 -15 0 -54 69 -46 82 16 28 87 109 91 104 3 -3 2
-28 -2 -56z m63 -66 c-2 -2 -14 -1 -26 3 -19 5 -22 12 -22 57 0 75 12 77 33 6
10 -34 17 -64 15 -66z m-1159 33 c14 -72 5 -121 -18 -93 -19 23 -40 20 -51 -9
-10 -25 -18 -28 -90 -29 -30 -1 -35 -5 -40 -30 -4 -23 -7 -26 -16 -15 -6 8
-14 22 -17 32 -4 11 -17 17 -37 17 -17 0 -47 7 -67 15 -36 15 -36 15 -17 36
10 12 29 25 42 30 13 5 22 17 22 29 0 14 7 20 24 20 48 0 181 -32 199 -48 17
-16 20 -15 33 2 8 12 10 24 5 30 -10 12 -3 76 8 76 4 0 13 -28 20 -63z m1091
-59 c0 -5 -4 -8 -10 -8 -5 0 -10 10 -10 23 0 18 2 19 10 7 5 -8 10 -18 10 -22z
m48 11 c55 -19 52 -68 -4 -69 -21 0 -34 23 -34 63 0 20 -1 20 38 6z m-107 -51
c11 -15 17 -28 12 -28 -17 1 -51 36 -58 60 -7 22 -6 24 9 11 9 -8 26 -27 37
-43z m-1535 16 c18 7 84 -11 84 -22 -1 -15 -38 -50 -56 -54 -15 -3 -18 -11
-16 -36 l2 -32 -62 7 c-35 3 -69 10 -75 16 -7 5 -13 29 -13 52 0 23 6 47 13
53 21 18 81 30 94 19 7 -5 20 -6 29 -3z m1749 2 l30 -12 -34 -7 c-24 -5 -37
-3 -43 5 -19 31 -3 35 47 14z m-1584 -47 c19 -7 43 -20 55 -30 11 -11 24 -19
29 -19 5 0 16 -7 26 -16 15 -14 15 -18 2 -45 -18 -36 -31 -37 -58 -2 -15 18
-26 24 -36 17 -12 -7 -139 -7 -147 1 -11 10 64 105 83 105 7 0 27 -5 46 -11z
m1534 -16 c19 -48 22 -70 10 -86 -11 -15 -19 -16 -66 -6 -76 15 -209 60 -209
69 0 11 94 23 120 15 12 -4 25 -18 30 -31 11 -27 22 -30 40 -10 9 12 7 17 -9
28 -27 17 -27 26 2 31 51 10 75 7 82 -10z m-1265 0 c0 -10 -38 -45 -71 -67
-24 -15 -27 -15 -40 0 -11 14 -9 19 16 38 25 18 54 29 88 35 4 0 7 -2 7 -6z
m948 -39 c-19 -19 -78 -25 -78 -8 0 12 23 19 75 23 18 1 18 0 3 -15z m1691
-41 c28 -31 49 -59 46 -61 -8 -9 -55 28 -55 43 0 21 -20 19 -44 -5 -23 -21
-100 -56 -95 -43 8 19 85 122 91 123 3 0 29 -26 57 -57z m-1830 18 c13 -8 13
-20 -3 -85 -10 -43 -24 -80 -33 -85 -14 -7 -14 -13 5 -53 32 -64 29 -88 -8
-88 -34 0 -38 7 -88 148 l-30 82 51 45 c51 44 78 53 106 36z m-603 -27 c-4 -9
-9 -15 -11 -12 -3 3 -3 13 1 22 4 9 9 15 11 12 3 -3 3 -13 -1 -22z m422 -41
c-2 -9 -8 -18 -15 -20 -7 -3 -9 3 -6 16 6 25 26 28 21 4z m596 -14 c-7 -11
-136 -100 -140 -97 -7 8 78 108 91 108 8 0 15 5 15 10 0 6 8 5 19 -2 11 -7 18
-15 15 -19z m84 -3 c3 -15 1 -16 -17 -6 -12 6 -19 16 -15 21 9 15 28 5 32 -15z
m588 -243 c75 -48 124 -84 124 -94 0 -9 -12 -24 -26 -34 -14 -9 -23 -22 -21
-29 7 -17 -99 -69 -124 -61 -13 4 -21 1 -25 -10 -12 -29 9 -35 70 -19 65 17
82 11 47 -15 -23 -17 -22 -41 1 -41 6 0 27 19 48 43 21 23 41 39 46 34 10 -10
-14 -135 -30 -159 -13 -18 -14 -18 -34 9 -15 21 -29 27 -58 28 -48 2 -243 62
-266 82 -10 9 -24 13 -33 10 -23 -9 -18 -36 8 -46 13 -5 30 -15 38 -23 8 -7
39 -35 69 -61 30 -27 62 -60 71 -75 19 -33 43 -35 47 -5 2 12 10 27 18 34 11
9 19 8 35 -7 45 -41 64 -103 41 -136 -10 -13 -18 -47 -19 -82 -2 -32 -8 -65
-15 -73 -6 -8 -12 -23 -13 -33 -2 -31 -30 -49 -143 -89 l-111 -39 -14 21 c-19
29 -52 16 -43 -17 7 -27 -18 -39 -58 -28 -38 11 -156 128 -156 155 0 16 21 44
65 86 68 66 75 80 49 102 -11 9 -14 22 -9 46 8 45 -12 51 -59 20 -31 -22 -41
-24 -77 -16 -22 5 -57 16 -77 25 -36 15 -36 16 -17 31 11 8 35 21 53 29 22 10
32 21 32 36 0 16 58 189 97 288 4 9 9 2 12 -20 5 -30 10 -35 31 -33 14 1 73 3
132 5 l108 3 0 30 c0 25 12 77 46 193 2 6 6 12 10 12 4 0 62 -35 130 -77z
m-1175 7 c5 0 9 -7 9 -15 0 -21 -14 -19 -36 7 -18 20 -18 21 -1 15 10 -4 23
-7 28 -7z m1364 -37 c-7 -51 -19 -72 -30 -54 -6 11 23 101 32 101 3 0 2 -21
-2 -47z m254 -59 c-10 -48 -21 -94 -24 -103 -6 -14 -8 -13 -15 4 -5 11 -6 31
-3 45 7 38 47 140 54 140 3 0 -2 -39 -12 -86z m-269 -35 c0 -9 -39 -23 -47
-16 -2 3 1 15 7 27 9 17 14 19 26 9 8 -6 14 -15 14 -20z m69 -32 c8 -11 3 -16
-24 -24 -39 -12 -48 0 -17 23 22 17 27 17 41 1z m-88 -20 c-13 -13 -26 -3 -16
12 3 6 11 8 17 5 6 -4 6 -10 -1 -17z m216 -4 c-2 -22 3 -29 21 -31 12 -2 22
-10 22 -18 0 -11 -7 -13 -27 -8 -38 9 -43 13 -43 30 0 8 -10 19 -22 23 l-23 9
25 10 c40 17 49 14 47 -15z m-67 -23 c0 -11 -73 -14 -84 -3 -3 4 6 12 21 19
29 11 63 3 63 -16z m-2745 0 c0 -8 -10 -19 -22 -25 -13 -5 -23 -13 -23 -18 0
-4 -4 -5 -10 -2 -11 7 -13 48 -3 59 13 12 58 2 58 -14z m2569 11 c3 -5 -1 -11
-9 -15 -9 -3 -15 0 -15 9 0 16 16 20 24 6z m-44 -10 c0 -11 -56 -32 -64 -23
-4 3 6 11 21 18 35 15 43 16 43 5z m157 -64 c33 -23 61 -46 61 -52 -1 -10 -96
-85 -108 -85 -8 0 -6 25 6 78 6 28 4 32 -15 32 -14 0 -21 -6 -21 -19 0 -10 -7
-25 -16 -32 -15 -12 -16 -11 -11 6 3 11 9 38 13 60 7 44 12 55 22 55 4 0 35
-19 69 -43z m70 33 c12 0 29 -7 38 -16 15 -16 15 -18 -3 -36 -19 -20 -20 -20
-76 17 -31 21 -56 40 -56 43 0 2 17 2 38 -2 20 -3 47 -6 59 -6z m173 -12 c0
-6 -7 -7 -16 -4 -9 3 -18 6 -20 6 -3 0 -3 4 1 10 7 11 35 2 35 -12z m55 -8 c3
-5 1 -10 -4 -10 -6 0 -11 5 -11 10 0 6 2 10 4 10 3 0 8 -4 11 -10z m393 -51
c-61 -87 -90 -96 -63 -19 20 58 42 80 77 80 l29 0 -43 -61z m-435 36 c31 -8
149 -169 134 -184 -25 -25 -69 -10 -175 60 -129 87 -119 78 -102 89 9 6 18 3
25 -7 17 -23 48 -9 40 17 -12 39 1 43 78 25z m-607 -65 c57 -17 124 -41 150
-54 40 -21 47 -28 50 -59 1 -19 -3 -43 -11 -53 -13 -18 -14 -17 -25 10 -6 16
-9 38 -8 50 2 14 -3 22 -17 24 -11 3 -27 13 -37 24 -20 24 -38 16 -38 -17 0
-31 -26 -39 -55 -17 -43 34 -125 110 -125 116 0 9 4 8 116 -24z m598 -97 c59
-40 112 -73 117 -73 4 0 13 9 19 20 15 29 32 25 58 -15 26 -41 28 -58 7 -75
-21 -18 -32 -4 -17 21 17 27 5 42 -26 34 -15 -4 -64 -1 -110 6 -93 14 -117 30
-150 101 -19 41 -43 46 -52 11 -7 -31 -54 -65 -69 -50 -6 6 -21 11 -34 12 -38
0 -28 18 36 67 60 45 63 46 87 31 14 -9 74 -49 134 -90z m-327 13 c-8 -15 -18
-23 -21 -17 -4 5 -1 13 5 16 5 4 8 14 5 22 -3 8 0 24 6 36 13 22 13 22 16 -3
2 -14 -4 -38 -11 -54z m1570 60 c-9 -23 -138 -186 -147 -186 -5 0 -16 -3 -26
-7 -12 -4 -15 -3 -10 5 4 7 9 22 11 34 9 43 74 113 140 149 39 21 38 21 32 5z
m-1341 -93 l27 -36 -53 6 c-29 4 -55 9 -58 11 -3 4 45 54 54 56 1 0 14 -16 30
-37z m358 6 c6 -34 -7 -69 -27 -69 -7 0 -24 14 -36 31 l-24 32 24 18 c36 28
56 24 63 -12z m-572 -36 c18 -15 35 -28 37 -30 12 -9 -46 -52 -82 -61 -23 -6
-43 -10 -44 -8 -17 17 20 126 43 126 7 0 27 -12 46 -27z m52 8 c28 -31 -2 -38
-32 -7 -25 25 -25 26 -6 26 12 0 29 -9 38 -19z m560 0 c7 -10 -15 -71 -26 -71
-15 0 -17 18 -5 49 11 31 21 38 31 22z m-423 -23 l70 -11 62 -81 c99 -130 97
-111 29 -233 -32 -58 -62 -104 -67 -104 -13 2 -5 92 10 114 15 21 10 47 -9 47
-15 0 -96 127 -96 150 0 28 -32 34 -50 10 -8 -11 -26 -22 -39 -25 -33 -6 -37
-13 -23 -35 7 -12 12 -59 12 -120 0 -99 0 -100 -24 -100 -14 0 -28 5 -31 10
-3 6 -14 10 -24 10 -14 0 -20 11 -26 46 -3 25 -2 50 3 57 7 8 1 23 -19 47
l-29 35 6 -35 c4 -19 13 -60 20 -90 14 -55 18 -90 10 -90 -10 0 -81 45 -88 54
-4 6 0 18 8 27 14 15 13 19 -4 36 -27 26 -37 72 -16 80 8 3 20 16 25 29 10 27
29 32 29 9 0 -8 5 -15 10 -15 7 0 7 6 1 18 -20 37 82 109 133 96 16 -4 25 0
30 11 4 12 0 18 -14 22 -25 7 -25 12 -2 29 21 17 18 16 103 2z m449 -23 c0 -8
-4 -15 -10 -15 -5 0 -10 7 -10 15 0 8 5 15 10 15 6 0 10 -7 10 -15z m-255 -10
c77 -15 104 -30 85 -49 -6 -6 -19 -5 -34 3 -13 8 -29 10 -35 7 -15 -10 -14
-36 2 -37 17 -2 20 -1 40 6 11 5 17 2 17 -6 -1 -17 -35 -59 -48 -59 -11 0 -77
76 -107 123 -20 32 -23 31 80 12z m261 -27 c14 -20 11 -53 -6 -53 -21 0 -43
47 -27 57 17 11 23 10 33 -4z m-81 -18 c-5 -15 0 -21 19 -26 14 -3 26 -10 26
-14 0 -14 -60 -17 -71 -3 -8 9 -8 13 0 13 6 0 11 8 11 18 0 17 8 32 17 32 3 0
2 -9 -2 -20z m1075 -14 c0 -7 -10 -41 -22 -76 -19 -58 -49 -99 -72 -100 -10 0
22 51 42 66 8 6 12 16 8 22 -9 14 -36 16 -36 2 0 -11 -79 -34 -88 -26 -8 8 49
66 64 66 22 0 27 21 9 40 -16 18 -15 19 12 22 43 5 83 -3 83 -16z m-153 -3
c-3 -10 -8 -33 -12 -51 -4 -18 -16 -42 -28 -53 -31 -29 -7 -39 49 -21 25 8 47
12 50 9 3 -3 -2 -19 -12 -36 -20 -34 -60 -43 -70 -16 -5 12 -9 13 -21 4 -10
-9 -17 -9 -25 -1 -9 9 -9 12 1 12 7 0 11 5 9 11 -2 6 -6 9 -9 7 -3 -2 -13 3
-22 11 -13 10 -17 30 -17 75 l0 61 56 3 c50 3 55 1 51 -15z m33 -17 c0 -8 -8
-20 -17 -27 -15 -12 -16 -12 -10 4 4 10 7 25 7 33 0 9 5 12 10 9 6 -3 10 -12
10 -19z m-1570 10 c0 -3 -4 -8 -10 -11 -5 -3 -10 -1 -10 4 0 6 5 11 10 11 6 0
10 -2 10 -4z m-49 -39 c-16 -16 -26 0 -10 19 9 11 15 12 17 4 2 -6 -1 -17 -7
-23z m607 22 c-2 -6 -8 -10 -13 -10 -5 0 -11 4 -13 10 -2 6 4 11 13 11 9 0 15
-5 13 -11z m-295 -80 c22 -33 43 -76 49 -95 8 -31 3 -106 -8 -126 -6 -10 -98
21 -107 37 -4 8 -14 15 -21 15 -20 0 -28 166 -9 203 23 46 52 36 96 -34z m437
16 c0 -41 -2 -45 -24 -45 -14 0 -28 5 -31 10 -3 6 -15 10 -26 10 -10 0 -19 7
-19 15 0 9 8 14 22 12 17 -1 24 4 26 21 2 16 10 22 28 22 22 0 24 -4 24 -45z
m-90 25 c0 -5 -5 -10 -11 -10 -5 0 -7 5 -4 10 3 6 8 10 11 10 2 0 4 -4 4 -10z
m795 -39 c5 -17 4 -22 -6 -19 -8 3 -15 18 -17 34 -4 33 11 24 23 -15z m-670
19 c3 -5 1 -10 -4 -10 -6 0 -11 5 -11 10 0 6 2 10 4 10 3 0 8 -4 11 -10z m515
-5 l25 -13 -30 -7 c-17 -3 -44 -10 -61 -15 -40 -13 -371 -13 -359 -1 6 5 89
18 185 29 218 24 210 24 240 7z m-740 -19 c0 -8 -9 -24 -20 -37 -16 -20 -19
-21 -20 -6 0 20 21 57 32 57 5 0 8 -6 8 -14z m50 0 c0 -21 56 -46 102 -46 42
0 50 -16 21 -42 -34 -30 -282 -148 -298 -142 -19 8 -13 32 26 93 24 40 32 45
68 47 39 2 40 1 34 -27 -5 -25 -2 -29 16 -29 11 0 21 5 21 11 0 5 16 17 36 25
47 20 39 40 -15 36 l-41 -3 0 39 c0 21 3 42 7 45 11 12 23 8 23 -7z m220 -11
c10 -13 9 -15 -8 -15 -15 0 -20 5 -16 15 4 8 7 15 9 15 1 0 8 -7 15 -15z m600
-19 c0 -7 3 -29 6 -47 5 -24 3 -31 -4 -24 -16 15 -27 85 -13 85 6 0 11 -6 11
-14z m-589 -96 c65 -115 65 -124 12 -264 -25 -67 -52 -125 -60 -129 -10 -6
-13 -17 -9 -33 9 -33 -71 -272 -95 -285 -13 -7 -44 1 -120 32 -57 22 -108 48
-114 56 -15 21 -45 10 -45 -16 0 -22 -48 -63 -95 -81 -148 -58 -250 -89 -276
-83 -22 4 -46 29 -104 106 -43 58 -75 111 -75 124 0 13 -4 23 -10 23 -5 0 -10
11 -10 25 0 30 0 30 52 4 40 -20 40 -21 19 -36 -17 -12 -20 -18 -10 -29 6 -8
19 -14 27 -14 9 0 53 -12 99 -27 56 -17 87 -23 94 -16 16 16 -1 43 -25 41 -16
-2 -109 42 -144 67 -1 2 19 51 46 111 27 60 53 118 57 129 6 19 8 18 22 -8 12
-24 12 -34 2 -58 -6 -17 -20 -34 -30 -40 -19 -9 -27 -38 -11 -40 103 -11 145
4 101 34 -26 19 -35 76 -16 102 13 16 17 17 31 6 9 -7 16 -21 16 -31 0 -21 29
-35 43 -21 5 5 6 18 2 28 -4 10 -8 68 -9 128 l-1 110 27 -1 c45 -2 118 -26
118 -38 0 -7 -5 -17 -11 -23 -15 -15 -3 -33 21 -33 12 0 20 8 22 23 2 17 9 21
27 19 22 -2 133 50 279 130 29 16 57 26 63 23 5 -4 16 -1 24 5 12 10 12 15 -1
35 -12 18 -12 24 -2 28 18 6 20 3 69 -83z m649 60 c0 -6 -9 -10 -20 -10 -13 0
-20 7 -20 20 0 18 3 19 20 10 11 -6 20 -15 20 -20z m-933 -2 c-3 -8 -6 -5 -6
6 -1 11 2 17 5 13 3 -3 4 -12 1 -19z m-597 -18 c0 -5 -4 -10 -10 -10 -5 0 -10
5 -10 10 0 6 5 10 10 10 6 0 10 -4 10 -10z m1570 -5 c9 -11 17 -12 32 -4 21
11 34 6 24 -9 -13 -21 -57 -23 -81 -4 -24 19 -24 32 0 32 7 0 18 -7 25 -15z
m-920 -5 c0 -5 -5 -10 -11 -10 -5 0 -7 5 -4 10 3 6 8 10 11 10 2 0 4 -4 4 -10z
m-700 -47 c0 -5 -7 -17 -15 -27 -18 -24 -11 -36 23 -36 15 -1 41 -7 57 -14
l30 -14 -27 -11 c-79 -32 -75 -32 -166 1 -48 17 -91 34 -95 38 -4 4 29 21 75
38 84 31 118 38 118 25z m36 -10 c-1 -14 7 -18 31 -19 18 -1 45 -10 60 -20
l28 -19 -25 -3 c-14 -1 -43 3 -65 11 -31 11 -41 20 -43 40 -2 15 1 27 6 27 5
0 9 -8 8 -17z m1588 11 c22 -8 20 -16 -13 -54 -31 -36 -36 -33 -46 23 -7 35
-6 37 18 37 14 0 32 -3 41 -6z m-1344 -75 c0 -15 -4 -19 -16 -15 -9 3 -25 6
-36 6 -17 0 -18 3 -8 15 19 23 60 19 60 -6z m-408 -30 c49 -18 88 -36 88 -40
0 -5 -20 -9 -43 -9 -33 0 -55 8 -88 31 -84 60 -80 62 43 18z m298 1 c8 -5 11
-12 7 -17 -4 -4 -17 -2 -28 5 -17 11 -24 11 -36 0 -13 -11 -13 -14 6 -29 21
-17 21 -18 1 -24 -21 -7 -90 14 -90 27 0 10 80 46 105 47 11 0 27 -3 35 -9z
m93 -21 c15 0 17 -11 17 -86 0 -75 -2 -84 -15 -73 -8 7 -15 18 -15 26 0 7 -13
22 -30 34 -34 24 -37 37 -12 56 15 11 15 16 4 35 -13 21 -13 21 10 15 12 -4
31 -8 41 -7z m-88 -19 c3 -5 1 -10 -4 -10 -6 0 -11 5 -11 10 0 6 2 10 4 10 3
0 8 -4 11 -10z m-5 -50 c0 -5 -5 -10 -11 -10 -5 0 -7 5 -4 10 3 6 8 10 11 10
2 0 4 -4 4 -10z m29 -58 c13 -25 -4 -54 -19 -32 -13 19 -13 50 0 50 5 0 14 -8
19 -18z m1 -133 c0 -18 -20 -26 -33 -13 -8 8 15 44 25 38 4 -3 8 -14 8 -25z
m-110 -175 c55 -29 77 -51 39 -39 -75 24 -94 34 -97 48 -4 22 0 22 58 -9z"/>
<path d="M4703 1071 c-5 -20 -93 -91 -113 -91 -6 0 -11 19 -12 43 l-1 42 -4
-39 c-3 -22 -12 -45 -20 -51 -17 -13 -10 -35 12 -35 7 0 27 13 44 29 38 36 97
71 105 64 14 -15 5 -73 -13 -82 -10 -6 -22 -23 -25 -37 -6 -21 -2 -33 19 -53
24 -25 27 -25 53 -11 39 22 43 72 7 96 -25 16 -26 22 -23 77 2 43 -1 61 -10
65 -7 2 -16 -5 -19 -17z m51 -147 c20 -20 20 -34 0 -34 -8 0 -12 -5 -9 -10 10
-16 -23 -24 -40 -10 -18 15 -19 42 -3 58 16 16 33 15 52 -4z"/>
</g>
</svg>
