<?xml version="1.0" encoding="UTF-8" standalone="no"?>
<!DOCTYPE svg PUBLIC "-//W3C//DTD SVG 1.1//EN" "http://www.w3.org/Graphics/SVG/1.1/DTD/svg11.dtd">
<svg xmlns="http://www.w3.org/2000/svg" version="1.1" viewBox="0.00 0.00 366.00 361.00">
<g stroke-width="2.00" fill="none" stroke-linecap="butt">
<path stroke="#808080" vector-effect="non-scaling-stroke" d="
  M 227.32 0.00
  Q 207.92 2.14 197.34 16.45
  C 186.43 31.21 186.63 50.47 197.31 65.20
  Q 197.69 65.74 197.23 66.20
  L 171.10 92.32
  Q 170.62 92.80 170.03 92.46
  L 73.96 37.02
  Q 73.49 36.74 73.49 37.29
  L 73.64 175.35
  A 0.69 0.68 15.4 0 0 73.98 175.94
  L 81.96 180.55
  A 0.46 0.46 0.0 0 1 82.06 181.27
  L 60.45 202.87
  Q 60.16 203.16 59.81 202.96
  L 39.81 191.46
  A 0.42 0.42 0.0 0 0 39.19 191.71
  L 27.44 232.00
  Q 27.36 232.29 27.36 231.99
  L 27.35 65.44
  Q 27.35 64.73 27.86 65.23
  L 31.70 69.09
  Q 32.36 69.75 32.10 68.85
  L 27.28 51.67
  Q 26.82 50.04 26.36 51.67
  L 21.52 68.74
  Q 21.24 69.74 21.98 69.00
  L 25.66 65.32
  Q 26.25 64.73 26.25 65.56
  L 26.25 234.25
  Q 26.25 234.98 25.62 234.62
  L 0.76 220.29
  A 0.30 0.30 0.0 0 0 0.34 220.43
  L 0.23 220.69
  A 0.58 0.57 27.1 0 0 0.47 221.41
  L 25.42 235.79
  A 0.34 0.34 0.0 0 1 25.42 236.38
  L 3.71 248.94
  A 0.31 0.30 69.0 0 0 3.57 249.26
  L 3.64 249.59
  A 0.42 0.42 0.0 0 0 4.27 249.88
  L 25.76 237.49
  A 0.33 0.32 -15.0 0 1 26.25 237.77
  L 26.25 300.73
  Q 26.25 301.17 26.69 301.18
  L 27.02 301.19
  Q 27.35 301.20 27.35 300.87
  L 27.36 237.71
  Q 27.36 236.91 28.05 237.31
  L 204.07 338.90
  Q 205.26 339.59 203.90 339.79
  Q 201.51 340.14 199.04 340.97
  Q 198.22 341.25 199.06 341.46
  L 216.67 345.94
  Q 217.81 346.24 216.99 345.39
  L 204.35 332.38
  Q 203.56 331.56 203.86 332.66
  L 205.23 337.70
  Q 205.42 338.40 204.80 338.04
  L 30.64 237.52
  Q 29.63 236.94 30.79 237.11
  L 77.51 244.02
  Q 78.12 244.11 78.12 243.49
  L 78.11 214.02
  A 0.90 0.90 0.0 0 0 77.66 213.24
  L 73.07 210.57
  Q 72.53 210.25 73.07 209.94
  L 102.42 192.94
  A 1.01 1.01 0.0 0 1 103.44 192.94
  L 251.22 278.24
  A 0.24 0.24 0.0 0 0 251.58 278.03
  L 251.58 140.08
  A 0.94 0.93 15.0 0 0 251.11 139.27
  L 223.37 123.24
  A 0.16 0.16 0.0 0 1 223.37 122.96
  L 320.57 66.87
  Q 321.24 66.48 321.04 67.23
  L 319.74 72.00
  Q 319.37 73.35 320.35 72.35
  L 332.66 59.68
  Q 333.66 58.64 332.26 59.00
  L 315.01 63.38
  Q 314.13 63.60 314.99 63.92
  Q 317.29 64.77 319.57 65.04
  Q 321.16 65.24 319.77 66.04
  L 222.59 122.13
  A 1.17 1.16 44.6 0 1 221.42 122.13
  L 171.78 93.48
  A 0.17 0.17 0.0 0 1 171.75 93.22
  L 198.12 66.93
  Q 198.42 66.64 198.69 66.95
  Q 210.33 80.37 227.53 81.47
  C 262.74 83.72 283.66 43.06 262.07 15.48
  Q 251.42 1.88 232.99 0.00"
/>
<path stroke="#808080" vector-effect="non-scaling-stroke" d="
  M 366.00 31.43
  L 347.39 31.41
  Q 347.02 31.41 347.02 31.79
  L 347.02 34.18
  Q 347.03 34.58 347.43 34.58
  L 361.02 34.59
  A 0.24 0.24 0.0 0 1 361.20 34.98
  L 346.83 51.68
  Q 346.50 52.07 346.50 52.57
  L 346.50 55.03
  Q 346.50 55.66 347.13 55.66
  L 366.00 55.64"
/>
<path stroke="#808080" vector-effect="non-scaling-stroke" d="
  M 248.58 361.00
  L 239.80 348.92
  Q 239.49 348.49 239.80 348.07
  L 248.02 337.02
  A 0.16 0.16 0.0 0 0 247.89 336.76
  L 243.73 336.74
  Q 243.52 336.74 243.39 336.91
  L 237.53 344.79
  Q 237.10 345.37 236.66 344.79
  L 230.83 336.95
  Q 230.69 336.76 230.45 336.75
  Q 227.39 336.68 226.23 336.86
  A 0.10 0.10 0.0 0 0 226.16 337.02
  L 234.22 347.79
  Q 234.55 348.23 234.23 348.68
  L 225.30 361.00"
/>
<path stroke="#808080" vector-effect="non-scaling-stroke" d="
  M 25.45 36.28
  L 18.39 18.63
  A 0.97 0.95 -10.6 0 0 17.51 18.04
  L 14.49 18.02
  Q 13.92 18.02 14.14 18.55
  L 23.52 41.38
  A 1.41 1.40 -48.1 0 1 23.57 42.34
  Q 22.90 44.57 21.64 46.67
  C 20.55 48.48 18.26 48.37 16.43 48.24
  Q 16.17 48.22 16.16 48.49
  L 16.14 51.07
  Q 16.14 51.38 16.45 51.44
  Q 23.58 52.83 26.07 46.66
  Q 31.99 32.05 37.37 18.62
  Q 37.60 18.05 36.99 18.05
  L 33.99 18.03
  Q 33.37 18.03 33.14 18.61
  L 26.09 36.28
  Q 25.77 37.09 25.45 36.28"
/>
<path stroke="#808080" vector-effect="non-scaling-stroke" d="
  M 34.82 249.69
  C 30.37 251.35 29.44 256.88 34.07 259.10
  Q 36.85 260.43 39.72 261.56
  C 43.49 263.04 42.41 267.31 38.78 267.86
  Q 34.88 268.45 31.34 267.17
  Q 30.79 266.97 30.77 267.56
  L 30.75 268.27
  Q 30.74 268.85 31.27 269.05
  Q 36.34 271.01 41.35 269.21
  C 46.17 267.49 46.43 261.63 41.71 259.43
  Q 39.01 258.17 36.18 256.99
  C 32.92 255.63 33.78 251.78 37.10 251.14
  Q 40.33 250.52 43.10 251.84
  A 0.46 0.46 0.0 0 0 43.76 251.47
  L 43.80 251.01
  Q 43.87 250.19 43.11 249.87
  Q 38.98 248.14 34.82 249.69"
/>
<path stroke="#010180" vector-effect="non-scaling-stroke" d="
  M 208.69 55.31
  Q 209.51 54.95 209.06 55.73
  L 205.09 62.57
  Q 204.66 63.31 204.56 62.46
  Q 204.48 61.77 204.64 61.08
  Q 204.82 60.30 204.25 60.86
  L 200.21 64.82
  Q 199.14 65.88 200.15 66.99
  Q 213.61 81.76 233.57 80.28
  C 251.07 78.98 265.85 65.50 269.00 48.18
  C 272.24 30.31 263.87 13.95 248.12 5.49
  C 244.10 3.32 239.02 1.78 234.40 1.39
  Q 211.95 -0.46 198.35 16.89
  C 187.56 30.65 187.90 50.15 197.96 64.26
  Q 198.46 64.97 199.07 64.35
  Q 200.95 62.46 202.91 60.55
  Q 203.14 60.33 203.16 60.00
  Q 203.18 59.53 202.74 59.71
  Q 202.28 59.89 201.80 59.83
  Q 200.96 59.71 201.66 59.23
  Q 205.32 56.76 208.69 55.31"
/>
<path stroke="#010180" vector-effect="non-scaling-stroke" d="
  M 91.08 172.25
  Q 91.66 172.31 92.05 172.81"
/>
<path stroke="#808080" vector-effect="non-scaling-stroke" d="
  M 92.05 172.81
  L 84.50 180.41
  A 0.22 0.22 0.0 0 0 84.54 180.76
  L 102.29 190.99
  A 1.24 1.24 0.0 0 0 103.55 190.99
  L 164.22 155.81
  A 0.24 0.23 -42.4 0 1 164.49 155.82
  L 164.73 156.01
  A 0.48 0.48 0.0 0 1 164.68 156.81
  L 104.64 191.65
  Q 104.04 192.00 104.64 192.35
  L 250.24 276.39
  A 0.18 0.17 14.4 0 0 250.50 276.24
  L 250.50 140.81
  Q 250.50 140.20 249.96 139.89
  L 222.64 124.11
  Q 222.03 123.76 221.37 124.02
  L 221.00 124.17
  Q 220.50 124.37 220.49 123.84
  Q 220.48 122.84 219.58 122.33
  Q 195.34 108.38 171.56 94.62
  Q 171.11 94.36 170.60 94.49
  L 169.97 94.64
  Q 169.51 94.76 169.39 94.29
  Q 169.34 94.13 169.43 93.97
  Q 169.67 93.54 169.24 93.29
  L 75.08 38.95
  A 0.28 0.28 0.0 0 0 74.66 39.19
  L 74.77 174.52
  A 1.06 1.04 -75.5 0 0 75.30 175.44
  L 82.77 179.70
  Q 83.30 180.00 83.73 179.57
  L 91.08 172.25"
/>
<path stroke="#8080ff" vector-effect="non-scaling-stroke" d="
  M 92.05 172.81
  L 97.67 176.10
  A 0.16 0.15 -73.9 0 0 97.90 175.97
  L 98.01 169.52
  Q 98.02 169.19 97.73 169.03
  L 89.64 164.39
  Q 89.05 164.06 89.05 164.73
  L 89.07 170.48
  Q 89.07 171.04 89.55 171.32
  L 91.08 172.25"
/>
<path stroke="#808080" vector-effect="non-scaling-stroke" d="
  M 101.37 192.27
  A 0.31 0.31 0.0 0 0 101.36 191.73
  L 83.66 181.54
  A 0.31 0.31 0.0 0 0 83.28 181.59
  L 61.44 203.43
  A 0.31 0.31 0.0 0 0 61.50 203.92
  L 71.23 209.53
  A 0.31 0.31 0.0 0 0 71.54 209.53
  L 101.37 192.27"
/>
<path stroke="#808080" vector-effect="non-scaling-stroke" d="
  M 32.33 231.95
  Q 32.46 232.15 32.36 232.29
  Q 31.71 233.17 32.72 232.73
  Q 53.44 223.73 75.60 214.09
  Q 76.34 213.77 75.64 213.36
  L 61.03 204.94
  Q 60.65 204.72 60.22 204.82
  Q 60.00 204.88 59.80 205.05
  A 0.51 0.50 -29.2 0 1 58.97 204.82
  L 58.73 203.98
  Q 58.60 203.55 58.21 203.32
  L 40.45 193.10
  A 0.39 0.39 0.0 0 0 39.88 193.33
  L 28.00 234.02
  Q 27.77 234.80 28.53 234.49
  L 30.41 233.72
  Q 30.83 233.55 30.74 233.11
  Q 30.54 232.03 31.50 231.67
  Q 32.03 231.47 32.33 231.95"
/>
<path stroke="#808080" vector-effect="non-scaling-stroke" d="
  M 76.65 242.74
  A 0.31 0.31 0.0 0 0 77.00 242.43
  L 77.01 215.17
  A 0.31 0.31 0.0 0 0 76.58 214.89
  L 29.63 235.28
  A 0.31 0.31 0.0 0 0 29.71 235.87
  L 76.65 242.74"
/>
<path stroke="#808080" vector-effect="non-scaling-stroke" d="
  M 366.00 35.10
  L 351.30 52.19
  A 0.22 0.22 0.0 0 0 351.46 52.55
  L 366.00 52.55"
/>
<path stroke="#808080" vector-effect="non-scaling-stroke" d="
  M 168.1347 96.0793
  A 1.20 0.60 -42.5 0 0 166.8446 96.4476
  A 1.20 0.60 -42.5 0 0 166.3653 97.7007
  A 1.20 0.60 -42.5 0 0 167.6554 97.3324
  A 1.20 0.60 -42.5 0 0 168.1347 96.0793"
/>
<path stroke="#808080" vector-effect="non-scaling-stroke" d="
  M 165.0261 99.1360
  A 1.28 0.57 -44.3 0 0 163.7119 99.6221
  A 1.28 0.57 -44.3 0 0 163.1939 100.9240
  A 1.28 0.57 -44.3 0 0 164.5081 100.4379
  A 1.28 0.57 -44.3 0 0 165.0261 99.1360"
/>
<path stroke="#808080" vector-effect="non-scaling-stroke" d="
  M 161.9042 102.2975
  A 1.25 0.58 -43.0 0 0 160.5944 102.7258
  A 1.25 0.58 -43.0 0 0 160.0758 104.0025
  A 1.25 0.58 -43.0 0 0 161.3856 103.5742
  A 1.25 0.58 -43.0 0 0 161.9042 102.2975"
/>
<path stroke="#808080" vector-effect="non-scaling-stroke" d="
  M 157.0356 107.1562
  A 1.21 0.60 133.6 0 0 158.3045 106.6938
  A 1.21 0.60 133.6 0 0 158.7044 105.4038
  A 1.21 0.60 133.6 0 0 157.4355 105.8662
  A 1.21 0.60 133.6 0 0 157.0356 107.1562"
/>
<path stroke="#808080" vector-effect="non-scaling-stroke" d="
  M 155.69 109.03
  A 0.36 0.36 0.0 0 0 155.32 108.54
  Q 154.40 108.62 154.02 109.38
  Q 153.28 110.89 154.82 110.14
  Q 155.37 109.87 155.69 109.03"
/>
<path stroke="#808080" vector-effect="non-scaling-stroke" d="
  M 152.57 112.17
  A 0.27 0.26 37.8 0 0 152.53 111.89
  Q 152.26 111.57 151.86 111.73
  Q 150.80 112.13 150.70 113.12
  Q 150.65 113.66 151.16 113.47
  Q 152.09 113.11 152.57 112.17"
/>
<path stroke="#808080" vector-effect="non-scaling-stroke" d="
  M 149.3759 114.8224
  A 1.24 0.42 -44.4 0 0 148.1961 115.3899
  A 1.24 0.42 -44.4 0 0 147.6041 116.5576
  A 1.24 0.42 -44.4 0 0 148.7839 115.9901
  A 1.24 0.42 -44.4 0 0 149.3759 114.8224"
/>
<path stroke="#808080" vector-effect="non-scaling-stroke" d="
  M 146.5227 117.6385
  A 1.58 0.36 -44.2 0 0 145.1390 118.4819
  A 1.58 0.36 -44.2 0 0 144.2573 119.8415
  A 1.58 0.36 -44.2 0 0 145.6410 118.9981
  A 1.58 0.36 -44.2 0 0 146.5227 117.6385"
/>
<path stroke="#808080" vector-effect="non-scaling-stroke" d="
  M 143.2866 120.8928
  A 1.68 0.30 -42.6 0 0 141.8469 121.8092
  A 1.68 0.30 -42.6 0 0 140.8134 123.1672
  A 1.68 0.30 -42.6 0 0 142.2531 122.2508
  A 1.68 0.30 -42.6 0 0 143.2866 120.8928"
/>
<path stroke="#808080" vector-effect="non-scaling-stroke" d="
  M 138.0886 126.0431
  A 1.58 0.32 134.7 0 0 139.4275 125.1451
  A 1.58 0.32 134.7 0 0 140.3114 123.7969
  A 1.58 0.32 134.7 0 0 138.9725 124.6949
  A 1.58 0.32 134.7 0 0 138.0886 126.0431"
/>
<path stroke="#808080" vector-effect="non-scaling-stroke" d="
  M 216.21 125.96
  Q 215.07 126.01 214.65 126.86
  Q 214.30 127.55 215.08 127.49
  Q 216.04 127.40 216.58 126.63
  Q 217.08 125.92 216.21 125.96"
/>
<path stroke="#808080" vector-effect="non-scaling-stroke" d="
  M 134.7745 129.3489
  A 1.58 0.31 134.4 0 0 136.1015 128.4369
  A 1.58 0.31 134.4 0 0 136.9855 127.0911
  A 1.58 0.31 134.4 0 0 135.6585 128.0031
  A 1.58 0.31 134.4 0 0 134.7745 129.3489"
/>
<path stroke="#808080" vector-effect="non-scaling-stroke" d="
  M 209.52 130.99
  Q 210.62 130.63 210.81 129.64
  Q 210.91 129.08 210.36 129.22
  Q 209.49 129.44 208.89 130.20
  Q 208.58 130.59 209.05 130.91
  A 0.53 0.51 -34.3 0 0 209.52 130.99"
/>
<path stroke="#808080" vector-effect="non-scaling-stroke" d="
  M 133.9047 130.3518
  A 1.46 0.32 -42.6 0 0 132.6134 131.1044
  A 1.46 0.32 -42.6 0 0 131.7553 132.3282
  A 1.46 0.32 -42.6 0 0 133.0466 131.5756
  A 1.46 0.32 -42.6 0 0 133.9047 130.3518"
/>
<path stroke="#808080" vector-effect="non-scaling-stroke" d="
  M 205.00 133.46
  A 0.42 0.41 -31.4 0 0 205.10 133.07
  Q 204.94 132.40 204.28 132.61
  Q 203.38 132.90 203.03 133.67
  Q 202.79 134.18 203.36 134.19
  Q 204.33 134.21 205.00 133.46"
/>
<path stroke="#808080" vector-effect="non-scaling-stroke" d="
  M 128.7612 135.3996
  A 1.30 0.39 135.6 0 0 129.9629 134.7686
  A 1.30 0.39 135.6 0 0 130.6188 133.5804
  A 1.30 0.39 135.6 0 0 129.4171 134.2114
  A 1.30 0.39 135.6 0 0 128.7612 135.3996"
/>
<path stroke="#808080" vector-effect="non-scaling-stroke" d="
  M 199.30 136.63
  A 0.39 0.39 0.0 0 0 199.08 135.98
  Q 197.59 135.70 197.33 137.13
  A 0.42 0.42 0.0 0 0 197.91 137.59
  Q 198.72 137.25 199.30 136.63"
/>
<path stroke="#808080" vector-effect="non-scaling-stroke" d="
  M 127.3848 136.8185
  A 1.20 0.35 -43.2 0 0 126.2704 137.3849
  A 1.20 0.35 -43.2 0 0 125.6352 138.4615
  A 1.20 0.35 -43.2 0 0 126.7496 137.8951
  A 1.20 0.35 -43.2 0 0 127.3848 136.8185"
/>
<path stroke="#808080" vector-effect="non-scaling-stroke" d="
  M 87.38 152.73
  Q 87.38 151.83 88.27 151.94
  C 93.40 152.62 100.40 149.64 98.10 143.10
  C 96.30 138.01 89.08 138.96 85.02 138.99
  Q 84.49 138.99 84.49 139.53
  L 84.57 159.53
  A 0.46 0.46 0.0 0 0 85.03 159.99
  L 86.99 160.00
  A 0.36 0.36 0.0 0 0 87.35 159.64
  L 87.38 152.73"
/>
<path stroke="#808080" vector-effect="non-scaling-stroke" d="
  M 193.6360 139.4912
  A 1.28 0.58 -28.4 0 0 192.2341 139.5898
  A 1.28 0.58 -28.4 0 0 191.3840 140.7088
  A 1.28 0.58 -28.4 0 0 192.7859 140.6102
  A 1.28 0.58 -28.4 0 0 193.6360 139.4912"
/>
<path stroke="#808080" vector-effect="non-scaling-stroke" d="
  M 124.4692 139.7063
  A 1.48 0.37 -44.3 0 0 123.1516 140.4752
  A 1.48 0.37 -44.3 0 0 122.3508 141.7737
  A 1.48 0.37 -44.3 0 0 123.6684 141.0048
  A 1.48 0.37 -44.3 0 0 124.4692 139.7063"
/>
<path stroke="#808080" vector-effect="non-scaling-stroke" d="
  M 186.25 143.02
  Q 185.86 143.16 185.73 143.59
  A 0.47 0.47 0.0 0 0 186.12 144.20
  Q 187.22 144.36 187.77 143.21
  A 0.44 0.44 0.0 0 0 187.36 142.58
  Q 187.05 142.60 186.77 142.77
  Q 186.51 142.92 186.25 143.02"
/>
<path stroke="#808080" vector-effect="non-scaling-stroke" d="
  M 121.2544 142.9081
  A 1.49 0.34 -43.3 0 0 119.9368 143.6826
  A 1.49 0.34 -43.3 0 0 119.0856 144.9519
  A 1.49 0.34 -43.3 0 0 120.4032 144.1774
  A 1.49 0.34 -43.3 0 0 121.2544 142.9081"
/>
<path stroke="#808080" vector-effect="non-scaling-stroke" d="
  M 116.0865 148.0705
  A 1.41 0.40 134.8 0 0 117.3638 147.3519
  A 1.41 0.40 134.8 0 0 118.0735 146.0695
  A 1.41 0.40 134.8 0 0 116.7962 146.7881
  A 1.41 0.40 134.8 0 0 116.0865 148.0705"
/>
<path stroke="#808080" vector-effect="non-scaling-stroke" d="
  M 180.95 147.42
  Q 181.61 147.16 181.99 146.57
  A 0.46 0.46 0.0 0 0 181.55 145.87
  Q 180.55 146.00 180.02 146.83
  A 0.49 0.49 0.0 0 0 180.61 147.55
  Q 180.78 147.49 180.95 147.42"
/>
<path stroke="#808080" vector-effect="non-scaling-stroke" d="
  M 112.9954 151.1531
  A 1.25 0.49 134.4 0 0 114.2201 150.6028
  A 1.25 0.49 134.4 0 0 114.7446 149.3669
  A 1.25 0.49 134.4 0 0 113.5199 149.9172
  A 1.25 0.49 134.4 0 0 112.9954 151.1531"
/>
<path stroke="#808080" vector-effect="non-scaling-stroke" d="
  M 176.2750 149.4267
  A 1.26 0.59 -32.3 0 0 174.8947 149.6013
  A 1.26 0.59 -32.3 0 0 174.1450 150.7733
  A 1.26 0.59 -32.3 0 0 175.5253 150.5987
  A 1.26 0.59 -32.3 0 0 176.2750 149.4267"
/>
<path stroke="#808080" vector-effect="non-scaling-stroke" d="
  M 111.59 153.17
  Q 111.94 152.30 111.04 152.57
  Q 110.30 152.80 109.88 153.51
  A 0.52 0.52 0.0 0 0 110.49 154.27
  Q 111.26 154.00 111.59 153.17"
/>
<path stroke="#808080" vector-effect="non-scaling-stroke" d="
  M 170.4806 152.8250
  A 1.19 0.64 -30.0 0 0 169.1300 152.8657
  A 1.19 0.64 -30.0 0 0 168.4194 154.0150
  A 1.19 0.64 -30.0 0 0 169.7700 153.9743
  A 1.19 0.64 -30.0 0 0 170.4806 152.8250"
/>
<path stroke="#808080" vector-effect="non-scaling-stroke" d="
  M 108.4629 155.7191
  A 1.17 0.65 -43.2 0 0 107.1650 156.0462
  A 1.17 0.65 -43.2 0 0 106.7571 157.3209
  A 1.17 0.65 -43.2 0 0 108.0550 156.9938
  A 1.17 0.65 -43.2 0 0 108.4629 155.7191"
/>
<path stroke="#808080" vector-effect="non-scaling-stroke" d="
  M 103.6481 160.4803
  A 1.14 0.67 134.7 0 0 104.9262 160.1413
  A 1.14 0.67 134.7 0 0 105.2519 158.8597
  A 1.14 0.67 134.7 0 0 103.9738 159.1987
  A 1.14 0.67 134.7 0 0 103.6481 160.4803"
/>
<path stroke="#808080" vector-effect="non-scaling-stroke" d="
  M 100.45 163.07
  Q 100.15 164.05 101.09 163.65
  Q 101.86 163.33 102.23 162.63
  A 0.53 0.52 -82.0 0 0 101.66 161.87
  Q 100.77 162.06 100.45 163.07"
/>
<path stroke="#808080" vector-effect="non-scaling-stroke" d="
  M 99.1015 165.0722
  A 1.28 0.58 -43.3 0 0 97.7722 165.5279
  A 1.28 0.58 -43.3 0 0 97.2385 166.8278
  A 1.28 0.58 -43.3 0 0 98.5678 166.3721
  A 1.28 0.58 -43.3 0 0 99.1015 165.0722"
/>
<path stroke="#808080" vector-effect="non-scaling-stroke" d="
  M 87.38 141.35
  L 87.34 149.61
  A 0.36 0.36 0.0 0 0 87.70 149.97
  L 90.99 149.99
  A 4.35 4.14 0.3 0 0 95.36 145.87
  L 95.36 145.17
  A 4.35 4.14 0.3 0 0 91.03 141.01
  L 87.74 140.99
  A 0.36 0.36 0.0 0 0 87.38 141.35"
/>
<path stroke="#808080" vector-effect="non-scaling-stroke" d="
  M 57.4656 206.6538
  A 1.14 0.67 -43.6 0 0 56.1780 206.9548
  A 1.14 0.67 -43.6 0 0 55.8144 208.2262
  A 1.14 0.67 -43.6 0 0 57.1020 207.9252
  A 1.14 0.67 -43.6 0 0 57.4656 206.6538"
/>
<path stroke="#808080" vector-effect="non-scaling-stroke" d="
  M 54.3051 209.8119
  A 1.12 0.67 -43.3 0 0 53.0305 210.0924
  A 1.12 0.67 -43.3 0 0 52.6749 211.3481
  A 1.12 0.67 -43.3 0 0 53.9495 211.0676
  A 1.12 0.67 -43.3 0 0 54.3051 209.8119"
/>
<path stroke="#808080" vector-effect="non-scaling-stroke" d="
  M 49.44 214.25
  A 0.35 0.34 -1.8 0 0 49.86 214.64
  Q 50.64 214.45 51.20 213.81
  A 0.59 0.59 0.0 0 0 51.16 212.99
  Q 50.73 212.58 50.25 212.92
  Q 49.59 213.39 49.44 214.25"
/>
<path stroke="#808080" vector-effect="non-scaling-stroke" d="
  M 46.29 217.28
  Q 46.08 217.95 46.75 217.74
  Q 47.67 217.47 48.17 216.63
  A 0.50 0.50 0.0 0 0 47.61 215.89
  Q 46.65 216.15 46.29 217.28"
/>
<path stroke="#808080" vector-effect="non-scaling-stroke" d="
  M 44.9861 219.1160
  A 1.28 0.57 -44.3 0 0 43.6719 219.6021
  A 1.28 0.57 -44.3 0 0 43.1539 220.9040
  A 1.28 0.57 -44.3 0 0 44.4681 220.4179
  A 1.28 0.57 -44.3 0 0 44.9861 219.1160"
/>
<path stroke="#808080" vector-effect="non-scaling-stroke" d="
  M 41.25 222.27
  Q 40.32 222.61 40.03 223.49
  Q 39.80 224.19 40.51 224.01
  Q 41.48 223.77 41.83 222.85
  Q 42.17 221.93 41.25 222.27"
/>
<path stroke="#808080" vector-effect="non-scaling-stroke" d="
  M 38.22 225.31
  Q 37.24 225.72 36.89 226.51
  A 0.53 0.53 0.0 0 0 37.68 227.17
  Q 38.43 226.64 38.75 225.84
  A 0.41 0.41 0.0 0 0 38.22 225.31"
/>
<path stroke="#808080" vector-effect="non-scaling-stroke" d="
  M 35.5282 228.6611
  A 1.14 0.65 -40.4 0 0 34.2387 228.9050
  A 1.14 0.65 -40.4 0 0 33.7918 230.1389
  A 1.14 0.65 -40.4 0 0 35.0813 229.8950
  A 1.14 0.65 -40.4 0 0 35.5282 228.6611"
/>
<path stroke="#808080" vector-effect="non-scaling-stroke" d="
  M 243.96 361.00
  L 237.21 352.01
  Q 236.90 351.59 236.59 352.01
  L 229.88 361.00"
/>
</g>
<path fill="#ffffff" d="
  M 0.00 0.00
  L 227.32 0.00
  Q 207.92 2.14 197.34 16.45
  C 186.43 31.21 186.63 50.47 197.31 65.20
  Q 197.69 65.74 197.23 66.20
  L 171.10 92.32
  Q 170.62 92.80 170.03 92.46
  L 73.96 37.02
  Q 73.49 36.74 73.49 37.29
  L 73.64 175.35
  A 0.69 0.68 15.4 0 0 73.98 175.94
  L 81.96 180.55
  A 0.46 0.46 0.0 0 1 82.06 181.27
  L 60.45 202.87
  Q 60.16 203.16 59.81 202.96
  L 39.81 191.46
  A 0.42 0.42 0.0 0 0 39.19 191.71
  L 27.44 232.00
  Q 27.36 232.29 27.36 231.99
  L 27.35 65.44
  Q 27.35 64.73 27.86 65.23
  L 31.70 69.09
  Q 32.36 69.75 32.10 68.85
  L 27.28 51.67
  Q 26.82 50.04 26.36 51.67
  L 21.52 68.74
  Q 21.24 69.74 21.98 69.00
  L 25.66 65.32
  Q 26.25 64.73 26.25 65.56
  L 26.25 234.25
  Q 26.25 234.98 25.62 234.62
  L 0.76 220.29
  A 0.30 0.30 0.0 0 0 0.34 220.43
  L 0.23 220.69
  A 0.58 0.57 27.1 0 0 0.47 221.41
  L 25.42 235.79
  A 0.34 0.34 0.0 0 1 25.42 236.38
  L 3.71 248.94
  A 0.31 0.30 69.0 0 0 3.57 249.26
  L 3.64 249.59
  A 0.42 0.42 0.0 0 0 4.27 249.88
  L 25.76 237.49
  A 0.33 0.32 -15.0 0 1 26.25 237.77
  L 26.25 300.73
  Q 26.25 301.17 26.69 301.18
  L 27.02 301.19
  Q 27.35 301.20 27.35 300.87
  L 27.36 237.71
  Q 27.36 236.91 28.05 237.31
  L 204.07 338.90
  Q 205.26 339.59 203.90 339.79
  Q 201.51 340.14 199.04 340.97
  Q 198.22 341.25 199.06 341.46
  L 216.67 345.94
  Q 217.81 346.24 216.99 345.39
  L 204.35 332.38
  Q 203.56 331.56 203.86 332.66
  L 205.23 337.70
  Q 205.42 338.40 204.80 338.04
  L 30.64 237.52
  Q 29.63 236.94 30.79 237.11
  L 77.51 244.02
  Q 78.12 244.11 78.12 243.49
  L 78.11 214.02
  A 0.90 0.90 0.0 0 0 77.66 213.24
  L 73.07 210.57
  Q 72.53 210.25 73.07 209.94
  L 102.42 192.94
  A 1.01 1.01 0.0 0 1 103.44 192.94
  L 251.22 278.24
  A 0.24 0.24 0.0 0 0 251.58 278.03
  L 251.58 140.08
  A 0.94 0.93 15.0 0 0 251.11 139.27
  L 223.37 123.24
  A 0.16 0.16 0.0 0 1 223.37 122.96
  L 320.57 66.87
  Q 321.24 66.48 321.04 67.23
  L 319.74 72.00
  Q 319.37 73.35 320.35 72.35
  L 332.66 59.68
  Q 333.66 58.64 332.26 59.00
  L 315.01 63.38
  Q 314.13 63.60 314.99 63.92
  Q 317.29 64.77 319.57 65.04
  Q 321.16 65.24 319.77 66.04
  L 222.59 122.13
  A 1.17 1.16 44.6 0 1 221.42 122.13
  L 171.78 93.48
  A 0.17 0.17 0.0 0 1 171.75 93.22
  L 198.12 66.93
  Q 198.42 66.64 198.69 66.95
  Q 210.33 80.37 227.53 81.47
  C 262.74 83.72 283.66 43.06 262.07 15.48
  Q 251.42 1.88 232.99 0.00
  L 366.00 0.00
  L 366.00 31.43
  L 347.39 31.41
  Q 347.02 31.41 347.02 31.79
  L 347.02 34.18
  Q 347.03 34.58 347.43 34.58
  L 361.02 34.59
  A 0.24 0.24 0.0 0 1 361.20 34.98
  L 346.83 51.68
  Q 346.50 52.07 346.50 52.57
  L 346.50 55.03
  Q 346.50 55.66 347.13 55.66
  L 366.00 55.64
  L 366.00 361.00
  L 248.58 361.00
  L 239.80 348.92
  Q 239.49 348.49 239.80 348.07
  L 248.02 337.02
  A 0.16 0.16 0.0 0 0 247.89 336.76
  L 243.73 336.74
  Q 243.52 336.74 243.39 336.91
  L 237.53 344.79
  Q 237.10 345.37 236.66 344.79
  L 230.83 336.95
  Q 230.69 336.76 230.45 336.75
  Q 227.39 336.68 226.23 336.86
  A 0.10 0.10 0.0 0 0 226.16 337.02
  L 234.22 347.79
  Q 234.55 348.23 234.23 348.68
  L 225.30 361.00
  L 0.00 361.00
  L 0.00 0.00
  Z
  M 25.45 36.28
  L 18.39 18.63
  A 0.97 0.95 -10.6 0 0 17.51 18.04
  L 14.49 18.02
  Q 13.92 18.02 14.14 18.55
  L 23.52 41.38
  A 1.41 1.40 -48.1 0 1 23.57 42.34
  Q 22.90 44.57 21.64 46.67
  C 20.55 48.48 18.26 48.37 16.43 48.24
  Q 16.17 48.22 16.16 48.49
  L 16.14 51.07
  Q 16.14 51.38 16.45 51.44
  Q 23.58 52.83 26.07 46.66
  Q 31.99 32.05 37.37 18.62
  Q 37.60 18.05 36.99 18.05
  L 33.99 18.03
  Q 33.37 18.03 33.14 18.61
  L 26.09 36.28
  Q 25.77 37.09 25.45 36.28
  Z
  M 34.82 249.69
  C 30.37 251.35 29.44 256.88 34.07 259.10
  Q 36.85 260.43 39.72 261.56
  C 43.49 263.04 42.41 267.31 38.78 267.86
  Q 34.88 268.45 31.34 267.17
  Q 30.79 266.97 30.77 267.56
  L 30.75 268.27
  Q 30.74 268.85 31.27 269.05
  Q 36.34 271.01 41.35 269.21
  C 46.17 267.49 46.43 261.63 41.71 259.43
  Q 39.01 258.17 36.18 256.99
  C 32.92 255.63 33.78 251.78 37.10 251.14
  Q 40.33 250.52 43.10 251.84
  A 0.46 0.46 0.0 0 0 43.76 251.47
  L 43.80 251.01
  Q 43.87 250.19 43.11 249.87
  Q 38.98 248.14 34.82 249.69
  Z"
/>
<path fill="#010101" d="
  M 227.32 0.00
  L 232.99 0.00
  Q 251.42 1.88 262.07 15.48
  C 283.66 43.06 262.74 83.72 227.53 81.47
  Q 210.33 80.37 198.69 66.95
  Q 198.42 66.64 198.12 66.93
  L 171.75 93.22
  A 0.17 0.17 0.0 0 0 171.78 93.48
  L 221.42 122.13
  A 1.17 1.16 44.6 0 0 222.59 122.13
  L 319.77 66.04
  Q 321.16 65.24 319.57 65.04
  Q 317.29 64.77 314.99 63.92
  Q 314.13 63.60 315.01 63.38
  L 332.26 59.00
  Q 333.66 58.64 332.66 59.68
  L 320.35 72.35
  Q 319.37 73.35 319.74 72.00
  L 321.04 67.23
  Q 321.24 66.48 320.57 66.87
  L 223.37 122.96
  A 0.16 0.16 0.0 0 0 223.37 123.24
  L 251.11 139.27
  A 0.94 0.93 15.0 0 1 251.58 140.08
  L 251.58 278.03
  A 0.24 0.24 0.0 0 1 251.22 278.24
  L 103.44 192.94
  A 1.01 1.01 0.0 0 0 102.42 192.94
  L 73.07 209.94
  Q 72.53 210.25 73.07 210.57
  L 77.66 213.24
  A 0.90 0.90 0.0 0 1 78.11 214.02
  L 78.12 243.49
  Q 78.12 244.11 77.51 244.02
  L 30.79 237.11
  Q 29.63 236.94 30.64 237.52
  L 204.80 338.04
  Q 205.42 338.40 205.23 337.70
  L 203.86 332.66
  Q 203.56 331.56 204.35 332.38
  L 216.99 345.39
  Q 217.81 346.24 216.67 345.94
  L 199.06 341.46
  Q 198.22 341.25 199.04 340.97
  Q 201.51 340.14 203.90 339.79
  Q 205.26 339.59 204.07 338.90
  L 28.05 237.31
  Q 27.36 236.91 27.36 237.71
  L 27.35 300.87
  Q 27.35 301.20 27.02 301.19
  L 26.69 301.18
  Q 26.25 301.17 26.25 300.73
  L 26.25 237.77
  A 0.33 0.32 -15.0 0 0 25.76 237.49
  L 4.27 249.88
  A 0.42 0.42 0.0 0 1 3.64 249.59
  L 3.57 249.26
  A 0.31 0.30 69.0 0 1 3.71 248.94
  L 25.42 236.38
  A 0.34 0.34 0.0 0 0 25.42 235.79
  L 0.47 221.41
  A 0.58 0.57 27.1 0 1 0.23 220.69
  L 0.34 220.43
  A 0.30 0.30 0.0 0 1 0.76 220.29
  L 25.62 234.62
  Q 26.25 234.98 26.25 234.25
  L 26.25 65.56
  Q 26.25 64.73 25.66 65.32
  L 21.98 69.00
  Q 21.24 69.74 21.52 68.74
  L 26.36 51.67
  Q 26.82 50.04 27.28 51.67
  L 32.10 68.85
  Q 32.36 69.75 31.70 69.09
  L 27.86 65.23
  Q 27.35 64.73 27.35 65.44
  L 27.36 231.99
  Q 27.36 232.29 27.44 232.00
  L 39.19 191.71
  A 0.42 0.42 0.0 0 1 39.81 191.46
  L 59.81 202.96
  Q 60.16 203.16 60.45 202.87
  L 82.06 181.27
  A 0.46 0.46 0.0 0 0 81.96 180.55
  L 73.98 175.94
  A 0.69 0.68 15.4 0 1 73.64 175.35
  L 73.49 37.29
  Q 73.49 36.74 73.96 37.02
  L 170.03 92.46
  Q 170.62 92.80 171.10 92.32
  L 197.23 66.20
  Q 197.69 65.74 197.31 65.20
  C 186.63 50.47 186.43 31.21 197.34 16.45
  Q 207.92 2.14 227.32 0.00
  Z
  M 208.69 55.31
  Q 209.51 54.95 209.06 55.73
  L 205.09 62.57
  Q 204.66 63.31 204.56 62.46
  Q 204.48 61.77 204.64 61.08
  Q 204.82 60.30 204.25 60.86
  L 200.21 64.82
  Q 199.14 65.88 200.15 66.99
  Q 213.61 81.76 233.57 80.28
  C 251.07 78.98 265.85 65.50 269.00 48.18
  C 272.24 30.31 263.87 13.95 248.12 5.49
  C 244.10 3.32 239.02 1.78 234.40 1.39
  Q 211.95 -0.46 198.35 16.89
  C 187.56 30.65 187.90 50.15 197.96 64.26
  Q 198.46 64.97 199.07 64.35
  Q 200.95 62.46 202.91 60.55
  Q 203.14 60.33 203.16 60.00
  Q 203.18 59.53 202.74 59.71
  Q 202.28 59.89 201.80 59.83
  Q 200.96 59.71 201.66 59.23
  Q 205.32 56.76 208.69 55.31
  Z
  M 91.08 172.25
  Q 91.66 172.31 92.05 172.81
  L 84.50 180.41
  A 0.22 0.22 0.0 0 0 84.54 180.76
  L 102.29 190.99
  A 1.24 1.24 0.0 0 0 103.55 190.99
  L 164.22 155.81
  A 0.24 0.23 -42.4 0 1 164.49 155.82
  L 164.73 156.01
  A 0.48 0.48 0.0 0 1 164.68 156.81
  L 104.64 191.65
  Q 104.04 192.00 104.64 192.35
  L 250.24 276.39
  A 0.18 0.17 14.4 0 0 250.50 276.24
  L 250.50 140.81
  Q 250.50 140.20 249.96 139.89
  L 222.64 124.11
  Q 222.03 123.76 221.37 124.02
  L 221.00 124.17
  Q 220.50 124.37 220.49 123.84
  Q 220.48 122.84 219.58 122.33
  Q 195.34 108.38 171.56 94.62
  Q 171.11 94.36 170.60 94.49
  L 169.97 94.64
  Q 169.51 94.76 169.39 94.29
  Q 169.34 94.13 169.43 93.97
  Q 169.67 93.54 169.24 93.29
  L 75.08 38.95
  A 0.28 0.28 0.0 0 0 74.66 39.19
  L 74.77 174.52
  A 1.06 1.04 -75.5 0 0 75.30 175.44
  L 82.77 179.70
  Q 83.30 180.00 83.73 179.57
  L 91.08 172.25
  Z
  M 101.37 192.27
  A 0.31 0.31 0.0 0 0 101.36 191.73
  L 83.66 181.54
  A 0.31 0.31 0.0 0 0 83.28 181.59
  L 61.44 203.43
  A 0.31 0.31 0.0 0 0 61.50 203.92
  L 71.23 209.53
  A 0.31 0.31 0.0 0 0 71.54 209.53
  L 101.37 192.27
  Z
  M 32.33 231.95
  Q 32.46 232.15 32.36 232.29
  Q 31.71 233.17 32.72 232.73
  Q 53.44 223.73 75.60 214.09
  Q 76.34 213.77 75.64 213.36
  L 61.03 204.94
  Q 60.65 204.72 60.22 204.82
  Q 60.00 204.88 59.80 205.05
  A 0.51 0.50 -29.2 0 1 58.97 204.82
  L 58.73 203.98
  Q 58.60 203.55 58.21 203.32
  L 40.45 193.10
  A 0.39 0.39 0.0 0 0 39.88 193.33
  L 28.00 234.02
  Q 27.77 234.80 28.53 234.49
  L 30.41 233.72
  Q 30.83 233.55 30.74 233.11
  Q 30.54 232.03 31.50 231.67
  Q 32.03 231.47 32.33 231.95
  Z
  M 76.65 242.74
  A 0.31 0.31 0.0 0 0 77.00 242.43
  L 77.01 215.17
  A 0.31 0.31 0.0 0 0 76.58 214.89
  L 29.63 235.28
  A 0.31 0.31 0.0 0 0 29.71 235.87
  L 76.65 242.74
  Z"
/>
<path fill="#0000ff" d="
  M 208.69 55.31
  Q 205.32 56.76 201.66 59.23
  Q 200.96 59.71 201.80 59.83
  Q 202.28 59.89 202.74 59.71
  Q 203.18 59.53 203.16 60.00
  Q 203.14 60.33 202.91 60.55
  Q 200.95 62.46 199.07 64.35
  Q 198.46 64.97 197.96 64.26
  C 187.90 50.15 187.56 30.65 198.35 16.89
  Q 211.95 -0.46 234.40 1.39
  C 239.02 1.78 244.10 3.32 248.12 5.49
  C 263.87 13.95 272.24 30.31 269.00 48.18
  C 265.85 65.50 251.07 78.98 233.57 80.28
  Q 213.61 81.76 200.15 66.99
  Q 199.14 65.88 200.21 64.82
  L 204.25 60.86
  Q 204.82 60.30 204.64 61.08
  Q 204.48 61.77 204.56 62.46
  Q 204.66 63.31 205.09 62.57
  L 209.06 55.73
  Q 209.51 54.95 208.69 55.31
  Z"
/>
<path fill="#010101" d="
  M 25.45 36.28
  Q 25.77 37.09 26.09 36.28
  L 33.14 18.61
  Q 33.37 18.03 33.99 18.03
  L 36.99 18.05
  Q 37.60 18.05 37.37 18.62
  Q 31.99 32.05 26.07 46.66
  Q 23.58 52.83 16.45 51.44
  Q 16.14 51.38 16.14 51.07
  L 16.16 48.49
  Q 16.17 48.22 16.43 48.24
  C 18.26 48.37 20.55 48.48 21.64 46.67
  Q 22.90 44.57 23.57 42.34
  A 1.41 1.40 -48.1 0 0 23.52 41.38
  L 14.14 18.55
  Q 13.92 18.02 14.49 18.02
  L 17.51 18.04
  A 0.97 0.95 -10.6 0 1 18.39 18.63
  L 25.45 36.28
  Z"
/>
<path fill="#010101" d="
  M 366.00 31.43
  L 366.00 35.10
  L 351.30 52.19
  A 0.22 0.22 0.0 0 0 351.46 52.55
  L 366.00 52.55
  L 366.00 55.64
  L 347.13 55.66
  Q 346.50 55.66 346.50 55.03
  L 346.50 52.57
  Q 346.50 52.07 346.83 51.68
  L 361.20 34.98
  A 0.24 0.24 0.0 0 0 361.02 34.59
  L 347.43 34.58
  Q 347.03 34.58 347.02 34.18
  L 347.02 31.79
  Q 347.02 31.41 347.39 31.41
  L 366.00 31.43
  Z"
/>
<path fill="#ffffff" d="
  M 366.00 35.10
  L 366.00 52.55
  L 351.46 52.55
  A 0.22 0.22 0.0 0 1 351.30 52.19
  L 366.00 35.10
  Z"
/>
<path fill="#ffffff" d="
  M 92.05 172.81
  L 97.67 176.10
  A 0.16 0.15 -73.9 0 0 97.90 175.97
  L 98.01 169.52
  Q 98.02 169.19 97.73 169.03
  L 89.64 164.39
  Q 89.05 164.06 89.05 164.73
  L 89.07 170.48
  Q 89.07 171.04 89.55 171.32
  L 91.08 172.25
  L 83.73 179.57
  Q 83.30 180.00 82.77 179.70
  L 75.30 175.44
  A 1.06 1.04 -75.5 0 1 74.77 174.52
  L 74.66 39.19
  A 0.28 0.28 0.0 0 1 75.08 38.95
  L 169.24 93.29
  Q 169.67 93.54 169.43 93.97
  Q 169.34 94.13 169.39 94.29
  Q 169.51 94.76 169.97 94.64
  L 170.60 94.49
  Q 171.11 94.36 171.56 94.62
  Q 195.34 108.38 219.58 122.33
  Q 220.48 122.84 220.49 123.84
  Q 220.50 124.37 221.00 124.17
  L 221.37 124.02
  Q 222.03 123.76 222.64 124.11
  L 249.96 139.89
  Q 250.50 140.20 250.50 140.81
  L 250.50 276.24
  A 0.18 0.17 14.4 0 1 250.24 276.39
  L 104.64 192.35
  Q 104.04 192.00 104.64 191.65
  L 164.68 156.81
  A 0.48 0.48 0.0 0 0 164.73 156.01
  L 164.49 155.82
  A 0.24 0.23 -42.4 0 0 164.22 155.81
  L 103.55 190.99
  A 1.24 1.24 0.0 0 1 102.29 190.99
  L 84.54 180.76
  A 0.22 0.22 0.0 0 1 84.50 180.41
  L 92.05 172.81
  Z
  M 168.1347 96.0793
  A 1.20 0.60 -42.5 0 0 166.8446 96.4476
  A 1.20 0.60 -42.5 0 0 166.3653 97.7007
  A 1.20 0.60 -42.5 0 0 167.6554 97.3324
  A 1.20 0.60 -42.5 0 0 168.1347 96.0793
  Z
  M 165.0261 99.1360
  A 1.28 0.57 -44.3 0 0 163.7119 99.6221
  A 1.28 0.57 -44.3 0 0 163.1939 100.9240
  A 1.28 0.57 -44.3 0 0 164.5081 100.4379
  A 1.28 0.57 -44.3 0 0 165.0261 99.1360
  Z
  M 161.9042 102.2975
  A 1.25 0.58 -43.0 0 0 160.5944 102.7258
  A 1.25 0.58 -43.0 0 0 160.0758 104.0025
  A 1.25 0.58 -43.0 0 0 161.3856 103.5742
  A 1.25 0.58 -43.0 0 0 161.9042 102.2975
  Z
  M 157.0356 107.1562
  A 1.21 0.60 133.6 0 0 158.3045 106.6938
  A 1.21 0.60 133.6 0 0 158.7044 105.4038
  A 1.21 0.60 133.6 0 0 157.4355 105.8662
  A 1.21 0.60 133.6 0 0 157.0356 107.1562
  Z
  M 155.69 109.03
  A 0.36 0.36 0.0 0 0 155.32 108.54
  Q 154.40 108.62 154.02 109.38
  Q 153.28 110.89 154.82 110.14
  Q 155.37 109.87 155.69 109.03
  Z
  M 152.57 112.17
  A 0.27 0.26 37.8 0 0 152.53 111.89
  Q 152.26 111.57 151.86 111.73
  Q 150.80 112.13 150.70 113.12
  Q 150.65 113.66 151.16 113.47
  Q 152.09 113.11 152.57 112.17
  Z
  M 149.3759 114.8224
  A 1.24 0.42 -44.4 0 0 148.1961 115.3899
  A 1.24 0.42 -44.4 0 0 147.6041 116.5576
  A 1.24 0.42 -44.4 0 0 148.7839 115.9901
  A 1.24 0.42 -44.4 0 0 149.3759 114.8224
  Z
  M 146.5227 117.6385
  A 1.58 0.36 -44.2 0 0 145.1390 118.4819
  A 1.58 0.36 -44.2 0 0 144.2573 119.8415
  A 1.58 0.36 -44.2 0 0 145.6410 118.9981
  A 1.58 0.36 -44.2 0 0 146.5227 117.6385
  Z
  M 143.2866 120.8928
  A 1.68 0.30 -42.6 0 0 141.8469 121.8092
  A 1.68 0.30 -42.6 0 0 140.8134 123.1672
  A 1.68 0.30 -42.6 0 0 142.2531 122.2508
  A 1.68 0.30 -42.6 0 0 143.2866 120.8928
  Z
  M 138.0886 126.0431
  A 1.58 0.32 134.7 0 0 139.4275 125.1451
  A 1.58 0.32 134.7 0 0 140.3114 123.7969
  A 1.58 0.32 134.7 0 0 138.9725 124.6949
  A 1.58 0.32 134.7 0 0 138.0886 126.0431
  Z
  M 216.21 125.96
  Q 215.07 126.01 214.65 126.86
  Q 214.30 127.55 215.08 127.49
  Q 216.04 127.40 216.58 126.63
  Q 217.08 125.92 216.21 125.96
  Z
  M 134.7745 129.3489
  A 1.58 0.31 134.4 0 0 136.1015 128.4369
  A 1.58 0.31 134.4 0 0 136.9855 127.0911
  A 1.58 0.31 134.4 0 0 135.6585 128.0031
  A 1.58 0.31 134.4 0 0 134.7745 129.3489
  Z
  M 209.52 130.99
  Q 210.62 130.63 210.81 129.64
  Q 210.91 129.08 210.36 129.22
  Q 209.49 129.44 208.89 130.20
  Q 208.58 130.59 209.05 130.91
  A 0.53 0.51 -34.3 0 0 209.52 130.99
  Z
  M 133.9047 130.3518
  A 1.46 0.32 -42.6 0 0 132.6134 131.1044
  A 1.46 0.32 -42.6 0 0 131.7553 132.3282
  A 1.46 0.32 -42.6 0 0 133.0466 131.5756
  A 1.46 0.32 -42.6 0 0 133.9047 130.3518
  Z
  M 205.00 133.46
  A 0.42 0.41 -31.4 0 0 205.10 133.07
  Q 204.94 132.40 204.28 132.61
  Q 203.38 132.90 203.03 133.67
  Q 202.79 134.18 203.36 134.19
  Q 204.33 134.21 205.00 133.46
  Z
  M 128.7612 135.3996
  A 1.30 0.39 135.6 0 0 129.9629 134.7686
  A 1.30 0.39 135.6 0 0 130.6188 133.5804
  A 1.30 0.39 135.6 0 0 129.4171 134.2114
  A 1.30 0.39 135.6 0 0 128.7612 135.3996
  Z
  M 199.30 136.63
  A 0.39 0.39 0.0 0 0 199.08 135.98
  Q 197.59 135.70 197.33 137.13
  A 0.42 0.42 0.0 0 0 197.91 137.59
  Q 198.72 137.25 199.30 136.63
  Z
  M 127.3848 136.8185
  A 1.20 0.35 -43.2 0 0 126.2704 137.3849
  A 1.20 0.35 -43.2 0 0 125.6352 138.4615
  A 1.20 0.35 -43.2 0 0 126.7496 137.8951
  A 1.20 0.35 -43.2 0 0 127.3848 136.8185
  Z
  M 87.38 152.73
  Q 87.38 151.83 88.27 151.94
  C 93.40 152.62 100.40 149.64 98.10 143.10
  C 96.30 138.01 89.08 138.96 85.02 138.99
  Q 84.49 138.99 84.49 139.53
  L 84.57 159.53
  A 0.46 0.46 0.0 0 0 85.03 159.99
  L 86.99 160.00
  A 0.36 0.36 0.0 0 0 87.35 159.64
  L 87.38 152.73
  Z
  M 193.6360 139.4912
  A 1.28 0.58 -28.4 0 0 192.2341 139.5898
  A 1.28 0.58 -28.4 0 0 191.3840 140.7088
  A 1.28 0.58 -28.4 0 0 192.7859 140.6102
  A 1.28 0.58 -28.4 0 0 193.6360 139.4912
  Z
  M 124.4692 139.7063
  A 1.48 0.37 -44.3 0 0 123.1516 140.4752
  A 1.48 0.37 -44.3 0 0 122.3508 141.7737
  A 1.48 0.37 -44.3 0 0 123.6684 141.0048
  A 1.48 0.37 -44.3 0 0 124.4692 139.7063
  Z
  M 186.25 143.02
  Q 185.86 143.16 185.73 143.59
  A 0.47 0.47 0.0 0 0 186.12 144.20
  Q 187.22 144.36 187.77 143.21
  A 0.44 0.44 0.0 0 0 187.36 142.58
  Q 187.05 142.60 186.77 142.77
  Q 186.51 142.92 186.25 143.02
  Z
  M 121.2544 142.9081
  A 1.49 0.34 -43.3 0 0 119.9368 143.6826
  A 1.49 0.34 -43.3 0 0 119.0856 144.9519
  A 1.49 0.34 -43.3 0 0 120.4032 144.1774
  A 1.49 0.34 -43.3 0 0 121.2544 142.9081
  Z
  M 116.0865 148.0705
  A 1.41 0.40 134.8 0 0 117.3638 147.3519
  A 1.41 0.40 134.8 0 0 118.0735 146.0695
  A 1.41 0.40 134.8 0 0 116.7962 146.7881
  A 1.41 0.40 134.8 0 0 116.0865 148.0705
  Z
  M 180.95 147.42
  Q 181.61 147.16 181.99 146.57
  A 0.46 0.46 0.0 0 0 181.55 145.87
  Q 180.55 146.00 180.02 146.83
  A 0.49 0.49 0.0 0 0 180.61 147.55
  Q 180.78 147.49 180.95 147.42
  Z
  M 112.9954 151.1531
  A 1.25 0.49 134.4 0 0 114.2201 150.6028
  A 1.25 0.49 134.4 0 0 114.7446 149.3669
  A 1.25 0.49 134.4 0 0 113.5199 149.9172
  A 1.25 0.49 134.4 0 0 112.9954 151.1531
  Z
  M 176.2750 149.4267
  A 1.26 0.59 -32.3 0 0 174.8947 149.6013
  A 1.26 0.59 -32.3 0 0 174.1450 150.7733
  A 1.26 0.59 -32.3 0 0 175.5253 150.5987
  A 1.26 0.59 -32.3 0 0 176.2750 149.4267
  Z
  M 111.59 153.17
  Q 111.94 152.30 111.04 152.57
  Q 110.30 152.80 109.88 153.51
  A 0.52 0.52 0.0 0 0 110.49 154.27
  Q 111.26 154.00 111.59 153.17
  Z
  M 170.4806 152.8250
  A 1.19 0.64 -30.0 0 0 169.1300 152.8657
  A 1.19 0.64 -30.0 0 0 168.4194 154.0150
  A 1.19 0.64 -30.0 0 0 169.7700 153.9743
  A 1.19 0.64 -30.0 0 0 170.4806 152.8250
  Z
  M 108.4629 155.7191
  A 1.17 0.65 -43.2 0 0 107.1650 156.0462
  A 1.17 0.65 -43.2 0 0 106.7571 157.3209
  A 1.17 0.65 -43.2 0 0 108.0550 156.9938
  A 1.17 0.65 -43.2 0 0 108.4629 155.7191
  Z
  M 103.6481 160.4803
  A 1.14 0.67 134.7 0 0 104.9262 160.1413
  A 1.14 0.67 134.7 0 0 105.2519 158.8597
  A 1.14 0.67 134.7 0 0 103.9738 159.1987
  A 1.14 0.67 134.7 0 0 103.6481 160.4803
  Z
  M 100.45 163.07
  Q 100.15 164.05 101.09 163.65
  Q 101.86 163.33 102.23 162.63
  A 0.53 0.52 -82.0 0 0 101.66 161.87
  Q 100.77 162.06 100.45 163.07
  Z
  M 99.1015 165.0722
  A 1.28 0.58 -43.3 0 0 97.7722 165.5279
  A 1.28 0.58 -43.3 0 0 97.2385 166.8278
  A 1.28 0.58 -43.3 0 0 98.5678 166.3721
  A 1.28 0.58 -43.3 0 0 99.1015 165.0722
  Z"
/>
<ellipse fill="#010101" cx="0.00" cy="0.00" transform="translate(167.25,96.89) rotate(-42.5)" rx="1.20" ry="0.60"/>
<ellipse fill="#010101" cx="0.00" cy="0.00" transform="translate(164.11,100.03) rotate(-44.3)" rx="1.28" ry="0.57"/>
<ellipse fill="#010101" cx="0.00" cy="0.00" transform="translate(160.99,103.15) rotate(-43.0)" rx="1.25" ry="0.58"/>
<ellipse fill="#010101" cx="0.00" cy="0.00" transform="translate(157.87,106.28) rotate(133.6)" rx="1.21" ry="0.60"/>
<path fill="#010101" d="
  M 155.69 109.03
  Q 155.37 109.87 154.82 110.14
  Q 153.28 110.89 154.02 109.38
  Q 154.40 108.62 155.32 108.54
  A 0.36 0.36 0.0 0 1 155.69 109.03
  Z"
/>
<path fill="#010101" d="
  M 152.57 112.17
  Q 152.09 113.11 151.16 113.47
  Q 150.65 113.66 150.70 113.12
  Q 150.80 112.13 151.86 111.73
  Q 152.26 111.57 152.53 111.89
  A 0.27 0.26 37.8 0 1 152.57 112.17
  Z"
/>
<ellipse fill="#010101" cx="0.00" cy="0.00" transform="translate(148.49,115.69) rotate(-44.4)" rx="1.24" ry="0.42"/>
<ellipse fill="#010101" cx="0.00" cy="0.00" transform="translate(145.39,118.74) rotate(-44.2)" rx="1.58" ry="0.36"/>
<ellipse fill="#010101" cx="0.00" cy="0.00" transform="translate(142.05,122.03) rotate(-42.6)" rx="1.68" ry="0.30"/>
<ellipse fill="#010101" cx="0.00" cy="0.00" transform="translate(139.20,124.92) rotate(134.7)" rx="1.58" ry="0.32"/>
<path fill="#010101" d="
  M 216.21 125.96
  Q 217.08 125.92 216.58 126.63
  Q 216.04 127.40 215.08 127.49
  Q 214.30 127.55 214.65 126.86
  Q 215.07 126.01 216.21 125.96
  Z"
/>
<ellipse fill="#010101" cx="0.00" cy="0.00" transform="translate(135.88,128.22) rotate(134.4)" rx="1.58" ry="0.31"/>
<path fill="#010101" d="
  M 209.52 130.99
  A 0.53 0.51 -34.3 0 1 209.05 130.91
  Q 208.58 130.59 208.89 130.20
  Q 209.49 129.44 210.36 129.22
  Q 210.91 129.08 210.81 129.64
  Q 210.62 130.63 209.52 130.99
  Z"
/>
<ellipse fill="#010101" cx="0.00" cy="0.00" transform="translate(132.83,131.34) rotate(-42.6)" rx="1.46" ry="0.32"/>
<path fill="#010101" d="
  M 205.00 133.46
  Q 204.33 134.21 203.36 134.19
  Q 202.79 134.18 203.03 133.67
  Q 203.38 132.90 204.28 132.61
  Q 204.94 132.40 205.10 133.07
  A 0.42 0.41 -31.4 0 1 205.00 133.46
  Z"
/>
<ellipse fill="#010101" cx="0.00" cy="0.00" transform="translate(129.69,134.49) rotate(135.6)" rx="1.30" ry="0.39"/>
<path fill="#010101" d="
  M 199.30 136.63
  Q 198.72 137.25 197.91 137.59
  A 0.42 0.42 0.0 0 1 197.33 137.13
  Q 197.59 135.70 199.08 135.98
  A 0.39 0.39 0.0 0 1 199.30 136.63
  Z"
/>
<ellipse fill="#010101" cx="0.00" cy="0.00" transform="translate(126.51,137.64) rotate(-43.2)" rx="1.20" ry="0.35"/>
<path fill="#010101" d="
  M 87.38 152.73
  L 87.35 159.64
  A 0.36 0.36 0.0 0 1 86.99 160.00
  L 85.03 159.99
  A 0.46 0.46 0.0 0 1 84.57 159.53
  L 84.49 139.53
  Q 84.49 138.99 85.02 138.99
  C 89.08 138.96 96.30 138.01 98.10 143.10
  C 100.40 149.64 93.40 152.62 88.27 151.94
  Q 87.38 151.83 87.38 152.73
  Z
  M 87.38 141.35
  L 87.34 149.61
  A 0.36 0.36 0.0 0 0 87.70 149.97
  L 90.99 149.99
  A 4.35 4.14 0.3 0 0 95.36 145.87
  L 95.36 145.17
  A 4.35 4.14 0.3 0 0 91.03 141.01
  L 87.74 140.99
  A 0.36 0.36 0.0 0 0 87.38 141.35
  Z"
/>
<ellipse fill="#010101" cx="0.00" cy="0.00" transform="translate(192.51,140.10) rotate(-28.4)" rx="1.28" ry="0.58"/>
<ellipse fill="#010101" cx="0.00" cy="0.00" transform="translate(123.41,140.74) rotate(-44.3)" rx="1.48" ry="0.37"/>
<path fill="#ffffff" d="
  M 87.38 141.35
  A 0.36 0.36 0.0 0 1 87.74 140.99
  L 91.03 141.01
  A 4.35 4.14 0.3 0 1 95.36 145.17
  L 95.36 145.87
  A 4.35 4.14 0.3 0 1 90.99 149.99
  L 87.70 149.97
  A 0.36 0.36 0.0 0 1 87.34 149.61
  L 87.38 141.35
  Z"
/>
<path fill="#010101" d="
  M 186.77 142.77
  Q 187.05 142.60 187.36 142.58
  A 0.44 0.44 0.0 0 1 187.77 143.21
  Q 187.22 144.36 186.12 144.20
  A 0.47 0.47 0.0 0 1 185.73 143.59
  Q 185.86 143.16 186.25 143.02
  Q 186.51 142.92 186.77 142.77
  Z"
/>
<ellipse fill="#010101" cx="0.00" cy="0.00" transform="translate(120.17,143.93) rotate(-43.3)" rx="1.49" ry="0.34"/>
<ellipse fill="#010101" cx="0.00" cy="0.00" transform="translate(117.08,147.07) rotate(134.8)" rx="1.41" ry="0.40"/>
<path fill="#010101" d="
  M 180.95 147.42
  Q 180.78 147.49 180.61 147.55
  A 0.49 0.49 0.0 0 1 180.02 146.83
  Q 180.55 146.00 181.55 145.87
  A 0.46 0.46 0.0 0 1 181.99 146.57
  Q 181.61 147.16 180.95 147.42
  Z"
/>
<ellipse fill="#010101" cx="0.00" cy="0.00" transform="translate(113.87,150.26) rotate(134.4)" rx="1.25" ry="0.49"/>
<ellipse fill="#010101" cx="0.00" cy="0.00" transform="translate(175.21,150.10) rotate(-32.3)" rx="1.26" ry="0.59"/>
<path fill="#010101" d="
  M 111.59 153.17
  Q 111.26 154.00 110.49 154.27
  A 0.52 0.52 0.0 0 1 109.88 153.51
  Q 110.30 152.80 111.04 152.57
  Q 111.94 152.30 111.59 153.17
  Z"
/>
<ellipse fill="#010101" cx="0.00" cy="0.00" transform="translate(169.45,153.42) rotate(-30.0)" rx="1.19" ry="0.64"/>
<ellipse fill="#010101" cx="0.00" cy="0.00" transform="translate(107.61,156.52) rotate(-43.2)" rx="1.17" ry="0.65"/>
<ellipse fill="#010101" cx="0.00" cy="0.00" transform="translate(104.45,159.67) rotate(134.7)" rx="1.14" ry="0.67"/>
<path fill="#010101" d="
  M 100.45 163.07
  Q 100.77 162.06 101.66 161.87
  A 0.53 0.52 -82.0 0 1 102.23 162.63
  Q 101.86 163.33 101.09 163.65
  Q 100.15 164.05 100.45 163.07
  Z"
/>
<path fill="#0000ff" d="
  M 92.05 172.81
  Q 91.66 172.31 91.08 172.25
  L 89.55 171.32
  Q 89.07 171.04 89.07 170.48
  L 89.05 164.73
  Q 89.05 164.06 89.64 164.39
  L 97.73 169.03
  Q 98.02 169.19 98.01 169.52
  L 97.90 175.97
  A 0.16 0.15 -73.9 0 1 97.67 176.10
  L 92.05 172.81
  Z"
/>
<ellipse fill="#010101" cx="0.00" cy="0.00" transform="translate(98.17,165.95) rotate(-43.3)" rx="1.28" ry="0.58"/>
<path fill="#ffffff" d="
  M 101.37 192.27
  L 71.54 209.53
  A 0.31 0.31 0.0 0 1 71.23 209.53
  L 61.50 203.92
  A 0.31 0.31 0.0 0 1 61.44 203.43
  L 83.28 181.59
  A 0.31 0.31 0.0 0 1 83.66 181.54
  L 101.36 191.73
  A 0.31 0.31 0.0 0 1 101.37 192.27
  Z"
/>
<path fill="#ffffff" d="
  M 31.50 231.67
  Q 30.54 232.03 30.74 233.11
  Q 30.83 233.55 30.41 233.72
  L 28.53 234.49
  Q 27.77 234.80 28.00 234.02
  L 39.88 193.33
  A 0.39 0.39 0.0 0 1 40.45 193.10
  L 58.21 203.32
  Q 58.60 203.55 58.73 203.98
  L 58.97 204.82
  A 0.51 0.50 -29.2 0 0 59.80 205.05
  Q 60.00 204.88 60.22 204.82
  Q 60.65 204.72 61.03 204.94
  L 75.64 213.36
  Q 76.34 213.77 75.60 214.09
  Q 53.44 223.73 32.72 232.73
  Q 31.71 233.17 32.36 232.29
  Q 32.46 232.15 32.33 231.95
  Q 32.03 231.47 31.50 231.67
  Z
  M 57.4656 206.6538
  A 1.14 0.67 -43.6 0 0 56.1780 206.9548
  A 1.14 0.67 -43.6 0 0 55.8144 208.2262
  A 1.14 0.67 -43.6 0 0 57.1020 207.9252
  A 1.14 0.67 -43.6 0 0 57.4656 206.6538
  Z
  M 54.3051 209.8119
  A 1.12 0.67 -43.3 0 0 53.0305 210.0924
  A 1.12 0.67 -43.3 0 0 52.6749 211.3481
  A 1.12 0.67 -43.3 0 0 53.9495 211.0676
  A 1.12 0.67 -43.3 0 0 54.3051 209.8119
  Z
  M 49.44 214.25
  A 0.35 0.34 -1.8 0 0 49.86 214.64
  Q 50.64 214.45 51.20 213.81
  A 0.59 0.59 0.0 0 0 51.16 212.99
  Q 50.73 212.58 50.25 212.92
  Q 49.59 213.39 49.44 214.25
  Z
  M 46.29 217.28
  Q 46.08 217.95 46.75 217.74
  Q 47.67 217.47 48.17 216.63
  A 0.50 0.50 0.0 0 0 47.61 215.89
  Q 46.65 216.15 46.29 217.28
  Z
  M 44.9861 219.1160
  A 1.28 0.57 -44.3 0 0 43.6719 219.6021
  A 1.28 0.57 -44.3 0 0 43.1539 220.9040
  A 1.28 0.57 -44.3 0 0 44.4681 220.4179
  A 1.28 0.57 -44.3 0 0 44.9861 219.1160
  Z
  M 41.25 222.27
  Q 40.32 222.61 40.03 223.49
  Q 39.80 224.19 40.51 224.01
  Q 41.48 223.77 41.83 222.85
  Q 42.17 221.93 41.25 222.27
  Z
  M 38.22 225.31
  Q 37.24 225.72 36.89 226.51
  A 0.53 0.53 0.0 0 0 37.68 227.17
  Q 38.43 226.64 38.75 225.84
  A 0.41 0.41 0.0 0 0 38.22 225.31
  Z
  M 35.5282 228.6611
  A 1.14 0.65 -40.4 0 0 34.2387 228.9050
  A 1.14 0.65 -40.4 0 0 33.7918 230.1389
  A 1.14 0.65 -40.4 0 0 35.0813 229.8950
  A 1.14 0.65 -40.4 0 0 35.5282 228.6611
  Z"
/>
<ellipse fill="#010101" cx="0.00" cy="0.00" transform="translate(56.64,207.44) rotate(-43.6)" rx="1.14" ry="0.67"/>
<ellipse fill="#010101" cx="0.00" cy="0.00" transform="translate(53.49,210.58) rotate(-43.3)" rx="1.12" ry="0.67"/>
<path fill="#010101" d="
  M 49.44 214.25
  Q 49.59 213.39 50.25 212.92
  Q 50.73 212.58 51.16 212.99
  A 0.59 0.59 0.0 0 1 51.20 213.81
  Q 50.64 214.45 49.86 214.64
  A 0.35 0.34 -1.8 0 1 49.44 214.25
  Z"
/>
<path fill="#ffffff" d="
  M 76.65 242.74
  L 29.71 235.87
  A 0.31 0.31 0.0 0 1 29.63 235.28
  L 76.58 214.89
  A 0.31 0.31 0.0 0 1 77.01 215.17
  L 77.00 242.43
  A 0.31 0.31 0.0 0 1 76.65 242.74
  Z"
/>
<path fill="#010101" d="
  M 46.29 217.28
  Q 46.65 216.15 47.61 215.89
  A 0.50 0.50 0.0 0 1 48.17 216.63
  Q 47.67 217.47 46.75 217.74
  Q 46.08 217.95 46.29 217.28
  Z"
/>
<ellipse fill="#010101" cx="0.00" cy="0.00" transform="translate(44.07,220.01) rotate(-44.3)" rx="1.28" ry="0.57"/>
<path fill="#010101" d="
  M 41.25 222.27
  Q 42.17 221.93 41.83 222.85
  Q 41.48 223.77 40.51 224.01
  Q 39.80 224.19 40.03 223.49
  Q 40.32 222.61 41.25 222.27
  Z"
/>
<path fill="#010101" d="
  M 38.22 225.31
  A 0.41 0.41 0.0 0 1 38.75 225.84
  Q 38.43 226.64 37.68 227.17
  A 0.53 0.53 0.0 0 1 36.89 226.51
  Q 37.24 225.72 38.22 225.31
  Z"
/>
<ellipse fill="#010101" cx="0.00" cy="0.00" transform="translate(34.66,229.40) rotate(-40.4)" rx="1.14" ry="0.65"/>
<path fill="#010101" d="
  M 34.07 259.10
  C 29.44 256.88 30.37 251.35 34.82 249.69
  Q 38.98 248.14 43.11 249.87
  Q 43.87 250.19 43.80 251.01
  L 43.76 251.47
  A 0.46 0.46 0.0 0 1 43.10 251.84
  Q 40.33 250.52 37.10 251.14
  C 33.78 251.78 32.92 255.63 36.18 256.99
  Q 39.01 258.17 41.71 259.43
  C 46.43 261.63 46.17 267.49 41.35 269.21
  Q 36.34 271.01 31.27 269.05
  Q 30.74 268.85 30.75 268.27
  L 30.77 267.56
  Q 30.79 266.97 31.34 267.17
  Q 34.88 268.45 38.78 267.86
  C 42.41 267.31 43.49 263.04 39.72 261.56
  Q 36.85 260.43 34.07 259.10
  Z"
/>
<path fill="#010101" d="
  M 248.58 361.00
  L 243.96 361.00
  L 237.21 352.01
  Q 236.90 351.59 236.59 352.01
  L 229.88 361.00
  L 225.30 361.00
  L 234.23 348.68
  Q 234.55 348.23 234.22 347.79
  L 226.16 337.02
  A 0.10 0.10 0.0 0 1 226.23 336.86
  Q 227.39 336.68 230.45 336.75
  Q 230.69 336.76 230.83 336.95
  L 236.66 344.79
  Q 237.10 345.37 237.53 344.79
  L 243.39 336.91
  Q 243.52 336.74 243.73 336.74
  L 247.89 336.76
  A 0.16 0.16 0.0 0 1 248.02 337.02
  L 239.80 348.07
  Q 239.49 348.49 239.80 348.92
  L 248.58 361.00
  Z"
/>
<path fill="#ffffff" d="
  M 243.96 361.00
  L 229.88 361.00
  L 236.59 352.01
  Q 236.90 351.59 237.21 352.01
  L 243.96 361.00
  Z"
/>
</svg>
