<?xml version="1.0" encoding="UTF-8"?><svg xmlns="http://www.w3.org/2000/svg" xmlns:xlink="http://www.w3.org/1999/xlink" fill-opacity="1" color-rendering="auto" color-interpolation="auto" text-rendering="auto" stroke="black" stroke-linecap="square" width="699" stroke-miterlimit="10" shape-rendering="auto" stroke-opacity="1" fill="black" stroke-dasharray="none" font-weight="normal" stroke-width="1" height="300" font-family="'Dialog'" font-style="normal" stroke-linejoin="miter" font-size="12px" stroke-dashoffset="0" image-rendering="auto">
  <!--Generated by ySVG 2.6-->
  <defs id="genericDefs"/>
  <g>
    <defs id="defs1">
      <clipPath clipPathUnits="userSpaceOnUse" id="clipPath1">
        <path d="M0 0 L699 0 L699 300 L0 300 L0 0 Z"/>
      </clipPath>
      <clipPath clipPathUnits="userSpaceOnUse" id="clipPath2">
        <path d="M231 133 L1629 133 L1629 733 L231 733 L231 133 Z"/>
      </clipPath>
      <clipPath clipPathUnits="userSpaceOnUse" id="clipPath3">
        <path d="M702 357 L702 431 L872 431 L872 357 Z"/>
      </clipPath>
      <clipPath clipPathUnits="userSpaceOnUse" id="clipPath4">
        <path d="M512 496 L512 544 L682 544 L682 496 Z"/>
      </clipPath>
      <clipPath clipPathUnits="userSpaceOnUse" id="clipPath5">
        <path d="M702 496 L702 544 L872 544 L872 496 Z"/>
      </clipPath>
      <clipPath clipPathUnits="userSpaceOnUse" id="clipPath6">
        <path d="M892 496 L892 544 L1062 544 L1062 496 Z"/>
      </clipPath>
      <clipPath clipPathUnits="userSpaceOnUse" id="clipPath7">
        <path d="M1120 496 L1120 544 L1290 544 L1290 496 Z"/>
      </clipPath>
      <clipPath clipPathUnits="userSpaceOnUse" id="clipPath8">
        <path d="M1120 654 L1120 702 L1290 702 L1290 654 Z"/>
      </clipPath>
      <clipPath clipPathUnits="userSpaceOnUse" id="clipPath9">
        <path d="M1320 654 L1320 702 L1490 702 L1490 654 Z"/>
      </clipPath>
      <clipPath clipPathUnits="userSpaceOnUse" id="clipPath10">
        <path d="M920 654 L920 702 L1090 702 L1090 654 Z"/>
      </clipPath>
      <clipPath clipPathUnits="userSpaceOnUse" id="clipPath11">
        <path d="M802 163 L802 281 L902 281 L902 163 Z"/>
      </clipPath>
      <clipPath clipPathUnits="userSpaceOnUse" id="clipPath12">
        <path d="M326 357 L326 420 L426 420 L426 357 Z"/>
      </clipPath>
      <clipPath clipPathUnits="userSpaceOnUse" id="clipPath13">
        <path d="M261 489 L261 552 L361 552 L361 489 Z"/>
      </clipPath>
      <clipPath clipPathUnits="userSpaceOnUse" id="clipPath14">
        <path d="M391 489 L391 552 L491 552 L491 489 Z"/>
      </clipPath>
      <clipPath clipPathUnits="userSpaceOnUse" id="clipPath15">
        <path d="M507 357 L507 383 L607 383 L607 357 Z"/>
      </clipPath>
      <clipPath clipPathUnits="userSpaceOnUse" id="clipPath16">
        <path d="M1427 357 L1427 405 L1527 405 L1527 357 Z"/>
      </clipPath>
      <clipPath clipPathUnits="userSpaceOnUse" id="clipPath17">
        <path d="M1355 496 L1355 544 L1455 544 L1455 496 Z"/>
      </clipPath>
      <clipPath clipPathUnits="userSpaceOnUse" id="clipPath18">
        <path d="M1498 496 L1498 544 L1598 544 L1598 496 Z"/>
      </clipPath>
    </defs>
    <g fill="white" text-rendering="geometricPrecision" shape-rendering="geometricPrecision" transform="matrix(0.5,0,0,0.5,-115.5,-66.5)" stroke="white">
      <rect x="702.1824" width="170" height="74.2633" y="357.5736" clip-path="url(#clipPath2)" stroke="none"/>
    </g>
    <g text-rendering="geometricPrecision" stroke-miterlimit="1.45" shape-rendering="geometricPrecision" transform="matrix(0.5,0,0,0.5,-115.5,-66.5)" stroke-linecap="butt">
      <rect fill="none" x="702.1824" width="170" height="74.2633" y="357.5736" clip-path="url(#clipPath2)"/>
    </g>
    <g stroke-linecap="butt" font-size="13px" transform="matrix(0.5,0,0,0.5,-115.5,-66.5)" text-rendering="geometricPrecision" font-family="sans-serif" shape-rendering="geometricPrecision" font-style="italic" font-weight="bold" stroke-miterlimit="1.45">
      <text x="719.2657" xml:space="preserve" y="375.1419" clip-path="url(#clipPath3)" stroke="none">RenderingAlgorithm</text>
    </g>
    <g text-rendering="geometricPrecision" shape-rendering="geometricPrecision" transform="matrix(0.5,0,0,0.5,-115.5,-66.5)">
      <line y2="382" fill="none" x1="703" clip-path="url(#clipPath3)" x2="871" y1="382"/>
      <text stroke-linecap="butt" x="707.1824" y="399.4857" clip-path="url(#clipPath3)" font-family="sans-serif" stroke="none" stroke-miterlimit="1.45" xml:space="preserve">- shader</text>
      <line y2="407" fill="none" x1="703" clip-path="url(#clipPath3)" x2="871" y1="407"/>
      <text stroke-linecap="butt" x="707.1824" y="423.6185" clip-path="url(#clipPath3)" font-family="sans-serif" stroke="none" stroke-miterlimit="1.45" xml:space="preserve">+render()</text>
      <rect x="512.1824" y="496.8843" clip-path="url(#clipPath2)" fill="white" width="170" height="48" stroke="none"/>
      <rect stroke-linecap="butt" x="512.1824" y="496.8843" clip-path="url(#clipPath2)" fill="none" width="170" height="48" stroke-miterlimit="1.45"/>
    </g>
    <g font-size="13px" stroke-linecap="butt" transform="matrix(0.5,0,0,0.5,-115.5,-66.5)" text-rendering="geometricPrecision" font-family="sans-serif" shape-rendering="geometricPrecision" font-weight="bold" stroke-miterlimit="1.45">
      <text x="554.012" xml:space="preserve" y="514.4526" clip-path="url(#clipPath4)" stroke="none">RayMarching</text>
    </g>
    <g text-rendering="geometricPrecision" shape-rendering="geometricPrecision" transform="matrix(0.5,0,0,0.5,-115.5,-66.5)">
      <line y2="522" fill="none" x1="513" clip-path="url(#clipPath4)" x2="681" y1="522"/>
      <text stroke-linecap="butt" x="517.1824" y="538.7964" clip-path="url(#clipPath4)" font-family="sans-serif" stroke="none" stroke-miterlimit="1.45" xml:space="preserve">+render()</text>
      <line y2="546" fill="none" x1="513" clip-path="url(#clipPath4)" x2="681" y1="546"/>
      <rect x="702.1824" y="496.8843" clip-path="url(#clipPath2)" fill="white" width="170" height="48" stroke="none"/>
      <rect stroke-linecap="butt" x="702.1824" y="496.8843" clip-path="url(#clipPath2)" fill="none" width="170" height="48" stroke-miterlimit="1.45"/>
    </g>
    <g font-size="13px" stroke-linecap="butt" transform="matrix(0.5,0,0,0.5,-115.5,-66.5)" text-rendering="geometricPrecision" font-family="sans-serif" shape-rendering="geometricPrecision" font-weight="bold" stroke-miterlimit="1.45">
      <text x="706.6116" xml:space="preserve" y="514.4526" clip-path="url(#clipPath5)" stroke="none">ConcurrentRayMarching</text>
    </g>
    <g text-rendering="geometricPrecision" shape-rendering="geometricPrecision" transform="matrix(0.5,0,0,0.5,-115.5,-66.5)">
      <line y2="522" fill="none" x1="703" clip-path="url(#clipPath5)" x2="871" y1="522"/>
      <text stroke-linecap="butt" x="707.1824" y="538.7964" clip-path="url(#clipPath5)" font-family="sans-serif" stroke="none" stroke-miterlimit="1.45" xml:space="preserve">+render()</text>
      <line y2="546" fill="none" x1="703" clip-path="url(#clipPath5)" x2="871" y1="546"/>
      <rect x="892.1824" y="496.8843" clip-path="url(#clipPath2)" fill="white" width="170" height="48" stroke="none"/>
      <rect stroke-linecap="butt" x="892.1824" y="496.8843" clip-path="url(#clipPath2)" fill="none" width="170" height="48" stroke-miterlimit="1.45"/>
    </g>
    <g font-size="13px" stroke-linecap="butt" transform="matrix(0.5,0,0,0.5,-115.5,-66.5)" text-rendering="geometricPrecision" font-family="sans-serif" shape-rendering="geometricPrecision" font-weight="bold" stroke-miterlimit="1.45">
      <text x="920.4249" xml:space="preserve" y="514.4526" clip-path="url(#clipPath6)" stroke="none">OpenGLRenderer</text>
    </g>
    <g text-rendering="geometricPrecision" shape-rendering="geometricPrecision" transform="matrix(0.5,0,0,0.5,-115.5,-66.5)">
      <line y2="522" fill="none" x1="893" clip-path="url(#clipPath6)" x2="1061" y1="522"/>
      <text stroke-linecap="butt" x="897.1824" y="538.7964" clip-path="url(#clipPath6)" font-family="sans-serif" stroke="none" stroke-miterlimit="1.45" xml:space="preserve">+render()</text>
      <line y2="546" fill="none" x1="893" clip-path="url(#clipPath6)" x2="1061" y1="546"/>
      <rect x="1120.9047" y="496.8843" clip-path="url(#clipPath2)" fill="white" width="170" height="48" stroke="none"/>
      <rect stroke-linecap="butt" x="1120.9047" y="496.8843" clip-path="url(#clipPath2)" fill="none" width="170" height="48" stroke-miterlimit="1.45"/>
    </g>
    <g stroke-linecap="butt" font-size="13px" transform="matrix(0.5,0,0,0.5,-115.5,-66.5)" text-rendering="geometricPrecision" font-family="sans-serif" shape-rendering="geometricPrecision" font-style="italic" font-weight="bold" stroke-miterlimit="1.45">
      <text x="1145.51" xml:space="preserve" y="514.4526" clip-path="url(#clipPath7)" stroke="none">ShadingAlgorithm</text>
    </g>
    <g text-rendering="geometricPrecision" shape-rendering="geometricPrecision" transform="matrix(0.5,0,0,0.5,-115.5,-66.5)">
      <line y2="522" fill="none" x1="1121" clip-path="url(#clipPath7)" x2="1289" y1="522"/>
      <text stroke-linecap="butt" x="1125.9048" y="538.7964" clip-path="url(#clipPath7)" font-family="sans-serif" stroke="none" stroke-miterlimit="1.45" xml:space="preserve">+shade()</text>
      <line y2="546" fill="none" x1="1121" clip-path="url(#clipPath7)" x2="1289" y1="546"/>
      <rect x="1120.9047" y="654.8843" clip-path="url(#clipPath2)" fill="white" width="170" height="48" stroke="none"/>
      <rect stroke-linecap="butt" x="1120.9047" y="654.8843" clip-path="url(#clipPath2)" fill="none" width="170" height="48" stroke-miterlimit="1.45"/>
    </g>
    <g font-size="13px" stroke-linecap="butt" transform="matrix(0.5,0,0,0.5,-115.5,-66.5)" text-rendering="geometricPrecision" font-family="sans-serif" shape-rendering="geometricPrecision" font-weight="bold" stroke-miterlimit="1.45">
      <text x="1158.1609" xml:space="preserve" y="672.4526" clip-path="url(#clipPath8)" stroke="none">PhongShading</text>
    </g>
    <g text-rendering="geometricPrecision" shape-rendering="geometricPrecision" transform="matrix(0.5,0,0,0.5,-115.5,-66.5)">
      <line y2="680" fill="none" x1="1121" clip-path="url(#clipPath8)" x2="1289" y1="680"/>
      <text stroke-linecap="butt" x="1125.9048" y="696.7964" clip-path="url(#clipPath8)" font-family="sans-serif" stroke="none" stroke-miterlimit="1.45" xml:space="preserve">+shade()</text>
      <line y2="704" fill="none" x1="1121" clip-path="url(#clipPath8)" x2="1289" y1="704"/>
      <rect x="1320.9047" y="654.8843" clip-path="url(#clipPath2)" fill="white" width="170" height="48" stroke="none"/>
      <rect stroke-linecap="butt" x="1320.9047" y="654.8843" clip-path="url(#clipPath2)" fill="none" width="170" height="48" stroke-miterlimit="1.45"/>
    </g>
    <g font-size="13px" stroke-linecap="butt" transform="matrix(0.5,0,0,0.5,-115.5,-66.5)" text-rendering="geometricPrecision" font-family="sans-serif" shape-rendering="geometricPrecision" font-weight="bold" stroke-miterlimit="1.45">
      <text x="1350.5056" xml:space="preserve" y="672.4526" clip-path="url(#clipPath9)" stroke="none">GouraudShading</text>
    </g>
    <g text-rendering="geometricPrecision" shape-rendering="geometricPrecision" transform="matrix(0.5,0,0,0.5,-115.5,-66.5)">
      <line y2="680" fill="none" x1="1321" clip-path="url(#clipPath9)" x2="1489" y1="680"/>
      <text stroke-linecap="butt" x="1325.9048" y="696.7964" clip-path="url(#clipPath9)" font-family="sans-serif" stroke="none" stroke-miterlimit="1.45" xml:space="preserve">+shade()</text>
      <line y2="704" fill="none" x1="1321" clip-path="url(#clipPath9)" x2="1489" y1="704"/>
      <rect x="920.9047" y="654.8843" clip-path="url(#clipPath2)" fill="white" width="170" height="48" stroke="none"/>
      <rect stroke-linecap="butt" x="920.9047" y="654.8843" clip-path="url(#clipPath2)" fill="none" width="170" height="48" stroke-miterlimit="1.45"/>
    </g>
    <g font-size="13px" stroke-linecap="butt" transform="matrix(0.5,0,0,0.5,-115.5,-66.5)" text-rendering="geometricPrecision" font-family="sans-serif" shape-rendering="geometricPrecision" font-weight="bold" stroke-miterlimit="1.45">
      <text x="956.7643" xml:space="preserve" y="672.4526" clip-path="url(#clipPath10)" stroke="none">SimpleShading</text>
    </g>
    <g text-rendering="geometricPrecision" shape-rendering="geometricPrecision" transform="matrix(0.5,0,0,0.5,-115.5,-66.5)">
      <line y2="680" fill="none" x1="921" clip-path="url(#clipPath10)" x2="1089" y1="680"/>
      <text stroke-linecap="butt" x="925.9047" y="696.7964" clip-path="url(#clipPath10)" font-family="sans-serif" stroke="none" stroke-miterlimit="1.45" xml:space="preserve">+shade()</text>
      <line y2="704" fill="none" x1="921" clip-path="url(#clipPath10)" x2="1089" y1="704"/>
      <rect x="802.2841" y="163.0359" clip-path="url(#clipPath2)" fill="white" width="100" height="118.3306" stroke="none"/>
      <rect stroke-linecap="butt" x="802.2841" y="163.0359" clip-path="url(#clipPath2)" fill="none" width="100" height="118.3306" stroke-miterlimit="1.45"/>
    </g>
    <g font-size="13px" stroke-linecap="butt" transform="matrix(0.5,0,0,0.5,-115.5,-66.5)" text-rendering="geometricPrecision" font-family="sans-serif" shape-rendering="geometricPrecision" font-weight="bold" stroke-miterlimit="1.45">
      <text x="833.2252" xml:space="preserve" y="180.6043" clip-path="url(#clipPath11)" stroke="none">Scene</text>
    </g>
    <g text-rendering="geometricPrecision" shape-rendering="geometricPrecision" transform="matrix(0.5,0,0,0.5,-115.5,-66.5)">
      <line y2="188" fill="none" x1="803" clip-path="url(#clipPath11)" x2="901" y1="188"/>
      <text stroke-linecap="butt" x="807.2841" y="204.948" clip-path="url(#clipPath11)" font-family="sans-serif" stroke="none" stroke-miterlimit="1.45" xml:space="preserve">- objects</text>
      <text stroke-linecap="butt" x="807.2841" y="219.0808" clip-path="url(#clipPath11)" font-family="sans-serif" stroke="none" stroke-miterlimit="1.45" xml:space="preserve">- camera</text>
      <text stroke-linecap="butt" x="807.2841" y="233.2136" clip-path="url(#clipPath11)" font-family="sans-serif" stroke="none" stroke-miterlimit="1.45" xml:space="preserve">- light</text>
      <text stroke-linecap="butt" x="807.2841" y="247.3465" clip-path="url(#clipPath11)" font-family="sans-serif" stroke="none" stroke-miterlimit="1.45" xml:space="preserve">- renderer</text>
      <line y2="254" fill="none" x1="803" clip-path="url(#clipPath11)" x2="901" y1="254"/>
      <text stroke-linecap="butt" x="807.2841" y="271.4793" clip-path="url(#clipPath11)" font-family="sans-serif" stroke="none" stroke-miterlimit="1.45" xml:space="preserve">+update()</text>
      <rect x="326.8384" y="357.5736" clip-path="url(#clipPath2)" fill="white" width="100" height="63.566" stroke="none"/>
      <rect stroke-linecap="butt" x="326.8384" y="357.5736" clip-path="url(#clipPath2)" fill="none" width="100" height="63.566" stroke-miterlimit="1.45"/>
    </g>
    <g stroke-linecap="butt" font-size="13px" transform="matrix(0.5,0,0,0.5,-115.5,-66.5)" text-rendering="geometricPrecision" font-family="sans-serif" shape-rendering="geometricPrecision" font-style="italic" font-weight="bold" stroke-miterlimit="1.45">
      <text x="351.4985" xml:space="preserve" y="375.1419" clip-path="url(#clipPath12)" stroke="none">Camera</text>
    </g>
    <g text-rendering="geometricPrecision" shape-rendering="geometricPrecision" transform="matrix(0.5,0,0,0.5,-115.5,-66.5)">
      <line y2="382" fill="none" x1="327" clip-path="url(#clipPath12)" x2="425" y1="382"/>
      <text stroke-linecap="butt" x="331.8384" y="399.4857" clip-path="url(#clipPath12)" font-family="sans-serif" stroke="none" stroke-miterlimit="1.45" xml:space="preserve">+move()</text>
      <text stroke-linecap="butt" x="331.8384" y="413.6185" clip-path="url(#clipPath12)" font-family="sans-serif" stroke="none" stroke-miterlimit="1.45" xml:space="preserve">+rotate()</text>
      <line y2="421" fill="none" x1="327" clip-path="url(#clipPath12)" x2="425" y1="421"/>
      <rect x="261.8384" y="489.1013" clip-path="url(#clipPath2)" fill="white" width="100" height="63.566" stroke="none"/>
      <rect stroke-linecap="butt" x="261.8384" y="489.1013" clip-path="url(#clipPath2)" fill="none" width="100" height="63.566" stroke-miterlimit="1.45"/>
    </g>
    <g font-size="13px" stroke-linecap="butt" transform="matrix(0.5,0,0,0.5,-115.5,-66.5)" text-rendering="geometricPrecision" font-family="sans-serif" shape-rendering="geometricPrecision" font-weight="bold" stroke-miterlimit="1.45">
      <text x="272.1941" xml:space="preserve" y="506.6696" clip-path="url(#clipPath13)" stroke="none">FreeCamera</text>
    </g>
    <g text-rendering="geometricPrecision" shape-rendering="geometricPrecision" transform="matrix(0.5,0,0,0.5,-115.5,-66.5)">
      <line y2="514" fill="none" x1="262" clip-path="url(#clipPath13)" x2="360" y1="514"/>
      <text stroke-linecap="butt" x="266.8384" y="531.0134" clip-path="url(#clipPath13)" font-family="sans-serif" stroke="none" stroke-miterlimit="1.45" xml:space="preserve">+move()</text>
      <text stroke-linecap="butt" x="266.8384" y="545.1462" clip-path="url(#clipPath13)" font-family="sans-serif" stroke="none" stroke-miterlimit="1.45" xml:space="preserve">+rotate()</text>
      <line y2="552" fill="none" x1="262" clip-path="url(#clipPath13)" x2="360" y1="552"/>
      <rect x="391.8384" y="489.1013" clip-path="url(#clipPath2)" fill="white" width="100" height="63.566" stroke="none"/>
      <rect stroke-linecap="butt" x="391.8384" y="489.1013" clip-path="url(#clipPath2)" fill="none" width="100" height="63.566" stroke-miterlimit="1.45"/>
    </g>
    <g font-size="13px" stroke-linecap="butt" transform="matrix(0.5,0,0,0.5,-115.5,-66.5)" text-rendering="geometricPrecision" font-family="sans-serif" shape-rendering="geometricPrecision" font-weight="bold" stroke-miterlimit="1.45">
      <text x="393.6375" xml:space="preserve" y="506.6696" clip-path="url(#clipPath14)" stroke="none">SphereCamera</text>
    </g>
    <g text-rendering="geometricPrecision" shape-rendering="geometricPrecision" transform="matrix(0.5,0,0,0.5,-115.5,-66.5)">
      <line y2="514" fill="none" x1="392" clip-path="url(#clipPath14)" x2="490" y1="514"/>
      <text stroke-linecap="butt" x="396.8384" y="531.0134" clip-path="url(#clipPath14)" font-family="sans-serif" stroke="none" stroke-miterlimit="1.45" xml:space="preserve">+move()</text>
      <text stroke-linecap="butt" x="396.8384" y="545.1462" clip-path="url(#clipPath14)" font-family="sans-serif" stroke="none" stroke-miterlimit="1.45" xml:space="preserve">+rotate()</text>
      <line y2="552" fill="none" x1="392" clip-path="url(#clipPath14)" x2="490" y1="552"/>
      <rect x="507.4757" y="357.5736" clip-path="url(#clipPath2)" fill="white" width="100" height="26.5899" stroke="none"/>
      <rect stroke-linecap="butt" x="507.4757" y="357.5736" clip-path="url(#clipPath2)" fill="none" width="100" height="26.5899" stroke-miterlimit="1.45"/>
    </g>
    <g font-size="13px" stroke-linecap="butt" transform="matrix(0.5,0,0,0.5,-115.5,-66.5)" text-rendering="geometricPrecision" font-family="sans-serif" shape-rendering="geometricPrecision" font-weight="bold" stroke-miterlimit="1.45">
      <text x="518.0345" xml:space="preserve" y="375.1419" clip-path="url(#clipPath15)" stroke="none">LightSource</text>
    </g>
    <g fill="white" text-rendering="geometricPrecision" shape-rendering="geometricPrecision" transform="matrix(0.5,0,0,0.5,-115.5,-66.5)" stroke="white">
      <rect x="1427.3522" width="100" height="48" y="357.5736" clip-path="url(#clipPath2)" stroke="none"/>
    </g>
    <g text-rendering="geometricPrecision" stroke-miterlimit="1.45" shape-rendering="geometricPrecision" transform="matrix(0.5,0,0,0.5,-115.5,-66.5)" stroke-linecap="butt">
      <rect fill="none" x="1427.3522" width="100" height="48" y="357.5736" clip-path="url(#clipPath2)"/>
    </g>
    <g stroke-linecap="butt" font-size="13px" transform="matrix(0.5,0,0,0.5,-115.5,-66.5)" text-rendering="geometricPrecision" font-family="sans-serif" shape-rendering="geometricPrecision" font-style="italic" font-weight="bold" stroke-miterlimit="1.45">
      <text x="1436.5685" xml:space="preserve" y="375.1419" clip-path="url(#clipPath16)" stroke="none">SceneObject</text>
    </g>
    <g text-rendering="geometricPrecision" shape-rendering="geometricPrecision" transform="matrix(0.5,0,0,0.5,-115.5,-66.5)">
      <line y2="382" fill="none" x1="1428" clip-path="url(#clipPath16)" x2="1526" y1="382"/>
      <text stroke-linecap="butt" x="1432.3522" y="399.4857" clip-path="url(#clipPath16)" font-family="sans-serif" stroke="none" stroke-miterlimit="1.45" xml:space="preserve">+ SDF()</text>
      <line y2="407" fill="none" x1="1428" clip-path="url(#clipPath16)" x2="1526" y1="407"/>
      <rect x="1355.9047" y="496.8843" clip-path="url(#clipPath2)" fill="white" width="100" height="48" stroke="none"/>
      <rect stroke-linecap="butt" x="1355.9047" y="496.8843" clip-path="url(#clipPath2)" fill="none" width="100" height="48" stroke-miterlimit="1.45"/>
    </g>
    <g font-size="13px" stroke-linecap="butt" transform="matrix(0.5,0,0,0.5,-115.5,-66.5)" text-rendering="geometricPrecision" font-family="sans-serif" shape-rendering="geometricPrecision" font-weight="bold" stroke-miterlimit="1.45">
      <text x="1383.0437" xml:space="preserve" y="514.4526" clip-path="url(#clipPath17)" stroke="none">Sphere</text>
    </g>
    <g text-rendering="geometricPrecision" shape-rendering="geometricPrecision" transform="matrix(0.5,0,0,0.5,-115.5,-66.5)">
      <line y2="522" fill="none" x1="1356" clip-path="url(#clipPath17)" x2="1454" y1="522"/>
      <text stroke-linecap="butt" x="1360.9048" y="538.7964" clip-path="url(#clipPath17)" font-family="sans-serif" stroke="none" stroke-miterlimit="1.45" xml:space="preserve">+ SDF()</text>
      <line y2="546" fill="none" x1="1356" clip-path="url(#clipPath17)" x2="1454" y1="546"/>
      <rect x="1498.7996" y="496.8843" clip-path="url(#clipPath2)" fill="white" width="100" height="48" stroke="none"/>
      <rect stroke-linecap="butt" x="1498.7996" y="496.8843" clip-path="url(#clipPath2)" fill="none" width="100" height="48" stroke-miterlimit="1.45"/>
    </g>
    <g font-size="13px" stroke-linecap="butt" transform="matrix(0.5,0,0,0.5,-115.5,-66.5)" text-rendering="geometricPrecision" font-family="sans-serif" shape-rendering="geometricPrecision" font-weight="bold" stroke-miterlimit="1.45">
      <text x="1509.5837" xml:space="preserve" y="514.4526" clip-path="url(#clipPath18)" stroke="none">Mandelbulb</text>
    </g>
    <g text-rendering="geometricPrecision" shape-rendering="geometricPrecision" transform="matrix(0.5,0,0,0.5,-115.5,-66.5)">
      <line y2="522" fill="none" x1="1499" clip-path="url(#clipPath18)" x2="1597" y1="522"/>
      <text stroke-linecap="butt" x="1503.7996" y="538.7964" clip-path="url(#clipPath18)" font-family="sans-serif" stroke="none" stroke-miterlimit="1.45" xml:space="preserve">+ SDF()</text>
      <line y2="546" fill="none" x1="1499" clip-path="url(#clipPath18)" x2="1597" y1="546"/>
      <path fill="none" stroke-miterlimit="1.45" d="M597.1824 496.8884 L597.1824 464.4624 L787.1824 464.4624 L787.1824 446.8659" clip-path="url(#clipPath2)" stroke-linecap="butt"/>
    </g>
    <g stroke-linecap="butt" transform="matrix(0.5,0,0,0.5,-115.5,-66.5)" fill="white" text-rendering="geometricPrecision" shape-rendering="geometricPrecision" stroke="white" stroke-miterlimit="1.45">
      <path d="M787.1824 431.8659 L781.1824 447.8659 L793.1824 447.8659 Z" stroke="none" clip-path="url(#clipPath2)"/>
      <path fill="none" d="M787.1824 431.8659 L781.1824 447.8659 L793.1824 447.8659 Z" clip-path="url(#clipPath2)" stroke="black"/>
      <path fill="none" d="M787.1824 496.8729 L787.1824 485.3016 L787.1824 485.3016 L787.1824 446.8636" clip-path="url(#clipPath2)" stroke="black"/>
      <path d="M787.1824 431.8636 L781.1824 447.8636 L793.1824 447.8636 Z" clip-path="url(#clipPath2)" stroke="none"/>
      <path fill="none" d="M787.1824 431.8636 L781.1824 447.8636 L793.1824 447.8636 Z" clip-path="url(#clipPath2)" stroke="black"/>
      <path fill="none" d="M977.1824 496.8884 L977.1824 464.4624 L787.1824 464.4624 L787.1824 464.4624 L787.1824 446.8424" clip-path="url(#clipPath2)" stroke="black"/>
      <path d="M787.1824 431.8424 L781.1824 447.8424 L793.1824 447.8424 Z" clip-path="url(#clipPath2)" stroke="none"/>
      <path fill="none" d="M787.1824 431.8424 L781.1824 447.8424 L793.1824 447.8424 Z" clip-path="url(#clipPath2)" stroke="black"/>
      <path fill="none" d="M1205.9048 496.8868 L1205.9048 394.7053 L879.1587 394.7053" clip-path="url(#clipPath2)" stroke="black"/>
      <path fill="black" d="M872.1587 394.7053 L879.1587 389.7053 L886.1587 394.7053 L879.1587 399.7053 Z" clip-path="url(#clipPath2)" stroke="none"/>
      <path fill="none" d="M1205.9048 654.8525 L1205.9048 552.8586" clip-path="url(#clipPath2)" stroke="black"/>
      <path fill="black" d="M1205.9048 544.8586 L1200.9048 556.8586 L1205.9048 553.8586 L1210.9048 556.8586 Z" clip-path="url(#clipPath2)" stroke="none"/>
      <path fill="none" d="M1405.9048 654.9079 L1405.9048 596.0788 L1205.9048 596.0788 L1205.9048 552.8745" clip-path="url(#clipPath2)" stroke="black"/>
      <path fill="black" d="M1205.9048 544.8745 L1200.9048 556.8745 L1205.9048 553.8745 L1210.9048 556.8745 Z" clip-path="url(#clipPath2)" stroke="none"/>
      <path fill="none" d="M1005.9047 654.9079 L1005.9047 596.0788 L1205.9048 596.0788 L1205.9048 552.9005" clip-path="url(#clipPath2)" stroke="black"/>
      <path fill="black" d="M1205.9048 544.9005 L1200.9048 556.9005 L1205.9048 553.9005 L1210.9048 556.9005 Z" clip-path="url(#clipPath2)" stroke="none"/>
      <path fill="none" d="M787.1824 357.5559 L787.1824 306.1349 L785.6732 242.8876 L785.6732 242.8876 L795.274 242.8876" clip-path="url(#clipPath2)" stroke="black"/>
      <path fill="black" d="M802.274 242.8876 L795.274 247.8876 L788.274 242.8876 L795.274 237.8876 Z" clip-path="url(#clipPath2)" stroke="none"/>
      <path fill="none" d="M376.8384 357.566 L376.8384 222.2012 L731.345 222.2012 L795.2963 222.2012" clip-path="url(#clipPath2)" stroke="black"/>
      <path fill="black" d="M802.2963 222.2012 L795.2963 227.2012 L788.2963 222.2012 L795.2963 217.2012 Z" clip-path="url(#clipPath2)" stroke="none"/>
      <path fill="none" d="M311.8384 489.0817 L311.8384 465.5473 L376.8384 465.5473 L376.8384 436.1187" clip-path="url(#clipPath2)" stroke="black"/>
      <path d="M376.8384 421.1187 L370.8384 437.1187 L382.8384 437.1187 Z" clip-path="url(#clipPath2)" stroke="none"/>
      <path fill="none" d="M376.8384 421.1187 L370.8384 437.1187 L382.8384 437.1187 Z" clip-path="url(#clipPath2)" stroke="black"/>
      <path fill="none" d="M441.8384 489.0817 L441.8384 465.5473 L376.8384 465.5473 L376.8384 436.1647" clip-path="url(#clipPath2)" stroke="black"/>
      <path d="M376.8384 421.1647 L370.8384 437.1647 L382.8384 437.1647 Z" clip-path="url(#clipPath2)" stroke="none"/>
      <path fill="none" d="M376.8384 421.1647 L370.8384 437.1647 L382.8384 437.1647 Z" clip-path="url(#clipPath2)" stroke="black"/>
      <path fill="none" d="M557.4757 357.5778 L557.4757 230.9223 L795.2838 230.9223" clip-path="url(#clipPath2)" stroke="black"/>
      <path fill="black" d="M802.2838 230.9223 L795.2838 235.9223 L788.2838 230.9223 L795.2838 225.9223 Z" clip-path="url(#clipPath2)" stroke="none"/>
      <path fill="none" d="M1477.3522 357.5811 L1477.3522 197.8857 L1029.6227 197.8857 L909.3201 197.8857" clip-path="url(#clipPath2)" stroke="black"/>
      <path fill="black" d="M902.3201 197.8857 L909.3201 192.8857 L916.3201 197.8857 L909.3201 202.8857 Z" clip-path="url(#clipPath2)" stroke="none"/>
      <path fill="none" d="M1405.9048 496.8563 L1405.9048 475.0655 L1477.3522 475.0655 L1477.3522 420.6089" clip-path="url(#clipPath2)" stroke="black"/>
      <path d="M1477.3522 405.6089 L1471.3522 421.6089 L1483.3522 421.6089 Z" clip-path="url(#clipPath2)" stroke="none"/>
      <path fill="none" d="M1477.3522 405.6089 L1471.3522 421.6089 L1483.3522 421.6089 Z" clip-path="url(#clipPath2)" stroke="black"/>
      <path fill="none" d="M1548.7996 496.8563 L1548.7996 475.0655 L1477.3522 475.0655 L1477.3522 420.54" clip-path="url(#clipPath2)" stroke="black"/>
      <path d="M1477.3522 405.54 L1471.3522 421.54 L1483.3522 421.54 Z" clip-path="url(#clipPath2)" stroke="none"/>
      <path fill="none" d="M1477.3522 405.54 L1471.3522 421.54 L1483.3522 421.54 Z" clip-path="url(#clipPath2)" stroke="black"/>
    </g>
  </g>
</svg>
