<?xml version="1.0" standalone="no"?>
<!DOCTYPE svg PUBLIC "-//W3C//DTD SVG 20010904//EN"
 "http://www.w3.org/TR/2001/REC-SVG-20010904/DTD/svg10.dtd">
<svg version="1.0" xmlns="http://www.w3.org/2000/svg"
 width="800.000000pt" height="667.000000pt" viewBox="0 0 800.000000 667.000000"
 preserveAspectRatio="xMidYMid meet">

<g transform="translate(0.000000,667.000000) scale(0.100000,-0.100000)"
fill="#000000" stroke="none">
<path d="M5562 6098 c5 -15 28 -23 28 -10 0 5 -7 13 -16 16 -10 4 -14 1 -12
-6z"/>
<path d="M5681 5694 c-13 -13 -27 -21 -32 -18 -5 3 -10 -5 -10 -18 -2 -37 2
-52 17 -69 13 -15 10 -17 -33 -23 -26 -4 -58 -8 -70 -9 -13 -1 -23 -6 -23 -10
0 -5 -14 -22 -30 -37 -26 -24 -31 -26 -39 -13 -13 24 -61 9 -54 -17 5 -18 15
-24 36 -21 11 2 8 -11 -8 -39 -8 -14 -14 -36 -15 -49 0 -16 -4 -21 -15 -18
-21 9 -31 -14 -12 -28 20 -14 34 -65 18 -65 -6 0 -11 -4 -11 -10 0 -5 7 -10
15 -10 13 0 19 -12 16 -32 -3 -24 126 -127 163 -129 42 -2 -50 -18 -117 -20
-38 -2 -71 -7 -74 -12 -2 -4 -11 -3 -19 4 -9 7 -14 8 -14 1 0 -17 -34 -19 -47
-2 -11 13 -13 12 -19 -8 -4 -14 -12 -21 -20 -18 -7 3 -16 1 -19 -4 -9 -15 -25
-12 -25 4 0 19 -32 30 -42 14 -11 -19 -10 -28 5 -28 6 0 4 -5 -6 -11 -10 -6
-27 -9 -38 -6 -10 3 -19 2 -19 -2 0 -4 -15 -14 -33 -23 l-33 -16 4 28 c3 23
-1 30 -29 44 -38 19 -42 20 -34 5 4 -5 -1 -19 -10 -29 -16 -17 -15 -20 5 -40
18 -18 20 -24 9 -31 -15 -9 -28 -12 -42 -10 -4 1 -15 -5 -23 -14 -14 -13 -17
-13 -30 0 -22 21 -27 19 -22 -10 5 -25 -1 -29 -39 -28 -7 1 -13 -5 -13 -13 0
-8 -6 -14 -14 -14 -8 0 -16 -3 -18 -7 -4 -11 -78 -65 -78 -58 0 4 5 16 11 27
11 20 3 116 -8 104 -7 -6 -33 19 -33 32 0 10 -54 8 -88 -2 -14 -5 -21 -1 -25
14 -7 27 -45 27 -43 0 0 -12 7 -25 15 -29 11 -7 11 -13 -3 -32 -9 -13 -16 -31
-16 -41 0 -10 -4 -18 -10 -18 -5 0 -10 -4 -10 -10 0 -5 7 -10 15 -10 8 0 15
-8 15 -18 0 -25 74 -66 106 -58 13 4 24 5 24 3 0 -2 -21 -19 -47 -37 -27 -19
-51 -40 -56 -47 -4 -6 -15 -9 -24 -6 -11 4 -14 2 -9 -5 3 -6 -1 -20 -10 -31
-14 -15 -21 -17 -35 -8 -23 15 -36 1 -22 -22 13 -20 0 -41 -24 -41 -7 0 -12
-4 -11 -8 2 -4 -9 -22 -24 -40 -26 -31 -39 -40 -37 -24 3 19 -3 33 -23 52 -19
18 -24 18 -43 6 -15 -10 -26 -11 -33 -4 -6 6 -12 6 -17 -2 -4 -7 -3 -15 2 -19
6 -3 9 -17 8 -31 -2 -32 20 -53 56 -53 l29 0 -22 -26 c-13 -14 -26 -27 -30
-29 -5 -2 -8 -11 -8 -19 0 -9 -6 -13 -15 -10 -17 7 -30 -9 -16 -18 6 -3 2 -20
-10 -40 -20 -33 -21 -33 -39 -15 -16 16 -23 17 -43 7 -16 -7 -22 -17 -19 -29
6 -25 29 -41 47 -34 14 5 13 1 -2 -24 -9 -17 -20 -30 -24 -30 -4 0 -9 -14 -13
-30 -5 -26 -9 -29 -24 -21 -10 5 -24 6 -30 2 -16 -10 -5 -41 14 -41 17 0 17 0
-1 -43 -10 -24 -20 -35 -29 -31 -20 8 -32 -17 -14 -30 19 -14 6 -56 -17 -56
-8 0 -15 -4 -15 -10 0 -5 5 -10 11 -10 11 0 2 -43 -11 -48 -4 -1 -5 -14 -2
-27 2 -14 0 -25 -6 -25 -6 0 -8 -9 -5 -20 3 -11 1 -20 -3 -20 -5 0 -9 -10 -10
-22 -2 -41 -36 -293 -40 -297 -2 -2 -4 7 -4 22 0 43 -47 178 -80 230 -16 26
-30 52 -30 56 0 5 -7 11 -15 15 -8 3 -12 12 -9 21 5 11 2 14 -9 9 -11 -4 -18
2 -22 18 -3 13 -19 29 -36 37 -23 10 -28 17 -23 34 5 16 3 19 -10 14 -26 -10
-72 24 -68 51 4 25 -15 30 -25 7 -5 -14 -8 -14 -27 -2 -11 8 -33 17 -49 21
-22 5 -26 10 -18 24 4 9 6 24 2 33 -8 21 -51 7 -51 -17 0 -13 -6 -15 -27 -9
-15 3 -31 12 -35 18 -5 8 -11 8 -15 2 -5 -5 -28 -8 -53 -5 -28 3 -40 8 -32 13
16 11 15 47 -3 71 -13 17 -15 17 -41 -7 -25 -23 -26 -29 -16 -53 l13 -26 -41
4 c-22 2 -40 0 -40 -4 0 -14 -21 -9 -38 9 -16 16 -17 15 -20 -5 -2 -12 -10
-23 -18 -23 -22 -2 -26 -4 -78 -27 -60 -27 -58 -27 -45 1 8 19 7 31 -8 58 -15
29 -23 34 -51 33 -22 -1 -32 3 -32 13 0 8 -6 13 -12 10 -7 -2 -13 -13 -13 -25
0 -12 -7 -30 -16 -40 -11 -13 -14 -24 -7 -36 5 -9 6 -16 2 -16 -16 0 30 -39
53 -45 l26 -6 -34 -24 c-19 -13 -41 -30 -49 -37 -8 -7 -21 -13 -30 -13 -8 -1
-14 -7 -12 -14 1 -7 -8 -26 -22 -41 -18 -22 -25 -26 -30 -15 -8 23 -55 15 -53
-9 1 -10 9 -21 19 -24 20 -5 23 -17 7 -27 -5 -4 -14 -18 -19 -31 -6 -15 -18
-24 -31 -24 -18 0 -19 -3 -9 -15 12 -14 5 -55 -10 -55 -4 0 -6 -9 -3 -20 3
-11 1 -20 -4 -20 -5 0 -9 -8 -10 -17 0 -10 -4 -47 -8 -82 -7 -54 -10 -61 -17
-40 -11 30 -67 89 -85 89 -7 0 -13 4 -13 9 0 5 -9 7 -21 4 -12 -4 -25 0 -30 8
-6 9 -12 10 -16 4 -5 -6 -20 -16 -35 -22 -21 -10 -27 -9 -32 3 -9 23 -29 17
-23 -8 4 -14 0 -27 -12 -37 -10 -9 -24 -34 -31 -56 -7 -22 -15 -34 -17 -27 -7
18 -47 15 -59 -6 -9 -14 -9 -22 1 -35 14 -20 51 -23 58 -4 2 6 10 -6 17 -28 7
-22 21 -47 31 -56 12 -10 16 -23 12 -37 -6 -25 14 -31 23 -8 5 12 11 13 32 3
15 -6 30 -16 34 -22 5 -6 11 -5 17 4 5 8 18 12 30 8 12 -3 21 -1 21 4 0 5 6 9
13 9 18 0 74 59 85 89 7 21 10 14 17 -40 4 -35 8 -72 8 -81 1 -10 5 -18 10
-18 5 0 7 -9 4 -20 -3 -11 -1 -20 3 -20 15 0 22 -41 10 -55 -10 -12 -9 -15 9
-15 13 0 25 -9 31 -24 5 -13 14 -27 19 -31 16 -10 13 -22 -7 -27 -10 -3 -18
-14 -19 -24 -2 -24 45 -32 53 -9 5 11 12 7 30 -15 14 -15 23 -34 22 -41 -2 -7
4 -13 12 -14 9 0 22 -6 30 -13 8 -7 30 -24 49 -37 l34 -24 -26 -6 c-23 -6 -69
-45 -53 -45 4 0 3 -7 -2 -16 -7 -12 -4 -23 7 -36 9 -10 16 -28 16 -40 0 -12 6
-23 13 -25 6 -3 12 2 12 10 0 10 10 14 32 13 28 -1 36 4 51 33 15 27 16 39 8
58 -13 28 -15 28 45 1 52 -23 56 -25 78 -27 8 0 16 -11 18 -23 3 -20 4 -21 20
-5 17 18 38 23 38 9 0 -4 18 -6 40 -4 l41 4 -13 -26 c-10 -24 -9 -30 16 -53
26 -24 28 -24 41 -7 18 24 19 60 3 71 -8 5 4 10 32 13 25 3 48 1 53 -5 4 -6
10 -6 15 2 4 6 20 15 35 18 21 6 27 4 27 -9 0 -24 43 -38 51 -17 4 9 2 24 -2
33 -8 14 -4 19 18 24 16 4 38 13 49 21 19 12 22 12 27 -2 10 -23 29 -18 25 8
-4 26 42 60 68 50 13 -5 15 -2 10 14 -5 17 0 24 23 34 17 8 33 24 36 37 4 16
11 22 22 18 11 -5 14 -2 9 9 -3 9 1 18 9 21 8 4 15 10 15 15 0 4 14 30 30 56
33 52 80 187 80 230 0 15 2 24 4 22 4 -4 38 -256 40 -296 1 -13 5 -23 10 -23
4 0 6 -9 3 -20 -3 -11 -1 -20 5 -20 6 0 8 -11 6 -25 -3 -13 -2 -26 2 -27 13
-5 22 -48 11 -48 -6 0 -11 -4 -11 -10 0 -5 7 -10 15 -10 23 0 36 -42 17 -56
-18 -13 -6 -38 14 -30 9 4 19 -7 29 -31 18 -43 18 -43 1 -43 -19 0 -30 -31
-14 -41 6 -4 20 -3 30 2 15 8 19 5 24 -21 4 -16 9 -30 13 -30 4 0 14 -13 24
-29 16 -28 16 -29 -1 -24 -18 4 -34 -9 -44 -37 -4 -10 3 -20 19 -27 20 -10 27
-9 43 7 18 18 19 18 39 -15 12 -20 16 -37 10 -40 -14 -9 -1 -25 16 -18 9 3 15
-1 15 -10 0 -8 3 -17 8 -19 4 -2 17 -15 30 -29 l22 -26 -29 0 c-36 0 -58 -21
-56 -53 1 -14 -3 -28 -9 -32 -8 -5 -8 -10 0 -18 8 -8 14 -9 18 -1 5 7 14 6 30
-4 20 -14 24 -13 44 5 20 19 26 33 23 53 -2 15 11 6 37 -25 15 -18 26 -36 25
-40 -2 -4 3 -8 10 -8 24 0 37 -21 24 -41 -14 -23 -1 -37 22 -22 14 9 21 7 35
-8 9 -11 13 -25 10 -31 -5 -7 -2 -9 9 -5 9 3 20 0 24 -6 5 -7 26 -26 48 -42
59 -43 63 -47 33 -40 -34 9 -108 -30 -108 -57 0 -10 -7 -18 -15 -18 -8 0 -15
-4 -15 -10 0 -5 5 -10 10 -10 6 0 10 -8 10 -18 0 -10 7 -28 16 -41 14 -19 14
-25 3 -32 -8 -4 -15 -17 -15 -29 -2 -27 36 -27 43 0 4 15 11 19 25 14 34 -10
88 -12 88 -2 0 13 26 38 33 32 11 -12 19 84 8 104 -6 11 -11 23 -11 27 0 7 74
-47 78 -57 2 -5 10 -8 18 -8 8 0 14 -6 14 -14 0 -8 6 -14 13 -13 38 1 44 -3
39 -28 -5 -29 0 -31 22 -10 13 13 16 13 30 0 8 -9 19 -15 23 -14 14 2 27 -1
42 -10 11 -7 9 -13 -9 -31 -20 -20 -21 -23 -5 -40 9 -10 14 -24 10 -29 -8 -15
-4 -14 34 5 28 14 32 21 29 44 l-4 28 33 -16 c18 -9 33 -19 33 -23 0 -4 9 -5
19 -2 11 3 28 0 38 -6 10 -6 12 -11 6 -11 -15 0 -16 -9 -5 -28 10 -16 42 -5
42 14 0 16 16 19 25 4 3 -5 12 -7 19 -4 8 3 16 -4 20 -18 6 -20 8 -21 19 -8
13 17 47 15 47 -2 0 -7 5 -6 14 1 8 7 17 8 19 4 3 -5 36 -10 74 -12 67 -2 159
-18 117 -20 -37 -2 -166 -105 -163 -129 3 -20 -3 -32 -16 -32 -8 0 -15 -4 -15
-10 0 -5 5 -10 11 -10 16 0 2 -51 -18 -65 -19 -14 -9 -37 12 -28 11 3 15 -2
15 -18 1 -13 7 -35 15 -49 16 -28 19 -41 8 -39 -21 3 -31 -3 -36 -21 -7 -26
41 -41 54 -17 8 13 13 11 39 -13 16 -15 30 -32 30 -37 0 -4 10 -9 23 -10 12
-1 44 -5 70 -9 43 -6 46 -8 33 -23 -15 -17 -19 -32 -17 -69 0 -13 5 -21 10
-18 5 3 20 -6 35 -20 24 -25 26 -25 33 -8 4 11 14 25 24 31 22 17 19 71 -6 89
-17 13 -16 15 16 26 19 6 36 10 38 9 2 -2 8 5 13 14 6 10 16 14 30 9 13 -4 18
-2 14 5 -4 6 3 24 15 41 17 22 26 27 35 19 7 -6 22 -8 34 -4 16 5 18 10 10 26
-6 10 -17 19 -24 19 -10 0 -10 10 -2 49 5 28 14 49 19 48 5 -1 12 4 14 11 3 6
-2 12 -11 12 -9 0 -17 9 -17 20 -1 11 -2 26 -3 33 -1 6 -7 18 -14 26 -7 7 -11
20 -8 27 3 8 1 14 -5 14 -6 0 -22 14 -36 30 -26 31 -68 57 -113 70 -20 6 -15
8 30 14 30 4 79 8 108 10 30 3 56 7 59 10 4 3 12 1 20 -5 9 -8 13 -8 13 -1 0
21 41 25 55 5 14 -17 14 -17 15 2 0 14 10 23 35 31 28 9 35 8 35 -2 0 -7 9
-18 19 -23 15 -8 20 -7 25 5 4 9 2 22 -4 29 -8 10 -3 15 19 23 22 8 31 7 35
-1 2 -7 5 -5 5 4 1 9 9 19 19 22 9 2 25 8 35 12 13 5 17 2 17 -13 0 -36 11
-52 36 -52 13 0 24 -4 24 -10 0 -5 5 -10 10 -10 6 0 10 11 10 24 0 14 5 28 10
31 15 9 -6 42 -32 51 -20 6 -19 8 13 22 19 8 40 14 48 13 7 -1 11 2 8 6 -3 5
3 14 13 21 14 9 19 8 24 -3 3 -8 12 -15 21 -15 17 0 20 25 4 35 -16 11 26 36
47 28 14 -5 16 -3 11 11 -4 11 -1 19 11 23 9 4 19 9 22 12 3 3 25 24 49 46 33
30 40 34 31 16 -15 -30 -7 -101 14 -113 8 -5 13 -15 10 -22 -3 -8 1 -14 8 -13
37 1 48 -4 48 -25 1 -21 2 -22 14 -5 7 9 22 17 32 17 11 0 30 7 43 16 22 16
24 16 33 1 5 -10 19 -16 33 -15 14 1 25 3 25 5 0 18 -23 53 -35 53 -13 0 -14
4 -4 21 6 12 9 32 6 45 -2 13 0 24 4 24 5 0 9 5 9 10 0 6 -7 10 -15 10 -8 0
-17 11 -21 25 -3 13 -9 23 -13 22 -3 -1 -21 4 -39 12 -25 11 -42 11 -67 4
l-34 -11 42 49 c23 27 45 49 48 49 4 0 9 9 12 20 4 14 10 18 23 13 13 -5 16
-3 11 10 -6 17 10 67 23 67 3 0 10 -4 16 -9 5 -5 18 -6 28 -2 19 7 19 8 -2 29
-19 19 -20 25 -10 42 7 11 19 20 27 20 10 0 11 3 2 13 -6 8 -7 18 -2 23 5 5
14 27 21 48 l13 39 13 -25 c14 -28 40 -42 56 -32 6 4 14 0 19 -7 6 -10 9 -11
9 -1 0 17 34 49 47 45 6 -2 14 1 18 7 4 7 -2 14 -13 17 -12 3 -23 16 -27 32
-5 22 -12 27 -41 29 -20 2 -43 -3 -51 -10 -17 -14 -17 -16 2 49 3 12 8 31 10
43 2 12 12 28 22 35 17 13 17 14 1 20 -10 4 -15 12 -11 18 4 6 6 29 4 52 -2
32 0 38 10 28 19 -19 56 -16 63 5 3 9 9 23 12 31 4 8 2 11 -4 7 -6 -3 -15 1
-20 11 -9 15 -14 15 -37 5 l-28 -13 5 46 c3 25 2 45 -2 45 -4 0 -10 14 -12 30
-3 18 0 30 6 29 25 -3 34 2 39 20 4 17 0 19 -29 16 -28 -2 -34 0 -34 17 0 10
-5 28 -10 39 -8 15 -7 23 5 35 20 21 19 27 -5 21 -14 -4 -23 3 -34 24 -8 16
-10 29 -5 29 5 0 9 5 9 10 0 6 -9 10 -20 10 -19 0 -24 9 -21 36 1 7 -8 14 -20
17 -12 3 -18 10 -14 16 3 6 1 11 -5 11 -5 0 -24 13 -41 30 -17 16 -52 40 -78
52 l-46 23 46 23 c25 12 60 36 77 52 18 17 37 30 42 30 6 0 8 5 5 11 -4 6 2
13 14 16 12 3 21 10 20 17 -3 27 2 36 21 36 11 0 20 5 20 10 0 6 -4 10 -9 10
-5 0 -3 13 5 29 11 21 20 28 34 24 24 -6 25 0 5 21 -12 12 -13 20 -5 35 5 11
10 29 10 39 0 17 6 19 34 17 29 -3 33 -1 29 16 -5 18 -14 23 -39 20 -6 -1 -9
11 -6 29 2 16 8 30 12 30 4 0 5 20 2 45 l-5 46 28 -13 c23 -10 28 -10 37 5 5
10 14 14 20 11 6 -4 8 -1 4 7 -3 8 -9 22 -12 32 -7 20 -44 23 -63 5 -10 -11
-12 -5 -10 27 2 23 0 46 -4 52 -4 6 1 14 11 18 16 6 16 7 -1 20 -10 7 -20 23
-22 35 -4 22 -8 35 -21 80 -6 22 -5 23 9 12 8 -7 31 -12 51 -10 29 2 36 7 41
29 4 16 15 29 27 32 11 3 17 10 13 17 -4 6 -12 9 -18 7 -13 -4 -47 28 -47 46
0 9 -3 8 -9 -2 -5 -7 -13 -11 -19 -7 -16 10 -42 -4 -56 -32 l-13 -25 -13 39
c-7 21 -16 44 -21 50 -5 6 -3 16 3 22 9 9 9 12 -3 12 -8 0 -20 9 -27 20 -10
17 -9 23 10 42 21 21 21 22 2 29 -10 4 -23 3 -28 -2 -6 -5 -13 -9 -16 -9 -13
0 -29 50 -23 67 5 13 2 15 -11 10 -13 -5 -19 -1 -23 13 -3 11 -8 20 -12 20 -3
0 -25 22 -48 49 l-42 49 34 -11 c25 -7 42 -7 67 4 18 8 36 13 39 12 4 -1 10 9
13 22 4 14 13 25 21 25 8 0 15 5 15 10 0 6 -4 10 -9 10 -4 0 -6 11 -4 24 3 13
0 33 -6 45 -10 17 -9 21 4 21 12 0 35 35 35 53 0 2 -11 4 -25 5 -14 1 -28 -5
-33 -15 -9 -15 -11 -15 -33 1 -13 9 -32 16 -43 16 -10 0 -25 8 -32 18 -12 16
-13 15 -14 -5 0 -22 -11 -27 -48 -26 -7 1 -11 -5 -8 -13 3 -7 -2 -17 -10 -22
-21 -12 -29 -83 -14 -113 9 -18 2 -14 -31 16 -24 22 -46 43 -49 46 -3 3 -13 8
-22 12 -12 4 -15 12 -11 23 5 14 3 16 -11 11 -21 -8 -63 17 -47 28 16 10 13
35 -4 35 -9 0 -18 -7 -21 -15 -5 -11 -10 -12 -24 -3 -10 7 -16 16 -13 21 3 4
-1 7 -8 6 -8 -1 -29 5 -48 13 -32 14 -33 16 -13 22 26 9 47 42 32 51 -5 3 -10
17 -10 31 0 13 -4 24 -10 24 -5 0 -10 -4 -10 -10 0 -5 -11 -10 -24 -10 -25 0
-36 -16 -36 -52 0 -15 -4 -18 -17 -13 -10 4 -26 10 -35 12 -10 3 -18 13 -19
22 0 9 -3 11 -5 4 -4 -8 -13 -9 -35 -1 -22 8 -27 13 -19 23 6 7 8 20 4 29 -5
12 -10 13 -25 5 -10 -5 -19 -16 -19 -23 0 -10 -7 -11 -35 -2 -25 8 -35 17 -35
31 -1 19 -1 19 -15 2 -14 -20 -55 -16 -55 5 0 7 -4 7 -13 -1 -8 -6 -17 -8 -20
-5 -3 3 -30 8 -59 10 -125 10 -164 16 -138 24 45 13 87 39 113 70 14 16 30 30
36 30 6 0 8 6 5 14 -3 7 1 20 8 27 7 8 13 20 14 27 1 6 2 21 3 32 0 11 8 20
17 20 9 0 14 6 11 13 -2 6 -9 11 -14 10 -5 -1 -14 20 -19 48 -8 39 -8 49 2 49
7 0 18 9 24 19 8 16 6 21 -10 26 -12 4 -27 2 -34 -4 -9 -8 -18 -3 -35 19 -12
17 -19 35 -15 41 4 7 -1 9 -14 5 -14 -5 -24 -1 -30 9 -5 9 -11 16 -13 14 -2
-1 -19 3 -38 9 -32 11 -33 13 -16 26 26 19 28 74 4 89 -10 6 -19 17 -19 24 0
22 -16 21 -39 -3z"/>
<path d="M1282 3352 l-24 -18 27 -18 c35 -23 57 -14 53 21 -4 34 -25 39 -56
15z"/>
<path d="M5567 583 c-12 -12 -7 -22 8 -17 8 4 15 10 15 15 0 11 -14 12 -23 2z"/>
</g>
</svg>
