<?xml version="1.0" encoding="utf-8"?>
<!-- Generator: Adobe Illustrator 24.1.2, SVG Export Plug-In . SVG Version: 6.00 Build 0)  -->
<svg version="1.1" id="Слой_1" xmlns="http://www.w3.org/2000/svg" xmlns:xlink="http://www.w3.org/1999/xlink" x="0px" y="0px"
	 viewBox="0 0 533.9 423" style="enable-background:new 0 0 533.9 423;" xml:space="preserve">
<style type="text/css">
	.st0{fill:none;stroke:#000000;stroke-width:0.332;stroke-miterlimit:1;}
	.st1{fill:none;stroke:#000000;stroke-width:0.332;stroke-miterlimit:1;stroke-dasharray:0.664,0.664;}
	.st2{fill:none;stroke:#000000;stroke-width:0.332;stroke-miterlimit:1;stroke-dasharray:5.315,5.315;}
	.st3{fill:none;stroke:#000000;stroke-width:0.997;stroke-miterlimit:1;}
	.st4{fill:none;stroke:#000000;stroke-width:0.664;stroke-miterlimit:1;stroke-dasharray:1.329,1.329;}
	.st5{fill:none;stroke:#000000;stroke-width:0.664;stroke-miterlimit:1;}
	.st6{fill:none;stroke:#000000;stroke-width:0.332;stroke-miterlimit:1;stroke-dasharray:1.329,1.329;}
	.st7{fill:none;}
</style>
<line class="st0" x1="0" y1="15" x2="52.6" y2="15"/>
<polyline points="60.2,15 52.6,18 52.6,12 "/>
<line class="st1" x1="0" y1="47" x2="52.6" y2="47"/>
<polyline points="60.2,47 52.6,50 52.6,44 "/>
<line class="st2" x1="0.9" y1="97.9" x2="53.6" y2="97.9"/>
<polyline points="61.1,97.9 53.6,100.9 53.6,94.9 "/>
<path class="st3" d="M510.8,119c0,16.5-13.1,29.9-29.1,29.9s-29.1-13.4-29.1-29.9s13.1-29.9,29.1-29.9S510.8,102.5,510.8,119"/>
<path class="st3" d="M391.6,361.7c0,33.6-26.5,60.9-59.2,60.9s-59.2-27.3-59.2-60.9s26.5-60.9,59.2-60.9S391.6,328,391.6,361.7"/>
<line class="st4" x1="213.5" y1="155.7" x2="213.5" y2="338.4"/>
<path class="st3" d="M533.4,258.7c0,22.6-18.1,40.9-40.4,40.9c-22.3,0-40.4-18.3-40.4-40.9s18.1-40.9,40.4-40.9
	C515.3,217.8,533.4,236.2,533.4,258.7"/>
<line class="st0" x1="452.8" y1="137.8" x2="458.8" y2="232.6"/>
<polyline points="452.3,129.8 455.6,137.6 450,138 "/>
<line class="st0" x1="452.1" y1="236.2" x2="332.9" y2="300.5"/>
<polyline points="458.8,232.6 453.4,238.9 450.9,233.5 "/>
<line class="st0" x1="325.7" y1="298.1" x2="157.1" y2="243.6"/>
<polyline points="332.9,300.5 324.9,301 326.5,295.3 "/>
<line class="st0" x1="109.2" y1="241.6" x2="140.2" y2="228.6"/>
<line class="st0" x1="109.2" y1="241.6" x2="140.2" y2="254.5"/>
<path d="M148.5,240.7c0,4.4-1.3,8-2.8,8c-1.6,0-2.8-3.6-2.8-8s1.3-8,2.8-8S148.5,236.3,148.5,240.7"/>
<path class="st0" d="M148.5,240.7c0,4.4-1.3,8-2.8,8c-1.6,0-2.8-3.6-2.8-8s1.3-8,2.8-8S148.5,236.3,148.5,240.7"/>
<path class="st0" d="M140.2,228.6c6.9-3.3,10.3-8.3,10.3-15"/>
<path class="st0" d="M140.2,228.6c3.8-6.7,3.8-11.6,0-15"/>
<path class="st0" d="M140.2,254.5c6.9,2.7,10.3,7,10.3,13"/>
<path class="st0" d="M140.2,254.5c3.8,5.3,3.8,9.7,0,13"/>
<path class="st0" d="M140.2,228.6c6.9,0,11.6-3.3,14.1-10"/>
<path class="st0" d="M140.2,254.5c6.9,0,11.6,2.7,14.1,8"/>
<path class="st0" d="M144.3,241.5c0,7.2-1.3,13-2.8,13s-2.8-5.8-2.8-13s1.3-13,2.8-13S144.3,234.3,144.3,241.5"/>
<path class="st5" d="M329.1,132.8c0-7.3-0.6-15.5-1.9-24.5s-5.8-18.3-13.6-27.9s-5.5-16.1,7-19.5c12.5-3.3,24.7-3.7,36.7-1
	c11.9,2.7,14.3,9.2,7,19.5c-7.2,10.3-11.6,20-13.2,28.9c-1.6,9-1.9,17.1-0.9,24.5c0.9,7.3-2.4,11-9.9,11
	C332.9,143.8,329.1,140.1,329.1,132.8z"/>
<path class="st5" d="M329.1,121.8c6.9,1.3,13.8,1.3,20.7,0"/>
<path class="st5" d="M329.1,127.8c6.9,1.3,13.8,1.3,20.7,0"/>
<path class="st5" d="M329.1,133.8c6.9,1.3,13.8,1,20.7-1"/>
<path class="st5" d="M331,138.8c5.6,2,12.2,1.3,19.7-2"/>
<line class="st3" x1="316.9" y1="98.9" x2="315.5" y2="100.4"/>
<polyline points="307.5,108.8 312.2,96.8 318.8,103.9 "/>
<line class="st3" x1="308.5" y1="84.9" x2="306.8" y2="85.6"/>
<polyline points="296.2,89.9 305.1,80.9 308.5,90.2 "/>
<line class="st3" x1="304.7" y1="66.9" x2="302.7" y2="66.6"/>
<polyline points="291.5,64.9 303.4,61.7 302,71.6 "/>
<line class="st3" x1="319.7" y1="53.9" x2="318.8" y2="51.8"/>
<polyline points="314.1,41 323.1,49.8 314.6,53.9 "/>
<line class="st3" x1="333.8" y1="53.9" x2="333.6" y2="51.8"/>
<polyline points="332,40 338.2,51.1 328.9,52.5 "/>
<line class="st3" x1="350.8" y1="52" x2="350.9" y2="50.8"/>
<polyline points="352.6,39 355.6,51.6 346.3,50.1 "/>
<line class="st3" x1="364.8" y1="55.9" x2="366.5" y2="53.2"/>
<polyline points="372.4,43 370.5,55.8 362.5,50.6 "/>
<line class="st3" x1="378.9" y1="66.9" x2="379.3" y2="66.8"/>
<polyline points="390.2,63.9 380.4,71.7 378.1,62 "/>
<line class="st3" x1="369.5" y1="82.9" x2="371.5" y2="83.9"/>
<polyline points="381.8,88.9 369.6,88.4 373.5,79.3 "/>
<line class="st5" x1="359.2" y1="97.9" x2="364.5" y2="101.4"/>
<polyline points="372.4,106.8 362.4,104.8 366.5,98.1 "/>
<line class="st5" x1="343.2" y1="122.8" x2="348.9" y2="88.9"/>
<polyline class="st5" points="335.7,121.8 328.2,88.9 328.2,87.9 "/>
<path class="st5" d="M328.2,88.9c1.9-4.7,3-5.3,3.3-2s0.6,3,0.9-1s0.6-4.2,0.9-0.5s0.8,4,1.4,1s0.9-3.2,0.9-0.5s0.6,2.3,1.9-1
	s2-3.2,2.4,0.5c0.3,3.7,0.6,3.7,0.9,0s0.8-3.8,1.4-0.5s1.3,3.2,1.9-0.5s1.1-3.7,1.4,0s0.6,3.8,0.9,0.5s1.1-2,2.4,4"/>
<line class="st5" x1="333.8" y1="110.8" x2="334.8" y2="110.8"/>
<line class="st0" x1="456" y1="133.8" x2="383.9" y2="99.2"/>
<polyline points="377.1,95.9 385.1,96.4 382.8,101.9 "/>
<line class="st6" x1="458.8" y1="230.6" x2="362.6" y2="124.6"/>
<polyline points="357.3,118.8 364.6,122.5 360.5,126.6 "/>
<line class="st6" x1="455.1" y1="134.8" x2="372.1" y2="112.8"/>
<polyline points="364.8,110.8 372.8,109.9 371.5,115.7 "/>
<line class="st2" x1="334.8" y1="298.5" x2="345.5" y2="154.7"/>
<polyline points="346.1,146.8 348.3,155 342.6,154.5 "/>
<path class="st3" d="M356.4,238.5c0,12.1-8.8,22-19.7,22c-10.9,0-19.7-9.8-19.7-22c0-12.1,8.8-22,19.7-22S356.4,226.3,356.4,238.5"
	/>
<g>
	<path d="M116.8,344.4c1.9,0,3.6,0.8,5.1,2.4c1.4,1.6,2.1,3.5,2.1,5.9s-0.7,4.4-2.2,6c-1.4,1.6-3.2,2.4-5.2,2.4
		c-2.1,0-3.8-0.8-5.2-2.3s-2.1-3.6-2.1-6c0-2.5,0.8-4.6,2.4-6.2C113.1,345.1,114.8,344.4,116.8,344.4z M116.6,345.3
		c-1.3,0-2.4,0.5-3.2,1.6c-1,1.3-1.5,3.2-1.5,5.8c0,2.6,0.5,4.6,1.6,6c0.8,1.1,1.9,1.6,3.2,1.6c1.4,0,2.6-0.6,3.5-1.7s1.4-3,1.4-5.5
		c0-2.7-0.5-4.8-1.5-6.1C119.1,345.8,118,345.3,116.6,345.3z"/>
	<path d="M135.7,360.7h-3c-0.9-1.4-1.8-2.9-2.5-4.4c-0.2-0.3-0.3-0.6-0.5-0.8c-0.1-0.2-0.3-0.3-0.6-0.3c-0.1,0-0.2,0-0.4,0v2.9
		c0,0.8,0,1.3,0.1,1.5s0.2,0.4,0.5,0.5s0.6,0.1,1.1,0.1v0.4h-5.1v-0.4c0.7,0,1.1-0.1,1.3-0.4c0.2-0.3,0.3-0.8,0.3-1.7v-5.7
		c0-0.8,0-1.3-0.1-1.5s-0.2-0.3-0.4-0.4c-0.2-0.1-0.5-0.2-1-0.2V350h5.1v0.4c-0.6,0-1,0-1.1,0.1s-0.3,0.2-0.4,0.3
		c-0.1,0.1-0.2,0.7-0.2,1.6v2.1c0.2,0,0.3,0,0.3,0c0.4,0,0.9-0.1,1.3-0.4c0.4-0.3,0.7-0.8,1.1-1.7c0.3-0.8,0.5-1.4,0.7-1.7
		c0.2-0.3,0.4-0.5,0.8-0.7c0.3-0.2,0.7-0.3,1.1-0.3c0.4,0,0.7,0.1,1,0.3s0.4,0.5,0.4,0.8s-0.1,0.5-0.3,0.7s-0.4,0.3-0.7,0.3
		c-0.2,0-0.4,0-0.6-0.1c-0.3-0.1-0.5-0.2-0.7-0.2c-0.3,0-0.6,0.3-0.8,0.9c-0.3,0.7-0.4,1.2-0.6,1.4c-0.1,0.2-0.3,0.5-0.7,0.8
		c0.2,0.1,0.5,0.3,0.7,0.5c0.3,0.3,0.8,1.1,1.5,2.5c0.6,1.1,1,1.8,1.3,2.1c0.3,0.3,0.7,0.4,1.3,0.5v0.5H135.7z"/>
	<path d="M139.7,354.8h4.4v-2.3c0-0.7,0-1.1-0.1-1.3c-0.1-0.2-0.2-0.4-0.4-0.5s-0.6-0.2-1.1-0.2V350h4.9v0.4c-0.5,0-0.8,0.1-1,0.2
		s-0.4,0.3-0.4,0.5c-0.1,0.2-0.1,0.7-0.1,1.4v5.7c0,0.7,0,1.1,0.1,1.3c0.1,0.2,0.2,0.4,0.4,0.5s0.6,0.2,1,0.2v0.4h-4.9v-0.4
		c0.6,0,1-0.1,1.2-0.4c0.2-0.2,0.3-0.8,0.3-1.7v-2.7h-4.4v2.7c0,0.7,0,1.1,0.1,1.3c0.1,0.2,0.2,0.4,0.4,0.5s0.6,0.2,1.1,0.2v0.4
		h-4.9v-0.4c0.7,0,1.1-0.1,1.3-0.4s0.3-0.8,0.3-1.7v-5.7c0-0.7,0-1.1-0.1-1.3c-0.1-0.2-0.2-0.4-0.4-0.5s-0.6-0.2-1.1-0.2V350h4.9
		v0.4c-0.5,0-0.8,0.1-1,0.2s-0.4,0.3-0.4,0.5c-0.1,0.2-0.1,0.7-0.1,1.4V354.8z"/>
	<path d="M153.6,349.7c1.5,0,2.8,0.6,3.7,1.9c0.8,1.1,1.2,2.3,1.2,3.6c0,1-0.2,1.9-0.7,2.9c-0.4,1-1,1.7-1.8,2.2s-1.6,0.8-2.5,0.8
		c-1.5,0-2.7-0.6-3.6-1.9c-0.8-1.1-1.1-2.3-1.1-3.7c0-1,0.2-2,0.7-2.9c0.5-1,1.1-1.7,1.8-2.2C152,349.9,152.8,349.7,153.6,349.7z
		 M153.3,350.4c-0.4,0-0.8,0.1-1.2,0.4c-0.4,0.2-0.7,0.7-1,1.3s-0.4,1.4-0.4,2.4c0,1.6,0.3,2.9,0.9,4c0.6,1.1,1.4,1.7,2.3,1.7
		c0.7,0,1.3-0.3,1.8-0.9s0.7-1.7,0.7-3.2c0-1.9-0.4-3.4-1.2-4.5C154.7,350.8,154.1,350.4,153.3,350.4z"/>
	<path d="M173.2,350.7h-4.4v7.5c0,0.8,0,1.3,0.1,1.5s0.2,0.3,0.4,0.4s0.5,0.2,1,0.2v0.4h-4.9v-0.4c0.7,0,1.1-0.1,1.3-0.4
		s0.3-0.8,0.3-1.7v-5.7c0-0.8,0-1.3-0.1-1.5s-0.2-0.3-0.4-0.4s-0.5-0.2-1-0.2V350h11.1v0.4c-0.5,0-0.8,0.1-1,0.2s-0.3,0.2-0.4,0.4
		s-0.1,0.7-0.1,1.5v5.7c0,0.8,0,1.3,0.1,1.5s0.2,0.3,0.4,0.4s0.5,0.2,1,0.2v0.4h-4.9v-0.4c0.6,0,1-0.1,1.2-0.4
		c0.2-0.2,0.3-0.8,0.3-1.7L173.2,350.7L173.2,350.7z"/>
	<path d="M177,351l3.1-1.3h0.4v2.5c0.5-0.9,1-1.6,1.6-2c0.5-0.4,1.1-0.6,1.7-0.6c1,0,1.9,0.4,2.5,1.3c0.8,1,1.2,2.4,1.2,4
		c0,1.9-0.5,3.4-1.5,4.6c-0.8,1-1.9,1.5-3.1,1.5c-0.5,0-1-0.1-1.4-0.2c-0.3-0.1-0.6-0.4-1-0.7v3.3c0,0.7,0,1.2,0.1,1.4
		c0.1,0.2,0.2,0.4,0.4,0.5s0.6,0.2,1.1,0.2v0.4H177v-0.4h0.3c0.4,0,0.8-0.1,1-0.2c0.1-0.1,0.2-0.2,0.3-0.4c0.1-0.2,0.1-0.7,0.1-1.5
		v-10.2c0-0.7,0-1.1-0.1-1.3c-0.1-0.2-0.2-0.3-0.3-0.4s-0.3-0.1-0.5-0.1s-0.4,0.1-0.7,0.2L177,351z M180.5,352.9v4
		c0,0.9,0,1.4,0.1,1.7c0.1,0.5,0.4,0.9,0.8,1.2c0.4,0.3,0.9,0.5,1.5,0.5c0.7,0,1.3-0.3,1.8-0.9c0.6-0.8,0.9-1.9,0.9-3.4
		c0-1.6-0.3-2.9-1-3.8c-0.5-0.6-1-0.9-1.7-0.9c-0.4,0-0.7,0.1-1,0.3C181.6,351.8,181.2,352.2,180.5,352.9z"/>
	<path d="M194,349.7c1.5,0,2.8,0.6,3.7,1.9c0.8,1.1,1.2,2.3,1.2,3.6c0,1-0.2,1.9-0.7,2.9c-0.4,1-1,1.7-1.8,2.2s-1.6,0.8-2.5,0.8
		c-1.5,0-2.7-0.6-3.6-1.9c-0.8-1.1-1.1-2.3-1.1-3.7c0-1,0.2-2,0.7-2.9c0.5-1,1.1-1.7,1.8-2.2C192.4,349.9,193.2,349.7,194,349.7z
		 M193.7,350.4c-0.4,0-0.8,0.1-1.2,0.4c-0.4,0.2-0.7,0.7-1,1.3s-0.4,1.4-0.4,2.4c0,1.6,0.3,2.9,0.9,4c0.6,1.1,1.4,1.7,2.3,1.7
		c0.7,0,1.3-0.3,1.8-0.9s0.7-1.7,0.7-3.2c0-1.9-0.4-3.4-1.2-4.5C195.1,350.8,194.5,350.4,193.7,350.4z"/>
	<path d="M209.5,356.6c-0.3,1.4-0.8,2.5-1.6,3.3s-1.7,1.1-2.6,1.1c-1.1,0-2.2-0.5-3-1.5c-0.9-1-1.3-2.4-1.3-4.2
		c0-1.7,0.5-3.1,1.4-4.1c0.9-1.1,2.1-1.6,3.4-1.6c1,0,1.8,0.3,2.5,0.8c0.6,0.6,1,1.1,1,1.7c0,0.3-0.1,0.5-0.3,0.7s-0.4,0.3-0.8,0.3
		c-0.4,0-0.8-0.1-1-0.4c-0.1-0.2-0.2-0.5-0.2-0.9c0-0.5-0.2-0.8-0.4-1.1c-0.3-0.2-0.6-0.4-1.1-0.4c-0.7,0-1.3,0.3-1.8,0.9
		c-0.6,0.8-0.9,1.8-0.9,3c0,1.3,0.3,2.4,0.9,3.4c0.6,1,1.4,1.5,2.4,1.5c0.7,0,1.4-0.3,1.9-0.8c0.4-0.4,0.8-1,1.2-2L209.5,356.6z"/>
	<path d="M217.5,357.9l3.2-7.9h3.4v0.4c-0.5,0-0.8,0.1-1,0.2s-0.3,0.2-0.4,0.4s-0.1,0.7-0.1,1.5v5.7c0,0.7,0,1.2,0.1,1.4
		c0.1,0.2,0.2,0.4,0.4,0.5s0.6,0.2,1,0.2v0.4h-4.9v-0.4c0.6,0,1-0.1,1.2-0.4c0.2-0.2,0.3-0.8,0.3-1.7v-6.5l-3.6,9h-0.4l-3.6-9v6.5
		c0,0.7,0,1.2,0.1,1.4c0.1,0.2,0.2,0.4,0.4,0.5s0.5,0.2,1,0.2v0.4h-3.9v-0.4c0.7,0,1.1-0.1,1.3-0.4s0.3-0.8,0.3-1.7v-5.7
		c0-0.8,0-1.3-0.1-1.5s-0.2-0.3-0.4-0.4s-0.5-0.2-1-0.2V350h3.6L217.5,357.9z"/>
	<path d="M230.3,349.7c1.5,0,2.8,0.6,3.7,1.9c0.8,1.1,1.2,2.3,1.2,3.6c0,1-0.2,1.9-0.7,2.9c-0.4,1-1,1.7-1.8,2.2s-1.6,0.8-2.5,0.8
		c-1.5,0-2.7-0.6-3.6-1.9c-0.8-1.1-1.1-2.3-1.1-3.7c0-1,0.2-2,0.7-2.9c0.5-1,1.1-1.7,1.8-2.2C228.6,349.9,229.4,349.7,230.3,349.7z
		 M229.9,350.4c-0.4,0-0.8,0.1-1.2,0.4c-0.4,0.2-0.7,0.7-1,1.3c-0.2,0.6-0.4,1.4-0.4,2.4c0,1.6,0.3,2.9,0.9,4
		c0.6,1.1,1.4,1.7,2.3,1.7c0.7,0,1.3-0.3,1.8-0.9s0.7-1.7,0.7-3.2c0-1.9-0.4-3.4-1.2-4.5C231.4,350.8,230.7,350.4,229.9,350.4z"/>
	<path d="M236.2,350h8.8l0.4,2.9h-0.5c-0.1-0.6-0.2-1-0.4-1.4s-0.4-0.5-0.7-0.6s-0.7-0.2-1.4-0.2h-0.9v7.5c0,0.8,0,1.3,0.1,1.5
		s0.2,0.4,0.4,0.4s0.7,0.1,1.4,0.1v0.4H238v-0.4c0.7,0,1.2-0.1,1.4-0.4c0.2-0.2,0.3-0.8,0.3-1.7v-7.5h-0.9c-0.6,0-1.1,0-1.3,0.1
		s-0.4,0.3-0.7,0.6c-0.2,0.3-0.4,0.8-0.5,1.4h-0.5L236.2,350z"/>
	<path d="M245.8,351l3.1-1.3h0.4v2.5c0.5-0.9,1-1.6,1.6-2c0.5-0.4,1.1-0.6,1.7-0.6c1,0,1.9,0.4,2.5,1.3c0.8,1,1.2,2.4,1.2,4
		c0,1.9-0.5,3.4-1.5,4.6c-0.8,1-1.9,1.5-3.1,1.5c-0.5,0-1-0.1-1.4-0.2c-0.3-0.1-0.6-0.4-1-0.7v3.3c0,0.7,0,1.2,0.1,1.4
		c0.1,0.2,0.2,0.4,0.4,0.5s0.6,0.2,1.1,0.2v0.4h-5.3v-0.4h0.3c0.4,0,0.8-0.1,1-0.2c0.1-0.1,0.2-0.2,0.3-0.4c0.1-0.2,0.1-0.7,0.1-1.5
		v-10.2c0-0.7,0-1.1-0.1-1.3c-0.1-0.2-0.2-0.3-0.3-0.4s-0.3-0.1-0.5-0.1s-0.4,0.1-0.7,0.2L245.8,351z M249.3,352.9v4
		c0,0.9,0,1.4,0.1,1.7c0.1,0.5,0.4,0.9,0.8,1.2c0.4,0.3,0.9,0.5,1.5,0.5c0.7,0,1.3-0.3,1.8-0.9c0.6-0.8,0.9-1.9,0.9-3.4
		c0-1.6-0.3-2.9-1-3.8c-0.5-0.6-1-0.9-1.7-0.9c-0.4,0-0.7,0.1-1,0.3C250.4,351.8,249.9,352.2,249.3,352.9z"/>
	<path d="M263.6,359.2c-1,0.9-1.7,1.3-2,1.5c-0.4,0.2-0.8,0.3-1.3,0.3c-0.7,0-1.3-0.3-1.7-0.8s-0.7-1.2-0.7-2c0-0.5,0.1-1,0.3-1.4
		c0.3-0.5,0.8-1,1.6-1.5c0.7-0.5,2-1,3.7-1.7v-0.4c0-1.1-0.2-1.8-0.5-2.2s-0.8-0.6-1.4-0.6c-0.5,0-0.8,0.1-1.1,0.4
		c-0.3,0.3-0.4,0.6-0.4,0.9v0.7c0,0.4-0.1,0.6-0.3,0.8c-0.2,0.2-0.4,0.3-0.7,0.3c-0.3,0-0.5-0.1-0.7-0.3c-0.2-0.2-0.3-0.5-0.3-0.8
		c0-0.7,0.3-1.3,1-1.9s1.6-0.8,2.7-0.8c0.9,0,1.6,0.2,2.2,0.5c0.4,0.2,0.8,0.6,1,1.1c0.1,0.3,0.2,1,0.2,2.1v3.6c0,1,0,1.7,0.1,1.9
		c0,0.2,0.1,0.4,0.2,0.5s0.2,0.1,0.3,0.1c0.1,0,0.2,0,0.3-0.1c0.2-0.1,0.5-0.4,0.9-0.9v0.7c-0.8,1.2-1.6,1.8-2.4,1.8
		c-0.4,0-0.6-0.1-0.9-0.4C263.7,360.3,263.6,359.8,263.6,359.2z M263.6,358.4v-4.1c-1.1,0.5-1.8,0.8-2.2,1c-0.6,0.3-1,0.7-1.2,1.1
		c-0.3,0.4-0.4,0.8-0.4,1.2c0,0.6,0.2,1,0.5,1.4s0.7,0.6,1.1,0.6C261.9,359.6,262.6,359.2,263.6,358.4z"/>
</g>
<rect x="215.9" y="376.2" class="st7" width="3.9" height="27.1"/>
<g>
	<path d="M74.9,2.8c1.5,0,2.7,0.6,3.8,1.8c1.1,1.2,1.6,2.6,1.6,4.4s-0.5,3.3-1.6,4.5s-2.4,1.8-3.9,1.8s-2.8-0.6-3.9-1.8
		s-1.6-2.7-1.6-4.5c0-1.9,0.6-3.4,1.8-4.6C72.2,3.3,73.4,2.8,74.9,2.8z M74.7,3.4c-1,0-1.8,0.4-2.4,1.2c-0.8,1-1.1,2.4-1.1,4.3
		s0.4,3.4,1.2,4.5c0.6,0.8,1.4,1.2,2.4,1.2c1.1,0,1.9-0.4,2.6-1.3s1-2.3,1-4.1c0-2-0.4-3.6-1.1-4.6C76.7,3.8,75.8,3.4,74.7,3.4z"/>
	<path d="M82.2,9.2c0.6-1.7,1.7-2.5,3.2-2.5c1.1,0,1.9,0.4,2.6,1.3c0.7,0.8,1,1.8,1,2.9s-0.3,2.1-1,3s-1.6,1.4-2.8,1.4
		c-1.2,0-2.1-0.5-2.7-1.6c-0.6-1-0.9-2.3-0.9-3.8c0-1.2,0.2-2.2,0.5-3.3c0.3-1,0.7-1.8,1-2.3c0.4-0.5,0.8-0.9,1.2-1.1
		c0.5-0.2,1.3-0.3,2.5-0.4c0.8,0,1.4,0,1.5-0.1s0.3-0.2,0.5-0.4h0.3c-0.2,0.6-0.4,1-0.7,1.2c-0.3,0.2-0.5,0.4-0.8,0.5
		c-0.3,0.1-0.8,0.3-1.6,0.4c-0.8,0-1.4,0.1-1.7,0.2c-0.3,0.1-0.6,0.4-1,0.8c-0.3,0.4-0.6,1-0.8,1.7C82.3,7.7,82.2,8.4,82.2,9.2z
		 M85.1,7.3c-0.6,0-1,0.2-1.4,0.7s-0.5,1.3-0.5,2.3c0,1.4,0.2,2.5,0.7,3.2s1,1.1,1.6,1.1s1-0.3,1.4-0.8c0.3-0.5,0.5-1.3,0.5-2.4
		c0-1.2-0.2-2.2-0.6-3C86.4,7.7,85.8,7.3,85.1,7.3z"/>
	<path d="M92.5,10.5h0.9c2.3,0,3.4,0.7,3.4,2.2c0,0.7-0.3,1.2-0.8,1.7S94.6,15,93.6,15H90v-0.3c0.5,0,0.8-0.1,0.9-0.3
		s0.2-0.6,0.2-1.3V8.8c0-0.6,0-1-0.1-1.1s-0.2-0.2-0.3-0.3c-0.1-0.1-0.4-0.1-0.8-0.1V6.9h4v0.3c-0.5,0-0.9,0-1,0.1s-0.2,0.2-0.3,0.3
		c-0.1,0.1-0.1,0.5-0.1,1.2C92.5,8.8,92.5,10.5,92.5,10.5z M92.5,14.3c0.3,0.1,0.6,0.1,0.9,0.1c0.6,0,1-0.2,1.3-0.5s0.5-0.7,0.5-1.2
		c0-1.1-0.7-1.7-2.2-1.7c-0.1,0-0.3,0-0.5,0C92.5,11,92.5,14.3,92.5,14.3z M96.8,7.3V6.9h3.8v0.3c-0.3,0-0.6,0-0.7,0.1
		s-0.3,0.2-0.3,0.4c-0.1,0.2-0.1,0.5-0.1,1.1v4.3c0,0.6,0,0.9,0.1,1.1c0,0.2,0.2,0.3,0.3,0.4c0.2,0.1,0.4,0.1,0.8,0.1V15h-3.8v-0.3
		c0.4,0,0.7,0,0.8-0.1s0.2-0.2,0.3-0.3c0.1-0.2,0.1-0.6,0.1-1.1V8.8c0-0.6,0-0.9-0.1-1.1s-0.2-0.3-0.3-0.3
		C97.5,7.3,97.2,7.3,96.8,7.3z"/>
	<path d="M106.6,10.5V8.8c0-0.6,0-0.9-0.1-1.1s-0.2-0.3-0.3-0.4c-0.2-0.1-0.4-0.1-0.7-0.1V6.9h3.7v0.3c-0.4,0-0.6,0-0.8,0.1
		c-0.1,0.1-0.2,0.2-0.3,0.3C108,7.7,108,8.1,108,8.7V13c0,0.6,0,0.9,0.1,1.1c0.1,0.2,0.2,0.3,0.3,0.4c0.2,0.1,0.4,0.1,0.8,0.1V15
		h-3.9v-0.3c0.4,0,0.7,0,0.9-0.1c0.1,0,0.2-0.2,0.3-0.3c0.1-0.2,0.1-0.6,0.1-1.1v-2c-0.8,0.4-1.7,0.7-2.6,0.7
		c-0.5,0-0.9-0.1-1.1-0.2c-0.3-0.1-0.4-0.3-0.5-0.5s-0.1-0.5-0.1-0.8V8.8c0-0.5,0-0.9-0.1-1c0-0.2-0.1-0.3-0.3-0.4s-0.4-0.1-0.7-0.1
		V6.9h3.6v0.3c-0.4,0-0.6,0-0.7,0.1s-0.2,0.2-0.3,0.3c-0.1,0.1-0.1,0.5-0.1,1.1v1c0,0.4,0,0.6,0.1,0.8c0.1,0.1,0.2,0.2,0.4,0.3
		c0.2,0.1,0.5,0.1,0.8,0.1C105.5,11.1,106.1,10.9,106.6,10.5z"/>
	<path d="M112.4,10.5h3.3V8.8c0-0.5,0-0.8-0.1-1c0-0.2-0.1-0.3-0.3-0.4s-0.4-0.2-0.8-0.2V6.9h3.7v0.3c-0.3,0-0.6,0-0.8,0.1
		s-0.3,0.2-0.3,0.4C117,7.9,117,8.2,117,8.8v4.3c0,0.5,0,0.8,0.1,1c0,0.2,0.1,0.3,0.3,0.4c0.2,0.1,0.4,0.2,0.8,0.2V15h-3.7v-0.3
		c0.5,0,0.8-0.1,0.9-0.3c0.2-0.2,0.2-0.6,0.2-1.3v-2h-3.3v2c0,0.5,0,0.8,0.1,1c0,0.2,0.1,0.3,0.3,0.4c0.2,0.1,0.4,0.2,0.8,0.2V15
		h-3.7v-0.3c0.5,0,0.8-0.1,0.9-0.3s0.2-0.6,0.2-1.3V8.8c0-0.5,0-0.8-0.1-1c0-0.2-0.1-0.3-0.3-0.4c-0.2-0.1-0.4-0.1-0.8-0.1V6.9h3.7
		v0.3c-0.3,0-0.6,0-0.8,0.1c-0.2,0.1-0.3,0.2-0.3,0.4c-0.1,0.2-0.1,0.5-0.1,1.1v1.7H112.4z"/>
	<path d="M121.5,10.5h0.9c2.3,0,3.4,0.7,3.4,2.2c0,0.7-0.3,1.2-0.8,1.7s-1.3,0.6-2.4,0.6H119v-0.3c0.5,0,0.8-0.1,0.9-0.3
		s0.2-0.6,0.2-1.3V8.8c0-0.6,0-1-0.1-1.1s-0.2-0.2-0.3-0.3c-0.1-0.1-0.4-0.1-0.8-0.1V6.9h4v0.3c-0.5,0-0.9,0-1,0.1s-0.2,0.2-0.3,0.3
		c-0.1,0.1-0.1,0.5-0.1,1.2C121.5,8.8,121.5,10.5,121.5,10.5z M121.5,14.3c0.3,0.1,0.6,0.1,0.9,0.1c0.6,0,1-0.2,1.3-0.5
		s0.5-0.7,0.5-1.2c0-1.1-0.7-1.7-2.2-1.7c-0.1,0-0.3,0-0.5,0C121.5,11,121.5,14.3,121.5,14.3z M125.8,7.3V6.9h3.8v0.3
		c-0.3,0-0.6,0-0.7,0.1s-0.3,0.2-0.3,0.4c-0.1,0.2-0.1,0.5-0.1,1.1v4.3c0,0.6,0,0.9,0.1,1.1c0,0.2,0.2,0.3,0.3,0.4
		c0.2,0.1,0.4,0.1,0.8,0.1V15h-3.8v-0.3c0.4,0,0.7,0,0.8-0.1s0.2-0.2,0.3-0.3c0.1-0.2,0.1-0.6,0.1-1.1V8.8c0-0.6,0-0.9-0.1-1.1
		s-0.2-0.3-0.3-0.3C126.6,7.3,126.3,7.3,125.8,7.3z"/>
	<path d="M132.9,12.5l3.3-4c0-0.5-0.1-0.8-0.2-0.9c-0.1-0.2-0.4-0.3-0.8-0.3V6.9h3.5v0.3c-0.4,0-0.6,0-0.7,0.1
		c-0.1,0.1-0.2,0.2-0.3,0.3c-0.1,0.1-0.1,0.5-0.1,1.1V13c0,0.6,0,1,0.1,1.1s0.2,0.2,0.3,0.3s0.4,0.1,0.8,0.1V15h-3.7v-0.3
		c0.5,0,0.8-0.1,0.9-0.3c0.2-0.2,0.2-0.6,0.2-1.3V9.3l-3.3,4c0,0.5,0.1,0.8,0.2,1c0.1,0.2,0.4,0.3,0.8,0.3V15h-3.5v-0.3
		c0.5,0,0.8-0.1,0.9-0.3c0.1-0.2,0.2-0.6,0.2-1.3V8.8c0-0.6,0-1-0.1-1.1s-0.2-0.2-0.3-0.3c-0.1-0.1-0.4-0.1-0.8-0.1V6.9h3.7v0.3
		c-0.4,0-0.6,0-0.7,0.1c-0.1,0.1-0.2,0.2-0.3,0.3c-0.1,0.1-0.1,0.5-0.1,1.1L132.9,12.5L132.9,12.5z M131.9,3.7
		c0-0.2,0.1-0.4,0.2-0.5s0.2-0.2,0.4-0.2c0.4,0,0.7,0.4,1,1.1c0.2,0.4,0.3,0.7,0.6,0.8c0.2,0.1,0.4,0.2,0.6,0.2
		c0.3,0,0.6-0.1,0.8-0.2c0.2-0.2,0.3-0.4,0.5-0.9c0.2-0.6,0.5-0.9,0.9-0.9c0.2,0,0.3,0.1,0.4,0.2s0.2,0.3,0.2,0.5
		c0,0.5-0.3,0.9-0.8,1.3s-1.2,0.6-1.9,0.6c-0.9,0-1.6-0.2-2-0.5C132.1,4.6,131.9,4.2,131.9,3.7z"/>
	<path d="M144.7,6.9h6.8v0.3c-0.4,0-0.6,0-0.8,0.1c-0.1,0.1-0.2,0.2-0.3,0.3c-0.1,0.1-0.1,0.5-0.1,1.1V13c0,0.6,0,1,0.1,1.1
		s0.2,0.2,0.3,0.3s0.4,0.1,0.8,0.1V15h-3.9v-0.3c0.4,0,0.7,0,0.9-0.1s0.3-0.2,0.4-0.3c0.1-0.2,0.1-0.6,0.1-1.2V7.5h-2.5v3.4
		c0,1.3-0.1,2.2-0.2,2.7c-0.1,0.5-0.3,0.9-0.6,1.2c-0.3,0.2-0.7,0.4-1.1,0.4c-0.7,0-1.1-0.3-1.1-0.9c0-0.2,0.1-0.4,0.2-0.5
		c0.1-0.1,0.3-0.2,0.4-0.2c0.2,0,0.4,0.1,0.5,0.3c0.2,0.2,0.4,0.3,0.5,0.3c0.2,0,0.4-0.2,0.5-0.7c0.1-0.4,0.2-1.2,0.2-2.3V9.3
		c0-0.9-0.1-1.5-0.2-1.7c-0.1-0.2-0.4-0.3-1-0.4V6.9H144.7z"/>
	<path d="M151.9,6.9h3.5v0.3h-0.2c-0.2,0-0.4,0.1-0.6,0.2c-0.1,0.1-0.2,0.3-0.2,0.4c0,0.2,0.1,0.5,0.3,1l1.8,4.1l1.7-4.5
		c0.1-0.2,0.1-0.5,0.1-0.7c0-0.1,0-0.2-0.1-0.2c0-0.1-0.1-0.1-0.2-0.2c-0.1,0-0.3-0.1-0.5-0.1V6.9h2.5v0.3c-0.2,0-0.4,0.1-0.5,0.1
		c-0.1,0.1-0.2,0.2-0.4,0.4c0,0.1-0.1,0.3-0.3,0.7l-3.1,8c-0.3,0.8-0.7,1.4-1.2,1.8s-0.9,0.6-1.4,0.6c-0.3,0-0.6-0.1-0.8-0.3
		c-0.2-0.2-0.3-0.4-0.3-0.7c0-0.2,0.1-0.4,0.2-0.6c0.2-0.1,0.4-0.2,0.6-0.2c0.2,0,0.4,0.1,0.7,0.2c0.2,0.1,0.4,0.1,0.4,0.1
		c0.2,0,0.3-0.1,0.5-0.3c0.2-0.2,0.4-0.5,0.6-1.1l0.5-1.4l-2.7-6.1c-0.1-0.2-0.2-0.4-0.4-0.7c-0.1-0.2-0.3-0.3-0.3-0.4
		c-0.1-0.1-0.3-0.2-0.6-0.2V6.9H151.9z"/>
	<path d="M166,10.5V8.8c0-0.6,0-0.9-0.1-1.1s-0.2-0.3-0.3-0.4c-0.2-0.1-0.4-0.1-0.7-0.1V6.9h3.7v0.3c-0.4,0-0.6,0-0.8,0.1
		c-0.1,0.1-0.2,0.2-0.3,0.3c-0.1,0.1-0.1,0.5-0.1,1.1V13c0,0.6,0,0.9,0.1,1.1c0.1,0.2,0.2,0.3,0.3,0.4c0.2,0.1,0.4,0.1,0.8,0.1V15
		h-3.9v-0.3c0.4,0,0.7,0,0.9-0.1c0.1,0,0.2-0.2,0.3-0.3c0.1-0.2,0.1-0.6,0.1-1.1v-2c-0.8,0.4-1.7,0.7-2.6,0.7
		c-0.5,0-0.9-0.1-1.1-0.2c-0.3-0.1-0.4-0.3-0.5-0.5s-0.1-0.5-0.1-0.8V8.8c0-0.5,0-0.9-0.1-1c0-0.2-0.1-0.3-0.3-0.4s-0.4-0.1-0.7-0.1
		V6.9h3.6v0.3c-0.4,0-0.6,0-0.7,0.1c-0.1,0.1-0.2,0.2-0.3,0.3C163,7.8,163,8.2,163,8.8v1c0,0.4,0,0.6,0.1,0.8
		c0.1,0.1,0.2,0.2,0.4,0.3s0.5,0.1,0.8,0.1C164.8,11.1,165.4,10.9,166,10.5z"/>
</g>
<g>
	<path d="M76.1,39.1c0.8,0.2,1.4,0.5,1.7,0.8c0.5,0.5,0.8,1.2,0.8,2c0,0.6-0.2,1.2-0.5,1.7c-0.4,0.5-0.8,0.9-1.5,1.2
		s-1.6,0.4-2.8,0.4h-5.3v-0.3h0.4c0.5,0,0.8-0.2,1-0.5c0.1-0.2,0.2-0.6,0.2-1.3v-7.7c0-0.7-0.1-1.2-0.2-1.4c-0.2-0.3-0.5-0.4-1-0.4
		h-0.4v-0.3h4.9c0.9,0,1.6,0.1,2.2,0.2c0.8,0.2,1.5,0.6,1.9,1.1s0.7,1.2,0.7,1.9c0,0.6-0.2,1.1-0.5,1.6
		C77.2,38.6,76.7,38.9,76.1,39.1z M71.7,38.7c0.2,0,0.4,0.1,0.7,0.1c0.3,0,0.6,0,0.9,0c0.8,0,1.4-0.1,1.8-0.3s0.7-0.5,0.9-0.8
		s0.3-0.8,0.3-1.3c0-0.7-0.3-1.3-0.8-1.8s-1.3-0.7-2.3-0.7c-0.6,0-1.1,0.1-1.5,0.2V38.7z M71.7,44.4c0.6,0.2,1.3,0.2,1.9,0.2
		c1,0,1.8-0.2,2.3-0.7s0.8-1.1,0.8-1.8c0-0.5-0.1-0.9-0.4-1.3c-0.2-0.4-0.6-0.8-1.2-1s-1.2-0.4-2-0.4c-0.3,0-0.6,0-0.9,0
		s-0.4,0-0.6,0.1L71.7,44.4L71.7,44.4z"/>
	<path d="M80,37.2h6.6l0.3,2.2h-0.4c-0.1-0.4-0.2-0.8-0.3-1s-0.3-0.4-0.5-0.5s-0.5-0.1-1-0.1H84v5.6c0,0.6,0,1,0.1,1.1
		c0.1,0.2,0.2,0.3,0.3,0.3s0.5,0.1,1.1,0.1v0.3h-4.1v-0.3c0.5,0,0.9-0.1,1-0.3c0.2-0.2,0.2-0.6,0.2-1.3v-5.6h-0.7
		c-0.5,0-0.8,0-1,0.1s-0.3,0.2-0.5,0.4s-0.3,0.6-0.4,1.1h-0.4L80,37.2z"/>
	<path d="M91,36.9c1.1,0,2.1,0.5,2.8,1.4c0.6,0.8,0.9,1.7,0.9,2.7c0,0.7-0.2,1.5-0.5,2.2s-0.8,1.3-1.3,1.7c-0.6,0.4-1.2,0.6-1.9,0.6
		c-1.1,0-2.1-0.5-2.7-1.5c-0.6-0.8-0.9-1.7-0.9-2.7c0-0.7,0.2-1.5,0.5-2.2s0.8-1.3,1.4-1.6S90.3,36.9,91,36.9z M90.7,37.5
		c-0.3,0-0.6,0.1-0.9,0.3s-0.5,0.5-0.7,1s-0.3,1.1-0.3,1.8c0,1.2,0.2,2.2,0.7,3c0.4,0.9,1,1.3,1.7,1.3c0.5,0,1-0.2,1.3-0.7
		s0.5-1.3,0.5-2.4c0-1.4-0.3-2.6-0.9-3.4C91.8,37.8,91.3,37.5,90.7,37.5z"/>
	<path d="M95.2,38l2.3-1h0.3v1.9c0.4-0.7,0.8-1.2,1.2-1.5c0.4-0.3,0.8-0.4,1.2-0.4c0.8,0,1.4,0.3,1.9,1c0.6,0.8,0.9,1.8,0.9,3
		c0,1.4-0.4,2.5-1.1,3.5c-0.6,0.7-1.4,1.1-2.3,1.1c-0.4,0-0.8-0.1-1.1-0.2c-0.2-0.1-0.5-0.3-0.7-0.5v2.5c0,0.6,0,0.9,0.1,1.1
		c0.1,0.1,0.2,0.3,0.3,0.4c0.2,0.1,0.4,0.1,0.9,0.1v0.3h-4V49h0.2c0.3,0,0.6-0.1,0.8-0.2c0.1-0.1,0.2-0.2,0.2-0.3
		c0.1-0.1,0.1-0.5,0.1-1.1v-7.6c0-0.5,0-0.9-0.1-1c0-0.1-0.1-0.2-0.2-0.3s-0.2-0.1-0.4-0.1c-0.1,0-0.3,0-0.5,0.1L95.2,38z
		 M97.9,39.4v3c0,0.7,0,1.1,0.1,1.3c0.1,0.3,0.3,0.6,0.6,0.9s0.7,0.4,1.1,0.4c0.6,0,1-0.2,1.3-0.7c0.4-0.6,0.7-1.4,0.7-2.5
		c0-1.2-0.3-2.2-0.8-2.8c-0.4-0.5-0.8-0.7-1.3-0.7c-0.3,0-0.5,0.1-0.8,0.2C98.6,38.5,98.3,38.8,97.9,39.4z"/>
	<path d="M106.6,42.7l3.3-4c0-0.5-0.1-0.8-0.2-0.9c-0.1-0.2-0.4-0.3-0.8-0.3v-0.3h3.5v0.3c-0.4,0-0.6,0-0.7,0.1s-0.2,0.2-0.3,0.3
		c-0.1,0.1-0.1,0.5-0.1,1.1v4.3c0,0.6,0,1,0.1,1.1s0.2,0.2,0.3,0.3c0.1,0.1,0.4,0.1,0.8,0.1v0.3h-3.7v-0.3c0.5,0,0.8-0.1,0.9-0.3
		c0.2-0.2,0.2-0.6,0.2-1.3v-3.8l-3.3,4c0,0.5,0.1,0.8,0.2,1s0.4,0.3,0.8,0.3V45h-3.5v-0.3c0.5,0,0.8-0.1,0.9-0.3s0.2-0.6,0.2-1.3
		v-4.3c0-0.6,0-1-0.1-1.1s-0.2-0.2-0.3-0.3c-0.1-0.1-0.4-0.1-0.8-0.1V37h3.7v0.3c-0.4,0-0.6,0-0.7,0.1s-0.2,0.2-0.3,0.3
		c-0.1,0.1-0.1,0.5-0.1,1.1V42.7z"/>
	<path d="M118.4,40.8v-1.7c0-0.6,0-0.9-0.1-1.1c-0.1-0.2-0.2-0.3-0.3-0.4c-0.2-0.1-0.4-0.1-0.7-0.1v-0.3h3.7v0.3
		c-0.4,0-0.6,0-0.8,0.1c-0.1,0.1-0.2,0.2-0.3,0.3c-0.1,0.1-0.1,0.5-0.1,1.1v4.3c0,0.6,0,0.9,0.1,1.1c0.1,0.2,0.2,0.3,0.3,0.4
		c0.2,0.1,0.4,0.1,0.8,0.1v0.3h-3.9v-0.3c0.4,0,0.7,0,0.9-0.1c0.1,0,0.2-0.2,0.3-0.3c0.1-0.2,0.1-0.6,0.1-1.1v-2
		c-0.8,0.4-1.7,0.7-2.6,0.7c-0.5,0-0.9-0.1-1.1-0.2c-0.3-0.1-0.4-0.3-0.5-0.5s-0.1-0.5-0.1-0.8v-1.5c0-0.5,0-0.9-0.1-1
		c0-0.2-0.1-0.3-0.3-0.4s-0.4-0.1-0.7-0.1v-0.3h3.6v0.3c-0.4,0-0.6,0-0.7,0.1s-0.2,0.2-0.3,0.3c-0.1,0.1-0.1,0.5-0.1,1.1v1
		c0,0.4,0,0.6,0.1,0.8c0.1,0.1,0.2,0.2,0.4,0.3c0.2,0.1,0.5,0.1,0.8,0.1C117.3,41.3,117.9,41.1,118.4,40.8z"/>
	<path d="M124.2,40.8h3.3v-1.7c0-0.5,0-0.8-0.1-1c0-0.2-0.1-0.3-0.3-0.4s-0.4-0.2-0.8-0.2v-0.3h3.7v0.3c-0.3,0-0.6,0-0.8,0.1
		S129,37.8,129,38c-0.1,0.2-0.1,0.5-0.1,1.1v4.3c0,0.5,0,0.8,0.1,1c0,0.2,0.1,0.3,0.3,0.4c0.2,0.1,0.4,0.2,0.8,0.2v0.3h-3.7V45
		c0.5,0,0.8-0.1,0.9-0.3c0.2-0.2,0.2-0.6,0.2-1.3v-2h-3.3v2c0,0.5,0,0.8,0.1,1c0,0.2,0.1,0.3,0.3,0.4c0.2,0.1,0.4,0.2,0.8,0.2v0.3
		h-3.7V45c0.5,0,0.8-0.1,0.9-0.3s0.2-0.6,0.2-1.3v-4.3c0-0.5,0-0.8-0.1-1c0-0.2-0.1-0.3-0.3-0.4c-0.2-0.1-0.4-0.1-0.8-0.1v-0.3h3.7
		v0.3c-0.3,0-0.6,0-0.8,0.1c-0.2,0.1-0.3,0.2-0.3,0.4c-0.1,0.2-0.1,0.5-0.1,1.1L124.2,40.8L124.2,40.8z"/>
	<path d="M133.3,40.8h0.9c2.3,0,3.4,0.7,3.4,2.2c0,0.7-0.3,1.2-0.8,1.7s-1.3,0.6-2.4,0.6h-3.6V45c0.5,0,0.8-0.1,0.9-0.3
		c0.1-0.2,0.2-0.6,0.2-1.3v-4.3c0-0.6,0-1-0.1-1.1s-0.2-0.2-0.3-0.3s-0.4-0.1-0.8-0.1v-0.3h4v0.3c-0.5,0-0.9,0-1,0.1
		s-0.2,0.2-0.3,0.3s-0.1,0.5-0.1,1.2L133.3,40.8L133.3,40.8z M133.3,44.5c0.3,0.1,0.6,0.1,0.9,0.1c0.6,0,1-0.2,1.3-0.5
		s0.5-0.7,0.5-1.2c0-1.1-0.7-1.7-2.2-1.7c-0.1,0-0.3,0-0.5,0V44.5z M137.6,37.5v-0.3h3.8v0.3c-0.3,0-0.6,0-0.7,0.1s-0.3,0.2-0.3,0.4
		c-0.1,0.2-0.1,0.5-0.1,1.1v4.3c0,0.6,0,0.9,0.1,1.1c0,0.2,0.2,0.3,0.3,0.4c0.2,0.1,0.4,0.1,0.8,0.1v0.3h-3.8V45
		c0.4,0,0.7,0,0.8-0.1s0.2-0.2,0.3-0.3c0.1-0.2,0.1-0.6,0.1-1.1v-4.3c0-0.6,0-0.9-0.1-1.1c-0.1-0.2-0.2-0.3-0.3-0.3
		C138.4,37.5,138.1,37.5,137.6,37.5z"/>
	<path d="M144.7,42.7l3.3-4c0-0.5-0.1-0.8-0.2-0.9c-0.1-0.2-0.4-0.3-0.8-0.3v-0.3h3.5v0.3c-0.4,0-0.6,0-0.7,0.1
		c-0.1,0.1-0.2,0.2-0.3,0.3s-0.1,0.5-0.1,1.1v4.3c0,0.6,0,1,0.1,1.1s0.2,0.2,0.3,0.3s0.4,0.1,0.8,0.1v0.3h-3.7v-0.3
		c0.5,0,0.8-0.1,0.9-0.3c0.2-0.2,0.2-0.6,0.2-1.3v-3.8l-3.3,4c0,0.5,0.1,0.8,0.2,1c0.1,0.2,0.4,0.3,0.8,0.3V45h-3.5v-0.3
		c0.5,0,0.8-0.1,0.9-0.3c0.1-0.2,0.2-0.6,0.2-1.3v-4.3c0-0.6,0-1-0.1-1.1s-0.2-0.2-0.3-0.3s-0.4-0.1-0.8-0.1V37h3.7v0.3
		c-0.4,0-0.6,0-0.7,0.1c-0.1,0.1-0.2,0.2-0.3,0.3s-0.1,0.5-0.1,1.1L144.7,42.7L144.7,42.7z M143.6,33.9c0-0.2,0.1-0.4,0.2-0.5
		s0.2-0.2,0.4-0.2c0.4,0,0.7,0.4,1,1.1c0.2,0.4,0.3,0.7,0.6,0.8c0.2,0.1,0.4,0.2,0.6,0.2c0.3,0,0.6-0.1,0.8-0.2
		c0.2-0.2,0.3-0.4,0.5-0.9c0.2-0.6,0.5-0.9,0.9-0.9c0.2,0,0.3,0.1,0.4,0.2s0.2,0.3,0.2,0.5c0,0.5-0.3,0.9-0.8,1.3s-1.2,0.6-1.9,0.6
		c-0.9,0-1.6-0.2-2-0.5C143.9,34.9,143.6,34.4,143.6,33.9z"/>
	<path d="M156.5,37.2h6.8v0.3c-0.4,0-0.6,0-0.8,0.1c-0.1,0.1-0.2,0.2-0.3,0.3s-0.1,0.5-0.1,1.1v4.3c0,0.6,0,1,0.1,1.1
		s0.2,0.2,0.3,0.3s0.4,0.1,0.8,0.1v0.3h-3.9v-0.3c0.4,0,0.7,0,0.9-0.1s0.3-0.2,0.4-0.3c0.1-0.2,0.1-0.6,0.1-1.2v-5.6h-2.5V41
		c0,1.3-0.1,2.2-0.2,2.7c-0.1,0.5-0.3,0.9-0.6,1.2c-0.3,0.2-0.7,0.4-1.1,0.4c-0.7,0-1.1-0.3-1.1-0.9c0-0.2,0.1-0.4,0.2-0.5
		c0.1-0.1,0.3-0.2,0.4-0.2c0.2,0,0.4,0.1,0.5,0.3c0.2,0.2,0.4,0.3,0.5,0.3c0.2,0,0.4-0.2,0.5-0.7c0.1-0.4,0.2-1.2,0.2-2.3v-1.8
		c0-0.9-0.1-1.5-0.2-1.7c-0.1-0.2-0.4-0.3-1-0.4v-0.2H156.5z"/>
	<path d="M163.7,37.2h3.5v0.3H167c-0.2,0-0.4,0.1-0.6,0.2c-0.1,0.1-0.2,0.3-0.2,0.4c0,0.2,0.1,0.5,0.3,1l1.8,4.1l1.7-4.5
		c0.1-0.2,0.1-0.5,0.1-0.7c0-0.1,0-0.2-0.1-0.2c0-0.1-0.1-0.1-0.2-0.2c-0.1,0-0.3-0.1-0.5-0.1v-0.3h2.5v0.3c-0.2,0-0.4,0.1-0.5,0.1
		c-0.1,0.1-0.2,0.2-0.4,0.4c0,0.1-0.1,0.3-0.3,0.7l-3.1,8c-0.3,0.8-0.7,1.4-1.2,1.8s-0.9,0.6-1.4,0.6c-0.3,0-0.6-0.1-0.8-0.3
		s-0.3-0.4-0.3-0.7c0-0.2,0.1-0.4,0.2-0.6c0.2-0.1,0.4-0.2,0.6-0.2c0.2,0,0.4,0.1,0.7,0.2c0.2,0.1,0.4,0.1,0.4,0.1
		c0.2,0,0.3-0.1,0.5-0.3s0.4-0.5,0.6-1.1l0.5-1.4l-2.7-6.1c-0.1-0.2-0.2-0.4-0.4-0.7c-0.1-0.2-0.3-0.3-0.3-0.4
		c-0.1-0.1-0.3-0.2-0.6-0.2v-0.2H163.7z"/>
	<path d="M177.8,40.8v-1.7c0-0.6,0-0.9-0.1-1.1c-0.1-0.2-0.2-0.3-0.3-0.4c-0.2-0.1-0.4-0.1-0.7-0.1v-0.3h3.7v0.3
		c-0.4,0-0.6,0-0.8,0.1c-0.1,0.1-0.2,0.2-0.3,0.3s-0.1,0.5-0.1,1.1v4.3c0,0.6,0,0.9,0.1,1.1c0.1,0.2,0.2,0.3,0.3,0.4
		c0.2,0.1,0.4,0.1,0.8,0.1v0.3h-3.9v-0.3c0.4,0,0.7,0,0.9-0.1c0.1,0,0.2-0.2,0.3-0.3c0.1-0.2,0.1-0.6,0.1-1.1v-2
		c-0.8,0.4-1.7,0.7-2.6,0.7c-0.5,0-0.9-0.1-1.1-0.2c-0.3-0.1-0.4-0.3-0.5-0.5s-0.1-0.5-0.1-0.8v-1.5c0-0.5,0-0.9-0.1-1
		c0-0.2-0.1-0.3-0.3-0.4s-0.4-0.1-0.7-0.1v-0.3h3.6v0.3c-0.4,0-0.6,0-0.7,0.1c-0.1,0.1-0.2,0.2-0.3,0.3s-0.1,0.5-0.1,1.1v1
		c0,0.4,0,0.6,0.1,0.8c0.1,0.1,0.2,0.2,0.4,0.3s0.5,0.1,0.8,0.1C176.6,41.3,177.2,41.1,177.8,40.8z"/>
	<path d="M191.1,37.7h-3.3v5.6c0,0.6,0,1,0.1,1.1s0.2,0.2,0.3,0.3s0.4,0.1,0.8,0.1v0.3h-3.7v-0.3c0.5,0,0.8-0.1,0.9-0.3
		c0.1-0.2,0.2-0.6,0.2-1.3v-4.3c0-0.6,0-1-0.1-1.1s-0.2-0.2-0.3-0.3s-0.4-0.1-0.8-0.1v-0.3h8.3v0.3c-0.4,0-0.6,0-0.7,0.1
		c-0.1,0.1-0.2,0.2-0.3,0.3s-0.1,0.5-0.1,1.1v4.3c0,0.6,0,1,0.1,1.1s0.2,0.2,0.3,0.3s0.4,0.1,0.8,0.1V45h-3.7v-0.3
		c0.5,0,0.8-0.1,0.9-0.3c0.2-0.2,0.2-0.6,0.2-1.3v-5.4H191.1z"/>
	<path d="M198.2,36.9c1.1,0,2.1,0.5,2.8,1.4c0.6,0.8,0.9,1.7,0.9,2.7c0,0.7-0.2,1.5-0.5,2.2s-0.8,1.3-1.3,1.7
		c-0.6,0.4-1.2,0.6-1.9,0.6c-1.1,0-2.1-0.5-2.7-1.5c-0.6-0.8-0.9-1.7-0.9-2.7c0-0.7,0.2-1.5,0.5-2.2s0.8-1.3,1.4-1.6
		S197.6,36.9,198.2,36.9z M198,37.5c-0.3,0-0.6,0.1-0.9,0.3c-0.3,0.2-0.5,0.5-0.7,1s-0.3,1.1-0.3,1.8c0,1.2,0.2,2.2,0.7,3
		c0.4,0.9,1,1.3,1.7,1.3c0.5,0,1-0.2,1.3-0.7s0.5-1.3,0.5-2.4c0-1.4-0.3-2.6-0.9-3.4C199.1,37.8,198.6,37.5,198,37.5z"/>
	<path d="M208.7,37.7h-3.3v5.6c0,0.6,0,1,0.1,1.1s0.2,0.2,0.3,0.3s0.4,0.1,0.8,0.1v0.3h-3.7v-0.3c0.5,0,0.8-0.1,0.9-0.3
		c0.1-0.2,0.2-0.6,0.2-1.3v-4.3c0-0.6,0-1-0.1-1.1s-0.2-0.2-0.3-0.3s-0.4-0.1-0.8-0.1v-0.3h8.3v0.3c-0.4,0-0.6,0-0.7,0.1
		c-0.1,0.1-0.2,0.2-0.3,0.3s-0.1,0.5-0.1,1.1v4.3c0,0.6,0,1,0.1,1.1s0.2,0.2,0.3,0.3s0.4,0.1,0.8,0.1V45h-3.7v-0.3
		c0.5,0,0.8-0.1,0.9-0.3c0.2-0.2,0.2-0.6,0.2-1.3v-5.4H208.7z"/>
	<path d="M216.4,44.1c-0.8,0.6-1.3,1-1.5,1.1c-0.3,0.1-0.6,0.2-1,0.2c-0.5,0-1-0.2-1.3-0.6s-0.5-0.9-0.5-1.5c0-0.4,0.1-0.7,0.2-1
		c0.2-0.4,0.6-0.8,1.2-1.1c0.6-0.4,1.5-0.8,2.8-1.3v-0.3c0-0.8-0.1-1.4-0.4-1.7c-0.2-0.3-0.6-0.4-1-0.4c-0.3,0-0.6,0.1-0.8,0.3
		s-0.3,0.4-0.3,0.7V39c0,0.3-0.1,0.5-0.2,0.6c-0.1,0.1-0.3,0.2-0.5,0.2s-0.4-0.1-0.5-0.2c-0.1-0.2-0.2-0.4-0.2-0.6
		c0-0.5,0.2-1,0.7-1.4s1.2-0.6,2-0.6c0.7,0,1.2,0.1,1.7,0.4c0.3,0.2,0.6,0.5,0.7,0.9c0.1,0.3,0.1,0.8,0.1,1.5v2.7c0,0.8,0,1.2,0,1.4
		s0.1,0.3,0.1,0.3s0.1,0.1,0.2,0.1c0.1,0,0.2,0,0.2-0.1c0.1-0.1,0.3-0.3,0.7-0.6v0.5c-0.6,0.9-1.2,1.3-1.8,1.3
		c-0.3,0-0.5-0.1-0.6-0.3C216.5,44.9,216.4,44.5,216.4,44.1z M216.4,43.5v-3.1c-0.8,0.4-1.4,0.6-1.6,0.7c-0.4,0.3-0.7,0.5-0.9,0.8
		s-0.3,0.6-0.3,0.9c0,0.4,0.1,0.8,0.4,1.1c0.2,0.3,0.5,0.4,0.8,0.4C215.1,44.4,215.7,44.1,216.4,43.5z"/>
	<path d="M220.7,37.2h6.7v0.3c-0.4,0-0.6,0-0.8,0.1c-0.1,0.1-0.2,0.2-0.3,0.3s-0.1,0.5-0.1,1.1v4c0,0.8,0.1,1.4,0.2,1.5
		c0.1,0.2,0.5,0.3,0.9,0.3v2.6H227c0-0.5-0.1-0.9-0.3-1.3c-0.2-0.4-0.5-0.6-0.8-0.8c-0.4-0.1-0.9-0.2-1.6-0.2h-2
		c-0.6,0-1.1,0.1-1.4,0.2c-0.3,0.1-0.6,0.4-0.9,0.7c-0.2,0.4-0.4,0.8-0.4,1.3h-0.3v-2.6c0.5,0,0.9-0.2,1.2-0.6
		c0.4-0.4,0.7-1.1,1-2.1s0.4-2.1,0.4-3.1s-0.4-1.5-1.3-1.6v-0.1H220.7z M222.5,37.7v0.5c0,2.9-0.5,5-1.5,6.4h2.8
		c0.5,0,0.8,0,0.9-0.1s0.1-0.4,0.1-1v-5.8C224.8,37.7,222.5,37.7,222.5,37.7z"/>
	<path d="M232.6,44.1c-0.8,0.6-1.3,1-1.5,1.1c-0.3,0.1-0.6,0.2-1,0.2c-0.5,0-1-0.2-1.3-0.6s-0.5-0.9-0.5-1.5c0-0.4,0.1-0.7,0.2-1
		c0.2-0.4,0.6-0.8,1.2-1.1c0.6-0.4,1.5-0.8,2.8-1.3v-0.3c0-0.8-0.1-1.4-0.4-1.7c-0.2-0.3-0.6-0.4-1-0.4c-0.3,0-0.6,0.1-0.8,0.3
		s-0.3,0.4-0.3,0.7V39c0,0.3-0.1,0.5-0.2,0.6c-0.1,0.1-0.3,0.2-0.5,0.2s-0.4-0.1-0.5-0.2c-0.1-0.2-0.2-0.4-0.2-0.6
		c0-0.5,0.2-1,0.7-1.4s1.2-0.6,2-0.6c0.7,0,1.2,0.1,1.7,0.4c0.3,0.2,0.6,0.5,0.7,0.9c0.1,0.3,0.1,0.8,0.1,1.5v2.7c0,0.8,0,1.2,0,1.4
		s0.1,0.3,0.1,0.3s0.1,0.1,0.2,0.1c0.1,0,0.2,0,0.2-0.1c0.1-0.1,0.3-0.3,0.7-0.6v0.5c-0.6,0.9-1.2,1.3-1.8,1.3
		c-0.3,0-0.5-0.1-0.6-0.3C232.6,44.9,232.6,44.5,232.6,44.1z M232.6,43.5v-3.1c-0.8,0.4-1.4,0.6-1.6,0.7c-0.4,0.3-0.7,0.5-0.9,0.8
		s-0.3,0.6-0.3,0.9c0,0.4,0.1,0.8,0.4,1.1c0.2,0.3,0.5,0.4,0.8,0.4C231.3,44.4,231.9,44.1,232.6,43.5z"/>
	<path d="M237.1,40.2c0,1.2,0.3,2.1,0.8,2.8s1.2,1,1.9,1c0.5,0,0.9-0.1,1.3-0.4s0.7-0.8,0.9-1.5l0.3,0.2c-0.1,0.8-0.5,1.5-1,2.2
		c-0.6,0.7-1.3,1-2.1,1c-0.9,0-1.7-0.4-2.3-1.1c-0.6-0.8-1-1.8-1-3c0-1.4,0.3-2.5,1-3.2c0.7-0.8,1.5-1.2,2.5-1.2
		c0.9,0,1.5,0.3,2.1,0.9c0.5,0.6,0.8,1.4,0.8,2.4h-5.2V40.2z M237.1,39.7h3.5c0-0.5-0.1-0.9-0.2-1.1c-0.1-0.3-0.3-0.6-0.6-0.8
		s-0.6-0.3-0.9-0.3c-0.5,0-0.9,0.2-1.2,0.6C237.3,38.5,237.1,39,237.1,39.7z"/>
	<path d="M243.2,37.2h6.6l0.3,2.2h-0.4c-0.1-0.4-0.2-0.8-0.3-1c-0.2-0.2-0.3-0.4-0.5-0.5s-0.5-0.1-1-0.1h-0.7v5.6c0,0.6,0,1,0.1,1.1
		c0.1,0.2,0.2,0.3,0.3,0.3c0.2,0.1,0.5,0.1,1.1,0.1v0.3h-4.1v-0.3c0.5,0,0.9-0.1,1-0.3c0.2-0.2,0.2-0.6,0.2-1.3v-5.6h-0.7
		c-0.5,0-0.8,0-1,0.1s-0.3,0.2-0.5,0.4s-0.3,0.6-0.4,1.1h-0.4L243.2,37.2z"/>
	<path d="M73.6,59c1.4,0.3,2.1,1,2.1,2.1c0,0.7-0.3,1.3-0.9,1.6c-0.6,0.4-1.4,0.5-2.4,0.5h-3.7v-0.3c0.5,0,0.8-0.1,0.9-0.3
		s0.2-0.6,0.2-1.3V57c0-0.6,0-1-0.1-1.1s-0.1-0.2-0.3-0.3c-0.1-0.1-0.4-0.1-0.8-0.1v-0.3h3.5c0.7,0,1.2,0.1,1.6,0.2
		c0.4,0.1,0.8,0.3,1,0.7s0.4,0.7,0.4,1.2C75.2,58.1,74.6,58.7,73.6,59z M71.1,58.8c0.2,0,0.4,0,0.4,0c0.8,0,1.3-0.2,1.6-0.5
		c0.3-0.3,0.5-0.7,0.5-1.1c0-0.5-0.2-0.9-0.5-1.1s-0.9-0.3-1.6-0.3h-0.4V58.8z M71.1,62.5c0.3,0.1,0.6,0.1,1,0.1
		c0.7,0,1.1-0.2,1.5-0.5c0.3-0.3,0.5-0.7,0.5-1.2s-0.2-1-0.6-1.2c-0.4-0.3-1-0.4-1.7-0.4c-0.2,0-0.4,0-0.6,0v3.2H71.1z"/>
	<path d="M85.8,59c1.4,0.3,2.1,1,2.1,2.1c0,0.7-0.3,1.3-0.9,1.6c-0.6,0.4-1.4,0.5-2.4,0.5h-3.7v-0.3c0.5,0,0.8-0.1,0.9-0.3
		S82,62,82,61.3V57c0-0.6,0-1-0.1-1.1s-0.1-0.2-0.3-0.3c-0.1-0.1-0.4-0.1-0.8-0.1v-0.3h3.5c0.7,0,1.2,0.1,1.6,0.2
		c0.4,0.1,0.8,0.3,1,0.7s0.4,0.7,0.4,1.2C87.4,58.1,86.9,58.7,85.8,59z M83.4,58.8c0.2,0,0.4,0,0.4,0c0.8,0,1.3-0.2,1.6-0.5
		c0.3-0.3,0.5-0.7,0.5-1.1c0-0.5-0.2-0.9-0.5-1.1s-0.9-0.3-1.6-0.3h-0.4V58.8z M83.4,62.5c0.3,0.1,0.6,0.1,1,0.1
		c0.7,0,1.1-0.2,1.5-0.5c0.3-0.3,0.5-0.7,0.5-1.2s-0.2-1-0.6-1.2c-0.4-0.3-1-0.4-1.7-0.4c-0.2,0-0.4,0-0.6,0v3.2H83.4z"/>
	<path d="M91.4,60.8l3.3-4c0-0.5-0.1-0.8-0.2-0.9c-0.1-0.2-0.4-0.3-0.8-0.3v-0.3h3.5v0.3c-0.4,0-0.6,0-0.7,0.1s-0.2,0.2-0.3,0.3
		c-0.1,0.1-0.1,0.5-0.1,1.1v4.3c0,0.6,0,1,0.1,1.1s0.2,0.2,0.3,0.3c0.1,0.1,0.4,0.1,0.8,0.1v0.3h-3.7v-0.3c0.5,0,0.8-0.1,0.9-0.3
		c0.2-0.2,0.2-0.6,0.2-1.3v-3.8l-3.3,4c0,0.5,0.1,0.8,0.2,1s0.4,0.3,0.8,0.3v0.3h-3.5v-0.3c0.5,0,0.8-0.1,0.9-0.3
		C90,62.4,90,62,90,61.4v-4.3c0-0.6,0-1-0.1-1.1s-0.2-0.2-0.3-0.3c-0.1-0.1-0.4-0.1-0.8-0.1v-0.3h3.7v0.3c-0.4,0-0.6,0-0.7,0.1
		s-0.2,0.2-0.3,0.3c-0.1,0.1-0.1,0.5-0.1,1.1C91.4,57.1,91.4,60.8,91.4,60.8z"/>
	<path d="M99.1,55.2h6.7v0.3c-0.4,0-0.6,0-0.8,0.1c-0.1,0.1-0.2,0.2-0.3,0.3c-0.1,0.1-0.1,0.5-0.1,1.1v4c0,0.8,0.1,1.4,0.2,1.5
		c0.1,0.2,0.5,0.3,0.9,0.3v2.6h-0.3c0-0.5-0.1-0.9-0.3-1.3s-0.5-0.6-0.8-0.8c-0.4-0.1-0.9-0.2-1.6-0.2h-2c-0.6,0-1.1,0.1-1.4,0.2
		c-0.3,0.1-0.6,0.4-0.9,0.7c-0.2,0.4-0.4,0.8-0.4,1.3h-0.3v-2.6c0.5,0,0.9-0.2,1.2-0.6c0.4-0.4,0.7-1.1,1-2.1s0.4-2.1,0.4-3.1
		s-0.4-1.5-1.3-1.6v-0.1H99.1z M101,55.8v0.5c0,2.9-0.5,5-1.5,6.4h2.8c0.5,0,0.8,0,0.9-0.1s0.1-0.4,0.1-1v-5.8
		C103.3,55.8,101,55.8,101,55.8z"/>
	<path d="M109.1,60.8l3.3-4c0-0.5-0.1-0.8-0.2-0.9c-0.1-0.2-0.4-0.3-0.8-0.3v-0.3h3.5v0.3c-0.4,0-0.6,0-0.7,0.1s-0.2,0.2-0.3,0.3
		c-0.1,0.1-0.1,0.5-0.1,1.1v4.3c0,0.6,0,1,0.1,1.1s0.2,0.2,0.3,0.3c0.1,0.1,0.4,0.1,0.8,0.1v0.3h-3.7v-0.3c0.5,0,0.8-0.1,0.9-0.3
		c0.2-0.2,0.2-0.6,0.2-1.3v-3.8l-3.3,4c0,0.5,0.1,0.8,0.2,1s0.4,0.3,0.8,0.3v0.3h-3.5v-0.3c0.5,0,0.8-0.1,0.9-0.3s0.2-0.6,0.2-1.3
		v-4.3c0-0.6,0-1-0.1-1.1s-0.2-0.2-0.3-0.3c-0.1-0.1-0.4-0.1-0.8-0.1v-0.3h3.7v0.3c-0.4,0-0.6,0-0.7,0.1s-0.2,0.2-0.3,0.3
		c-0.1,0.1-0.1,0.5-0.1,1.1V60.8z"/>
	<path d="M120.7,61.1l2.4-6h2.6v0.3c-0.4,0-0.6,0-0.8,0.1c-0.1,0.1-0.2,0.2-0.3,0.3c-0.1,0.1-0.1,0.5-0.1,1.1v4.3
		c0,0.6,0,0.9,0.1,1.1c0.1,0.2,0.2,0.3,0.3,0.4c0.2,0.1,0.4,0.1,0.8,0.1v0.3H122v-0.3c0.5,0,0.8-0.1,0.9-0.3
		c0.2-0.2,0.2-0.6,0.2-1.3v-4.9l-2.7,6.7h-0.3l-2.7-6.7v4.9c0,0.6,0,0.9,0.1,1.1c0.1,0.2,0.2,0.3,0.3,0.4c0.2,0.1,0.4,0.1,0.7,0.1
		v0.3h-2.9v-0.3c0.5,0,0.8-0.1,0.9-0.3s0.2-0.6,0.2-1.3v-4.3c0-0.6,0-1-0.1-1.1s-0.2-0.2-0.3-0.3c-0.1-0.1-0.4-0.1-0.8-0.1v-0.3h2.7
		L120.7,61.1z"/>
	<path d="M128.9,58.8h0.9c2.3,0,3.4,0.7,3.4,2.2c0,0.7-0.3,1.2-0.8,1.7s-1.3,0.6-2.4,0.6h-3.6V63c0.5,0,0.8-0.1,0.9-0.3
		s0.2-0.6,0.2-1.3v-4.3c0-0.6,0-1-0.1-1.1s-0.2-0.2-0.3-0.3c-0.1-0.1-0.4-0.1-0.8-0.1v-0.3h4v0.3c-0.5,0-0.9,0-1,0.1
		s-0.2,0.2-0.3,0.3s-0.1,0.5-0.1,1.2L128.9,58.8L128.9,58.8z M128.9,62.6c0.3,0.1,0.6,0.1,0.9,0.1c0.6,0,1-0.2,1.3-0.5
		s0.5-0.7,0.5-1.2c0-1.1-0.7-1.7-2.2-1.7c-0.1,0-0.3,0-0.5,0V62.6z M133.2,55.5v-0.3h3.8v0.3c-0.3,0-0.6,0-0.7,0.1S136,55.8,136,56
		c-0.1,0.2-0.1,0.5-0.1,1.1v4.3c0,0.6,0,0.9,0.1,1.1c0,0.2,0.2,0.3,0.3,0.4c0.2,0.1,0.4,0.1,0.8,0.1v0.3h-3.8V63
		c0.4,0,0.7,0,0.8-0.1s0.2-0.2,0.3-0.3c0.1-0.2,0.1-0.6,0.1-1.1v-4.3c0-0.6,0-0.9-0.1-1.1c-0.1-0.2-0.2-0.3-0.3-0.3
		C134,55.6,133.7,55.5,133.2,55.5z"/>
	<path d="M140.3,60.8l3.3-4c0-0.5-0.1-0.8-0.2-0.9c-0.1-0.2-0.4-0.3-0.8-0.3v-0.3h3.5v0.3c-0.4,0-0.6,0-0.7,0.1
		c-0.1,0.1-0.2,0.2-0.3,0.3s-0.1,0.5-0.1,1.1v4.3c0,0.6,0,1,0.1,1.1s0.2,0.2,0.3,0.3s0.4,0.1,0.8,0.1v0.3h-3.7v-0.3
		c0.5,0,0.8-0.1,0.9-0.3c0.2-0.2,0.2-0.6,0.2-1.3v-3.8l-3.3,4c0,0.5,0.1,0.8,0.2,1c0.1,0.2,0.4,0.3,0.8,0.3v0.3h-3.5v-0.3
		c0.5,0,0.8-0.1,0.9-0.3c0.1-0.2,0.2-0.6,0.2-1.3v-4.3c0-0.6,0-1-0.1-1.1s-0.2-0.2-0.3-0.3s-0.4-0.1-0.8-0.1v-0.3h3.7v0.3
		c-0.4,0-0.6,0-0.7,0.1c-0.1,0.1-0.2,0.2-0.3,0.3s-0.1,0.5-0.1,1.1L140.3,60.8L140.3,60.8z M139.3,52c0-0.2,0.1-0.4,0.2-0.5
		s0.2-0.2,0.4-0.2c0.4,0,0.7,0.4,1,1.1c0.2,0.4,0.3,0.7,0.6,0.8c0.2,0.1,0.4,0.2,0.6,0.2c0.3,0,0.6-0.1,0.8-0.2
		c0.2-0.2,0.3-0.4,0.5-0.9c0.2-0.6,0.5-0.9,0.9-0.9c0.2,0,0.3,0.1,0.4,0.2s0.2,0.3,0.2,0.5c0,0.5-0.3,0.9-0.8,1.3s-1.2,0.6-1.9,0.6
		c-0.9,0-1.6-0.2-2-0.5C139.5,52.9,139.3,52.5,139.3,52z"/>
	<path d="M153.7,60.8l3.3-4c0-0.5-0.1-0.8-0.2-0.9c-0.1-0.2-0.4-0.3-0.8-0.3v-0.3h3.5v0.3c-0.4,0-0.6,0-0.7,0.1
		c-0.1,0.1-0.2,0.2-0.3,0.3s-0.1,0.5-0.1,1.1v4.3c0,0.6,0,1,0.1,1.1s0.2,0.2,0.3,0.3s0.4,0.1,0.8,0.1v0.3h-3.7v-0.3
		c0.5,0,0.8-0.1,0.9-0.3c0.2-0.2,0.2-0.6,0.2-1.3v-3.8l-3.3,4c0,0.5,0.1,0.8,0.2,1c0.1,0.2,0.4,0.3,0.8,0.3v0.3h-3.5v-0.3
		c0.5,0,0.8-0.1,0.9-0.3c0.1-0.2,0.2-0.6,0.2-1.3v-4.3c0-0.6,0-1-0.1-1.1s-0.2-0.2-0.3-0.3s-0.4-0.1-0.8-0.1v-0.3h3.7v0.3
		c-0.4,0-0.6,0-0.7,0.1c-0.1,0.1-0.2,0.2-0.3,0.3s-0.1,0.5-0.1,1.1L153.7,60.8L153.7,60.8z"/>
	<path d="M166.8,60.2c-0.2,1.1-0.6,1.9-1.2,2.5c-0.6,0.6-1.3,0.9-2,0.9c-0.9,0-1.6-0.4-2.3-1.2c-0.6-0.8-1-1.8-1-3.1
		s0.4-2.3,1.1-3.1c0.7-0.8,1.6-1.2,2.6-1.2c0.7,0,1.4,0.2,1.8,0.6c0.5,0.4,0.7,0.9,0.7,1.3c0,0.2-0.1,0.4-0.2,0.5
		c-0.1,0.1-0.3,0.2-0.6,0.2s-0.6-0.1-0.7-0.3c-0.1-0.1-0.2-0.4-0.2-0.7s-0.1-0.6-0.3-0.8s-0.5-0.3-0.8-0.3c-0.6,0-1,0.2-1.3,0.7
		c-0.4,0.6-0.7,1.3-0.7,2.3s0.2,1.8,0.7,2.5c0.4,0.7,1,1.1,1.8,1.1c0.5,0,1-0.2,1.5-0.6c0.3-0.3,0.6-0.8,0.9-1.5L166.8,60.2z"/>
	<path d="M167.8,55.2h6.6l0.3,2.2h-0.4c-0.1-0.4-0.2-0.8-0.3-1s-0.3-0.4-0.5-0.5s-0.5-0.1-1-0.1h-0.7v5.6c0,0.6,0,1,0.1,1.1
		c0.1,0.2,0.2,0.3,0.3,0.3s0.5,0.1,1.1,0.1v0.3h-4.1v-0.3c0.5,0,0.9-0.1,1-0.3c0.2-0.2,0.2-0.6,0.2-1.3v-5.6h-0.7
		c-0.5,0-0.8,0-1,0.1s-0.3,0.2-0.5,0.4s-0.3,0.6-0.4,1.1h-0.4L167.8,55.2z"/>
	<path d="M178.8,55c1.1,0,2.1,0.5,2.8,1.4c0.6,0.8,0.9,1.7,0.9,2.7c0,0.7-0.2,1.5-0.5,2.2s-0.8,1.3-1.3,1.7
		c-0.6,0.4-1.2,0.6-1.9,0.6c-1.1,0-2.1-0.5-2.7-1.5c-0.6-0.8-0.9-1.7-0.9-2.7c0-0.7,0.2-1.5,0.5-2.2s0.8-1.3,1.4-1.6
		S178.2,55,178.8,55z M178.6,55.5c-0.3,0-0.6,0.1-0.9,0.3c-0.3,0.2-0.5,0.5-0.7,1s-0.3,1.1-0.3,1.8c0,1.2,0.2,2.2,0.7,3
		c0.4,0.9,1,1.3,1.7,1.3c0.5,0,1-0.2,1.3-0.7s0.5-1.3,0.5-2.4c0-1.4-0.3-2.6-0.9-3.4C179.7,55.8,179.2,55.5,178.6,55.5z"/>
	<path d="M188.3,58.8v-1.7c0-0.6,0-0.9-0.1-1.1c-0.1-0.2-0.2-0.3-0.3-0.4c-0.2-0.1-0.4-0.1-0.7-0.1v-0.3h3.7v0.3
		c-0.4,0-0.6,0-0.8,0.1c-0.1,0.1-0.2,0.2-0.3,0.3s-0.1,0.5-0.1,1.1v4.3c0,0.6,0,0.9,0.1,1.1c0.1,0.2,0.2,0.3,0.3,0.4
		c0.2,0.1,0.4,0.1,0.8,0.1v0.3H187v-0.3c0.4,0,0.7,0,0.9-0.1c0.1,0,0.2-0.2,0.3-0.3c0.1-0.2,0.1-0.6,0.1-1.1v-2
		c-0.8,0.4-1.7,0.7-2.6,0.7c-0.5,0-0.9-0.1-1.1-0.2c-0.3-0.1-0.4-0.3-0.5-0.5s-0.1-0.5-0.1-0.8v-1.5c0-0.5,0-0.9-0.1-1
		c0-0.2-0.1-0.3-0.3-0.4s-0.4-0.1-0.7-0.1v-0.3h3.6v0.3c-0.4,0-0.6,0-0.7,0.1c-0.1,0.1-0.2,0.2-0.3,0.3s-0.1,0.5-0.1,1.1v1
		c0,0.4,0,0.6,0.1,0.8c0.1,0.1,0.2,0.2,0.4,0.3s0.5,0.1,0.8,0.1C187.2,59.3,187.7,59.2,188.3,58.8z"/>
	<path d="M194.1,58.8h3.3v-1.7c0-0.5,0-0.8-0.1-1c0-0.2-0.1-0.3-0.3-0.4s-0.4-0.2-0.8-0.2v-0.3h3.7v0.3c-0.3,0-0.6,0-0.8,0.1
		s-0.3,0.2-0.3,0.4c-0.1,0.2-0.1,0.5-0.1,1.1v4.3c0,0.5,0,0.8,0.1,1c0,0.2,0.1,0.3,0.3,0.4c0.2,0.1,0.4,0.2,0.8,0.2v0.3h-3.7V63
		c0.5,0,0.8-0.1,0.9-0.3c0.2-0.2,0.2-0.6,0.2-1.3v-2H194v2c0,0.5,0,0.8,0.1,1c0,0.2,0.1,0.3,0.3,0.4c0.2,0.1,0.4,0.2,0.8,0.2v0.3
		h-3.7V63c0.5,0,0.8-0.1,0.9-0.3c0.1-0.2,0.2-0.6,0.2-1.3v-4.3c0-0.5,0-0.8-0.1-1c0-0.2-0.1-0.3-0.3-0.4c-0.2-0.1-0.4-0.1-0.8-0.1
		v-0.3h3.7v0.3c-0.3,0-0.6,0-0.8,0.1s-0.3,0.2-0.3,0.4c-0.1,0.2-0.1,0.5-0.1,1.1v1.6H194.1z"/>
	<path d="M203.2,60.8l3.3-4c0-0.5-0.1-0.8-0.2-0.9c-0.1-0.2-0.4-0.3-0.8-0.3v-0.3h3.5v0.3c-0.4,0-0.6,0-0.7,0.1
		c-0.1,0.1-0.2,0.2-0.3,0.3s-0.1,0.5-0.1,1.1v4.3c0,0.6,0,1,0.1,1.1s0.2,0.2,0.3,0.3s0.4,0.1,0.8,0.1v0.3h-3.7v-0.3
		c0.5,0,0.8-0.1,0.9-0.3c0.2-0.2,0.2-0.6,0.2-1.3v-3.8l-3.3,4c0,0.5,0.1,0.8,0.2,1c0.1,0.2,0.4,0.3,0.8,0.3v0.3h-3.5v-0.3
		c0.5,0,0.8-0.1,0.9-0.3c0.1-0.2,0.2-0.6,0.2-1.3v-4.3c0-0.6,0-1-0.1-1.1s-0.2-0.2-0.3-0.3s-0.4-0.1-0.8-0.1v-0.3h3.7v0.3
		c-0.4,0-0.6,0-0.7,0.1c-0.1,0.1-0.2,0.2-0.3,0.3s-0.1,0.5-0.1,1.1L203.2,60.8L203.2,60.8z"/>
	<path d="M217.5,63.3h-2.2c-0.7-1.1-1.3-2.2-1.9-3.3c-0.1-0.3-0.3-0.5-0.4-0.6c-0.1-0.1-0.3-0.2-0.4-0.2c-0.1,0-0.2,0-0.3,0v2.2
		c0,0.6,0,1,0.1,1.1c0.1,0.2,0.2,0.3,0.3,0.3c0.2,0.1,0.4,0.1,0.8,0.1v0.3h-3.8v-0.3c0.5,0,0.8-0.1,0.9-0.3c0.1-0.2,0.2-0.6,0.2-1.3
		V57c0-0.6,0-1-0.1-1.1s-0.2-0.2-0.3-0.3s-0.4-0.1-0.8-0.1v-0.3h3.8v0.3c-0.5,0-0.7,0-0.8,0.1s-0.2,0.2-0.3,0.3s-0.1,0.5-0.1,1.2
		v1.6c0.1,0,0.2,0,0.3,0c0.3,0,0.7-0.1,0.9-0.3c0.3-0.2,0.6-0.6,0.8-1.3c0.2-0.6,0.4-1,0.5-1.3c0.1-0.2,0.3-0.4,0.6-0.5
		s0.5-0.2,0.8-0.2s0.5,0.1,0.7,0.2c0.2,0.2,0.3,0.4,0.3,0.6c0,0.2-0.1,0.4-0.2,0.5c-0.1,0.1-0.3,0.2-0.5,0.2c-0.1,0-0.3,0-0.5-0.1
		s-0.4-0.1-0.5-0.1c-0.3,0-0.5,0.2-0.6,0.7c-0.2,0.5-0.3,0.9-0.4,1c-0.1,0.2-0.3,0.4-0.5,0.6c0.2,0.1,0.4,0.2,0.6,0.4
		c0.2,0.2,0.6,0.8,1.1,1.9c0.4,0.8,0.8,1.3,1,1.5s0.5,0.3,0.9,0.3L217.5,63.3L217.5,63.3z"/>
</g>
<g>
	<path d="M76.1,85.8c0.8,0.2,1.4,0.5,1.7,0.8c0.5,0.5,0.8,1.2,0.8,2c0,0.6-0.2,1.2-0.5,1.7c-0.4,0.5-0.8,0.9-1.5,1.2
		s-1.6,0.4-2.8,0.4h-5.3v-0.3H69c0.5,0,0.8-0.2,1-0.5c0.1-0.2,0.2-0.6,0.2-1.3V82c0-0.7-0.1-1.2-0.2-1.4c-0.2-0.3-0.5-0.4-1-0.4
		h-0.4v-0.3h4.9c0.9,0,1.6,0.1,2.2,0.2c0.8,0.2,1.5,0.6,1.9,1.1s0.7,1.2,0.7,1.9c0,0.6-0.2,1.1-0.5,1.6
		C77.3,85.2,76.8,85.5,76.1,85.8z M71.8,85.3c0.2,0,0.4,0.1,0.7,0.1c0.3,0,0.6,0,0.9,0c0.8,0,1.4-0.1,1.8-0.3
		c0.4-0.2,0.7-0.5,0.9-0.8s0.3-0.8,0.3-1.3c0-0.7-0.3-1.3-0.8-1.8s-1.3-0.7-2.3-0.7c-0.6,0-1.1,0.1-1.5,0.2V85.3z M71.8,91
		c0.6,0.2,1.3,0.2,1.9,0.2c1,0,1.8-0.2,2.3-0.7s0.8-1.1,0.8-1.8c0-0.5-0.1-0.9-0.4-1.3c-0.2-0.4-0.6-0.8-1.2-1S74,86,73.3,86
		c-0.3,0-0.6,0-0.9,0s-0.4,0-0.6,0.1V91z"/>
	<path d="M80,83.8h6.6l0.3,2.2h-0.4c-0.1-0.4-0.2-0.8-0.3-1s-0.3-0.4-0.5-0.5s-0.5-0.1-1-0.1H84V90c0,0.6,0,1,0.1,1.1
		c0.1,0.2,0.2,0.3,0.3,0.3s0.5,0.1,1.1,0.1v0.3h-4.1v-0.3c0.5,0,0.9-0.1,1-0.3c0.2-0.2,0.2-0.6,0.2-1.3v-5.6h-0.7
		c-0.5,0-0.8,0-1,0.1s-0.3,0.2-0.5,0.4s-0.3,0.6-0.4,1.1h-0.4L80,83.8z"/>
	<path d="M91.1,83.6c1.1,0,2.1,0.5,2.8,1.4c0.6,0.8,0.9,1.7,0.9,2.7c0,0.7-0.2,1.5-0.5,2.2s-0.8,1.3-1.3,1.7
		c-0.6,0.4-1.2,0.6-1.9,0.6c-1.1,0-2.1-0.5-2.7-1.5c-0.6-0.8-0.9-1.7-0.9-2.7c0-0.7,0.2-1.5,0.5-2.2s0.8-1.3,1.4-1.6
		S90.4,83.6,91.1,83.6z M90.8,84.1c-0.3,0-0.6,0.1-0.9,0.3c-0.3,0.2-0.5,0.5-0.7,1s-0.3,1.1-0.3,1.8c0,1.2,0.2,2.2,0.7,3
		c0.4,0.9,1,1.3,1.7,1.3c0.5,0,1-0.2,1.3-0.7s0.5-1.3,0.5-2.4c0-1.4-0.3-2.6-0.9-3.4C91.9,84.4,91.4,84.1,90.8,84.1z"/>
	<path d="M95.3,84.6l2.3-1h0.3v1.9c0.4-0.7,0.8-1.2,1.2-1.5c0.4-0.3,0.8-0.4,1.2-0.4c0.8,0,1.4,0.3,1.9,1c0.6,0.8,0.9,1.8,0.9,3
		c0,1.4-0.4,2.5-1.1,3.5c-0.6,0.7-1.4,1.1-2.3,1.1c-0.4,0-0.8-0.1-1.1-0.2c-0.2-0.1-0.5-0.3-0.7-0.5V94c0,0.6,0,0.9,0.1,1.1
		c0.1,0.1,0.2,0.3,0.3,0.4c0.2,0.1,0.4,0.1,0.9,0.1v0.3h-4v-0.3h0.2c0.3,0,0.6-0.1,0.8-0.2c0.1-0.1,0.2-0.2,0.2-0.3
		c0.1-0.1,0.1-0.5,0.1-1.1v-7.6c0-0.5,0-0.9-0.1-1c0-0.1-0.1-0.2-0.2-0.3C96.1,85,96,85,95.8,85c-0.1,0-0.3,0-0.5,0.1L95.3,84.6z
		 M97.9,86v3c0,0.7,0,1.1,0.1,1.3c0.1,0.3,0.3,0.6,0.6,0.9s0.7,0.4,1.1,0.4c0.6,0,1-0.2,1.3-0.7c0.4-0.6,0.7-1.4,0.7-2.5
		c0-1.2-0.3-2.2-0.8-2.8c-0.4-0.5-0.8-0.7-1.3-0.7c-0.3,0-0.5,0.1-0.8,0.2C98.7,85.1,98.4,85.5,97.9,86z"/>
	<path d="M106.7,89.4l3.3-4c0-0.5-0.1-0.8-0.2-0.9c-0.1-0.2-0.4-0.3-0.8-0.3v-0.3h3.5v0.3c-0.4,0-0.6,0-0.7,0.1s-0.2,0.2-0.3,0.3
		c-0.1,0.1-0.1,0.5-0.1,1.1V90c0,0.6,0,1,0.1,1.1s0.2,0.2,0.3,0.3c0.1,0.1,0.4,0.1,0.8,0.1v0.3h-3.7v-0.3c0.5,0,0.8-0.1,0.9-0.3
		c0.2-0.2,0.2-0.6,0.2-1.3v-3.8l-3.3,4c0,0.5,0.1,0.8,0.2,1s0.4,0.3,0.8,0.3v0.3h-3.5v-0.3c0.5,0,0.8-0.1,0.9-0.3
		c0.1-0.2,0.2-0.6,0.2-1.3v-4.3c0-0.6,0-1-0.1-1.1s-0.2-0.2-0.3-0.3c-0.1-0.1-0.4-0.1-0.8-0.1v-0.3h3.7V84c-0.4,0-0.6,0-0.7,0.1
		s-0.2,0.2-0.3,0.3c-0.1,0.1-0.1,0.5-0.1,1.1V89.4z"/>
	<path d="M118.5,87.4v-1.7c0-0.6,0-0.9-0.1-1.1s-0.2-0.3-0.3-0.4c-0.2-0.1-0.4-0.1-0.7-0.1v-0.3h3.7v0.3c-0.4,0-0.6,0-0.8,0.1
		c-0.1,0.1-0.2,0.2-0.3,0.3c-0.1,0.1-0.1,0.5-0.1,1.1V90c0,0.6,0,0.9,0.1,1.1s0.2,0.3,0.3,0.4c0.2,0.1,0.4,0.1,0.8,0.1v0.3h-3.9
		v-0.3c0.4,0,0.7,0,0.9-0.1c0.1,0,0.2-0.2,0.3-0.3c0.1-0.2,0.1-0.6,0.1-1.1v-2c-0.8,0.4-1.7,0.7-2.6,0.7c-0.5,0-0.9-0.1-1.1-0.2
		c-0.3-0.1-0.4-0.3-0.5-0.5s-0.1-0.5-0.1-0.8v-1.5c0-0.5,0-0.9-0.1-1c0-0.2-0.1-0.3-0.3-0.4s-0.4-0.1-0.7-0.1V84h3.6v0.3
		c-0.4,0-0.6,0-0.7,0.1s-0.2,0.2-0.3,0.3c-0.1,0.1-0.1,0.5-0.1,1.1v1c0,0.4,0,0.6,0.1,0.8c0.1,0.1,0.2,0.2,0.4,0.3
		c0.2,0.1,0.5,0.1,0.8,0.1C117.4,87.9,118,87.8,118.5,87.4z"/>
	<path d="M124.3,87.4h3.3v-1.7c0-0.5,0-0.8-0.1-1c0-0.2-0.1-0.3-0.3-0.4s-0.4-0.2-0.8-0.2v-0.3h3.7v0.3c-0.3,0-0.6,0-0.8,0.1
		s-0.3,0.2-0.3,0.4c-0.1,0.2-0.1,0.5-0.1,1.1V90c0,0.5,0,0.8,0.1,1c0,0.2,0.1,0.3,0.3,0.4s0.4,0.2,0.8,0.2v0.3h-3.7v-0.3
		c0.5,0,0.8-0.1,0.9-0.3c0.2-0.2,0.2-0.6,0.2-1.3v-2h-3.3v2c0,0.5,0,0.8,0.1,1c0,0.2,0.1,0.3,0.3,0.4c0.2,0.1,0.4,0.2,0.8,0.2v0.3
		h-3.7v-0.3c0.5,0,0.8-0.1,0.9-0.3c0.1-0.2,0.2-0.6,0.2-1.3v-4.3c0-0.5,0-0.8-0.1-1c0-0.2-0.1-0.3-0.3-0.4c-0.2-0.1-0.4-0.1-0.8-0.1
		v-0.3h3.7v0.3c-0.3,0-0.6,0-0.8,0.1c-0.2,0.1-0.3,0.2-0.3,0.4c-0.1,0.2-0.1,0.5-0.1,1.1v1.6H124.3z"/>
	<path d="M133.4,87.4h0.9c2.3,0,3.4,0.7,3.4,2.2c0,0.7-0.3,1.2-0.8,1.7s-1.3,0.6-2.4,0.6h-3.6v-0.3c0.5,0,0.8-0.1,0.9-0.3
		c0.1-0.2,0.2-0.6,0.2-1.3v-4.3c0-0.6,0-1-0.1-1.1s-0.2-0.2-0.3-0.3c-0.1-0.1-0.4-0.1-0.8-0.1v-0.3h4v0.3c-0.5,0-0.9,0-1,0.1
		s-0.2,0.2-0.3,0.3c-0.1,0.1-0.1,0.5-0.1,1.2L133.4,87.4L133.4,87.4z M133.4,91.2c0.3,0.1,0.6,0.1,0.9,0.1c0.6,0,1-0.2,1.3-0.5
		s0.5-0.7,0.5-1.2c0-1.1-0.7-1.7-2.2-1.7c-0.1,0-0.3,0-0.5,0V91.2z M137.7,84.1v-0.3h3.8v0.3c-0.3,0-0.6,0-0.7,0.1s-0.3,0.2-0.3,0.4
		c-0.1,0.2-0.1,0.5-0.1,1.1V90c0,0.6,0,0.9,0.1,1.1c0,0.2,0.2,0.3,0.3,0.4c0.2,0.1,0.4,0.1,0.8,0.1v0.3h-3.8v-0.3
		c0.4,0,0.7,0,0.8-0.1s0.2-0.2,0.3-0.3c0.1-0.2,0.1-0.6,0.1-1.1v-4.3c0-0.6,0-0.9-0.1-1.1s-0.2-0.3-0.3-0.3
		C138.4,84.2,138.1,84.1,137.7,84.1z"/>
	<path d="M144.8,89.4l3.3-4c0-0.5-0.1-0.8-0.2-0.9c-0.1-0.2-0.4-0.3-0.8-0.3v-0.3h3.5v0.3c-0.4,0-0.6,0-0.7,0.1
		c-0.1,0.1-0.2,0.2-0.3,0.3c-0.1,0.1-0.1,0.5-0.1,1.1V90c0,0.6,0,1,0.1,1.1s0.2,0.2,0.3,0.3c0.1,0.1,0.4,0.1,0.8,0.1v0.3H147v-0.3
		c0.5,0,0.8-0.1,0.9-0.3c0.2-0.2,0.2-0.6,0.2-1.3v-3.8l-3.3,4c0,0.5,0.1,0.8,0.2,1c0.1,0.2,0.4,0.3,0.8,0.3v0.3h-3.5v-0.3
		c0.5,0,0.8-0.1,0.9-0.3c0.1-0.2,0.2-0.6,0.2-1.3v-4.3c0-0.6,0-1-0.1-1.1s-0.2-0.2-0.3-0.3c-0.1-0.1-0.4-0.1-0.8-0.1v-0.3h3.7V84
		c-0.4,0-0.6,0-0.7,0.1c-0.1,0.1-0.2,0.2-0.3,0.3c-0.1,0.1-0.1,0.5-0.1,1.1L144.8,89.4L144.8,89.4z M143.7,80.6
		c0-0.2,0.1-0.4,0.2-0.5s0.2-0.2,0.4-0.2c0.4,0,0.7,0.4,1,1.1c0.2,0.4,0.3,0.7,0.6,0.8c0.2,0.1,0.4,0.2,0.6,0.2
		c0.3,0,0.6-0.1,0.8-0.2c0.2-0.2,0.3-0.4,0.5-0.9c0.2-0.6,0.5-0.9,0.9-0.9c0.2,0,0.3,0.1,0.4,0.2s0.2,0.3,0.2,0.5
		c0,0.5-0.3,0.9-0.8,1.3s-1.2,0.6-1.9,0.6c-0.9,0-1.6-0.2-2-0.5C143.9,81.5,143.7,81.1,143.7,80.6z"/>
	<path d="M156.5,83.8h6.8v0.3c-0.4,0-0.6,0-0.8,0.1c-0.1,0.1-0.2,0.2-0.3,0.3c-0.1,0.1-0.1,0.5-0.1,1.1V90c0,0.6,0,1,0.1,1.1
		s0.2,0.2,0.3,0.3c0.1,0.1,0.4,0.1,0.8,0.1v0.3h-3.9v-0.3c0.4,0,0.7,0,0.9-0.1s0.3-0.2,0.4-0.3c0.1-0.2,0.1-0.6,0.1-1.2v-5.6h-2.5
		v3.4c0,1.3-0.1,2.2-0.2,2.7c-0.1,0.5-0.3,0.9-0.6,1.2c-0.3,0.2-0.7,0.4-1.1,0.4c-0.7,0-1.1-0.3-1.1-0.9c0-0.2,0.1-0.4,0.2-0.5
		c0.1-0.1,0.3-0.2,0.4-0.2c0.2,0,0.4,0.1,0.5,0.3c0.2,0.2,0.4,0.3,0.5,0.3c0.2,0,0.4-0.2,0.5-0.7c0.1-0.4,0.2-1.2,0.2-2.3v-1.8
		c0-0.9-0.1-1.5-0.2-1.7c-0.1-0.2-0.4-0.3-1-0.4v-0.3H156.5z"/>
	<path d="M163.8,83.8h3.5v0.3h-0.2c-0.2,0-0.4,0.1-0.6,0.2c-0.1,0.1-0.2,0.3-0.2,0.4c0,0.2,0.1,0.5,0.3,1l1.8,4.1l1.7-4.5
		c0.1-0.2,0.1-0.5,0.1-0.7c0-0.1,0-0.2-0.1-0.2c0-0.1-0.1-0.1-0.2-0.2c-0.1,0-0.3-0.1-0.5-0.1v-0.3h2.5v0.3c-0.2,0-0.4,0.1-0.5,0.1
		c-0.1,0.1-0.2,0.2-0.4,0.4c0,0.1-0.1,0.3-0.3,0.7l-3.1,8c-0.3,0.8-0.7,1.4-1.2,1.8s-0.9,0.6-1.4,0.6c-0.3,0-0.6-0.1-0.8-0.3
		c-0.2-0.2-0.3-0.4-0.3-0.7c0-0.2,0.1-0.4,0.2-0.6c0.2-0.1,0.4-0.2,0.6-0.2c0.2,0,0.4,0.1,0.7,0.2c0.2,0.1,0.4,0.1,0.4,0.1
		c0.2,0,0.3-0.1,0.5-0.3c0.2-0.2,0.4-0.5,0.6-1.1l0.5-1.4l-2.7-6.1c-0.1-0.2-0.2-0.4-0.4-0.7c-0.1-0.2-0.3-0.3-0.3-0.4
		c-0.1-0.1-0.3-0.2-0.6-0.2v-0.2H163.8z"/>
	<path d="M177.8,87.4v-1.7c0-0.6,0-0.9-0.1-1.1s-0.2-0.3-0.3-0.4c-0.2-0.1-0.4-0.1-0.7-0.1v-0.3h3.7v0.3c-0.4,0-0.6,0-0.8,0.1
		c-0.1,0.1-0.2,0.2-0.3,0.3c-0.1,0.1-0.1,0.5-0.1,1.1V90c0,0.6,0,0.9,0.1,1.1s0.2,0.3,0.3,0.4c0.2,0.1,0.4,0.1,0.8,0.1v0.3h-3.9
		v-0.3c0.4,0,0.7,0,0.9-0.1c0.1,0,0.2-0.2,0.3-0.3c0.1-0.2,0.1-0.6,0.1-1.1v-2c-0.8,0.4-1.7,0.7-2.6,0.7c-0.5,0-0.9-0.1-1.1-0.2
		c-0.3-0.1-0.4-0.3-0.5-0.5s-0.1-0.5-0.1-0.8v-1.5c0-0.5,0-0.9-0.1-1c0-0.2-0.1-0.3-0.3-0.4s-0.4-0.1-0.7-0.1V84h3.6v0.3
		c-0.4,0-0.6,0-0.7,0.1c-0.1,0.1-0.2,0.2-0.3,0.3c-0.1,0.1-0.1,0.5-0.1,1.1v1c0,0.4,0,0.6,0.1,0.8c0.1,0.1,0.2,0.2,0.4,0.3
		c0.2,0.1,0.5,0.1,0.8,0.1C176.7,87.9,177.3,87.8,177.8,87.4z"/>
	<path d="M191.2,84.4h-3.3V90c0,0.6,0,1,0.1,1.1s0.2,0.2,0.3,0.3c0.1,0.1,0.4,0.1,0.8,0.1v0.3h-3.7v-0.3c0.5,0,0.8-0.1,0.9-0.3
		c0.1-0.2,0.2-0.6,0.2-1.3v-4.3c0-0.6,0-1-0.1-1.1s-0.2-0.2-0.3-0.3c-0.1-0.1-0.4-0.1-0.8-0.1v-0.3h8.3v0.3c-0.4,0-0.6,0-0.7,0.1
		c-0.1,0.1-0.2,0.2-0.3,0.3c-0.1,0.1-0.1,0.5-0.1,1.1V90c0,0.6,0,1,0.1,1.1s0.2,0.2,0.3,0.3c0.1,0.1,0.4,0.1,0.8,0.1v0.3H190v-0.3
		c0.5,0,0.8-0.1,0.9-0.3c0.2-0.2,0.2-0.6,0.2-1.3v-5.5H191.2z"/>
	<path d="M198.3,83.6c1.1,0,2.1,0.5,2.8,1.4c0.6,0.8,0.9,1.7,0.9,2.7c0,0.7-0.2,1.5-0.5,2.2s-0.8,1.3-1.3,1.7
		c-0.6,0.4-1.2,0.6-1.9,0.6c-1.1,0-2.1-0.5-2.7-1.5c-0.6-0.8-0.9-1.7-0.9-2.7c0-0.7,0.2-1.5,0.5-2.2s0.8-1.3,1.4-1.6
		S197.7,83.6,198.3,83.6z M198,84.1c-0.3,0-0.6,0.1-0.9,0.3c-0.3,0.2-0.5,0.5-0.7,1s-0.3,1.1-0.3,1.8c0,1.2,0.2,2.2,0.7,3
		c0.4,0.9,1,1.3,1.7,1.3c0.5,0,1-0.2,1.3-0.7s0.5-1.3,0.5-2.4c0-1.4-0.3-2.6-0.9-3.4C199.1,84.4,198.6,84.1,198,84.1z"/>
	<path d="M208.7,84.4h-3.3V90c0,0.6,0,1,0.1,1.1s0.2,0.2,0.3,0.3c0.1,0.1,0.4,0.1,0.8,0.1v0.3h-3.7v-0.3c0.5,0,0.8-0.1,0.9-0.3
		c0.1-0.2,0.2-0.6,0.2-1.3v-4.3c0-0.6,0-1-0.1-1.1s-0.2-0.2-0.3-0.3c-0.1-0.1-0.4-0.1-0.8-0.1v-0.3h8.3v0.3c-0.4,0-0.6,0-0.7,0.1
		c-0.1,0.1-0.2,0.2-0.3,0.3c-0.1,0.1-0.1,0.5-0.1,1.1V90c0,0.6,0,1,0.1,1.1s0.2,0.2,0.3,0.3c0.1,0.1,0.4,0.1,0.8,0.1v0.3h-3.7v-0.3
		c0.5,0,0.8-0.1,0.9-0.3c0.2-0.2,0.2-0.6,0.2-1.3v-5.5H208.7z"/>
	<path d="M216.5,90.7c-0.8,0.6-1.3,1-1.5,1.1c-0.3,0.1-0.6,0.2-1,0.2c-0.5,0-1-0.2-1.3-0.6s-0.5-0.9-0.5-1.5c0-0.4,0.1-0.7,0.2-1
		c0.2-0.4,0.6-0.8,1.2-1.1c0.6-0.4,1.5-0.8,2.8-1.3v-0.3c0-0.8-0.1-1.4-0.4-1.7c-0.2-0.3-0.6-0.4-1-0.4c-0.3,0-0.6,0.1-0.8,0.3
		c-0.2,0.2-0.3,0.4-0.3,0.7v0.5c0,0.3-0.1,0.5-0.2,0.6c-0.1,0.1-0.3,0.2-0.5,0.2s-0.4-0.1-0.5-0.2c-0.1-0.2-0.2-0.4-0.2-0.6
		c0-0.5,0.2-1,0.7-1.4s1.2-0.6,2-0.6c0.7,0,1.2,0.1,1.7,0.4c0.3,0.2,0.6,0.5,0.7,0.9c0.1,0.3,0.1,0.8,0.1,1.5v2.7c0,0.8,0,1.2,0,1.4
		c0,0.2,0.1,0.3,0.1,0.3s0.1,0.1,0.2,0.1c0.1,0,0.2,0,0.2-0.1c0.1-0.1,0.3-0.3,0.7-0.6v0.5c-0.6,0.9-1.2,1.3-1.8,1.3
		c-0.3,0-0.5-0.1-0.6-0.3C216.5,91.5,216.5,91.2,216.5,90.7z M216.5,90.1V87c-0.8,0.4-1.4,0.6-1.6,0.7c-0.4,0.3-0.7,0.5-0.9,0.8
		s-0.3,0.6-0.3,0.9c0,0.4,0.1,0.8,0.4,1.1c0.2,0.3,0.5,0.4,0.8,0.4C215.2,91,215.8,90.7,216.5,90.1z"/>
	<path d="M220.7,83.8h6.7v0.3c-0.4,0-0.6,0-0.8,0.1c-0.1,0.1-0.2,0.2-0.3,0.3c-0.1,0.1-0.1,0.5-0.1,1.1v4c0,0.8,0.1,1.4,0.2,1.5
		c0.1,0.2,0.5,0.3,0.9,0.3V94H227c0-0.5-0.1-0.9-0.3-1.3s-0.5-0.6-0.8-0.8c-0.4-0.1-0.9-0.2-1.6-0.2h-2c-0.6,0-1.1,0.1-1.4,0.2
		c-0.3,0.1-0.6,0.4-0.9,0.7c-0.2,0.4-0.4,0.8-0.4,1.3h-0.3v-2.6c0.5,0,0.9-0.2,1.2-0.6c0.4-0.4,0.7-1.1,1-2.1
		c0.3-1.1,0.4-2.1,0.4-3.1s-0.4-1.5-1.3-1.6v-0.1H220.7z M222.6,84.4v0.5c0,2.9-0.5,5-1.5,6.4h2.8c0.5,0,0.8,0,0.9-0.1
		c0.1-0.1,0.1-0.4,0.1-1v-5.8H222.6z"/>
	<path d="M232.6,90.7c-0.8,0.6-1.3,1-1.5,1.1c-0.3,0.1-0.6,0.2-1,0.2c-0.5,0-1-0.2-1.3-0.6s-0.5-0.9-0.5-1.5c0-0.4,0.1-0.7,0.2-1
		c0.2-0.4,0.6-0.8,1.2-1.1c0.6-0.4,1.5-0.8,2.8-1.3v-0.3c0-0.8-0.1-1.4-0.4-1.7c-0.2-0.3-0.6-0.4-1-0.4c-0.3,0-0.6,0.1-0.8,0.3
		c-0.2,0.2-0.3,0.4-0.3,0.7v0.5c0,0.3-0.1,0.5-0.2,0.6c-0.1,0.1-0.3,0.2-0.5,0.2s-0.4-0.1-0.5-0.2c-0.1-0.2-0.2-0.4-0.2-0.6
		c0-0.5,0.2-1,0.7-1.4s1.2-0.6,2-0.6c0.7,0,1.2,0.1,1.7,0.4c0.3,0.2,0.6,0.5,0.7,0.9c0.1,0.3,0.1,0.8,0.1,1.5v2.7c0,0.8,0,1.2,0,1.4
		c0,0.2,0.1,0.3,0.1,0.3s0.1,0.1,0.2,0.1c0.1,0,0.2,0,0.2-0.1c0.1-0.1,0.3-0.3,0.7-0.6v0.5c-0.6,0.9-1.2,1.3-1.8,1.3
		c-0.3,0-0.5-0.1-0.6-0.3C232.7,91.5,232.6,91.2,232.6,90.7z M232.6,90.1V87c-0.8,0.4-1.4,0.6-1.6,0.7c-0.4,0.3-0.7,0.5-0.9,0.8
		s-0.3,0.6-0.3,0.9c0,0.4,0.1,0.8,0.4,1.1c0.2,0.3,0.5,0.4,0.8,0.4C231.4,91,231.9,90.7,232.6,90.1z"/>
	<path d="M237.1,86.8c0,1.2,0.3,2.1,0.8,2.8s1.2,1,1.9,1c0.5,0,0.9-0.1,1.3-0.4s0.7-0.8,0.9-1.5l0.3,0.2c-0.1,0.8-0.5,1.5-1,2.2
		c-0.6,0.7-1.3,1-2.1,1c-0.9,0-1.7-0.4-2.3-1.1c-0.6-0.8-1-1.8-1-3c0-1.4,0.3-2.5,1-3.2c0.7-0.8,1.5-1.2,2.5-1.2
		c0.9,0,1.5,0.3,2.1,0.9c0.5,0.6,0.8,1.4,0.8,2.4h-5.2V86.8z M237.1,86.3h3.5c0-0.5-0.1-0.9-0.2-1.1c-0.1-0.3-0.3-0.6-0.6-0.8
		c-0.3-0.2-0.6-0.3-0.9-0.3c-0.5,0-0.9,0.2-1.2,0.6C237.4,85.1,237.2,85.6,237.1,86.3z"/>
	<path d="M243.3,83.8h6.6l0.3,2.2h-0.4c-0.1-0.4-0.2-0.8-0.3-1c-0.2-0.2-0.3-0.4-0.5-0.5s-0.5-0.1-1-0.1h-0.7V90c0,0.6,0,1,0.1,1.1
		c0.1,0.2,0.2,0.3,0.3,0.3c0.2,0.1,0.5,0.1,1.1,0.1v0.3h-4.1v-0.3c0.5,0,0.9-0.1,1-0.3c0.2-0.2,0.2-0.6,0.2-1.3v-5.6h-0.7
		c-0.5,0-0.8,0-1,0.1s-0.3,0.2-0.5,0.4c-0.2,0.2-0.3,0.6-0.4,1.1H243L243.3,83.8z"/>
	<path d="M73.6,105.6c1.4,0.3,2.1,1,2.1,2.1c0,0.7-0.3,1.3-0.9,1.6c-0.6,0.4-1.4,0.5-2.4,0.5h-3.7v-0.3c0.5,0,0.8-0.1,0.9-0.3
		c0.1-0.2,0.2-0.6,0.2-1.3v-4.3c0-0.6,0-1-0.1-1.1s-0.1-0.2-0.3-0.3c-0.1-0.1-0.4-0.1-0.8-0.1v-0.3h3.5c0.7,0,1.2,0.1,1.6,0.2
		s0.8,0.3,1,0.7s0.4,0.7,0.4,1.2C75.3,104.8,74.7,105.3,73.6,105.6z M71.2,105.4c0.2,0,0.4,0,0.4,0c0.8,0,1.3-0.2,1.6-0.5
		c0.3-0.3,0.5-0.7,0.5-1.1c0-0.5-0.2-0.9-0.5-1.1s-0.9-0.3-1.6-0.3h-0.4V105.4z M71.2,109.2c0.3,0.1,0.6,0.1,1,0.1
		c0.7,0,1.1-0.2,1.5-0.5c0.3-0.3,0.5-0.7,0.5-1.2s-0.2-1-0.6-1.2c-0.4-0.3-1-0.4-1.7-0.4c-0.2,0-0.4,0-0.6,0v3.2H71.2z"/>
	<path d="M86.7,102.4h-3.3v5.6c0,0.6,0,1,0.1,1.1s0.2,0.2,0.3,0.3c0.1,0.1,0.4,0.1,0.8,0.1v0.3h-3.7v-0.3c0.5,0,0.8-0.1,0.9-0.3
		c0.1-0.2,0.2-0.6,0.2-1.3v-4.3c0-0.6,0-1-0.1-1.1s-0.2-0.2-0.3-0.3c-0.1-0.1-0.4-0.1-0.8-0.1v-0.3h8.3v0.3c-0.4,0-0.6,0-0.7,0.1
		s-0.2,0.2-0.3,0.3c-0.1,0.1-0.1,0.5-0.1,1.1v4.3c0,0.6,0,1,0.1,1.1s0.2,0.2,0.3,0.3c0.1,0.1,0.4,0.1,0.8,0.1v0.3h-3.7v-0.3
		c0.5,0,0.8-0.1,0.9-0.3c0.2-0.2,0.2-0.6,0.2-1.3L86.7,102.4L86.7,102.4z"/>
	<path d="M91.4,104.9c0,1.2,0.3,2.1,0.8,2.8c0.6,0.7,1.2,1,1.9,1c0.5,0,0.9-0.1,1.3-0.4s0.7-0.8,0.9-1.5l0.3,0.2
		c-0.1,0.8-0.5,1.5-1,2.2s-1.3,1-2.1,1c-0.9,0-1.7-0.4-2.3-1.1c-0.6-0.8-1-1.8-1-3c0-1.4,0.3-2.5,1-3.2c0.7-0.8,1.5-1.2,2.5-1.2
		c0.9,0,1.6,0.3,2.1,0.9s0.8,1.4,0.8,2.4h-5.2V104.9z M91.4,104.3H95c0-0.5-0.1-0.9-0.2-1.1c-0.1-0.3-0.3-0.6-0.6-0.8
		c-0.3-0.2-0.6-0.3-0.9-0.3c-0.5,0-0.9,0.2-1.2,0.6C91.7,103.1,91.5,103.7,91.4,104.3z"/>
	<path d="M97.2,102.6l2.3-1h0.3v1.9c0.4-0.7,0.8-1.2,1.2-1.5c0.4-0.3,0.8-0.4,1.2-0.4c0.8,0,1.4,0.3,1.9,1c0.6,0.8,0.9,1.8,0.9,3
		c0,1.4-0.4,2.5-1.1,3.5c-0.6,0.7-1.4,1.1-2.3,1.1c-0.4,0-0.8-0.1-1.1-0.2c-0.2-0.1-0.5-0.3-0.7-0.5v2.5c0,0.6,0,0.9,0.1,1.1
		c0.1,0.1,0.2,0.3,0.3,0.4c0.2,0.1,0.4,0.1,0.9,0.1v0.3h-4v-0.3h0.2c0.3,0,0.6-0.1,0.8-0.2c0.1-0.1,0.2-0.2,0.2-0.3
		c0.1-0.1,0.1-0.5,0.1-1.1v-7.6c0-0.5,0-0.9-0.1-1c0-0.1-0.1-0.2-0.2-0.3c-0.1-0.1-0.2-0.1-0.4-0.1c-0.1,0-0.3,0-0.5,0.1L97.2,102.6
		z M99.8,104v3c0,0.7,0,1.1,0.1,1.3c0.1,0.3,0.3,0.6,0.6,0.9s0.7,0.4,1.1,0.4c0.6,0,1-0.2,1.3-0.7c0.4-0.6,0.7-1.4,0.7-2.5
		c0-1.2-0.3-2.2-0.8-2.8c-0.4-0.5-0.8-0.7-1.3-0.7c-0.3,0-0.5,0.1-0.8,0.2C100.6,103.2,100.3,103.5,99.8,104z"/>
	<path d="M107.5,104.9c0,1.2,0.3,2.1,0.8,2.8c0.6,0.7,1.2,1,1.9,1c0.5,0,0.9-0.1,1.3-0.4s0.7-0.8,0.9-1.5l0.3,0.2
		c-0.1,0.8-0.5,1.5-1,2.2s-1.3,1-2.1,1c-0.9,0-1.7-0.4-2.3-1.1c-0.6-0.8-1-1.8-1-3c0-1.4,0.3-2.5,1-3.2c0.7-0.8,1.5-1.2,2.5-1.2
		c0.9,0,1.6,0.3,2.1,0.9s0.8,1.4,0.8,2.4h-5.2V104.9z M107.5,104.3h3.5c0-0.5-0.1-0.9-0.2-1.1c-0.1-0.3-0.3-0.6-0.6-0.8
		c-0.3-0.2-0.6-0.3-0.9-0.3c-0.5,0-0.9,0.2-1.2,0.6C107.7,103.1,107.5,103.7,107.5,104.3z"/>
	<path d="M121.3,109.9h-2.2c-0.7-1.1-1.3-2.2-1.9-3.3c-0.1-0.3-0.3-0.5-0.4-0.6s-0.3-0.2-0.4-0.2s-0.2,0-0.3,0v2.2
		c0,0.6,0,1,0.1,1.1c0.1,0.2,0.2,0.3,0.3,0.3c0.2,0.1,0.4,0.1,0.8,0.1v0.3h-3.8v-0.3c0.5,0,0.8-0.1,0.9-0.3c0.1-0.2,0.2-0.6,0.2-1.3
		v-4.3c0-0.6,0-1-0.1-1.1s-0.2-0.2-0.3-0.3c-0.1-0.1-0.4-0.1-0.8-0.1v-0.3h3.8v0.3c-0.5,0-0.7,0-0.8,0.1c-0.1,0.1-0.2,0.2-0.3,0.3
		c-0.1,0.1-0.1,0.5-0.1,1.2v1.6c0.1,0,0.2,0,0.3,0c0.3,0,0.7-0.1,0.9-0.3c0.3-0.2,0.6-0.6,0.8-1.3c0.2-0.6,0.4-1,0.5-1.3
		c0.1-0.2,0.3-0.4,0.6-0.5c0.3-0.1,0.5-0.2,0.8-0.2s0.5,0.1,0.7,0.2c0.2,0.2,0.3,0.4,0.3,0.6s-0.1,0.4-0.2,0.5s-0.3,0.2-0.5,0.2
		c-0.1,0-0.3,0-0.5-0.1s-0.4-0.1-0.5-0.1c-0.3,0-0.5,0.2-0.6,0.7c-0.2,0.5-0.3,0.9-0.4,1c-0.1,0.2-0.3,0.4-0.5,0.6
		c0.2,0.1,0.4,0.2,0.6,0.4c0.2,0.2,0.6,0.8,1.1,1.9c0.4,0.8,0.8,1.3,1,1.5s0.5,0.3,0.9,0.3V109.9z"/>
	<path d="M121.4,102.6l2.3-1h0.3v1.9c0.4-0.7,0.8-1.2,1.2-1.5c0.4-0.3,0.8-0.4,1.2-0.4c0.8,0,1.4,0.3,1.9,1c0.6,0.8,0.9,1.8,0.9,3
		c0,1.4-0.4,2.5-1.1,3.5c-0.6,0.7-1.4,1.1-2.3,1.1c-0.4,0-0.8-0.1-1.1-0.2c-0.2-0.1-0.5-0.3-0.7-0.5v2.5c0,0.6,0,0.9,0.1,1.1
		c0.1,0.1,0.2,0.3,0.3,0.4c0.2,0.1,0.4,0.1,0.9,0.1v0.3h-4v-0.3h0.2c0.3,0,0.6-0.1,0.8-0.2c0.1-0.1,0.2-0.2,0.2-0.3
		c0.1-0.1,0.1-0.5,0.1-1.1v-7.6c0-0.5,0-0.9-0.1-1c0-0.1-0.1-0.2-0.2-0.3c-0.1-0.1-0.2-0.1-0.4-0.1c-0.1,0-0.3,0-0.5,0.1
		L121.4,102.6z M124.1,104v3c0,0.7,0,1.1,0.1,1.3c0.1,0.3,0.3,0.6,0.6,0.9s0.7,0.4,1.1,0.4c0.6,0,1-0.2,1.3-0.7
		c0.4-0.6,0.7-1.4,0.7-2.5c0-1.2-0.3-2.2-0.8-2.8c-0.4-0.5-0.8-0.7-1.3-0.7c-0.3,0-0.5,0.1-0.8,0.2
		C124.9,103.2,124.5,103.5,124.1,104z"/>
	<path d="M132.8,105.4h0.9c2.3,0,3.4,0.7,3.4,2.2c0,0.7-0.3,1.2-0.8,1.7s-1.3,0.6-2.4,0.6h-3.6v-0.3c0.5,0,0.8-0.1,0.9-0.3
		c0.1-0.2,0.2-0.6,0.2-1.3v-4.3c0-0.6,0-1-0.1-1.1s-0.2-0.2-0.3-0.3c-0.1-0.1-0.4-0.1-0.8-0.1v-0.3h4v0.3c-0.5,0-0.9,0-1,0.1
		s-0.2,0.2-0.3,0.3c-0.1,0.1-0.1,0.5-0.1,1.2L132.8,105.4L132.8,105.4z M132.8,109.2c0.3,0.1,0.6,0.1,0.9,0.1c0.6,0,1-0.2,1.3-0.5
		s0.5-0.7,0.5-1.2c0-1.1-0.7-1.7-2.2-1.7c-0.1,0-0.3,0-0.5,0V109.2z M137.1,102.2v-0.3h3.8v0.3c-0.3,0-0.6,0-0.7,0.1
		s-0.3,0.2-0.3,0.4c-0.1,0.2-0.1,0.5-0.1,1.1v4.3c0,0.6,0,0.9,0.1,1.1c0,0.2,0.2,0.3,0.3,0.4c0.2,0.1,0.4,0.1,0.8,0.1v0.3h-3.8v-0.3
		c0.4,0,0.7,0,0.8-0.1s0.2-0.2,0.3-0.3c0.1-0.2,0.1-0.6,0.1-1.1v-4.3c0-0.6,0-0.9-0.1-1.1s-0.2-0.3-0.3-0.3
		C137.9,102.2,137.6,102.2,137.1,102.2z"/>
	<path d="M141.7,101.8h6.6l0.3,2.2h-0.4c-0.1-0.4-0.2-0.8-0.3-1s-0.3-0.4-0.5-0.5s-0.5-0.1-1-0.1h-0.7v5.6c0,0.6,0,1,0.1,1.1
		c0.1,0.2,0.2,0.3,0.3,0.3s0.5,0.1,1.1,0.1v0.3h-4.1v-0.3c0.5,0,0.9-0.1,1-0.3c0.2-0.2,0.2-0.6,0.2-1.3v-5.6h-0.7
		c-0.5,0-0.8,0-1,0.1s-0.3,0.2-0.5,0.4s-0.3,0.6-0.4,1.1h-0.4L141.7,101.8z"/>
	<path d="M151.6,105.4h0.9c2.3,0,3.4,0.7,3.4,2.2c0,0.7-0.3,1.2-0.8,1.7s-1.3,0.6-2.4,0.6h-3.6v-0.3c0.5,0,0.8-0.1,0.9-0.3
		c0.1-0.2,0.2-0.6,0.2-1.3v-4.3c0-0.6,0-1-0.1-1.1s-0.2-0.2-0.3-0.3c-0.1-0.1-0.4-0.1-0.8-0.1v-0.3h4v0.3c-0.5,0-0.9,0-1,0.1
		s-0.2,0.2-0.3,0.3c-0.1,0.1-0.1,0.5-0.1,1.2L151.6,105.4L151.6,105.4z M151.6,109.2c0.3,0.1,0.6,0.1,0.9,0.1c0.6,0,1-0.2,1.3-0.5
		s0.5-0.7,0.5-1.2c0-1.1-0.7-1.7-2.2-1.7c-0.1,0-0.3,0-0.5,0V109.2z M156,102.2v-0.3h3.8v0.3c-0.3,0-0.6,0-0.7,0.1s-0.3,0.2-0.3,0.4
		c-0.1,0.2-0.1,0.5-0.1,1.1v4.3c0,0.6,0,0.9,0.1,1.1c0,0.2,0.2,0.3,0.3,0.4c0.2,0.1,0.4,0.1,0.8,0.1v0.3H156v-0.3
		c0.4,0,0.7,0,0.8-0.1s0.2-0.2,0.3-0.3c0.1-0.2,0.1-0.6,0.1-1.1v-4.3c0-0.6,0-0.9-0.1-1.1s-0.2-0.3-0.3-0.3
		C156.7,102.2,156.4,102.2,156,102.2z"/>
	<path d="M163.1,107.4l3.3-4c0-0.5-0.1-0.8-0.2-0.9c-0.1-0.2-0.4-0.3-0.8-0.3v-0.3h3.5v0.3c-0.4,0-0.6,0-0.7,0.1
		c-0.1,0.1-0.2,0.2-0.3,0.3c-0.1,0.1-0.1,0.5-0.1,1.1v4.3c0,0.6,0,1,0.1,1.1s0.2,0.2,0.3,0.3c0.1,0.1,0.4,0.1,0.8,0.1v0.3h-3.7v-0.3
		c0.5,0,0.8-0.1,0.9-0.3c0.2-0.2,0.2-0.6,0.2-1.3v-3.8l-3.3,4c0,0.5,0.1,0.8,0.2,1c0.1,0.2,0.4,0.3,0.8,0.3v0.3h-3.5v-0.3
		c0.5,0,0.8-0.1,0.9-0.3c0.1-0.2,0.2-0.6,0.2-1.3v-4.3c0-0.6,0-1-0.1-1.1s-0.2-0.2-0.3-0.3c-0.1-0.1-0.4-0.1-0.8-0.1v-0.3h3.7v0.3
		c-0.4,0-0.6,0-0.7,0.1c-0.1,0.1-0.2,0.2-0.3,0.3c-0.1,0.1-0.1,0.5-0.1,1.1L163.1,107.4L163.1,107.4z M162,98.6
		c0-0.2,0.1-0.4,0.2-0.5s0.2-0.2,0.4-0.2c0.4,0,0.7,0.4,1,1.1c0.2,0.4,0.3,0.7,0.6,0.8c0.2,0.1,0.4,0.2,0.6,0.2
		c0.3,0,0.6-0.1,0.8-0.2c0.2-0.2,0.3-0.4,0.5-0.9c0.2-0.6,0.5-0.9,0.9-0.9c0.2,0,0.3,0.1,0.4,0.2s0.2,0.3,0.2,0.5
		c0,0.5-0.3,0.9-0.8,1.3s-1.2,0.6-1.9,0.6c-0.9,0-1.6-0.2-2-0.5C162.2,99.5,162,99.1,162,98.6z"/>
	<path d="M176.4,107.4l3.3-4c0-0.5-0.1-0.8-0.2-0.9c-0.1-0.2-0.4-0.3-0.8-0.3v-0.3h3.5v0.3c-0.4,0-0.6,0-0.7,0.1
		c-0.1,0.1-0.2,0.2-0.3,0.3c-0.1,0.1-0.1,0.5-0.1,1.1v4.3c0,0.6,0,1,0.1,1.1s0.2,0.2,0.3,0.3c0.1,0.1,0.4,0.1,0.8,0.1v0.3h-3.7v-0.3
		c0.5,0,0.8-0.1,0.9-0.3c0.2-0.2,0.2-0.6,0.2-1.3v-3.8l-3.3,4c0,0.5,0.1,0.8,0.2,1c0.1,0.2,0.4,0.3,0.8,0.3v0.3h-3.5v-0.3
		c0.5,0,0.8-0.1,0.9-0.3c0.1-0.2,0.2-0.6,0.2-1.3v-4.3c0-0.6,0-1-0.1-1.1s-0.2-0.2-0.3-0.3c-0.1-0.1-0.4-0.1-0.8-0.1v-0.3h3.7v0.3
		c-0.4,0-0.6,0-0.7,0.1c-0.1,0.1-0.2,0.2-0.3,0.3c-0.1,0.1-0.1,0.5-0.1,1.1L176.4,107.4L176.4,107.4z"/>
	<path d="M189.6,106.8c-0.2,1.1-0.6,1.9-1.2,2.5c-0.6,0.6-1.3,0.9-2,0.9c-0.9,0-1.6-0.4-2.3-1.2c-0.6-0.8-1-1.8-1-3.1
		c0-1.3,0.4-2.3,1.1-3.1c0.7-0.8,1.6-1.2,2.6-1.2c0.7,0,1.4,0.2,1.8,0.6c0.5,0.4,0.7,0.9,0.7,1.3c0,0.2-0.1,0.4-0.2,0.5
		c-0.1,0.1-0.3,0.2-0.6,0.2s-0.6-0.1-0.7-0.3c-0.1-0.1-0.2-0.4-0.2-0.7s-0.1-0.6-0.3-0.8c-0.2-0.2-0.5-0.3-0.8-0.3
		c-0.6,0-1,0.2-1.3,0.7c-0.4,0.6-0.7,1.3-0.7,2.3s0.2,1.8,0.7,2.5c0.4,0.7,1,1.1,1.8,1.1c0.5,0,1-0.2,1.5-0.6
		c0.3-0.3,0.6-0.8,0.9-1.5L189.6,106.8z"/>
	<path d="M190.5,101.8h6.6l0.3,2.2H197c-0.1-0.4-0.2-0.8-0.3-1s-0.3-0.4-0.5-0.5s-0.5-0.1-1-0.1h-0.7v5.6c0,0.6,0,1,0.1,1.1
		c0.1,0.2,0.2,0.3,0.3,0.3s0.5,0.1,1.1,0.1v0.3h-4.1v-0.3c0.5,0,0.9-0.1,1-0.3c0.2-0.2,0.2-0.6,0.2-1.3v-5.6h-0.7
		c-0.5,0-0.8,0-1,0.1s-0.3,0.2-0.5,0.4s-0.3,0.6-0.4,1.1h-0.4L190.5,101.8z"/>
	<path d="M201.5,101.6c1.1,0,2.1,0.5,2.8,1.4c0.6,0.8,0.9,1.7,0.9,2.7c0,0.7-0.2,1.5-0.5,2.2s-0.8,1.3-1.3,1.7
		c-0.6,0.4-1.2,0.6-1.9,0.6c-1.1,0-2.1-0.5-2.7-1.5c-0.6-0.8-0.9-1.7-0.9-2.7c0-0.7,0.2-1.5,0.5-2.2s0.8-1.3,1.4-1.6
		S200.9,101.6,201.5,101.6z M201.3,102.2c-0.3,0-0.6,0.1-0.9,0.3c-0.3,0.2-0.5,0.5-0.7,1s-0.3,1.1-0.3,1.8c0,1.2,0.2,2.2,0.7,3
		c0.4,0.9,1,1.3,1.7,1.3c0.5,0,1-0.2,1.3-0.7s0.5-1.3,0.5-2.4c0-1.4-0.3-2.6-0.9-3.4C202.4,102.4,201.9,102.2,201.3,102.2z"/>
	<path d="M211,105.4v-1.7c0-0.6,0-0.9-0.1-1.1s-0.2-0.3-0.3-0.4c-0.2-0.1-0.4-0.1-0.7-0.1v-0.3h3.7v0.3c-0.4,0-0.6,0-0.8,0.1
		c-0.1,0.1-0.2,0.2-0.3,0.3c-0.1,0.1-0.1,0.5-0.1,1.1v4.3c0,0.6,0,0.9,0.1,1.1s0.2,0.3,0.3,0.4c0.2,0.1,0.4,0.1,0.8,0.1v0.3h-3.9
		v-0.3c0.4,0,0.7,0,0.9-0.1c0.1,0,0.2-0.2,0.3-0.3c0.1-0.2,0.1-0.6,0.1-1.1v-2c-0.8,0.4-1.7,0.7-2.6,0.7c-0.5,0-0.9-0.1-1.1-0.2
		c-0.3-0.1-0.4-0.3-0.5-0.5s-0.1-0.5-0.1-0.8v-1.5c0-0.5,0-0.9-0.1-1c0-0.2-0.1-0.3-0.3-0.4s-0.4-0.1-0.7-0.1v-0.3h3.6v0.3
		c-0.4,0-0.6,0-0.7,0.1c-0.1,0.1-0.2,0.2-0.3,0.3c-0.1,0.1-0.1,0.5-0.1,1.1v1c0,0.4,0,0.6,0.1,0.8c0.1,0.1,0.2,0.2,0.4,0.3
		c0.2,0.1,0.5,0.1,0.8,0.1C209.9,106,210.4,105.8,211,105.4z"/>
	<path d="M216.8,105.4h3.3v-1.7c0-0.5,0-0.8-0.1-1c0-0.2-0.1-0.3-0.3-0.4s-0.4-0.2-0.8-0.2v-0.3h3.7v0.3c-0.3,0-0.6,0-0.8,0.1
		s-0.3,0.2-0.3,0.4c-0.1,0.2-0.1,0.5-0.1,1.1v4.3c0,0.5,0,0.8,0.1,1c0,0.2,0.1,0.3,0.3,0.4s0.4,0.2,0.8,0.2v0.3h-3.7v-0.3
		c0.5,0,0.8-0.1,0.9-0.3c0.2-0.2,0.2-0.6,0.2-1.3v-2h-3.3v2c0,0.5,0,0.8,0.1,1c0,0.2,0.1,0.3,0.3,0.4s0.4,0.2,0.8,0.2v0.3h-3.7v-0.3
		c0.5,0,0.8-0.1,0.9-0.3c0.1-0.2,0.2-0.6,0.2-1.3v-4.3c0-0.5,0-0.8-0.1-1c0-0.2-0.1-0.3-0.3-0.4s-0.4-0.1-0.8-0.1v-0.3h3.7v0.3
		c-0.3,0-0.6,0-0.8,0.1s-0.3,0.2-0.3,0.4c-0.1,0.2-0.1,0.5-0.1,1.1v1.6H216.8z"/>
	<path d="M225.9,107.4l3.3-4c0-0.5-0.1-0.8-0.2-0.9c-0.1-0.2-0.4-0.3-0.8-0.3v-0.3h3.5v0.3c-0.4,0-0.6,0-0.7,0.1
		c-0.1,0.1-0.2,0.2-0.3,0.3c-0.1,0.1-0.1,0.5-0.1,1.1v4.3c0,0.6,0,1,0.1,1.1s0.2,0.2,0.3,0.3c0.1,0.1,0.4,0.1,0.8,0.1v0.3H228v-0.3
		c0.5,0,0.8-0.1,0.9-0.3c0.2-0.2,0.2-0.6,0.2-1.3v-3.8l-3.3,4c0,0.5,0.1,0.8,0.2,1c0.1,0.2,0.4,0.3,0.8,0.3v0.3h-3.5v-0.3
		c0.5,0,0.8-0.1,0.9-0.3c0.1-0.2,0.2-0.6,0.2-1.3v-4.3c0-0.6,0-1-0.1-1.1s-0.2-0.2-0.3-0.3s-0.4-0.1-0.8-0.1v-0.3h3.7v0.3
		c-0.4,0-0.6,0-0.7,0.1c-0.1,0.1-0.2,0.2-0.3,0.3c-0.1,0.1-0.1,0.5-0.1,1.1v3.9H225.9z"/>
	<path d="M240.2,109.9H238c-0.7-1.1-1.3-2.2-1.9-3.3c-0.1-0.3-0.3-0.5-0.4-0.6c-0.1-0.1-0.3-0.2-0.4-0.2c-0.1,0-0.2,0-0.3,0v2.2
		c0,0.6,0,1,0.1,1.1c0.1,0.2,0.2,0.3,0.3,0.3c0.2,0.1,0.4,0.1,0.8,0.1v0.3h-3.8v-0.3c0.5,0,0.8-0.1,0.9-0.3c0.1-0.2,0.2-0.6,0.2-1.3
		v-4.3c0-0.6,0-1-0.1-1.1s-0.2-0.2-0.3-0.3s-0.4-0.1-0.8-0.1v-0.3h3.8v0.3c-0.5,0-0.7,0-0.8,0.1s-0.2,0.2-0.3,0.3
		c-0.1,0.1-0.1,0.5-0.1,1.2v1.6c0.1,0,0.2,0,0.3,0c0.3,0,0.7-0.1,0.9-0.3s0.6-0.6,0.8-1.3c0.2-0.6,0.4-1,0.5-1.3
		c0.1-0.2,0.3-0.4,0.6-0.5s0.5-0.2,0.8-0.2s0.5,0.1,0.7,0.2c0.2,0.2,0.3,0.4,0.3,0.6s-0.1,0.4-0.2,0.5c-0.1,0.1-0.3,0.2-0.5,0.2
		c-0.1,0-0.3,0-0.5-0.1s-0.4-0.1-0.5-0.1c-0.3,0-0.5,0.2-0.6,0.7c-0.2,0.5-0.3,0.9-0.4,1c-0.1,0.2-0.3,0.4-0.5,0.6
		c0.2,0.1,0.4,0.2,0.6,0.4c0.2,0.2,0.6,0.8,1.1,1.9c0.4,0.8,0.8,1.3,1,1.5s0.5,0.3,0.9,0.3L240.2,109.9L240.2,109.9z"/>
</g>
<g>
	<path d="M80,202.2h5.5v-3.4c0-0.6,0-1-0.1-1.2c-0.1-0.1-0.2-0.3-0.4-0.4c-0.3-0.1-0.5-0.2-0.8-0.2h-0.4v-0.3h5.1v0.3h-0.4
		c-0.3,0-0.5,0.1-0.8,0.2c-0.2,0.1-0.3,0.2-0.4,0.4s-0.1,0.6-0.1,1.2v7.7c0,0.6,0,1,0.1,1.2c0.1,0.1,0.2,0.3,0.4,0.4
		c0.3,0.1,0.5,0.2,0.8,0.2h0.4v0.3h-5.1v-0.3h0.4c0.5,0,0.8-0.1,1.1-0.4c0.1-0.2,0.2-0.6,0.2-1.4v-3.6H80v3.6c0,0.6,0,1,0.1,1.2
		c0.1,0.1,0.2,0.3,0.4,0.4c0.3,0.1,0.5,0.2,0.8,0.2h0.4v0.3h-5.1v-0.3H77c0.5,0,0.8-0.1,1.1-0.4c0.1-0.2,0.2-0.6,0.2-1.4v-7.7
		c0-0.6,0-1-0.1-1.2c-0.1-0.1-0.2-0.3-0.4-0.4c-0.3-0.1-0.5-0.2-0.8-0.2h-0.4v-0.3h5.1v0.3h-0.4c-0.3,0-0.5,0.1-0.8,0.2
		c-0.2,0.1-0.3,0.2-0.4,0.4s-0.1,0.6-0.1,1.2V202.2z"/>
	<path d="M94.4,207.4c-0.8,0.6-1.3,1-1.6,1.1c-0.3,0.1-0.7,0.2-1,0.2c-0.6,0-1-0.2-1.4-0.6s-0.5-0.9-0.5-1.5c0-0.4,0.1-0.7,0.3-1
		c0.2-0.4,0.7-0.8,1.3-1.1s1.6-0.8,3-1.3v-0.3c0-0.8-0.1-1.4-0.4-1.7s-0.6-0.4-1.1-0.4c-0.4,0-0.7,0.1-0.9,0.3
		c-0.2,0.2-0.3,0.4-0.3,0.7l0,0.5c0,0.3-0.1,0.5-0.2,0.6s-0.3,0.2-0.5,0.2c-0.2,0-0.4-0.1-0.5-0.2s-0.2-0.4-0.2-0.6
		c0-0.5,0.3-1,0.8-1.4s1.2-0.6,2.2-0.6c0.7,0,1.3,0.1,1.8,0.4c0.3,0.2,0.6,0.5,0.8,0.9c0.1,0.3,0.2,0.8,0.2,1.5v2.7
		c0,0.8,0,1.2,0,1.4s0.1,0.3,0.1,0.3s0.1,0.1,0.2,0.1c0.1,0,0.2,0,0.2-0.1c0.1-0.1,0.4-0.3,0.7-0.6v0.5c-0.7,0.9-1.3,1.3-1.9,1.3
		c-0.3,0-0.5-0.1-0.7-0.3S94.4,207.9,94.4,207.4z M94.4,206.9v-3.1c-0.9,0.4-1.5,0.6-1.7,0.7c-0.5,0.3-0.8,0.5-1,0.8
		s-0.3,0.6-0.3,0.9c0,0.4,0.1,0.8,0.4,1.1s0.5,0.4,0.9,0.4C93.1,207.7,93.7,207.5,94.4,206.9z"/>
	<path d="M98.6,202.8c0.7-1.7,1.8-2.5,3.4-2.5c1.1,0,2,0.4,2.7,1.3s1.1,1.8,1.1,2.9c0,1.1-0.4,2.1-1.1,3s-1.7,1.4-2.9,1.4
		c-1.3,0-2.2-0.5-2.9-1.6s-1-2.3-1-3.8c0-1.2,0.2-2.2,0.5-3.2s0.7-1.8,1.1-2.3s0.8-0.9,1.3-1.1s1.4-0.3,2.6-0.4c0.9,0,1.4,0,1.6-0.1
		s0.4-0.2,0.5-0.4h0.3c-0.2,0.6-0.4,1-0.7,1.2s-0.6,0.4-0.9,0.5s-0.9,0.1-1.7,0.2c-0.9,0-1.5,0.1-1.8,0.2s-0.7,0.4-1.1,0.8
		s-0.6,1-0.8,1.6S98.6,202,98.6,202.8z M101.7,200.9c-0.6,0-1.1,0.2-1.4,0.7s-0.6,1.3-0.6,2.3c0,1.4,0.3,2.5,0.8,3.2
		s1.1,1.1,1.7,1.1c0.6,0,1.1-0.3,1.4-0.8s0.5-1.3,0.5-2.4c0-1.2-0.2-2.2-0.7-3S102.4,200.9,101.7,200.9z"/>
	<path d="M107.4,200.5h7.2v0.3c-0.4,0-0.7,0-0.8,0.1s-0.2,0.2-0.3,0.3s-0.1,0.5-0.1,1.1v4.3c0,0.6,0,1,0.1,1.1s0.2,0.2,0.3,0.3
		s0.4,0.1,0.8,0.1v0.3h-4.2v-0.3c0.5,0,0.8,0,0.9-0.1s0.3-0.2,0.4-0.3s0.1-0.6,0.1-1.2v-5.6h-2.7v3.4c0,1.3-0.1,2.2-0.2,2.7
		s-0.3,0.9-0.7,1.2s-0.7,0.4-1.2,0.4c-0.8,0-1.1-0.3-1.1-0.9c0-0.2,0.1-0.4,0.2-0.5s0.3-0.2,0.5-0.2c0.2,0,0.4,0.1,0.6,0.3
		c0.2,0.2,0.4,0.3,0.5,0.3c0.3,0,0.5-0.2,0.6-0.7s0.2-1.2,0.2-2.3v-1.8c0-0.9-0.1-1.5-0.2-1.7s-0.5-0.3-1-0.4V200.5z"/>
	<path d="M120,204.7h-2v2c0,0.6,0,1,0.1,1.1s0.2,0.2,0.3,0.3s0.4,0.1,0.8,0.1v0.3h-3.9v-0.3c0.4,0,0.7,0,0.8-0.1s0.2-0.2,0.3-0.3
		s0.1-0.6,0.1-1.1v-4.3c0-0.7-0.1-1.1-0.2-1.3s-0.5-0.2-1-0.3v-0.3h3.9v0.3c-0.4,0-0.7,0-0.8,0.1s-0.2,0.2-0.3,0.3s-0.1,0.5-0.1,1.1
		v1.7h2c0.2-1.1,0.6-2.1,1.3-2.8s1.6-1.1,2.6-1.1c1.1,0,2.1,0.4,2.8,1.2s1.1,1.8,1.1,2.9c0,0.7-0.2,1.5-0.5,2.2s-0.8,1.3-1.5,1.7
		s-1.3,0.5-2,0.5c-1.1,0-2-0.4-2.7-1.2S120.1,205.8,120,204.7z M123.7,200.9c-0.6,0-1,0.2-1.4,0.7s-0.6,1.3-0.6,2.3
		c0,1.2,0.2,2.2,0.7,3s1.1,1.3,1.8,1.3c1.3,0,2-1,2-3.1c0-1.2-0.2-2.2-0.7-3S124.4,200.9,123.7,200.9z"/>
	<path d="M129.2,200.5h7.1v0.3c-0.4,0-0.7,0-0.8,0.1s-0.2,0.2-0.3,0.3s-0.1,0.5-0.1,1.1v4c0,0.8,0.1,1.4,0.2,1.5s0.5,0.3,1,0.3v2.6
		h-0.3c0-0.5-0.1-0.9-0.4-1.3s-0.5-0.6-0.9-0.8s-0.9-0.2-1.7-0.2h-2.1c-0.6,0-1.1,0.1-1.5,0.2s-0.7,0.4-0.9,0.7s-0.4,0.8-0.4,1.3
		h-0.3v-2.6c0.5,0,0.9-0.2,1.3-0.6s0.7-1.1,1-2.1s0.4-2.1,0.4-3.1c0-1-0.5-1.5-1.4-1.6V200.5z M131.1,201.1v0.5c0,2.9-0.5,5-1.6,6.4
		h3c0.5,0,0.8,0,0.9-0.1s0.1-0.4,0.1-1v-5.8H131.1z"/>
	<path d="M141.8,207.4c-0.8,0.6-1.3,1-1.6,1.1c-0.3,0.1-0.7,0.2-1,0.2c-0.6,0-1-0.2-1.4-0.6s-0.5-0.9-0.5-1.5c0-0.4,0.1-0.7,0.3-1
		c0.2-0.4,0.7-0.8,1.3-1.1s1.6-0.8,3-1.3v-0.3c0-0.8-0.1-1.4-0.4-1.7s-0.6-0.4-1.1-0.4c-0.4,0-0.7,0.1-0.9,0.3
		c-0.2,0.2-0.3,0.4-0.3,0.7l0,0.5c0,0.3-0.1,0.5-0.2,0.6s-0.3,0.2-0.5,0.2c-0.2,0-0.4-0.1-0.5-0.2s-0.2-0.4-0.2-0.6
		c0-0.5,0.3-1,0.8-1.4s1.2-0.6,2.2-0.6c0.7,0,1.3,0.1,1.8,0.4c0.3,0.2,0.6,0.5,0.8,0.9c0.1,0.3,0.2,0.8,0.2,1.5v2.7
		c0,0.8,0,1.2,0,1.4s0.1,0.3,0.1,0.3s0.1,0.1,0.2,0.1c0.1,0,0.2,0,0.2-0.1c0.1-0.1,0.4-0.3,0.7-0.6v0.5c-0.7,0.9-1.3,1.3-1.9,1.3
		c-0.3,0-0.5-0.1-0.7-0.3S141.8,207.9,141.8,207.4z M141.8,206.9v-3.1c-0.9,0.4-1.5,0.6-1.7,0.7c-0.5,0.3-0.8,0.5-1,0.8
		s-0.3,0.6-0.3,0.9c0,0.4,0.1,0.8,0.4,1.1s0.5,0.4,0.9,0.4C140.5,207.7,141.1,207.5,141.8,206.9z"/>
	<path d="M144.6,200.5h7l0.4,2.2h-0.4c-0.1-0.4-0.2-0.8-0.4-1s-0.4-0.4-0.6-0.5s-0.6-0.1-1.1-0.1h-0.7v5.6c0,0.6,0,1,0.1,1.1
		s0.2,0.3,0.4,0.3s0.5,0.1,1.1,0.1v0.3h-4.4v-0.3c0.6,0,0.9-0.1,1.1-0.3s0.2-0.6,0.2-1.3v-5.6h-0.7c-0.5,0-0.8,0-1,0.1
		s-0.4,0.2-0.5,0.4s-0.3,0.6-0.4,1.1h-0.4L144.6,200.5z"/>
	<path d="M154,203.6c0,1.2,0.3,2.1,0.9,2.8s1.3,1,2.1,1c0.5,0,1-0.1,1.4-0.4s0.7-0.8,1-1.5l0.3,0.2c-0.1,0.8-0.5,1.5-1.1,2.2
		s-1.3,1-2.2,1c-1,0-1.8-0.4-2.5-1.1s-1-1.8-1-3c0-1.4,0.4-2.5,1.1-3.2s1.6-1.2,2.7-1.2c0.9,0,1.6,0.3,2.2,0.9s0.9,1.4,0.9,2.4H154z
		 M154,203.1h3.7c0-0.5-0.1-0.9-0.2-1.1c-0.1-0.3-0.4-0.6-0.7-0.8s-0.6-0.3-0.9-0.3c-0.5,0-0.9,0.2-1.3,0.6S154,202.4,154,203.1z"/>
	<path d="M161.4,200.5h7.2v0.3c-0.4,0-0.7,0-0.8,0.1s-0.2,0.2-0.3,0.3s-0.1,0.5-0.1,1.1v4.3c0,0.6,0,1,0.1,1.1s0.2,0.2,0.3,0.3
		s0.4,0.1,0.8,0.1v0.3h-4.2v-0.3c0.5,0,0.8,0,0.9-0.1s0.3-0.2,0.4-0.3s0.1-0.6,0.1-1.2v-5.6h-2.7v3.4c0,1.3-0.1,2.2-0.2,2.7
		s-0.3,0.9-0.7,1.2s-0.7,0.4-1.2,0.4c-0.8,0-1.1-0.3-1.1-0.9c0-0.2,0.1-0.4,0.2-0.5s0.3-0.2,0.5-0.2c0.2,0,0.4,0.1,0.6,0.3
		c0.2,0.2,0.4,0.3,0.5,0.3c0.3,0,0.5-0.2,0.6-0.7s0.2-1.2,0.2-2.3v-1.8c0-0.9-0.1-1.5-0.2-1.7s-0.5-0.3-1-0.4V200.5z"/>
	<path d="M172.1,204.1l1,0c2.4,0,3.6,0.7,3.6,2.2c0,0.7-0.3,1.2-0.9,1.6s-1.4,0.6-2.5,0.6h-3.9v-0.3c0.5,0,0.9-0.1,1-0.3
		s0.2-0.6,0.2-1.3v-4.3c0-0.6,0-1-0.1-1.1s-0.2-0.2-0.3-0.3s-0.4-0.1-0.8-0.1v-0.3h4.2v0.3c-0.6,0-0.9,0-1.1,0.1s-0.2,0.2-0.3,0.3
		s-0.1,0.5-0.1,1.2V204.1z M172.1,207.9c0.3,0.1,0.6,0.1,0.9,0.1c0.6,0,1.1-0.2,1.4-0.5s0.5-0.7,0.5-1.2c0-1.1-0.8-1.7-2.3-1.7
		c-0.1,0-0.3,0-0.6,0V207.9z"/>
</g>
</svg>
