<?xml version="1.0" encoding="UTF-8"?><svg xmlns="http://www.w3.org/2000/svg" xmlns:xlink="http://www.w3.org/1999/xlink" fill-opacity="1" color-rendering="auto" color-interpolation="auto" text-rendering="auto" stroke="black" stroke-linecap="square" width="387" stroke-miterlimit="10" shape-rendering="auto" stroke-opacity="1" fill="black" stroke-dasharray="none" font-weight="normal" stroke-width="1" height="401" font-family="'Dialog'" font-style="normal" stroke-linejoin="miter" font-size="12px" stroke-dashoffset="0" image-rendering="auto">
  <!--Generated by ySVG 2.6-->
  <defs id="genericDefs"/>
  <g>
    <defs id="defs1">
      <linearGradient x1="0" gradientUnits="userSpaceOnUse" x2="335.3705" y1="-4.5" y2="35.5" id="linearGradient1" spreadMethod="reflect">
        <stop stop-opacity="1" stop-color="white" offset="0%"/>
        <stop stop-opacity="1" stop-color="white" offset="100%"/>
      </linearGradient>
      <linearGradient x1="0" gradientUnits="userSpaceOnUse" x2="335.3705" y1="640.3092" y2="680.3092" id="linearGradient2" spreadMethod="reflect">
        <stop stop-opacity="1" stop-color="white" offset="0%"/>
        <stop stop-opacity="1" stop-color="white" offset="100%"/>
      </linearGradient>
      <linearGradient x1="414.9132" gradientUnits="userSpaceOnUse" x2="597.5739" y1="-61.3015" y2="92.3015" id="linearGradient3" spreadMethod="reflect">
        <stop stop-opacity="1" stop-color="white" offset="0%"/>
        <stop stop-opacity="1" stop-color="white" offset="100%"/>
      </linearGradient>
      <linearGradient x1="0" gradientUnits="userSpaceOnUse" x2="335.3705" y1="70.5" y2="151.3092" id="linearGradient4" spreadMethod="reflect">
        <stop stop-opacity="1" stop-color="white" offset="0%"/>
        <stop stop-opacity="1" stop-color="white" offset="100%"/>
      </linearGradient>
      <linearGradient x1="0" gradientUnits="userSpaceOnUse" x2="335.3705" y1="166.8092" y2="206.8092" id="linearGradient5" spreadMethod="reflect">
        <stop stop-opacity="1" stop-color="white" offset="0%"/>
        <stop stop-opacity="1" stop-color="white" offset="100%"/>
      </linearGradient>
      <linearGradient x1="0" gradientUnits="userSpaceOnUse" x2="335.3705" y1="222.3092" y2="262.3092" id="linearGradient6" spreadMethod="reflect">
        <stop stop-opacity="1" stop-color="white" offset="0%"/>
        <stop stop-opacity="1" stop-color="white" offset="100%"/>
      </linearGradient>
      <linearGradient x1="0" gradientUnits="userSpaceOnUse" x2="335.3705" y1="277.8092" y2="336.8092" id="linearGradient7" spreadMethod="reflect">
        <stop stop-opacity="1" stop-color="white" offset="0%"/>
        <stop stop-opacity="1" stop-color="white" offset="100%"/>
      </linearGradient>
      <linearGradient x1="0" gradientUnits="userSpaceOnUse" x2="335.3705" y1="360.8092" y2="400.8092" id="linearGradient8" spreadMethod="reflect">
        <stop stop-opacity="1" stop-color="white" offset="0%"/>
        <stop stop-opacity="1" stop-color="white" offset="100%"/>
      </linearGradient>
      <linearGradient x1="0" gradientUnits="userSpaceOnUse" x2="335.3705" y1="424.8092" y2="476.8092" id="linearGradient9" spreadMethod="reflect">
        <stop stop-opacity="1" stop-color="white" offset="0%"/>
        <stop stop-opacity="1" stop-color="white" offset="100%"/>
      </linearGradient>
      <linearGradient x1="0" gradientUnits="userSpaceOnUse" x2="335.3705" y1="500.8092" y2="540.8092" id="linearGradient10" spreadMethod="reflect">
        <stop stop-opacity="1" stop-color="white" offset="0%"/>
        <stop stop-opacity="1" stop-color="white" offset="100%"/>
      </linearGradient>
      <linearGradient x1="0" gradientUnits="userSpaceOnUse" x2="335.3705" y1="564.8092" y2="604.8092" id="linearGradient11" spreadMethod="reflect">
        <stop stop-opacity="1" stop-color="white" offset="0%"/>
        <stop stop-opacity="1" stop-color="white" offset="100%"/>
      </linearGradient>
      <clipPath clipPathUnits="userSpaceOnUse" id="clipPath1">
        <path d="M0 0 L387 0 L387 401 L0 401 L0 0 Z"/>
      </clipPath>
      <clipPath clipPathUnits="userSpaceOnUse" id="clipPath2">
        <path d="M-30 -92 L744 -92 L744 710 L-30 710 L-30 -92 Z"/>
      </clipPath>
    </defs>
    <g fill="url(#linearGradient1)" text-rendering="geometricPrecision" shape-rendering="geometricPrecision" transform="matrix(0.5,0,0,0.5,15,46)" stroke="url(#linearGradient1)">
      <rect x="0" y="-4.5" clip-path="url(#clipPath2)" width="335.3705" rx="20" ry="20" height="40" stroke="none"/>
    </g>
    <g text-rendering="geometricPrecision" stroke-miterlimit="1.45" shape-rendering="geometricPrecision" transform="matrix(0.5,0,0,0.5,15,46)" stroke-linecap="butt">
      <rect x="0" y="-4.5" clip-path="url(#clipPath2)" fill="none" width="335.3705" rx="20" ry="20" height="40"/>
      <text x="146.2956" xml:space="preserve" y="20.0352" clip-path="url(#clipPath2)" font-family="sans-serif" stroke="none">Начало</text>
    </g>
    <g fill="url(#linearGradient2)" text-rendering="geometricPrecision" shape-rendering="geometricPrecision" transform="matrix(0.5,0,0,0.5,15,46)" stroke="url(#linearGradient2)">
      <rect x="0" y="640.3092" clip-path="url(#clipPath2)" width="335.3705" rx="20" ry="20" height="40" stroke="none"/>
    </g>
    <g text-rendering="geometricPrecision" stroke-miterlimit="1.45" shape-rendering="geometricPrecision" transform="matrix(0.5,0,0,0.5,15,46)" stroke-linecap="butt">
      <rect x="0" y="640.3092" clip-path="url(#clipPath2)" fill="none" width="335.3705" rx="20" ry="20" height="40"/>
      <text x="149.1316" xml:space="preserve" y="664.8444" clip-path="url(#clipPath2)" font-family="sans-serif" stroke="none">Конец</text>
    </g>
    <g fill="url(#linearGradient3)" text-rendering="geometricPrecision" shape-rendering="geometricPrecision" transform="matrix(0.5,0,0,0.5,15,46)" stroke="url(#linearGradient3)">
      <rect x="414.9132" width="182.6607" height="153.603" y="-61.3015" clip-path="url(#clipPath2)" stroke="none"/>
    </g>
    <g text-rendering="geometricPrecision" stroke-miterlimit="1.45" shape-rendering="geometricPrecision" transform="matrix(0.5,0,0,0.5,15,46)" stroke-linecap="butt">
      <path fill="none" d="M437.7458 -61.3015 L414.9132 -61.3015 L414.9132 92.3015 L437.7458 92.3015" clip-path="url(#clipPath2)"/>
      <text x="420.9132" xml:space="preserve" y="-43.7" clip-path="url(#clipPath2)" font-family="sans-serif" stroke="none">Алгоритм закраски по Фонгу</text>
      <text x="420.9132" xml:space="preserve" y="-29.5671" clip-path="url(#clipPath2)" font-family="sans-serif" stroke="none">Вход: point - координаты точки сцены,</text>
      <text x="420.9132" xml:space="preserve" y="-15.4343" clip-path="url(#clipPath2)" font-family="sans-serif" stroke="none">         normal - нормаль к поверхности в </text>
      <text x="420.9132" xml:space="preserve" y="-1.3015" clip-path="url(#clipPath2)" font-family="sans-serif" stroke="none">	данной точке,</text>
      <text x="420.9132" xml:space="preserve" y="12.8313" clip-path="url(#clipPath2)" font-family="sans-serif" stroke="none">         cameraPos - позиция камеры,</text>
      <text x="420.9132" xml:space="preserve" y="26.9641" clip-path="url(#clipPath2)" font-family="sans-serif" stroke="none">         objColor - цвет закрашиваемого объекта,</text>
      <text x="420.9132" xml:space="preserve" y="41.0969" clip-path="url(#clipPath2)" font-family="sans-serif" stroke="none">         intensity - интенсивность источника света,</text>
      <text x="420.9132" xml:space="preserve" y="55.2297" clip-path="url(#clipPath2)" font-family="sans-serif" stroke="none">         lightColor - цвет источника света,</text>
      <text x="420.9132" xml:space="preserve" y="69.3625" clip-path="url(#clipPath2)" font-family="sans-serif" stroke="none">         lightDir - направление света от источника.</text>
      <text x="420.9132" xml:space="preserve" y="83.4954" clip-path="url(#clipPath2)" font-family="sans-serif" stroke="none">Выход: color - цвет пикселя.</text>
    </g>
    <g fill="url(#linearGradient4)" text-rendering="geometricPrecision" shape-rendering="geometricPrecision" transform="matrix(0.5,0,0,0.5,15,46)" stroke="url(#linearGradient4)">
      <path d="M0 70.5 L335.3705 70.5 L335.3705 151.3092 L0 151.3092 Z" stroke="none" clip-path="url(#clipPath2)"/>
    </g>
    <g text-rendering="geometricPrecision" stroke-miterlimit="1.45" shape-rendering="geometricPrecision" transform="matrix(0.5,0,0,0.5,15,46)" stroke-linecap="butt">
      <path fill="none" d="M0 70.5 L335.3705 70.5 L335.3705 151.3092 L0 151.3092 Z" clip-path="url(#clipPath2)"/>
      <text x="68.8435" xml:space="preserve" y="87.1741" clip-path="url(#clipPath2)" font-family="sans-serif" stroke="none">Инициализация коэффициентов:</text>
      <text x="101.1901" xml:space="preserve" y="101.3069" clip-path="url(#clipPath2)" font-family="sans-serif" stroke="none">ambientStrength = 0.1</text>
      <text x="104.8786" xml:space="preserve" y="115.4398" clip-path="url(#clipPath2)" font-family="sans-serif" stroke="none">diffuseStrength = 0.7</text>
      <text x="100.4489" xml:space="preserve" y="129.5726" clip-path="url(#clipPath2)" font-family="sans-serif" stroke="none">specularStrength = 0.2</text>
      <text x="118.6804" xml:space="preserve" y="143.7054" clip-path="url(#clipPath2)" font-family="sans-serif" stroke="none">shininess = 32.0</text>
    </g>
    <g fill="url(#linearGradient5)" text-rendering="geometricPrecision" shape-rendering="geometricPrecision" transform="matrix(0.5,0,0,0.5,15,46)" stroke="url(#linearGradient5)">
      <path d="M0 166.8092 L335.3705 166.8092 L335.3705 206.8092 L0 206.8092 Z" stroke="none" clip-path="url(#clipPath2)"/>
    </g>
    <g text-rendering="geometricPrecision" stroke-miterlimit="1.45" shape-rendering="geometricPrecision" transform="matrix(0.5,0,0,0.5,15,46)" stroke-linecap="butt">
      <path fill="none" d="M0 166.8092 L335.3705 166.8092 L335.3705 206.8092 L0 206.8092 Z" clip-path="url(#clipPath2)"/>
      <text x="66.8044" xml:space="preserve" y="184.278" clip-path="url(#clipPath2)" font-family="sans-serif" stroke="none">Вычисление направления взгляда</text>
      <text x="51.1042" xml:space="preserve" y="198.4108" clip-path="url(#clipPath2)" font-family="sans-serif" stroke="none">viewDir = normalize(cameraPos - point)</text>
    </g>
    <g fill="url(#linearGradient6)" text-rendering="geometricPrecision" shape-rendering="geometricPrecision" transform="matrix(0.5,0,0,0.5,15,46)" stroke="url(#linearGradient6)">
      <path d="M0 222.3092 L335.3705 222.3092 L335.3705 262.3092 L0 262.3092 Z" stroke="none" clip-path="url(#clipPath2)"/>
    </g>
    <g text-rendering="geometricPrecision" stroke-miterlimit="1.45" shape-rendering="geometricPrecision" transform="matrix(0.5,0,0,0.5,15,46)" stroke-linecap="butt">
      <path fill="none" d="M0 222.3092 L335.3705 222.3092 L335.3705 262.3092 L0 262.3092 Z" clip-path="url(#clipPath2)"/>
      <text x="82.988" xml:space="preserve" y="239.778" clip-path="url(#clipPath2)" font-family="sans-serif" stroke="none">Расчёт фонового освещения</text>
      <text x="51.362" xml:space="preserve" y="253.9108" clip-path="url(#clipPath2)" font-family="sans-serif" stroke="none">ambient = ambientStrength * lightColor</text>
    </g>
    <g fill="url(#linearGradient7)" text-rendering="geometricPrecision" shape-rendering="geometricPrecision" transform="matrix(0.5,0,0,0.5,15,46)" stroke="url(#linearGradient7)">
      <path d="M0 277.8092 L335.3705 277.8092 L335.3705 336.8092 L0 336.8092 Z" stroke="none" clip-path="url(#clipPath2)"/>
    </g>
    <g text-rendering="geometricPrecision" stroke-miterlimit="1.45" shape-rendering="geometricPrecision" transform="matrix(0.5,0,0,0.5,15,46)" stroke-linecap="butt">
      <path fill="none" d="M0 277.8092 L335.3705 277.8092 L335.3705 336.8092 L0 336.8092 Z" clip-path="url(#clipPath2)"/>
      <text x="74.9841" xml:space="preserve" y="297.7115" clip-path="url(#clipPath2)" font-family="sans-serif" stroke="none">Расчёт диффузного освещения</text>
      <text x="59.6355" xml:space="preserve" y="311.8444" clip-path="url(#clipPath2)" font-family="sans-serif" stroke="none">diff = max(0.0, dot(normal, lightDir))</text>
      <text x="46.0183" xml:space="preserve" y="325.9772" clip-path="url(#clipPath2)" font-family="sans-serif" stroke="none">diffues = diff * diffuseStrength * objColor</text>
    </g>
    <g fill="url(#linearGradient8)" text-rendering="geometricPrecision" shape-rendering="geometricPrecision" transform="matrix(0.5,0,0,0.5,15,46)" stroke="url(#linearGradient8)">
      <path d="M0 360.8092 L335.3705 360.8092 L335.3705 400.8092 L0 400.8092 Z" stroke="none" clip-path="url(#clipPath2)"/>
    </g>
    <g text-rendering="geometricPrecision" stroke-miterlimit="1.45" shape-rendering="geometricPrecision" transform="matrix(0.5,0,0,0.5,15,46)" stroke-linecap="butt">
      <path fill="none" d="M0 360.8092 L335.3705 360.8092 L335.3705 400.8092 L0 400.8092 Z" clip-path="url(#clipPath2)"/>
      <text x="57.7048" xml:space="preserve" y="378.278" clip-path="url(#clipPath2)" font-family="sans-serif" stroke="none">Вычисление направления отражения</text>
      <text x="5.4421" xml:space="preserve" y="392.4108" clip-path="url(#clipPath2)" font-family="sans-serif" stroke="none">reflectDir = 2 * dot(normal, lightDir) * normal - lightDir</text>
    </g>
    <g fill="url(#linearGradient9)" text-rendering="geometricPrecision" shape-rendering="geometricPrecision" transform="matrix(0.5,0,0,0.5,15,46)" stroke="url(#linearGradient9)">
      <path d="M0 424.8092 L335.3705 424.8092 L335.3705 476.8092 L0 476.8092 Z" stroke="none" clip-path="url(#clipPath2)"/>
    </g>
    <g text-rendering="geometricPrecision" stroke-miterlimit="1.45" shape-rendering="geometricPrecision" transform="matrix(0.5,0,0,0.5,15,46)" stroke-linecap="butt">
      <path fill="none" d="M0 424.8092 L335.3705 424.8092 L335.3705 476.8092 L0 476.8092 Z" clip-path="url(#clipPath2)"/>
      <text x="58.6013" xml:space="preserve" y="441.2115" clip-path="url(#clipPath2)" font-family="sans-serif" stroke="none">Вычисление зеркального освещения</text>
      <text x="15.362" xml:space="preserve" y="455.3444" clip-path="url(#clipPath2)" font-family="sans-serif" stroke="none">spec = max(0.0, dot(viewDir, reflectDir)) ^ shininess</text>
      <text x="33.8308" xml:space="preserve" y="469.4772" clip-path="url(#clipPath2)" font-family="sans-serif" stroke="none">specular = spec * specularStrength * objColor</text>
    </g>
    <g fill="url(#linearGradient10)" text-rendering="geometricPrecision" shape-rendering="geometricPrecision" transform="matrix(0.5,0,0,0.5,15,46)" stroke="url(#linearGradient10)">
      <path d="M0 500.8092 L335.3705 500.8092 L335.3705 540.8092 L0 540.8092 Z" stroke="none" clip-path="url(#clipPath2)"/>
    </g>
    <g text-rendering="geometricPrecision" stroke-miterlimit="1.45" shape-rendering="geometricPrecision" transform="matrix(0.5,0,0,0.5,15,46)" stroke-linecap="butt">
      <path fill="none" d="M0 500.8092 L335.3705 500.8092 L335.3705 540.8092 L0 540.8092 Z" clip-path="url(#clipPath2)"/>
      <text x="61.4401" xml:space="preserve" y="518.278" clip-path="url(#clipPath2)" font-family="sans-serif" stroke="none">Получение результирующего цвета</text>
      <text x="59.0905" xml:space="preserve" y="532.4108" clip-path="url(#clipPath2)" font-family="sans-serif" stroke="none">color = ambient + diffuse + specular</text>
    </g>
    <g fill="url(#linearGradient11)" text-rendering="geometricPrecision" shape-rendering="geometricPrecision" transform="matrix(0.5,0,0,0.5,15,46)" stroke="url(#linearGradient11)">
      <path d="M0 564.8092 L335.3705 564.8092 L335.3705 604.8092 L0 604.8092 Z" stroke="none" clip-path="url(#clipPath2)"/>
    </g>
    <g text-rendering="geometricPrecision" stroke-miterlimit="1.45" shape-rendering="geometricPrecision" transform="matrix(0.5,0,0,0.5,15,46)" stroke-linecap="butt">
      <path fill="none" d="M0 564.8092 L335.3705 564.8092 L335.3705 604.8092 L0 604.8092 Z" clip-path="url(#clipPath2)"/>
      <text x="133.2087" xml:space="preserve" y="589.3444" clip-path="url(#clipPath2)" font-family="sans-serif" stroke="none">return color</text>
    </g>
    <g text-rendering="geometricPrecision" stroke-miterlimit="1.45" stroke-dasharray="6,2" shape-rendering="geometricPrecision" transform="matrix(0.5,0,0,0.5,15,46)" stroke-linecap="butt">
      <path fill="none" d="M335.3876 15.5 L414.92 15.5" clip-path="url(#clipPath2)"/>
    </g>
    <g text-rendering="geometricPrecision" stroke-miterlimit="1.45" shape-rendering="geometricPrecision" transform="matrix(0.5,0,0,0.5,15,46)" stroke-linecap="butt">
      <path fill="none" d="M167.6853 35.501 L167.6853 55.5 L167.6853 62.5144" clip-path="url(#clipPath2)"/>
      <path d="M167.6853 70.5144 L172.6853 58.5144 L167.6853 61.5144 L162.6853 58.5144 Z" clip-path="url(#clipPath2)" stroke="none"/>
      <path fill="none" d="M167.6853 151.3401 L167.6853 158.8232" clip-path="url(#clipPath2)"/>
      <path d="M167.6853 166.8232 L172.6853 154.8232 L167.6853 157.8232 L162.6853 154.8232 Z" clip-path="url(#clipPath2)" stroke="none"/>
      <path fill="none" d="M167.6853 206.8358 L167.6853 214.3208" clip-path="url(#clipPath2)"/>
      <path d="M167.6853 222.3208 L172.6853 210.3208 L167.6853 213.3208 L162.6853 210.3208 Z" clip-path="url(#clipPath2)" stroke="none"/>
      <path fill="none" d="M167.6853 262.3361 L167.6853 269.8395" clip-path="url(#clipPath2)"/>
      <path d="M167.6853 277.8395 L172.6853 265.8395 L167.6853 268.8395 L162.6853 265.8395 Z" clip-path="url(#clipPath2)" stroke="none"/>
      <path fill="none" d="M167.6853 336.7738 L167.6853 352.8127" clip-path="url(#clipPath2)"/>
      <path d="M167.6853 360.8127 L172.6853 348.8127 L167.6853 351.8127 L162.6853 348.8127 Z" clip-path="url(#clipPath2)" stroke="none"/>
      <path fill="none" d="M167.6853 400.8043 L167.6853 416.7813" clip-path="url(#clipPath2)"/>
      <path d="M167.6853 424.7813 L172.6853 412.7813 L167.6853 415.7813 L162.6853 412.7813 Z" clip-path="url(#clipPath2)" stroke="none"/>
      <path fill="none" d="M167.6853 476.8199 L167.6853 492.8336" clip-path="url(#clipPath2)"/>
      <path d="M167.6853 500.8336 L172.6853 488.8336 L167.6853 491.8336 L162.6853 488.8336 Z" clip-path="url(#clipPath2)" stroke="none"/>
      <path fill="none" d="M167.6853 540.778 L167.6853 556.8146" clip-path="url(#clipPath2)"/>
      <path d="M167.6853 564.8146 L172.6853 552.8146 L167.6853 555.8146 L162.6853 552.8146 Z" clip-path="url(#clipPath2)" stroke="none"/>
      <path fill="none" d="M167.6853 604.827 L167.6853 632.289" clip-path="url(#clipPath2)"/>
      <path d="M167.6853 640.289 L172.6853 628.289 L167.6853 631.289 L162.6853 628.289 Z" clip-path="url(#clipPath2)" stroke="none"/>
    </g>
  </g>
</svg>
