<?xml version="1.0" encoding="utf-8"?>
<!-- Generator: Adobe Illustrator 24.1.2, SVG Export Plug-In . SVG Version: 6.00 Build 0)  -->
<svg version="1.1" id="Слой_1" xmlns="http://www.w3.org/2000/svg" xmlns:xlink="http://www.w3.org/1999/xlink" x="0px" y="0px"
	 viewBox="0 0 748 422" style="enable-background:new 0 0 748 422;" xml:space="preserve">
<style type="text/css">
	.st0{fill:#FFFFFF;}
</style>
<path d="M453.7,45.8c0.1,0.2,0.1,0.3,0,0.5c-0.3,0.4-0.6,0.4-0.9,0.1c-1.1-1.1-2.4-1.6-3.8-1.7c-0.2,0-0.3-0.2-0.3-0.3s0-0.1,0-0.1
	l5.4-8.8c0.1-0.1,0.3-0.2,0.4-0.1c0.1,0,0.1,0.1,0.1,0.2l2.4,10c0,0.2-0.1,0.4-0.2,0.4h-0.1l-2.8-0.4
	C453.7,45.4,453.6,45.5,453.7,45.8z"/>
<path d="M433.7,46.4c-0.8-0.1-1.6,0-2.4,0.1c-0.5,0.1-0.6-0.1-0.5-0.6l3.2-9.5c0.1-0.2,0.2-0.3,0.4-0.2c0.1,0,0.2,0.1,0.2,0.2
	l4.6,9.1c0.1,0.1,0,0.3-0.1,0.4H439l-2.1,0.1c-0.5,0-0.7,0.3-0.5,0.7l0.1,0.5c0.1,0.4,0,0.7-0.5,0.7l-1.5,0.1
	c-0.4,0-0.7-0.2-0.8-0.5c-0.1-0.2,0-0.4,0.1-0.5C434.3,46.6,434.3,46.4,433.7,46.4z"/>
<path d="M418.4,48.4l-1.9,1.1c-0.2,0.1-0.3,0-0.4-0.1v-0.1L415,39c0-0.2,0.1-0.3,0.3-0.3c0.1,0,0.2,0,0.2,0.1l7.9,6.4
	c0.1,0.1,0.2,0.3,0,0.5c0,0,0,0-0.1,0l-3.9,2.8c-0.1,0.1-0.2,0.1-0.2,0.1l-0.6-0.1C418.6,48.3,418.5,48.4,418.4,48.4z"/>
<path d="M468,47.5c0.2-0.4,0.1-0.9-0.3-1.1c-0.1-0.1-0.2-0.1-0.3-0.1c-0.5-0.1-0.9-0.3-1.2-0.6c-0.3-0.3-0.3-0.6,0.1-0.9l7.9-6.1
	c0.1-0.1,0.3-0.1,0.4,0c0,0.1,0.1,0.1,0.1,0.2l-1.2,10c-0.1,0.5-0.3,0.6-0.7,0.3l-1.5-0.9c-0.4-0.2-0.7-0.1-0.9,0.2l-1.2,2.2
	c-0.2,0.4-0.5,0.5-0.9,0.2l-1.1-0.8c-0.4-0.3-0.4-0.6-0.2-1L468,47.5z"/>
<path d="M94.5,51.2H45.7c-0.1,0-0.3-0.1-0.3-0.3v-0.5c0-0.1,0.1-0.3,0.2-0.3l0,0h48.8c0.1,0,0.3-0.1,0.3-0.3l0,0l-0.1-1.5
	c0-0.1,0.1-0.3,0.2-0.3h0.1l6.1,2.2c0.1,0,0.2,0.2,0.2,0.3s-0.1,0.1-0.2,0.2L95,53c-0.1,0.1-0.3,0-0.3-0.1v-0.1l0.1-1.5
	C94.8,51.3,94.7,51.2,94.5,51.2L94.5,51.2z"/>
<path d="M454.3,51.4c10.1,1.5,24.1,6.1,13.3,19.8c-2.7,3.4-5.1,6.9-7.2,10.5c-6.4,10.8-8.8,23.6-7.2,38.3c0.5,4.5-1.9,8.1-6.4,9.2
	c-5.5,1.3-13.7,0.7-16.1-5.3c-0.6-1.4-0.9-3.8-1-7.1c-0.2-5.7-0.8-11.7-2-18c-2.1-11.1-7.9-19.6-15.5-27.8c-1-1-1.7-2.2-2.3-3.5
	c-3.6-8,4.1-12,10.4-13.8C431.6,50.4,443,49.6,454.3,51.4z M435.1,74.7l0.9,1c0.2,0.2,0.3,0.2,0.4-0.1c0.1-0.4,0.2-0.8,0.4-1.1
	c0.1-0.2,0.3-0.3,0.6-0.3c0.7,0,1.2,0.3,1.6,0.9c0.2,0.3,0.4,0.3,0.5,0c0.1-0.1,0.1-0.2,0.1-0.3c0-0.4,0.1-0.7,0.4-1
	c0.5-0.6,1.1-0.6,1.8-0.2c0.3,0.2,0.7,0.2,1,0.1l0.5-0.2c0.4-0.2,0.7-0.1,1,0.3c0.2,0.2,0.3,0.5,0.4,0.8c0.6,1.1,0.8,1.1,0.8-0.2
	c0-0.5,0.2-0.9,0.6-1.2c0.3-0.3,0.7-0.3,1,0c0.5,0.4,0.8,0.9,0.9,1.5c0,0.1,0.1,0.3,0.3,0.2c0.1,0,0.1,0,0.2-0.1
	c0.7-0.9,1.4-0.9,2.2-0.2c0.2,0.2,0.3,0.4,0.3,0.7c0.1,2.3,0,4.5-0.3,6.7c-1.2,8.2-2.5,17.2-3.8,26.8c0,0.1,0,0.1,0.1,0.1l0,0
	l4.2-0.7c0.1,0,0.1-0.1,0.1-0.2c0.5-13.8,5.6-25.8,14.1-36.4c2.1-2.7,3.5-5,4.1-7c2.5-7.9-9.4-10.4-15.1-11.3c-11-1.7-22-1-33,2.1
	c-6.4,1.8-14.6,5.8-8.4,13.8c1.2,1.5,2.4,3,3.7,4.4c8.6,9.5,13.3,20.8,14,34c0,0.3,0.2,0.4,0.4,0.5l5.6,0.9c0.1,0,0.2,0,0.2-0.2
	c-2.5-9.4-5.1-19-7.7-28.9c-0.5-1.7,0.5-2.8,1.3-4.1c0.6-1,1.4-1.3,2.4-0.9c0.3,0.1,0.6,0.1,0.8,0.1c0.2,0,0.4-0.1,0.5-0.2
	C434.6,74.4,434.8,74.4,435.1,74.7z M436.4,79.8c-0.7,0-1.4,0.1-2,0.4c-0.4,0.2-0.9,0-1.2-0.3c-0.4-0.5-0.5-1.2-0.5-1.9
	c0-0.4-0.2-0.7-0.6-0.8c-0.7-0.2-1,0.5-1.1,2c0,0.2,0,0.4,0.1,0.6c1.6,5.9,3.1,11.8,4.7,17.8c0.2,0.6,0.6,1,1.1,1.3
	c0.4,0.2,0.5,0.4,0.3,0.8c0,0.1-0.1,0.2-0.2,0.3c-0.4,0.2-0.5,0.5-0.4,0.9c0.6,1.9,2,5.8,1.7,7.6c-0.1,0.3,0.1,0.5,0.4,0.5h5.7
	c0.3,0,0.5-0.2,0.5-0.5l4.3-29.8c0.1-0.6-0.1-0.7-0.5-0.3c-0.7,0.6-1.3,0.6-1.9,0.1c-0.1-0.1-0.3-0.1-0.4,0c-1,0.7-1.8,0.4-2.5-0.9
	c-0.3-0.7-0.5-0.6-0.6,0.1c0,0.2,0,0.4,0,0.6c0,0.3-0.1,0.7-0.4,0.8c-0.4,0.3-0.9,0.3-1.3,0.1c-0.3-0.1-0.5-0.4-0.6-0.7l-0.2-0.9
	c-0.1-0.5-0.3-0.6-0.5,0c-0.1,0.2-0.1,0.4-0.1,0.6c0,0.3-0.2,0.7-0.5,0.8c-0.6,0.3-1.1,0.2-1.6-0.2c-0.3-0.2-0.5-0.2-0.8,0.1
	c-0.1,0.1-0.2,0.2-0.2,0.4C437.1,79.6,436.8,79.8,436.4,79.8z M431.1,110l0.4,3.8c0,0.2,0.1,0.3,0.3,0.3c6.3,0.9,12.6,0.6,18.9-0.8
	c0.2,0,0.3-0.2,0.3-0.3v-3c0-0.1-0.1-0.2-0.2-0.2l0,0c-6.3,1.4-12.7,1.3-19.4-0.1C431.2,109.7,431.1,109.8,431.1,110z M431.5,116.3
	l0.1,1.7c0,0.3,0.2,0.5,0.5,0.6c6.2,0.8,12.5,0.6,18.8-0.9c0.2-0.1,0.3-0.2,0.3-0.4l-0.2-1.8c0-0.3-0.2-0.4-0.4-0.3
	c-6.1,1.3-12.3,1.6-18.7,0.8C431.6,115.9,431.5,116,431.5,116.3z M433,123.1c6,1.3,12.1,1.3,18.1,0c0.3-0.1,0.4-0.2,0.4-0.5l0.1-2.8
	c0-0.3-0.1-0.4-0.4-0.3c-6.3,1.4-12.6,1.7-18.8,0.9c-0.5-0.1-0.7,0.2-0.6,0.6l0.3,1.2C432.2,122.6,432.5,123,433,123.1z
	 M433.9,125.5c3.5,3.5,11.1,2.9,14.6,1.1c2.4-1.2,2.2-1.7-0.4-1.3c-4.6,0.7-9.3,0.6-14-0.2C433.6,125,433.5,125.1,433.9,125.5z"/>
<path class="st0" d="M434.3,74.6c-0.2,0.1-0.3,0.2-0.5,0.2c-0.3,0.1-0.6,0-0.8-0.1c-1-0.4-1.8-0.1-2.4,0.9c-0.9,1.3-1.8,2.4-1.3,4.1
	c2.7,9.9,5.3,19.6,7.7,28.9c0,0.1,0,0.2-0.2,0.2l-5.6-0.9c-0.3,0-0.4-0.2-0.4-0.5c-0.7-13.2-5.4-24.5-14-34
	c-1.3-1.4-2.5-2.9-3.7-4.4c-6.2-8,2-12,8.4-13.8c11-3.1,22-3.8,33-2.1c5.7,0.9,17.6,3.4,15.1,11.3c-0.6,2-2,4.3-4.1,7
	C457,82,451.9,94,451.4,107.8c0,0.1,0,0.2-0.1,0.2l-4.2,0.7c-0.1,0-0.1,0-0.1-0.1l0,0c1.3-9.6,2.6-18.5,3.8-26.8
	c0.3-2.2,0.4-4.4,0.3-6.7c0-0.3-0.1-0.5-0.3-0.7c-0.7-0.7-1.4-0.6-2.2,0.2c-0.1,0.1-0.3,0.1-0.4,0c-0.1,0-0.1-0.1-0.1-0.2
	c-0.1-0.6-0.4-1.2-0.9-1.5c-0.3-0.2-0.7-0.2-1,0c-0.4,0.3-0.6,0.7-0.6,1.2c0,1.3-0.2,1.3-0.8,0.2c-0.1-0.3-0.3-0.5-0.4-0.8
	c-0.2-0.4-0.6-0.5-1-0.3l-0.5,0.2c-0.3,0.2-0.7,0.2-1-0.1c-0.7-0.4-1.3-0.3-1.8,0.2c-0.3,0.3-0.4,0.6-0.4,1c0,0.1,0,0.2-0.1,0.3
	c-0.2,0.3-0.4,0.3-0.5,0c-0.4-0.6-0.9-0.9-1.6-0.9c-0.3,0-0.5,0.1-0.6,0.3c-0.2,0.3-0.3,0.7-0.4,1.1c-0.1,0.3-0.2,0.3-0.4,0.1
	l-0.9-1C434.8,74.4,434.6,74.4,434.3,74.6z"/>
<path d="M482.4,62.6c0-0.9-0.5-1.8-1.4-2.7c-0.5-0.5-0.5-1,0.1-1.5c0.7-0.6,0.7-1.4,0.2-2.6c-0.1-0.3,0-0.5,0.2-0.7
	c0.1,0,0.2-0.1,0.3,0l9.8,2.4c0.1,0,0.2,0.2,0.2,0.3s-0.1,0.1-0.1,0.2l-8.4,5.1C482.8,63.5,482.4,63.3,482.4,62.6z"/>
<path d="M403,58.6l3.9,0.3c0.2,0,0.3,0.2,0.3,0.3l0,0l-0.2,2.1c0,0.2-0.2,0.3-0.3,0.3l0,0l-3.8-0.6c-0.2,0-0.3,0.1-0.4,0.3l0,0
	l-0.3,2.4c0,0.2-0.2,0.3-0.3,0.3h-0.1l-8.9-5c-0.1-0.1-0.2-0.3-0.1-0.4c0-0.1,0.1-0.1,0.2-0.1l9.8-2.8c0.2,0,0.3,0.1,0.4,0.2V56
	l-0.3,2.3C402.6,58.4,402.8,58.6,403,58.6C402.9,58.6,402.9,58.6,403,58.6z"/>
<path d="M473.6,76.6l-2.5-0.8c-0.2-0.1-0.3-0.3-0.2-0.4l0.5-1.9c0.1-0.2,0.3-0.3,0.4-0.3l0,0l2.5,1c0.2,0.1,0.4,0,0.5-0.2l0,0
	l0.6-2.2c0.1-0.2,0.3-0.3,0.4-0.2c0,0,0.1,0,0.1,0.1l7.6,6.7c0.1,0.1,0.2,0.4,0,0.5c-0.1,0.1-0.1,0.1-0.2,0.1l-10.1,0.7
	c-0.2,0-0.4-0.1-0.4-0.3v-0.1l0.8-2C474,76.9,473.9,76.6,473.6,76.6C473.7,76.6,473.7,76.6,473.6,76.6z"/>
<path d="M406.9,78.4l0.8,2.1c0.2,0.5,0,0.7-0.5,0.6l-9.9-0.5c-0.6,0-0.7-0.2-0.2-0.6l7.2-6.6c0.4-0.3,0.7-0.3,0.8,0.2l0.7,1.9
	c0.1,0.3,0.3,0.4,0.5,0.2c0.4-0.3,0.9-0.5,1.5-0.5c0.5-0.1,0.8,0.1,0.9,0.6l0.3,1c0.1,0.4,0,0.7-0.4,1s-0.8,0.3-1.2,0.2
	C406.8,77.7,406.7,77.8,406.9,78.4z"/>
<path d="M505.5,294.7v-3.8c0-0.4,0.2-0.6,0.6-0.5l0.8,0.2c0.4,0.1,0.7,0,0.9-0.5l7.6-20.6c0.1-0.2,0-0.4-0.2-0.5l0,0l-5.7-1.2
	c-0.2,0-0.3-0.2-0.3-0.4v-0.3c0-0.2,0.2-0.3,0.4-0.3l5.8,1.3c0.3,0.1,0.6-0.1,0.7-0.4L565,134.6c0.1-0.1,0-0.3-0.1-0.3s-0.1,0-0.2,0
	l-6.8,2.2c-0.2,0.1-0.4,0-0.5-0.2l-0.1-0.3c-0.1-0.2,0-0.4,0.3-0.5l7.4-2.3c0.4-0.1,0.7-0.4,0.9-0.8l5.4-14.6
	c0.3-0.8-0.1-1.6-0.9-1.9c-0.2-0.1-0.4-0.1-0.6-0.1l-4.1,0.2c-0.5,0-0.7-0.2-0.5-0.7l0.3-0.7c0.2-0.4,0.1-0.7-0.4-0.8l-84-29
	c-0.3-0.1-0.3-0.3-0.2-0.5L481,84c0.1-0.2,0.2-0.2,0.4-0.2l83.8,29c0.5,0.2,0.8,0,0.8-0.5c0-0.2,0.1-0.5,0.2-0.7
	c0.3-0.4,0.5-0.4,0.9-0.1l3.9,3.2c0.3,0.3,0.4,0.2,0.3-0.2c-3.2-12.3-0.4-22.6,8.3-30.7c12.5-11.6,32.2-9.9,42.8,3.5
	c5.8,7.3,7.6,15.7,5.6,25.1c-0.1,0.4,0.1,0.7,0.4,0.8l10.6,3.9c0.4,0.2,0.7,0,0.8-0.4l0.2-0.7c0.1-0.3,0.4-0.4,0.7-0.3
	c0.1,0,0.1,0.1,0.2,0.1l4.4,3.8c0.2,0.1,0.2,0.4,0,0.5c-0.1,0.1-0.2,0.1-0.3,0.1l-5.9,0.1c-0.5,0-0.7-0.2-0.5-0.7l0.3-0.7
	c0.2-0.4,0.1-0.6-0.3-0.8l-10.6-3.9c-0.4-0.1-0.7,0-0.8,0.4c-0.8,1.9-1.4,3.9-2.5,5.6c-12.7,20.6-41.8,19.4-52.3-2.6
	c-0.2-0.4-0.3-0.4-0.5,0l-5.3,14.4c-0.2,0.5,0,0.6,0.5,0.4l2.7-0.9c0.2-0.1,0.4,0,0.5,0.3l0,0l0.1,0.3c0,0.1,0,0.3-0.2,0.3l-3.6,1.2
	c-0.4,0.1-0.7,0.4-0.9,0.9l-49,133.4c-0.1,0.4,0,0.7,0.4,0.8l5.1,1.1c0.2,0,0.3,0.2,0.3,0.4v0.3c0,0.3-0.2,0.4-0.5,0.3l-5.3-1.2
	c-0.3-0.1-0.7,0.1-0.8,0.4l-7.6,20.8c-0.2,0.6,0,0.8,0.6,0.8c0.3,0,0.5,0.1,0.7,0.2c0.3,0.2,0.4,0.4,0.1,0.7l-2.2,2.6
	c-0.3,0.4-0.3,0.5,0.3,0.4l61.9-11.8c0.5-0.1,0.7-0.4,0.6-0.9l-0.1-0.8c0-0.3-0.3-0.5-0.5-0.6l-5.5-1.2c-0.2-0.1-0.3-0.2-0.3-0.4
	l0.1-0.3c0-0.2,0.2-0.3,0.4-0.3l12.8,2.9c0.4,0.1,0.5,0,0.3-0.4c-6.4-12.8-6.5-25.3-0.3-37.6c2.2-4.3,5.1-8.1,8.8-11.3
	c10.2-8.9,21.9-12,35.2-9.3c14.3,2.9,26.1,14.2,30,28.5c8.5,30.7-21.3,58.6-51.3,48.4c-9.2-3.1-16.4-8.9-21.6-17.4
	c-0.2-0.4-0.5-0.4-0.9-0.2l-5.8,3.4c-0.3,0.2-0.5,0.1-0.6-0.2c-0.1-0.2-0.2-0.5-0.2-0.8c0-0.5-0.3-0.8-0.8-0.6l-62.9,12
	c-0.2,0-0.3,0.2-0.3,0.5c0,0.1,0,0.1,0.1,0.1c9.2,13.7,12.3,28.3,9.4,44c-3.3,18.1-15.4,33.4-32,41.3c-28.8,13.7-63.2,1.1-76.7-27.6
	c-13.9-29.6-0.6-63.8,28.9-77.2c1.4-0.6,2.8-1.2,4.1-1.6c0.6-0.2,0.6-0.4,0-0.6c-1.4-0.5-2.8-1-4.4-1.6c-0.1,0-0.1-0.1-0.1-0.2
	l0.1-0.3c0.1-0.3,0.3-0.4,0.6-0.3c2.5,0.7,5.1,2.3,7.6,1.7c2.7-0.6,5.8-1.5,8.5-1.7c21.2-1.8,38.6,5.4,52,21.6
	C505.4,295.1,505.5,295.1,505.5,294.7z M610,98.4l5.7,2.2c0.5,0.2,0.6,0.5,0.2,0.9c-0.1,0.1-0.3,0.3-0.5,0.3c-0.6,0.3-0.6,0.6-0.2,1
	l9.4,8.3c0.3,0.2,0.7,0.2,0.9-0.1c0.1-0.1,0.1-0.2,0.1-0.3c2.5-9.3-1.8-19.8-8.8-25.8c-13.8-11.7-35-6.9-42.1,10
	c-2.6,6.1-2.8,12.5-0.6,19c0.2,0.6,0.6,0.9,1.3,0.9l44.8-2.8c0.5,0,0.6-0.3,0.5-0.7l-0.2-0.5c-0.2-0.7,0-0.9,0.7-0.7l0.5,0.2
	c0.7,0.2,0.7,0.1,0.2-0.3l-7.4-6.5c-0.4-0.3-0.7-0.3-0.9,0.2c-0.1,0.2-0.2,0.4-0.4,0.5c-0.4,0.3-0.7,0.3-0.9-0.2l-2.8-5.3
	C609.4,98.4,609.5,98.2,610,98.4z M597.7,123.3c0.1,0.2,0,0.4-0.2,0.5l0,0l-12,3.8c-0.1,0-0.2,0.2-0.1,0.3c0,0.1,0.1,0.1,0.1,0.1
	c6.1,3.6,13.4,5,20.3,3.3c9.2-2.4,15.6-8.1,19.2-17.4c0.2-0.6,0.1-0.7-0.5-0.4c-0.6,0.3-0.8,0.8-0.6,1.3c0.1,0.3-0.1,0.6-0.3,0.7
	l0,0l-12.1,3.8c-0.3,0.1-0.4,0-0.5-0.3l-0.1-0.2c-0.1-0.2,0-0.3,0.2-0.4l9.6-3.1c0.5-0.1,0.6-0.4,0.3-0.8c-0.1-0.2-0.1-0.4-0.1-0.5
	c0-0.6-0.2-0.9-0.9-0.9l-44.5,2.8c-0.2,0-0.4,0.2-0.3,0.4v0.1c1.9,3.9,4.6,7.3,8.1,10.1c0.4,0.3,0.9,0.4,1.3,0.3l12.7-4
	c0.1,0,0.2,0,0.3,0.1L597.7,123.3z M650.1,262.6c0-20.6-16.7-37.3-37.3-37.3l0,0c-20.6,0-37.3,16.7-37.3,37.3s16.7,37.3,37.3,37.3
	C633.4,299.9,650.1,283.2,650.1,262.6L650.1,262.6z M449.2,278.5l-2.8-0.9c-0.3-0.1-0.6-0.1-0.9,0c-3.4,0.8-6.7,2.1-9.9,3.7
	c-23.5,11.8-35.8,38.3-28.7,63.9c8.7,31.5,42.3,48,72.4,36.8c16.6-6.2,29.5-20.6,33.7-37.5c4.2-16.8,1.1-32.5-9.3-47
	c-0.1-0.2-0.3-0.3-0.5-0.3c-0.1,0-0.2,0-0.3,0.1c-0.3,0.1-0.6,0.1-1,0l-12.3-4.4c-0.2-0.1-0.2-0.2-0.1-0.3l0.1-0.3
	c0.1-0.3,0.3-0.4,0.6-0.3l11.8,4c0.6,0.2,0.7,0.1,0.3-0.4c-1.3-1.7-2.8-3.3-4.4-4.8c-13.8-12.6-30.1-17.4-48.8-14.2
	c-1,0.2-1,0.4-0.1,0.8c0.3,0.1,0.5,0.3,0.7,0.6C449.9,278.5,449.8,278.6,449.2,278.5z"/>
<path d="M95.2,76.3l5.8,2.2c0.2,0.1,0.3,0.3,0.2,0.4c0,0.1-0.1,0.2-0.2,0.2l-5.8,2.1c-0.2,0.1-0.4,0-0.4-0.2v-0.1v-4.3
	C94.8,76.4,94.9,76.3,95.2,76.3C95.1,76.3,95.1,76.3,95.2,76.3z"/>
<path class="st0" d="M437.1,79.1c0-0.1,0.1-0.3,0.2-0.4c0.2-0.3,0.5-0.3,0.8-0.1c0.5,0.4,1,0.5,1.6,0.2c0.3-0.1,0.5-0.5,0.5-0.8
	c0-0.2,0-0.4,0.1-0.6c0.2-0.5,0.4-0.5,0.5,0l0.2,0.9c0.1,0.3,0.3,0.6,0.6,0.7c0.5,0.2,0.9,0.2,1.3-0.1c0.3-0.2,0.4-0.5,0.4-0.8
	c0-0.2,0-0.4,0-0.6c0.1-0.7,0.3-0.7,0.6-0.1c0.6,1.3,1.4,1.7,2.5,0.9c0.1-0.1,0.3-0.1,0.4,0c0.6,0.6,1.2,0.5,1.9-0.1
	c0.4-0.4,0.6-0.3,0.5,0.3l-4.3,29.8c0,0.3-0.2,0.5-0.5,0.5h-5.7c-0.4,0-0.5-0.2-0.4-0.5c0.3-1.8-1.1-5.7-1.7-7.6
	c-0.1-0.4,0-0.7,0.4-0.9c0.1-0.1,0.2-0.1,0.2-0.3c0.1-0.4,0-0.6-0.3-0.8c-0.6-0.3-1-0.7-1.1-1.3c-1.6-6-3.1-11.9-4.7-17.8
	c-0.1-0.2-0.1-0.4-0.1-0.6c0.1-1.5,0.5-2.2,1.1-2c0.4,0.1,0.6,0.4,0.6,0.8c-0.1,0.7,0.1,1.3,0.5,1.9c0.3,0.4,0.7,0.5,1.2,0.3
	c0.6-0.3,1.3-0.4,2-0.4C436.8,79.8,437.1,79.6,437.1,79.1z"/>
<path d="M91.6,78.2c0.4-0.2,0.8-0.1,1,0.1s0.2,0.6,0,0.8l-0.1,0.1c-0.3,0.2-0.7,0.2-1,0s-0.3-0.4-0.3-0.7
	C91.3,78.4,91.4,78.2,91.6,78.2z"/>
<ellipse transform="matrix(6.981091e-03 -1 1 6.981091e-03 -32.7391 124.5898)" cx="46.4" cy="78.8" rx="0.6" ry="0.9"/>
<path d="M49.2,78.3c0.4-0.2,0.7-0.3,1.1-0.1c0.3,0.1,0.5,0.4,0.4,0.7c-0.1,0.2-0.2,0.3-0.4,0.4c-0.4,0.1-0.8,0.1-1.1-0.1
	c-0.2-0.1-0.3-0.4-0.2-0.6C49.1,78.4,49.1,78.4,49.2,78.3z"/>
<path d="M53.3,79.3c-0.2,0.1-0.4,0-0.6-0.1c-0.2-0.1-0.3-0.4-0.2-0.7c0-0.1,0.1-0.1,0.2-0.2c0.4-0.2,0.8-0.2,1.2,0s0.4,0.4,0.2,0.8
	c-0.1,0.2-0.3,0.3-0.5,0.2C53.5,79.2,53.4,79.2,53.3,79.3z"/>
<path d="M56.2,78.4c0.1-0.3,0.4-0.4,0.8-0.4c0.7,0.2,0.9,0.5,0.6,1c-0.1,0.2-0.4,0.4-0.7,0.3C56.2,79.3,56,79,56.2,78.4z"/>
<path d="M60,79.3c-0.2,0-0.3-0.1-0.4-0.3c-0.1-0.2-0.1-0.4,0-0.6c0.1-0.1,0.2-0.2,0.3-0.2c0.5-0.2,0.9-0.1,1.2,0.2
	c0.4,0.4,0.3,0.6-0.2,0.8C60.6,79.3,60.3,79.3,60,79.3z"/>
<path d="M63.5,78.2c0.4-0.2,0.7-0.2,1.1,0.1c0.2,0.2,0.3,0.5,0.2,0.7c0,0.1-0.1,0.1-0.2,0.2c-0.3,0.2-0.7,0.2-1,0.1
	s-0.4-0.4-0.3-0.7C63.2,78.4,63.3,78.3,63.5,78.2z"/>
<path d="M66.9,79.3c-0.1,0-0.3-0.1-0.3-0.2c-0.1-0.2-0.1-0.4,0.1-0.5c0.1-0.1,0.2-0.2,0.3-0.2c0.6-0.2,1.1-0.1,1.3,0.5
	c0.1,0.2,0,0.4-0.2,0.4C67.7,79.3,67.3,79.3,66.9,79.3z"/>
<path d="M70.5,78.2c0.3-0.1,0.6-0.1,0.9,0s0.4,0.4,0.3,0.7c-0.1,0.2-0.2,0.3-0.3,0.3c-0.3,0.1-0.6,0.1-0.9,0s-0.4-0.4-0.3-0.7
	C70.3,78.4,70.4,78.3,70.5,78.2z"/>
<path d="M74.2,79.3c-0.1,0-0.3,0-0.4-0.1c-0.2-0.1-0.3-0.3-0.2-0.5v-0.1c0.4-0.5,0.9-0.6,1.5-0.3c0.2,0.1,0.3,0.4,0.2,0.7
	c0,0.1-0.1,0.1-0.1,0.1c-0.1,0.1-0.3,0.1-0.4,0.1C74.6,79.2,74.4,79.2,74.2,79.3z"/>
<ellipse transform="matrix(0.9985 -5.408079e-02 5.408079e-02 0.9985 -4.1418 4.3332)" cx="78" cy="78.7" rx="0.8" ry="0.6"/>
<path d="M81.3,79.3c-0.2,0-0.3,0-0.5-0.2c-0.3-0.3-0.3-0.6,0.1-0.8c0.4-0.2,0.8-0.2,1.3,0c0.1,0.1,0.2,0.2,0.2,0.3
	c0.1,0.4-0.2,0.7-0.7,0.6C81.6,79.3,81.4,79.3,81.3,79.3z"/>
<ellipse transform="matrix(0.9996 -2.966505e-02 2.966505e-02 0.9996 -2.2973 2.5562)" cx="85" cy="78.7" rx="0.8" ry="0.6"/>
<path d="M89,79.3c-0.8,0.2-1.2,0-1.3-0.7c0-0.1,0-0.1,0.1-0.2c0.5-0.2,0.9-0.2,1.3,0c0.2,0.1,0.4,0.3,0.3,0.6c0,0.1-0.1,0.1-0.1,0.2
	C89.2,79.2,89.1,79.2,89,79.3z"/>
<path class="st0" d="M609.7,98.8l2.8,5.3c0.2,0.4,0.5,0.5,0.9,0.2c0.2-0.2,0.3-0.3,0.4-0.5c0.2-0.4,0.5-0.5,0.9-0.2l7.4,6.5
	c0.5,0.5,0.5,0.6-0.2,0.3l-0.5-0.2c-0.7-0.3-0.9,0-0.7,0.7l0.2,0.5c0.1,0.4,0,0.7-0.5,0.7l-44.8,2.8c-0.7,0-1.1-0.2-1.3-0.9
	c-2.1-6.6-1.9-12.9,0.6-19c7.1-16.9,28.3-21.8,42.1-10c7,5.9,11.3,16.4,8.8,25.8c-0.1,0.3-0.4,0.6-0.8,0.5c-0.1,0-0.2-0.1-0.3-0.1
	l-9.4-8.3c-0.5-0.4-0.4-0.7,0.2-1c0.2-0.1,0.3-0.2,0.5-0.3c0.4-0.4,0.3-0.7-0.2-0.9l-5.7-2.2C609.5,98.2,609.4,98.4,609.7,98.8z"/>
<path d="M416,88.8c0.3-0.5,0.7-0.8,1.1-1.2c0.3-0.2,0.5-0.2,0.8,0.1l1,1.3c0.2,0.2,0.1,0.6-0.1,0.7l0,0l-1.3,1
	c-0.3,0.2-0.3,0.4-0.1,0.7l1.1,1.4c0.3,0.4,0.2,0.6-0.3,0.8l-9.5,2.4c-0.6,0.2-0.7,0-0.4-0.6l4.9-8.3c0.3-0.5,0.6-0.5,1,0l1.2,1.6
	C415.6,89.1,415.8,89.1,416,88.8z"/>
<path d="M466.3,90.8l-3.6-2c-0.4-0.2-0.5-0.7-0.3-1.1l0.2-0.3c0.2-0.4,0.5-0.5,0.9-0.3l3.9,2.2c0.3,0.1,0.6,0.1,0.7-0.2
	c0-0.1,0.1-0.1,0.1-0.2c0-0.4,0.2-0.8,0.4-1.1c0.3-0.4,0.6-0.4,0.9,0l4.9,6.1c0.4,0.4,0.3,0.6-0.3,0.5l-7.9-1.1
	c-0.4-0.1-0.5-0.3-0.4-0.6c0.2-0.5,0.4-0.9,0.8-1.2C466.7,91.3,466.7,91,466.3,90.8z"/>
<path d="M94.2,102.7l5.8,2.2c0.2,0.1,0.3,0.3,0.2,0.4c0,0.1-0.1,0.2-0.2,0.2l-5.8,2.2c-0.2,0.1-0.4,0-0.4-0.2v-0.1V103
	C93.8,102.8,93.9,102.7,94.2,102.7C94.2,102.7,94.2,102.7,94.2,102.7z"/>
<path d="M45.2,104.6h12.9c0.3,0,0.6,0.3,0.6,0.6l0,0c0,0.3-0.3,0.6-0.6,0.6H45.2c-0.3,0-0.6-0.3-0.6-0.6l0,0
	C44.5,104.8,44.8,104.6,45.2,104.6z"/>
<path d="M73.2,104.7h13.2c0.3,0,0.5,0.2,0.5,0.5l0,0c0,0.3-0.2,0.5-0.5,0.5H73.2c-0.3,0-0.5-0.2-0.5-0.5l0,0
	C72.7,104.9,72.9,104.7,73.2,104.7z"/>
<path class="st0" d="M431.3,109.8c6.7,1.4,13.1,1.4,19.4,0.1c0.1,0,0.2,0,0.2,0.1l0,0v3c0,0.2-0.1,0.3-0.3,0.3
	c-6.3,1.4-12.6,1.7-18.9,0.8c-0.2,0-0.3-0.1-0.3-0.3L431,110C431.1,109.8,431.2,109.7,431.3,109.8z"/>
<path class="st0" d="M597.7,123.3l-0.1-0.3c-0.1-0.1-0.1-0.2-0.3-0.1l-12.7,4c-0.5,0.1-0.9,0-1.3-0.3c-3.5-2.9-6.2-6.2-8.1-10.1
	c-0.1-0.2,0-0.4,0.2-0.5h0.1l44.5-2.8c0.6,0,0.9,0.2,0.9,0.9c0,0.2,0,0.4,0.1,0.5c0.3,0.4,0.2,0.7-0.3,0.8l-9.6,3.1
	c-0.2,0.1-0.3,0.2-0.2,0.4l0.1,0.2c0.1,0.3,0.3,0.4,0.5,0.3l12.1-3.8c0.3-0.1,0.4-0.4,0.4-0.7l0,0c-0.2-0.6,0-1,0.6-1.3
	c0.5-0.3,0.7-0.2,0.5,0.4c-3.6,9.2-10,15-19.2,17.4c-6.9,1.8-14.3,0.4-20.3-3.3c-0.1-0.1-0.1-0.2-0.1-0.3l0.1-0.1l12-3.8
	C597.6,123.8,597.7,123.6,597.7,123.3L597.7,123.3z"/>
<path class="st0" d="M431.9,115.9c6.4,0.8,12.6,0.6,18.7-0.8c0.3-0.1,0.4,0,0.4,0.3l0.2,1.8c0,0.2-0.1,0.4-0.3,0.4
	c-6.3,1.4-12.6,1.7-18.8,0.9c-0.3,0-0.5-0.3-0.5-0.6l-0.1-1.7C431.5,116,431.6,115.9,431.9,115.9z"/>
<path d="M567.5,117.2c0.4-0.5,0.8-0.7,1.3-0.5c0.3,0.1,0.4,0.4,0.3,0.7c-0.1,0.1-0.2,0.3-0.3,0.3c-0.3,0.1-0.7,0.2-1,0.1
	C567.2,117.8,567.1,117.6,567.5,117.2z"/>
<path d="M565.2,117.8c0.1,0,0.3,0,0.4,0.1c0.2,0.1,0.3,0.3,0.3,0.5c0,0.1-0.1,0.2-0.2,0.3c-0.4,0.4-0.9,0.5-1.4,0.4
	c-0.2-0.1-0.3-0.3-0.3-0.5c0-0.1,0-0.1,0.1-0.1C564.4,118.1,564.7,117.9,565.2,117.8z"/>
<ellipse transform="matrix(0.9415 -0.3371 0.3371 0.9415 -7.4691 196.3583)" cx="561.7" cy="119.7" rx="1" ry="0.5"/>
<path class="st0" d="M433,123.1c-0.4-0.1-0.8-0.4-0.9-0.9l-0.3-1.2c-0.1-0.5,0.1-0.7,0.6-0.6c6.2,0.8,12.5,0.5,18.8-0.9
	c0.3-0.1,0.4,0.1,0.4,0.3l-0.1,2.8c0,0.3-0.1,0.4-0.4,0.5C445,124.3,439,124.3,433,123.1z"/>
<path d="M558,121.6c-0.2,0-0.4,0-0.4-0.3c-0.1-0.4,0-0.7,0.4-0.9c0.3-0.2,0.7-0.2,1,0c0.2,0.1,0.3,0.4,0.1,0.6l-0.1,0.1
	C558.7,121.4,558.4,121.5,558,121.6z"/>
<ellipse transform="matrix(0.8121 -0.5835 0.5835 0.8121 32.9528 346.8335)" cx="555" cy="122.2" rx="0.8" ry="0.6"/>
<path d="M552.3,122.8c0.2,0,0.3,0.1,0.3,0.3c0,0.1,0,0.1,0,0.2c-0.2,0.5-0.6,0.7-1.2,0.8c-0.4,0-0.5-0.1-0.3-0.5
	C551.3,123.1,551.7,122.8,552.3,122.8z"/>
<path d="M547.4,124.7c0.5-0.3,1-0.5,1.6-0.6c0.5-0.1,0.5,0.1,0.2,0.4c-0.6,0.6-1.3,0.7-2.2,0.4c-0.2-0.1-0.2-0.1,0-0.1
	S547.3,124.8,547.4,124.7z"/>
<path class="st0" d="M448.5,126.6c-3.5,1.8-11.1,2.4-14.6-1.1c-0.4-0.4-0.3-0.5,0.2-0.4c4.7,0.8,9.4,0.9,14,0.2
	C450.8,124.9,450.9,125.3,448.5,126.6z"/>
<path d="M546.1,125.5c-0.4,0.4-0.9,0.7-1.4,0.7c-0.6,0.1-0.6-0.1-0.2-0.5c0.4-0.3,0.8-0.6,1.4-0.7
	C546.5,125,546.5,125.1,546.1,125.5z"/>
<path d="M542.3,126.5c0.4-0.1,0.5,0.1,0.3,0.5s-0.6,0.7-1.2,0.7c-0.2,0-0.3-0.1-0.3-0.3v-0.1C541.4,126.8,541.7,126.6,542.3,126.5z"
	/>
<ellipse transform="matrix(0.9426 -0.3338 0.3338 0.9426 -12.5763 186.0195)" cx="535" cy="129.6" rx="5" ry="0.3"/>
<path d="M529.3,131.5c0.1-0.1,0.2-0.2,0.4-0.2c0.3-0.1,0.4,0,0.2,0.2c-0.4,0.5-1,0.8-1.7,0.7c-0.4,0-0.5-0.2-0.1-0.4
	C528.4,131.7,528.8,131.5,529.3,131.5z"/>
<path d="M524.8,133.1c0.3-0.3,0.7-0.4,1.2-0.4c0.4,0,0.5,0.1,0.2,0.4c-0.2,0.2-0.4,0.4-0.6,0.4c-2.7,0.7-5.2,1.6-7.5,2.6
	c-0.1,0.1-0.2,0-0.3-0.1l-0.1-0.3v-0.1l6.4-2.3C524.4,133.4,524.7,133.2,524.8,133.1z"/>
<path d="M516.5,136.4c-0.4,0.6-0.9,0.9-1.6,0.9c-0.5,0-0.6-0.1-0.2-0.5c0.6-0.5,1.3-0.8,2.1-0.7c0.1,0,0.1,0,0,0c0,0,0,0-0.1,0
	C516.7,136.2,516.6,136.2,516.5,136.4z"/>
<path d="M512.8,138.1c-0.3,0.2-0.7,0.4-1.1,0.4c-0.5,0.1-0.6-0.1-0.3-0.4c0.3-0.4,0.7-0.6,1.2-0.4
	C513,137.7,513.1,137.8,512.8,138.1z"/>
<path d="M507.9,139.7c0.5-0.6,1.2-0.9,1.9-1c0.5,0,0.5,0.1,0.1,0.4c-0.7,0.5-1.6,0.8-2.5,0.8c-0.4,0-0.4,0,0-0.2c0.1,0,0.2,0,0.3,0
	C507.7,139.8,507.8,139.8,507.9,139.7z"/>
<path d="M530.6,144.1l12.7-4c0.2-0.1,0.5,0.1,0.6,0.3l0,0c0.1,0.2-0.1,0.5-0.3,0.6l-12.7,4c-0.2,0.1-0.5-0.1-0.6-0.3l0,0
	C530.2,144.4,530.3,144.2,530.6,144.1z"/>
<path d="M346.9,140.3h0.5c0.3,0,0.6,0.3,0.6,0.6v2.4c0,0.3-0.3,0.6-0.6,0.6h-0.5c-0.3,0-0.6-0.3-0.6-0.6v-2.4
	C346.3,140.5,346.6,140.3,346.9,140.3z"/>
<path d="M501.5,141.7l1.2-0.4c0.6-0.2,0.7-0.1,0.3,0.4c-0.4,0.5-0.9,0.6-1.4,0.5C501,142,501,141.9,501.5,141.7z"/>
<path d="M499.5,142.4c0.3,0,0.4,0.1,0.3,0.4c-0.2,0.5-0.6,0.8-1.2,0.8c-0.2,0-0.3-0.1-0.3-0.3c0-0.1,0-0.1,0.1-0.2
	C498.6,142.6,499,142.4,499.5,142.4z"/>
<path d="M494.6,144.8c0.4-0.7,1-1,1.7-1c0.5,0,0.5,0.1,0.1,0.4c-0.6,0.5-1.3,0.7-2.1,0.7c-0.1,0-0.1,0,0,0l0,0l0,0h0.1
	C494.5,144.9,494.6,144.8,494.6,144.8z"/>
<path d="M489.9,146.5c-0.4,0.4-0.9,0.6-1.5,0.6c-0.6-0.1-0.6-0.2-0.1-0.5c1.5-0.6,2.9-1.1,4.4-1.5c1.2-0.3,1.3-0.2,0.2,0.4
	c-0.5,0.3-1,0.4-1.6,0.4C490.8,145.9,490.3,146.1,489.9,146.5z"/>
<path d="M346.9,147.3h0.5c0.3,0,0.6,0.3,0.6,0.6v2.4c0,0.3-0.3,0.6-0.6,0.6h-0.5c-0.3,0-0.6-0.3-0.6-0.6v-2.4
	C346.3,147.6,346.5,147.3,346.9,147.3z"/>
<path d="M486.6,147.6c-0.4,0.6-0.8,0.8-1.4,0.7c-0.4-0.1-0.5-0.3-0.2-0.6c0.4-0.4,0.9-0.5,1.4-0.5
	C486.7,147.3,486.8,147.4,486.6,147.6z"/>
<path d="M483.1,148.7c0.4,0,0.5,0.2,0.2,0.5s-0.6,0.4-1,0.5c-0.5,0-0.6-0.1-0.3-0.5C482.1,148.8,482.5,148.6,483.1,148.7z"/>
<path d="M503.9,152.5l12.5-3.9c0.3-0.1,0.5,0.1,0.6,0.3l0,0c0.1,0.3-0.1,0.5-0.3,0.6l-12.5,3.9c-0.3,0.1-0.5-0.1-0.6-0.3l0,0
	C503.5,152.9,503.6,152.6,503.9,152.5z"/>
<ellipse transform="matrix(0.9455 -0.3256 0.3256 0.9455 -22.8162 164.2523)" cx="479.3" cy="150.3" rx="1.1" ry="0.4"/>
<ellipse transform="matrix(0.9205 -0.3907 0.3907 0.9205 -21.4044 197.9915)" cx="475.9" cy="151.6" rx="1.2" ry="0.3"/>
<path d="M473.5,152.1c0.4-0.1,0.5,0,0.2,0.3c-0.5,0.6-1.1,0.8-1.7,0.7c-0.5-0.1-0.5-0.2-0.1-0.4
	C472.3,152.5,472.9,152.3,473.5,152.1z"/>
<path d="M470.1,154c-0.4,0.4-0.8,0.6-1.3,0.5c-0.2,0-0.3-0.2-0.3-0.4c0-0.1,0-0.1,0.1-0.2c0.4-0.4,0.9-0.6,1.4-0.4
	C470.1,153.6,470.2,153.7,470.1,154C470.1,153.9,470.1,153.9,470.1,154z"/>
<path d="M346.9,154.3h0.6c0.3,0,0.6,0.3,0.6,0.6v2.5c0,0.3-0.3,0.6-0.6,0.6h-0.6c-0.3,0-0.6-0.3-0.6-0.6v-2.5
	C346.3,154.6,346.5,154.3,346.9,154.3z"/>
<path d="M465.3,155.9c-0.3,0-0.3-0.1-0.2-0.3c0.3-0.5,0.7-0.7,1.3-0.8c0.5-0.1,0.6,0.1,0.3,0.5C466.4,155.6,466,155.8,465.3,155.9z"
	/>
<ellipse transform="matrix(0.9225 -0.3859 0.3859 0.9225 -24.5107 190.7028)" cx="462.8" cy="156.4" rx="1.3" ry="0.3"/>
<path d="M458.5,157.8c0.6-0.3,1.2-0.6,1.9-0.7c0.5-0.1,0.6,0,0.2,0.3c-0.6,0.6-1.3,0.8-2,0.8C458.2,158.1,458.1,157.9,458.5,157.8z"
	/>
<path d="M477,161.1l12.6-4c0.2-0.1,0.5,0.1,0.6,0.3l0,0c0.1,0.2-0.1,0.5-0.3,0.6l-12.6,4c-0.2,0.1-0.5-0.1-0.6-0.3l0,0
	C476.6,161.5,476.7,161.2,477,161.1z"/>
<path d="M456.8,158.3c0.1,0,0.1,0,0.2,0.1c0,0,0,0,0,0.1c0,0.3-0.2,0.5-0.4,0.6c-0.3,0.3-0.7,0.4-1.1,0.3c-0.4-0.1-0.4-0.3-0.1-0.5
	C455.8,158.6,456.3,158.4,456.8,158.3z"/>
<path d="M453.6,159.7c0.3,0,0.3,0.2,0.1,0.4c-0.3,0.3-0.7,0.5-1.2,0.5c-0.6,0-0.6-0.2-0.2-0.5C452.8,159.7,453.2,159.6,453.6,159.7z
	"/>
<path d="M346.8,161.4h0.7c0.3,0,0.5,0.2,0.5,0.5v2.5c0,0.3-0.2,0.5-0.5,0.5h-0.7c-0.3,0-0.5-0.2-0.5-0.5v-2.5
	C346.3,161.6,346.5,161.4,346.8,161.4z"/>
<path d="M443.6,163.8c-0.4,0.4-0.8,0.6-1.3,0.4c-0.5-0.1-0.5-0.3,0-0.5c1.6-0.6,3.2-1.2,4.8-1.8c0.8-0.3,0.9-0.2,0.2,0.3
	c-0.7,0.5-1.6,0.8-2.5,0.9C444.3,163.2,443.9,163.4,443.6,163.8z"/>
<path d="M439.5,164.7c0.3,0,0.5-0.1,0.7-0.2c0.3,0,0.4,0.1,0.3,0.4c-0.2,0.5-0.6,0.8-1.2,0.7c-0.2,0-0.4-0.2-0.4-0.4c0,0,0,0,0-0.1
	C439,164.8,439.2,164.7,439.5,164.7z"/>
<path d="M435.2,166.7c0.5-0.6,1.1-0.9,1.8-0.9c0.3,0,0.4,0.1,0.2,0.4C437,166.5,436.4,166.7,435.2,166.7z"/>
<path d="M450.3,169.6l12.5-3.9c0.2-0.1,0.5,0.1,0.6,0.3l0,0c0.1,0.2-0.1,0.5-0.3,0.6l-12.5,3.9c-0.2,0.1-0.5-0.1-0.6-0.3l0,0
	C449.9,169.9,450,169.7,450.3,169.6z"/>
<path d="M435.2,166.7c-1,0.7-2,1.1-3,1.1c-0.4,0-0.4-0.1-0.1-0.3C433.1,167,434.1,166.7,435.2,166.7z"/>
<path d="M430.8,168.4c-0.6,0.5-1.2,0.7-1.8,0.7c-0.5,0-0.5-0.1-0.1-0.4c0.5-0.4,1.1-0.6,1.8-0.7C431.2,168,431.2,168.1,430.8,168.4z
	"/>
<path d="M346.8,168.4h0.8c0.3,0,0.5,0.2,0.5,0.5v2.6c0,0.3-0.2,0.5-0.5,0.5h-0.8c-0.3,0-0.5-0.2-0.5-0.5v-2.6
	C346.3,168.6,346.5,168.4,346.8,168.4z"/>
<path d="M427.2,169.9c-0.3,0.3-0.7,0.5-1.1,0.5c-0.9,0-1-0.2-0.1-0.6c0.3-0.1,0.6-0.2,1-0.3C427.5,169.4,427.5,169.5,427.2,169.9z"
	/>
<path d="M422.4,171.8c-0.3,0-0.4-0.1-0.2-0.3c0.4-0.5,0.9-0.7,1.4-0.8s0.6,0.1,0.3,0.5C423.5,171.5,423,171.8,422.4,171.8z"/>
<path d="M415.3,173.9l5.7-2.1c0,0,0,0,0.1,0l0.1,0.3c0.1,0.1,0,0.2-0.1,0.2l-5.6,2c0,0-0.1,0-0.1-0.1L415.3,173.9
	C415.2,173.9,415.2,173.9,415.3,173.9z"/>
<path d="M412.5,174.8c0.4-0.3,0.8-0.5,1.3-0.6c0.5-0.2,0.6,0,0.3,0.4c-0.4,0.6-0.9,0.9-1.5,0.7C412.2,175.1,412.2,175,412.5,174.8z"
	/>
<path d="M423.4,178.2l12.7-4c0.2-0.1,0.5,0.1,0.6,0.3l0,0c0.1,0.2-0.1,0.5-0.3,0.6l-12.7,4c-0.2,0.1-0.5-0.1-0.6-0.3l0,0
	C423,178.5,423.1,178.2,423.4,178.2z"/>
<path d="M346.7,175.5h0.9c0.2,0,0.4,0.2,0.4,0.4v2.6c0,0.2-0.2,0.4-0.4,0.4h-0.9c-0.2,0-0.4-0.2-0.4-0.4v-2.6
	C346.3,175.7,346.5,175.5,346.7,175.5z"/>
<path d="M410.4,175.4c0.2,0,0.4,0.1,0.4,0.3c0,0.1,0,0.2-0.1,0.2c-0.3,0.4-0.7,0.6-1.3,0.6c-0.2,0-0.3-0.1-0.3-0.3
	c0-0.1,0-0.1,0.1-0.2C409.5,175.7,409.9,175.5,410.4,175.4z"/>
<path d="M405.9,177.5c0.4-0.4,1-0.6,1.5-0.7c0.3-0.1,0.4,0,0.2,0.3c-0.1,0.2-0.3,0.3-0.4,0.3c-1.7,0.4-3.4,1.1-5,1.9l0,0l-0.1-0.2
	c-0.1-0.1,0-0.3,0.1-0.3c0.9-0.6,1.9-0.9,2.9-0.9C405.4,177.8,405.7,177.7,405.9,177.5z"/>
<path d="M401.2,179.2c-0.5,0.6-1.2,0.9-2,0.9c-0.5,0-0.6-0.1-0.1-0.4c0.7-0.4,1.5-0.7,2.3-0.7c0.1,0,0.1,0,0,0l0,0
	C401.3,179.2,401.2,179.2,401.2,179.2z"/>
<path d="M397.9,180.3c-0.3,0.5-0.8,0.9-1.4,1c-0.5,0.1-0.6,0-0.2-0.3c0.4-0.4,0.9-0.7,1.4-0.9C397.9,180.1,398,180.2,397.9,180.3z"
	/>
<ellipse transform="matrix(0.91 -0.4147 0.4147 0.91 -40.1148 179.6257)" cx="393.6" cy="182.2" rx="1" ry="0.3"/>
<path d="M346.8,182.5h0.8c0.3,0,0.5,0.2,0.5,0.5v2.6c0,0.3-0.2,0.5-0.5,0.5h-0.8c-0.3,0-0.5-0.2-0.5-0.5V183
	C346.3,182.7,346.5,182.5,346.8,182.5z"/>
<path d="M396.4,186.7l12.7-4c0.2-0.1,0.5,0.1,0.6,0.3l0,0c0.1,0.2-0.1,0.5-0.3,0.6l-12.7,4c-0.2,0.1-0.5-0.1-0.6-0.3l0,0
	C396,187,396.2,186.8,396.4,186.7z"/>
<path d="M387.7,184.5c-0.3,0.3-0.7,0.5-1.2,0.5c-0.8,0-0.8-0.1-0.1-0.4c1.3-0.6,2.8-1.1,4.3-1.5c0.8-0.2,0.8-0.1,0.1,0.3
	c-0.7,0.4-1.5,0.7-2.4,0.8C388.1,184.2,387.9,184.3,387.7,184.5z"/>
<path d="M384.5,185.6c-0.4,0.5-0.9,0.7-1.5,0.7c-0.5,0-0.6-0.2-0.2-0.5s0.8-0.5,1.4-0.6C384.7,185.1,384.8,185.2,384.5,185.6z"/>
<path d="M379.8,186.8C379.8,186.7,379.8,186.7,379.8,186.8c1.9,0,1.9,0.3,0.2,0.8c-2,0.7-4,1.4-5.9,2.2c-1.2,0.5-2.4,0.2-3.3,1.1
	c-0.3,0.3-0.6,0.4-1,0.4c-0.1,0-0.2,0-0.3-0.1c-0.4-0.1-0.4-0.3,0-0.4c1.8-0.7,3.7-1.3,5.7-1.9c1.2-0.3,1.9-1.2,3.2-1.1
	C379.1,187.8,379.6,187.5,379.8,186.8z"/>
<path d="M346.8,189.5h0.7c0.3,0,0.5,0.2,0.5,0.5v2.5c0,0.3-0.2,0.5-0.5,0.5h-0.7c-0.3,0-0.5-0.2-0.5-0.5V190
	C346.3,189.7,346.5,189.5,346.8,189.5z"/>
<path d="M367.6,191.3c0.2,0,0.3,0.1,0.2,0.3c-0.2,0.5-0.6,0.8-1.1,0.9c-0.5,0-0.6-0.1-0.3-0.5C366.8,191.6,367.2,191.3,367.6,191.3z
	"/>
<path d="M369.7,195.2l12.6-4c0.3-0.1,0.5,0.1,0.6,0.3v0.1c0.1,0.3-0.1,0.5-0.3,0.6l-12.6,4c-0.3,0.1-0.5-0.1-0.6-0.3v-0.1
	C369.3,195.5,369.4,195.2,369.7,195.2z"/>
<path d="M363.2,193c0.4-0.4,0.8-0.5,1.3-0.3c0.2,0.1,0.2,0.3,0.1,0.5c-0.2,0.4-0.6,0.6-1.1,0.6c-0.3,0-0.5-0.2-0.5-0.4
	C363.1,193.2,363.1,193.1,363.2,193z"/>
<path d="M285.5,206.5c0.6,2.3,1.4,4,2.5,5.1c2.9,2.9,2.9,11.8-0.5,14.4c-0.2,0.2-0.4,0.4-0.5,0.6l-1.5,3.9c-0.1,0.2,0,0.4,0.2,0.4
	c3.9,0.7,6.9,3.1,8.9,7.3c0.1,0.2,0,0.4-0.2,0.5l-0.3,0.1c-0.2,0.1-0.3,0-0.4-0.1c-1.7-3.4-4.1-5.6-7.2-6.6
	c-1.4-0.4-1.5-0.1-0.5,0.8c0.3,0.3,0.6,0.5,0.9,0.7c2.8,2.2,4.3,5.3,4.4,9.3c0,0.1-0.1,0.2-0.2,0.2h-0.3c-0.3,0-0.5-0.1-0.5-0.4
	c-0.4-4.4-2.6-7.8-6.5-10.3c-0.5-0.3-0.6-0.2-0.4,0.3c1.7,3.6,1.9,7.4-0.9,10.6c0,0.1-0.1,0.1-0.2,0l-0.2-0.2
	c-0.3-0.2-0.3-0.5-0.1-0.8c2.2-3,2.1-6.5-0.2-10.7c-0.2-0.3-0.5-0.6-0.9-0.8c-9.3-3.8-18.8-7.7-28.6-11.8c-0.3-0.1-0.4-0.3-0.4-0.7
	c0-0.3,0.1-0.5,0.4-0.6l28.6-11.8c0.4-0.2,0.7-0.4,0.9-0.8c2.4-4.1,2.4-7.7,0.1-10.8c-0.3-0.4-0.2-0.6,0.3-0.7l0.3-0.1
	c0.1,0,0.2,0,0.2,0.1c2.3,3,2.6,6.5,0.8,10.3c-0.3,0.7-0.2,0.8,0.5,0.4c4-2.6,6.1-6,6.4-10c0-0.3,0.2-0.5,0.5-0.5h0.3
	c0.1,0,0.3,0.1,0.3,0.3l0,0c-0.4,4.5-2.4,7.9-6,10.3c-1.2,0.8-1.2,1,0.3,0.6c3.7-1,6.4-3.3,8.1-6.9c0.1-0.2,0.3-0.3,0.5-0.2l0.3,0.2
	c0.1,0.1,0.2,0.2,0.1,0.3c-1.3,3-5.3,7.6-8.9,7.3C285.5,206.1,285.4,206.2,285.5,206.5z M281.6,230.1c0.1,0.1,0.2,0,0.1-0.1
	c-2.7-7.5-2.8-15-0.2-22.5c0.1-0.4,0-0.5-0.3-0.3l-27.4,11.3c-0.1,0-0.1,0.1-0.1,0.2l0.1,0.1L281.6,230.1z M285.7,225.6
	c-2.4-2.7-3-11.2-0.1-13.9c0.2-0.2,0.3-0.5,0.3-0.8c-0.2-1.3-0.7-2.5-1.3-3.5c-0.3-0.5-1-0.6-1.4-0.3c-0.1,0.1-0.3,0.2-0.3,0.4
	c-0.8,1.4-1.3,3-1.6,4.8c-0.7,4.3-1.1,14.4,1.8,17.6c0.4,0.4,1.1,0.5,1.5,0.1c0.1-0.1,0.2-0.3,0.3-0.4l1.1-2.9
	C286,226.2,286,225.9,285.7,225.6z"/>
<path d="M361.3,194.5c-0.4,0.3-0.8,0.4-1.3,0.5c-0.5,0-0.6-0.1-0.2-0.5c0.4-0.5,0.9-0.6,1.4-0.5
	C361.6,194.1,361.6,194.2,361.3,194.5z"/>
<ellipse transform="matrix(0.9078 -0.4195 0.4195 0.9078 -49.0933 167.8772)" cx="357.2" cy="195.6" rx="0.9" ry="0.5"/>
<path d="M353.8,197.6c-0.2,0.1-0.4,0-0.5-0.2s-0.1-0.4,0-0.6c0.2-0.3,0.5-0.5,1-0.5s0.6,0.2,0.4,0.6
	C354.5,197.2,354.2,197.5,353.8,197.6z"/>
<path d="M346.7,196.6h0.8c0.3,0,0.5,0.2,0.5,0.5v2.5c0,0.3-0.2,0.5-0.5,0.5h-0.8c-0.3,0-0.5-0.2-0.5-0.5v-2.5
	C346.2,196.8,346.4,196.6,346.7,196.6z"/>
<ellipse transform="matrix(0.8738 -0.4863 0.4863 0.8738 -52.1118 195.4979)" cx="350.6" cy="198.1" rx="0.9" ry="0.6"/>
<path d="M347.5,203.7c0.6,0.7,0.8,1.7,0.4,2.9c-0.2,0.6-0.6,0.8-1.2,0.6c-0.4-0.1-0.5-0.4-0.5-0.7v-2.2c0-0.3-0.2-0.5-0.5-0.4
	l-2.8,0.8c-0.2,0-0.3,0-0.3-0.2l-0.1-0.3c-0.1-0.2,0-0.4,0.3-0.5l12.8-4c0.2-0.1,0.3,0,0.4,0.2l0.1,0.3c0.1,0.2,0,0.4-0.3,0.5
	l-8,2.5C347.4,203.3,347.3,203.5,347.5,203.7z"/>
<path d="M344.8,200.8c-0.4,0.3-0.9,0.4-1.3,0.4c-0.2,0-0.4-0.3-0.4-0.5c0-0.1,0.1-0.2,0.2-0.3c0.4-0.3,0.9-0.5,1.3-0.3
	c0.2,0.1,0.4,0.3,0.3,0.5C344.9,200.6,344.8,200.7,344.8,200.8z"/>
<path d="M340.6,202.4c-0.2,0.1-0.5,0-0.6-0.3c-0.2-0.3-0.1-0.6,0.2-0.8c0.3-0.2,0.7-0.3,1.1-0.2c0.4,0,0.5,0.2,0.3,0.6
	C341.3,202.1,341,202.3,340.6,202.4z"/>
<path d="M337.1,203.7c-0.3,0-0.5-0.2-0.5-0.5c0-0.1,0-0.1,0-0.2c0.2-0.5,0.6-0.7,1.1-0.7c0.4,0.1,0.6,0.3,0.4,0.7
	C338,203.5,337.6,203.7,337.1,203.7z"/>
<path d="M333.4,204.1c0.3-0.3,0.6-0.5,0.9-0.5s0.5,0.2,0.5,0.5c0,0.2-0.1,0.3-0.2,0.4c-0.3,0.3-0.7,0.3-1.1,0.2
	C333.2,204.7,333.1,204.4,333.4,204.1z"/>
<path d="M331.5,204.9c0.2,0,0.3,0.1,0.3,0.3v0.1c-0.3,0.6-0.7,0.9-1.4,0.8c-0.2,0-0.4-0.2-0.3-0.5c0-0.1,0.1-0.2,0.1-0.2
	C330.5,205,331,204.8,331.5,204.9z"/>
<path d="M328.4,206.7c-0.4,0.3-0.8,0.5-1.2,0.6c-0.2,0-0.5-0.2-0.5-0.4s0-0.3,0.2-0.4c0.4-0.3,0.8-0.4,1.3-0.4
	c0.2,0,0.4,0.2,0.3,0.4C328.5,206.5,328.4,206.6,328.4,206.7z"/>
<path class="st0" d="M281.6,230.1l-27.8-11.4c-0.1,0-0.1-0.1-0.1-0.2l0.1-0.1l27.4-11.3c0.4-0.1,0.5,0,0.3,0.3
	c-2.6,7.5-2.6,15.1,0.2,22.5C281.8,230.2,281.7,230.2,281.6,230.1z"/>
<path class="st0" d="M285.6,211.7c-2.9,2.7-2.3,11.2,0.1,13.9c0.2,0.3,0.3,0.6,0.2,0.9l-1.1,2.9c-0.2,0.6-0.8,0.8-1.4,0.6
	c-0.2-0.1-0.3-0.2-0.4-0.3c-2.9-3.2-2.5-13.3-1.8-17.6c0.3-1.8,0.8-3.4,1.6-4.8c0.3-0.5,0.9-0.7,1.4-0.4c0.1,0.1,0.3,0.2,0.4,0.3
	c0.6,1,1.1,2.2,1.3,3.5C286,211.2,285.9,211.5,285.6,211.7z"/>
<path d="M324.9,207.8c-0.2,0.4-0.5,0.6-0.9,0.8c-0.2,0.1-0.4,0-0.5-0.2c0-0.1,0-0.1,0-0.2c0-0.7,0.4-1,1-1.1c0.2,0,0.4,0.2,0.4,0.4
	C325,207.7,324.9,207.8,324.9,207.8z"/>
<path d="M316.1,212.2l12.6-4c0.1,0,0.3,0,0.4,0.2l0.1,0.4c0,0.1,0,0.3-0.2,0.4l-12.6,4c-0.1,0-0.3,0-0.4-0.2l-0.1-0.4
	C315.9,212.4,316,212.3,316.1,212.2z"/>
<path d="M321.6,208.7c0,0.4-0.1,0.7-0.3,1.1c-0.1,0.1-0.2,0.2-0.3,0.3c-0.2,0-0.3,0-0.5,0c-0.3-0.1-0.4-0.4-0.3-0.7
	c0.2-0.5,0.6-0.8,1.1-0.9C321.5,208.4,321.6,208.5,321.6,208.7L321.6,208.7z"/>
<path d="M317.6,209.8c0.1,0,0.2-0.1,0.3-0.1c0.3,0,0.4,0.1,0.5,0.3c0.2,0.7-0.1,1.1-0.8,1.2c-0.3,0.1-0.6-0.1-0.7-0.4
	c-0.2-0.5-0.1-0.8,0.3-0.9C317.4,210,317.5,209.9,317.6,209.8z"/>
<path d="M409.3,243.5c-4.8-11.7,0-24.8,11-30.6c11.9-6.3,26.3-1.8,32.5,9.9c10.1,18.9-7.6,40.5-28.1,34.5
	c-6.1-1.8-10.9-5.6-14.3-11.3c-0.3-0.5-0.7-0.8-1.3-0.9l-9.7-2.2c-0.3-0.1-0.4-0.3-0.4-0.6l0.1-0.3c0-0.1,0.1-0.2,0.3-0.2l9.3,2.1
	C409.3,244.2,409.5,244,409.3,243.5z M453.1,234.3c0-11.9-9.6-21.5-21.5-21.5l0,0c-11.9,0-21.5,9.6-21.5,21.5l0,0
	c0,11.9,9.6,21.5,21.5,21.5l0,0C443.4,255.8,453.1,246.1,453.1,234.3L453.1,234.3z"/>
<path d="M346.8,210.6h0.7c0.3,0,0.5,0.2,0.5,0.5v2.5c0,0.3-0.2,0.5-0.5,0.5h-0.7c-0.3,0-0.5-0.2-0.5-0.5v-2.5
	C346.3,210.9,346.5,210.6,346.8,210.6z"/>
<path d="M314.2,212.2c-0.1,0-0.2,0.1-0.4,0c-0.2,0-0.4-0.3-0.3-0.5l0,0c0.2-0.7,0.7-0.9,1.4-0.5c0.1,0.1,0.2,0.2,0.2,0.4
	c0,0.3-0.1,0.4-0.2,0.5C314.6,212,314.4,212.1,314.2,212.2z"/>
<path d="M310.9,213.5c-0.4,0.1-0.6,0-0.5-0.4c0-0.6,0.4-0.9,1.1-0.9c0.2,0,0.5,0.2,0.5,0.4c0,0.1,0,0.2-0.1,0.2
	C311.6,213.1,311.3,213.3,310.9,213.5z"/>
<path class="st0" d="M453.1,234.3c0,11.9-9.6,21.5-21.5,21.5l0,0c-11.9,0-21.5-9.6-21.5-21.5l0,0c0-11.9,9.6-21.5,21.5-21.5l0,0
	C443.4,212.8,453.1,222.4,453.1,234.3L453.1,234.3z M440.4,251.7c0.1-0.3-0.1-0.5-0.4-0.6l0,0l-12.9-2.9c-0.3-0.1-0.5,0.1-0.6,0.4
	l0,0l0,0c-0.1,0.3,0.1,0.5,0.4,0.6l0,0l12.9,2.9C440.1,252.2,440.3,252,440.4,251.7C440.4,251.8,440.4,251.8,440.4,251.7
	L440.4,251.7z"/>
<path d="M304.7,214.4c0.2-0.1,0.4-0.2,0.5-0.3c0.3-0.3,0.8-0.5,1.2-0.5h1.9c0.2,0,0.3,0.1,0.4,0.2c0.1,0.1,0.1,0.2,0.1,0.3
	s-0.1,0.2-0.2,0.2c-0.3,0.1-0.6,0.3-1,0.4c-0.4,0.2-0.5,0.4-0.4,0.8l0.7,1.9c0.2,0.5,0,0.7-0.5,0.7l-8.9-0.3c-0.2,0-0.3-0.1-0.3-0.3
	c0-0.1,0-0.1,0.1-0.2l4.6-4c0.2-0.2,0.5-0.2,0.7,0s0.3,0.4,0.2,0.6C304,214.4,304.2,214.6,304.7,214.4z"/>
<path d="M346.8,217.7h0.8c0.3,0,0.5,0.2,0.5,0.5v2.6c0,0.3-0.2,0.5-0.5,0.5h-0.8c-0.3,0-0.5-0.2-0.5-0.5v-2.6
	C346.3,217.9,346.5,217.7,346.8,217.7z"/>
<path d="M307.3,224.2l-5.2-3.4c-0.2-0.1-0.2-0.3-0.1-0.5c0.1-0.1,0.1-0.1,0.2-0.2l6.1-0.8c0.2,0,0.3,0.1,0.4,0.3v0.1l-0.9,4.2
	c0,0.2-0.2,0.3-0.4,0.2C307.4,224.2,307.4,224.2,307.3,224.2z"/>
<path d="M317.4,223.4l12.9,2.9c0.3,0.1,0.4,0.3,0.4,0.6l0,0c-0.1,0.3-0.3,0.4-0.6,0.4l-12.9-2.9c-0.3-0.1-0.4-0.3-0.4-0.6l0,0
	C316.9,223.5,317.2,223.4,317.4,223.4z"/>
<path d="M304.9,226.7l12,4.2c0.1,0,0.2,0.2,0.2,0.3l-0.1,0.5c0,0.1-0.2,0.2-0.3,0.2l0,0l-12-4.3c-0.1,0-0.3,0-0.3,0.1l0,0l-0.4,1.5
	c0,0.1-0.2,0.2-0.3,0.2h-0.1l-5.1-4.2c-0.1-0.1-0.1-0.2,0-0.4c0-0.1,0.1-0.1,0.2-0.1l6.6-0.1c0.1,0,0.2,0.1,0.2,0.3v0.1l-0.6,1.4
	C304.7,226.5,304.8,226.6,304.9,226.7L304.9,226.7z"/>
<path d="M346.8,224.7h0.7c0.3,0,0.5,0.2,0.5,0.5v2.5c0,0.3-0.2,0.5-0.5,0.5h-0.7c-0.3,0-0.5-0.2-0.5-0.5v-2.5
	C346.3,224.9,346.5,224.7,346.8,224.7z"/>
<circle class="st0" cx="612.7" cy="262.6" r="37.3"/>
<path d="M344.8,229.6l12.9,2.9c0.2,0.1,0.4,0.3,0.3,0.5v0.1c-0.1,0.2-0.3,0.4-0.5,0.3l-12.9-2.9c-0.2-0.1-0.4-0.3-0.3-0.5v-0.1
	C344.3,229.7,344.6,229.6,344.8,229.6z"/>
<path d="M346.8,231.7h0.7c0.3,0,0.6,0.2,0.6,0.5v2.5c0,0.3-0.2,0.6-0.5,0.6h-0.7c-0.3,0-0.6-0.2-0.6-0.5v-2.5
	C346.3,231.9,346.5,231.7,346.8,231.7z"/>
<path d="M330.9,235.8l12.5,4.4c0.3,0.1,0.4,0.4,0.3,0.6l0,0c-0.1,0.3-0.4,0.4-0.6,0.3l-12.5-4.4c-0.3-0.1-0.4-0.4-0.3-0.6l0,0
	C330.3,235.8,330.6,235.7,330.9,235.8z"/>
<path d="M372.3,235.8l12.8,2.9c0.3,0.1,0.4,0.3,0.4,0.6l0,0c-0.1,0.3-0.3,0.4-0.6,0.4l-12.8-2.9c-0.3-0.1-0.4-0.3-0.4-0.6l0,0
	C371.8,236,372,235.8,372.3,235.8z"/>
<path d="M346.8,238.8h0.7c0.3,0,0.5,0.2,0.5,0.5v2.5c0,0.3-0.2,0.5-0.5,0.5h-0.7c-0.3,0-0.5-0.2-0.5-0.5v-2.5
	C346.3,239,346.5,238.8,346.8,238.8z"/>
<path d="M357.4,245.1l12.4,4.4c0.3,0.1,0.4,0.4,0.3,0.6v0.1c-0.1,0.3-0.4,0.4-0.6,0.3l-12.4-4.4c-0.3-0.1-0.4-0.4-0.3-0.6v-0.1
	C356.9,245.2,357.2,245,357.4,245.1z"/>
<path d="M346.8,245.8h0.7c0.3,0,0.5,0.2,0.5,0.5v2.5c0,0.3-0.2,0.5-0.5,0.5h-0.7c-0.3,0-0.5-0.2-0.5-0.5v-2.5
	C346.3,246,346.5,245.8,346.8,245.8z"/>
<path d="M427.2,248.3l12.9,2.9c0.3,0.1,0.4,0.3,0.4,0.6l0,0c-0.1,0.3-0.3,0.4-0.6,0.4l-12.9-2.9c-0.3-0.1-0.4-0.3-0.4-0.6l0,0
	C426.7,248.4,426.9,248.2,427.2,248.3z"/>
<path d="M346.9,252.8h0.6c0.3,0,0.6,0.3,0.6,0.6v2.5c0,0.3-0.3,0.6-0.6,0.6h-0.6c-0.3,0-0.6-0.3-0.6-0.6v-2.5
	C346.3,253,346.6,252.8,346.9,252.8z"/>
<path d="M383.9,254.5l12.5,4.4c0.3,0.1,0.4,0.4,0.3,0.6l0,0c-0.1,0.3-0.4,0.4-0.6,0.3l-12.5-4.4c-0.3-0.1-0.4-0.4-0.3-0.6l0,0
	C383.4,254.5,383.7,254.4,383.9,254.5z"/>
<path d="M454.7,254.5l12.7,2.8c0.3,0.1,0.4,0.3,0.4,0.6v0.1c-0.1,0.3-0.3,0.4-0.6,0.4l-12.7-2.8c-0.3-0.1-0.4-0.3-0.4-0.6v-0.1
	C454.2,254.6,454.4,254.4,454.7,254.5z"/>
<path d="M346.9,259.8h0.6c0.3,0,0.6,0.3,0.6,0.6v2.5c0,0.3-0.3,0.6-0.6,0.6h-0.6c-0.3,0-0.6-0.3-0.6-0.6v-2.5
	C346.3,260.1,346.5,259.8,346.9,259.8z"/>
<path d="M482.1,260.7l12.9,2.9c0.3,0.1,0.4,0.3,0.4,0.6l0,0c-0.1,0.3-0.3,0.4-0.6,0.4l-12.9-2.9c-0.3-0.1-0.4-0.3-0.4-0.6l0,0
	C481.6,260.8,481.8,260.6,482.1,260.7z"/>
<path d="M410.6,263.8l12.4,4.3c0.2,0.1,0.4,0.3,0.3,0.6v0.1c-0.1,0.2-0.3,0.4-0.6,0.3l-12.4-4.3c-0.2-0.1-0.4-0.3-0.3-0.6v-0.1
	C410.1,263.9,410.3,263.8,410.6,263.8z"/>
<path d="M346.9,266.9h0.6c0.3,0,0.6,0.3,0.6,0.6v2.5c0,0.3-0.3,0.6-0.6,0.6h-0.6c-0.3,0-0.6-0.3-0.6-0.6v-2.5
	C346.3,267.1,346.5,266.9,346.9,266.9z"/>
<path d="M536.9,273.1l12.9,2.9c0.3,0.1,0.4,0.3,0.4,0.6l0,0c-0.1,0.3-0.3,0.4-0.6,0.4l-12.9-2.9c-0.3-0.1-0.4-0.3-0.4-0.6l0,0
	C536.4,273.2,536.7,273,536.9,273.1z"/>
<path d="M346.8,273.9h0.7c0.3,0,0.5,0.2,0.5,0.5v2.5c0,0.3-0.2,0.5-0.5,0.5h-0.7c-0.3,0-0.5-0.2-0.5-0.5v-2.5
	C346.3,274.2,346.5,273.9,346.8,273.9z"/>
<path class="st0" d="M449.7,277.9c-0.1-0.3-0.4-0.5-0.7-0.6c-1-0.3-0.9-0.6,0.1-0.8c18.7-3.2,35,1.6,48.8,14.2
	c1.6,1.5,3.1,3.1,4.4,4.8c0.4,0.5,0.3,0.6-0.3,0.4l-11.8-4.2c-0.3-0.1-0.5,0-0.6,0.3l-0.1,0.3c-0.1,0.2,0,0.3,0.1,0.3l12.3,4.4
	c0.3,0.1,0.6,0.1,1,0c0.1,0,0.2-0.1,0.3-0.1c0.2,0,0.4,0.1,0.5,0.3c10.4,14.5,13.4,30.2,9.3,47c-4.2,16.9-17.1,31.4-33.7,37.5
	c-30.1,11.2-63.7-5.3-72.4-36.8c-7.1-25.6,5.1-52,28.7-63.9c3.2-1.6,6.5-2.9,9.9-3.7c0.3-0.1,0.6-0.1,0.9,0l2.8,0.9
	C449.8,278.6,449.9,278.5,449.7,277.9z M476.3,287.5c0.1-0.3,0-0.5-0.3-0.6l0,0l-12.3-4.3c-0.3-0.1-0.5,0-0.6,0.3l0,0l0,0
	c-0.1,0.3,0,0.5,0.3,0.6l0,0l12.3,4.3C475.9,287.9,476.2,287.8,476.3,287.5L476.3,287.5L476.3,287.5z"/>
<path d="M346.7,281h0.8c0.3,0,0.5,0.2,0.5,0.5v2.6c0,0.3-0.2,0.5-0.5,0.5h-0.8c-0.3,0-0.5-0.2-0.5-0.5v-2.6
	C346.3,281.2,346.5,281,346.7,281z"/>
<path d="M463.7,282.5l12.3,4.3c0.3,0.1,0.4,0.4,0.3,0.6l0,0c-0.1,0.3-0.4,0.4-0.6,0.3l-12.3-4.3c-0.3-0.1-0.4-0.4-0.3-0.6l0,0
	C463.2,282.6,463.4,282.4,463.7,282.5z"/>
<path d="M346.7,288h0.8c0.3,0,0.5,0.2,0.5,0.5v2.5c0,0.3-0.2,0.5-0.5,0.5h-0.8c-0.3,0-0.5-0.2-0.5-0.5v-2.5
	C346.2,288.2,346.5,288,346.7,288z"/>
<path d="M346.8,295h0.8c0.3,0,0.5,0.2,0.5,0.5v2.5c0,0.3-0.2,0.5-0.5,0.5h-0.8c-0.3,0-0.5-0.2-0.5-0.5v-2.5
	C346.3,295.2,346.5,295,346.8,295z"/>
<path d="M346.9,302h0.6c0.3,0,0.6,0.3,0.6,0.6v2.5c0,0.3-0.3,0.6-0.6,0.6h-0.6c-0.3,0-0.6-0.3-0.6-0.6v-2.5
	C346.3,302.3,346.5,302,346.9,302z"/>
<g>
	<path d="M266.1,313c1.7,0,3.2,0.7,4.5,2s1.9,2.9,1.9,4.9s-0.6,3.7-1.9,5s-2.8,2-4.6,2c-1.8,0-3.4-0.6-4.6-1.9s-1.9-3-1.9-5
		c0-2.1,0.7-3.8,2.1-5.1C262.8,313.6,264.3,313,266.1,313z M265.9,313.7c-1.2,0-2.1,0.4-2.9,1.3c-0.9,1.1-1.3,2.7-1.3,4.8
		c0,2.2,0.5,3.8,1.4,5c0.7,0.9,1.6,1.3,2.8,1.3c1.2,0,2.3-0.5,3.1-1.5s1.2-2.5,1.2-4.6c0-2.3-0.4-4-1.3-5.1
		C268.1,314.2,267.1,313.7,265.9,313.7z"/>
	<path d="M282.8,326.6h-2.6c-0.8-1.2-1.6-2.4-2.2-3.7c-0.2-0.3-0.3-0.5-0.4-0.6s-0.3-0.2-0.5-0.2c-0.1,0-0.2,0-0.4,0v2.4
		c0,0.6,0,1.1,0.1,1.2s0.2,0.3,0.4,0.4s0.5,0.1,1,0.1v0.4h-4.5v-0.4c0.6,0,1-0.1,1.1-0.3s0.2-0.7,0.2-1.4v-4.7c0-0.7,0-1.1-0.1-1.2
		s-0.2-0.2-0.3-0.3s-0.5-0.2-0.9-0.2v-0.4h4.5v0.4c-0.5,0-0.9,0-1,0.1s-0.2,0.2-0.3,0.3s-0.2,0.6-0.2,1.3v1.8c0.1,0,0.3,0,0.3,0
		c0.4,0,0.8-0.1,1.1-0.3s0.7-0.7,0.9-1.4c0.3-0.7,0.5-1.2,0.6-1.4s0.4-0.4,0.7-0.6s0.6-0.2,0.9-0.2c0.4,0,0.6,0.1,0.8,0.3
		s0.3,0.4,0.3,0.7c0,0.2-0.1,0.4-0.2,0.6s-0.4,0.2-0.6,0.2c-0.1,0-0.3,0-0.5-0.1c-0.3-0.1-0.5-0.1-0.6-0.1c-0.3,0-0.5,0.3-0.7,0.8
		c-0.2,0.6-0.4,1-0.5,1.1s-0.3,0.4-0.6,0.7c0.2,0.1,0.4,0.2,0.7,0.4s0.7,0.9,1.3,2.1c0.5,0.9,0.9,1.5,1.2,1.7s0.6,0.4,1.1,0.4
		L282.8,326.6L282.8,326.6z"/>
	<path d="M286.3,321.6h3.9v-1.9c0-0.6,0-0.9-0.1-1.1s-0.2-0.3-0.3-0.4s-0.5-0.2-1-0.2v-0.4h4.3v0.4c-0.4,0-0.7,0-0.9,0.1
		s-0.3,0.2-0.4,0.4s-0.1,0.6-0.1,1.2v4.7c0,0.6,0,0.9,0.1,1.1s0.2,0.3,0.4,0.4s0.5,0.2,0.9,0.2v0.4h-4.3v-0.4c0.5,0,0.9-0.1,1.1-0.3
		s0.3-0.7,0.3-1.4v-2.2h-3.9v2.2c0,0.6,0,0.9,0.1,1.1s0.2,0.3,0.4,0.4s0.5,0.2,0.9,0.2v0.4h-4.3v-0.4c0.6,0,1-0.1,1.1-0.3
		s0.2-0.7,0.2-1.4v-4.7c0-0.6,0-0.9-0.1-1.1s-0.2-0.3-0.4-0.4s-0.5-0.2-0.9-0.2v-0.4h4.3v0.4c-0.4,0-0.7,0-0.9,0.1s-0.3,0.2-0.4,0.4
		s-0.1,0.6-0.1,1.2L286.3,321.6L286.3,321.6z"/>
	<path d="M298.6,317.3c1.4,0,2.4,0.5,3.3,1.5c0.7,0.9,1,1.9,1,3c0,0.8-0.2,1.6-0.6,2.4s-0.9,1.4-1.6,1.9s-1.4,0.6-2.3,0.6
		c-1.3,0-2.4-0.5-3.2-1.6c-0.7-0.9-1-1.9-1-3c0-0.8,0.2-1.6,0.6-2.4s0.9-1.4,1.6-1.8S297.9,317.3,298.6,317.3z M298.3,318
		c-0.3,0-0.7,0.1-1,0.3s-0.6,0.6-0.8,1.1s-0.3,1.2-0.3,2c0,1.3,0.3,2.4,0.8,3.4s1.2,1.4,2,1.4c0.6,0,1.2-0.3,1.6-0.8
		s0.6-1.4,0.6-2.7c0-1.6-0.3-2.8-1-3.8C299.6,318.3,299,318,298.3,318z"/>
	<path d="M315.9,318.2H312v6.2c0,0.7,0,1.1,0.1,1.2s0.2,0.3,0.3,0.4s0.5,0.2,0.9,0.2v0.4H309v-0.4c0.6,0,1-0.1,1.1-0.3
		s0.2-0.7,0.2-1.4v-4.7c0-0.7,0-1.1-0.1-1.2s-0.2-0.2-0.3-0.3s-0.5-0.2-0.9-0.2v-0.4h9.8v0.4c-0.4,0-0.7,0-0.9,0.1s-0.3,0.2-0.4,0.3
		s-0.1,0.6-0.1,1.3v4.7c0,0.7,0,1.1,0.1,1.2s0.2,0.3,0.3,0.4s0.5,0.2,0.9,0.2v0.4h-4.3v-0.4c0.5,0,0.9-0.1,1.1-0.3s0.3-0.7,0.3-1.4
		L315.9,318.2L315.9,318.2z"/>
	<path d="M319.3,318.5l2.8-1.1h0.4v2.1c0.5-0.8,0.9-1.3,1.4-1.7s1-0.5,1.5-0.5c0.9,0,1.6,0.4,2.2,1.1c0.7,0.9,1.1,2,1.1,3.4
		c0,1.5-0.4,2.8-1.3,3.8c-0.7,0.8-1.6,1.2-2.8,1.2c-0.5,0-0.9-0.1-1.3-0.2c-0.3-0.1-0.6-0.3-0.9-0.6v2.7c0,0.6,0,1,0.1,1.2
		s0.2,0.3,0.4,0.4s0.5,0.1,1,0.1v0.4h-4.7v-0.4h0.2c0.4,0,0.7-0.1,0.9-0.2c0.1-0.1,0.2-0.2,0.3-0.3s0.1-0.6,0.1-1.2v-8.5
		c0-0.6,0-0.9-0.1-1.1s-0.1-0.3-0.2-0.4s-0.3-0.1-0.5-0.1s-0.4,0-0.6,0.1V318.5z M322.4,320v3.3c0,0.7,0,1.2,0.1,1.4
		c0.1,0.4,0.3,0.7,0.7,1s0.8,0.4,1.3,0.4c0.7,0,1.2-0.3,1.6-0.8c0.5-0.7,0.8-1.6,0.8-2.8c0-1.4-0.3-2.4-0.9-3.2
		c-0.4-0.5-0.9-0.8-1.5-0.8c-0.3,0-0.6,0.1-0.9,0.2C323.3,319.1,323,319.5,322.4,320z"/>
	<path d="M334.3,317.3c1.4,0,2.4,0.5,3.3,1.5c0.7,0.9,1,1.9,1,3c0,0.8-0.2,1.6-0.6,2.4s-0.9,1.4-1.6,1.9s-1.4,0.6-2.3,0.6
		c-1.3,0-2.4-0.5-3.2-1.6c-0.7-0.9-1-1.9-1-3c0-0.8,0.2-1.6,0.6-2.4s0.9-1.4,1.6-1.8S333.6,317.3,334.3,317.3z M334,318
		c-0.3,0-0.7,0.1-1,0.3s-0.6,0.6-0.8,1.1s-0.3,1.2-0.3,2c0,1.3,0.3,2.4,0.8,3.4s1.2,1.4,2,1.4c0.6,0,1.2-0.3,1.6-0.8
		s0.6-1.4,0.6-2.7c0-1.6-0.3-2.8-1-3.8C335.3,318.3,334.7,318,334,318z"/>
	<path d="M348,323.2c-0.2,1.2-0.7,2.1-1.4,2.7s-1.5,1-2.3,1c-1,0-1.9-0.4-2.7-1.3c-0.8-0.9-1.1-2-1.1-3.5c0-1.4,0.4-2.5,1.3-3.4
		c0.8-0.9,1.8-1.3,3-1.3c0.9,0,1.6,0.2,2.2,0.7s0.8,0.9,0.8,1.5c0,0.2-0.1,0.4-0.2,0.6c-0.2,0.2-0.4,0.2-0.7,0.2
		c-0.4,0-0.7-0.1-0.9-0.4c-0.1-0.1-0.2-0.4-0.2-0.8s-0.2-0.7-0.4-0.9c-0.2-0.2-0.5-0.3-0.9-0.3c-0.7,0-1.2,0.2-1.6,0.7
		c-0.5,0.6-0.8,1.5-0.8,2.5c0,1.1,0.3,2,0.8,2.8s1.2,1.2,2.1,1.2c0.6,0,1.2-0.2,1.7-0.7c0.4-0.3,0.7-0.8,1-1.6L348,323.2z"/>
	<path d="M355.1,324.2l2.8-6.6h3v0.4c-0.4,0-0.7,0-0.9,0.1s-0.3,0.2-0.3,0.3s-0.1,0.6-0.1,1.3v4.7c0,0.6,0,1,0.1,1.2
		s0.2,0.3,0.4,0.4s0.5,0.1,0.9,0.1v0.4h-4.3v-0.4c0.5,0,0.9-0.1,1.1-0.3s0.3-0.7,0.3-1.4V319l-3.2,7.5h-0.3l-3.2-7.5v5.4
		c0,0.6,0,1,0.1,1.2s0.2,0.3,0.4,0.4s0.5,0.1,0.9,0.1v0.4h-3.4v-0.4c0.6,0,1-0.1,1.1-0.3s0.2-0.7,0.2-1.4v-4.7c0-0.7,0-1.1-0.1-1.2
		s-0.2-0.2-0.3-0.3s-0.5-0.2-0.9-0.2v-0.4h3.1L355.1,324.2z"/>
	<path d="M366.3,317.3c1.4,0,2.4,0.5,3.3,1.5c0.7,0.9,1,1.9,1,3c0,0.8-0.2,1.6-0.6,2.4s-0.9,1.4-1.6,1.9s-1.4,0.6-2.3,0.6
		c-1.3,0-2.4-0.5-3.2-1.6c-0.7-0.9-1-1.9-1-3c0-0.8,0.2-1.6,0.6-2.4s0.9-1.4,1.6-1.8S365.6,317.3,366.3,317.3z M366,318
		c-0.3,0-0.7,0.1-1,0.3s-0.6,0.6-0.8,1.1s-0.3,1.2-0.3,2c0,1.3,0.3,2.4,0.8,3.4s1.2,1.4,2,1.4c0.6,0,1.2-0.3,1.6-0.8
		s0.6-1.4,0.6-2.7c0-1.6-0.3-2.8-1-3.8C367.3,318.3,366.8,318,366,318z"/>
	<path d="M371.6,317.6h7.7l0.4,2.4h-0.4c-0.1-0.5-0.2-0.9-0.4-1.1s-0.4-0.4-0.6-0.5s-0.6-0.1-1.2-0.1h-0.8v6.2c0,0.7,0,1.1,0.1,1.3
		s0.2,0.3,0.4,0.4s0.6,0.1,1.3,0.1v0.4h-4.9v-0.4c0.6,0,1-0.1,1.2-0.3s0.3-0.7,0.3-1.4v-6.2h-0.8c-0.6,0-0.9,0-1.1,0.1
		s-0.4,0.2-0.6,0.5s-0.3,0.7-0.5,1.2h-0.4L371.6,317.6z"/>
	<path d="M380,318.5l2.8-1.1h0.4v2.1c0.5-0.8,0.9-1.3,1.4-1.7s1-0.5,1.5-0.5c0.9,0,1.6,0.4,2.2,1.1c0.7,0.9,1.1,2,1.1,3.4
		c0,1.5-0.4,2.8-1.3,3.8c-0.7,0.8-1.6,1.2-2.8,1.2c-0.5,0-0.9-0.1-1.3-0.2c-0.3-0.1-0.6-0.3-0.9-0.6v2.7c0,0.6,0,1,0.1,1.2
		s0.2,0.3,0.4,0.4s0.5,0.1,1,0.1v0.4H380v-0.4h0.2c0.4,0,0.7-0.1,0.9-0.2c0.1-0.1,0.2-0.2,0.3-0.3s0.1-0.6,0.1-1.2v-8.5
		c0-0.6,0-0.9-0.1-1.1s-0.1-0.3-0.2-0.4s-0.3-0.1-0.5-0.1s-0.4,0-0.6,0.1L380,318.5z M383.2,320v3.3c0,0.7,0,1.2,0.1,1.4
		c0.1,0.4,0.3,0.7,0.7,1s0.8,0.4,1.3,0.4c0.7,0,1.2-0.3,1.6-0.8c0.5-0.7,0.8-1.6,0.8-2.8c0-1.4-0.3-2.4-0.9-3.2
		c-0.4-0.5-0.9-0.8-1.5-0.8c-0.3,0-0.6,0.1-0.9,0.2C384.1,319.1,383.7,319.5,383.2,320z"/>
	<path d="M395.8,325.3c-0.9,0.7-1.5,1.1-1.7,1.2c-0.4,0.2-0.7,0.2-1.1,0.2c-0.6,0-1.1-0.2-1.5-0.6s-0.6-1-0.6-1.7
		c0-0.4,0.1-0.8,0.3-1.1c0.3-0.4,0.7-0.9,1.4-1.3s1.8-0.9,3.3-1.4v-0.4c0-0.9-0.1-1.5-0.4-1.8s-0.7-0.5-1.2-0.5
		c-0.4,0-0.7,0.1-1,0.3c-0.2,0.2-0.4,0.5-0.4,0.8v0.6c0,0.3-0.1,0.5-0.2,0.7s-0.4,0.2-0.6,0.2s-0.4-0.1-0.6-0.3s-0.2-0.4-0.2-0.7
		c0-0.6,0.3-1.1,0.9-1.5s1.4-0.7,2.4-0.7c0.8,0,1.4,0.1,2,0.4c0.4,0.2,0.7,0.5,0.8,0.9c0.1,0.3,0.2,0.9,0.2,1.7v3c0,0.9,0,1.4,0,1.6
		s0.1,0.3,0.2,0.4s0.2,0.1,0.3,0.1c0.1,0,0.2,0,0.3-0.1c0.1-0.1,0.4-0.3,0.8-0.7v0.5c-0.7,1-1.4,1.5-2.1,1.5c-0.3,0-0.6-0.1-0.8-0.3
		S395.8,325.8,395.8,325.3z M395.8,324.6v-3.4c-1,0.4-1.6,0.7-1.9,0.8c-0.5,0.3-0.9,0.6-1.1,0.9s-0.3,0.7-0.3,1
		c0,0.5,0.1,0.9,0.4,1.2s0.6,0.5,1,0.5S394.9,325.3,395.8,324.6z"/>
</g>
<g>
	<path d="M117.4,44.3h-5.5v9.1c0,0.8,0.1,1.3,0.3,1.5s0.7,0.3,1.4,0.4v0.3h-5.1v-0.3c0.7,0,1.2-0.1,1.4-0.4s0.3-0.7,0.3-1.5v-7.6
		c0-0.8-0.1-1.3-0.3-1.5s-0.7-0.3-1.4-0.4v-0.3h12.3v0.3c-0.7,0-1.2,0.1-1.4,0.4s-0.3,0.7-0.3,1.5v7.6c0,0.8,0.1,1.3,0.3,1.5
		s0.7,0.3,1.4,0.4v0.3h-5.1v-0.3c0.7,0,1.2-0.1,1.4-0.3s0.3-0.7,0.3-1.5L117.4,44.3L117.4,44.3z"/>
	<path d="M121.2,47.5h3.8v0.3h-0.2c-0.3,0-0.5,0.1-0.6,0.2s-0.2,0.3-0.2,0.4c0,0.2,0.1,0.5,0.3,0.9l2,4.1L128,49
		c0.1-0.2,0.1-0.5,0.1-0.7c0-0.1,0-0.2-0.1-0.2c0-0.1-0.1-0.1-0.2-0.2s-0.3-0.1-0.5-0.1v-0.3h2.6v0.3c-0.2,0-0.4,0.1-0.5,0.1
		s-0.2,0.2-0.4,0.4c-0.1,0.1-0.2,0.3-0.3,0.7l-3.3,8c-0.3,0.8-0.7,1.4-1.2,1.8s-1,0.6-1.5,0.6c-0.3,0-0.6-0.1-0.9-0.3
		s-0.3-0.4-0.3-0.7c0-0.2,0.1-0.4,0.2-0.6s0.4-0.2,0.7-0.2c0.2,0,0.5,0.1,0.8,0.2c0.2,0.1,0.4,0.1,0.4,0.1c0.2,0,0.4-0.1,0.6-0.3
		s0.4-0.5,0.6-1.1l0.6-1.4l-2.9-6.1c-0.1-0.2-0.2-0.4-0.4-0.7c-0.1-0.2-0.3-0.3-0.4-0.4c-0.1-0.1-0.4-0.2-0.7-0.2v-0.2H121.2z"/>
	<path d="M130.5,47.5h7l0.4,2.2h-0.4c-0.1-0.4-0.2-0.8-0.4-1s-0.4-0.4-0.6-0.5s-0.5-0.2-1-0.2h-0.7v5.6c0,0.6,0,1,0.1,1.1
		s0.2,0.3,0.4,0.3s0.5,0.1,1.1,0.1v0.3H132v-0.3c0.6,0,0.9-0.1,1.1-0.3s0.2-0.6,0.2-1.3V48h-0.7c-0.5,0-0.8,0-1,0.1
		s-0.4,0.2-0.5,0.4s-0.3,0.6-0.4,1.1h-0.4L130.5,47.5z"/>
	<path d="M141,51.1h1c2.4,0,3.6,0.7,3.6,2.2c0,0.7-0.3,1.2-0.9,1.6s-1.4,0.6-2.5,0.6h-3.9v-0.3c0.5,0,0.9-0.1,1-0.3s0.2-0.6,0.2-1.3
		v-4.3c0-0.6,0-1-0.1-1.1s-0.2-0.2-0.3-0.3s-0.4-0.1-0.8-0.1v-0.3h4.2v0.3c-0.6,0-0.9,0-1.1,0.1s-0.2,0.2-0.3,0.3s-0.1,0.5-0.1,1.2
		L141,51.1L141,51.1z M141,54.8c0.3,0.1,0.6,0.1,0.9,0.1c0.6,0,1.1-0.2,1.4-0.5s0.5-0.7,0.5-1.2c0-1.1-0.8-1.7-2.3-1.7
		c-0.1,0-0.3,0-0.6,0v3.3H141z"/>
	<path d="M156.7,51.1v-1.7c0-0.6,0-0.9-0.1-1.1s-0.2-0.3-0.3-0.4s-0.4-0.1-0.8-0.1v-0.3h3.9v0.3c-0.4,0-0.7,0-0.8,0.1
		s-0.2,0.2-0.3,0.3s-0.1,0.5-0.1,1.1v4.3c0,0.6,0,0.9,0.1,1.1s0.2,0.3,0.3,0.4s0.4,0.1,0.8,0.1v0.3h-4.1v-0.3c0.5,0,0.8,0,0.9-0.1
		s0.3-0.2,0.4-0.3s0.1-0.6,0.1-1.1v-2c-0.9,0.4-1.8,0.7-2.7,0.7c-0.5,0-0.9-0.1-1.2-0.2s-0.5-0.3-0.5-0.5s-0.1-0.5-0.1-0.8v-1.5
		c0-0.5,0-0.9-0.1-1s-0.2-0.3-0.3-0.4s-0.4-0.1-0.7-0.1v-0.3h3.8v0.3c-0.4,0-0.7,0-0.8,0.1s-0.2,0.2-0.3,0.3s-0.1,0.5-0.1,1.1v1
		c0,0.4,0,0.6,0.1,0.8s0.2,0.2,0.4,0.3s0.5,0.1,0.9,0.1C155.5,51.6,156.1,51.4,156.7,51.1z"/>
	<path d="M164.9,54.4c-0.8,0.6-1.3,1-1.6,1.1s-0.7,0.2-1,0.2c-0.6,0-1-0.2-1.4-0.6s-0.5-0.9-0.5-1.5c0-0.4,0.1-0.7,0.3-1
		c0.2-0.4,0.7-0.8,1.3-1.1s1.6-0.8,3-1.3v-0.3c0-0.8-0.1-1.4-0.4-1.7s-0.6-0.4-1.1-0.4c-0.4,0-0.7,0.1-0.9,0.3s-0.3,0.4-0.3,0.7v0.5
		c0,0.3-0.1,0.5-0.2,0.6s-0.3,0.2-0.5,0.2s-0.4-0.1-0.5-0.2s-0.2-0.4-0.2-0.6c0-0.5,0.3-1,0.8-1.4s1.2-0.6,2.2-0.6
		c0.7,0,1.3,0.1,1.8,0.4c0.3,0.2,0.6,0.5,0.8,0.9c0.1,0.3,0.2,0.8,0.2,1.5v2.7c0,0.8,0,1.2,0,1.4s0.1,0.3,0.1,0.3s0.1,0.1,0.2,0.1
		c0.1,0,0.2,0,0.2-0.1c0.1-0.1,0.4-0.3,0.7-0.6v0.5c-0.7,0.9-1.3,1.3-1.9,1.3c-0.3,0-0.5-0.1-0.7-0.3S164.9,54.8,164.9,54.4z
		 M164.9,53.8v-3.1c-0.9,0.4-1.5,0.6-1.7,0.7c-0.5,0.3-0.8,0.5-1,0.8s-0.3,0.6-0.3,0.9c0,0.4,0.1,0.8,0.4,1.1s0.5,0.4,0.9,0.4
		C163.5,54.7,164.1,54.4,164.9,53.8z"/>
	<path d="M175.1,52.5c-0.2,1.1-0.6,1.9-1.3,2.4s-1.3,0.9-2.1,0.9c-0.9,0-1.7-0.4-2.4-1.2s-1-1.8-1-3.1s0.4-2.3,1.1-3.1
		s1.7-1.2,2.7-1.2c0.8,0,1.4,0.2,2,0.6s0.8,0.9,0.8,1.3c0,0.2-0.1,0.4-0.2,0.5s-0.3,0.2-0.6,0.2s-0.6-0.1-0.8-0.3
		c-0.1-0.1-0.2-0.4-0.2-0.7s-0.2-0.6-0.4-0.8s-0.5-0.3-0.9-0.3c-0.6,0-1.1,0.2-1.4,0.7c-0.5,0.6-0.7,1.3-0.7,2.3s0.2,1.8,0.7,2.5
		s1.1,1.1,1.9,1.1c0.6,0,1.1-0.2,1.5-0.6c0.3-0.3,0.6-0.8,0.9-1.5L175.1,52.5z"/>
	<path d="M176.2,47.5h7l0.4,2.2h-0.4c-0.1-0.4-0.2-0.8-0.4-1s-0.4-0.4-0.6-0.5s-0.6-0.1-1.1-0.1h-0.7v5.6c0,0.6,0,1,0.1,1.1
		s0.2,0.3,0.4,0.3s0.5,0.1,1.1,0.1v0.3h-4.4v-0.3c0.6,0,0.9-0.1,1.1-0.3s0.2-0.6,0.2-1.3V48h-0.7c-0.5,0-0.8,0-1,0.1
		s-0.4,0.2-0.5,0.4s-0.3,0.6-0.4,1.1h-0.4L176.2,47.5z"/>
	<path d="M186.7,53.1l3.5-4c0-0.5-0.1-0.8-0.3-0.9s-0.4-0.3-0.8-0.3v-0.3h3.7v0.3c-0.4,0-0.7,0-0.8,0.1s-0.2,0.2-0.3,0.3
		s-0.1,0.5-0.1,1.1v4.3c0,0.6,0,1,0.1,1.1s0.2,0.2,0.3,0.3s0.4,0.1,0.8,0.1v0.3h-3.9v-0.3c0.5,0,0.8-0.1,1-0.3s0.2-0.6,0.2-1.3v-3.8
		l-3.5,4c0,0.5,0.1,0.8,0.2,1s0.4,0.3,0.8,0.3v0.3H184v-0.3c0.5,0,0.9-0.1,1-0.3s0.2-0.6,0.2-1.3v-4.3c0-0.6,0-1-0.1-1.1
		s-0.2-0.2-0.3-0.3s-0.4-0.1-0.8-0.1v-0.3h3.9v0.3c-0.4,0-0.7,0-0.8,0.1s-0.2,0.2-0.3,0.3s-0.1,0.5-0.1,1.1L186.7,53.1L186.7,53.1z"
		/>
	<path d="M202.4,55.2v2.6h-0.3c0-0.7-0.2-1.2-0.7-1.6s-1.2-0.6-2.3-0.6h-5.5v-0.3c0.5,0,0.9-0.1,1-0.3s0.2-0.6,0.2-1.3v-4.3
		c0-0.6,0-1-0.1-1.1s-0.2-0.2-0.3-0.3s-0.4-0.1-0.8-0.1v-0.3h3.9v0.3c-0.4,0-0.7,0-0.8,0.1s-0.2,0.2-0.3,0.3s-0.1,0.5-0.1,1.1v4.5
		c0,0.5,0,0.8,0.1,0.9s0.4,0.1,0.9,0.1h1.4c0.5,0,0.9,0,0.9-0.1s0.1-0.4,0.1-1v-4.5c0-0.6,0-0.9-0.1-1.1s-0.2-0.3-0.3-0.4
		s-0.4-0.1-0.8-0.1v-0.3h3.9v0.3c-0.4,0-0.7,0-0.8,0.1s-0.2,0.2-0.3,0.3s-0.1,0.5-0.1,1.1v4.1c0,0.8,0.1,1.2,0.2,1.4
		S201.9,55.2,202.4,55.2z"/>
	<path d="M205.9,51.1h1c2.4,0,3.6,0.7,3.6,2.2c0,0.7-0.3,1.2-0.9,1.6s-1.4,0.6-2.5,0.6h-3.9v-0.3c0.5,0,0.9-0.1,1-0.3
		s0.2-0.6,0.2-1.3v-4.3c0-0.6,0-1-0.1-1.1s-0.2-0.2-0.3-0.3s-0.4-0.1-0.8-0.1v-0.3h4.2v0.3c-0.6,0-0.9,0-1.1,0.1s-0.2,0.2-0.3,0.3
		s-0.1,0.5-0.1,1.2L205.9,51.1L205.9,51.1z M205.9,54.8c0.3,0.1,0.6,0.1,0.9,0.1c0.6,0,1.1-0.2,1.4-0.5s0.5-0.7,0.5-1.2
		c0-1.1-0.8-1.7-2.3-1.7c-0.1,0-0.3,0-0.6,0v3.3H205.9z M210.5,47.8v-0.3h4.1v0.3c-0.4,0-0.6,0-0.8,0.1s-0.3,0.2-0.3,0.4
		s-0.1,0.5-0.1,1.1v4.3c0,0.6,0,0.9,0.1,1.1s0.2,0.3,0.3,0.4s0.4,0.1,0.8,0.1v0.3h-4.1v-0.3c0.5,0,0.8,0,0.9-0.1s0.3-0.2,0.3-0.3
		s0.1-0.6,0.1-1.1v-4.3c0-0.6,0-0.9-0.1-1.1s-0.2-0.3-0.3-0.3S211,47.8,210.5,47.8z"/>
</g>
<g>
	<path d="M117.4,67.3h-5.5v9.1c0,0.8,0.1,1.3,0.3,1.5s0.7,0.3,1.4,0.4v0.3h-5.1v-0.3c0.7,0,1.2-0.1,1.4-0.4s0.3-0.7,0.3-1.5v-7.6
		c0-0.8-0.1-1.3-0.3-1.5s-0.7-0.3-1.4-0.4v-0.3h12.3V67c-0.7,0-1.2,0.1-1.4,0.4s-0.3,0.7-0.3,1.5v7.6c0,0.8,0.1,1.3,0.3,1.5
		s0.7,0.3,1.4,0.4v0.3h-5.1v-0.3c0.7,0,1.2-0.1,1.4-0.3s0.3-0.7,0.3-1.5L117.4,67.3L117.4,67.3z"/>
	<path d="M121.2,70.5h3.8v0.3h-0.2c-0.3,0-0.5,0.1-0.6,0.2s-0.2,0.3-0.2,0.4c0,0.2,0.1,0.5,0.3,0.9l2,4.1L128,72
		c0.1-0.2,0.1-0.5,0.1-0.7c0-0.1,0-0.2-0.1-0.2c0-0.1-0.1-0.1-0.2-0.2s-0.3-0.1-0.5-0.1v-0.3h2.6v0.3c-0.2,0-0.4,0.1-0.5,0.1
		s-0.2,0.2-0.4,0.4c-0.1,0.1-0.2,0.3-0.3,0.7l-3.3,8c-0.3,0.8-0.7,1.4-1.2,1.8s-1,0.6-1.5,0.6c-0.3,0-0.6-0.1-0.9-0.3
		s-0.3-0.4-0.3-0.7c0-0.2,0.1-0.4,0.2-0.6s0.4-0.2,0.7-0.2c0.2,0,0.5,0.1,0.8,0.2c0.2,0.1,0.4,0.1,0.4,0.1c0.2,0,0.4-0.1,0.6-0.3
		s0.4-0.5,0.6-1.1l0.6-1.4l-2.9-6.1c-0.1-0.2-0.2-0.4-0.4-0.7c-0.1-0.2-0.3-0.3-0.4-0.4s-0.4-0.2-0.7-0.2v-0.2H121.2z"/>
	<path d="M130.5,70.5h7l0.4,2.2h-0.4c-0.1-0.4-0.2-0.8-0.4-1s-0.4-0.4-0.6-0.5s-0.6-0.1-1.1-0.1h-0.7v5.6c0,0.6,0,1,0.1,1.1
		s0.2,0.3,0.4,0.3s0.5,0.1,1.1,0.1v0.3H132v-0.3c0.6,0,0.9-0.1,1.1-0.3s0.2-0.6,0.2-1.3V71h-0.7c-0.5,0-0.8,0-1,0.1
		s-0.4,0.2-0.5,0.4s-0.3,0.6-0.4,1.1h-0.4L130.5,70.5z"/>
	<path d="M141,74.1h1c2.4,0,3.6,0.7,3.6,2.2c0,0.7-0.3,1.2-0.9,1.6s-1.4,0.6-2.5,0.6h-3.9v-0.3c0.5,0,0.9-0.1,1-0.3s0.2-0.6,0.2-1.3
		v-4.3c0-0.6,0-1-0.1-1.1s-0.2-0.2-0.3-0.3s-0.4-0.1-0.8-0.1v-0.3h4.2v0.3c-0.6,0-0.9,0-1.1,0.1s-0.2,0.2-0.3,0.3s-0.1,0.5-0.1,1.2
		L141,74.1L141,74.1z M141,77.9c0.3,0.1,0.6,0.1,0.9,0.1c0.6,0,1.1-0.2,1.4-0.5s0.5-0.7,0.5-1.2c0-1.1-0.8-1.7-2.3-1.7
		c-0.1,0-0.3,0-0.6,0v3.3H141z"/>
	<path d="M156.7,74.1v-1.7c0-0.6,0-0.9-0.1-1.1s-0.2-0.3-0.3-0.4s-0.4-0.1-0.8-0.1v-0.3h3.9v0.3c-0.4,0-0.7,0-0.8,0.1
		s-0.2,0.2-0.3,0.3s-0.1,0.5-0.1,1.1v4.3c0,0.6,0,0.9,0.1,1.1s0.2,0.3,0.3,0.4s0.4,0.1,0.8,0.1v0.3h-4.1v-0.3c0.5,0,0.8,0,0.9-0.1
		s0.3-0.2,0.4-0.3s0.1-0.6,0.1-1.1v-2c-0.9,0.4-1.8,0.7-2.7,0.7c-0.5,0-0.9-0.1-1.2-0.2s-0.5-0.3-0.5-0.5s-0.1-0.5-0.1-0.8v-1.5
		c0-0.5,0-0.9-0.1-1s-0.2-0.3-0.3-0.4s-0.4-0.1-0.7-0.1v-0.3h3.8v0.3c-0.4,0-0.7,0-0.8,0.1s-0.2,0.2-0.3,0.3s-0.1,0.5-0.1,1.1v1
		c0,0.4,0,0.6,0.1,0.8s0.2,0.2,0.4,0.3s0.5,0.1,0.9,0.1C155.5,74.6,156.1,74.5,156.7,74.1z"/>
	<path d="M164.9,77.4c-0.8,0.6-1.3,1-1.6,1.1s-0.7,0.2-1,0.2c-0.6,0-1-0.2-1.4-0.6s-0.5-0.9-0.5-1.5c0-0.4,0.1-0.7,0.3-1
		c0.2-0.4,0.7-0.8,1.3-1.1s1.6-0.8,3-1.3v-0.3c0-0.8-0.1-1.4-0.4-1.7s-0.6-0.4-1.1-0.4c-0.4,0-0.7,0.1-0.9,0.3
		c-0.2,0.2-0.3,0.4-0.3,0.7v0.5c0,0.3-0.1,0.5-0.2,0.6s-0.3,0.2-0.5,0.2s-0.4-0.1-0.5-0.2s-0.2-0.4-0.2-0.6c0-0.5,0.3-1,0.8-1.4
		s1.2-0.6,2.2-0.6c0.7,0,1.3,0.1,1.8,0.4c0.3,0.2,0.6,0.5,0.8,0.9c0.1,0.3,0.2,0.8,0.2,1.5v2.7c0,0.8,0,1.2,0,1.4s0.1,0.3,0.1,0.3
		s0.1,0.1,0.2,0.1c0.1,0,0.2,0,0.2-0.1c0.1-0.1,0.4-0.3,0.7-0.6v0.5c-0.7,0.9-1.3,1.3-1.9,1.3c-0.3,0-0.5-0.1-0.7-0.3
		S164.9,77.9,164.9,77.4z M164.9,76.8v-3.1c-0.9,0.4-1.5,0.6-1.7,0.7c-0.5,0.3-0.8,0.5-1,0.8s-0.3,0.6-0.3,0.9
		c0,0.4,0.1,0.8,0.4,1.1s0.5,0.4,0.9,0.4C163.5,77.7,164.1,77.4,164.9,76.8z"/>
	<path d="M175.1,75.5c-0.2,1.1-0.6,1.9-1.3,2.4s-1.3,0.9-2.1,0.9c-0.9,0-1.7-0.4-2.4-1.2s-1-1.8-1-3.1c0-1.3,0.4-2.3,1.1-3.1
		s1.7-1.2,2.7-1.2c0.8,0,1.4,0.2,2,0.6s0.8,0.9,0.8,1.3c0,0.2-0.1,0.4-0.2,0.5s-0.3,0.2-0.6,0.2s-0.6-0.1-0.8-0.3
		c-0.1-0.1-0.2-0.4-0.2-0.7s-0.2-0.6-0.4-0.8c-0.2-0.2-0.5-0.3-0.9-0.3c-0.6,0-1.1,0.2-1.4,0.7c-0.5,0.6-0.7,1.3-0.7,2.3
		s0.2,1.8,0.7,2.5s1.1,1.1,1.9,1.1c0.6,0,1.1-0.2,1.5-0.6c0.3-0.3,0.6-0.8,0.9-1.5L175.1,75.5z"/>
	<path d="M176.2,70.5h7l0.4,2.2h-0.4c-0.1-0.4-0.2-0.8-0.4-1s-0.4-0.4-0.6-0.5s-0.6-0.1-1.1-0.1h-0.7v5.6c0,0.6,0,1,0.1,1.1
		s0.2,0.3,0.4,0.3s0.5,0.1,1.1,0.1v0.3h-4.4v-0.3c0.6,0,0.9-0.1,1.1-0.3s0.2-0.6,0.2-1.3V71h-0.7c-0.5,0-0.8,0-1,0.1
		s-0.4,0.2-0.5,0.4s-0.3,0.6-0.4,1.1h-0.4L176.2,70.5z"/>
	<path d="M186.7,76.1l3.5-4c0-0.5-0.1-0.8-0.3-0.9s-0.4-0.3-0.8-0.3v-0.3h3.7v0.3c-0.4,0-0.7,0-0.8,0.1s-0.2,0.2-0.3,0.3
		s-0.1,0.5-0.1,1.1v4.3c0,0.6,0,1,0.1,1.1s0.2,0.2,0.3,0.3s0.4,0.1,0.8,0.1v0.3h-3.9v-0.3c0.5,0,0.8-0.1,1-0.3s0.2-0.6,0.2-1.3v-3.8
		l-3.5,4c0,0.5,0.1,0.8,0.2,1s0.4,0.3,0.8,0.3v0.3H184v-0.3c0.5,0,0.9-0.1,1-0.3s0.2-0.6,0.2-1.3v-4.3c0-0.6,0-1-0.1-1.1
		s-0.2-0.2-0.3-0.3s-0.4-0.1-0.8-0.1v-0.3h3.9v0.3c-0.4,0-0.7,0-0.8,0.1s-0.2,0.2-0.3,0.3s-0.1,0.5-0.1,1.1L186.7,76.1L186.7,76.1z"
		/>
	<path d="M202.4,78.2v2.6h-0.3c0-0.7-0.2-1.2-0.7-1.6s-1.2-0.6-2.3-0.6h-5.5v-0.3c0.5,0,0.9-0.1,1-0.3s0.2-0.6,0.2-1.3v-4.3
		c0-0.6,0-1-0.1-1.1s-0.2-0.2-0.3-0.3s-0.4-0.1-0.8-0.1v-0.3h3.9v0.3c-0.4,0-0.7,0-0.8,0.1s-0.2,0.2-0.3,0.3s-0.1,0.5-0.1,1.1v4.5
		c0,0.5,0,0.8,0.1,0.9s0.4,0.1,0.9,0.1h1.4c0.5,0,0.9,0,0.9-0.1s0.1-0.4,0.1-1v-4.5c0-0.6,0-0.9-0.1-1.1s-0.2-0.3-0.3-0.4
		s-0.4-0.1-0.8-0.1v-0.3h3.9v0.3c-0.4,0-0.7,0-0.8,0.1s-0.2,0.2-0.3,0.3s-0.1,0.5-0.1,1.1v4.1c0,0.8,0.1,1.2,0.2,1.4
		S201.9,78.2,202.4,78.2z"/>
	<path d="M205.9,74.1h1c2.4,0,3.6,0.7,3.6,2.2c0,0.7-0.3,1.2-0.9,1.6s-1.4,0.6-2.5,0.6h-3.9v-0.3c0.5,0,0.9-0.1,1-0.3
		s0.2-0.6,0.2-1.3v-4.3c0-0.6,0-1-0.1-1.1s-0.2-0.2-0.3-0.3s-0.4-0.1-0.8-0.1v-0.3h4.2v0.3c-0.6,0-0.9,0-1.1,0.1s-0.2,0.2-0.3,0.3
		s-0.1,0.5-0.1,1.2L205.9,74.1L205.9,74.1z M205.9,77.9c0.3,0.1,0.6,0.1,0.9,0.1c0.6,0,1.1-0.2,1.4-0.5s0.5-0.7,0.5-1.2
		c0-1.1-0.8-1.7-2.3-1.7c-0.1,0-0.3,0-0.6,0v3.3H205.9z M210.5,70.8v-0.3h4.1v0.3c-0.4,0-0.6,0-0.8,0.1s-0.3,0.2-0.3,0.4
		s-0.1,0.5-0.1,1.1v4.3c0,0.6,0,0.9,0.1,1.1s0.2,0.3,0.3,0.4s0.4,0.1,0.8,0.1v0.3h-4.1v-0.3c0.5,0,0.8,0,0.9-0.1s0.3-0.2,0.3-0.3
		s0.1-0.6,0.1-1.1v-4.3c0-0.6,0-0.9-0.1-1.1s-0.2-0.3-0.3-0.3S211,70.8,210.5,70.8z"/>
	<path d="M215.9,81.6v-0.4c0.6-0.2,1.1-0.5,1.4-0.9s0.5-0.9,0.5-1.3c0-0.1,0-0.2-0.1-0.3c0-0.1-0.1-0.1-0.1-0.1
		c-0.1,0-0.2,0.1-0.4,0.2c-0.1,0.1-0.2,0.1-0.3,0.1c-0.3,0-0.5-0.1-0.7-0.3s-0.3-0.4-0.3-0.7c0-0.3,0.1-0.5,0.3-0.7s0.5-0.3,0.8-0.3
		c0.4,0,0.7,0.2,1,0.5s0.5,0.8,0.5,1.3c0,0.6-0.2,1.2-0.6,1.7S216.8,81.3,215.9,81.6z"/>
	<path d="M232.6,78.6h-2.4c-0.7-1.1-1.4-2.2-2-3.3c-0.1-0.3-0.3-0.4-0.4-0.6s-0.3-0.2-0.5-0.2c-0.1,0-0.2,0-0.3,0v2.2
		c0,0.6,0,1,0.1,1.1s0.2,0.3,0.4,0.3s0.5,0.1,0.9,0.1v0.3h-4v-0.3c0.5,0,0.9-0.1,1-0.3s0.2-0.6,0.2-1.3v-4.3c0-0.6,0-1-0.1-1.1
		s-0.2-0.2-0.3-0.3s-0.4-0.1-0.8-0.1v-0.3h4v0.3c-0.5,0-0.8,0-0.9,0.1s-0.2,0.2-0.3,0.3s-0.1,0.5-0.1,1.2V74c0.1,0,0.2,0,0.3,0
		c0.4,0,0.7-0.1,1-0.3s0.6-0.6,0.8-1.3c0.2-0.6,0.4-1,0.6-1.3s0.4-0.4,0.6-0.5s0.5-0.2,0.8-0.2s0.6,0.1,0.8,0.2s0.3,0.4,0.3,0.6
		s-0.1,0.4-0.2,0.5s-0.3,0.2-0.6,0.2c-0.1,0-0.3,0-0.5-0.1s-0.4-0.1-0.6-0.1c-0.3,0-0.5,0.2-0.7,0.7s-0.3,0.9-0.4,1
		s-0.3,0.4-0.5,0.6c0.2,0.1,0.4,0.2,0.6,0.4s0.6,0.8,1.2,1.9c0.5,0.8,0.8,1.3,1,1.5s0.6,0.3,1,0.3L232.6,78.6L232.6,78.6z"/>
	<path d="M236.3,70.3c1.2,0,2.2,0.5,2.9,1.4c0.6,0.8,0.9,1.7,0.9,2.7c0,0.7-0.2,1.5-0.5,2.2s-0.8,1.3-1.4,1.7s-1.3,0.6-2,0.6
		c-1.2,0-2.2-0.5-2.9-1.5c-0.6-0.8-0.9-1.7-0.9-2.7c0-0.7,0.2-1.5,0.5-2.2s0.8-1.3,1.4-1.6S235.6,70.3,236.3,70.3z M236,70.8
		c-0.3,0-0.6,0.1-0.9,0.3s-0.6,0.5-0.8,1s-0.3,1.1-0.3,1.8c0,1.2,0.2,2.2,0.7,3s1.1,1.3,1.8,1.3c0.6,0,1-0.2,1.4-0.7
		s0.6-1.3,0.6-2.4c0-1.4-0.3-2.6-0.9-3.4C237.2,71.1,236.6,70.8,236,70.8z"/>
	<path d="M241,70.5h7l0.4,2.2H248c-0.1-0.4-0.2-0.8-0.4-1s-0.4-0.4-0.6-0.5s-0.6-0.1-1.1-0.1h-0.7v5.6c0,0.6,0,1,0.1,1.1
		s0.2,0.3,0.4,0.3s0.5,0.1,1.1,0.1v0.3h-4.4v-0.3c0.6,0,0.9-0.1,1.1-0.3s0.2-0.6,0.2-1.3V71H243c-0.5,0-0.8,0-1,0.1
		s-0.4,0.2-0.5,0.4s-0.3,0.6-0.4,1.1h-0.4L241,70.5z"/>
	<path d="M252.7,70.3c1.2,0,2.2,0.5,2.9,1.4c0.6,0.8,0.9,1.7,0.9,2.7c0,0.7-0.2,1.5-0.5,2.2s-0.8,1.3-1.4,1.7s-1.3,0.6-2,0.6
		c-1.2,0-2.2-0.5-2.9-1.5c-0.6-0.8-0.9-1.7-0.9-2.7c0-0.7,0.2-1.5,0.5-2.2s0.8-1.3,1.4-1.6S252,70.3,252.7,70.3z M252.4,70.8
		c-0.3,0-0.6,0.1-0.9,0.3s-0.6,0.5-0.8,1s-0.3,1.1-0.3,1.8c0,1.2,0.2,2.2,0.7,3s1.1,1.3,1.8,1.3c0.6,0,1-0.2,1.4-0.7
		s0.6-1.3,0.6-2.4c0-1.4-0.3-2.6-0.9-3.4C253.6,71.1,253,70.8,252.4,70.8z"/>
	<path d="M257.1,71.3l2.5-1h0.3v1.9c0.4-0.7,0.8-1.2,1.3-1.5s0.9-0.4,1.3-0.4c0.8,0,1.5,0.3,2,0.9c0.7,0.8,1,1.8,1,3
		c0,1.4-0.4,2.5-1.2,3.4c-0.7,0.7-1.5,1.1-2.5,1.1c-0.4,0-0.8-0.1-1.1-0.2c-0.2-0.1-0.5-0.3-0.8-0.5v2.5c0,0.6,0,0.9,0.1,1.1
		s0.2,0.3,0.4,0.4s0.5,0.1,0.9,0.1v0.3h-4.2v-0.3h0.2c0.3,0,0.6-0.1,0.8-0.2c0.1-0.1,0.2-0.2,0.3-0.3s0.1-0.5,0.1-1.1v-7.6
		c0-0.5,0-0.9-0.1-1s-0.1-0.2-0.2-0.3s-0.2-0.1-0.4-0.1c-0.1,0-0.3,0-0.5,0.1L257.1,71.3z M260,72.7v3c0,0.7,0,1.1,0.1,1.3
		c0.1,0.3,0.3,0.6,0.6,0.9s0.7,0.4,1.2,0.4c0.6,0,1.1-0.2,1.4-0.7c0.5-0.6,0.7-1.4,0.7-2.5c0-1.2-0.3-2.2-0.8-2.8
		c-0.4-0.5-0.8-0.7-1.3-0.7c-0.3,0-0.6,0.1-0.8,0.2C260.8,71.9,260.4,72.2,260,72.7z"/>
	<path d="M269.2,74.1h1c2.4,0,3.6,0.7,3.6,2.2c0,0.7-0.3,1.2-0.9,1.6s-1.4,0.6-2.5,0.6h-3.9v-0.3c0.5,0,0.9-0.1,1-0.3
		s0.2-0.6,0.2-1.3v-4.3c0-0.6,0-1-0.1-1.1s-0.2-0.2-0.3-0.3s-0.4-0.1-0.8-0.1v-0.3h4.2v0.3c-0.6,0-0.9,0-1.1,0.1s-0.2,0.2-0.3,0.3
		s-0.1,0.5-0.1,1.2L269.2,74.1L269.2,74.1z M269.2,77.9c0.3,0.1,0.6,0.1,0.9,0.1c0.6,0,1.1-0.2,1.4-0.5s0.5-0.7,0.5-1.2
		c0-1.1-0.8-1.7-2.3-1.7c-0.1,0-0.3,0-0.6,0v3.3H269.2z M273.8,70.8v-0.3h4.1v0.3c-0.4,0-0.6,0-0.8,0.1s-0.3,0.2-0.3,0.4
		s-0.1,0.5-0.1,1.1v4.3c0,0.6,0,0.9,0.1,1.1s0.2,0.3,0.3,0.4s0.4,0.1,0.8,0.1v0.3h-4.1v-0.3c0.5,0,0.8,0,0.9-0.1s0.3-0.2,0.3-0.3
		s0.1-0.6,0.1-1.1v-4.3c0-0.6,0-0.9-0.1-1.1s-0.2-0.3-0.3-0.3S274.3,70.8,273.8,70.8z"/>
	<path d="M281.3,76.1l3.5-4c0-0.5-0.1-0.8-0.3-0.9s-0.4-0.3-0.8-0.3v-0.3h3.7v0.3c-0.4,0-0.7,0-0.8,0.1s-0.2,0.2-0.3,0.3
		s-0.1,0.5-0.1,1.1v4.3c0,0.6,0,1,0.1,1.1s0.2,0.2,0.3,0.3s0.4,0.1,0.8,0.1v0.3h-3.9v-0.3c0.5,0,0.8-0.1,1-0.3s0.2-0.6,0.2-1.3v-3.8
		l-3.5,4c0,0.5,0.1,0.8,0.2,1s0.4,0.3,0.8,0.3v0.3h-3.7v-0.3c0.5,0,0.9-0.1,1-0.3s0.2-0.6,0.2-1.3v-4.3c0-0.6,0-1-0.1-1.1
		s-0.2-0.2-0.3-0.3s-0.4-0.1-0.8-0.1v-0.3h3.9v0.3c-0.4,0-0.7,0-0.8,0.1s-0.2,0.2-0.3,0.3s-0.1,0.5-0.1,1.1L281.3,76.1L281.3,76.1z
		 M280.2,67.3c0-0.2,0.1-0.4,0.2-0.5s0.3-0.2,0.4-0.2c0.4,0,0.7,0.4,1,1.1c0.2,0.4,0.4,0.7,0.6,0.8s0.4,0.2,0.6,0.2
		c0.4,0,0.6-0.1,0.8-0.2s0.4-0.4,0.5-0.9c0.2-0.6,0.5-0.9,0.9-0.9c0.2,0,0.3,0.1,0.4,0.2s0.2,0.3,0.2,0.5c0,0.5-0.3,0.9-0.9,1.3
		s-1.3,0.6-2,0.6c-1,0-1.7-0.2-2.2-0.5S280.2,67.8,280.2,67.3z"/>
	<path d="M113.8,86.3c1.5,0.3,2.2,1,2.2,2.1c0,0.7-0.3,1.3-0.9,1.6s-1.5,0.5-2.6,0.5h-4v-0.3c0.5,0,0.9-0.1,1-0.3s0.2-0.6,0.2-1.3
		v-4.3c0-0.6,0-1-0.1-1.1s-0.2-0.2-0.3-0.3s-0.4-0.1-0.8-0.1v-0.3h3.7c0.7,0,1.3,0.1,1.7,0.2s0.8,0.3,1.1,0.7s0.4,0.7,0.4,1.2
		C115.5,85.4,114.9,86,113.8,86.3z M111.2,86.1c0.3,0,0.4,0,0.5,0c0.8,0,1.4-0.2,1.7-0.5s0.5-0.7,0.5-1.1c0-0.5-0.2-0.9-0.5-1.1
		s-0.9-0.3-1.7-0.3h-0.5V86.1z M111.2,89.8c0.3,0.1,0.6,0.1,1,0.1c0.7,0,1.2-0.2,1.6-0.5s0.5-0.7,0.5-1.2s-0.2-1-0.7-1.2
		s-1-0.4-1.8-0.4c-0.2,0-0.4,0-0.6,0V89.8z"/>
	<path d="M119.7,86.1h3.5v-1.7c0-0.5,0-0.8-0.1-1s-0.1-0.3-0.3-0.4s-0.4-0.2-0.9-0.2v-0.3h3.9v0.3c-0.4,0-0.6,0-0.8,0.1
		s-0.3,0.2-0.3,0.4s-0.1,0.5-0.1,1.1v4.3c0,0.5,0,0.8,0.1,1s0.2,0.3,0.3,0.4s0.4,0.2,0.8,0.2v0.3h-3.9v-0.3c0.5,0,0.8-0.1,1-0.3
		s0.2-0.6,0.2-1.3v-2h-3.5v2c0,0.5,0,0.8,0.1,1s0.2,0.3,0.3,0.4s0.4,0.2,0.8,0.2v0.3H117v-0.3c0.5,0,0.9-0.1,1-0.3s0.2-0.6,0.2-1.3
		v-4.3c0-0.5,0-0.8-0.1-1s-0.2-0.3-0.3-0.4s-0.4-0.1-0.8-0.1v-0.3h3.9v0.3c-0.4,0-0.6,0-0.8,0.1s-0.3,0.2-0.3,0.4s-0.1,0.5-0.1,1.1
		C119.7,84.5,119.7,86.1,119.7,86.1z"/>
	<path d="M130.7,82.3c1.2,0,2.2,0.5,2.9,1.4c0.6,0.8,0.9,1.7,0.9,2.7c0,0.7-0.2,1.5-0.5,2.2s-0.8,1.3-1.4,1.7s-1.3,0.6-2,0.6
		c-1.2,0-2.2-0.5-2.9-1.5c-0.6-0.8-0.9-1.7-0.9-2.7c0-0.7,0.2-1.5,0.5-2.2s0.8-1.3,1.4-1.6S130.1,82.3,130.7,82.3z M130.5,82.8
		c-0.3,0-0.6,0.1-0.9,0.3s-0.6,0.5-0.8,1s-0.3,1.1-0.3,1.8c0,1.2,0.2,2.2,0.7,3s1.1,1.3,1.8,1.3c0.6,0,1-0.2,1.4-0.7
		s0.6-1.3,0.6-2.4c0-1.4-0.3-2.6-0.9-3.4C131.6,83.1,131.1,82.8,130.5,82.8z"/>
	<path d="M143.1,87.5c-0.2,1.1-0.6,1.9-1.3,2.4s-1.3,0.9-2.1,0.9c-0.9,0-1.7-0.4-2.4-1.2s-1-1.8-1-3.1c0-1.3,0.4-2.3,1.1-3.1
		s1.7-1.2,2.7-1.2c0.8,0,1.4,0.2,2,0.6s0.8,0.9,0.8,1.3c0,0.2-0.1,0.4-0.2,0.5s-0.3,0.2-0.6,0.2s-0.6-0.1-0.8-0.3
		c-0.1-0.1-0.2-0.4-0.2-0.7s-0.2-0.6-0.4-0.8c-0.2-0.2-0.5-0.3-0.9-0.3c-0.6,0-1.1,0.2-1.4,0.7c-0.5,0.6-0.7,1.3-0.7,2.3
		s0.2,1.8,0.7,2.5s1.1,1.1,1.9,1.1c0.6,0,1.1-0.2,1.5-0.6c0.3-0.3,0.6-0.8,0.9-1.5L143.1,87.5z"/>
	<path d="M146.8,88.1l3.5-4c0-0.5-0.1-0.8-0.3-0.9s-0.4-0.3-0.8-0.3v-0.3h3.7v0.3c-0.4,0-0.7,0-0.8,0.1s-0.2,0.2-0.3,0.3
		s-0.1,0.5-0.1,1.1v4.3c0,0.6,0,1,0.1,1.1s0.2,0.2,0.3,0.3s0.4,0.1,0.8,0.1v0.3H149v-0.3c0.5,0,0.8-0.1,1-0.3s0.2-0.6,0.2-1.3v-3.8
		l-3.5,4c0,0.5,0.1,0.8,0.2,1s0.4,0.3,0.8,0.3v0.3H144v-0.3c0.5,0,0.9-0.1,1-0.3s0.2-0.6,0.2-1.3v-4.3c0-0.6,0-1-0.1-1.1
		s-0.2-0.2-0.3-0.3s-0.4-0.1-0.8-0.1v-0.3h3.9v0.3c-0.4,0-0.7,0-0.8,0.1s-0.2,0.2-0.3,0.3s-0.1,0.5-0.1,1.1v3.9H146.8z"/>
	<path d="M153.7,82.5h7l0.4,2.2h-0.4c-0.1-0.4-0.2-0.8-0.4-1s-0.4-0.4-0.6-0.5s-0.6-0.1-1.1-0.1H158v5.6c0,0.6,0,1,0.1,1.1
		s0.2,0.3,0.4,0.3s0.5,0.1,1.1,0.1v0.3h-4.4v-0.3c0.6,0,0.9-0.1,1.1-0.3s0.2-0.6,0.2-1.3V83h-0.7c-0.5,0-0.8,0-1,0.1
		s-0.4,0.2-0.5,0.4s-0.3,0.6-0.4,1.1h-0.4L153.7,82.5z"/>
	<path d="M171.3,86.3c1.5,0.3,2.2,1,2.2,2.1c0,0.7-0.3,1.3-0.9,1.6s-1.5,0.5-2.6,0.5h-4v-0.3c0.5,0,0.9-0.1,1-0.3s0.2-0.6,0.2-1.3
		v-4.3c0-0.6,0-1-0.1-1.1s-0.2-0.2-0.3-0.3s-0.4-0.1-0.8-0.1v-0.3h3.7c0.7,0,1.3,0.1,1.7,0.2s0.8,0.3,1.1,0.7s0.4,0.7,0.4,1.2
		C173.1,85.4,172.5,86,171.3,86.3z M168.8,86.1c0.3,0,0.4,0,0.5,0c0.8,0,1.4-0.2,1.7-0.5s0.5-0.7,0.5-1.1c0-0.5-0.2-0.9-0.5-1.1
		s-0.9-0.3-1.7-0.3h-0.5V86.1z M168.8,89.8c0.3,0.1,0.6,0.1,1,0.1c0.7,0,1.2-0.2,1.6-0.5s0.5-0.7,0.5-1.2s-0.2-1-0.7-1.2
		s-1-0.4-1.8-0.4c-0.2,0-0.4,0-0.6,0V89.8z"/>
	<path d="M182.8,90.6h-2.4c-0.7-1.1-1.4-2.2-2-3.3c-0.1-0.3-0.3-0.4-0.4-0.6s-0.3-0.2-0.5-0.2c-0.1,0-0.2,0-0.3,0v2.2
		c0,0.6,0,1,0.1,1.1s0.2,0.3,0.4,0.3s0.5,0.1,0.9,0.1v0.3h-4v-0.3c0.5,0,0.9-0.1,1-0.3s0.2-0.6,0.2-1.3v-4.3c0-0.6,0-1-0.1-1.1
		s-0.2-0.2-0.3-0.3s-0.4-0.1-0.8-0.1v-0.3h4v0.3c-0.5,0-0.8,0-0.9,0.1s-0.2,0.2-0.3,0.3s-0.1,0.5-0.1,1.2V86c0.1,0,0.2,0,0.3,0
		c0.4,0,0.7-0.1,1-0.3s0.6-0.6,0.8-1.3c0.2-0.6,0.4-1,0.6-1.3s0.4-0.4,0.6-0.5s0.5-0.2,0.8-0.2s0.6,0.1,0.8,0.2s0.3,0.4,0.3,0.6
		s-0.1,0.4-0.2,0.5s-0.3,0.2-0.6,0.2c-0.1,0-0.3,0-0.5-0.1s-0.4-0.1-0.6-0.1c-0.3,0-0.5,0.2-0.7,0.7s-0.3,0.9-0.4,1
		s-0.3,0.4-0.5,0.6c0.2,0.1,0.4,0.2,0.6,0.4s0.6,0.8,1.2,1.9c0.5,0.8,0.8,1.3,1,1.5s0.6,0.3,1,0.3L182.8,90.6L182.8,90.6z"/>
	<path d="M184.3,82.5h7.2v0.3c-0.4,0-0.7,0-0.8,0.1s-0.2,0.2-0.3,0.3s-0.1,0.5-0.1,1.1v4.3c0,0.6,0,1,0.1,1.1s0.2,0.2,0.3,0.3
		s0.4,0.1,0.8,0.1v0.3h-4.2v-0.3c0.5,0,0.8,0,0.9-0.1s0.3-0.2,0.4-0.3s0.1-0.6,0.1-1.2v-5.6H186v3.4c0,1.3-0.1,2.2-0.2,2.7
		s-0.3,0.9-0.7,1.2s-0.7,0.4-1.2,0.4c-0.8,0-1.1-0.3-1.1-0.9c0-0.2,0.1-0.4,0.2-0.5s0.3-0.2,0.5-0.2s0.4,0.1,0.6,0.3
		c0.2,0.2,0.4,0.3,0.5,0.3c0.3,0,0.5-0.2,0.6-0.7s0.2-1.2,0.2-2.3v-1.8c0-0.9-0.1-1.5-0.2-1.7s-0.5-0.3-1-0.4L184.3,82.5L184.3,82.5
		z"/>
	<path d="M197,89.4c-0.8,0.6-1.3,1-1.6,1.1s-0.7,0.2-1,0.2c-0.6,0-1-0.2-1.4-0.6s-0.5-0.9-0.5-1.5c0-0.4,0.1-0.7,0.3-1
		c0.2-0.4,0.7-0.8,1.3-1.1s1.6-0.8,3-1.3v-0.3c0-0.8-0.1-1.4-0.4-1.7s-0.6-0.4-1.1-0.4c-0.4,0-0.7,0.1-0.9,0.3
		c-0.2,0.2-0.3,0.4-0.3,0.7v0.5c0,0.3-0.1,0.5-0.2,0.6s-0.3,0.2-0.5,0.2s-0.4-0.1-0.5-0.2s-0.2-0.4-0.2-0.6c0-0.5,0.3-1,0.8-1.4
		s1.2-0.6,2.2-0.6c0.7,0,1.3,0.1,1.8,0.4c0.3,0.2,0.6,0.5,0.8,0.9c0.1,0.3,0.2,0.8,0.2,1.5v2.7c0,0.8,0,1.2,0,1.4s0.1,0.3,0.1,0.3
		s0.1,0.1,0.2,0.1c0.1,0,0.2,0,0.2-0.1c0.1-0.1,0.4-0.3,0.7-0.6v0.5c-0.7,0.9-1.3,1.3-1.9,1.3c-0.3,0-0.5-0.1-0.7-0.3
		S197,89.9,197,89.4z M197,88.8v-3.1c-0.9,0.4-1.5,0.6-1.7,0.7c-0.5,0.3-0.8,0.5-1,0.8s-0.3,0.6-0.3,0.9c0,0.4,0.1,0.8,0.4,1.1
		s0.5,0.4,0.9,0.4C195.7,89.7,196.3,89.4,197,88.8z"/>
	<path d="M201.6,82.5h7.1v0.3c-0.4,0-0.7,0-0.8,0.1s-0.2,0.2-0.3,0.3s-0.1,0.5-0.1,1.1v4c0,0.8,0.1,1.4,0.2,1.5s0.5,0.3,1,0.3v2.6
		h-0.3c0-0.5-0.1-0.9-0.4-1.3s-0.5-0.6-0.9-0.8s-0.9-0.2-1.7-0.2h-2.1c-0.6,0-1.1,0.1-1.5,0.2s-0.7,0.4-0.9,0.7s-0.4,0.8-0.4,1.3
		h-0.3V90c0.5,0,0.9-0.2,1.3-0.6s0.7-1.1,1-2.1s0.4-2.1,0.4-3.1s-0.5-1.5-1.4-1.6L201.6,82.5L201.6,82.5z M203.5,83.1v0.5
		c0,2.9-0.5,5-1.6,6.4h3c0.5,0,0.8,0,0.9-0.1s0.1-0.4,0.1-1v-5.8H203.5z"/>
</g>
<g>
	<path d="M117.4,100.9h-5.5v9.1c0,0.8,0.1,1.3,0.3,1.5s0.7,0.3,1.4,0.4v0.3h-5.1v-0.3c0.7,0,1.2-0.1,1.4-0.4s0.3-0.7,0.3-1.5v-7.6
		c0-0.8-0.1-1.3-0.3-1.5s-0.7-0.3-1.4-0.4v-0.3h12.3v0.3c-0.7,0-1.2,0.1-1.4,0.4s-0.3,0.7-0.3,1.5v7.6c0,0.8,0.1,1.3,0.3,1.5
		s0.7,0.3,1.4,0.4v0.3h-5.1v-0.3c0.7,0,1.2-0.1,1.4-0.3s0.3-0.7,0.3-1.5L117.4,100.9L117.4,100.9z"/>
	<path d="M121.2,104.1h3.8v0.3h-0.2c-0.3,0-0.5,0.1-0.6,0.2s-0.2,0.3-0.2,0.4c0,0.2,0.1,0.5,0.3,0.9l2,4.1l1.8-4.4
		c0.1-0.2,0.1-0.5,0.1-0.7c0-0.1,0-0.2-0.1-0.2c0-0.1-0.1-0.1-0.2-0.2s-0.3-0.1-0.5-0.1v-0.3h2.6v0.3c-0.2,0-0.4,0.1-0.5,0.1
		s-0.2,0.2-0.4,0.4c-0.1,0.1-0.2,0.3-0.3,0.7l-3.3,8c-0.3,0.8-0.7,1.4-1.2,1.8s-1,0.6-1.5,0.6c-0.3,0-0.6-0.1-0.9-0.3
		s-0.3-0.4-0.3-0.7c0-0.2,0.1-0.4,0.2-0.6s0.4-0.2,0.7-0.2c0.2,0,0.5,0.1,0.8,0.2c0.2,0.1,0.4,0.1,0.4,0.1c0.2,0,0.4-0.1,0.6-0.3
		s0.4-0.5,0.6-1.1l0.6-1.4l-2.9-6.1c-0.1-0.2-0.2-0.4-0.4-0.7c-0.1-0.2-0.3-0.3-0.4-0.4s-0.4-0.2-0.7-0.2L121.2,104.1L121.2,104.1z"
		/>
	<path d="M130.5,104.1h7l0.4,2.2h-0.4c-0.1-0.4-0.2-0.8-0.4-1s-0.4-0.4-0.6-0.5s-0.6-0.1-1.1-0.1h-0.7v5.6c0,0.6,0,1,0.1,1.1
		s0.2,0.3,0.4,0.3s0.5,0.1,1.1,0.1v0.3H132v-0.3c0.6,0,0.9-0.1,1.1-0.3s0.2-0.6,0.2-1.3v-5.6h-0.7c-0.5,0-0.8,0-1,0.1
		s-0.4,0.2-0.5,0.4s-0.3,0.6-0.4,1.1h-0.4L130.5,104.1z"/>
	<path d="M141,107.7h1c2.4,0,3.6,0.7,3.6,2.2c0,0.7-0.3,1.2-0.9,1.6s-1.4,0.6-2.5,0.6h-3.9v-0.3c0.5,0,0.9-0.1,1-0.3
		s0.2-0.6,0.2-1.3V106c0-0.6,0-1-0.1-1.1s-0.2-0.2-0.3-0.3s-0.4-0.1-0.8-0.1v-0.3h4.2v0.3c-0.6,0-0.9,0-1.1,0.1s-0.2,0.2-0.3,0.3
		s-0.1,0.5-0.1,1.2L141,107.7L141,107.7z M141,111.5c0.3,0.1,0.6,0.1,0.9,0.1c0.6,0,1.1-0.2,1.4-0.5s0.5-0.7,0.5-1.2
		c0-1.1-0.8-1.7-2.3-1.7c-0.1,0-0.3,0-0.6,0v3.3H141z"/>
	<path d="M156.7,107.7V106c0-0.6,0-0.9-0.1-1.1s-0.2-0.3-0.3-0.4s-0.4-0.1-0.8-0.1v-0.3h3.9v0.3c-0.4,0-0.7,0-0.8,0.1
		s-0.2,0.2-0.3,0.3s-0.1,0.5-0.1,1.1v4.3c0,0.6,0,0.9,0.1,1.1s0.2,0.3,0.3,0.4s0.4,0.1,0.8,0.1v0.3h-4.1v-0.3c0.5,0,0.8,0,0.9-0.1
		s0.3-0.2,0.4-0.3s0.1-0.6,0.1-1.1v-2c-0.9,0.4-1.8,0.7-2.7,0.7c-0.5,0-0.9-0.1-1.2-0.2s-0.5-0.3-0.5-0.5s-0.1-0.5-0.1-0.8V106
		c0-0.5,0-0.9-0.1-1s-0.2-0.3-0.3-0.4s-0.4-0.1-0.7-0.1v-0.3h3.8v0.3c-0.4,0-0.7,0-0.8,0.1s-0.2,0.2-0.3,0.3s-0.1,0.5-0.1,1.1v1
		c0,0.4,0,0.6,0.1,0.8s0.2,0.2,0.4,0.3s0.5,0.1,0.9,0.1C155.5,108.3,156.1,108.1,156.7,107.7z"/>
	<path d="M164.9,111c-0.8,0.6-1.3,1-1.6,1.1s-0.7,0.2-1,0.2c-0.6,0-1-0.2-1.4-0.6s-0.5-0.9-0.5-1.5c0-0.4,0.1-0.7,0.3-1
		c0.2-0.4,0.7-0.8,1.3-1.1s1.6-0.8,3-1.3v-0.3c0-0.8-0.1-1.4-0.4-1.7s-0.6-0.4-1.1-0.4c-0.4,0-0.7,0.1-0.9,0.3
		c-0.2,0.2-0.3,0.4-0.3,0.7v0.5c0,0.3-0.1,0.5-0.2,0.6s-0.3,0.2-0.5,0.2s-0.4-0.1-0.5-0.2s-0.2-0.4-0.2-0.6c0-0.5,0.3-1,0.8-1.4
		s1.2-0.6,2.2-0.6c0.7,0,1.3,0.1,1.8,0.4c0.3,0.2,0.6,0.5,0.8,0.9c0.1,0.3,0.2,0.8,0.2,1.5v2.7c0,0.8,0,1.2,0,1.4s0.1,0.3,0.1,0.3
		s0.1,0.1,0.2,0.1c0.1,0,0.2,0,0.2-0.1c0.1-0.1,0.4-0.3,0.7-0.6v0.5c-0.7,0.9-1.3,1.3-1.9,1.3c-0.3,0-0.5-0.1-0.7-0.3
		S164.9,111.5,164.9,111z M164.9,110.4v-3.1c-0.9,0.4-1.5,0.6-1.7,0.7c-0.5,0.3-0.8,0.5-1,0.8s-0.3,0.6-0.3,0.9
		c0,0.4,0.1,0.8,0.4,1.1s0.5,0.4,0.9,0.4C163.5,111.3,164.1,111,164.9,110.4z"/>
	<path d="M175.1,109.1c-0.2,1.1-0.6,1.9-1.3,2.4s-1.3,0.9-2.1,0.9c-0.9,0-1.7-0.4-2.4-1.2s-1-1.8-1-3.1c0-1.3,0.4-2.3,1.1-3.1
		s1.7-1.2,2.7-1.2c0.8,0,1.4,0.2,2,0.6s0.8,0.9,0.8,1.3c0,0.2-0.1,0.4-0.2,0.5s-0.3,0.2-0.6,0.2s-0.6-0.1-0.8-0.3
		c-0.1-0.1-0.2-0.4-0.2-0.7s-0.2-0.6-0.4-0.8c-0.2-0.2-0.5-0.3-0.9-0.3c-0.6,0-1.1,0.2-1.4,0.7c-0.5,0.6-0.7,1.3-0.7,2.3
		s0.2,1.8,0.7,2.5s1.1,1.1,1.9,1.1c0.6,0,1.1-0.2,1.5-0.6c0.3-0.3,0.6-0.8,0.9-1.5L175.1,109.1z"/>
	<path d="M176.2,104.1h7l0.4,2.2h-0.4c-0.1-0.4-0.2-0.8-0.4-1s-0.4-0.4-0.6-0.5s-0.6-0.1-1.1-0.1h-0.7v5.6c0,0.6,0,1,0.1,1.1
		s0.2,0.3,0.4,0.3s0.5,0.1,1.1,0.1v0.3h-4.4v-0.3c0.6,0,0.9-0.1,1.1-0.3s0.2-0.6,0.2-1.3v-5.6h-0.7c-0.5,0-0.8,0-1,0.1
		s-0.4,0.2-0.5,0.4s-0.3,0.6-0.4,1.1h-0.4L176.2,104.1z"/>
	<path d="M186.7,109.7l3.5-4c0-0.5-0.1-0.8-0.3-0.9s-0.4-0.3-0.8-0.3v-0.3h3.7v0.3c-0.4,0-0.7,0-0.8,0.1s-0.2,0.2-0.3,0.3
		s-0.1,0.5-0.1,1.1v4.3c0,0.6,0,1,0.1,1.1s0.2,0.2,0.3,0.3s0.4,0.1,0.8,0.1v0.3h-3.9v-0.3c0.5,0,0.8-0.1,1-0.3s0.2-0.6,0.2-1.3v-3.8
		l-3.5,4c0,0.5,0.1,0.8,0.2,1s0.4,0.3,0.8,0.3v0.3H184v-0.3c0.5,0,0.9-0.1,1-0.3s0.2-0.6,0.2-1.3V106c0-0.6,0-1-0.1-1.1
		s-0.2-0.2-0.3-0.3s-0.4-0.1-0.8-0.1v-0.3h3.9v0.3c-0.4,0-0.7,0-0.8,0.1s-0.2,0.2-0.3,0.3s-0.1,0.5-0.1,1.1L186.7,109.7L186.7,109.7
		z"/>
	<path d="M202.4,111.9v2.6h-0.3c0-0.7-0.2-1.2-0.7-1.6s-1.2-0.6-2.3-0.6h-5.5V112c0.5,0,0.9-0.1,1-0.3s0.2-0.6,0.2-1.3V106
		c0-0.6,0-1-0.1-1.1s-0.2-0.2-0.3-0.3s-0.4-0.1-0.8-0.1v-0.3h3.9v0.3c-0.4,0-0.7,0-0.8,0.1s-0.2,0.2-0.3,0.3s-0.1,0.5-0.1,1.1v4.5
		c0,0.5,0,0.8,0.1,0.9s0.4,0.1,0.9,0.1h1.4c0.5,0,0.9,0,0.9-0.1s0.1-0.4,0.1-1V106c0-0.6,0-0.9-0.1-1.1s-0.2-0.3-0.3-0.4
		s-0.4-0.1-0.8-0.1v-0.3h3.9v0.3c-0.4,0-0.7,0-0.8,0.1s-0.2,0.2-0.3,0.3s-0.1,0.5-0.1,1.1v4.1c0,0.8,0.1,1.2,0.2,1.4
		S201.9,111.8,202.4,111.9z"/>
	<path d="M205.9,107.7h1c2.4,0,3.6,0.7,3.6,2.2c0,0.7-0.3,1.2-0.9,1.6s-1.4,0.6-2.5,0.6h-3.9v-0.3c0.5,0,0.9-0.1,1-0.3
		s0.2-0.6,0.2-1.3V106c0-0.6,0-1-0.1-1.1s-0.2-0.2-0.3-0.3s-0.4-0.1-0.8-0.1v-0.3h4.2v0.3c-0.6,0-0.9,0-1.1,0.1s-0.2,0.2-0.3,0.3
		s-0.1,0.5-0.1,1.2L205.9,107.7L205.9,107.7z M205.9,111.5c0.3,0.1,0.6,0.1,0.9,0.1c0.6,0,1.1-0.2,1.4-0.5s0.5-0.7,0.5-1.2
		c0-1.1-0.8-1.7-2.3-1.7c-0.1,0-0.3,0-0.6,0v3.3H205.9z M210.5,104.5v-0.3h4.1v0.3c-0.4,0-0.6,0-0.8,0.1s-0.3,0.2-0.3,0.4
		s-0.1,0.5-0.1,1.1v4.3c0,0.6,0,0.9,0.1,1.1s0.2,0.3,0.3,0.4s0.4,0.1,0.8,0.1v0.3h-4.1V112c0.5,0,0.8,0,0.9-0.1s0.3-0.2,0.3-0.3
		s0.1-0.6,0.1-1.1V106c0-0.6,0-0.9-0.1-1.1s-0.2-0.3-0.3-0.3S211,104.5,210.5,104.5z"/>
	<path d="M215.9,115.2v-0.4c0.6-0.2,1.1-0.5,1.4-0.9s0.5-0.9,0.5-1.3c0-0.1,0-0.2-0.1-0.3c0-0.1-0.1-0.1-0.1-0.1
		c-0.1,0-0.2,0.1-0.4,0.2c-0.1,0.1-0.2,0.1-0.3,0.1c-0.3,0-0.5-0.1-0.7-0.3s-0.3-0.4-0.3-0.7c0-0.3,0.1-0.5,0.3-0.7s0.5-0.3,0.8-0.3
		c0.4,0,0.7,0.2,1,0.5s0.5,0.8,0.5,1.3c0,0.6-0.2,1.2-0.6,1.7S216.8,114.9,215.9,115.2z"/>
	<path d="M232.6,112.2h-2.4c-0.7-1.1-1.4-2.2-2-3.3c-0.1-0.3-0.3-0.4-0.4-0.6s-0.3-0.2-0.5-0.2c-0.1,0-0.2,0-0.3,0v2.2
		c0,0.6,0,1,0.1,1.1s0.2,0.3,0.4,0.3s0.5,0.1,0.9,0.1v0.3h-4v-0.3c0.5,0,0.9-0.1,1-0.3s0.2-0.6,0.2-1.3V106c0-0.6,0-1-0.1-1.1
		s-0.2-0.2-0.3-0.3s-0.4-0.1-0.8-0.1v-0.3h4v0.3c-0.5,0-0.8,0-0.9,0.1s-0.2,0.2-0.3,0.3s-0.1,0.5-0.1,1.2v1.6c0.1,0,0.2,0,0.3,0
		c0.4,0,0.7-0.1,1-0.3s0.6-0.6,0.8-1.3c0.2-0.6,0.4-1,0.6-1.3s0.4-0.4,0.6-0.5s0.5-0.2,0.8-0.2s0.6,0.1,0.8,0.2s0.3,0.4,0.3,0.6
		s-0.1,0.4-0.2,0.5s-0.3,0.2-0.6,0.2c-0.1,0-0.3,0-0.5-0.1s-0.4-0.1-0.6-0.1c-0.3,0-0.5,0.2-0.7,0.7s-0.3,0.9-0.4,1
		s-0.3,0.4-0.5,0.6c0.2,0.1,0.4,0.2,0.6,0.4s0.6,0.8,1.2,1.9c0.5,0.8,0.8,1.3,1,1.5s0.6,0.3,1,0.3L232.6,112.2L232.6,112.2z"/>
	<path d="M236.3,103.9c1.2,0,2.2,0.5,2.9,1.4c0.6,0.8,0.9,1.7,0.9,2.7c0,0.7-0.2,1.5-0.5,2.2s-0.8,1.3-1.4,1.7s-1.3,0.6-2,0.6
		c-1.2,0-2.2-0.5-2.9-1.5c-0.6-0.8-0.9-1.7-0.9-2.7c0-0.7,0.2-1.5,0.5-2.2s0.8-1.3,1.4-1.6S235.6,103.9,236.3,103.9z M236,104.5
		c-0.3,0-0.6,0.1-0.9,0.3s-0.6,0.5-0.8,1s-0.3,1.1-0.3,1.8c0,1.2,0.2,2.2,0.7,3s1.1,1.3,1.8,1.3c0.6,0,1-0.2,1.4-0.7
		s0.6-1.3,0.6-2.4c0-1.4-0.3-2.6-0.9-3.4C237.2,104.7,236.6,104.5,236,104.5z"/>
	<path d="M241,104.1h7l0.4,2.2H248c-0.1-0.4-0.2-0.8-0.4-1s-0.4-0.4-0.6-0.5s-0.6-0.1-1.1-0.1h-0.7v5.6c0,0.6,0,1,0.1,1.1
		s0.2,0.3,0.4,0.3s0.5,0.1,1.1,0.1v0.3h-4.4v-0.3c0.6,0,0.9-0.1,1.1-0.3s0.2-0.6,0.2-1.3v-5.6H243c-0.5,0-0.8,0-1,0.1
		s-0.4,0.2-0.5,0.4s-0.3,0.6-0.4,1.1h-0.4L241,104.1z"/>
	<path d="M252.7,103.9c1.2,0,2.2,0.5,2.9,1.4c0.6,0.8,0.9,1.7,0.9,2.7c0,0.7-0.2,1.5-0.5,2.2s-0.8,1.3-1.4,1.7s-1.3,0.6-2,0.6
		c-1.2,0-2.2-0.5-2.9-1.5c-0.6-0.8-0.9-1.7-0.9-2.7c0-0.7,0.2-1.5,0.5-2.2s0.8-1.3,1.4-1.6S252,103.9,252.7,103.9z M252.4,104.5
		c-0.3,0-0.6,0.1-0.9,0.3s-0.6,0.5-0.8,1s-0.3,1.1-0.3,1.8c0,1.2,0.2,2.2,0.7,3s1.1,1.3,1.8,1.3c0.6,0,1-0.2,1.4-0.7
		s0.6-1.3,0.6-2.4c0-1.4-0.3-2.6-0.9-3.4C253.6,104.7,253,104.5,252.4,104.5z"/>
	<path d="M257.1,104.9l2.5-1h0.3v1.9c0.4-0.7,0.8-1.2,1.3-1.5s0.9-0.4,1.3-0.4c0.8,0,1.5,0.3,2,0.9c0.7,0.8,1,1.8,1,3
		c0,1.4-0.4,2.5-1.2,3.4c-0.7,0.7-1.5,1.1-2.5,1.1c-0.4,0-0.8-0.1-1.1-0.2c-0.2-0.1-0.5-0.3-0.8-0.5v2.5c0,0.6,0,0.9,0.1,1.1
		s0.2,0.3,0.4,0.4s0.5,0.1,0.9,0.1v0.3h-4.2v-0.3h0.2c0.3,0,0.6-0.1,0.8-0.2c0.1-0.1,0.2-0.2,0.3-0.3s0.1-0.5,0.1-1.1v-7.6
		c0-0.5,0-0.9-0.1-1s-0.1-0.2-0.2-0.3s-0.2-0.1-0.4-0.1c-0.1,0-0.3,0-0.5,0.1L257.1,104.9z M260,106.3v3c0,0.7,0,1.1,0.1,1.3
		c0.1,0.3,0.3,0.6,0.6,0.9s0.7,0.4,1.2,0.4c0.6,0,1.1-0.2,1.4-0.7c0.5-0.6,0.7-1.4,0.7-2.5c0-1.2-0.3-2.2-0.8-2.8
		c-0.4-0.5-0.8-0.7-1.3-0.7c-0.3,0-0.6,0.1-0.8,0.2C260.8,105.5,260.4,105.8,260,106.3z"/>
	<path d="M269.2,107.7h1c2.4,0,3.6,0.7,3.6,2.2c0,0.7-0.3,1.2-0.9,1.6s-1.4,0.6-2.5,0.6h-3.9v-0.3c0.5,0,0.9-0.1,1-0.3
		s0.2-0.6,0.2-1.3V106c0-0.6,0-1-0.1-1.1s-0.2-0.2-0.3-0.3s-0.4-0.1-0.8-0.1v-0.3h4.2v0.3c-0.6,0-0.9,0-1.1,0.1s-0.2,0.2-0.3,0.3
		s-0.1,0.5-0.1,1.2L269.2,107.7L269.2,107.7z M269.2,111.5c0.3,0.1,0.6,0.1,0.9,0.1c0.6,0,1.1-0.2,1.4-0.5s0.5-0.7,0.5-1.2
		c0-1.1-0.8-1.7-2.3-1.7c-0.1,0-0.3,0-0.6,0v3.3H269.2z M273.8,104.5v-0.3h4.1v0.3c-0.4,0-0.6,0-0.8,0.1s-0.3,0.2-0.3,0.4
		s-0.1,0.5-0.1,1.1v4.3c0,0.6,0,0.9,0.1,1.1s0.2,0.3,0.3,0.4s0.4,0.1,0.8,0.1v0.3h-4.1V112c0.5,0,0.8,0,0.9-0.1s0.3-0.2,0.3-0.3
		s0.1-0.6,0.1-1.1V106c0-0.6,0-0.9-0.1-1.1s-0.2-0.3-0.3-0.3S274.3,104.5,273.8,104.5z"/>
	<path d="M281.3,109.7l3.5-4c0-0.5-0.1-0.8-0.3-0.9s-0.4-0.3-0.8-0.3v-0.3h3.7v0.3c-0.4,0-0.7,0-0.8,0.1s-0.2,0.2-0.3,0.3
		s-0.1,0.5-0.1,1.1v4.3c0,0.6,0,1,0.1,1.1s0.2,0.2,0.3,0.3s0.4,0.1,0.8,0.1v0.3h-3.9v-0.3c0.5,0,0.8-0.1,1-0.3s0.2-0.6,0.2-1.3v-3.8
		l-3.5,4c0,0.5,0.1,0.8,0.2,1s0.4,0.3,0.8,0.3v0.3h-3.7v-0.3c0.5,0,0.9-0.1,1-0.3s0.2-0.6,0.2-1.3V106c0-0.6,0-1-0.1-1.1
		s-0.2-0.2-0.3-0.3s-0.4-0.1-0.8-0.1v-0.3h3.9v0.3c-0.4,0-0.7,0-0.8,0.1s-0.2,0.2-0.3,0.3s-0.1,0.5-0.1,1.1L281.3,109.7L281.3,109.7
		z M280.2,100.9c0-0.2,0.1-0.4,0.2-0.5s0.3-0.2,0.4-0.2c0.4,0,0.7,0.4,1,1.1c0.2,0.4,0.4,0.7,0.6,0.8s0.4,0.2,0.6,0.2
		c0.4,0,0.6-0.1,0.8-0.2s0.4-0.4,0.5-0.9c0.2-0.6,0.5-0.9,0.9-0.9c0.2,0,0.3,0.1,0.4,0.2s0.2,0.3,0.2,0.5c0,0.5-0.3,0.9-0.9,1.3
		s-1.3,0.6-2,0.6c-1,0-1.7-0.2-2.2-0.5S280.2,101.4,280.2,100.9z"/>
	<path d="M113.9,122.1l2.5-6h2.7v0.3c-0.4,0-0.7,0-0.8,0.1s-0.2,0.2-0.3,0.3s-0.1,0.5-0.1,1.1v4.3c0,0.6,0,0.9,0.1,1.1
		s0.2,0.3,0.3,0.4s0.4,0.1,0.8,0.1v0.3h-3.9v-0.3c0.5,0,0.8-0.1,1-0.3s0.2-0.6,0.2-1.3v-4.8l-2.8,6.7h-0.3l-2.9-6.7v4.8
		c0,0.6,0,0.9,0.1,1.1s0.2,0.3,0.3,0.4s0.4,0.1,0.8,0.1v0.3h-3.1v-0.3c0.5,0,0.9-0.1,1-0.3s0.2-0.6,0.2-1.3V118c0-0.6,0-1-0.1-1.1
		s-0.2-0.2-0.3-0.3s-0.4-0.1-0.8-0.1v-0.3h2.8L113.9,122.1z"/>
	<path d="M124,115.9c1.2,0,2.2,0.5,2.9,1.4c0.6,0.8,0.9,1.7,0.9,2.7c0,0.7-0.2,1.5-0.5,2.2s-0.8,1.3-1.4,1.7s-1.3,0.6-2,0.6
		c-1.2,0-2.2-0.5-2.9-1.5c-0.6-0.8-0.9-1.7-0.9-2.7c0-0.7,0.2-1.5,0.5-2.2s0.8-1.3,1.4-1.6S123.3,115.9,124,115.9z M123.7,116.5
		c-0.3,0-0.6,0.1-0.9,0.3s-0.6,0.5-0.8,1s-0.3,1.1-0.3,1.8c0,1.2,0.2,2.2,0.7,3s1.1,1.3,1.8,1.3c0.6,0,1-0.2,1.4-0.7
		s0.6-1.3,0.6-2.4c0-1.4-0.3-2.6-0.9-3.4C124.9,116.7,124.4,116.5,123.7,116.5z"/>
	<path d="M135.4,116.1l0.3,2.2h-0.4c-0.2-0.7-0.4-1.2-0.7-1.4s-0.7-0.3-1.4-0.3h-1.7v5.6c0,0.6,0,1,0.1,1.1s0.2,0.2,0.3,0.3
		s0.4,0.1,0.8,0.1v0.3h-4v-0.3c0.6,0,0.9-0.1,1.1-0.3s0.2-0.6,0.2-1.3V118c0-0.6,0-0.9-0.1-1.1s-0.2-0.3-0.3-0.3s-0.5-0.1-0.9-0.1
		v-0.3L135.4,116.1L135.4,116.1z"/>
	<path d="M141.7,118.4c0.7-1.7,1.8-2.5,3.4-2.5c1.1,0,2,0.4,2.7,1.3s1.1,1.8,1.1,2.9s-0.4,2.1-1.1,3s-1.7,1.4-2.9,1.4
		c-1.3,0-2.2-0.5-2.9-1.6s-1-2.3-1-3.8c0-1.2,0.2-2.2,0.5-3.2s0.7-1.8,1.1-2.3s0.8-0.9,1.3-1.1s1.4-0.3,2.6-0.4c0.9,0,1.4,0,1.6-0.1
		s0.4-0.2,0.5-0.4h0.3c-0.2,0.6-0.4,1-0.7,1.2s-0.6,0.4-0.9,0.5s-0.9,0.1-1.7,0.2c-0.9,0-1.5,0.1-1.8,0.2s-0.7,0.4-1.1,0.8
		s-0.6,1-0.8,1.6S141.7,117.6,141.7,118.4z M144.8,116.5c-0.6,0-1.1,0.2-1.4,0.7s-0.6,1.3-0.6,2.3c0,1.4,0.3,2.5,0.8,3.2
		s1.1,1.1,1.7,1.1c0.6,0,1.1-0.3,1.4-0.8s0.5-1.3,0.5-2.4c0-1.2-0.2-2.2-0.7-3S145.5,116.5,144.8,116.5z"/>
	<path d="M152.6,119.7h1c2.4,0,3.6,0.7,3.6,2.2c0,0.7-0.3,1.2-0.9,1.6s-1.4,0.6-2.5,0.6h-3.9v-0.3c0.5,0,0.9-0.1,1-0.3
		s0.2-0.6,0.2-1.3V118c0-0.6,0-1-0.1-1.1s-0.2-0.2-0.3-0.3s-0.4-0.1-0.8-0.1v-0.3h4.2v0.3c-0.6,0-0.9,0-1.1,0.1s-0.2,0.2-0.3,0.3
		s-0.1,0.5-0.1,1.2L152.6,119.7L152.6,119.7z M152.6,123.5c0.3,0.1,0.6,0.1,0.9,0.1c0.6,0,1.1-0.2,1.4-0.5s0.5-0.7,0.5-1.2
		c0-1.1-0.8-1.7-2.3-1.7c-0.1,0-0.3,0-0.6,0v3.3H152.6z M157.2,116.5v-0.3h4.1v0.3c-0.4,0-0.6,0-0.8,0.1s-0.3,0.2-0.3,0.4
		s-0.1,0.5-0.1,1.1v4.3c0,0.6,0,0.9,0.1,1.1s0.2,0.3,0.3,0.4s0.4,0.1,0.8,0.1v0.3h-4.1V124c0.5,0,0.8,0,0.9-0.1s0.3-0.2,0.3-0.3
		s0.1-0.6,0.1-1.1V118c0-0.6,0-0.9-0.1-1.1s-0.2-0.3-0.3-0.3S157.6,116.5,157.2,116.5z"/>
	<path d="M171.8,119.9c1.5,0.3,2.2,1,2.2,2.1c0,0.7-0.3,1.3-0.9,1.6s-1.5,0.5-2.6,0.5h-4v-0.3c0.5,0,0.9-0.1,1-0.3s0.2-0.6,0.2-1.3
		V118c0-0.6,0-1-0.1-1.1s-0.2-0.2-0.3-0.3s-0.4-0.1-0.8-0.1v-0.3h3.7c0.7,0,1.3,0.1,1.7,0.2s0.8,0.3,1.1,0.7s0.4,0.7,0.4,1.2
		C173.5,119.1,172.9,119.7,171.8,119.9z M169.2,119.7c0.3,0,0.4,0,0.5,0c0.8,0,1.4-0.2,1.7-0.5s0.5-0.7,0.5-1.1
		c0-0.5-0.2-0.9-0.5-1.1s-0.9-0.3-1.7-0.3h-0.5V119.7z M169.2,123.5c0.3,0.1,0.6,0.1,1,0.1c0.7,0,1.2-0.2,1.6-0.5s0.5-0.7,0.5-1.2
		s-0.2-1-0.7-1.2s-1-0.4-1.8-0.4c-0.2,0-0.4,0-0.6,0V123.5z"/>
	<path d="M177.7,119.7h3.5V118c0-0.5,0-0.8-0.1-1s-0.1-0.3-0.3-0.4s-0.4-0.2-0.9-0.2v-0.3h3.9v0.3c-0.4,0-0.6,0-0.8,0.1
		s-0.3,0.2-0.3,0.4s-0.1,0.5-0.1,1.1v4.3c0,0.5,0,0.8,0.1,1s0.2,0.3,0.3,0.4s0.4,0.2,0.8,0.2v0.3H180v-0.3c0.5,0,0.8-0.1,1-0.3
		s0.2-0.6,0.2-1.3v-2h-3.5v2c0,0.5,0,0.8,0.1,1s0.2,0.3,0.3,0.4s0.4,0.2,0.8,0.2v0.3H175v-0.3c0.5,0,0.9-0.1,1-0.3s0.2-0.6,0.2-1.3
		V118c0-0.5,0-0.8-0.1-1s-0.2-0.3-0.3-0.4s-0.4-0.1-0.8-0.1v-0.3h3.9v0.3c-0.4,0-0.6,0-0.8,0.1s-0.3,0.2-0.3,0.4s-0.1,0.5-0.1,1.1
		L177.7,119.7L177.7,119.7z"/>
	<path d="M186.2,119.2c0,1.2,0.3,2.1,0.9,2.8s1.3,1,2.1,1c0.5,0,1-0.1,1.4-0.4s0.7-0.8,1-1.5l0.3,0.2c-0.1,0.8-0.5,1.5-1.1,2.2
		s-1.3,1-2.2,1c-1,0-1.8-0.4-2.5-1.1s-1-1.8-1-3c0-1.4,0.4-2.5,1.1-3.2s1.6-1.2,2.7-1.2c0.9,0,1.6,0.3,2.2,0.9s0.9,1.4,0.9,2.4h-5.8
		V119.2z M186.2,118.7h3.7c0-0.5-0.1-0.9-0.2-1.1c-0.1-0.3-0.4-0.6-0.7-0.8s-0.6-0.3-0.9-0.3c-0.5,0-0.9,0.2-1.3,0.6
		S186.2,118,186.2,118.7z"/>
	<path d="M200.1,121.1c-0.2,1.1-0.6,1.9-1.3,2.4s-1.3,0.9-2.1,0.9c-0.9,0-1.7-0.4-2.4-1.2s-1-1.8-1-3.1c0-1.3,0.4-2.3,1.1-3.1
		s1.7-1.2,2.7-1.2c0.8,0,1.4,0.2,2,0.6s0.8,0.9,0.8,1.3c0,0.2-0.1,0.4-0.2,0.5s-0.3,0.2-0.6,0.2s-0.6-0.1-0.8-0.3
		c-0.1-0.1-0.2-0.4-0.2-0.7s-0.2-0.6-0.4-0.8c-0.2-0.2-0.5-0.3-0.9-0.3c-0.6,0-1.1,0.2-1.4,0.7c-0.5,0.6-0.7,1.3-0.7,2.3
		s0.2,1.8,0.7,2.5s1.1,1.1,1.9,1.1c0.6,0,1.1-0.2,1.5-0.6c0.3-0.3,0.6-0.8,0.9-1.5L200.1,121.1z"/>
	<path d="M201.1,116.1h7l0.4,2.2H208c-0.1-0.4-0.2-0.8-0.4-1s-0.4-0.4-0.6-0.5s-0.6-0.1-1.1-0.1h-0.7v5.6c0,0.6,0,1,0.1,1.1
		s0.2,0.3,0.4,0.3s0.5,0.1,1.1,0.1v0.3h-4.4v-0.3c0.6,0,0.9-0.1,1.1-0.3s0.2-0.6,0.2-1.3v-5.6H203c-0.5,0-0.8,0-1,0.1
		s-0.4,0.2-0.5,0.4s-0.3,0.6-0.4,1.1h-0.4L201.1,116.1z"/>
	<path d="M211.6,121.7l3.5-4c0-0.5-0.1-0.8-0.3-0.9s-0.4-0.3-0.8-0.3v-0.3h3.7v0.3c-0.4,0-0.7,0-0.8,0.1s-0.2,0.2-0.3,0.3
		s-0.1,0.5-0.1,1.1v4.3c0,0.6,0,1,0.1,1.1s0.2,0.2,0.3,0.3s0.4,0.1,0.8,0.1v0.3h-3.9v-0.3c0.5,0,0.8-0.1,1-0.3s0.2-0.6,0.2-1.3v-3.8
		l-3.5,4c0,0.5,0.1,0.8,0.2,1s0.4,0.3,0.8,0.3v0.3H209v-0.3c0.5,0,0.9-0.1,1-0.3s0.2-0.6,0.2-1.3V118c0-0.6,0-1-0.1-1.1
		s-0.2-0.2-0.3-0.3s-0.4-0.1-0.8-0.1v-0.3h3.9v0.3c-0.4,0-0.7,0-0.8,0.1s-0.2,0.2-0.3,0.3s-0.1,0.5-0.1,1.1L211.6,121.7L211.6,121.7
		z"/>
	<path d="M228.4,119.9c1.5,0.3,2.2,1,2.2,2.1c0,0.7-0.3,1.3-0.9,1.6s-1.5,0.5-2.6,0.5h-4v-0.3c0.5,0,0.9-0.1,1-0.3s0.2-0.6,0.2-1.3
		V118c0-0.6,0-1-0.1-1.1s-0.2-0.2-0.3-0.3s-0.4-0.1-0.8-0.1v-0.3h3.7c0.7,0,1.3,0.1,1.7,0.2s0.8,0.3,1.1,0.7s0.4,0.7,0.4,1.2
		C230.1,119.1,229.5,119.7,228.4,119.9z M225.8,119.7c0.3,0,0.4,0,0.5,0c0.8,0,1.4-0.2,1.7-0.5s0.5-0.7,0.5-1.1
		c0-0.5-0.2-0.9-0.5-1.1s-0.9-0.3-1.7-0.3h-0.5V119.7z M225.8,123.5c0.3,0.1,0.6,0.1,1,0.1c0.7,0,1.2-0.2,1.6-0.5s0.5-0.7,0.5-1.2
		s-0.2-1-0.7-1.2s-1-0.4-1.8-0.4c-0.2,0-0.4,0-0.6,0V123.5z"/>
	<path d="M239.8,124.2h-2.4c-0.7-1.1-1.4-2.2-2-3.3c-0.1-0.3-0.3-0.4-0.4-0.6s-0.3-0.2-0.5-0.2c-0.1,0-0.2,0-0.3,0v2.2
		c0,0.6,0,1,0.1,1.1s0.2,0.3,0.4,0.3s0.5,0.1,0.9,0.1v0.3h-4v-0.3c0.5,0,0.9-0.1,1-0.3s0.2-0.6,0.2-1.3V118c0-0.6,0-1-0.1-1.1
		s-0.2-0.2-0.3-0.3s-0.4-0.1-0.8-0.1v-0.3h4v0.3c-0.5,0-0.8,0-0.9,0.1s-0.2,0.2-0.3,0.3s-0.1,0.5-0.1,1.2v1.6c0.1,0,0.2,0,0.3,0
		c0.4,0,0.7-0.1,1-0.3s0.6-0.6,0.8-1.3c0.2-0.6,0.4-1,0.6-1.3s0.4-0.4,0.6-0.5s0.5-0.2,0.8-0.2s0.6,0.1,0.8,0.2s0.3,0.4,0.3,0.6
		s-0.1,0.4-0.2,0.5s-0.3,0.2-0.6,0.2c-0.1,0-0.3,0-0.5-0.1s-0.4-0.1-0.6-0.1c-0.3,0-0.5,0.2-0.7,0.7s-0.3,0.9-0.4,1
		s-0.3,0.4-0.5,0.6c0.2,0.1,0.4,0.2,0.6,0.4s0.6,0.8,1.2,1.9c0.5,0.8,0.8,1.3,1,1.5s0.6,0.3,1,0.3L239.8,124.2L239.8,124.2z"/>
	<path d="M241.3,116.1h7.2v0.3c-0.4,0-0.7,0-0.8,0.1s-0.2,0.2-0.3,0.3s-0.1,0.5-0.1,1.1v4.3c0,0.6,0,1,0.1,1.1s0.2,0.2,0.3,0.3
		s0.4,0.1,0.8,0.1v0.3h-4.2v-0.3c0.5,0,0.8,0,0.9-0.1s0.3-0.2,0.4-0.3s0.1-0.6,0.1-1.2v-5.6H243v3.4c0,1.3-0.1,2.2-0.2,2.7
		s-0.3,0.9-0.7,1.2s-0.7,0.4-1.2,0.4c-0.8,0-1.1-0.3-1.1-0.9c0-0.2,0.1-0.4,0.2-0.5s0.3-0.2,0.5-0.2s0.4,0.1,0.6,0.3
		c0.2,0.2,0.4,0.3,0.5,0.3c0.3,0,0.5-0.2,0.6-0.7s0.2-1.2,0.2-2.3v-1.8c0-0.9-0.1-1.5-0.2-1.7s-0.5-0.3-1-0.4L241.3,116.1
		L241.3,116.1z"/>
	<path d="M254,123c-0.8,0.6-1.3,1-1.6,1.1s-0.7,0.2-1,0.2c-0.6,0-1-0.2-1.4-0.6s-0.5-0.9-0.5-1.5c0-0.4,0.1-0.7,0.3-1
		c0.2-0.4,0.7-0.8,1.3-1.1s1.6-0.8,3-1.3v-0.3c0-0.8-0.1-1.4-0.4-1.7s-0.6-0.4-1.1-0.4c-0.4,0-0.7,0.1-0.9,0.3
		c-0.2,0.2-0.3,0.4-0.3,0.7v0.5c0,0.3-0.1,0.5-0.2,0.6s-0.3,0.2-0.5,0.2s-0.4-0.1-0.5-0.2s-0.2-0.4-0.2-0.6c0-0.5,0.3-1,0.8-1.4
		s1.2-0.6,2.2-0.6c0.7,0,1.3,0.1,1.8,0.4c0.3,0.2,0.6,0.5,0.8,0.9c0.1,0.3,0.2,0.8,0.2,1.5v2.7c0,0.8,0,1.2,0,1.4s0.1,0.3,0.1,0.3
		s0.1,0.1,0.2,0.1s0.2,0,0.2-0.1c0.1-0.1,0.4-0.3,0.7-0.6v0.5c-0.7,0.9-1.3,1.3-1.9,1.3c-0.3,0-0.5-0.1-0.7-0.3S254,123.5,254,123z
		 M254,122.4v-3.1c-0.9,0.4-1.5,0.6-1.7,0.7c-0.5,0.3-0.8,0.5-1,0.8s-0.3,0.6-0.3,0.9c0,0.4,0.1,0.8,0.4,1.1s0.5,0.4,0.9,0.4
		C252.7,123.3,253.3,123,254,122.4z"/>
	<path d="M258.6,116.1h7.1v0.3c-0.4,0-0.7,0-0.8,0.1s-0.2,0.2-0.3,0.3s-0.1,0.5-0.1,1.1v4c0,0.8,0.1,1.4,0.2,1.5s0.5,0.3,1,0.3v2.6
		h-0.3c0-0.5-0.1-0.9-0.4-1.3s-0.5-0.6-0.9-0.8s-0.9-0.2-1.7-0.2h-2.1c-0.6,0-1.1,0.1-1.5,0.2s-0.7,0.4-0.9,0.7s-0.4,0.8-0.4,1.3
		h-0.3v-2.6c0.5,0,0.9-0.2,1.3-0.6s0.7-1.1,1-2.1s0.4-2.1,0.4-3.1s-0.5-1.5-1.4-1.6L258.6,116.1L258.6,116.1z M260.5,116.7v0.5
		c0,2.9-0.5,5-1.6,6.4h3c0.5,0,0.8,0,0.9-0.1s0.1-0.4,0.1-1v-5.8H260.5z"/>
</g>
<g>
	<path d="M209.6,179.7h5.5v-3.4c0-0.6,0-1-0.1-1.2c-0.1-0.1-0.2-0.3-0.4-0.4c-0.3-0.1-0.5-0.2-0.8-0.2h-0.4v-0.3h5.1v0.3h-0.4
		c-0.3,0-0.5,0.1-0.8,0.2c-0.2,0.1-0.3,0.2-0.4,0.4s-0.1,0.6-0.1,1.2v7.7c0,0.6,0,1,0.1,1.2c0.1,0.1,0.2,0.3,0.4,0.4
		c0.3,0.1,0.5,0.2,0.8,0.2h0.4v0.3h-5.1v-0.3h0.4c0.5,0,0.8-0.1,1.1-0.4c0.1-0.2,0.2-0.6,0.2-1.4v-3.6h-5.5v3.6c0,0.6,0,1,0.1,1.2
		c0.1,0.1,0.2,0.3,0.4,0.4c0.3,0.1,0.5,0.2,0.8,0.2h0.4v0.3h-5.1v-0.3h0.4c0.5,0,0.8-0.1,1.1-0.4c0.1-0.2,0.2-0.6,0.2-1.4v-7.7
		c0-0.6,0-1-0.1-1.2c-0.1-0.1-0.2-0.3-0.4-0.4c-0.3-0.1-0.5-0.2-0.8-0.2h-0.4v-0.3h5.1v0.3h-0.4c-0.3,0-0.5,0.1-0.8,0.2
		c-0.2,0.1-0.3,0.2-0.4,0.4s-0.1,0.6-0.1,1.2V179.7z"/>
	<path d="M224,184.9c-0.8,0.6-1.3,1-1.6,1.1c-0.3,0.1-0.7,0.2-1,0.2c-0.6,0-1-0.2-1.4-0.6s-0.5-0.9-0.5-1.5c0-0.4,0.1-0.7,0.3-1
		c0.2-0.4,0.7-0.8,1.3-1.1s1.6-0.8,3-1.3v-0.3c0-0.8-0.1-1.4-0.4-1.7s-0.6-0.4-1.1-0.4c-0.4,0-0.7,0.1-0.9,0.3
		c-0.2,0.2-0.3,0.4-0.3,0.7l0,0.5c0,0.3-0.1,0.5-0.2,0.6s-0.3,0.2-0.5,0.2c-0.2,0-0.4-0.1-0.5-0.2s-0.2-0.4-0.2-0.6
		c0-0.5,0.3-1,0.8-1.4s1.2-0.6,2.2-0.6c0.7,0,1.3,0.1,1.8,0.4c0.3,0.2,0.6,0.5,0.8,0.9c0.1,0.3,0.2,0.8,0.2,1.5v2.7
		c0,0.8,0,1.2,0,1.4s0.1,0.3,0.1,0.3s0.1,0.1,0.2,0.1c0.1,0,0.2,0,0.2-0.1c0.1-0.1,0.4-0.3,0.7-0.6v0.5c-0.7,0.9-1.3,1.3-1.9,1.3
		c-0.3,0-0.5-0.1-0.7-0.3S224,185.4,224,184.9z M224,184.4v-3.1c-0.9,0.4-1.5,0.6-1.7,0.7c-0.5,0.3-0.8,0.5-1,0.8s-0.3,0.6-0.3,0.9
		c0,0.4,0.1,0.8,0.4,1.1s0.5,0.4,0.9,0.4C222.7,185.2,223.3,185,224,184.4z"/>
	<path d="M228.2,180.4c0.7-1.7,1.8-2.5,3.4-2.5c1.1,0,2,0.4,2.7,1.3s1.1,1.8,1.1,2.9c0,1.1-0.4,2.1-1.1,3s-1.7,1.4-2.9,1.4
		c-1.3,0-2.2-0.5-2.9-1.6s-1-2.3-1-3.8c0-1.2,0.2-2.2,0.5-3.2s0.7-1.8,1.1-2.3s0.8-0.9,1.3-1.1s1.4-0.3,2.6-0.4c0.9,0,1.4,0,1.6-0.1
		s0.4-0.2,0.5-0.4h0.3c-0.2,0.6-0.4,1-0.7,1.2s-0.6,0.4-0.9,0.5s-0.9,0.1-1.7,0.2c-0.9,0-1.5,0.1-1.8,0.2s-0.7,0.4-1.1,0.8
		s-0.6,1-0.8,1.6S228.2,179.5,228.2,180.4z M231.3,178.4c-0.6,0-1.1,0.2-1.4,0.7s-0.6,1.3-0.6,2.3c0,1.4,0.3,2.5,0.8,3.2
		s1.1,1.1,1.7,1.1c0.6,0,1.1-0.3,1.4-0.8s0.5-1.3,0.5-2.4c0-1.2-0.2-2.2-0.7-3S232,178.4,231.3,178.4z"/>
	<path d="M237,178h7.2v0.3c-0.4,0-0.7,0-0.8,0.1s-0.2,0.2-0.3,0.3s-0.1,0.5-0.1,1.1v4.3c0,0.6,0,1,0.1,1.1s0.2,0.2,0.3,0.3
		s0.4,0.1,0.8,0.1v0.3H240v-0.3c0.5,0,0.8,0,0.9-0.1s0.3-0.2,0.4-0.3s0.1-0.6,0.1-1.2v-5.6h-2.7v3.4c0,1.3-0.1,2.2-0.2,2.7
		s-0.3,0.9-0.7,1.2s-0.7,0.4-1.2,0.4c-0.8,0-1.1-0.3-1.1-0.9c0-0.2,0.1-0.4,0.2-0.5s0.3-0.2,0.5-0.2c0.2,0,0.4,0.1,0.6,0.3
		c0.2,0.2,0.4,0.3,0.5,0.3c0.3,0,0.5-0.2,0.6-0.7s0.2-1.2,0.2-2.3v-1.8c0-0.9-0.1-1.5-0.2-1.7s-0.5-0.3-1-0.4V178z"/>
	<path d="M249.6,182.2h-2v2c0,0.6,0,1,0.1,1.1s0.2,0.2,0.3,0.3s0.4,0.1,0.8,0.1v0.3H245v-0.3c0.4,0,0.7,0,0.8-0.1s0.2-0.2,0.3-0.3
		s0.1-0.6,0.1-1.1v-4.3c0-0.7-0.1-1.1-0.2-1.3s-0.5-0.2-1-0.3V178h3.9v0.3c-0.4,0-0.7,0-0.8,0.1s-0.2,0.2-0.3,0.3s-0.1,0.5-0.1,1.1
		v1.7h2c0.2-1.1,0.6-2.1,1.3-2.8s1.6-1.1,2.6-1.1c1.1,0,2.1,0.4,2.8,1.2s1.1,1.8,1.1,2.9c0,0.7-0.2,1.5-0.5,2.2s-0.8,1.3-1.5,1.7
		s-1.3,0.5-2,0.5c-1.1,0-2-0.4-2.7-1.2S249.7,183.3,249.6,182.2z M253.3,178.4c-0.6,0-1,0.2-1.4,0.7s-0.6,1.3-0.6,2.3
		c0,1.2,0.2,2.2,0.7,3s1.1,1.3,1.8,1.3c1.3,0,2-1,2-3.1c0-1.2-0.2-2.2-0.7-3S254,178.4,253.3,178.4z"/>
	<path d="M258.8,178h7.1v0.3c-0.4,0-0.7,0-0.8,0.1s-0.2,0.2-0.3,0.3s-0.1,0.5-0.1,1.1v4c0,0.8,0.1,1.4,0.2,1.5s0.5,0.3,1,0.3v2.6
		h-0.3c0-0.5-0.1-0.9-0.4-1.3s-0.5-0.6-0.9-0.8s-0.9-0.2-1.7-0.2h-2.1c-0.6,0-1.1,0.1-1.5,0.2s-0.7,0.4-0.9,0.7s-0.4,0.8-0.4,1.3
		h-0.3v-2.6c0.5,0,0.9-0.2,1.3-0.6s0.7-1.1,1-2.1s0.4-2.1,0.4-3.1c0-1-0.5-1.5-1.4-1.6V178z M260.7,178.6v0.5c0,2.9-0.5,5-1.6,6.4h3
		c0.5,0,0.8,0,0.9-0.1s0.1-0.4,0.1-1v-5.8H260.7z"/>
	<path d="M271.4,184.9c-0.8,0.6-1.3,1-1.6,1.1c-0.3,0.1-0.7,0.2-1,0.2c-0.6,0-1-0.2-1.4-0.6s-0.5-0.9-0.5-1.5c0-0.4,0.1-0.7,0.3-1
		c0.2-0.4,0.7-0.8,1.3-1.1s1.6-0.8,3-1.3v-0.3c0-0.8-0.1-1.4-0.4-1.7s-0.6-0.4-1.1-0.4c-0.4,0-0.7,0.1-0.9,0.3
		c-0.2,0.2-0.3,0.4-0.3,0.7l0,0.5c0,0.3-0.1,0.5-0.2,0.6s-0.3,0.2-0.5,0.2c-0.2,0-0.4-0.1-0.5-0.2s-0.2-0.4-0.2-0.6
		c0-0.5,0.3-1,0.8-1.4s1.2-0.6,2.2-0.6c0.7,0,1.3,0.1,1.8,0.4c0.3,0.2,0.6,0.5,0.8,0.9c0.1,0.3,0.2,0.8,0.2,1.5v2.7
		c0,0.8,0,1.2,0,1.4s0.1,0.3,0.1,0.3s0.1,0.1,0.2,0.1c0.1,0,0.2,0,0.2-0.1c0.1-0.1,0.4-0.3,0.7-0.6v0.5c-0.7,0.9-1.3,1.3-1.9,1.3
		c-0.3,0-0.5-0.1-0.7-0.3S271.4,185.4,271.4,184.9z M271.4,184.4v-3.1c-0.9,0.4-1.5,0.6-1.7,0.7c-0.5,0.3-0.8,0.5-1,0.8
		s-0.3,0.6-0.3,0.9c0,0.4,0.1,0.8,0.4,1.1s0.5,0.4,0.9,0.4C270.1,185.2,270.7,185,271.4,184.4z"/>
	<path d="M274.2,178h7l0.4,2.2h-0.4c-0.1-0.4-0.2-0.8-0.4-1s-0.4-0.4-0.6-0.5s-0.6-0.1-1.1-0.1h-0.7v5.6c0,0.6,0,1,0.1,1.1
		s0.2,0.3,0.4,0.3s0.5,0.1,1.1,0.1v0.3h-4.4v-0.3c0.6,0,0.9-0.1,1.1-0.3s0.2-0.6,0.2-1.3v-5.6h-0.7c-0.5,0-0.8,0-1,0.1
		s-0.4,0.2-0.5,0.4s-0.3,0.6-0.4,1.1h-0.4L274.2,178z"/>
	<path d="M283.6,181.1c0,1.2,0.3,2.1,0.9,2.8s1.3,1,2.1,1c0.5,0,1-0.1,1.4-0.4s0.7-0.8,1-1.5l0.3,0.2c-0.1,0.8-0.5,1.5-1.1,2.2
		s-1.3,1-2.2,1c-1,0-1.8-0.4-2.5-1.1s-1-1.8-1-3c0-1.4,0.4-2.5,1.1-3.2s1.6-1.2,2.7-1.2c0.9,0,1.6,0.3,2.2,0.9s0.9,1.4,0.9,2.4
		H283.6z M283.6,180.6h3.7c0-0.5-0.1-0.9-0.2-1.1c-0.1-0.3-0.4-0.6-0.7-0.8s-0.6-0.3-0.9-0.3c-0.5,0-0.9,0.2-1.3,0.6
		S283.6,179.9,283.6,180.6z"/>
	<path d="M291,178h7.2v0.3c-0.4,0-0.7,0-0.8,0.1s-0.2,0.2-0.3,0.3s-0.1,0.5-0.1,1.1v4.3c0,0.6,0,1,0.1,1.1s0.2,0.2,0.3,0.3
		s0.4,0.1,0.8,0.1v0.3h-4.2v-0.3c0.5,0,0.8,0,0.9-0.1s0.3-0.2,0.4-0.3s0.1-0.6,0.1-1.2v-5.6h-2.7v3.4c0,1.3-0.1,2.2-0.2,2.7
		s-0.3,0.9-0.7,1.2s-0.7,0.4-1.2,0.4c-0.8,0-1.1-0.3-1.1-0.9c0-0.2,0.1-0.4,0.2-0.5s0.3-0.2,0.5-0.2c0.2,0,0.4,0.1,0.6,0.3
		c0.2,0.2,0.4,0.3,0.5,0.3c0.3,0,0.5-0.2,0.6-0.7s0.2-1.2,0.2-2.3v-1.8c0-0.9-0.1-1.5-0.2-1.7s-0.5-0.3-1-0.4V178z"/>
	<path d="M301.7,181.6l1,0c2.4,0,3.6,0.7,3.6,2.2c0,0.7-0.3,1.2-0.9,1.6s-1.4,0.6-2.5,0.6H299v-0.3c0.5,0,0.9-0.1,1-0.3
		s0.2-0.6,0.2-1.3v-4.3c0-0.6,0-1-0.1-1.1s-0.2-0.2-0.3-0.3s-0.4-0.1-0.8-0.1V178h4.2v0.3c-0.6,0-0.9,0-1.1,0.1s-0.2,0.2-0.3,0.3
		s-0.1,0.5-0.1,1.2V181.6z M301.7,185.4c0.3,0.1,0.6,0.1,0.9,0.1c0.6,0,1.1-0.2,1.4-0.5s0.5-0.7,0.5-1.2c0-1.1-0.8-1.7-2.3-1.7
		c-0.1,0-0.3,0-0.6,0V185.4z"/>
</g>
</svg>
