<?xml version="1.0" encoding="UTF-8" standalone="no"?>
<!DOCTYPE svg PUBLIC "-//W3C//DTD SVG 1.1//EN" "http://www.w3.org/Graphics/SVG/1.1/DTD/svg11.dtd">
<svg xmlns="http://www.w3.org/2000/svg" version="1.1" viewBox="0.00 0.00 891.00 734.00">
<g stroke-width="2.00" fill="none" stroke-linecap="butt">
<path stroke="#808080" vector-effect="non-scaling-stroke" d="
  M 51.61 615.55
  Q 57.64 615.52 65.53 614.93
  Q 65.99 614.89 65.98 614.44
  L 65.97 614.05
  A 0.40 0.40 0.0 0 0 65.55 613.65
  L 42.05 614.75
  Q 41.00 614.80 41.95 615.25
  L 63.20 625.29
  A 0.38 0.37 -57.8 0 0 63.66 625.18
  L 63.83 624.95
  A 0.63 0.63 0.0 0 0 63.59 624.00
  L 49.98 617.54
  Q 49.03 617.09 50.06 617.30
  L 123.04 631.90
  A 0.42 0.41 6.1 0 1 123.37 632.30
  L 123.35 695.82
  Q 123.35 696.28 123.82 696.28
  L 766.23 696.28
  Q 766.73 696.28 766.73 695.78
  Q 766.64 669.87 766.70 635.51
  Q 767.19 369.61 766.92 139.25
  C 766.89 110.50 766.62 81.75 766.81 53.35
  A 0.52 0.52 0.0 0 0 766.29 52.82
  L 123.56 52.82
  A 0.26 0.25 90.0 0 0 123.31 53.08
  L 123.31 630.26
  A 0.27 0.27 0.0 0 1 122.99 630.53
  L 51.54 616.24
  Q 48.21 615.57 51.61 615.55"
/>
<path stroke="#808080" vector-effect="non-scaling-stroke" d="
  M 261.64 92.28
  Q 261.34 93.65 260.70 95.06
  Q 256.86 103.64 252.76 113.78
  Q 252.60 114.17 252.20 114.06
  L 251.79 113.95
  Q 251.24 113.80 251.47 113.27
  L 257.25 99.58
  Q 257.77 98.36 256.97 99.42
  L 220.31 148.32
  A 0.47 0.46 41.0 0 0 220.36 148.93
  L 243.94 172.52
  A 2.51 2.49 -22.3 0 0 245.71 173.25
  L 392.52 173.24
  A 0.94 0.93 15.0 0 0 393.33 172.78
  L 414.77 135.24
  Q 415.49 133.99 414.10 134.37
  Q 412.54 134.81 412.07 133.39
  Q 408.14 121.37 404.13 109.51
  A 0.39 0.38 80.6 0 1 404.49 109.00
  L 485.55 109.00
  A 0.41 0.40 -80.6 0 1 485.93 109.54
  L 477.79 133.95
  Q 477.61 134.47 477.06 134.47
  L 465.06 134.48
  Q 464.51 134.48 464.67 135.01
  L 476.47 172.94
  A 0.45 0.44 80.9 0 0 476.89 173.25
  L 644.24 173.25
  A 2.76 2.72 22.0 0 0 646.19 172.44
  Q 704.72 113.91 763.55 55.07
  Q 763.81 54.81 763.88 54.45
  Q 763.93 54.21 763.68 54.21
  L 126.70 54.21
  Q 125.67 54.21 126.40 54.93
  L 218.85 147.39
  A 0.33 0.33 0.0 0 0 219.35 147.36
  L 255.67 98.92
  Q 256.71 97.54 255.37 98.63
  L 244.08 107.85
  Q 243.65 108.20 243.33 107.74
  L 243.14 107.46
  Q 242.88 107.08 243.23 106.80
  L 261.30 92.07
  Q 261.78 91.67 261.64 92.28"
/>
<path stroke="#808080" vector-effect="non-scaling-stroke" d="
  M 162.73 454.26
  L 185.49 452.09
  Q 185.94 452.05 186.07 452.48
  L 186.16 452.76
  Q 186.35 453.36 185.73 453.42
  L 173.31 454.61
  Q 169.58 454.97 173.28 455.53
  L 243.08 466.00
  Q 243.75 466.10 243.75 465.42
  L 243.75 255.04
  A 0.70 0.69 -77.2 0 0 243.36 254.41
  L 171.16 218.30
  Q 168.75 217.09 170.81 218.83
  L 180.91 227.41
  Q 181.39 227.82 180.99 228.29
  L 180.78 228.54
  Q 180.52 228.85 180.21 228.59
  L 168.49 218.60
  Q 167.95 218.13 167.52 218.71
  L 164.99 222.08
  Q 164.51 222.72 164.00 222.11
  L 163.81 221.88
  A 0.37 0.37 0.0 0 1 163.80 221.43
  L 166.53 217.81
  Q 166.92 217.30 166.43 216.88
  L 162.57 213.60
  Q 161.78 212.92 162.81 213.07
  Q 165.26 213.42 167.82 214.24
  A 1.65 1.64 -62.4 0 0 169.64 213.66
  L 217.90 149.29
  Q 218.31 148.75 217.83 148.27
  L 125.16 55.58
  Q 124.75 55.17 124.75 55.75
  L 124.74 630.54
  A 0.43 0.42 5.9 0 0 125.08 630.95
  L 176.73 641.27
  A 1.10 1.10 0.0 0 0 177.73 640.97
  L 220.08 598.61
  Q 220.70 597.99 220.37 597.18
  Q 192.26 526.87 164.00 456.22
  C 163.72 455.54 163.25 455.14 162.62 454.80
  Q 161.78 454.35 162.73 454.26"
/>
<path stroke="#808080" vector-effect="non-scaling-stroke" d="
  M 765.27 55.51
  A 0.11 0.11 0.0 0 0 765.09 55.43
  L 647.10 173.45
  Q 646.33 174.23 646.33 175.32
  L 646.33 573.96
  A 2.39 2.39 0.0 0 0 647.03 575.65
  L 764.95 693.59
  A 0.17 0.17 0.0 0 0 765.25 693.47
  L 765.27 55.51"
/>
<path stroke="#808080" vector-effect="non-scaling-stroke" d="
  M 437.30 117.80
  A 0.42 0.41 -70.9 0 1 437.54 118.31
  L 433.04 132.76
  A 0.26 0.26 0.0 0 0 433.29 133.10
  L 462.15 133.10
  A 0.40 0.40 0.0 0 0 462.53 132.58
  L 460.60 126.48
  Q 460.40 125.86 461.04 125.76
  L 461.32 125.71
  Q 461.77 125.64 461.90 126.07
  L 463.89 132.51
  Q 464.07 133.12 464.71 133.12
  L 476.00 133.08
  A 0.95 0.95 0.0 0 0 476.90 132.44
  L 483.94 111.28
  A 0.69 0.69 0.0 0 0 483.28 110.37
  L 406.31 110.37
  A 0.33 0.32 -9.5 0 0 406.00 110.80
  L 413.02 131.94
  A 1.89 1.89 0.0 0 0 416.45 132.29
  L 420.20 125.76
  Q 420.39 125.43 420.75 125.58
  L 421.03 125.70
  Q 421.64 125.96 421.31 126.53
  L 417.80 132.63
  Q 417.52 133.12 418.08 133.12
  L 431.07 133.09
  Q 431.54 133.08 431.68 132.64
  L 436.24 117.95
  Q 436.41 117.43 436.91 117.64
  L 437.30 117.80"
/>
<path stroke="#808080" vector-effect="non-scaling-stroke" d="
  M 394.85 172.79
  A 0.32 0.32 0.0 0 0 395.13 173.27
  L 418.81 173.23
  A 0.32 0.32 0.0 0 0 419.12 173.01
  L 430.98 134.88
  A 0.32 0.32 0.0 0 0 430.67 134.46
  L 416.95 134.49
  A 0.32 0.32 0.0 0 0 416.67 134.65
  L 394.85 172.79"
/>
<path stroke="#808080" vector-effect="non-scaling-stroke" d="
  M 432.74 134.47
  A 0.30 0.30 0.0 0 0 432.45 134.68
  L 420.55 172.86
  A 0.30 0.30 0.0 0 0 420.84 173.25
  L 474.75 173.24
  A 0.30 0.30 0.0 0 0 475.04 172.85
  L 463.17 134.68
  A 0.30 0.30 0.0 0 0 462.88 134.47
  L 432.74 134.47"
/>
<path stroke="#808080" vector-effect="non-scaling-stroke" d="
  M 185.69 219.24
  A 0.39 0.38 20.9 0 1 185.26 219.43
  Q 177.98 217.77 171.31 216.38
  Q 169.60 216.02 171.17 216.80
  L 243.39 252.92
  Q 243.75 253.10 243.75 252.70
  L 243.75 175.52
  A 3.25 3.23 22.6 0 0 242.80 173.23
  L 219.55 149.97
  Q 219.27 149.70 219.04 150.01
  L 170.75 214.42
  Q 170.47 214.78 170.92 214.88
  L 185.39 218.09
  Q 186.20 218.27 185.81 219.00
  L 185.69 219.24"
/>
<path stroke="#808080" vector-effect="non-scaling-stroke" d="
  M 330.66 273.05
  Q 331.24 273.11 331.09 273.67
  L 327.05 288.23
  A 0.14 0.14 0.0 0 0 327.31 288.34
  L 392.03 175.04
  Q 392.30 174.58 391.77 174.58
  L 245.49 174.58
  A 0.43 0.43 0.0 0 0 245.06 175.01
  L 245.07 253.47
  A 0.46 0.44 -77.8 0 0 245.32 253.88
  L 323.57 293.01
  A 0.62 0.61 21.2 0 0 324.44 292.63
  L 329.80 273.28
  A 0.39 0.39 0.0 0 1 330.22 273.00
  L 330.66 273.05"
/>
<path stroke="#808080" vector-effect="non-scaling-stroke" d="
  M 323.61 295.59
  L 323.69 294.99
  Q 323.73 294.60 323.38 294.42
  L 245.50 255.48
  A 0.30 0.30 0.0 0 0 245.07 255.75
  L 245.07 465.84
  A 0.54 0.53 -85.6 0 0 245.52 466.37
  L 323.57 478.07
  A 0.42 0.41 5.6 0 0 324.05 477.68
  L 325.22 457.47
  Q 325.25 456.93 325.78 457.00
  L 326.23 457.06
  Q 326.60 457.10 326.58 457.47
  Q 326.13 465.27 325.60 473.11
  Q 325.60 473.12 325.61 473.12
  Q 325.61 473.14 325.63 473.13
  A 0.26 0.26 0.0 0 0 325.81 472.95
  Q 372.31 323.49 418.43 175.21
  Q 418.63 174.58 417.97 174.58
  L 394.45 174.58
  Q 393.84 174.58 393.54 175.10
  L 328.61 288.77
  Q 327.91 289.98 328.88 288.98
  L 339.37 278.15
  A 0.33 0.32 48.3 0 1 339.86 278.18
  L 340.10 278.50
  Q 340.43 278.93 340.06 279.32
  L 324.16 295.85
  Q 323.50 296.53 323.61 295.59"
/>
<path stroke="#808080" vector-effect="non-scaling-stroke" d="
  M 580.77 648.78
  L 580.78 626.04
  A 0.71 0.70 -2.7 0 1 581.42 625.34
  L 581.77 625.31
  A 0.36 0.36 0.0 0 1 582.16 625.67
  Q 582.10 632.22 582.15 638.91
  C 582.16 640.05 582.65 641.19 583.15 642.17
  Q 583.21 642.30 583.34 642.23
  L 583.34 642.23
  Q 583.47 642.17 583.40 642.04
  Q 582.54 640.34 583.04 638.35
  Q 585.36 629.20 587.54 620.47
  Q 587.74 619.65 587.11 620.20
  C 568.43 636.40 544.06 643.51 519.61 639.26
  C 482.05 632.73 454.08 601.03 452.32 562.98
  C 450.45 522.51 478.64 486.66 518.82 479.25
  C 536.74 475.94 555.77 478.87 571.60 487.50
  Q 573.60 488.58 572.43 486.63
  L 561.67 468.71
  Q 561.33 468.13 561.98 467.94
  L 562.30 467.84
  Q 562.64 467.74 562.82 468.05
  L 570.01 479.97
  Q 571.17 481.88 570.50 479.75
  L 475.76 175.18
  A 0.86 0.84 -8.2 0 0 474.94 174.58
  L 420.54 174.58
  A 0.68 0.68 0.0 0 0 419.89 175.06
  L 327.47 472.16
  Q 326.95 473.84 327.86 472.34
  L 335.18 460.18
  A 0.58 0.58 0.0 0 1 335.97 459.98
  L 336.20 460.11
  Q 336.68 460.39 336.38 460.86
  Q 331.07 469.42 326.18 477.85
  Q 325.40 479.21 324.43 480.52
  Q 323.96 481.15 323.87 480.36
  L 323.83 480.00
  Q 323.78 479.46 323.24 479.38
  L 245.58 467.73
  Q 245.07 467.65 245.07 468.17
  L 245.07 573.93
  Q 245.07 574.54 245.68 574.54
  L 298.29 574.54
  Q 299.01 574.54 298.71 573.88
  C 282.15 537.57 297.15 494.98 333.06 477.60
  C 369.63 459.90 413.95 475.59 430.86 512.52
  Q 444.60 542.54 430.93 574.03
  Q 430.70 574.54 431.26 574.54
  L 452.74 574.54
  Q 453.24 574.54 453.19 575.04
  L 453.16 575.32
  Q 453.09 575.92 452.48 575.92
  L 430.54 575.93
  Q 430.03 575.93 429.78 576.38
  Q 413.86 605.41 383.50 613.57
  C 352.01 622.03 318.66 608.44 301.86 579.86
  Q 300.88 578.18 299.88 576.42
  Q 299.60 575.92 299.03 575.92
  L 245.23 575.93
  Q 244.69 575.93 244.30 576.31
  L 222.64 597.98
  A 0.77 0.77 0.0 0 0 222.47 598.81
  L 242.11 647.94
  Q 242.98 650.11 242.66 647.79
  L 240.77 634.02
  Q 240.71 633.60 241.14 633.57
  L 241.56 633.54
  Q 242.04 633.50 242.11 633.98
  L 245.31 656.98
  Q 245.43 657.87 244.82 657.21
  Q 244.56 656.93 244.37 656.59
  A 1.28 1.25 79.7 0 0 243.54 656.00
  L 178.32 642.96
  A 1.05 1.03 27.8 0 0 177.38 643.24
  L 126.43 694.19
  Q 125.64 694.99 126.76 694.99
  L 763.46 694.99
  Q 764.43 694.99 763.74 694.30
  L 645.66 576.22
  Q 645.35 575.91 644.91 575.91
  L 614.06 575.93
  A 0.45 0.45 0.0 0 1 613.61 575.44
  L 613.64 575.13
  Q 613.69 574.54 614.29 574.54
  L 644.48 574.54
  Q 645.00 574.54 645.00 574.02
  L 645.00 175.16
  Q 645.00 174.58 644.41 174.58
  L 477.36 174.58
  A 0.28 0.28 0.0 0 0 477.09 174.94
  L 571.97 479.93
  Q 572.48 481.59 572.38 479.85
  L 571.54 465.50
  Q 571.51 465.01 572.00 465.01
  L 572.47 465.00
  A 0.44 0.44 0.0 0 1 572.91 465.42
  Q 573.43 475.51 574.03 485.50
  Q 574.13 487.09 574.53 488.61
  Q 574.66 489.13 575.13 489.41
  C 601.56 505.31 616.93 534.84 614.45 565.45
  Q 612.03 595.29 590.40 617.17
  Q 589.54 618.04 589.24 619.22
  Q 586.68 629.15 584.19 639.58
  Q 583.60 642.04 584.79 639.81
  L 590.93 628.25
  Q 591.26 627.64 591.87 627.95
  L 592.15 628.09
  A 0.32 0.31 -63.0 0 1 592.28 628.52
  L 581.48 648.96
  Q 580.77 650.29 580.77 648.78"
/>
<path stroke="#808080" vector-effect="non-scaling-stroke" d="
  M 171.32 456.84
  Q 171.71 457.16 172.12 457.34
  Q 177.90 459.82 184.40 462.46
  A 0.41 0.41 0.0 0 1 184.60 463.03
  L 184.43 463.34
  Q 184.17 463.82 183.68 463.61
  L 166.14 456.39
  Q 165.38 456.07 165.69 456.84
  L 221.57 596.56
  Q 221.73 596.97 222.04 596.66
  L 243.24 575.44
  Q 243.75 574.93 243.75 574.21
  L 243.75 468.05
  A 0.69 0.69 0.0 0 0 243.17 467.37
  L 171.75 456.65
  A 1.43 1.39 67.0 0 1 171.08 456.37
  Q 170.55 455.96 170.06 456.22
  Q 169.44 456.54 170.13 456.64
  Q 170.30 456.67 170.48 456.63
  Q 170.96 456.53 171.32 456.84"
/>
<path stroke="#808080" vector-effect="non-scaling-stroke" d="
  M 436.34 543.17
  A 71.53 71.53 0.0 0 0 364.81 471.64
  A 71.53 71.53 0.0 0 0 293.28 543.17
  A 71.53 71.53 0.0 0 0 364.81 614.70
  A 71.53 71.53 0.0 0 0 436.34 543.17"
/>
<path stroke="#808080" vector-effect="non-scaling-stroke" d="
  M 581.78 594.77
  A 0.43 0.43 0.0 0 1 582.28 595.03
  L 587.51 608.52
  Q 587.92 609.58 587.84 608.45
  Q 587.72 606.63 587.49 604.79
  Q 580.35 547.55 573.20 490.43
  A 1.30 1.29 11.0 0 0 572.53 489.45
  C 534.42 468.58 487.40 480.88 465.01 518.03
  C 441.97 556.24 454.72 605.25 492.90 628.02
  Q 506.56 636.17 521.67 638.22
  Q 558.45 643.22 587.11 618.51
  Q 589.24 616.67 588.29 614.19
  Q 584.94 605.44 581.03 595.67
  A 0.61 0.61 0.0 0 1 581.45 594.85
  L 581.78 594.77"
/>
<path stroke="#808080" vector-effect="non-scaling-stroke" d="
  M 592.28 593.40
  A 0.61 0.60 -81.1 0 1 592.76 594.06
  L 590.25 614.72
  Q 590.14 615.62 590.76 614.96
  C 614.06 590.14 619.97 555.63 605.57 524.86
  Q 595.88 504.15 575.04 490.87
  Q 574.57 490.57 574.64 491.12
  L 589.34 608.77
  A 0.13 0.13 0.0 0 0 589.59 608.77
  L 591.47 593.69
  A 0.42 0.42 0.0 0 1 591.98 593.33
  L 592.28 593.40"
/>
<path stroke="#808080" vector-effect="non-scaling-stroke" d="
  M 231.63 637.62
  Q 232.13 637.27 232.49 637.77
  L 240.01 648.22
  Q 241.75 650.65 240.64 647.88
  L 221.49 599.97
  Q 221.25 599.37 220.79 599.83
  L 179.32 641.30
  A 0.32 0.31 28.4 0 0 179.48 641.83
  L 242.05 654.35
  Q 242.88 654.51 242.39 653.83
  L 231.28 638.42
  Q 231.02 638.05 231.39 637.79
  L 231.63 637.62"
/>
<path stroke="#808080" vector-effect="non-scaling-stroke" d="
  M 124.72 693.23
  A 0.31 0.31 0.0 0 0 125.25 693.45
  L 175.76 642.94
  A 0.31 0.31 0.0 0 0 175.60 642.42
  L 125.11 632.31
  A 0.31 0.31 0.0 0 0 124.74 632.62
  L 124.72 693.23"
/>
<path stroke="#808080" vector-effect="non-scaling-stroke" d="
  M 330.47 258.52
  L 330.44 259.46
  A 0.52 0.51 1.1 0 0 330.96 259.99
  L 332.76 260.00
  A 0.45 0.45 0.0 0 0 333.21 259.54
  Q 333.00 254.37 333.19 248.52
  C 333.43 240.93 325.13 241.26 320.26 242.99
  Q 319.88 243.13 319.88 243.53
  L 319.86 245.49
  Q 319.85 245.98 320.32 245.83
  Q 323.24 244.83 327.24 245.00
  Q 329.21 245.09 329.90 246.93
  L 330.03 247.29
  Q 330.70 249.08 328.78 249.00
  C 326.11 248.88 323.31 248.83 320.93 250.21
  C 318.03 251.89 317.51 256.16 319.74 258.40
  Q 321.86 260.54 325.64 259.90
  C 327.18 259.64 328.43 258.79 329.79 258.09
  Q 330.49 257.73 330.47 258.52"
/>
<path stroke="#808080" vector-effect="non-scaling-stroke" d="
  M 519.90 234.51
  Q 519.16 234.27 519.85 233.91
  C 524.10 231.67 522.94 227.25 518.53 226.40
  Q 514.04 225.52 508.49 226.37
  Q 507.90 226.46 507.90 227.05
  L 507.93 242.99
  Q 507.93 243.57 508.50 243.65
  C 512.22 244.18 521.52 244.90 522.98 240.18
  Q 524.31 235.91 519.90 234.51"
/>
<path stroke="#808080" vector-effect="non-scaling-stroke" d="
  M 408.21 282.17
  Q 409.22 274.52 418.15 274.82
  Q 419.69 274.87 419.44 273.36
  Q 419.40 273.13 419.50 272.91
  Q 420.00 271.68 418.68 271.70
  C 413.00 271.80 407.69 273.26 406.12 279.27
  Q 404.46 285.65 405.93 291.33
  C 407.98 299.19 418.25 298.65 420.78 291.62
  C 423.61 283.76 416.10 275.55 408.88 282.51
  Q 408.06 283.29 408.21 282.17"
/>
<path stroke="#808080" vector-effect="non-scaling-stroke" d="
  M 510.97 229.56
  L 510.99 232.48
  A 0.55 0.55 0.0 0 0 511.54 233.02
  L 515.57 233.01
  A 4.06 1.89 -0.2 0 0 519.62 231.10
  L 519.62 230.86
  A 4.06 1.89 -0.2 0 0 515.55 228.99
  L 511.52 229.00
  A 0.55 0.55 0.0 0 0 510.97 229.56"
/>
<path stroke="#808080" vector-effect="non-scaling-stroke" d="
  M 510.98 236.66
  L 510.98 240.32
  A 0.68 0.68 0.0 0 0 511.66 241.00
  L 515.60 241.01
  A 4.40 2.30 0.1 0 0 520.00 238.72
  L 520.00 238.30
  A 4.40 2.30 0.1 0 0 515.60 235.99
  L 511.66 235.98
  A 0.68 0.68 0.0 0 0 510.98 236.66"
/>
<path stroke="#808080" vector-effect="non-scaling-stroke" d="
  M 322.87 256.57
  C 325.12 257.81 327.51 256.39 329.47 255.24
  Q 329.88 255.00 330.03 254.54
  Q 330.35 253.52 330.10 252.45
  Q 330.01 252.05 329.60 252.03
  C 327.33 251.92 323.37 251.37 322.06 253.68
  A 2.12 2.11 -60.8 0 0 322.87 256.57"
/>
<path stroke="#808080" vector-effect="non-scaling-stroke" d="
  M 412.21 293.96
  C 421.05 295.15 419.39 280.81 412.70 283.15
  Q 405.83 285.56 409.50 292.15
  Q 410.37 293.71 412.21 293.96"
/>
</g>
<path fill="#ffffff" d="
  M 0.00 0.00
  L 891.00 0.00
  L 891.00 734.00
  L 0.00 734.00
  L 0.00 0.00
  Z
  M 51.61 615.55
  Q 57.64 615.52 65.53 614.93
  Q 65.99 614.89 65.98 614.44
  L 65.97 614.05
  A 0.40 0.40 0.0 0 0 65.55 613.65
  L 42.05 614.75
  Q 41.00 614.80 41.95 615.25
  L 63.20 625.29
  A 0.38 0.37 -57.8 0 0 63.66 625.18
  L 63.83 624.95
  A 0.63 0.63 0.0 0 0 63.59 624.00
  L 49.98 617.54
  Q 49.03 617.09 50.06 617.30
  L 123.04 631.90
  A 0.42 0.41 6.1 0 1 123.37 632.30
  L 123.35 695.82
  Q 123.35 696.28 123.82 696.28
  L 766.23 696.28
  Q 766.73 696.28 766.73 695.78
  Q 766.64 669.87 766.70 635.51
  Q 767.19 369.61 766.92 139.25
  C 766.89 110.50 766.62 81.75 766.81 53.35
  A 0.52 0.52 0.0 0 0 766.29 52.82
  L 123.56 52.82
  A 0.26 0.25 90.0 0 0 123.31 53.08
  L 123.31 630.26
  A 0.27 0.27 0.0 0 1 122.99 630.53
  L 51.54 616.24
  Q 48.21 615.57 51.61 615.55
  Z"
/>
<path fill="#000001" d="
  M 51.61 615.55
  Q 48.21 615.57 51.54 616.24
  L 122.99 630.53
  A 0.27 0.27 0.0 0 0 123.31 630.26
  L 123.31 53.08
  A 0.26 0.25 -90.0 0 1 123.56 52.82
  L 766.29 52.82
  A 0.52 0.52 0.0 0 1 766.81 53.35
  C 766.62 81.75 766.89 110.50 766.92 139.25
  Q 767.19 369.61 766.70 635.51
  Q 766.64 669.87 766.73 695.78
  Q 766.73 696.28 766.23 696.28
  L 123.82 696.28
  Q 123.35 696.28 123.35 695.82
  L 123.37 632.30
  A 0.42 0.41 6.1 0 0 123.04 631.90
  L 50.06 617.30
  Q 49.03 617.09 49.98 617.54
  L 63.59 624.00
  A 0.63 0.63 0.0 0 1 63.83 624.95
  L 63.66 625.18
  A 0.38 0.37 -57.8 0 1 63.20 625.29
  L 41.95 615.25
  Q 41.00 614.80 42.05 614.75
  L 65.55 613.65
  A 0.40 0.40 0.0 0 1 65.97 614.05
  L 65.98 614.44
  Q 65.99 614.89 65.53 614.93
  Q 57.64 615.52 51.61 615.55
  Z
  M 261.64 92.28
  Q 261.34 93.65 260.70 95.06
  Q 256.86 103.64 252.76 113.78
  Q 252.60 114.17 252.20 114.06
  L 251.79 113.95
  Q 251.24 113.80 251.47 113.27
  L 257.25 99.58
  Q 257.77 98.36 256.97 99.42
  L 220.31 148.32
  A 0.47 0.46 41.0 0 0 220.36 148.93
  L 243.94 172.52
  A 2.51 2.49 -22.3 0 0 245.71 173.25
  L 392.52 173.24
  A 0.94 0.93 15.0 0 0 393.33 172.78
  L 414.77 135.24
  Q 415.49 133.99 414.10 134.37
  Q 412.54 134.81 412.07 133.39
  Q 408.14 121.37 404.13 109.51
  A 0.39 0.38 80.6 0 1 404.49 109.00
  L 485.55 109.00
  A 0.41 0.40 -80.6 0 1 485.93 109.54
  L 477.79 133.95
  Q 477.61 134.47 477.06 134.47
  L 465.06 134.48
  Q 464.51 134.48 464.67 135.01
  L 476.47 172.94
  A 0.45 0.44 80.9 0 0 476.89 173.25
  L 644.24 173.25
  A 2.76 2.72 22.0 0 0 646.19 172.44
  Q 704.72 113.91 763.55 55.07
  Q 763.81 54.81 763.88 54.45
  Q 763.93 54.21 763.68 54.21
  L 126.70 54.21
  Q 125.67 54.21 126.40 54.93
  L 218.85 147.39
  A 0.33 0.33 0.0 0 0 219.35 147.36
  L 255.67 98.92
  Q 256.71 97.54 255.37 98.63
  L 244.08 107.85
  Q 243.65 108.20 243.33 107.74
  L 243.14 107.46
  Q 242.88 107.08 243.23 106.80
  L 261.30 92.07
  Q 261.78 91.67 261.64 92.28
  Z
  M 162.73 454.26
  L 185.49 452.09
  Q 185.94 452.05 186.07 452.48
  L 186.16 452.76
  Q 186.35 453.36 185.73 453.42
  L 173.31 454.61
  Q 169.58 454.97 173.28 455.53
  L 243.08 466.00
  Q 243.75 466.10 243.75 465.42
  L 243.75 255.04
  A 0.70 0.69 -77.2 0 0 243.36 254.41
  L 171.16 218.30
  Q 168.75 217.09 170.81 218.83
  L 180.91 227.41
  Q 181.39 227.82 180.99 228.29
  L 180.78 228.54
  Q 180.52 228.85 180.21 228.59
  L 168.49 218.60
  Q 167.95 218.13 167.52 218.71
  L 164.99 222.08
  Q 164.51 222.72 164.00 222.11
  L 163.81 221.88
  A 0.37 0.37 0.0 0 1 163.80 221.43
  L 166.53 217.81
  Q 166.92 217.30 166.43 216.88
  L 162.57 213.60
  Q 161.78 212.92 162.81 213.07
  Q 165.26 213.42 167.82 214.24
  A 1.65 1.64 -62.4 0 0 169.64 213.66
  L 217.90 149.29
  Q 218.31 148.75 217.83 148.27
  L 125.16 55.58
  Q 124.75 55.17 124.75 55.75
  L 124.74 630.54
  A 0.43 0.42 5.9 0 0 125.08 630.95
  L 176.73 641.27
  A 1.10 1.10 0.0 0 0 177.73 640.97
  L 220.08 598.61
  Q 220.70 597.99 220.37 597.18
  Q 192.26 526.87 164.00 456.22
  C 163.72 455.54 163.25 455.14 162.62 454.80
  Q 161.78 454.35 162.73 454.26
  Z
  M 765.27 55.51
  A 0.11 0.11 0.0 0 0 765.09 55.43
  L 647.10 173.45
  Q 646.33 174.23 646.33 175.32
  L 646.33 573.96
  A 2.39 2.39 0.0 0 0 647.03 575.65
  L 764.95 693.59
  A 0.17 0.17 0.0 0 0 765.25 693.47
  L 765.27 55.51
  Z
  M 437.30 117.80
  A 0.42 0.41 -70.9 0 1 437.54 118.31
  L 433.04 132.76
  A 0.26 0.26 0.0 0 0 433.29 133.10
  L 462.15 133.10
  A 0.40 0.40 0.0 0 0 462.53 132.58
  L 460.60 126.48
  Q 460.40 125.86 461.04 125.76
  L 461.32 125.71
  Q 461.77 125.64 461.90 126.07
  L 463.89 132.51
  Q 464.07 133.12 464.71 133.12
  L 476.00 133.08
  A 0.95 0.95 0.0 0 0 476.90 132.44
  L 483.94 111.28
  A 0.69 0.69 0.0 0 0 483.28 110.37
  L 406.31 110.37
  A 0.33 0.32 -9.5 0 0 406.00 110.80
  L 413.02 131.94
  A 1.89 1.89 0.0 0 0 416.45 132.29
  L 420.20 125.76
  Q 420.39 125.43 420.75 125.58
  L 421.03 125.70
  Q 421.64 125.96 421.31 126.53
  L 417.80 132.63
  Q 417.52 133.12 418.08 133.12
  L 431.07 133.09
  Q 431.54 133.08 431.68 132.64
  L 436.24 117.95
  Q 436.41 117.43 436.91 117.64
  L 437.30 117.80
  Z
  M 394.85 172.79
  A 0.32 0.32 0.0 0 0 395.13 173.27
  L 418.81 173.23
  A 0.32 0.32 0.0 0 0 419.12 173.01
  L 430.98 134.88
  A 0.32 0.32 0.0 0 0 430.67 134.46
  L 416.95 134.49
  A 0.32 0.32 0.0 0 0 416.67 134.65
  L 394.85 172.79
  Z
  M 432.74 134.47
  A 0.30 0.30 0.0 0 0 432.45 134.68
  L 420.55 172.86
  A 0.30 0.30 0.0 0 0 420.84 173.25
  L 474.75 173.24
  A 0.30 0.30 0.0 0 0 475.04 172.85
  L 463.17 134.68
  A 0.30 0.30 0.0 0 0 462.88 134.47
  L 432.74 134.47
  Z
  M 185.69 219.24
  A 0.39 0.38 20.9 0 1 185.26 219.43
  Q 177.98 217.77 171.31 216.38
  Q 169.60 216.02 171.17 216.80
  L 243.39 252.92
  Q 243.75 253.10 243.75 252.70
  L 243.75 175.52
  A 3.25 3.23 22.6 0 0 242.80 173.23
  L 219.55 149.97
  Q 219.27 149.70 219.04 150.01
  L 170.75 214.42
  Q 170.47 214.78 170.92 214.88
  L 185.39 218.09
  Q 186.20 218.27 185.81 219.00
  L 185.69 219.24
  Z
  M 330.66 273.05
  Q 331.24 273.11 331.09 273.67
  L 327.05 288.23
  A 0.14 0.14 0.0 0 0 327.31 288.34
  L 392.03 175.04
  Q 392.30 174.58 391.77 174.58
  L 245.49 174.58
  A 0.43 0.43 0.0 0 0 245.06 175.01
  L 245.07 253.47
  A 0.46 0.44 -77.8 0 0 245.32 253.88
  L 323.57 293.01
  A 0.62 0.61 21.2 0 0 324.44 292.63
  L 329.80 273.28
  A 0.39 0.39 0.0 0 1 330.22 273.00
  L 330.66 273.05
  Z
  M 323.61 295.59
  L 323.69 294.99
  Q 323.73 294.60 323.38 294.42
  L 245.50 255.48
  A 0.30 0.30 0.0 0 0 245.07 255.75
  L 245.07 465.84
  A 0.54 0.53 -85.6 0 0 245.52 466.37
  L 323.57 478.07
  A 0.42 0.41 5.6 0 0 324.05 477.68
  L 325.22 457.47
  Q 325.25 456.93 325.78 457.00
  L 326.23 457.06
  Q 326.60 457.10 326.58 457.47
  Q 326.13 465.27 325.60 473.11
  Q 325.60 473.12 325.61 473.12
  Q 325.61 473.14 325.63 473.13
  A 0.26 0.26 0.0 0 0 325.81 472.95
  Q 372.31 323.49 418.43 175.21
  Q 418.63 174.58 417.97 174.58
  L 394.45 174.58
  Q 393.84 174.58 393.54 175.10
  L 328.61 288.77
  Q 327.91 289.98 328.88 288.98
  L 339.37 278.15
  A 0.33 0.32 48.3 0 1 339.86 278.18
  L 340.10 278.50
  Q 340.43 278.93 340.06 279.32
  L 324.16 295.85
  Q 323.50 296.53 323.61 295.59
  Z
  M 580.77 648.78
  L 580.78 626.04
  A 0.71 0.70 -2.7 0 1 581.42 625.34
  L 581.77 625.31
  A 0.36 0.36 0.0 0 1 582.16 625.67
  Q 582.10 632.22 582.15 638.91
  C 582.16 640.05 582.65 641.19 583.15 642.17
  Q 583.21 642.30 583.34 642.23
  L 583.34 642.23
  Q 583.47 642.17 583.40 642.04
  Q 582.54 640.34 583.04 638.35
  Q 585.36 629.20 587.54 620.47
  Q 587.74 619.65 587.11 620.20
  C 568.43 636.40 544.06 643.51 519.61 639.26
  C 482.05 632.73 454.08 601.03 452.32 562.98
  C 450.45 522.51 478.64 486.66 518.82 479.25
  C 536.74 475.94 555.77 478.87 571.60 487.50
  Q 573.60 488.58 572.43 486.63
  L 561.67 468.71
  Q 561.33 468.13 561.98 467.94
  L 562.30 467.84
  Q 562.64 467.74 562.82 468.05
  L 570.01 479.97
  Q 571.17 481.88 570.50 479.75
  L 475.76 175.18
  A 0.86 0.84 -8.2 0 0 474.94 174.58
  L 420.54 174.58
  A 0.68 0.68 0.0 0 0 419.89 175.06
  L 327.47 472.16
  Q 326.95 473.84 327.86 472.34
  L 335.18 460.18
  A 0.58 0.58 0.0 0 1 335.97 459.98
  L 336.20 460.11
  Q 336.68 460.39 336.38 460.86
  Q 331.07 469.42 326.18 477.85
  Q 325.40 479.21 324.43 480.52
  Q 323.96 481.15 323.87 480.36
  L 323.83 480.00
  Q 323.78 479.46 323.24 479.38
  L 245.58 467.73
  Q 245.07 467.65 245.07 468.17
  L 245.07 573.93
  Q 245.07 574.54 245.68 574.54
  L 298.29 574.54
  Q 299.01 574.54 298.71 573.88
  C 282.15 537.57 297.15 494.98 333.06 477.60
  C 369.63 459.90 413.95 475.59 430.86 512.52
  Q 444.60 542.54 430.93 574.03
  Q 430.70 574.54 431.26 574.54
  L 452.74 574.54
  Q 453.24 574.54 453.19 575.04
  L 453.16 575.32
  Q 453.09 575.92 452.48 575.92
  L 430.54 575.93
  Q 430.03 575.93 429.78 576.38
  Q 413.86 605.41 383.50 613.57
  C 352.01 622.03 318.66 608.44 301.86 579.86
  Q 300.88 578.18 299.88 576.42
  Q 299.60 575.92 299.03 575.92
  L 245.23 575.93
  Q 244.69 575.93 244.30 576.31
  L 222.64 597.98
  A 0.77 0.77 0.0 0 0 222.47 598.81
  L 242.11 647.94
  Q 242.98 650.11 242.66 647.79
  L 240.77 634.02
  Q 240.71 633.60 241.14 633.57
  L 241.56 633.54
  Q 242.04 633.50 242.11 633.98
  L 245.31 656.98
  Q 245.43 657.87 244.82 657.21
  Q 244.56 656.93 244.37 656.59
  A 1.28 1.25 79.7 0 0 243.54 656.00
  L 178.32 642.96
  A 1.05 1.03 27.8 0 0 177.38 643.24
  L 126.43 694.19
  Q 125.64 694.99 126.76 694.99
  L 763.46 694.99
  Q 764.43 694.99 763.74 694.30
  L 645.66 576.22
  Q 645.35 575.91 644.91 575.91
  L 614.06 575.93
  A 0.45 0.45 0.0 0 1 613.61 575.44
  L 613.64 575.13
  Q 613.69 574.54 614.29 574.54
  L 644.48 574.54
  Q 645.00 574.54 645.00 574.02
  L 645.00 175.16
  Q 645.00 174.58 644.41 174.58
  L 477.36 174.58
  A 0.28 0.28 0.0 0 0 477.09 174.94
  L 571.97 479.93
  Q 572.48 481.59 572.38 479.85
  L 571.54 465.50
  Q 571.51 465.01 572.00 465.01
  L 572.47 465.00
  A 0.44 0.44 0.0 0 1 572.91 465.42
  Q 573.43 475.51 574.03 485.50
  Q 574.13 487.09 574.53 488.61
  Q 574.66 489.13 575.13 489.41
  C 601.56 505.31 616.93 534.84 614.45 565.45
  Q 612.03 595.29 590.40 617.17
  Q 589.54 618.04 589.24 619.22
  Q 586.68 629.15 584.19 639.58
  Q 583.60 642.04 584.79 639.81
  L 590.93 628.25
  Q 591.26 627.64 591.87 627.95
  L 592.15 628.09
  A 0.32 0.31 -63.0 0 1 592.28 628.52
  L 581.48 648.96
  Q 580.77 650.29 580.77 648.78
  Z
  M 171.32 456.84
  Q 171.71 457.16 172.12 457.34
  Q 177.90 459.82 184.40 462.46
  A 0.41 0.41 0.0 0 1 184.60 463.03
  L 184.43 463.34
  Q 184.17 463.82 183.68 463.61
  L 166.14 456.39
  Q 165.38 456.07 165.69 456.84
  L 221.57 596.56
  Q 221.73 596.97 222.04 596.66
  L 243.24 575.44
  Q 243.75 574.93 243.75 574.21
  L 243.75 468.05
  A 0.69 0.69 0.0 0 0 243.17 467.37
  L 171.75 456.65
  A 1.43 1.39 67.0 0 1 171.08 456.37
  Q 170.55 455.96 170.06 456.22
  Q 169.44 456.54 170.13 456.64
  Q 170.30 456.67 170.48 456.63
  Q 170.96 456.53 171.32 456.84
  Z
  M 436.34 543.17
  A 71.53 71.53 0.0 0 0 364.81 471.64
  A 71.53 71.53 0.0 0 0 293.28 543.17
  A 71.53 71.53 0.0 0 0 364.81 614.70
  A 71.53 71.53 0.0 0 0 436.34 543.17
  Z
  M 581.78 594.77
  A 0.43 0.43 0.0 0 1 582.28 595.03
  L 587.51 608.52
  Q 587.92 609.58 587.84 608.45
  Q 587.72 606.63 587.49 604.79
  Q 580.35 547.55 573.20 490.43
  A 1.30 1.29 11.0 0 0 572.53 489.45
  C 534.42 468.58 487.40 480.88 465.01 518.03
  C 441.97 556.24 454.72 605.25 492.90 628.02
  Q 506.56 636.17 521.67 638.22
  Q 558.45 643.22 587.11 618.51
  Q 589.24 616.67 588.29 614.19
  Q 584.94 605.44 581.03 595.67
  A 0.61 0.61 0.0 0 1 581.45 594.85
  L 581.78 594.77
  Z
  M 592.28 593.40
  A 0.61 0.60 -81.1 0 1 592.76 594.06
  L 590.25 614.72
  Q 590.14 615.62 590.76 614.96
  C 614.06 590.14 619.97 555.63 605.57 524.86
  Q 595.88 504.15 575.04 490.87
  Q 574.57 490.57 574.64 491.12
  L 589.34 608.77
  A 0.13 0.13 0.0 0 0 589.59 608.77
  L 591.47 593.69
  A 0.42 0.42 0.0 0 1 591.98 593.33
  L 592.28 593.40
  Z
  M 231.63 637.62
  Q 232.13 637.27 232.49 637.77
  L 240.01 648.22
  Q 241.75 650.65 240.64 647.88
  L 221.49 599.97
  Q 221.25 599.37 220.79 599.83
  L 179.32 641.30
  A 0.32 0.31 28.4 0 0 179.48 641.83
  L 242.05 654.35
  Q 242.88 654.51 242.39 653.83
  L 231.28 638.42
  Q 231.02 638.05 231.39 637.79
  L 231.63 637.62
  Z
  M 124.72 693.23
  A 0.31 0.31 0.0 0 0 125.25 693.45
  L 175.76 642.94
  A 0.31 0.31 0.0 0 0 175.60 642.42
  L 125.11 632.31
  A 0.31 0.31 0.0 0 0 124.74 632.62
  L 124.72 693.23
  Z"
/>
<path fill="#ffffff" d="
  M 261.64 92.28
  Q 261.78 91.67 261.30 92.07
  L 243.23 106.80
  Q 242.88 107.08 243.14 107.46
  L 243.33 107.74
  Q 243.65 108.20 244.08 107.85
  L 255.37 98.63
  Q 256.71 97.54 255.67 98.92
  L 219.35 147.36
  A 0.33 0.33 0.0 0 1 218.85 147.39
  L 126.40 54.93
  Q 125.67 54.21 126.70 54.21
  L 763.68 54.21
  Q 763.93 54.21 763.88 54.45
  Q 763.81 54.81 763.55 55.07
  Q 704.72 113.91 646.19 172.44
  A 2.76 2.72 22.0 0 1 644.24 173.25
  L 476.89 173.25
  A 0.45 0.44 80.9 0 1 476.47 172.94
  L 464.67 135.01
  Q 464.51 134.48 465.06 134.48
  L 477.06 134.47
  Q 477.61 134.47 477.79 133.95
  L 485.93 109.54
  A 0.41 0.40 -80.6 0 0 485.55 109.00
  L 404.49 109.00
  A 0.39 0.38 80.6 0 0 404.13 109.51
  Q 408.14 121.37 412.07 133.39
  Q 412.54 134.81 414.10 134.37
  Q 415.49 133.99 414.77 135.24
  L 393.33 172.78
  A 0.94 0.93 15.0 0 1 392.52 173.24
  L 245.71 173.25
  A 2.51 2.49 -22.3 0 1 243.94 172.52
  L 220.36 148.93
  A 0.47 0.46 41.0 0 1 220.31 148.32
  L 256.97 99.42
  Q 257.77 98.36 257.25 99.58
  L 251.47 113.27
  Q 251.24 113.80 251.79 113.95
  L 252.20 114.06
  Q 252.60 114.17 252.76 113.78
  Q 256.86 103.64 260.70 95.06
  Q 261.34 93.65 261.64 92.28
  Z"
/>
<path fill="#ffffff" d="
  M 162.62 454.80
  C 163.25 455.14 163.72 455.54 164.00 456.22
  Q 192.26 526.87 220.37 597.18
  Q 220.70 597.99 220.08 598.61
  L 177.73 640.97
  A 1.10 1.10 0.0 0 1 176.73 641.27
  L 125.08 630.95
  A 0.43 0.42 5.9 0 1 124.74 630.54
  L 124.75 55.75
  Q 124.75 55.17 125.16 55.58
  L 217.83 148.27
  Q 218.31 148.75 217.90 149.29
  L 169.64 213.66
  A 1.65 1.64 -62.4 0 1 167.82 214.24
  Q 165.26 213.42 162.81 213.07
  Q 161.78 212.92 162.57 213.60
  L 166.43 216.88
  Q 166.92 217.30 166.53 217.81
  L 163.80 221.43
  A 0.37 0.37 0.0 0 0 163.81 221.88
  L 164.00 222.11
  Q 164.51 222.72 164.99 222.08
  L 167.52 218.71
  Q 167.95 218.13 168.49 218.60
  L 180.21 228.59
  Q 180.52 228.85 180.78 228.54
  L 180.99 228.29
  Q 181.39 227.82 180.91 227.41
  L 170.81 218.83
  Q 168.75 217.09 171.16 218.30
  L 243.36 254.41
  A 0.70 0.69 -77.2 0 1 243.75 255.04
  L 243.75 465.42
  Q 243.75 466.10 243.08 466.00
  L 173.28 455.53
  Q 169.58 454.97 173.31 454.61
  L 185.73 453.42
  Q 186.35 453.36 186.16 452.76
  L 186.07 452.48
  Q 185.94 452.05 185.49 452.09
  L 162.73 454.26
  Q 161.78 454.35 162.62 454.80
  Z"
/>
<path fill="#ffffff" d="
  M 765.27 55.51
  L 765.25 693.47
  A 0.17 0.17 0.0 0 1 764.95 693.59
  L 647.03 575.65
  A 2.39 2.39 0.0 0 1 646.33 573.96
  L 646.33 175.32
  Q 646.33 174.23 647.10 173.45
  L 765.09 55.43
  A 0.11 0.11 0.0 0 1 765.27 55.51
  Z"
/>
<path fill="#ffffff" d="
  M 437.30 117.80
  L 436.91 117.64
  Q 436.41 117.43 436.24 117.95
  L 431.68 132.64
  Q 431.54 133.08 431.07 133.09
  L 418.08 133.12
  Q 417.52 133.12 417.80 132.63
  L 421.31 126.53
  Q 421.64 125.96 421.03 125.70
  L 420.75 125.58
  Q 420.39 125.43 420.20 125.76
  L 416.45 132.29
  A 1.89 1.89 0.0 0 1 413.02 131.94
  L 406.00 110.80
  A 0.33 0.32 -9.5 0 1 406.31 110.37
  L 483.28 110.37
  A 0.69 0.69 0.0 0 1 483.94 111.28
  L 476.90 132.44
  A 0.95 0.95 0.0 0 1 476.00 133.08
  L 464.71 133.12
  Q 464.07 133.12 463.89 132.51
  L 461.90 126.07
  Q 461.77 125.64 461.32 125.71
  L 461.04 125.76
  Q 460.40 125.86 460.60 126.48
  L 462.53 132.58
  A 0.40 0.40 0.0 0 1 462.15 133.10
  L 433.29 133.10
  A 0.26 0.26 0.0 0 1 433.04 132.76
  L 437.54 118.31
  A 0.42 0.41 -70.9 0 0 437.30 117.80
  Z"
/>
<path fill="#ffffff" d="
  M 394.85 172.79
  L 416.67 134.65
  A 0.32 0.32 0.0 0 1 416.95 134.49
  L 430.67 134.46
  A 0.32 0.32 0.0 0 1 430.98 134.88
  L 419.12 173.01
  A 0.32 0.32 0.0 0 1 418.81 173.23
  L 395.13 173.27
  A 0.32 0.32 0.0 0 1 394.85 172.79
  Z"
/>
<path fill="#ffffff" d="
  M 432.74 134.47
  L 462.88 134.47
  A 0.30 0.30 0.0 0 1 463.17 134.68
  L 475.04 172.85
  A 0.30 0.30 0.0 0 1 474.75 173.24
  L 420.84 173.25
  A 0.30 0.30 0.0 0 1 420.55 172.86
  L 432.45 134.68
  A 0.30 0.30 0.0 0 1 432.74 134.47
  Z"
/>
<path fill="#ffffff" d="
  M 185.69 219.24
  L 185.81 219.00
  Q 186.20 218.27 185.39 218.09
  L 170.92 214.88
  Q 170.47 214.78 170.75 214.42
  L 219.04 150.01
  Q 219.27 149.70 219.55 149.97
  L 242.80 173.23
  A 3.25 3.23 22.6 0 1 243.75 175.52
  L 243.75 252.70
  Q 243.75 253.10 243.39 252.92
  L 171.17 216.80
  Q 169.60 216.02 171.31 216.38
  Q 177.98 217.77 185.26 219.43
  A 0.39 0.38 20.9 0 0 185.69 219.24
  Z"
/>
<path fill="#ffffff" d="
  M 329.80 273.28
  L 324.44 292.63
  A 0.62 0.61 21.2 0 1 323.57 293.01
  L 245.32 253.88
  A 0.46 0.44 -77.8 0 1 245.07 253.47
  L 245.06 175.01
  A 0.43 0.43 0.0 0 1 245.49 174.58
  L 391.77 174.58
  Q 392.30 174.58 392.03 175.04
  L 327.31 288.34
  A 0.14 0.14 0.0 0 1 327.05 288.23
  L 331.09 273.67
  Q 331.24 273.11 330.66 273.05
  L 330.22 273.00
  A 0.39 0.39 0.0 0 0 329.80 273.28
  Z
  M 330.47 258.52
  L 330.44 259.46
  A 0.52 0.51 1.1 0 0 330.96 259.99
  L 332.76 260.00
  A 0.45 0.45 0.0 0 0 333.21 259.54
  Q 333.00 254.37 333.19 248.52
  C 333.43 240.93 325.13 241.26 320.26 242.99
  Q 319.88 243.13 319.88 243.53
  L 319.86 245.49
  Q 319.85 245.98 320.32 245.83
  Q 323.24 244.83 327.24 245.00
  Q 329.21 245.09 329.90 246.93
  L 330.03 247.29
  Q 330.70 249.08 328.78 249.00
  C 326.11 248.88 323.31 248.83 320.93 250.21
  C 318.03 251.89 317.51 256.16 319.74 258.40
  Q 321.86 260.54 325.64 259.90
  C 327.18 259.64 328.43 258.79 329.79 258.09
  Q 330.49 257.73 330.47 258.52
  Z"
/>
<path fill="#ffffff" d="
  M 323.61 295.59
  Q 323.50 296.53 324.16 295.85
  L 340.06 279.32
  Q 340.43 278.93 340.10 278.50
  L 339.86 278.18
  A 0.33 0.32 48.3 0 0 339.37 278.15
  L 328.88 288.98
  Q 327.91 289.98 328.61 288.77
  L 393.54 175.10
  Q 393.84 174.58 394.45 174.58
  L 417.97 174.58
  Q 418.63 174.58 418.43 175.21
  Q 372.31 323.49 325.81 472.95
  A 0.26 0.26 0.0 0 1 325.63 473.13
  Q 325.61 473.14 325.61 473.12
  Q 325.60 473.12 325.60 473.11
  Q 326.13 465.27 326.58 457.47
  Q 326.60 457.10 326.23 457.06
  L 325.78 457.00
  Q 325.25 456.93 325.22 457.47
  L 324.05 477.68
  A 0.42 0.41 5.6 0 1 323.57 478.07
  L 245.52 466.37
  A 0.54 0.53 -85.6 0 1 245.07 465.84
  L 245.07 255.75
  A 0.30 0.30 0.0 0 1 245.50 255.48
  L 323.38 294.42
  Q 323.73 294.60 323.69 294.99
  L 323.61 295.59
  Z"
/>
<path fill="#ffffff" d="
  M 580.77 648.78
  Q 580.77 650.29 581.48 648.96
  L 592.28 628.52
  A 0.32 0.31 -63.0 0 0 592.15 628.09
  L 591.87 627.95
  Q 591.26 627.64 590.93 628.25
  L 584.79 639.81
  Q 583.60 642.04 584.19 639.58
  Q 586.68 629.15 589.24 619.22
  Q 589.54 618.04 590.40 617.17
  Q 612.03 595.29 614.45 565.45
  C 616.93 534.84 601.56 505.31 575.13 489.41
  Q 574.66 489.13 574.53 488.61
  Q 574.13 487.09 574.03 485.50
  Q 573.43 475.51 572.91 465.42
  A 0.44 0.44 0.0 0 0 572.47 465.00
  L 572.00 465.01
  Q 571.51 465.01 571.54 465.50
  L 572.38 479.85
  Q 572.48 481.59 571.97 479.93
  L 477.09 174.94
  A 0.28 0.28 0.0 0 1 477.36 174.58
  L 644.41 174.58
  Q 645.00 174.58 645.00 175.16
  L 645.00 574.02
  Q 645.00 574.54 644.48 574.54
  L 614.29 574.54
  Q 613.69 574.54 613.64 575.13
  L 613.61 575.44
  A 0.45 0.45 0.0 0 0 614.06 575.93
  L 644.91 575.91
  Q 645.35 575.91 645.66 576.22
  L 763.74 694.30
  Q 764.43 694.99 763.46 694.99
  L 126.76 694.99
  Q 125.64 694.99 126.43 694.19
  L 177.38 643.24
  A 1.05 1.03 27.8 0 1 178.32 642.96
  L 243.54 656.00
  A 1.28 1.25 79.7 0 1 244.37 656.59
  Q 244.56 656.93 244.82 657.21
  Q 245.43 657.87 245.31 656.98
  L 242.11 633.98
  Q 242.04 633.50 241.56 633.54
  L 241.14 633.57
  Q 240.71 633.60 240.77 634.02
  L 242.66 647.79
  Q 242.98 650.11 242.11 647.94
  L 222.47 598.81
  A 0.77 0.77 0.0 0 1 222.64 597.98
  L 244.30 576.31
  Q 244.69 575.93 245.23 575.93
  L 299.03 575.92
  Q 299.60 575.92 299.88 576.42
  Q 300.88 578.18 301.86 579.86
  C 318.66 608.44 352.01 622.03 383.50 613.57
  Q 413.86 605.41 429.78 576.38
  Q 430.03 575.93 430.54 575.93
  L 452.48 575.92
  Q 453.09 575.92 453.16 575.32
  L 453.19 575.04
  Q 453.24 574.54 452.74 574.54
  L 431.26 574.54
  Q 430.70 574.54 430.93 574.03
  Q 444.60 542.54 430.86 512.52
  C 413.95 475.59 369.63 459.90 333.06 477.60
  C 297.15 494.98 282.15 537.57 298.71 573.88
  Q 299.01 574.54 298.29 574.54
  L 245.68 574.54
  Q 245.07 574.54 245.07 573.93
  L 245.07 468.17
  Q 245.07 467.65 245.58 467.73
  L 323.24 479.38
  Q 323.78 479.46 323.83 480.00
  L 323.87 480.36
  Q 323.96 481.15 324.43 480.52
  Q 325.40 479.21 326.18 477.85
  Q 331.07 469.42 336.38 460.86
  Q 336.68 460.39 336.20 460.11
  L 335.97 459.98
  A 0.58 0.58 0.0 0 0 335.18 460.18
  L 327.86 472.34
  Q 326.95 473.84 327.47 472.16
  L 419.89 175.06
  A 0.68 0.68 0.0 0 1 420.54 174.58
  L 474.94 174.58
  A 0.86 0.84 -8.2 0 1 475.76 175.18
  L 570.50 479.75
  Q 571.17 481.88 570.01 479.97
  L 562.82 468.05
  Q 562.64 467.74 562.30 467.84
  L 561.98 467.94
  Q 561.33 468.13 561.67 468.71
  L 572.43 486.63
  Q 573.60 488.58 571.60 487.50
  C 555.77 478.87 536.74 475.94 518.82 479.25
  C 478.64 486.66 450.45 522.51 452.32 562.98
  C 454.08 601.03 482.05 632.73 519.61 639.26
  C 544.06 643.51 568.43 636.40 587.11 620.20
  Q 587.74 619.65 587.54 620.47
  Q 585.36 629.20 583.04 638.35
  Q 582.54 640.34 583.40 642.04
  Q 583.47 642.17 583.34 642.23
  L 583.34 642.23
  Q 583.21 642.30 583.15 642.17
  C 582.65 641.19 582.16 640.05 582.15 638.91
  Q 582.10 632.22 582.16 625.67
  A 0.36 0.36 0.0 0 0 581.77 625.31
  L 581.42 625.34
  A 0.71 0.70 -2.7 0 0 580.78 626.04
  L 580.77 648.78
  Z
  M 519.90 234.51
  Q 519.16 234.27 519.85 233.91
  C 524.10 231.67 522.94 227.25 518.53 226.40
  Q 514.04 225.52 508.49 226.37
  Q 507.90 226.46 507.90 227.05
  L 507.93 242.99
  Q 507.93 243.57 508.50 243.65
  C 512.22 244.18 521.52 244.90 522.98 240.18
  Q 524.31 235.91 519.90 234.51
  Z
  M 408.21 282.17
  Q 409.22 274.52 418.15 274.82
  Q 419.69 274.87 419.44 273.36
  Q 419.40 273.13 419.50 272.91
  Q 420.00 271.68 418.68 271.70
  C 413.00 271.80 407.69 273.26 406.12 279.27
  Q 404.46 285.65 405.93 291.33
  C 407.98 299.19 418.25 298.65 420.78 291.62
  C 423.61 283.76 416.10 275.55 408.88 282.51
  Q 408.06 283.29 408.21 282.17
  Z"
/>
<path fill="#000001" d="
  M 519.90 234.51
  Q 524.31 235.91 522.98 240.18
  C 521.52 244.90 512.22 244.18 508.50 243.65
  Q 507.93 243.57 507.93 242.99
  L 507.90 227.05
  Q 507.90 226.46 508.49 226.37
  Q 514.04 225.52 518.53 226.40
  C 522.94 227.25 524.10 231.67 519.85 233.91
  Q 519.16 234.27 519.90 234.51
  Z
  M 510.97 229.56
  L 510.99 232.48
  A 0.55 0.55 0.0 0 0 511.54 233.02
  L 515.57 233.01
  A 4.06 1.89 -0.2 0 0 519.62 231.10
  L 519.62 230.86
  A 4.06 1.89 -0.2 0 0 515.55 228.99
  L 511.52 229.00
  A 0.55 0.55 0.0 0 0 510.97 229.56
  Z
  M 510.98 236.66
  L 510.98 240.32
  A 0.68 0.68 0.0 0 0 511.66 241.00
  L 515.60 241.01
  A 4.40 2.30 0.1 0 0 520.00 238.72
  L 520.00 238.30
  A 4.40 2.30 0.1 0 0 515.60 235.99
  L 511.66 235.98
  A 0.68 0.68 0.0 0 0 510.98 236.66
  Z"
/>
<path fill="#ffffff" d="
  M 510.97 229.56
  A 0.55 0.55 0.0 0 1 511.52 229.00
  L 515.55 228.99
  A 4.06 1.89 -0.2 0 1 519.62 230.86
  L 519.62 231.10
  A 4.06 1.89 -0.2 0 1 515.57 233.01
  L 511.54 233.02
  A 0.55 0.55 0.0 0 1 510.99 232.48
  L 510.97 229.56
  Z"
/>
<path fill="#ffffff" d="
  M 510.98 236.66
  A 0.68 0.68 0.0 0 1 511.66 235.98
  L 515.60 235.99
  A 4.40 2.30 0.1 0 1 520.00 238.30
  L 520.00 238.72
  A 4.40 2.30 0.1 0 1 515.60 241.01
  L 511.66 241.00
  A 0.68 0.68 0.0 0 1 510.98 240.32
  L 510.98 236.66
  Z"
/>
<path fill="#000001" d="
  M 329.79 258.09
  C 328.43 258.79 327.18 259.64 325.64 259.90
  Q 321.86 260.54 319.74 258.40
  C 317.51 256.16 318.03 251.89 320.93 250.21
  C 323.31 248.83 326.11 248.88 328.78 249.00
  Q 330.70 249.08 330.03 247.29
  L 329.90 246.93
  Q 329.21 245.09 327.24 245.00
  Q 323.24 244.83 320.32 245.83
  Q 319.85 245.98 319.86 245.49
  L 319.88 243.53
  Q 319.88 243.13 320.26 242.99
  C 325.13 241.26 333.43 240.93 333.19 248.52
  Q 333.00 254.37 333.21 259.54
  A 0.45 0.45 0.0 0 1 332.76 260.00
  L 330.96 259.99
  A 0.52 0.51 1.1 0 1 330.44 259.46
  L 330.47 258.52
  Q 330.49 257.73 329.79 258.09
  Z
  M 322.87 256.57
  C 325.12 257.81 327.51 256.39 329.47 255.24
  Q 329.88 255.00 330.03 254.54
  Q 330.35 253.52 330.10 252.45
  Q 330.01 252.05 329.60 252.03
  C 327.33 251.92 323.37 251.37 322.06 253.68
  A 2.12 2.11 -60.8 0 0 322.87 256.57
  Z"
/>
<path fill="#ffffff" d="
  M 329.47 255.24
  C 327.51 256.39 325.12 257.81 322.87 256.57
  A 2.12 2.11 -60.8 0 1 322.06 253.68
  C 323.37 251.37 327.33 251.92 329.60 252.03
  Q 330.01 252.05 330.10 252.45
  Q 330.35 253.52 330.03 254.54
  Q 329.88 255.00 329.47 255.24
  Z"
/>
<path fill="#000001" d="
  M 408.21 282.17
  Q 408.06 283.29 408.88 282.51
  C 416.10 275.55 423.61 283.76 420.78 291.62
  C 418.25 298.65 407.98 299.19 405.93 291.33
  Q 404.46 285.65 406.12 279.27
  C 407.69 273.26 413.00 271.80 418.68 271.70
  Q 420.00 271.68 419.50 272.91
  Q 419.40 273.13 419.44 273.36
  Q 419.69 274.87 418.15 274.82
  Q 409.22 274.52 408.21 282.17
  Z
  M 412.21 293.96
  C 421.05 295.15 419.39 280.81 412.70 283.15
  Q 405.83 285.56 409.50 292.15
  Q 410.37 293.71 412.21 293.96
  Z"
/>
<path fill="#ffffff" d="
  M 412.70 283.15
  C 419.39 280.81 421.05 295.15 412.21 293.96
  Q 410.37 293.71 409.50 292.15
  Q 405.83 285.56 412.70 283.15
  Z"
/>
<path fill="#ffffff" d="
  M 170.48 456.63
  Q 170.30 456.67 170.13 456.64
  Q 169.44 456.54 170.06 456.22
  Q 170.55 455.96 171.08 456.37
  A 1.43 1.39 67.0 0 0 171.75 456.65
  L 243.17 467.37
  A 0.69 0.69 0.0 0 1 243.75 468.05
  L 243.75 574.21
  Q 243.75 574.93 243.24 575.44
  L 222.04 596.66
  Q 221.73 596.97 221.57 596.56
  L 165.69 456.84
  Q 165.38 456.07 166.14 456.39
  L 183.68 463.61
  Q 184.17 463.82 184.43 463.34
  L 184.60 463.03
  A 0.41 0.41 0.0 0 0 184.40 462.46
  Q 177.90 459.82 172.12 457.34
  Q 171.71 457.16 171.32 456.84
  Q 170.96 456.53 170.48 456.63
  Z"
/>
<circle fill="#ffffff" cx="364.81" cy="543.17" r="71.53"/>
<path fill="#ffffff" d="
  M 581.78 594.77
  L 581.45 594.85
  A 0.61 0.61 0.0 0 0 581.03 595.67
  Q 584.94 605.44 588.29 614.19
  Q 589.24 616.67 587.11 618.51
  Q 558.45 643.22 521.67 638.22
  Q 506.56 636.17 492.90 628.02
  C 454.72 605.25 441.97 556.24 465.01 518.03
  C 487.40 480.88 534.42 468.58 572.53 489.45
  A 1.30 1.29 11.0 0 1 573.20 490.43
  Q 580.35 547.55 587.49 604.79
  Q 587.72 606.63 587.84 608.45
  Q 587.92 609.58 587.51 608.52
  L 582.28 595.03
  A 0.43 0.43 0.0 0 0 581.78 594.77
  Z"
/>
<path fill="#ffffff" d="
  M 592.28 593.40
  L 591.98 593.33
  A 0.42 0.42 0.0 0 0 591.47 593.69
  L 589.59 608.77
  A 0.13 0.13 0.0 0 1 589.34 608.77
  L 574.64 491.12
  Q 574.57 490.57 575.04 490.87
  Q 595.88 504.15 605.57 524.86
  C 619.97 555.63 614.06 590.14 590.76 614.96
  Q 590.14 615.62 590.25 614.72
  L 592.76 594.06
  A 0.61 0.60 -81.1 0 0 592.28 593.40
  Z"
/>
<path fill="#ffffff" d="
  M 231.63 637.62
  L 231.39 637.79
  Q 231.02 638.05 231.28 638.42
  L 242.39 653.83
  Q 242.88 654.51 242.05 654.35
  L 179.48 641.83
  A 0.32 0.31 28.4 0 1 179.32 641.30
  L 220.79 599.83
  Q 221.25 599.37 221.49 599.97
  L 240.64 647.88
  Q 241.75 650.65 240.01 648.22
  L 232.49 637.77
  Q 232.13 637.27 231.63 637.62
  Z"
/>
<path fill="#ffffff" d="
  M 124.72 693.23
  L 124.74 632.62
  A 0.31 0.31 0.0 0 1 125.11 632.31
  L 175.60 642.42
  A 0.31 0.31 0.0 0 1 175.76 642.94
  L 125.25 693.45
  A 0.31 0.31 0.0 0 1 124.72 693.23
  Z"
/>
</svg>
