<?xml version="1.0" encoding="UTF-8" standalone="no"?>
<!DOCTYPE svg PUBLIC "-//W3C//DTD SVG 1.1//EN" "http://www.w3.org/Graphics/SVG/1.1/DTD/svg11.dtd">
<svg xmlns="http://www.w3.org/2000/svg" version="1.1" viewBox="0.00 0.00 497.00 478.00">
<g stroke-width="2.00" fill="none" stroke-linecap="butt">
<path stroke="#808080" vector-effect="non-scaling-stroke" d="
  M 230.51 290.47
  Q 226.29 291.63 220.97 291.19
  Q 220.24 291.13 219.54 290.83
  C 218.60 290.42 218.20 291.07 217.40 291.01
  C 216.72 290.96 216.02 290.71 215.41 290.72
  Q 186.78 291.12 157.00 291.10
  C 151.94 291.10 146.91 290.74 141.84 290.72
  Q 109.70 290.65 78.86 291.03
  C 76.79 291.05 74.81 290.82 72.74 290.64
  Q 71.02 290.48 68.25 290.61
  Q 64.34 290.78 60.45 290.13
  Q 59.91 290.04 59.41 290.26
  L 56.88 291.40
  A 0.63 0.63 0.0 0 0 56.63 292.35
  L 57.25 293.19
  Q 57.70 293.81 58.43 293.57
  C 60.83 292.81 62.87 293.70 65.26 293.39
  C 69.58 292.82 73.75 293.80 78.02 293.79
  C 99.96 293.72 122.10 293.19 144.16 293.64
  Q 152.70 293.81 159.55 293.78
  Q 185.25 293.68 212.13 293.50
  C 219.04 293.46 225.90 293.91 232.82 293.71
  A 0.60 0.60 0.0 0 1 233.44 294.27
  C 233.57 295.96 234.20 297.40 234.16 299.12
  C 234.06 303.13 234.35 307.33 233.69 311.24
  C 233.27 313.76 234.35 315.68 234.05 318.21
  Q 233.88 319.72 234.01 321.10
  C 234.52 326.49 234.20 332.22 234.17 337.72
  C 234.15 339.76 234.53 341.72 234.28 343.76
  C 233.85 347.23 234.41 350.47 233.67 354.00
  Q 233.37 355.44 234.38 356.70
  Q 234.77 357.18 234.30 357.58
  Q 233.25 358.49 233.66 360.12
  Q 233.93 361.19 233.87 362.34
  Q 233.44 371.73 233.75 381.08
  C 233.77 381.71 234.09 382.16 234.10 382.77
  Q 234.21 388.53 234.23 394.13
  C 234.23 395.05 234.64 395.81 234.41 396.73
  Q 234.14 397.75 234.15 398.80
  Q 234.24 406.74 234.08 414.76
  C 234.04 416.61 234.66 418.43 234.33 420.24
  Q 233.88 422.76 234.56 425.16
  Q 234.74 425.80 234.46 426.40
  Q 233.70 427.97 235.12 428.77
  A 0.89 0.88 22.7 0 0 236.40 428.25
  Q 237.64 424.03 237.14 420.41
  Q 236.69 417.24 236.74 414.29
  C 236.84 408.51 237.17 402.27 236.38 396.84
  Q 236.22 395.76 236.38 394.64
  Q 236.97 390.58 236.23 386.50
  Q 235.88 384.56 236.42 377.71
  C 236.56 376.01 236.14 374.41 236.16 372.68
  Q 236.23 365.04 236.34 357.98
  A 2.74 2.73 -89.5 0 1 239.07 355.29
  Q 242.37 355.29 246.02 354.70
  C 251.00 353.89 255.22 351.35 259.77 349.30
  A 1.95 1.95 0.0 0 1 262.33 350.25
  C 263.68 353.15 265.34 355.88 266.04 358.97
  Q 266.63 361.56 267.90 363.64
  C 269.45 366.18 270.23 369.10 271.70 371.70
  Q 274.54 376.72 276.57 381.73
  C 277.27 383.48 278.53 384.61 279.32 386.27
  Q 282.23 392.39 284.80 398.70
  C 285.53 400.51 286.79 401.96 287.55 403.79
  Q 289.38 408.21 292.05 413.42
  Q 295.72 420.55 298.85 426.94
  C 299.48 428.23 300.59 429.29 300.88 430.70
  Q 301.16 432.03 301.91 433.23
  Q 303.41 435.61 304.35 438.35
  Q 304.52 438.84 304.12 439.17
  Q 303.71 439.51 303.19 439.65
  Q 302.77 439.76 302.38 439.55
  Q 301.05 438.83 299.53 439.05
  A 0.37 0.37 0.0 0 0 299.25 439.57
  C 300.60 442.64 303.10 444.32 304.76 447.14
  C 306.54 450.19 309.30 452.46 311.23 455.56
  Q 313.38 459.02 315.95 462.40
  C 316.51 463.13 317.20 463.51 318.06 463.80
  Q 319.03 464.11 319.03 463.10
  C 319.04 460.49 318.30 457.81 317.16 455.50
  Q 316.10 453.33 315.77 450.99
  C 315.55 449.44 314.16 448.15 313.70 446.55
  Q 313.22 444.84 312.44 443.24
  Q 311.81 441.95 311.73 440.48
  Q 311.56 437.34 310.50 433.89
  A 0.56 0.56 0.0 0 0 309.73 433.55
  L 307.84 434.45
  A 1.04 1.04 0.0 0 1 306.41 433.83
  C 305.26 430.33 303.24 427.51 301.85 424.14
  C 300.87 421.77 298.77 419.45 298.18 417.02
  Q 297.87 415.74 297.04 414.74
  Q 295.81 413.24 294.98 411.16
  Q 292.59 405.15 289.35 398.96
  Q 287.70 395.82 286.70 392.81
  C 285.39 388.87 283.09 386.00 281.56 382.25
  Q 280.43 379.47 278.78 376.62
  Q 275.97 371.76 273.78 366.08
  C 273.21 364.60 271.92 363.62 271.48 362.12
  Q 271.02 360.51 270.65 358.61
  Q 270.29 356.74 269.30 355.11
  Q 265.82 349.38 262.16 341.49
  Q 260.25 337.38 258.08 333.14
  Q 255.99 329.08 253.87 324.81
  Q 249.98 316.98 246.44 309.17
  C 244.22 304.27 240.99 299.83 239.40 294.51
  A 0.95 0.94 81.8 0 1 240.31 293.29
  Q 244.89 293.31 249.47 293.75
  C 251.91 293.98 254.15 293.47 256.60 293.58
  Q 258.47 293.68 260.40 293.66
  Q 280.08 293.54 299.75 293.82
  C 319.41 294.09 338.83 293.58 358.75 293.59
  C 364.11 293.60 369.43 293.94 374.80 293.90
  Q 405.26 293.65 437.34 293.50
  C 441.84 293.48 446.05 294.80 450.64 293.83
  Q 451.12 293.72 451.37 293.33
  Q 451.95 292.41 450.52 291.48
  A 1.89 1.82 60.1 0 0 449.48 291.18
  C 444.92 291.25 440.33 290.71 435.88 290.73
  Q 410.47 290.82 385.26 291.08
  Q 378.39 291.15 365.26 290.85
  C 353.14 290.58 341.03 291.14 328.98 291.10
  Q 322.19 291.07 315.91 291.08
  Q 314.47 291.08 312.96 291.09
  Q 299.03 291.18 285.25 290.90
  C 271.02 290.62 257.17 291.19 242.46 291.13
  Q 242.08 291.13 241.76 290.84
  A 0.48 0.48 0.0 0 1 241.74 290.14
  Q 245.02 286.86 248.83 284.66
  C 251.94 282.86 254.49 280.06 257.52 278.08
  Q 260.73 276.00 263.56 273.37
  Q 266.24 270.87 269.41 268.56
  Q 273.98 265.23 278.46 261.89
  C 280.02 260.72 281.13 259.26 282.75 258.28
  Q 284.48 257.24 285.90 255.83
  Q 288.96 252.80 292.33 250.74
  Q 294.62 249.35 296.72 247.66
  C 299.12 245.74 301.52 243.38 304.30 242.09
  Q 306.18 241.21 306.95 239.29
  Q 307.18 238.72 307.79 238.65
  Q 308.96 238.52 309.80 237.62
  Q 312.63 234.54 315.93 232.40
  C 319.88 229.84 323.29 226.54 327.20 223.80
  C 328.71 222.74 329.53 221.25 331.38 220.61
  A 1.91 1.91 0.0 0 0 332.23 220.01
  C 333.02 219.07 333.68 218.31 334.74 217.64
  Q 337.38 215.98 339.87 213.93
  Q 342.26 211.96 344.83 210.27
  C 348.69 207.74 352.27 204.76 356.09 202.10
  Q 358.36 200.51 360.52 198.49
  Q 363.66 195.54 367.49 193.02
  C 371.06 190.68 373.84 188.47 377.06 186.27
  C 379.99 184.27 382.05 181.60 385.16 179.69
  C 387.91 178.01 389.71 175.47 392.62 173.99
  C 393.93 173.32 394.51 171.85 395.84 171.03
  C 398.05 169.67 400.13 168.28 401.91 166.40
  Q 403.49 164.75 405.49 163.79
  C 407.14 163.00 407.40 161.55 408.79 160.61
  Q 412.69 157.95 416.07 155.09
  C 417.03 154.28 418.29 154.00 419.49 154.37
  A 0.93 0.93 0.0 0 0 420.58 153.94
  Q 422.50 150.58 425.14 147.84
  Q 427.87 145.01 430.25 142.22
  Q 433.37 138.57 436.67 135.67
  Q 437.36 135.06 437.16 134.17
  A 0.56 0.56 0.0 0 0 436.34 133.80
  Q 427.43 138.76 418.16 143.40
  C 417.32 143.82 416.43 143.65 415.65 144.23
  Q 414.19 145.31 412.59 145.73
  Q 410.17 146.35 412.30 147.65
  Q 413.24 148.21 414.25 148.69
  Q 414.83 148.97 414.56 149.55
  Q 413.61 151.54 412.27 152.56
  Q 403.59 159.18 395.12 166.07
  C 394.08 166.92 392.86 166.99 392.02 168.11
  C 390.55 170.06 387.82 171.68 385.80 173.06
  C 383.76 174.44 381.68 176.69 379.14 178.10
  Q 378.69 178.35 378.42 178.77
  Q 377.75 179.79 377.33 180.14
  Q 373.96 182.92 371.23 184.71
  Q 367.58 187.09 364.61 189.45
  Q 351.82 199.61 339.55 208.55
  Q 339.02 208.93 338.65 209.56
  C 338.08 210.52 336.32 210.72 335.35 211.50
  Q 330.44 215.45 325.22 219.27
  Q 319.23 223.65 314.05 228.06
  C 311.95 229.85 309.27 231.18 307.59 233.41
  Q 306.09 235.39 303.47 234.87
  Q 302.96 234.77 302.66 234.34
  Q 297.37 226.53 290.40 219.48
  C 286.68 215.71 282.46 212.60 278.21 209.60
  Q 264.40 199.81 243.24 196.05
  Q 240.95 195.64 238.68 194.95
  Q 236.43 194.26 236.69 191.87
  Q 237.01 188.98 236.85 186.22
  C 236.73 184.08 237.58 182.06 237.20 179.93
  Q 236.80 177.77 236.79 175.48
  C 236.78 172.93 236.46 170.39 236.63 167.92
  C 236.94 163.31 236.33 158.70 236.38 154.06
  C 236.51 140.50 236.94 127.19 236.75 113.75
  Q 236.59 102.62 236.32 91.86
  C 236.29 90.50 236.92 89.26 236.50 87.98
  Q 236.33 87.46 236.33 86.91
  L 236.21 65.78
  Q 236.21 65.28 235.92 64.87
  L 235.68 64.52
  A 0.68 0.68 0.0 0 1 235.84 63.59
  L 236.36 63.20
  A 1.03 1.02 -18.7 0 0 236.77 62.38
  L 236.75 59.77
  Q 236.75 59.01 237.45 59.30
  Q 239.11 59.98 240.58 61.34
  Q 242.63 63.23 242.45 60.44
  Q 242.32 58.35 240.95 56.63
  Q 240.58 56.16 240.49 55.56
  Q 239.58 49.27 237.34 42.92
  Q 236.97 41.88 236.41 40.92
  A 0.88 0.87 39.5 0 0 234.83 41.07
  Q 233.68 44.40 233.62 48.05
  Q 233.61 48.55 233.27 48.91
  C 232.41 49.80 232.62 51.03 232.22 52.17
  Q 230.66 56.66 229.60 61.48
  Q 229.45 62.18 230.15 62.05
  Q 230.72 61.95 231.19 61.62
  Q 231.68 61.27 232.27 61.38
  Q 232.75 61.47 233.16 61.74
  Q 233.67 62.09 233.55 62.69
  Q 232.80 66.47 232.91 70.99
  Q 233.03 75.67 233.02 77.55
  Q 233.00 83.08 233.05 88.50
  Q 233.23 108.65 233.45 127.05
  C 233.54 135.00 233.12 143.65 233.07 151.86
  A 1.77 1.76 2.1 0 1 231.18 153.61
  Q 226.26 153.25 221.32 152.56
  Q 217.81 152.07 213.16 152.09
  Q 207.40 152.12 205.00 152.62
  Q 198.87 153.89 192.66 155.35
  C 189.95 155.99 187.33 157.10 184.66 157.92
  C 179.82 159.40 173.90 161.93 169.78 165.24
  C 168.00 166.67 165.95 167.32 164.08 168.73
  Q 154.01 176.31 146.76 184.78
  Q 142.07 190.25 138.83 196.07
  Q 137.94 197.66 136.61 196.42
  Q 132.89 192.99 129.02 189.99
  Q 125.03 186.89 121.68 183.55
  Q 113.65 175.54 106.62 169.81
  Q 103.48 167.25 101.04 164.34
  C 98.77 161.63 96.02 159.99 93.44 157.81
  Q 88.87 153.96 84.67 148.68
  Q 82.83 146.36 79.80 144.89
  Q 79.46 144.73 79.09 144.80
  Q 77.40 145.12 76.21 146.21
  A 1.18 1.18 0.0 0 0 76.13 147.87
  Q 78.39 150.37 81.15 152.46
  C 82.12 153.20 82.65 154.27 83.74 154.93
  C 86.34 156.49 87.65 159.00 89.98 160.84
  Q 97.17 166.49 103.39 173.11
  C 104.81 174.63 106.72 175.28 108.19 176.89
  C 112.06 181.15 116.53 184.58 120.75 188.72
  Q 123.56 191.48 127.01 194.30
  Q 130.71 197.33 134.63 201.67
  C 136.07 203.27 138.23 203.98 139.75 205.58
  Q 142.97 208.96 146.21 212.51
  Q 147.74 214.19 149.67 215.49
  C 153.88 218.34 155.91 223.11 160.40 225.76
  Q 163.96 227.85 166.61 231.40
  Q 168.05 233.34 170.31 235.04
  Q 176.24 239.51 181.19 244.86
  C 182.55 246.33 184.39 246.41 185.63 248.14
  Q 186.57 249.46 187.80 250.52
  Q 191.54 253.75 195.02 256.88
  C 198.50 260.01 201.20 263.55 205.23 266.19
  Q 206.47 267.01 206.95 268.47
  A 1.18 1.17 86.1 0 0 207.84 269.25
  Q 208.73 269.42 209.33 270.17
  Q 209.66 270.58 210.13 270.81
  Q 211.46 271.46 211.82 273.11
  Q 211.92 273.56 211.52 273.78
  L 209.35 274.98
  Q 207.86 275.80 209.41 276.50
  Q 214.66 278.87 219.20 281.12
  Q 222.27 282.64 224.16 284.34
  Q 227.49 287.32 230.61 289.99
  A 0.28 0.28 0.0 0 1 230.51 290.47"
/>
<path stroke="#808080" vector-effect="non-scaling-stroke" d="
  M 273.36 96.57
  Q 274.04 93.02 273.66 89.42
  A 1.18 1.17 65.5 0 1 274.01 88.47
  L 275.81 86.75
  Q 276.21 86.37 276.71 86.59
  C 280.79 88.33 278.85 91.86 279.90 95.04
  Q 280.13 95.74 279.95 96.46
  L 279.35 98.84
  A 1.06 1.06 0.0 0 0 279.62 99.83
  C 281.63 101.88 285.85 101.58 285.28 97.83
  Q 284.45 92.32 284.02 86.89
  Q 283.97 86.25 283.55 85.75
  L 281.74 83.62
  Q 281.38 83.19 280.83 83.04
  Q 279.64 82.73 278.45 82.75
  C 276.00 82.77 274.78 85.08 272.08 83.54
  Q 271.64 83.29 271.12 83.37
  C 269.62 83.62 268.54 84.25 268.51 85.90
  Q 268.38 93.39 268.58 100.26
  A 0.76 0.76 0.0 0 0 269.71 100.90
  Q 270.95 100.22 272.34 100.55
  A 0.89 0.88 23.4 0 0 273.28 100.18
  L 274.13 98.86
  A 0.83 0.82 -47.8 0 0 274.09 97.88
  L 273.51 97.15
  Q 273.30 96.89 273.36 96.57"
/>
<path stroke="#808080" vector-effect="non-scaling-stroke" d="
  M 166.88 113.22
  Q 166.05 112.81 165.25 113.31
  Q 164.74 113.63 164.14 113.54
  Q 161.82 113.19 160.05 114.36
  C 158.17 115.61 154.71 118.44 154.50 121.01
  C 154.30 123.47 153.39 125.40 154.11 127.92
  Q 155.25 131.93 157.27 134.26
  Q 159.19 136.49 163.12 137.26
  Q 164.27 137.48 165.33 137.26
  C 167.38 136.82 169.16 137.39 170.91 135.95
  Q 176.36 131.47 176.32 126.21
  Q 176.25 118.27 169.84 114.19
  Q 168.84 113.55 167.76 113.46
  Q 167.29 113.43 166.88 113.22"
/>
<path stroke="#808080" vector-effect="non-scaling-stroke" d="
  M 183.94 129.28
  A 1.27 1.27 0.0 0 0 183.15 130.03
  L 182.81 130.90
  A 1.27 1.27 0.0 0 0 183.90 132.62
  L 185.60 132.76
  A 1.27 1.27 0.0 0 0 186.96 131.35
  L 186.80 129.95
  A 1.27 1.27 0.0 0 0 185.15 128.89
  L 183.94 129.28"
/>
<path stroke="#808080" vector-effect="non-scaling-stroke" d="
  M 186.66 144.92
  Q 187.09 141.81 186.41 138.76
  Q 186.27 138.13 186.51 137.53
  Q 187.03 136.26 186.46 135.15
  A 1.67 1.67 0.0 0 0 183.59 134.97
  Q 181.35 138.29 182.28 142.63
  Q 182.41 143.21 182.26 143.78
  Q 181.85 145.43 182.88 147.38
  Q 183.06 147.72 183.41 147.86
  Q 185.71 148.76 187.15 146.73
  Q 187.52 146.21 186.97 145.74
  A 0.91 0.90 -66.3 0 1 186.66 144.92"
/>
<path stroke="#808080" vector-effect="non-scaling-stroke" d="
  M 69.63 167.76
  L 73.21 167.36
  A 0.81 0.81 0.0 0 0 73.92 166.46
  L 73.76 165.00
  A 2.40 1.60 -6.4 0 0 71.19 163.68
  L 70.78 163.73
  A 2.40 1.60 -6.4 0 0 68.57 165.58
  L 68.73 167.04
  A 0.81 0.81 0.0 0 0 69.63 167.76"
/>
<path stroke="#808080" vector-effect="non-scaling-stroke" d="
  M 68.88 173.81
  Q 68.18 175.51 68.68 177.26
  C 69.50 180.12 68.82 182.25 68.51 185.05
  A 2.61 2.61 0.0 0 0 70.83 187.93
  Q 72.87 188.15 73.97 186.27
  Q 74.24 185.80 74.13 185.27
  Q 73.49 182.13 74.16 178.95
  C 74.29 178.32 73.74 177.57 73.76 176.69
  Q 73.83 174.25 73.70 171.73
  Q 73.67 171.17 73.21 170.87
  Q 71.14 169.52 69.53 170.75
  Q 68.30 171.71 68.88 173.14
  Q 69.02 173.48 68.88 173.81"
/>
<path stroke="#808080" vector-effect="non-scaling-stroke" d="
  M 288.35 191.01
  Q 288.68 189.19 289.31 187.50
  Q 289.49 187.01 289.30 186.52
  C 288.44 184.22 288.54 181.54 287.16 179.47
  Q 284.52 175.51 280.30 174.76
  C 278.18 174.37 276.26 174.81 274.21 175.18
  C 271.35 175.69 270.04 178.06 268.85 180.42
  Q 264.13 189.76 271.92 196.75
  C 273.24 197.94 274.55 198.11 276.24 198.06
  Q 279.02 197.98 281.86 197.58
  Q 283.16 197.39 284.35 196.54
  C 286.39 195.09 287.88 193.60 288.35 191.01"
/>
<path stroke="#808080" vector-effect="non-scaling-stroke" d="
  M 418.19 178.51
  Q 415.51 177.88 413.22 178.89
  Q 412.78 179.08 412.77 179.57
  Q 412.67 184.66 412.80 190.20
  Q 412.84 191.79 412.51 193.36
  A 0.89 0.88 -60.5 0 0 412.72 194.13
  Q 414.51 196.08 417.08 195.03
  Q 417.59 194.82 417.75 194.30
  L 418.35 192.32
  Q 418.52 191.76 418.36 191.18
  Q 417.16 186.87 419.26 182.39
  Q 419.48 181.93 419.95 181.74
  L 423.44 180.32
  Q 424.29 179.97 424.24 179.06
  L 424.20 178.25
  Q 424.14 176.91 422.81 177.13
  Q 420.68 177.49 418.83 178.44
  Q 418.53 178.59 418.19 178.51"
/>
<path stroke="#808080" vector-effect="non-scaling-stroke" d="
  M 298.52 190.41
  Q 296.75 189.86 295.00 190.36
  Q 294.50 190.50 294.49 191.01
  Q 294.34 195.87 294.64 200.05
  Q 294.77 201.82 296.09 202.80
  A 1.67 1.66 -73.8 0 0 298.74 201.34
  Q 298.68 200.56 299.06 199.84
  Q 299.40 199.21 298.89 198.70
  Q 298.20 198.00 298.90 197.21
  A 1.49 1.46 -25.6 0 0 299.26 196.22
  L 299.23 194.53
  Q 299.22 193.96 299.73 193.72
  L 303.05 192.12
  Q 304.20 191.56 303.92 190.32
  Q 303.82 189.87 303.46 189.51
  A 0.87 0.86 56.8 0 0 302.54 189.31
  L 299.66 190.38
  Q 299.10 190.59 298.52 190.41"
/>
<path stroke="#808080" vector-effect="non-scaling-stroke" d="
  M 193.86 328.06
  Q 195.18 326.87 196.90 327.04
  Q 202.17 327.58 205.58 324.48
  Q 206.05 324.05 206.00 323.41
  C 205.84 320.94 207.18 318.76 206.15 316.39
  Q 205.41 314.67 203.72 313.42
  Q 202.40 312.44 200.61 312.49
  Q 195.22 312.64 189.99 312.49
  C 187.75 312.43 186.83 314.60 187.47 316.48
  Q 188.23 318.76 187.30 321.08
  Q 187.09 321.61 187.27 322.15
  L 187.66 323.36
  Q 187.87 323.99 187.66 324.62
  Q 186.79 327.22 187.60 329.92
  C 187.91 330.96 187.92 332.17 187.44 333.17
  A 1.88 1.88 0.0 0 0 188.60 335.78
  Q 191.14 336.53 193.09 335.08
  Q 193.52 334.76 193.52 334.21
  L 193.52 328.82
  Q 193.52 328.37 193.86 328.06"
/>
<path stroke="#808080" vector-effect="non-scaling-stroke" d="
  M 245.75 399.04
  A 1.29 1.28 45.8 0 0 245.74 400.13
  Q 247.35 403.70 250.19 406.95
  Q 251.57 408.53 254.42 408.44
  C 256.68 408.37 258.93 408.40 261.12 407.95
  C 262.52 407.67 262.88 406.76 264.01 406.14
  C 266.50 404.76 267.22 401.10 267.81 398.35
  Q 268.06 397.19 267.73 396.20
  C 267.04 394.15 267.13 392.01 265.97 390.17
  Q 264.06 387.15 260.73 385.54
  Q 260.29 385.33 259.82 385.40
  C 258.29 385.62 257.32 384.23 256.02 385.14
  Q 255.54 385.48 254.95 385.46
  Q 251.76 385.34 250.18 386.93
  Q 246.81 390.34 245.61 396.74
  Q 245.50 397.29 245.75 397.79
  Q 246.06 398.39 245.75 399.04"
/>
<path stroke="#808080" vector-effect="non-scaling-stroke" d="
  M 336.32 403.54
  L 335.90 400.41
  Q 335.85 400.01 335.54 399.75
  C 333.04 397.67 330.72 399.55 330.45 402.28
  Q 330.25 404.27 328.45 404.36
  A 0.63 0.62 16.6 0 0 328.00 404.60
  Q 327.03 405.90 328.37 407.00
  Q 329.41 407.85 330.46 408.57
  Q 330.90 408.87 330.95 409.40
  Q 331.24 412.34 330.66 414.95
  Q 330.53 415.50 330.69 416.03
  Q 331.03 417.23 331.09 418.40
  A 3.10 3.09 88.6 0 0 334.17 421.34
  L 339.32 421.35
  A 1.52 1.51 -88.0 0 0 340.84 419.93
  Q 340.95 418.05 339.12 417.91
  C 336.64 417.72 336.07 414.70 336.25 412.73
  C 336.30 412.15 336.15 411.71 335.81 411.26
  A 0.91 0.90 39.9 0 1 335.72 410.31
  L 336.78 408.24
  Q 337.12 407.55 337.89 407.64
  C 339.48 407.82 340.68 406.25 340.23 404.79
  Q 340.05 404.23 339.46 404.22
  L 337.05 404.19
  Q 336.41 404.18 336.32 403.54"
/>
<path stroke="#808080" vector-effect="non-scaling-stroke" d="
  M 277.01 405.03
  L 276.50 403.54
  Q 276.29 402.95 275.68 402.76
  Q 274.55 402.40 273.35 402.75
  Q 272.65 402.96 272.73 403.69
  Q 272.89 405.08 271.75 405.87
  A 1.68 1.68 0.0 0 0 271.41 408.33
  Q 273.46 410.76 272.45 413.88
  Q 272.28 414.39 272.44 414.89
  L 273.69 418.84
  Q 273.90 419.49 274.58 419.45
  L 278.85 419.18
  A 1.20 1.20 0.0 0 0 279.79 417.34
  Q 278.93 415.99 277.42 415.44
  Q 276.87 415.24 276.88 414.65
  C 276.92 413.40 276.21 412.83 276.38 411.56
  Q 276.71 408.96 279.11 407.86
  A 0.83 0.83 0.0 0 0 279.12 406.35
  L 277.50 405.58
  Q 277.14 405.41 277.01 405.03"
/>
<path stroke="#808080" vector-effect="non-scaling-stroke" d="
  M 232.19 163.00
  A 0.41 0.40 -66.4 0 0 232.63 162.82
  Q 234.41 159.89 232.42 157.30
  Q 232.08 156.86 231.54 156.80
  Q 230.17 156.63 228.84 156.27
  C 226.31 155.59 223.65 155.84 221.03 155.25
  Q 219.11 154.82 217.08 155.01
  C 212.69 155.43 207.26 154.46 203.15 156.03
  Q 201.20 156.76 198.96 156.73
  C 196.78 156.70 194.92 157.96 192.71 158.22
  Q 190.44 158.50 188.14 159.47
  Q 183.60 161.38 178.78 163.42
  Q 174.34 165.30 170.27 168.07
  Q 164.96 171.69 160.21 175.07
  C 158.79 176.07 157.98 177.39 156.73 178.60
  Q 150.44 184.66 145.06 190.87
  C 143.11 193.12 141.54 195.76 139.86 198.27
  Q 139.03 199.50 140.30 200.25
  L 143.43 202.12
  Q 144.61 202.82 145.31 201.64
  C 146.35 199.90 147.08 198.12 148.38 196.55
  C 151.61 192.66 153.98 187.89 158.36 184.70
  C 159.30 184.01 159.70 183.01 160.49 182.32
  Q 168.26 175.60 176.73 170.18
  C 178.47 169.07 180.41 168.99 182.05 167.98
  Q 183.86 166.85 186.00 166.17
  C 190.46 164.75 194.47 163.06 199.19 162.15
  C 206.33 160.78 211.17 160.22 218.37 160.46
  C 220.55 160.54 221.98 162.01 224.25 161.98
  Q 227.95 161.93 232.19 163.00"
/>
<path stroke="#808080" vector-effect="non-scaling-stroke" d="
  M 217.70 268.65
  C 218.58 270.31 219.83 271.43 220.61 273.21
  C 221.53 275.33 223.45 276.33 224.96 277.95
  Q 228.38 281.58 232.08 285.26
  A 0.92 0.91 39.0 0 0 233.49 285.12
  C 234.91 282.94 234.14 278.05 233.83 275.49
  Q 233.71 274.49 233.98 273.52
  C 234.44 271.88 233.77 269.88 233.77 268.16
  Q 233.67 247.29 233.20 226.26
  C 233.08 220.95 233.78 215.67 233.29 210.42
  C 232.93 206.55 234.06 202.90 233.40 199.01
  Q 232.94 196.36 233.21 193.17
  C 233.94 184.67 233.60 176.08 233.26 167.36
  A 0.99 0.98 -82.4 0 0 232.58 166.46
  Q 218.22 161.63 203.24 164.44
  Q 201.80 164.71 198.56 165.34
  Q 192.71 166.48 186.60 168.80
  C 183.92 169.82 181.53 171.38 178.88 172.50
  Q 176.13 173.65 173.26 175.75
  Q 164.30 182.29 161.63 185.03
  Q 156.31 190.49 149.67 198.99
  Q 149.49 199.22 149.41 199.50
  Q 149.35 199.67 149.31 199.85
  Q 149.20 200.29 148.92 200.65
  L 146.42 203.82
  Q 146.02 204.33 146.34 204.89
  Q 148.42 208.55 150.18 209.86
  C 154.93 213.39 159.10 217.90 163.37 221.95
  C 164.14 222.68 164.75 223.71 165.70 224.03
  A 2.18 2.18 0.0 0 1 166.70 224.72
  C 170.51 229.40 175.55 232.43 179.64 236.86
  Q 182.96 240.45 184.78 241.76
  Q 190.92 246.18 193.76 250.81
  Q 194.03 251.25 194.50 251.45
  Q 198.47 253.11 200.02 255.34
  Q 201.65 257.67 203.90 259.20
  Q 204.28 259.46 204.47 259.88
  C 204.70 260.41 204.86 260.71 205.36 261.03
  Q 209.78 263.91 213.85 268.44
  Q 214.84 269.55 216.03 268.67
  Q 216.45 268.36 216.96 268.28
  Q 217.46 268.20 217.70 268.65"
/>
<path stroke="#808080" vector-effect="non-scaling-stroke" d="
  M 248.63 208.40
  C 263.16 212.33 274.30 218.45 285.12 228.86
  Q 289.16 232.75 293.59 239.84
  Q 295.28 242.54 297.96 240.83
  Q 299.26 240.00 300.54 239.05
  Q 302.52 237.58 300.83 235.79
  Q 299.06 233.90 297.87 231.66
  C 297.00 230.02 295.43 229.34 294.40 227.76
  C 292.45 224.76 289.23 222.09 286.61 219.64
  C 281.79 215.13 275.90 211.46 270.57 207.81
  Q 268.81 206.61 266.85 205.78
  Q 256.41 201.38 246.63 199.14
  C 244.25 198.60 241.91 198.80 239.57 198.10
  Q 237.26 197.41 236.89 199.79
  Q 236.48 202.44 237.36 205.26
  Q 237.73 206.46 238.96 206.73
  C 242.22 207.45 245.46 207.54 248.63 208.40"
/>
<path stroke="#808080" vector-effect="non-scaling-stroke" d="
  M 264.84 217.60
  Q 260.00 214.97 256.54 213.83
  Q 250.32 211.77 242.48 209.76
  Q 240.44 209.24 238.47 209.40
  Q 237.98 209.44 237.63 209.78
  C 236.02 211.34 236.69 212.94 236.68 214.87
  Q 236.61 234.36 237.09 254.45
  Q 237.17 257.63 237.13 260.84
  Q 237.10 263.92 237.26 267.01
  C 237.36 268.79 236.50 270.37 236.89 272.06
  C 237.70 275.60 237.27 280.10 237.24 283.62
  Q 237.23 284.15 236.90 284.56
  Q 236.60 284.91 236.48 285.31
  A 1.44 1.44 0.0 0 0 238.67 286.93
  C 241.18 285.20 243.69 283.65 246.00 281.58
  C 250.38 277.68 255.72 274.48 260.08 270.19
  Q 262.51 267.80 265.55 265.76
  Q 273.19 260.60 282.77 252.50
  Q 286.89 249.01 291.36 245.59
  Q 292.16 244.97 292.83 244.16
  Q 293.14 243.77 292.96 243.31
  Q 292.60 242.41 292.03 241.57
  Q 285.83 232.50 279.29 227.31
  Q 271.91 221.45 264.84 217.60"
/>
<path stroke="#808080" vector-effect="non-scaling-stroke" d="
  M 236.37 312.97
  Q 236.13 314.09 236.15 315.20
  Q 236.31 328.03 236.26 341.66
  Q 236.25 343.20 236.56 344.67
  C 236.90 346.23 236.17 347.29 236.28 348.79
  Q 236.33 349.56 236.41 350.41
  Q 236.65 353.09 239.27 352.46
  Q 241.69 351.87 244.26 352.06
  Q 244.78 352.09 245.25 351.88
  Q 247.24 350.96 249.48 350.98
  A 1.06 1.06 0.0 0 0 249.97 350.86
  L 259.11 346.12
  A 0.81 0.81 0.0 0 0 259.50 345.12
  Q 258.40 342.21 257.05 339.57
  C 256.80 339.09 256.45 338.84 255.94 338.66
  Q 255.34 338.46 255.11 337.87
  C 254.15 335.44 253.44 333.00 252.30 330.59
  Q 247.81 321.12 243.03 311.16
  C 241.15 307.26 239.74 303.36 237.31 299.76
  A 0.64 0.64 0.0 0 0 236.23 299.80
  C 235.28 301.40 236.26 302.86 236.24 304.56
  Q 236.22 307.22 236.52 310.13
  Q 236.66 311.58 236.37 312.97"
/>
<path stroke="#808080" vector-effect="non-scaling-stroke" d="
  M 170.11 121.49
  A 0.89 0.87 -78.3 0 1 170.60 122.25
  L 170.74 126.99
  Q 170.75 127.53 170.40 127.93
  Q 169.89 128.51 169.04 128.52
  Q 168.47 128.53 168.19 128.04
  Q 168.04 127.77 167.99 127.47
  Q 167.89 126.83 167.25 126.76
  Q 164.17 126.42 161.81 127.94
  Q 160.88 128.54 159.75 128.46
  Q 159.19 128.42 159.15 128.97
  Q 158.98 131.06 159.91 132.50
  C 160.93 134.07 162.60 134.03 164.00 135.11
  Q 164.45 135.45 165.01 135.41
  Q 169.81 135.01 171.23 130.52
  Q 172.67 125.97 171.62 121.37
  A 1.62 1.58 -74.0 0 0 171.21 120.61
  Q 170.74 120.12 170.61 119.36
  A 4.60 3.78 -87.0 0 0 168.14 116.02
  Q 166.73 115.46 165.15 114.91
  Q 164.45 114.66 163.84 115.07
  C 161.71 116.48 159.54 117.41 159.00 120.26
  Q 158.64 122.20 158.25 123.97
  Q 158.12 124.54 158.44 125.02
  Q 158.75 125.49 158.77 126.03
  Q 158.80 126.67 159.29 126.25
  C 160.12 125.53 159.65 124.02 159.38 123.13
  A 1.08 1.07 -31.6 0 1 159.64 122.06
  Q 160.10 121.58 160.72 121.34
  Q 161.28 121.13 161.70 121.55
  L 162.73 122.56
  Q 163.03 122.85 163.45 122.90
  Q 165.85 123.17 167.84 122.56
  Q 168.57 122.33 168.97 121.68
  Q 169.32 121.11 170.11 121.49"
/>
<path stroke="#808080" vector-effect="non-scaling-stroke" d="
  M 275.67 196.14
  C 277.96 197.84 282.56 195.60 283.54 193.25
  Q 285.97 187.40 284.38 181.32
  Q 283.92 179.57 282.76 178.53
  C 281.13 177.08 279.17 175.80 276.87 176.51
  C 274.17 177.36 271.92 179.20 271.60 182.08
  C 271.10 186.48 270.59 189.69 272.96 193.80
  C 273.62 194.94 274.66 195.40 275.67 196.14"
/>
<path stroke="#808080" vector-effect="non-scaling-stroke" d="
  M 275.30 188.32
  Q 277.79 187.23 279.93 187.82
  A 2.02 2.01 77.1 0 1 280.95 188.46
  Q 282.02 189.71 283.21 188.71
  A 1.55 1.54 59.7 0 0 283.66 186.99
  Q 283.05 185.39 282.98 183.71
  Q 282.92 182.45 281.94 183.25
  Q 281.55 183.57 281.17 183.91
  Q 280.81 184.23 280.29 184.32
  Q 276.20 184.97 274.07 182.99
  A 0.79 0.78 22.2 0 0 272.75 183.54
  L 272.70 185.95
  Q 272.69 186.43 272.48 186.86
  Q 271.86 188.16 272.89 189.47
  A 0.96 0.96 0.0 0 0 274.19 189.66
  Q 274.64 189.34 274.80 188.86
  Q 274.93 188.48 275.30 188.32"
/>
<path stroke="#808080" vector-effect="non-scaling-stroke" d="
  M 193.52 317.77
  L 193.56 321.81
  A 1.11 1.11 0.0 0 0 194.68 322.91
  L 196.75 322.88
  A 4.14 2.88 -0.6 0 0 200.86 319.96
  L 200.86 319.46
  A 4.14 2.88 -0.6 0 0 196.69 316.63
  L 194.62 316.65
  A 1.11 1.11 0.0 0 0 193.52 317.77"
/>
<path stroke="#808080" vector-effect="non-scaling-stroke" d="
  M 256.64 407.00
  Q 256.77 407.02 256.87 407.14
  Q 256.97 407.25 257.12 407.21
  Q 261.70 405.84 262.63 402.68
  Q 263.57 399.52 263.71 395.33
  C 263.76 393.86 263.11 392.79 262.88 391.41
  Q 262.72 390.38 262.05 389.61
  Q 258.25 385.23 253.80 387.66
  Q 251.08 389.14 250.47 391.54
  Q 248.76 398.23 251.01 403.16
  C 251.95 405.23 253.45 405.97 255.22 407.10
  Q 255.52 407.30 255.88 407.25
  Q 256.16 407.21 256.39 407.05
  Q 256.50 406.97 256.64 407.00"
/>
<path stroke="#808080" vector-effect="non-scaling-stroke" d="
  M 254.67 398.49
  Q 255.28 398.53 255.84 398.25
  A 3.70 3.20 53.6 0 1 259.88 399.16
  Q 260.66 399.98 261.84 399.18
  A 1.47 1.46 -28.8 0 0 262.36 397.40
  Q 261.64 395.72 261.65 393.99
  A 0.63 0.63 0.0 0 0 260.54 393.57
  L 259.85 394.38
  Q 259.53 394.75 259.05 394.77
  C 257.14 394.85 254.13 395.20 252.85 393.44
  Q 252.58 393.07 252.17 393.26
  Q 251.26 393.68 251.35 394.70
  Q 251.49 396.33 250.95 397.74
  C 250.51 398.88 251.36 400.03 252.55 400.03
  Q 253.11 400.03 253.40 399.55
  L 253.75 398.96
  Q 254.07 398.44 254.67 398.49"
/>
</g>
<path fill="#ffffff" d="
  M 0.00 0.00
  L 497.00 0.00
  L 497.00 478.00
  L 0.00 478.00
  L 0.00 0.00
  Z
  M 230.51 290.47
  Q 226.29 291.63 220.97 291.19
  Q 220.24 291.13 219.54 290.83
  C 218.60 290.42 218.20 291.07 217.40 291.01
  C 216.72 290.96 216.02 290.71 215.41 290.72
  Q 186.78 291.12 157.00 291.10
  C 151.94 291.10 146.91 290.74 141.84 290.72
  Q 109.70 290.65 78.86 291.03
  C 76.79 291.05 74.81 290.82 72.74 290.64
  Q 71.02 290.48 68.25 290.61
  Q 64.34 290.78 60.45 290.13
  Q 59.91 290.04 59.41 290.26
  L 56.88 291.40
  A 0.63 0.63 0.0 0 0 56.63 292.35
  L 57.25 293.19
  Q 57.70 293.81 58.43 293.57
  C 60.83 292.81 62.87 293.70 65.26 293.39
  C 69.58 292.82 73.75 293.80 78.02 293.79
  C 99.96 293.72 122.10 293.19 144.16 293.64
  Q 152.70 293.81 159.55 293.78
  Q 185.25 293.68 212.13 293.50
  C 219.04 293.46 225.90 293.91 232.82 293.71
  A 0.60 0.60 0.0 0 1 233.44 294.27
  C 233.57 295.96 234.20 297.40 234.16 299.12
  C 234.06 303.13 234.35 307.33 233.69 311.24
  C 233.27 313.76 234.35 315.68 234.05 318.21
  Q 233.88 319.72 234.01 321.10
  C 234.52 326.49 234.20 332.22 234.17 337.72
  C 234.15 339.76 234.53 341.72 234.28 343.76
  C 233.85 347.23 234.41 350.47 233.67 354.00
  Q 233.37 355.44 234.38 356.70
  Q 234.77 357.18 234.30 357.58
  Q 233.25 358.49 233.66 360.12
  Q 233.93 361.19 233.87 362.34
  Q 233.44 371.73 233.75 381.08
  C 233.77 381.71 234.09 382.16 234.10 382.77
  Q 234.21 388.53 234.23 394.13
  C 234.23 395.05 234.64 395.81 234.41 396.73
  Q 234.14 397.75 234.15 398.80
  Q 234.24 406.74 234.08 414.76
  C 234.04 416.61 234.66 418.43 234.33 420.24
  Q 233.88 422.76 234.56 425.16
  Q 234.74 425.80 234.46 426.40
  Q 233.70 427.97 235.12 428.77
  A 0.89 0.88 22.7 0 0 236.40 428.25
  Q 237.64 424.03 237.14 420.41
  Q 236.69 417.24 236.74 414.29
  C 236.84 408.51 237.17 402.27 236.38 396.84
  Q 236.22 395.76 236.38 394.64
  Q 236.97 390.58 236.23 386.50
  Q 235.88 384.56 236.42 377.71
  C 236.56 376.01 236.14 374.41 236.16 372.68
  Q 236.23 365.04 236.34 357.98
  A 2.74 2.73 -89.5 0 1 239.07 355.29
  Q 242.37 355.29 246.02 354.70
  C 251.00 353.89 255.22 351.35 259.77 349.30
  A 1.95 1.95 0.0 0 1 262.33 350.25
  C 263.68 353.15 265.34 355.88 266.04 358.97
  Q 266.63 361.56 267.90 363.64
  C 269.45 366.18 270.23 369.10 271.70 371.70
  Q 274.54 376.72 276.57 381.73
  C 277.27 383.48 278.53 384.61 279.32 386.27
  Q 282.23 392.39 284.80 398.70
  C 285.53 400.51 286.79 401.96 287.55 403.79
  Q 289.38 408.21 292.05 413.42
  Q 295.72 420.55 298.85 426.94
  C 299.48 428.23 300.59 429.29 300.88 430.70
  Q 301.16 432.03 301.91 433.23
  Q 303.41 435.61 304.35 438.35
  Q 304.52 438.84 304.12 439.17
  Q 303.71 439.51 303.19 439.65
  Q 302.77 439.76 302.38 439.55
  Q 301.05 438.83 299.53 439.05
  A 0.37 0.37 0.0 0 0 299.25 439.57
  C 300.60 442.64 303.10 444.32 304.76 447.14
  C 306.54 450.19 309.30 452.46 311.23 455.56
  Q 313.38 459.02 315.95 462.40
  C 316.51 463.13 317.20 463.51 318.06 463.80
  Q 319.03 464.11 319.03 463.10
  C 319.04 460.49 318.30 457.81 317.16 455.50
  Q 316.10 453.33 315.77 450.99
  C 315.55 449.44 314.16 448.15 313.70 446.55
  Q 313.22 444.84 312.44 443.24
  Q 311.81 441.95 311.73 440.48
  Q 311.56 437.34 310.50 433.89
  A 0.56 0.56 0.0 0 0 309.73 433.55
  L 307.84 434.45
  A 1.04 1.04 0.0 0 1 306.41 433.83
  C 305.26 430.33 303.24 427.51 301.85 424.14
  C 300.87 421.77 298.77 419.45 298.18 417.02
  Q 297.87 415.74 297.04 414.74
  Q 295.81 413.24 294.98 411.16
  Q 292.59 405.15 289.35 398.96
  Q 287.70 395.82 286.70 392.81
  C 285.39 388.87 283.09 386.00 281.56 382.25
  Q 280.43 379.47 278.78 376.62
  Q 275.97 371.76 273.78 366.08
  C 273.21 364.60 271.92 363.62 271.48 362.12
  Q 271.02 360.51 270.65 358.61
  Q 270.29 356.74 269.30 355.11
  Q 265.82 349.38 262.16 341.49
  Q 260.25 337.38 258.08 333.14
  Q 255.99 329.08 253.87 324.81
  Q 249.98 316.98 246.44 309.17
  C 244.22 304.27 240.99 299.83 239.40 294.51
  A 0.95 0.94 81.8 0 1 240.31 293.29
  Q 244.89 293.31 249.47 293.75
  C 251.91 293.98 254.15 293.47 256.60 293.58
  Q 258.47 293.68 260.40 293.66
  Q 280.08 293.54 299.75 293.82
  C 319.41 294.09 338.83 293.58 358.75 293.59
  C 364.11 293.60 369.43 293.94 374.80 293.90
  Q 405.26 293.65 437.34 293.50
  C 441.84 293.48 446.05 294.80 450.64 293.83
  Q 451.12 293.72 451.37 293.33
  Q 451.95 292.41 450.52 291.48
  A 1.89 1.82 60.1 0 0 449.48 291.18
  C 444.92 291.25 440.33 290.71 435.88 290.73
  Q 410.47 290.82 385.26 291.08
  Q 378.39 291.15 365.26 290.85
  C 353.14 290.58 341.03 291.14 328.98 291.10
  Q 322.19 291.07 315.91 291.08
  Q 314.47 291.08 312.96 291.09
  Q 299.03 291.18 285.25 290.90
  C 271.02 290.62 257.17 291.19 242.46 291.13
  Q 242.08 291.13 241.76 290.84
  A 0.48 0.48 0.0 0 1 241.74 290.14
  Q 245.02 286.86 248.83 284.66
  C 251.94 282.86 254.49 280.06 257.52 278.08
  Q 260.73 276.00 263.56 273.37
  Q 266.24 270.87 269.41 268.56
  Q 273.98 265.23 278.46 261.89
  C 280.02 260.72 281.13 259.26 282.75 258.28
  Q 284.48 257.24 285.90 255.83
  Q 288.96 252.80 292.33 250.74
  Q 294.62 249.35 296.72 247.66
  C 299.12 245.74 301.52 243.38 304.30 242.09
  Q 306.18 241.21 306.95 239.29
  Q 307.18 238.72 307.79 238.65
  Q 308.96 238.52 309.80 237.62
  Q 312.63 234.54 315.93 232.40
  C 319.88 229.84 323.29 226.54 327.20 223.80
  C 328.71 222.74 329.53 221.25 331.38 220.61
  A 1.91 1.91 0.0 0 0 332.23 220.01
  C 333.02 219.07 333.68 218.31 334.74 217.64
  Q 337.38 215.98 339.87 213.93
  Q 342.26 211.96 344.83 210.27
  C 348.69 207.74 352.27 204.76 356.09 202.10
  Q 358.36 200.51 360.52 198.49
  Q 363.66 195.54 367.49 193.02
  C 371.06 190.68 373.84 188.47 377.06 186.27
  C 379.99 184.27 382.05 181.60 385.16 179.69
  C 387.91 178.01 389.71 175.47 392.62 173.99
  C 393.93 173.32 394.51 171.85 395.84 171.03
  C 398.05 169.67 400.13 168.28 401.91 166.40
  Q 403.49 164.75 405.49 163.79
  C 407.14 163.00 407.40 161.55 408.79 160.61
  Q 412.69 157.95 416.07 155.09
  C 417.03 154.28 418.29 154.00 419.49 154.37
  A 0.93 0.93 0.0 0 0 420.58 153.94
  Q 422.50 150.58 425.14 147.84
  Q 427.87 145.01 430.25 142.22
  Q 433.37 138.57 436.67 135.67
  Q 437.36 135.06 437.16 134.17
  A 0.56 0.56 0.0 0 0 436.34 133.80
  Q 427.43 138.76 418.16 143.40
  C 417.32 143.82 416.43 143.65 415.65 144.23
  Q 414.19 145.31 412.59 145.73
  Q 410.17 146.35 412.30 147.65
  Q 413.24 148.21 414.25 148.69
  Q 414.83 148.97 414.56 149.55
  Q 413.61 151.54 412.27 152.56
  Q 403.59 159.18 395.12 166.07
  C 394.08 166.92 392.86 166.99 392.02 168.11
  C 390.55 170.06 387.82 171.68 385.80 173.06
  C 383.76 174.44 381.68 176.69 379.14 178.10
  Q 378.69 178.35 378.42 178.77
  Q 377.75 179.79 377.33 180.14
  Q 373.96 182.92 371.23 184.71
  Q 367.58 187.09 364.61 189.45
  Q 351.82 199.61 339.55 208.55
  Q 339.02 208.93 338.65 209.56
  C 338.08 210.52 336.32 210.72 335.35 211.50
  Q 330.44 215.45 325.22 219.27
  Q 319.23 223.65 314.05 228.06
  C 311.95 229.85 309.27 231.18 307.59 233.41
  Q 306.09 235.39 303.47 234.87
  Q 302.96 234.77 302.66 234.34
  Q 297.37 226.53 290.40 219.48
  C 286.68 215.71 282.46 212.60 278.21 209.60
  Q 264.40 199.81 243.24 196.05
  Q 240.95 195.64 238.68 194.95
  Q 236.43 194.26 236.69 191.87
  Q 237.01 188.98 236.85 186.22
  C 236.73 184.08 237.58 182.06 237.20 179.93
  Q 236.80 177.77 236.79 175.48
  C 236.78 172.93 236.46 170.39 236.63 167.92
  C 236.94 163.31 236.33 158.70 236.38 154.06
  C 236.51 140.50 236.94 127.19 236.75 113.75
  Q 236.59 102.62 236.32 91.86
  C 236.29 90.50 236.92 89.26 236.50 87.98
  Q 236.33 87.46 236.33 86.91
  L 236.21 65.78
  Q 236.21 65.28 235.92 64.87
  L 235.68 64.52
  A 0.68 0.68 0.0 0 1 235.84 63.59
  L 236.36 63.20
  A 1.03 1.02 -18.7 0 0 236.77 62.38
  L 236.75 59.77
  Q 236.75 59.01 237.45 59.30
  Q 239.11 59.98 240.58 61.34
  Q 242.63 63.23 242.45 60.44
  Q 242.32 58.35 240.95 56.63
  Q 240.58 56.16 240.49 55.56
  Q 239.58 49.27 237.34 42.92
  Q 236.97 41.88 236.41 40.92
  A 0.88 0.87 39.5 0 0 234.83 41.07
  Q 233.68 44.40 233.62 48.05
  Q 233.61 48.55 233.27 48.91
  C 232.41 49.80 232.62 51.03 232.22 52.17
  Q 230.66 56.66 229.60 61.48
  Q 229.45 62.18 230.15 62.05
  Q 230.72 61.95 231.19 61.62
  Q 231.68 61.27 232.27 61.38
  Q 232.75 61.47 233.16 61.74
  Q 233.67 62.09 233.55 62.69
  Q 232.80 66.47 232.91 70.99
  Q 233.03 75.67 233.02 77.55
  Q 233.00 83.08 233.05 88.50
  Q 233.23 108.65 233.45 127.05
  C 233.54 135.00 233.12 143.65 233.07 151.86
  A 1.77 1.76 2.1 0 1 231.18 153.61
  Q 226.26 153.25 221.32 152.56
  Q 217.81 152.07 213.16 152.09
  Q 207.40 152.12 205.00 152.62
  Q 198.87 153.89 192.66 155.35
  C 189.95 155.99 187.33 157.10 184.66 157.92
  C 179.82 159.40 173.90 161.93 169.78 165.24
  C 168.00 166.67 165.95 167.32 164.08 168.73
  Q 154.01 176.31 146.76 184.78
  Q 142.07 190.25 138.83 196.07
  Q 137.94 197.66 136.61 196.42
  Q 132.89 192.99 129.02 189.99
  Q 125.03 186.89 121.68 183.55
  Q 113.65 175.54 106.62 169.81
  Q 103.48 167.25 101.04 164.34
  C 98.77 161.63 96.02 159.99 93.44 157.81
  Q 88.87 153.96 84.67 148.68
  Q 82.83 146.36 79.80 144.89
  Q 79.46 144.73 79.09 144.80
  Q 77.40 145.12 76.21 146.21
  A 1.18 1.18 0.0 0 0 76.13 147.87
  Q 78.39 150.37 81.15 152.46
  C 82.12 153.20 82.65 154.27 83.74 154.93
  C 86.34 156.49 87.65 159.00 89.98 160.84
  Q 97.17 166.49 103.39 173.11
  C 104.81 174.63 106.72 175.28 108.19 176.89
  C 112.06 181.15 116.53 184.58 120.75 188.72
  Q 123.56 191.48 127.01 194.30
  Q 130.71 197.33 134.63 201.67
  C 136.07 203.27 138.23 203.98 139.75 205.58
  Q 142.97 208.96 146.21 212.51
  Q 147.74 214.19 149.67 215.49
  C 153.88 218.34 155.91 223.11 160.40 225.76
  Q 163.96 227.85 166.61 231.40
  Q 168.05 233.34 170.31 235.04
  Q 176.24 239.51 181.19 244.86
  C 182.55 246.33 184.39 246.41 185.63 248.14
  Q 186.57 249.46 187.80 250.52
  Q 191.54 253.75 195.02 256.88
  C 198.50 260.01 201.20 263.55 205.23 266.19
  Q 206.47 267.01 206.95 268.47
  A 1.18 1.17 86.1 0 0 207.84 269.25
  Q 208.73 269.42 209.33 270.17
  Q 209.66 270.58 210.13 270.81
  Q 211.46 271.46 211.82 273.11
  Q 211.92 273.56 211.52 273.78
  L 209.35 274.98
  Q 207.86 275.80 209.41 276.50
  Q 214.66 278.87 219.20 281.12
  Q 222.27 282.64 224.16 284.34
  Q 227.49 287.32 230.61 289.99
  A 0.28 0.28 0.0 0 1 230.51 290.47
  Z
  M 273.36 96.57
  Q 274.04 93.02 273.66 89.42
  A 1.18 1.17 65.5 0 1 274.01 88.47
  L 275.81 86.75
  Q 276.21 86.37 276.71 86.59
  C 280.79 88.33 278.85 91.86 279.90 95.04
  Q 280.13 95.74 279.95 96.46
  L 279.35 98.84
  A 1.06 1.06 0.0 0 0 279.62 99.83
  C 281.63 101.88 285.85 101.58 285.28 97.83
  Q 284.45 92.32 284.02 86.89
  Q 283.97 86.25 283.55 85.75
  L 281.74 83.62
  Q 281.38 83.19 280.83 83.04
  Q 279.64 82.73 278.45 82.75
  C 276.00 82.77 274.78 85.08 272.08 83.54
  Q 271.64 83.29 271.12 83.37
  C 269.62 83.62 268.54 84.25 268.51 85.90
  Q 268.38 93.39 268.58 100.26
  A 0.76 0.76 0.0 0 0 269.71 100.90
  Q 270.95 100.22 272.34 100.55
  A 0.89 0.88 23.4 0 0 273.28 100.18
  L 274.13 98.86
  A 0.83 0.82 -47.8 0 0 274.09 97.88
  L 273.51 97.15
  Q 273.30 96.89 273.36 96.57
  Z
  M 166.88 113.22
  Q 166.05 112.81 165.25 113.31
  Q 164.74 113.63 164.14 113.54
  Q 161.82 113.19 160.05 114.36
  C 158.17 115.61 154.71 118.44 154.50 121.01
  C 154.30 123.47 153.39 125.40 154.11 127.92
  Q 155.25 131.93 157.27 134.26
  Q 159.19 136.49 163.12 137.26
  Q 164.27 137.48 165.33 137.26
  C 167.38 136.82 169.16 137.39 170.91 135.95
  Q 176.36 131.47 176.32 126.21
  Q 176.25 118.27 169.84 114.19
  Q 168.84 113.55 167.76 113.46
  Q 167.29 113.43 166.88 113.22
  Z
  M 183.94 129.28
  A 1.27 1.27 0.0 0 0 183.15 130.03
  L 182.81 130.90
  A 1.27 1.27 0.0 0 0 183.90 132.62
  L 185.60 132.76
  A 1.27 1.27 0.0 0 0 186.96 131.35
  L 186.80 129.95
  A 1.27 1.27 0.0 0 0 185.15 128.89
  L 183.94 129.28
  Z
  M 186.66 144.92
  Q 187.09 141.81 186.41 138.76
  Q 186.27 138.13 186.51 137.53
  Q 187.03 136.26 186.46 135.15
  A 1.67 1.67 0.0 0 0 183.59 134.97
  Q 181.35 138.29 182.28 142.63
  Q 182.41 143.21 182.26 143.78
  Q 181.85 145.43 182.88 147.38
  Q 183.06 147.72 183.41 147.86
  Q 185.71 148.76 187.15 146.73
  Q 187.52 146.21 186.97 145.74
  A 0.91 0.90 -66.3 0 1 186.66 144.92
  Z
  M 69.63 167.76
  L 73.21 167.36
  A 0.81 0.81 0.0 0 0 73.92 166.46
  L 73.76 165.00
  A 2.40 1.60 -6.4 0 0 71.19 163.68
  L 70.78 163.73
  A 2.40 1.60 -6.4 0 0 68.57 165.58
  L 68.73 167.04
  A 0.81 0.81 0.0 0 0 69.63 167.76
  Z
  M 68.88 173.81
  Q 68.18 175.51 68.68 177.26
  C 69.50 180.12 68.82 182.25 68.51 185.05
  A 2.61 2.61 0.0 0 0 70.83 187.93
  Q 72.87 188.15 73.97 186.27
  Q 74.24 185.80 74.13 185.27
  Q 73.49 182.13 74.16 178.95
  C 74.29 178.32 73.74 177.57 73.76 176.69
  Q 73.83 174.25 73.70 171.73
  Q 73.67 171.17 73.21 170.87
  Q 71.14 169.52 69.53 170.75
  Q 68.30 171.71 68.88 173.14
  Q 69.02 173.48 68.88 173.81
  Z
  M 288.35 191.01
  Q 288.68 189.19 289.31 187.50
  Q 289.49 187.01 289.30 186.52
  C 288.44 184.22 288.54 181.54 287.16 179.47
  Q 284.52 175.51 280.30 174.76
  C 278.18 174.37 276.26 174.81 274.21 175.18
  C 271.35 175.69 270.04 178.06 268.85 180.42
  Q 264.13 189.76 271.92 196.75
  C 273.24 197.94 274.55 198.11 276.24 198.06
  Q 279.02 197.98 281.86 197.58
  Q 283.16 197.39 284.35 196.54
  C 286.39 195.09 287.88 193.60 288.35 191.01
  Z
  M 418.19 178.51
  Q 415.51 177.88 413.22 178.89
  Q 412.78 179.08 412.77 179.57
  Q 412.67 184.66 412.80 190.20
  Q 412.84 191.79 412.51 193.36
  A 0.89 0.88 -60.5 0 0 412.72 194.13
  Q 414.51 196.08 417.08 195.03
  Q 417.59 194.82 417.75 194.30
  L 418.35 192.32
  Q 418.52 191.76 418.36 191.18
  Q 417.16 186.87 419.26 182.39
  Q 419.48 181.93 419.95 181.74
  L 423.44 180.32
  Q 424.29 179.97 424.24 179.06
  L 424.20 178.25
  Q 424.14 176.91 422.81 177.13
  Q 420.68 177.49 418.83 178.44
  Q 418.53 178.59 418.19 178.51
  Z
  M 298.52 190.41
  Q 296.75 189.86 295.00 190.36
  Q 294.50 190.50 294.49 191.01
  Q 294.34 195.87 294.64 200.05
  Q 294.77 201.82 296.09 202.80
  A 1.67 1.66 -73.8 0 0 298.74 201.34
  Q 298.68 200.56 299.06 199.84
  Q 299.40 199.21 298.89 198.70
  Q 298.20 198.00 298.90 197.21
  A 1.49 1.46 -25.6 0 0 299.26 196.22
  L 299.23 194.53
  Q 299.22 193.96 299.73 193.72
  L 303.05 192.12
  Q 304.20 191.56 303.92 190.32
  Q 303.82 189.87 303.46 189.51
  A 0.87 0.86 56.8 0 0 302.54 189.31
  L 299.66 190.38
  Q 299.10 190.59 298.52 190.41
  Z
  M 193.86 328.06
  Q 195.18 326.87 196.90 327.04
  Q 202.17 327.58 205.58 324.48
  Q 206.05 324.05 206.00 323.41
  C 205.84 320.94 207.18 318.76 206.15 316.39
  Q 205.41 314.67 203.72 313.42
  Q 202.40 312.44 200.61 312.49
  Q 195.22 312.64 189.99 312.49
  C 187.75 312.43 186.83 314.60 187.47 316.48
  Q 188.23 318.76 187.30 321.08
  Q 187.09 321.61 187.27 322.15
  L 187.66 323.36
  Q 187.87 323.99 187.66 324.62
  Q 186.79 327.22 187.60 329.92
  C 187.91 330.96 187.92 332.17 187.44 333.17
  A 1.88 1.88 0.0 0 0 188.60 335.78
  Q 191.14 336.53 193.09 335.08
  Q 193.52 334.76 193.52 334.21
  L 193.52 328.82
  Q 193.52 328.37 193.86 328.06
  Z
  M 245.75 399.04
  A 1.29 1.28 45.8 0 0 245.74 400.13
  Q 247.35 403.70 250.19 406.95
  Q 251.57 408.53 254.42 408.44
  C 256.68 408.37 258.93 408.40 261.12 407.95
  C 262.52 407.67 262.88 406.76 264.01 406.14
  C 266.50 404.76 267.22 401.10 267.81 398.35
  Q 268.06 397.19 267.73 396.20
  C 267.04 394.15 267.13 392.01 265.97 390.17
  Q 264.06 387.15 260.73 385.54
  Q 260.29 385.33 259.82 385.40
  C 258.29 385.62 257.32 384.23 256.02 385.14
  Q 255.54 385.48 254.95 385.46
  Q 251.76 385.34 250.18 386.93
  Q 246.81 390.34 245.61 396.74
  Q 245.50 397.29 245.75 397.79
  Q 246.06 398.39 245.75 399.04
  Z
  M 336.32 403.54
  L 335.90 400.41
  Q 335.85 400.01 335.54 399.75
  C 333.04 397.67 330.72 399.55 330.45 402.28
  Q 330.25 404.27 328.45 404.36
  A 0.63 0.62 16.6 0 0 328.00 404.60
  Q 327.03 405.90 328.37 407.00
  Q 329.41 407.85 330.46 408.57
  Q 330.90 408.87 330.95 409.40
  Q 331.24 412.34 330.66 414.95
  Q 330.53 415.50 330.69 416.03
  Q 331.03 417.23 331.09 418.40
  A 3.10 3.09 88.6 0 0 334.17 421.34
  L 339.32 421.35
  A 1.52 1.51 -88.0 0 0 340.84 419.93
  Q 340.95 418.05 339.12 417.91
  C 336.64 417.72 336.07 414.70 336.25 412.73
  C 336.30 412.15 336.15 411.71 335.81 411.26
  A 0.91 0.90 39.9 0 1 335.72 410.31
  L 336.78 408.24
  Q 337.12 407.55 337.89 407.64
  C 339.48 407.82 340.68 406.25 340.23 404.79
  Q 340.05 404.23 339.46 404.22
  L 337.05 404.19
  Q 336.41 404.18 336.32 403.54
  Z
  M 277.01 405.03
  L 276.50 403.54
  Q 276.29 402.95 275.68 402.76
  Q 274.55 402.40 273.35 402.75
  Q 272.65 402.96 272.73 403.69
  Q 272.89 405.08 271.75 405.87
  A 1.68 1.68 0.0 0 0 271.41 408.33
  Q 273.46 410.76 272.45 413.88
  Q 272.28 414.39 272.44 414.89
  L 273.69 418.84
  Q 273.90 419.49 274.58 419.45
  L 278.85 419.18
  A 1.20 1.20 0.0 0 0 279.79 417.34
  Q 278.93 415.99 277.42 415.44
  Q 276.87 415.24 276.88 414.65
  C 276.92 413.40 276.21 412.83 276.38 411.56
  Q 276.71 408.96 279.11 407.86
  A 0.83 0.83 0.0 0 0 279.12 406.35
  L 277.50 405.58
  Q 277.14 405.41 277.01 405.03
  Z"
/>
<path fill="#000000" d="
  M 230.51 290.47
  A 0.28 0.28 0.0 0 0 230.61 289.99
  Q 227.49 287.32 224.16 284.34
  Q 222.27 282.64 219.20 281.12
  Q 214.66 278.87 209.41 276.50
  Q 207.86 275.80 209.35 274.98
  L 211.52 273.78
  Q 211.92 273.56 211.82 273.11
  Q 211.46 271.46 210.13 270.81
  Q 209.66 270.58 209.33 270.17
  Q 208.73 269.42 207.84 269.25
  A 1.18 1.17 86.1 0 1 206.95 268.47
  Q 206.47 267.01 205.23 266.19
  C 201.20 263.55 198.50 260.01 195.02 256.88
  Q 191.54 253.75 187.80 250.52
  Q 186.57 249.46 185.63 248.14
  C 184.39 246.41 182.55 246.33 181.19 244.86
  Q 176.24 239.51 170.31 235.04
  Q 168.05 233.34 166.61 231.40
  Q 163.96 227.85 160.40 225.76
  C 155.91 223.11 153.88 218.34 149.67 215.49
  Q 147.74 214.19 146.21 212.51
  Q 142.97 208.96 139.75 205.58
  C 138.23 203.98 136.07 203.27 134.63 201.67
  Q 130.71 197.33 127.01 194.30
  Q 123.56 191.48 120.75 188.72
  C 116.53 184.58 112.06 181.15 108.19 176.89
  C 106.72 175.28 104.81 174.63 103.39 173.11
  Q 97.17 166.49 89.98 160.84
  C 87.65 159.00 86.34 156.49 83.74 154.93
  C 82.65 154.27 82.12 153.20 81.15 152.46
  Q 78.39 150.37 76.13 147.87
  A 1.18 1.18 0.0 0 1 76.21 146.21
  Q 77.40 145.12 79.09 144.80
  Q 79.46 144.73 79.80 144.89
  Q 82.83 146.36 84.67 148.68
  Q 88.87 153.96 93.44 157.81
  C 96.02 159.99 98.77 161.63 101.04 164.34
  Q 103.48 167.25 106.62 169.81
  Q 113.65 175.54 121.68 183.55
  Q 125.03 186.89 129.02 189.99
  Q 132.89 192.99 136.61 196.42
  Q 137.94 197.66 138.83 196.07
  Q 142.07 190.25 146.76 184.78
  Q 154.01 176.31 164.08 168.73
  C 165.95 167.32 168.00 166.67 169.78 165.24
  C 173.90 161.93 179.82 159.40 184.66 157.92
  C 187.33 157.10 189.95 155.99 192.66 155.35
  Q 198.87 153.89 205.00 152.62
  Q 207.40 152.12 213.16 152.09
  Q 217.81 152.07 221.32 152.56
  Q 226.26 153.25 231.18 153.61
  A 1.77 1.76 2.1 0 0 233.07 151.86
  C 233.12 143.65 233.54 135.00 233.45 127.05
  Q 233.23 108.65 233.05 88.50
  Q 233.00 83.08 233.02 77.55
  Q 233.03 75.67 232.91 70.99
  Q 232.80 66.47 233.55 62.69
  Q 233.67 62.09 233.16 61.74
  Q 232.75 61.47 232.27 61.38
  Q 231.68 61.27 231.19 61.62
  Q 230.72 61.95 230.15 62.05
  Q 229.45 62.18 229.60 61.48
  Q 230.66 56.66 232.22 52.17
  C 232.62 51.03 232.41 49.80 233.27 48.91
  Q 233.61 48.55 233.62 48.05
  Q 233.68 44.40 234.83 41.07
  A 0.88 0.87 39.5 0 1 236.41 40.92
  Q 236.97 41.88 237.34 42.92
  Q 239.58 49.27 240.49 55.56
  Q 240.58 56.16 240.95 56.63
  Q 242.32 58.35 242.45 60.44
  Q 242.63 63.23 240.58 61.34
  Q 239.11 59.98 237.45 59.30
  Q 236.75 59.01 236.75 59.77
  L 236.77 62.38
  A 1.03 1.02 -18.7 0 1 236.36 63.20
  L 235.84 63.59
  A 0.68 0.68 0.0 0 0 235.68 64.52
  L 235.92 64.87
  Q 236.21 65.28 236.21 65.78
  L 236.33 86.91
  Q 236.33 87.46 236.50 87.98
  C 236.92 89.26 236.29 90.50 236.32 91.86
  Q 236.59 102.62 236.75 113.75
  C 236.94 127.19 236.51 140.50 236.38 154.06
  C 236.33 158.70 236.94 163.31 236.63 167.92
  C 236.46 170.39 236.78 172.93 236.79 175.48
  Q 236.80 177.77 237.20 179.93
  C 237.58 182.06 236.73 184.08 236.85 186.22
  Q 237.01 188.98 236.69 191.87
  Q 236.43 194.26 238.68 194.95
  Q 240.95 195.64 243.24 196.05
  Q 264.40 199.81 278.21 209.60
  C 282.46 212.60 286.68 215.71 290.40 219.48
  Q 297.37 226.53 302.66 234.34
  Q 302.96 234.77 303.47 234.87
  Q 306.09 235.39 307.59 233.41
  C 309.27 231.18 311.95 229.85 314.05 228.06
  Q 319.23 223.65 325.22 219.27
  Q 330.44 215.45 335.35 211.50
  C 336.32 210.72 338.08 210.52 338.65 209.56
  Q 339.02 208.93 339.55 208.55
  Q 351.82 199.61 364.61 189.45
  Q 367.58 187.09 371.23 184.71
  Q 373.96 182.92 377.33 180.14
  Q 377.75 179.79 378.42 178.77
  Q 378.69 178.35 379.14 178.10
  C 381.68 176.69 383.76 174.44 385.80 173.06
  C 387.82 171.68 390.55 170.06 392.02 168.11
  C 392.86 166.99 394.08 166.92 395.12 166.07
  Q 403.59 159.18 412.27 152.56
  Q 413.61 151.54 414.56 149.55
  Q 414.83 148.97 414.25 148.69
  Q 413.24 148.21 412.30 147.65
  Q 410.17 146.35 412.59 145.73
  Q 414.19 145.31 415.65 144.23
  C 416.43 143.65 417.32 143.82 418.16 143.40
  Q 427.43 138.76 436.34 133.80
  A 0.56 0.56 0.0 0 1 437.16 134.17
  Q 437.36 135.06 436.67 135.67
  Q 433.37 138.57 430.25 142.22
  Q 427.87 145.01 425.14 147.84
  Q 422.50 150.58 420.58 153.94
  A 0.93 0.93 0.0 0 1 419.49 154.37
  C 418.29 154.00 417.03 154.28 416.07 155.09
  Q 412.69 157.95 408.79 160.61
  C 407.40 161.55 407.14 163.00 405.49 163.79
  Q 403.49 164.75 401.91 166.40
  C 400.13 168.28 398.05 169.67 395.84 171.03
  C 394.51 171.85 393.93 173.32 392.62 173.99
  C 389.71 175.47 387.91 178.01 385.16 179.69
  C 382.05 181.60 379.99 184.27 377.06 186.27
  C 373.84 188.47 371.06 190.68 367.49 193.02
  Q 363.66 195.54 360.52 198.49
  Q 358.36 200.51 356.09 202.10
  C 352.27 204.76 348.69 207.74 344.83 210.27
  Q 342.26 211.96 339.87 213.93
  Q 337.38 215.98 334.74 217.64
  C 333.68 218.31 333.02 219.07 332.23 220.01
  A 1.91 1.91 0.0 0 1 331.38 220.61
  C 329.53 221.25 328.71 222.74 327.20 223.80
  C 323.29 226.54 319.88 229.84 315.93 232.40
  Q 312.63 234.54 309.80 237.62
  Q 308.96 238.52 307.79 238.65
  Q 307.18 238.72 306.95 239.29
  Q 306.18 241.21 304.30 242.09
  C 301.52 243.38 299.12 245.74 296.72 247.66
  Q 294.62 249.35 292.33 250.74
  Q 288.96 252.80 285.90 255.83
  Q 284.48 257.24 282.75 258.28
  C 281.13 259.26 280.02 260.72 278.46 261.89
  Q 273.98 265.23 269.41 268.56
  Q 266.24 270.87 263.56 273.37
  Q 260.73 276.00 257.52 278.08
  C 254.49 280.06 251.94 282.86 248.83 284.66
  Q 245.02 286.86 241.74 290.14
  A 0.48 0.48 0.0 0 0 241.76 290.84
  Q 242.08 291.13 242.46 291.13
  C 257.17 291.19 271.02 290.62 285.25 290.90
  Q 299.03 291.18 312.96 291.09
  Q 314.47 291.08 315.91 291.08
  Q 322.19 291.07 328.98 291.10
  C 341.03 291.14 353.14 290.58 365.26 290.85
  Q 378.39 291.15 385.26 291.08
  Q 410.47 290.82 435.88 290.73
  C 440.33 290.71 444.92 291.25 449.48 291.18
  A 1.89 1.82 60.1 0 1 450.52 291.48
  Q 451.95 292.41 451.37 293.33
  Q 451.12 293.72 450.64 293.83
  C 446.05 294.80 441.84 293.48 437.34 293.50
  Q 405.26 293.65 374.80 293.90
  C 369.43 293.94 364.11 293.60 358.75 293.59
  C 338.83 293.58 319.41 294.09 299.75 293.82
  Q 280.08 293.54 260.40 293.66
  Q 258.47 293.68 256.60 293.58
  C 254.15 293.47 251.91 293.98 249.47 293.75
  Q 244.89 293.31 240.31 293.29
  A 0.95 0.94 81.8 0 0 239.40 294.51
  C 240.99 299.83 244.22 304.27 246.44 309.17
  Q 249.98 316.98 253.87 324.81
  Q 255.99 329.08 258.08 333.14
  Q 260.25 337.38 262.16 341.49
  Q 265.82 349.38 269.30 355.11
  Q 270.29 356.74 270.65 358.61
  Q 271.02 360.51 271.48 362.12
  C 271.92 363.62 273.21 364.60 273.78 366.08
  Q 275.97 371.76 278.78 376.62
  Q 280.43 379.47 281.56 382.25
  C 283.09 386.00 285.39 388.87 286.70 392.81
  Q 287.70 395.82 289.35 398.96
  Q 292.59 405.15 294.98 411.16
  Q 295.81 413.24 297.04 414.74
  Q 297.87 415.74 298.18 417.02
  C 298.77 419.45 300.87 421.77 301.85 424.14
  C 303.24 427.51 305.26 430.33 306.41 433.83
  A 1.04 1.04 0.0 0 0 307.84 434.45
  L 309.73 433.55
  A 0.56 0.56 0.0 0 1 310.50 433.89
  Q 311.56 437.34 311.73 440.48
  Q 311.81 441.95 312.44 443.24
  Q 313.22 444.84 313.70 446.55
  C 314.16 448.15 315.55 449.44 315.77 450.99
  Q 316.10 453.33 317.16 455.50
  C 318.30 457.81 319.04 460.49 319.03 463.10
  Q 319.03 464.11 318.06 463.80
  C 317.20 463.51 316.51 463.13 315.95 462.40
  Q 313.38 459.02 311.23 455.56
  C 309.30 452.46 306.54 450.19 304.76 447.14
  C 303.10 444.32 300.60 442.64 299.25 439.57
  A 0.37 0.37 0.0 0 1 299.53 439.05
  Q 301.05 438.83 302.38 439.55
  Q 302.77 439.76 303.19 439.65
  Q 303.71 439.51 304.12 439.17
  Q 304.52 438.84 304.35 438.35
  Q 303.41 435.61 301.91 433.23
  Q 301.16 432.03 300.88 430.70
  C 300.59 429.29 299.48 428.23 298.85 426.94
  Q 295.72 420.55 292.05 413.42
  Q 289.38 408.21 287.55 403.79
  C 286.79 401.96 285.53 400.51 284.80 398.70
  Q 282.23 392.39 279.32 386.27
  C 278.53 384.61 277.27 383.48 276.57 381.73
  Q 274.54 376.72 271.70 371.70
  C 270.23 369.10 269.45 366.18 267.90 363.64
  Q 266.63 361.56 266.04 358.97
  C 265.34 355.88 263.68 353.15 262.33 350.25
  A 1.95 1.95 0.0 0 0 259.77 349.30
  C 255.22 351.35 251.00 353.89 246.02 354.70
  Q 242.37 355.29 239.07 355.29
  A 2.74 2.73 -89.5 0 0 236.34 357.98
  Q 236.23 365.04 236.16 372.68
  C 236.14 374.41 236.56 376.01 236.42 377.71
  Q 235.88 384.56 236.23 386.50
  Q 236.97 390.58 236.38 394.64
  Q 236.22 395.76 236.38 396.84
  C 237.17 402.27 236.84 408.51 236.74 414.29
  Q 236.69 417.24 237.14 420.41
  Q 237.64 424.03 236.40 428.25
  A 0.89 0.88 22.7 0 1 235.12 428.77
  Q 233.70 427.97 234.46 426.40
  Q 234.74 425.80 234.56 425.16
  Q 233.88 422.76 234.33 420.24
  C 234.66 418.43 234.04 416.61 234.08 414.76
  Q 234.24 406.74 234.15 398.80
  Q 234.14 397.75 234.41 396.73
  C 234.64 395.81 234.23 395.05 234.23 394.13
  Q 234.21 388.53 234.10 382.77
  C 234.09 382.16 233.77 381.71 233.75 381.08
  Q 233.44 371.73 233.87 362.34
  Q 233.93 361.19 233.66 360.12
  Q 233.25 358.49 234.30 357.58
  Q 234.77 357.18 234.38 356.70
  Q 233.37 355.44 233.67 354.00
  C 234.41 350.47 233.85 347.23 234.28 343.76
  C 234.53 341.72 234.15 339.76 234.17 337.72
  C 234.20 332.22 234.52 326.49 234.01 321.10
  Q 233.88 319.72 234.05 318.21
  C 234.35 315.68 233.27 313.76 233.69 311.24
  C 234.35 307.33 234.06 303.13 234.16 299.12
  C 234.20 297.40 233.57 295.96 233.44 294.27
  A 0.60 0.60 0.0 0 0 232.82 293.71
  C 225.90 293.91 219.04 293.46 212.13 293.50
  Q 185.25 293.68 159.55 293.78
  Q 152.70 293.81 144.16 293.64
  C 122.10 293.19 99.96 293.72 78.02 293.79
  C 73.75 293.80 69.58 292.82 65.26 293.39
  C 62.87 293.70 60.83 292.81 58.43 293.57
  Q 57.70 293.81 57.25 293.19
  L 56.63 292.35
  A 0.63 0.63 0.0 0 1 56.88 291.40
  L 59.41 290.26
  Q 59.91 290.04 60.45 290.13
  Q 64.34 290.78 68.25 290.61
  Q 71.02 290.48 72.74 290.64
  C 74.81 290.82 76.79 291.05 78.86 291.03
  Q 109.70 290.65 141.84 290.72
  C 146.91 290.74 151.94 291.10 157.00 291.10
  Q 186.78 291.12 215.41 290.72
  C 216.02 290.71 216.72 290.96 217.40 291.01
  C 218.20 291.07 218.60 290.42 219.54 290.83
  Q 220.24 291.13 220.97 291.19
  Q 226.29 291.63 230.51 290.47
  Z
  M 232.19 163.00
  A 0.41 0.40 -66.4 0 0 232.63 162.82
  Q 234.41 159.89 232.42 157.30
  Q 232.08 156.86 231.54 156.80
  Q 230.17 156.63 228.84 156.27
  C 226.31 155.59 223.65 155.84 221.03 155.25
  Q 219.11 154.82 217.08 155.01
  C 212.69 155.43 207.26 154.46 203.15 156.03
  Q 201.20 156.76 198.96 156.73
  C 196.78 156.70 194.92 157.96 192.71 158.22
  Q 190.44 158.50 188.14 159.47
  Q 183.60 161.38 178.78 163.42
  Q 174.34 165.30 170.27 168.07
  Q 164.96 171.69 160.21 175.07
  C 158.79 176.07 157.98 177.39 156.73 178.60
  Q 150.44 184.66 145.06 190.87
  C 143.11 193.12 141.54 195.76 139.86 198.27
  Q 139.03 199.50 140.30 200.25
  L 143.43 202.12
  Q 144.61 202.82 145.31 201.64
  C 146.35 199.90 147.08 198.12 148.38 196.55
  C 151.61 192.66 153.98 187.89 158.36 184.70
  C 159.30 184.01 159.70 183.01 160.49 182.32
  Q 168.26 175.60 176.73 170.18
  C 178.47 169.07 180.41 168.99 182.05 167.98
  Q 183.86 166.85 186.00 166.17
  C 190.46 164.75 194.47 163.06 199.19 162.15
  C 206.33 160.78 211.17 160.22 218.37 160.46
  C 220.55 160.54 221.98 162.01 224.25 161.98
  Q 227.95 161.93 232.19 163.00
  Z
  M 217.70 268.65
  C 218.58 270.31 219.83 271.43 220.61 273.21
  C 221.53 275.33 223.45 276.33 224.96 277.95
  Q 228.38 281.58 232.08 285.26
  A 0.92 0.91 39.0 0 0 233.49 285.12
  C 234.91 282.94 234.14 278.05 233.83 275.49
  Q 233.71 274.49 233.98 273.52
  C 234.44 271.88 233.77 269.88 233.77 268.16
  Q 233.67 247.29 233.20 226.26
  C 233.08 220.95 233.78 215.67 233.29 210.42
  C 232.93 206.55 234.06 202.90 233.40 199.01
  Q 232.94 196.36 233.21 193.17
  C 233.94 184.67 233.60 176.08 233.26 167.36
  A 0.99 0.98 -82.4 0 0 232.58 166.46
  Q 218.22 161.63 203.24 164.44
  Q 201.80 164.71 198.56 165.34
  Q 192.71 166.48 186.60 168.80
  C 183.92 169.82 181.53 171.38 178.88 172.50
  Q 176.13 173.65 173.26 175.75
  Q 164.30 182.29 161.63 185.03
  Q 156.31 190.49 149.67 198.99
  Q 149.49 199.22 149.41 199.50
  Q 149.35 199.67 149.31 199.85
  Q 149.20 200.29 148.92 200.65
  L 146.42 203.82
  Q 146.02 204.33 146.34 204.89
  Q 148.42 208.55 150.18 209.86
  C 154.93 213.39 159.10 217.90 163.37 221.95
  C 164.14 222.68 164.75 223.71 165.70 224.03
  A 2.18 2.18 0.0 0 1 166.70 224.72
  C 170.51 229.40 175.55 232.43 179.64 236.86
  Q 182.96 240.45 184.78 241.76
  Q 190.92 246.18 193.76 250.81
  Q 194.03 251.25 194.50 251.45
  Q 198.47 253.11 200.02 255.34
  Q 201.65 257.67 203.90 259.20
  Q 204.28 259.46 204.47 259.88
  C 204.70 260.41 204.86 260.71 205.36 261.03
  Q 209.78 263.91 213.85 268.44
  Q 214.84 269.55 216.03 268.67
  Q 216.45 268.36 216.96 268.28
  Q 217.46 268.20 217.70 268.65
  Z
  M 248.63 208.40
  C 263.16 212.33 274.30 218.45 285.12 228.86
  Q 289.16 232.75 293.59 239.84
  Q 295.28 242.54 297.96 240.83
  Q 299.26 240.00 300.54 239.05
  Q 302.52 237.58 300.83 235.79
  Q 299.06 233.90 297.87 231.66
  C 297.00 230.02 295.43 229.34 294.40 227.76
  C 292.45 224.76 289.23 222.09 286.61 219.64
  C 281.79 215.13 275.90 211.46 270.57 207.81
  Q 268.81 206.61 266.85 205.78
  Q 256.41 201.38 246.63 199.14
  C 244.25 198.60 241.91 198.80 239.57 198.10
  Q 237.26 197.41 236.89 199.79
  Q 236.48 202.44 237.36 205.26
  Q 237.73 206.46 238.96 206.73
  C 242.22 207.45 245.46 207.54 248.63 208.40
  Z
  M 264.84 217.60
  Q 260.00 214.97 256.54 213.83
  Q 250.32 211.77 242.48 209.76
  Q 240.44 209.24 238.47 209.40
  Q 237.98 209.44 237.63 209.78
  C 236.02 211.34 236.69 212.94 236.68 214.87
  Q 236.61 234.36 237.09 254.45
  Q 237.17 257.63 237.13 260.84
  Q 237.10 263.92 237.26 267.01
  C 237.36 268.79 236.50 270.37 236.89 272.06
  C 237.70 275.60 237.27 280.10 237.24 283.62
  Q 237.23 284.15 236.90 284.56
  Q 236.60 284.91 236.48 285.31
  A 1.44 1.44 0.0 0 0 238.67 286.93
  C 241.18 285.20 243.69 283.65 246.00 281.58
  C 250.38 277.68 255.72 274.48 260.08 270.19
  Q 262.51 267.80 265.55 265.76
  Q 273.19 260.60 282.77 252.50
  Q 286.89 249.01 291.36 245.59
  Q 292.16 244.97 292.83 244.16
  Q 293.14 243.77 292.96 243.31
  Q 292.60 242.41 292.03 241.57
  Q 285.83 232.50 279.29 227.31
  Q 271.91 221.45 264.84 217.60
  Z
  M 236.37 312.97
  Q 236.13 314.09 236.15 315.20
  Q 236.31 328.03 236.26 341.66
  Q 236.25 343.20 236.56 344.67
  C 236.90 346.23 236.17 347.29 236.28 348.79
  Q 236.33 349.56 236.41 350.41
  Q 236.65 353.09 239.27 352.46
  Q 241.69 351.87 244.26 352.06
  Q 244.78 352.09 245.25 351.88
  Q 247.24 350.96 249.48 350.98
  A 1.06 1.06 0.0 0 0 249.97 350.86
  L 259.11 346.12
  A 0.81 0.81 0.0 0 0 259.50 345.12
  Q 258.40 342.21 257.05 339.57
  C 256.80 339.09 256.45 338.84 255.94 338.66
  Q 255.34 338.46 255.11 337.87
  C 254.15 335.44 253.44 333.00 252.30 330.59
  Q 247.81 321.12 243.03 311.16
  C 241.15 307.26 239.74 303.36 237.31 299.76
  A 0.64 0.64 0.0 0 0 236.23 299.80
  C 235.28 301.40 236.26 302.86 236.24 304.56
  Q 236.22 307.22 236.52 310.13
  Q 236.66 311.58 236.37 312.97
  Z"
/>
<path fill="#000000" d="
  M 273.51 97.15
  L 274.09 97.88
  A 0.83 0.82 -47.8 0 1 274.13 98.86
  L 273.28 100.18
  A 0.89 0.88 23.4 0 1 272.34 100.55
  Q 270.95 100.22 269.71 100.90
  A 0.76 0.76 0.0 0 1 268.58 100.26
  Q 268.38 93.39 268.51 85.90
  C 268.54 84.25 269.62 83.62 271.12 83.37
  Q 271.64 83.29 272.08 83.54
  C 274.78 85.08 276.00 82.77 278.45 82.75
  Q 279.64 82.73 280.83 83.04
  Q 281.38 83.19 281.74 83.62
  L 283.55 85.75
  Q 283.97 86.25 284.02 86.89
  Q 284.45 92.32 285.28 97.83
  C 285.85 101.58 281.63 101.88 279.62 99.83
  A 1.06 1.06 0.0 0 1 279.35 98.84
  L 279.95 96.46
  Q 280.13 95.74 279.90 95.04
  C 278.85 91.86 280.79 88.33 276.71 86.59
  Q 276.21 86.37 275.81 86.75
  L 274.01 88.47
  A 1.18 1.17 65.5 0 0 273.66 89.42
  Q 274.04 93.02 273.36 96.57
  Q 273.30 96.89 273.51 97.15
  Z"
/>
<path fill="#000000" d="
  M 167.76 113.46
  Q 168.84 113.55 169.84 114.19
  Q 176.25 118.27 176.32 126.21
  Q 176.36 131.47 170.91 135.95
  C 169.16 137.39 167.38 136.82 165.33 137.26
  Q 164.27 137.48 163.12 137.26
  Q 159.19 136.49 157.27 134.26
  Q 155.25 131.93 154.11 127.92
  C 153.39 125.40 154.30 123.47 154.50 121.01
  C 154.71 118.44 158.17 115.61 160.05 114.36
  Q 161.82 113.19 164.14 113.54
  Q 164.74 113.63 165.25 113.31
  Q 166.05 112.81 166.88 113.22
  Q 167.29 113.43 167.76 113.46
  Z
  M 170.11 121.49
  A 0.89 0.87 -78.3 0 1 170.60 122.25
  L 170.74 126.99
  Q 170.75 127.53 170.40 127.93
  Q 169.89 128.51 169.04 128.52
  Q 168.47 128.53 168.19 128.04
  Q 168.04 127.77 167.99 127.47
  Q 167.89 126.83 167.25 126.76
  Q 164.17 126.42 161.81 127.94
  Q 160.88 128.54 159.75 128.46
  Q 159.19 128.42 159.15 128.97
  Q 158.98 131.06 159.91 132.50
  C 160.93 134.07 162.60 134.03 164.00 135.11
  Q 164.45 135.45 165.01 135.41
  Q 169.81 135.01 171.23 130.52
  Q 172.67 125.97 171.62 121.37
  A 1.62 1.58 -74.0 0 0 171.21 120.61
  Q 170.74 120.12 170.61 119.36
  A 4.60 3.78 -87.0 0 0 168.14 116.02
  Q 166.73 115.46 165.15 114.91
  Q 164.45 114.66 163.84 115.07
  C 161.71 116.48 159.54 117.41 159.00 120.26
  Q 158.64 122.20 158.25 123.97
  Q 158.12 124.54 158.44 125.02
  Q 158.75 125.49 158.77 126.03
  Q 158.80 126.67 159.29 126.25
  C 160.12 125.53 159.65 124.02 159.38 123.13
  A 1.08 1.07 -31.6 0 1 159.64 122.06
  Q 160.10 121.58 160.72 121.34
  Q 161.28 121.13 161.70 121.55
  L 162.73 122.56
  Q 163.03 122.85 163.45 122.90
  Q 165.85 123.17 167.84 122.56
  Q 168.57 122.33 168.97 121.68
  Q 169.32 121.11 170.11 121.49
  Z"
/>
<path fill="#ffffff" d="
  M 170.11 121.49
  Q 169.32 121.11 168.97 121.68
  Q 168.57 122.33 167.84 122.56
  Q 165.85 123.17 163.45 122.90
  Q 163.03 122.85 162.73 122.56
  L 161.70 121.55
  Q 161.28 121.13 160.72 121.34
  Q 160.10 121.58 159.64 122.06
  A 1.08 1.07 -31.6 0 0 159.38 123.13
  C 159.65 124.02 160.12 125.53 159.29 126.25
  Q 158.80 126.67 158.77 126.03
  Q 158.75 125.49 158.44 125.02
  Q 158.12 124.54 158.25 123.97
  Q 158.64 122.20 159.00 120.26
  C 159.54 117.41 161.71 116.48 163.84 115.07
  Q 164.45 114.66 165.15 114.91
  Q 166.73 115.46 168.14 116.02
  A 4.60 3.78 -87.0 0 1 170.61 119.36
  Q 170.74 120.12 171.21 120.61
  A 1.62 1.58 -74.0 0 1 171.62 121.37
  Q 172.67 125.97 171.23 130.52
  Q 169.81 135.01 165.01 135.41
  Q 164.45 135.45 164.00 135.11
  C 162.60 134.03 160.93 134.07 159.91 132.50
  Q 158.98 131.06 159.15 128.97
  Q 159.19 128.42 159.75 128.46
  Q 160.88 128.54 161.81 127.94
  Q 164.17 126.42 167.25 126.76
  Q 167.89 126.83 167.99 127.47
  Q 168.04 127.77 168.19 128.04
  Q 168.47 128.53 169.04 128.52
  Q 169.89 128.51 170.40 127.93
  Q 170.75 127.53 170.74 126.99
  L 170.60 122.25
  A 0.89 0.87 -78.3 0 0 170.11 121.49
  Z"
/>
<path fill="#000000" d="
  M 183.94 129.28
  L 185.15 128.89
  A 1.27 1.27 0.0 0 1 186.80 129.95
  L 186.96 131.35
  A 1.27 1.27 0.0 0 1 185.60 132.76
  L 183.90 132.62
  A 1.27 1.27 0.0 0 1 182.81 130.90
  L 183.15 130.03
  A 1.27 1.27 0.0 0 1 183.94 129.28
  Z"
/>
<path fill="#000000" d="
  M 186.97 145.74
  Q 187.52 146.21 187.15 146.73
  Q 185.71 148.76 183.41 147.86
  Q 183.06 147.72 182.88 147.38
  Q 181.85 145.43 182.26 143.78
  Q 182.41 143.21 182.28 142.63
  Q 181.35 138.29 183.59 134.97
  A 1.67 1.67 0.0 0 1 186.46 135.15
  Q 187.03 136.26 186.51 137.53
  Q 186.27 138.13 186.41 138.76
  Q 187.09 141.81 186.66 144.92
  A 0.91 0.90 -66.3 0 0 186.97 145.74
  Z"
/>
<path fill="#ffffff" d="
  M 232.19 163.00
  Q 227.95 161.93 224.25 161.98
  C 221.98 162.01 220.55 160.54 218.37 160.46
  C 211.17 160.22 206.33 160.78 199.19 162.15
  C 194.47 163.06 190.46 164.75 186.00 166.17
  Q 183.86 166.85 182.05 167.98
  C 180.41 168.99 178.47 169.07 176.73 170.18
  Q 168.26 175.60 160.49 182.32
  C 159.70 183.01 159.30 184.01 158.36 184.70
  C 153.98 187.89 151.61 192.66 148.38 196.55
  C 147.08 198.12 146.35 199.90 145.31 201.64
  Q 144.61 202.82 143.43 202.12
  L 140.30 200.25
  Q 139.03 199.50 139.86 198.27
  C 141.54 195.76 143.11 193.12 145.06 190.87
  Q 150.44 184.66 156.73 178.60
  C 157.98 177.39 158.79 176.07 160.21 175.07
  Q 164.96 171.69 170.27 168.07
  Q 174.34 165.30 178.78 163.42
  Q 183.60 161.38 188.14 159.47
  Q 190.44 158.50 192.71 158.22
  C 194.92 157.96 196.78 156.70 198.96 156.73
  Q 201.20 156.76 203.15 156.03
  C 207.26 154.46 212.69 155.43 217.08 155.01
  Q 219.11 154.82 221.03 155.25
  C 223.65 155.84 226.31 155.59 228.84 156.27
  Q 230.17 156.63 231.54 156.80
  Q 232.08 156.86 232.42 157.30
  Q 234.41 159.89 232.63 162.82
  A 0.41 0.40 -66.4 0 1 232.19 163.00
  Z"
/>
<path fill="#ffffff" d="
  M 216.96 268.28
  Q 216.45 268.36 216.03 268.67
  Q 214.84 269.55 213.85 268.44
  Q 209.78 263.91 205.36 261.03
  C 204.86 260.71 204.70 260.41 204.47 259.88
  Q 204.28 259.46 203.90 259.20
  Q 201.65 257.67 200.02 255.34
  Q 198.47 253.11 194.50 251.45
  Q 194.03 251.25 193.76 250.81
  Q 190.92 246.18 184.78 241.76
  Q 182.96 240.45 179.64 236.86
  C 175.55 232.43 170.51 229.40 166.70 224.72
  A 2.18 2.18 0.0 0 0 165.70 224.03
  C 164.75 223.71 164.14 222.68 163.37 221.95
  C 159.10 217.90 154.93 213.39 150.18 209.86
  Q 148.42 208.55 146.34 204.89
  Q 146.02 204.33 146.42 203.82
  L 148.92 200.65
  Q 149.20 200.29 149.31 199.85
  Q 149.35 199.67 149.41 199.50
  Q 149.49 199.22 149.67 198.99
  Q 156.31 190.49 161.63 185.03
  Q 164.30 182.29 173.26 175.75
  Q 176.13 173.65 178.88 172.50
  C 181.53 171.38 183.92 169.82 186.60 168.80
  Q 192.71 166.48 198.56 165.34
  Q 201.80 164.71 203.24 164.44
  Q 218.22 161.63 232.58 166.46
  A 0.99 0.98 -82.4 0 1 233.26 167.36
  C 233.60 176.08 233.94 184.67 233.21 193.17
  Q 232.94 196.36 233.40 199.01
  C 234.06 202.90 232.93 206.55 233.29 210.42
  C 233.78 215.67 233.08 220.95 233.20 226.26
  Q 233.67 247.29 233.77 268.16
  C 233.77 269.88 234.44 271.88 233.98 273.52
  Q 233.71 274.49 233.83 275.49
  C 234.14 278.05 234.91 282.94 233.49 285.12
  A 0.92 0.91 39.0 0 1 232.08 285.26
  Q 228.38 281.58 224.96 277.95
  C 223.45 276.33 221.53 275.33 220.61 273.21
  C 219.83 271.43 218.58 270.31 217.70 268.65
  Q 217.46 268.20 216.96 268.28
  Z"
/>
<path fill="#000000" d="
  M 69.63 167.76
  A 0.81 0.81 0.0 0 1 68.73 167.04
  L 68.57 165.58
  A 2.40 1.60 -6.4 0 1 70.78 163.73
  L 71.19 163.68
  A 2.40 1.60 -6.4 0 1 73.76 165.00
  L 73.92 166.46
  A 0.81 0.81 0.0 0 1 73.21 167.36
  L 69.63 167.76
  Z"
/>
<path fill="#000000" d="
  M 68.88 173.14
  Q 68.30 171.71 69.53 170.75
  Q 71.14 169.52 73.21 170.87
  Q 73.67 171.17 73.70 171.73
  Q 73.83 174.25 73.76 176.69
  C 73.74 177.57 74.29 178.32 74.16 178.95
  Q 73.49 182.13 74.13 185.27
  Q 74.24 185.80 73.97 186.27
  Q 72.87 188.15 70.83 187.93
  A 2.61 2.61 0.0 0 1 68.51 185.05
  C 68.82 182.25 69.50 180.12 68.68 177.26
  Q 68.18 175.51 68.88 173.81
  Q 69.02 173.48 68.88 173.14
  Z"
/>
<path fill="#000000" d="
  M 288.35 191.01
  C 287.88 193.60 286.39 195.09 284.35 196.54
  Q 283.16 197.39 281.86 197.58
  Q 279.02 197.98 276.24 198.06
  C 274.55 198.11 273.24 197.94 271.92 196.75
  Q 264.13 189.76 268.85 180.42
  C 270.04 178.06 271.35 175.69 274.21 175.18
  C 276.26 174.81 278.18 174.37 280.30 174.76
  Q 284.52 175.51 287.16 179.47
  C 288.54 181.54 288.44 184.22 289.30 186.52
  Q 289.49 187.01 289.31 187.50
  Q 288.68 189.19 288.35 191.01
  Z
  M 275.67 196.14
  C 277.96 197.84 282.56 195.60 283.54 193.25
  Q 285.97 187.40 284.38 181.32
  Q 283.92 179.57 282.76 178.53
  C 281.13 177.08 279.17 175.80 276.87 176.51
  C 274.17 177.36 271.92 179.20 271.60 182.08
  C 271.10 186.48 270.59 189.69 272.96 193.80
  C 273.62 194.94 274.66 195.40 275.67 196.14
  Z"
/>
<path fill="#ffffff" d="
  M 283.54 193.25
  C 282.56 195.60 277.96 197.84 275.67 196.14
  C 274.66 195.40 273.62 194.94 272.96 193.80
  C 270.59 189.69 271.10 186.48 271.60 182.08
  C 271.92 179.20 274.17 177.36 276.87 176.51
  C 279.17 175.80 281.13 177.08 282.76 178.53
  Q 283.92 179.57 284.38 181.32
  Q 285.97 187.40 283.54 193.25
  Z
  M 275.30 188.32
  Q 277.79 187.23 279.93 187.82
  A 2.02 2.01 77.1 0 1 280.95 188.46
  Q 282.02 189.71 283.21 188.71
  A 1.55 1.54 59.7 0 0 283.66 186.99
  Q 283.05 185.39 282.98 183.71
  Q 282.92 182.45 281.94 183.25
  Q 281.55 183.57 281.17 183.91
  Q 280.81 184.23 280.29 184.32
  Q 276.20 184.97 274.07 182.99
  A 0.79 0.78 22.2 0 0 272.75 183.54
  L 272.70 185.95
  Q 272.69 186.43 272.48 186.86
  Q 271.86 188.16 272.89 189.47
  A 0.96 0.96 0.0 0 0 274.19 189.66
  Q 274.64 189.34 274.80 188.86
  Q 274.93 188.48 275.30 188.32
  Z"
/>
<path fill="#000000" d="
  M 418.83 178.44
  Q 420.68 177.49 422.81 177.13
  Q 424.14 176.91 424.20 178.25
  L 424.24 179.06
  Q 424.29 179.97 423.44 180.32
  L 419.95 181.74
  Q 419.48 181.93 419.26 182.39
  Q 417.16 186.87 418.36 191.18
  Q 418.52 191.76 418.35 192.32
  L 417.75 194.30
  Q 417.59 194.82 417.08 195.03
  Q 414.51 196.08 412.72 194.13
  A 0.89 0.88 -60.5 0 1 412.51 193.36
  Q 412.84 191.79 412.80 190.20
  Q 412.67 184.66 412.77 179.57
  Q 412.78 179.08 413.22 178.89
  Q 415.51 177.88 418.19 178.51
  Q 418.53 178.59 418.83 178.44
  Z"
/>
<path fill="#000000" d="
  M 274.80 188.86
  Q 274.64 189.34 274.19 189.66
  A 0.96 0.96 0.0 0 1 272.89 189.47
  Q 271.86 188.16 272.48 186.86
  Q 272.69 186.43 272.70 185.95
  L 272.75 183.54
  A 0.79 0.78 22.2 0 1 274.07 182.99
  Q 276.20 184.97 280.29 184.32
  Q 280.81 184.23 281.17 183.91
  Q 281.55 183.57 281.94 183.25
  Q 282.92 182.45 282.98 183.71
  Q 283.05 185.39 283.66 186.99
  A 1.55 1.54 59.7 0 1 283.21 188.71
  Q 282.02 189.71 280.95 188.46
  A 2.02 2.01 77.1 0 0 279.93 187.82
  Q 277.79 187.23 275.30 188.32
  Q 274.93 188.48 274.80 188.86
  Z"
/>
<path fill="#000000" d="
  M 299.66 190.38
  L 302.54 189.31
  A 0.87 0.86 56.8 0 1 303.46 189.51
  Q 303.82 189.87 303.92 190.32
  Q 304.20 191.56 303.05 192.12
  L 299.73 193.72
  Q 299.22 193.96 299.23 194.53
  L 299.26 196.22
  A 1.49 1.46 -25.6 0 1 298.90 197.21
  Q 298.20 198.00 298.89 198.70
  Q 299.40 199.21 299.06 199.84
  Q 298.68 200.56 298.74 201.34
  A 1.67 1.66 -73.8 0 1 296.09 202.80
  Q 294.77 201.82 294.64 200.05
  Q 294.34 195.87 294.49 191.01
  Q 294.50 190.50 295.00 190.36
  Q 296.75 189.86 298.52 190.41
  Q 299.10 190.59 299.66 190.38
  Z"
/>
<path fill="#ffffff" d="
  M 285.12 228.86
  C 274.30 218.45 263.16 212.33 248.63 208.40
  C 245.46 207.54 242.22 207.45 238.96 206.73
  Q 237.73 206.46 237.36 205.26
  Q 236.48 202.44 236.89 199.79
  Q 237.26 197.41 239.57 198.10
  C 241.91 198.80 244.25 198.60 246.63 199.14
  Q 256.41 201.38 266.85 205.78
  Q 268.81 206.61 270.57 207.81
  C 275.90 211.46 281.79 215.13 286.61 219.64
  C 289.23 222.09 292.45 224.76 294.40 227.76
  C 295.43 229.34 297.00 230.02 297.87 231.66
  Q 299.06 233.90 300.83 235.79
  Q 302.52 237.58 300.54 239.05
  Q 299.26 240.00 297.96 240.83
  Q 295.28 242.54 293.59 239.84
  Q 289.16 232.75 285.12 228.86
  Z"
/>
<path fill="#ffffff" d="
  M 264.84 217.60
  Q 271.91 221.45 279.29 227.31
  Q 285.83 232.50 292.03 241.57
  Q 292.60 242.41 292.96 243.31
  Q 293.14 243.77 292.83 244.16
  Q 292.16 244.97 291.36 245.59
  Q 286.89 249.01 282.77 252.50
  Q 273.19 260.60 265.55 265.76
  Q 262.51 267.80 260.08 270.19
  C 255.72 274.48 250.38 277.68 246.00 281.58
  C 243.69 283.65 241.18 285.20 238.67 286.93
  A 1.44 1.44 0.0 0 1 236.48 285.31
  Q 236.60 284.91 236.90 284.56
  Q 237.23 284.15 237.24 283.62
  C 237.27 280.10 237.70 275.60 236.89 272.06
  C 236.50 270.37 237.36 268.79 237.26 267.01
  Q 237.10 263.92 237.13 260.84
  Q 237.17 257.63 237.09 254.45
  Q 236.61 234.36 236.68 214.87
  C 236.69 212.94 236.02 211.34 237.63 209.78
  Q 237.98 209.44 238.47 209.40
  Q 240.44 209.24 242.48 209.76
  Q 250.32 211.77 256.54 213.83
  Q 260.00 214.97 264.84 217.60
  Z"
/>
<path fill="#ffffff" d="
  M 236.52 310.13
  Q 236.22 307.22 236.24 304.56
  C 236.26 302.86 235.28 301.40 236.23 299.80
  A 0.64 0.64 0.0 0 1 237.31 299.76
  C 239.74 303.36 241.15 307.26 243.03 311.16
  Q 247.81 321.12 252.30 330.59
  C 253.44 333.00 254.15 335.44 255.11 337.87
  Q 255.34 338.46 255.94 338.66
  C 256.45 338.84 256.80 339.09 257.05 339.57
  Q 258.40 342.21 259.50 345.12
  A 0.81 0.81 0.0 0 1 259.11 346.12
  L 249.97 350.86
  A 1.06 1.06 0.0 0 1 249.48 350.98
  Q 247.24 350.96 245.25 351.88
  Q 244.78 352.09 244.26 352.06
  Q 241.69 351.87 239.27 352.46
  Q 236.65 353.09 236.41 350.41
  Q 236.33 349.56 236.28 348.79
  C 236.17 347.29 236.90 346.23 236.56 344.67
  Q 236.25 343.20 236.26 341.66
  Q 236.31 328.03 236.15 315.20
  Q 236.13 314.09 236.37 312.97
  Q 236.66 311.58 236.52 310.13
  Z"
/>
<path fill="#000000" d="
  M 193.52 328.82
  L 193.52 334.21
  Q 193.52 334.76 193.09 335.08
  Q 191.14 336.53 188.60 335.78
  A 1.88 1.88 0.0 0 1 187.44 333.17
  C 187.92 332.17 187.91 330.96 187.60 329.92
  Q 186.79 327.22 187.66 324.62
  Q 187.87 323.99 187.66 323.36
  L 187.27 322.15
  Q 187.09 321.61 187.30 321.08
  Q 188.23 318.76 187.47 316.48
  C 186.83 314.60 187.75 312.43 189.99 312.49
  Q 195.22 312.64 200.61 312.49
  Q 202.40 312.44 203.72 313.42
  Q 205.41 314.67 206.15 316.39
  C 207.18 318.76 205.84 320.94 206.00 323.41
  Q 206.05 324.05 205.58 324.48
  Q 202.17 327.58 196.90 327.04
  Q 195.18 326.87 193.86 328.06
  Q 193.52 328.37 193.52 328.82
  Z
  M 193.52 317.77
  L 193.56 321.81
  A 1.11 1.11 0.0 0 0 194.68 322.91
  L 196.75 322.88
  A 4.14 2.88 -0.6 0 0 200.86 319.96
  L 200.86 319.46
  A 4.14 2.88 -0.6 0 0 196.69 316.63
  L 194.62 316.65
  A 1.11 1.11 0.0 0 0 193.52 317.77
  Z"
/>
<path fill="#ffffff" d="
  M 193.52 317.77
  A 1.11 1.11 0.0 0 1 194.62 316.65
  L 196.69 316.63
  A 4.14 2.88 -0.6 0 1 200.86 319.46
  L 200.86 319.96
  A 4.14 2.88 -0.6 0 1 196.75 322.88
  L 194.68 322.91
  A 1.11 1.11 0.0 0 1 193.56 321.81
  L 193.52 317.77
  Z"
/>
<path fill="#000000" d="
  M 245.75 399.04
  Q 246.06 398.39 245.75 397.79
  Q 245.50 397.29 245.61 396.74
  Q 246.81 390.34 250.18 386.93
  Q 251.76 385.34 254.95 385.46
  Q 255.54 385.48 256.02 385.14
  C 257.32 384.23 258.29 385.62 259.82 385.40
  Q 260.29 385.33 260.73 385.54
  Q 264.06 387.15 265.97 390.17
  C 267.13 392.01 267.04 394.15 267.73 396.20
  Q 268.06 397.19 267.81 398.35
  C 267.22 401.10 266.50 404.76 264.01 406.14
  C 262.88 406.76 262.52 407.67 261.12 407.95
  C 258.93 408.40 256.68 408.37 254.42 408.44
  Q 251.57 408.53 250.19 406.95
  Q 247.35 403.70 245.74 400.13
  A 1.29 1.28 45.8 0 1 245.75 399.04
  Z
  M 256.64 407.00
  Q 256.77 407.02 256.87 407.14
  Q 256.97 407.25 257.12 407.21
  Q 261.70 405.84 262.63 402.68
  Q 263.57 399.52 263.71 395.33
  C 263.76 393.86 263.11 392.79 262.88 391.41
  Q 262.72 390.38 262.05 389.61
  Q 258.25 385.23 253.80 387.66
  Q 251.08 389.14 250.47 391.54
  Q 248.76 398.23 251.01 403.16
  C 251.95 405.23 253.45 405.97 255.22 407.10
  Q 255.52 407.30 255.88 407.25
  Q 256.16 407.21 256.39 407.05
  Q 256.50 406.97 256.64 407.00
  Z"
/>
<path fill="#ffffff" d="
  M 256.39 407.05
  Q 256.16 407.21 255.88 407.25
  Q 255.52 407.30 255.22 407.10
  C 253.45 405.97 251.95 405.23 251.01 403.16
  Q 248.76 398.23 250.47 391.54
  Q 251.08 389.14 253.80 387.66
  Q 258.25 385.23 262.05 389.61
  Q 262.72 390.38 262.88 391.41
  C 263.11 392.79 263.76 393.86 263.71 395.33
  Q 263.57 399.52 262.63 402.68
  Q 261.70 405.84 257.12 407.21
  Q 256.97 407.25 256.87 407.14
  Q 256.77 407.02 256.64 407.00
  Q 256.50 406.97 256.39 407.05
  Z
  M 254.67 398.49
  Q 255.28 398.53 255.84 398.25
  A 3.70 3.20 53.6 0 1 259.88 399.16
  Q 260.66 399.98 261.84 399.18
  A 1.47 1.46 -28.8 0 0 262.36 397.40
  Q 261.64 395.72 261.65 393.99
  A 0.63 0.63 0.0 0 0 260.54 393.57
  L 259.85 394.38
  Q 259.53 394.75 259.05 394.77
  C 257.14 394.85 254.13 395.20 252.85 393.44
  Q 252.58 393.07 252.17 393.26
  Q 251.26 393.68 251.35 394.70
  Q 251.49 396.33 250.95 397.74
  C 250.51 398.88 251.36 400.03 252.55 400.03
  Q 253.11 400.03 253.40 399.55
  L 253.75 398.96
  Q 254.07 398.44 254.67 398.49
  Z"
/>
<path fill="#000000" d="
  M 253.75 398.96
  L 253.40 399.55
  Q 253.11 400.03 252.55 400.03
  C 251.36 400.03 250.51 398.88 250.95 397.74
  Q 251.49 396.33 251.35 394.70
  Q 251.26 393.68 252.17 393.26
  Q 252.58 393.07 252.85 393.44
  C 254.13 395.20 257.14 394.85 259.05 394.77
  Q 259.53 394.75 259.85 394.38
  L 260.54 393.57
  A 0.63 0.63 0.0 0 1 261.65 393.99
  Q 261.64 395.72 262.36 397.40
  A 1.47 1.46 -28.8 0 1 261.84 399.18
  Q 260.66 399.98 259.88 399.16
  A 3.70 3.20 53.6 0 0 255.84 398.25
  Q 255.28 398.53 254.67 398.49
  Q 254.07 398.44 253.75 398.96
  Z"
/>
<path fill="#000000" d="
  M 337.05 404.19
  L 339.46 404.22
  Q 340.05 404.23 340.23 404.79
  C 340.68 406.25 339.48 407.82 337.89 407.64
  Q 337.12 407.55 336.78 408.24
  L 335.72 410.31
  A 0.91 0.90 39.9 0 0 335.81 411.26
  C 336.15 411.71 336.30 412.15 336.25 412.73
  C 336.07 414.70 336.64 417.72 339.12 417.91
  Q 340.95 418.05 340.84 419.93
  A 1.52 1.51 -88.0 0 1 339.32 421.35
  L 334.17 421.34
  A 3.10 3.09 88.6 0 1 331.09 418.40
  Q 331.03 417.23 330.69 416.03
  Q 330.53 415.50 330.66 414.95
  Q 331.24 412.34 330.95 409.40
  Q 330.90 408.87 330.46 408.57
  Q 329.41 407.85 328.37 407.00
  Q 327.03 405.90 328.00 404.60
  A 0.63 0.62 16.6 0 1 328.45 404.36
  Q 330.25 404.27 330.45 402.28
  C 330.72 399.55 333.04 397.67 335.54 399.75
  Q 335.85 400.01 335.90 400.41
  L 336.32 403.54
  Q 336.41 404.18 337.05 404.19
  Z"
/>
<path fill="#000000" d="
  M 277.50 405.58
  L 279.12 406.35
  A 0.83 0.83 0.0 0 1 279.11 407.86
  Q 276.71 408.96 276.38 411.56
  C 276.21 412.83 276.92 413.40 276.88 414.65
  Q 276.87 415.24 277.42 415.44
  Q 278.93 415.99 279.79 417.34
  A 1.20 1.20 0.0 0 1 278.85 419.18
  L 274.58 419.45
  Q 273.90 419.49 273.69 418.84
  L 272.44 414.89
  Q 272.28 414.39 272.45 413.88
  Q 273.46 410.76 271.41 408.33
  A 1.68 1.68 0.0 0 1 271.75 405.87
  Q 272.89 405.08 272.73 403.69
  Q 272.65 402.96 273.35 402.75
  Q 274.55 402.40 275.68 402.76
  Q 276.29 402.95 276.50 403.54
  L 277.01 405.03
  Q 277.14 405.41 277.50 405.58
  Z"
/>
</svg>
