<?xml version="1.0" encoding="UTF-8"?><svg xmlns="http://www.w3.org/2000/svg" xmlns:xlink="http://www.w3.org/1999/xlink" fill-opacity="1" color-rendering="auto" color-interpolation="auto" text-rendering="auto" stroke="black" stroke-linecap="square" width="861" stroke-miterlimit="10" shape-rendering="auto" stroke-opacity="1" fill="black" stroke-dasharray="none" font-weight="normal" stroke-width="1" height="1171" font-family="'Dialog'" font-style="normal" stroke-linejoin="miter" font-size="12px" stroke-dashoffset="0" image-rendering="auto">
  <!--Generated by ySVG 2.6-->
  <defs id="genericDefs"/>
  <g>
    <defs id="defs1">
      <linearGradient x1="582.4321" gradientUnits="userSpaceOnUse" x2="662.4321" y1="-126.3308" y2="15.3308" id="linearGradient1" spreadMethod="reflect">
        <stop stop-opacity="1" stop-color="white" offset="0%"/>
        <stop stop-opacity="1" stop-color="white" offset="100%"/>
      </linearGradient>
      <clipPath clipPathUnits="userSpaceOnUse" id="clipPath1">
        <path d="M0 0 L861 0 L861 1171 L0 1171 L0 0 Z"/>
      </clipPath>
      <clipPath clipPathUnits="userSpaceOnUse" id="clipPath2">
        <path d="M226 -142 L1087 -142 L1087 1029 L226 1029 L226 -142 Z"/>
      </clipPath>
    </defs>
    <g fill="white" text-rendering="geometricPrecision" shape-rendering="geometricPrecision" transform="translate(-226,142)" stroke="white">
      <rect x="226" width="861" height="1171" y="-142" clip-path="url(#clipPath2)" stroke="none"/>
    </g>
    <g fill="white" text-rendering="geometricPrecision" shape-rendering="geometricPrecision" transform="matrix(1,0,0,1,-226,142)" stroke="white">
      <rect x="295.7303" y="-82" clip-path="url(#clipPath2)" width="239.1013" rx="20" ry="20" height="40" stroke="none"/>
    </g>
    <g text-rendering="geometricPrecision" stroke-miterlimit="1.45" shape-rendering="geometricPrecision" transform="matrix(1,0,0,1,-226,142)" stroke-linecap="butt">
      <rect x="295.7303" y="-82" clip-path="url(#clipPath2)" fill="none" width="239.1013" rx="20" ry="20" height="40"/>
      <text x="393.8913" xml:space="preserve" y="-57.4648" clip-path="url(#clipPath2)" font-family="sans-serif" stroke="none">Начало</text>
    </g>
    <g fill="white" text-rendering="geometricPrecision" shape-rendering="geometricPrecision" transform="matrix(1,0,0,1,-226,142)" stroke="white">
      <path d="M295.7303 -12 L534.8315 -12 L534.8315 28 L295.7303 28 Z" stroke="none" clip-path="url(#clipPath2)"/>
    </g>
    <g text-rendering="geometricPrecision" stroke-miterlimit="1.45" shape-rendering="geometricPrecision" transform="matrix(1,0,0,1,-226,142)" stroke-linecap="butt">
      <path fill="none" d="M295.7303 -12 L534.8315 -12 L534.8315 28 L295.7303 28 Z" clip-path="url(#clipPath2)"/>
      <text x="339.443" xml:space="preserve" y="5.4688" clip-path="url(#clipPath2)" font-family="sans-serif" stroke="none">Инициализация totalDist </text>
      <text x="377.9303" xml:space="preserve" y="19.6016" clip-path="url(#clipPath2)" font-family="sans-serif" stroke="none">значением 0</text>
    </g>
    <g fill="white" text-rendering="geometricPrecision" shape-rendering="geometricPrecision" transform="matrix(1,0,0,1,-226,142)" stroke="white">
      <path d="M305.7303 139.2053 L524.8315 139.2053 L534.8315 149.2053 L534.8315 179.2053 L295.7303 179.2053 L295.7303 149.2053 Z" stroke="none" clip-path="url(#clipPath2)"/>
    </g>
    <g text-rendering="geometricPrecision" stroke-miterlimit="1.45" shape-rendering="geometricPrecision" transform="matrix(1,0,0,1,-226,142)" stroke-linecap="butt">
      <path fill="none" d="M305.7303 139.2053 L524.8315 139.2053 L534.8315 149.2053 L534.8315 179.2053 L295.7303 179.2053 L295.7303 149.2053 Z" clip-path="url(#clipPath2)"/>
      <text x="385.1403" xml:space="preserve" y="156.674" clip-path="url(#clipPath2)" font-family="sans-serif" stroke="none">Цикл по i </text>
      <text x="358.5358" xml:space="preserve" y="170.8068" clip-path="url(#clipPath2)" font-family="sans-serif" stroke="none">от 0 до MAX_STEPS</text>
    </g>
    <g fill="white" text-rendering="geometricPrecision" shape-rendering="geometricPrecision" transform="matrix(1,0,0,1,-226,142)" stroke="white">
      <path d="M305.7303 266.1724 L524.8315 266.1724 L534.8315 276.1724 L534.8315 306.1724 L295.7303 306.1724 L295.7303 276.1724 Z" stroke="none" clip-path="url(#clipPath2)"/>
    </g>
    <g text-rendering="geometricPrecision" stroke-miterlimit="1.45" shape-rendering="geometricPrecision" transform="matrix(1,0,0,1,-226,142)" stroke-linecap="butt">
      <path fill="none" d="M305.7303 266.1724 L524.8315 266.1724 L534.8315 276.1724 L534.8315 306.1724 L295.7303 306.1724 L295.7303 276.1724 Z" clip-path="url(#clipPath2)"/>
      <text x="360.109" xml:space="preserve" y="283.6411" clip-path="url(#clipPath2)" font-family="sans-serif" stroke="none">Цикл для каждого</text>
      <text x="317.8981" xml:space="preserve" y="297.774" clip-path="url(#clipPath2)" font-family="sans-serif" stroke="none">объекта object в массиве objects</text>
    </g>
    <g fill="white" text-rendering="geometricPrecision" shape-rendering="geometricPrecision" transform="matrix(1,0,0,1,-226,142)" stroke="white">
      <path d="M295.7303 202.6888 L534.8315 202.6888 L534.8315 242.6888 L295.7303 242.6888 Z" stroke="none" clip-path="url(#clipPath2)"/>
    </g>
    <g text-rendering="geometricPrecision" stroke-miterlimit="1.45" shape-rendering="geometricPrecision" transform="matrix(1,0,0,1,-226,142)" stroke-linecap="butt">
      <path fill="none" d="M295.7303 202.6888 L534.8315 202.6888 L534.8315 242.6888 L295.7303 242.6888 Z" clip-path="url(#clipPath2)"/>
      <text x="341.6051" xml:space="preserve" y="220.1576" clip-path="url(#clipPath2)" font-family="sans-serif" stroke="none">Инициализация minDist </text>
      <text x="352.4128" xml:space="preserve" y="234.2904" clip-path="url(#clipPath2)" font-family="sans-serif" stroke="none">значением MAX_DIST</text>
    </g>
    <g fill="white" text-rendering="geometricPrecision" shape-rendering="geometricPrecision" transform="matrix(1,0,0,1,-226,142)" stroke="white">
      <rect x="295.7303" width="239.1013" height="40" y="329.656" clip-path="url(#clipPath2)" stroke="none"/>
    </g>
    <g text-rendering="geometricPrecision" stroke-miterlimit="1.45" shape-rendering="geometricPrecision" transform="matrix(1,0,0,1,-226,142)" stroke-linecap="butt">
      <rect fill="none" x="295.7303" width="239.1013" height="40" y="329.656" clip-path="url(#clipPath2)"/>
      <path fill="none" d="M305.7303 329.6559 L305.7303 369.6559 M524.8315 329.6559 L524.8315 369.6559 M305.7303 329.6559 Z" clip-path="url(#clipPath2)"/>
      <text x="309.0827" xml:space="preserve" y="347.1247" clip-path="url(#clipPath2)" font-family="sans-serif" stroke="none">Вычисление расстояния до объекта</text>
      <text x="346.0495" xml:space="preserve" y="361.2575" clip-path="url(#clipPath2)" font-family="sans-serif" stroke="none">dist = sdf(object, point)</text>
    </g>
    <g fill="white" text-rendering="geometricPrecision" shape-rendering="geometricPrecision" transform="matrix(1,0,0,1,-226,142)" stroke="white">
      <path d="M415.2809 384.6559 L531.0815 414.3636 L415.2809 444.0714 L299.4803 414.3636 Z" stroke="none" clip-path="url(#clipPath2)"/>
    </g>
    <g text-rendering="geometricPrecision" stroke-miterlimit="1.45" shape-rendering="geometricPrecision" transform="matrix(1,0,0,1,-226,142)" stroke-linecap="butt">
      <path fill="none" d="M415.2809 384.6559 L531.0815 414.3636 L415.2809 444.0714 L299.4803 414.3636 Z" clip-path="url(#clipPath2)"/>
      <text x="338.3971" xml:space="preserve" y="411.8324" clip-path="url(#clipPath2)" font-family="sans-serif" stroke="none">Объект ближе остальных:</text>
      <text x="370.779" xml:space="preserve" y="425.9652" clip-path="url(#clipPath2)" font-family="sans-serif" stroke="none">dist &lt; minDist?</text>
    </g>
    <g fill="white" text-rendering="geometricPrecision" shape-rendering="geometricPrecision" transform="matrix(1,0,0,1,-226,142)" stroke="white">
      <path d="M413.7897 459.0714 L681.4321 459.0714 L681.4321 508.0714 L413.7897 508.0714 Z" stroke="none" clip-path="url(#clipPath2)"/>
    </g>
    <g text-rendering="geometricPrecision" stroke-miterlimit="1.45" shape-rendering="geometricPrecision" transform="matrix(1,0,0,1,-226,142)" stroke-linecap="butt">
      <path fill="none" d="M413.7897 459.0714 L681.4321 459.0714 L681.4321 508.0714 L413.7897 508.0714 Z" clip-path="url(#clipPath2)"/>
      <text x="424.4498" xml:space="preserve" y="473.9737" clip-path="url(#clipPath2)" font-family="sans-serif" stroke="none">Устанавливаем минимальное расстояние</text>
      <text x="422.443" xml:space="preserve" y="488.1065" clip-path="url(#clipPath2)" font-family="sans-serif" stroke="none">равынм расстоянию до текущего объекта</text>
      <text x="505.6402" xml:space="preserve" y="502.2393" clip-path="url(#clipPath2)" font-family="sans-serif" stroke="none">minDist = dist</text>
    </g>
    <g fill="white" text-rendering="geometricPrecision" shape-rendering="geometricPrecision" transform="matrix(1,0,0,1,-226,142)" stroke="white">
      <path d="M415.2809 613.3622 L544.7065 661.5699 L415.2809 709.7775 L285.8553 661.5699 Z" stroke="none" clip-path="url(#clipPath2)"/>
    </g>
    <g text-rendering="geometricPrecision" stroke-miterlimit="1.45" shape-rendering="geometricPrecision" transform="matrix(1,0,0,1,-226,142)" stroke-linecap="butt">
      <path fill="none" d="M415.2809 613.3622 L544.7065 661.5699 L415.2809 709.7775 L285.8553 661.5699 Z" clip-path="url(#clipPath2)"/>
      <text x="318.6979" xml:space="preserve" y="659.0386" clip-path="url(#clipPath2)" font-family="sans-serif" stroke="none">Находимся на границе объекта:</text>
      <text x="371.7926" xml:space="preserve" y="673.1714" clip-path="url(#clipPath2)" font-family="sans-serif" stroke="none">minDist &lt; EPS?</text>
    </g>
    <g fill="white" text-rendering="geometricPrecision" shape-rendering="geometricPrecision" transform="matrix(1,0,0,1,-226,142)" stroke="white">
      <rect x="413.7897" width="267.6424" height="40" y="723.7889" clip-path="url(#clipPath2)" stroke="none"/>
    </g>
    <g text-rendering="geometricPrecision" stroke-miterlimit="1.45" shape-rendering="geometricPrecision" transform="matrix(1,0,0,1,-226,142)" stroke-linecap="butt">
      <rect fill="none" x="413.7897" width="267.6424" height="40" y="723.7889" clip-path="url(#clipPath2)"/>
      <path fill="none" d="M423.7897 723.7889 L423.7897 763.7889 M671.4321 723.7889 L671.4321 763.7889 M423.7897 723.7889 Z" clip-path="url(#clipPath2)"/>
      <text x="457.2418" xml:space="preserve" y="741.2577" clip-path="url(#clipPath2)" font-family="sans-serif" stroke="none">Находим цвет точки по Фонгу</text>
      <text x="461.5514" xml:space="preserve" y="755.3905" clip-path="url(#clipPath2)" font-family="sans-serif" stroke="none">color := phongShading(point)</text>
    </g>
    <g fill="white" text-rendering="geometricPrecision" shape-rendering="geometricPrecision" transform="matrix(1,0,0,1,-226,142)" stroke="white">
      <path d="M315.2303 553.0699 L515.3315 553.0699 L515.3315 583.0699 L505.3315 593.0699 L325.2303 593.0699 L315.2303 583.0699 Z" stroke="none" clip-path="url(#clipPath2)"/>
    </g>
    <g text-rendering="geometricPrecision" stroke-miterlimit="1.45" shape-rendering="geometricPrecision" transform="matrix(1,0,0,1,-226,142)" stroke-linecap="butt">
      <path fill="none" d="M315.2303 553.0699 L515.3315 553.0699 L515.3315 583.0699 L505.3315 593.0699 L325.2303 593.0699 L315.2303 583.0699 Z" clip-path="url(#clipPath2)"/>
      <text x="347.7311" xml:space="preserve" y="577.605" clip-path="url(#clipPath2)" font-family="sans-serif" stroke="none">Конец цикла по object</text>
    </g>
    <g fill="white" text-rendering="geometricPrecision" shape-rendering="geometricPrecision" transform="matrix(1,0,0,1,-226,142)" stroke="white">
      <path d="M295.7303 824.508 L534.8315 824.508 L534.8315 854.508 L524.8315 864.508 L305.7303 864.508 L295.7303 854.508 Z" stroke="none" clip-path="url(#clipPath2)"/>
    </g>
    <g text-rendering="geometricPrecision" stroke-miterlimit="1.45" shape-rendering="geometricPrecision" transform="matrix(1,0,0,1,-226,142)" stroke-linecap="butt">
      <path fill="none" d="M295.7303 824.508 L534.8315 824.508 L534.8315 854.508 L524.8315 864.508 L305.7303 864.508 L295.7303 854.508 Z" clip-path="url(#clipPath2)"/>
      <text x="390.8854" xml:space="preserve" y="849.0432" clip-path="url(#clipPath2)" font-family="sans-serif" stroke="none">i = i + 1</text>
    </g>
    <g fill="white" text-rendering="geometricPrecision" shape-rendering="geometricPrecision" transform="matrix(1,0,0,1,-226,142)" stroke="white">
      <path d="M295.7303 903.5782 L534.8315 903.5782 L534.8315 943.5782 L295.7303 943.5782 Z" stroke="none" clip-path="url(#clipPath2)"/>
    </g>
    <g text-rendering="geometricPrecision" stroke-miterlimit="1.45" shape-rendering="geometricPrecision" transform="matrix(1,0,0,1,-226,142)" stroke-linecap="butt">
      <path fill="none" d="M295.7303 903.5782 L534.8315 903.5782 L534.8315 943.5782 L295.7303 943.5782 Z" clip-path="url(#clipPath2)"/>
      <text x="380.8044" xml:space="preserve" y="928.1133" clip-path="url(#clipPath2)" font-family="sans-serif" stroke="none">return сolor</text>
    </g>
    <g fill="white" text-rendering="geometricPrecision" shape-rendering="geometricPrecision" transform="matrix(1,0,0,1,-226,142)" stroke="white">
      <rect x="295.7303" y="973.5782" clip-path="url(#clipPath2)" width="239.1013" rx="20" ry="20" height="40" stroke="none"/>
    </g>
    <g text-rendering="geometricPrecision" stroke-miterlimit="1.45" shape-rendering="geometricPrecision" transform="matrix(1,0,0,1,-226,142)" stroke-linecap="butt">
      <rect x="295.7303" y="973.5782" clip-path="url(#clipPath2)" fill="none" width="239.1013" rx="20" ry="20" height="40"/>
      <text x="396.7272" xml:space="preserve" y="998.1133" clip-path="url(#clipPath2)" font-family="sans-serif" stroke="none">Конец</text>
    </g>
    <g fill="white" text-rendering="geometricPrecision" shape-rendering="geometricPrecision" transform="matrix(1,0,0,1,-226,142)" stroke="white">
      <path d="M295.7303 58 L534.8315 58 L534.8315 107 L295.7303 107 Z" stroke="none" clip-path="url(#clipPath2)"/>
    </g>
    <g text-rendering="geometricPrecision" stroke-miterlimit="1.45" shape-rendering="geometricPrecision" transform="matrix(1,0,0,1,-226,142)" stroke-linecap="butt">
      <path fill="none" d="M295.7303 58 L534.8315 58 L534.8315 107 L295.7303 107 Z" clip-path="url(#clipPath2)"/>
      <text x="349.5622" xml:space="preserve" y="72.9023" clip-path="url(#clipPath2)" font-family="sans-serif" stroke="none">Инициализация color </text>
      <text x="376.5417" xml:space="preserve" y="87.0352" clip-path="url(#clipPath2)" font-family="sans-serif" stroke="none">цветом фона</text>
      <text x="368.8512" xml:space="preserve" y="101.168" clip-path="url(#clipPath2)" font-family="sans-serif" stroke="none">color = bgColor</text>
    </g>
    <g fill="url(#linearGradient1)" text-rendering="geometricPrecision" shape-rendering="geometricPrecision" transform="matrix(1,0,0,1,-226,142)" stroke="url(#linearGradient1)">
      <rect x="582.4321" width="80" height="141.6617" y="-126.3308" clip-path="url(#clipPath2)" stroke="none"/>
    </g>
    <g text-rendering="geometricPrecision" stroke-miterlimit="1.45" shape-rendering="geometricPrecision" transform="matrix(1,0,0,1,-226,142)" stroke-linecap="butt">
      <path fill="none" d="M592.4321 -126.3308 L582.4321 -126.3308 L582.4321 15.3308 L592.4321 15.3308" clip-path="url(#clipPath2)"/>
      <text x="588.4321" xml:space="preserve" y="-108.7293" clip-path="url(#clipPath2)" font-family="sans-serif" stroke="none">Алгоритм марширования лучей</text>
      <text x="588.4321" xml:space="preserve" y="-94.5965" clip-path="url(#clipPath2)" font-family="sans-serif" stroke="none">Вход: point - координаты (x, y) пикселя, для которого выполняется процедура,</text>
      <text x="588.4321" xml:space="preserve" y="-80.4637" clip-path="url(#clipPath2)" font-family="sans-serif" stroke="none">          objects - массив объектов сцены,</text>
      <text x="588.4321" xml:space="preserve" y="-66.3308" clip-path="url(#clipPath2)" font-family="sans-serif" stroke="none">          bgColor - цвет заднего фона, </text>
      <text x="588.4321" xml:space="preserve" y="-52.198" clip-path="url(#clipPath2)" font-family="sans-serif" stroke="none">          MAX_STEPS - максимально допустимое количество итераций </text>
      <text x="588.4321" xml:space="preserve" y="-38.0652" clip-path="url(#clipPath2)" font-family="sans-serif" stroke="none">	для нахождения пересечения с объектами сцены,</text>
      <text x="588.4321" xml:space="preserve" y="-23.9324" clip-path="url(#clipPath2)" font-family="sans-serif" stroke="none">          MAX_DIST - максимально допустимое расстояние до </text>
      <text x="588.4321" xml:space="preserve" y="-9.7996" clip-path="url(#clipPath2)" font-family="sans-serif" stroke="none">	близжайшего объекта сцены</text>
      <text x="588.4321" xml:space="preserve" y="4.3332" clip-path="url(#clipPath2)" font-family="sans-serif" stroke="none">Выход: color - цвет, соответствующий данному пикселю на изображении</text>
    </g>
    <g text-rendering="geometricPrecision" stroke-miterlimit="1.45" shape-rendering="geometricPrecision" transform="matrix(1,0,0,1,-226,142)" stroke-linecap="butt">
      <path fill="none" d="M415.2809 -42.0049 L415.2809 -19.9727" clip-path="url(#clipPath2)"/>
    </g>
    <g text-rendering="geometricPrecision" stroke-miterlimit="1.45" shape-rendering="geometricPrecision" transform="matrix(1,0,0,1,-226,142)" stroke-linecap="butt">
      <path d="M415.2809 -11.9727 L420.2809 -23.9727 L415.2809 -20.9727 L410.2809 -23.9727 Z" stroke="none" clip-path="url(#clipPath2)"/>
      <path fill="none" d="M415.2809 179.1989 L415.2809 194.6852" clip-path="url(#clipPath2)"/>
      <path d="M415.2809 202.6852 L420.2809 190.6852 L415.2809 193.6852 L410.2809 190.6852 Z" clip-path="url(#clipPath2)" stroke="none"/>
      <path fill="none" d="M415.2809 242.6824 L415.2809 258.1687" clip-path="url(#clipPath2)"/>
      <path d="M415.2809 266.1687 L420.2809 254.1687 L415.2809 257.1687 L410.2809 254.1687 Z" clip-path="url(#clipPath2)" stroke="none"/>
      <path fill="none" d="M415.2809 306.166 L415.2809 321.6523" clip-path="url(#clipPath2)"/>
      <path d="M415.2809 329.6523 L420.2809 317.6523 L415.2809 320.6523 L410.2809 317.6523 Z" clip-path="url(#clipPath2)" stroke="none"/>
      <path fill="none" d="M415.2809 369.6559 L415.2809 376.6313" clip-path="url(#clipPath2)"/>
      <path d="M415.2809 384.6313 L420.2809 372.6313 L415.2809 375.6313 L410.2809 372.6313 Z" clip-path="url(#clipPath2)" stroke="none"/>
      <path fill="none" d="M531.102 414.3636 L547.6109 414.3636 L547.6109 419.6559 L547.6109 451.0725" clip-path="url(#clipPath2)"/>
      <path d="M547.6109 459.0725 L552.6109 447.0725 L547.6109 450.0725 L542.6109 447.0725 Z" clip-path="url(#clipPath2)" stroke="none"/>
      <text x="534.4554" xml:space="preserve" y="404.9417" clip-path="url(#clipPath2)" font-family="sans-serif" stroke="none">да</text>
      <path fill="none" d="M544.7356 661.5699 L547.6109 661.5699 L547.6109 715.756" clip-path="url(#clipPath2)"/>
      <path d="M547.6109 723.756 L552.6109 711.756 L547.6109 714.756 L542.6109 711.756 Z" clip-path="url(#clipPath2)" stroke="none"/>
      <text x="539.4092" xml:space="preserve" y="655.3864" clip-path="url(#clipPath2)" font-family="sans-serif" stroke="none">да</text>
      <path fill="none" d="M547.6109 508.1098 L547.6109 528.6833 L415.2809 528.6833 L415.2809 545.0872" clip-path="url(#clipPath2)"/>
      <path d="M415.2809 553.0872 L420.2809 541.0872 L415.2809 544.0872 L410.2809 541.0872 Z" clip-path="url(#clipPath2)" stroke="none"/>
      <path fill="none" d="M299.485 414.3636 L241.7354 414.3636 L241.7354 528.6833 L415.2809 528.6833 L415.2809 545.024" clip-path="url(#clipPath2)"/>
      <path d="M415.2809 553.024 L420.2809 541.024 L415.2809 544.024 L410.2809 541.024 Z" clip-path="url(#clipPath2)" stroke="none"/>
      <path fill="none" d="M415.2809 593.0775 L415.2809 605.3777" clip-path="url(#clipPath2)"/>
      <path d="M415.2809 613.3777 L420.2809 601.3777 L415.2809 604.3777 L410.2809 601.3777 Z" clip-path="url(#clipPath2)" stroke="none"/>
      <path fill="none" d="M285.8585 661.5699 L244 661.5699 L244 794.5 L415.2809 794.5 L415.2809 816.5341" clip-path="url(#clipPath2)"/>
      <path d="M415.2809 824.5341 L420.2809 812.5341 L415.2809 815.5341 L410.2809 812.5341 Z" clip-path="url(#clipPath2)" stroke="none"/>
      <path fill="none" d="M415.2809 864.5458 L415.2809 895.6029" clip-path="url(#clipPath2)"/>
      <path d="M415.2809 903.6029 L420.2809 891.6029 L415.2809 894.6029 L410.2809 891.6029 Z" clip-path="url(#clipPath2)" stroke="none"/>
      <path fill="none" d="M547.6109 763.7618 L547.6109 879.9106 L415.4846 879.9106 L415.3792 895.5606" clip-path="url(#clipPath2)"/>
      <path d="M415.3253 903.5604 L420.406 891.5944 L415.3859 894.5606 L410.4062 891.527 Z" clip-path="url(#clipPath2)" stroke="none"/>
      <path fill="none" d="M415.2809 943.5733 L415.2809 965.6055" clip-path="url(#clipPath2)"/>
      <path d="M415.2809 973.6055 L420.2809 961.6055 L415.2809 964.6055 L410.2809 961.6055 Z" clip-path="url(#clipPath2)" stroke="none"/>
      <path fill="none" d="M415.2809 27.9709 L415.2809 49.9779" clip-path="url(#clipPath2)"/>
      <path d="M415.2809 57.9779 L420.2809 45.9779 L415.2809 48.9779 L410.2809 45.9779 Z" clip-path="url(#clipPath2)" stroke="none"/>
      <path fill="none" d="M415.2809 107.0322 L415.2809 131.2073" clip-path="url(#clipPath2)"/>
      <path d="M415.2809 139.2073 L420.2809 127.2073 L415.2809 130.2073 L410.2809 127.2073 Z" clip-path="url(#clipPath2)" stroke="none"/>
      <path fill="none" stroke-dasharray="6,2" d="M534.4586 -58.2604 L582.4402 -56.7549" clip-path="url(#clipPath2)"/>
    </g>
  </g>
</svg>
