<?xml version="1.0" standalone="no"?>
<!DOCTYPE svg PUBLIC "-//W3C//DTD SVG 20010904//EN"
 "http://www.w3.org/TR/2001/REC-SVG-20010904/DTD/svg10.dtd">
<svg version="1.0" xmlns="http://www.w3.org/2000/svg"
 width="651.000000pt" height="374.000000pt" viewBox="0 0 651.000000 374.000000"
 preserveAspectRatio="xMidYMid meet">

<g transform="translate(0.000000,374.000000) scale(0.100000,-0.100000)"
fill="#000000" stroke="none">
<path d="M4655 3730 c-504 -57 -933 -312 -1220 -725 -143 -205 -256 -505 -281
-744 l-6 -57 -70 -17 c-39 -9 -100 -31 -137 -49 -36 -18 -70 -34 -76 -37 -5
-2 15 23 45 56 71 77 115 152 153 260 30 83 32 96 32 233 0 137 -2 150 -32
233 -44 124 -86 190 -183 287 -97 97 -163 139 -287 183 -83 30 -96 32 -233 31
-129 0 -154 -3 -222 -26 -125 -42 -204 -91 -304 -192 -73 -74 -99 -108 -132
-176 -57 -115 -82 -219 -82 -340 0 -408 327 -738 734 -740 l91 -1 -46 -18
c-117 -46 -224 -145 -282 -261 -37 -74 -42 -80 -79 -80 -46 0 -134 -39 -180
-80 -25 -21 -59 -66 -77 -99 -28 -53 -37 -62 -72 -71 -23 -6 -60 -28 -82 -49
-27 -24 -57 -41 -82 -46 -28 -5 -51 -19 -77 -46 -20 -21 -42 -39 -48 -39 -6 0
-23 -6 -39 -14 -55 -29 -68 -114 -25 -165 l26 -31 -430 0 -430 0 -257 -447
c-287 -499 -272 -471 -259 -460 5 5 124 207 264 450 l255 442 690 2 690 3 143
-265 144 -265 2141 2 c1221 2 1839 5 1437 8 l-705 5 90 18 c918 184 1511 1089
1313 2006 -71 331 -235 622 -485 861 -249 239 -540 385 -886 445 -112 19 -338
27 -442 15z m488 -39 c593 -119 1076 -545 1266 -1117 97 -295 107 -649 25
-953 -150 -556 -581 -999 -1134 -1165 -180 -54 -239 -61 -480 -61 -194 1 -239
4 -327 23 -337 73 -621 229 -859 470 -52 52 -94 99 -94 103 0 4 29 28 65 53
112 81 203 214 241 357 16 58 20 167 11 298 l-2 33 365 112 c201 62 411 127
468 145 72 22 101 35 96 44 -4 7 2 4 13 -6 17 -15 25 -16 43 -7 31 16 24 64
-9 68 -14 2 -30 -2 -35 -10 -6 -8 -225 -79 -486 -160 l-475 -146 -32 64 c-66
135 -155 227 -283 293 -92 48 -173 70 -276 74 l-79 3 3 45 c16 224 140 548
290 759 265 373 668 622 1122 694 138 22 420 15 563 -13z m-2583 -336 c87 -27
191 -81 258 -136 329 -266 364 -761 77 -1068 -25 -26 -41 -51 -37 -55 4 -4 3
-6 -3 -4 -5 1 -43 -19 -84 -46 -141 -94 -281 -132 -455 -123 -188 9 -334 75
-471 212 -91 91 -144 175 -182 290 -25 72 -27 94 -27 225 0 131 2 153 27 225
83 247 288 433 542 491 80 18 280 12 355 -11z m788 -1181 c172 -35 319 -140
412 -294 72 -121 92 -103 -222 -200 -150 -46 -287 -83 -305 -82 -18 1 -35 -4
-40 -12 -4 -7 -17 -16 -28 -20 -18 -5 -26 4 -52 58 -48 97 -147 197 -245 246
-43 21 -94 42 -113 46 -19 3 -35 12 -35 19 0 17 115 126 170 160 50 32 192 85
228 85 22 0 22 -2 22 -113 0 -159 36 -425 61 -451 13 -14 12 -4 -12 104 -20
95 -39 420 -26 454 8 21 83 21 185 0z m-590 -162 c-54 -76 -63 -82 -130 -81
-58 1 -61 2 -33 12 17 6 62 28 100 48 39 20 71 37 73 38 2 1 -3 -7 -10 -17z
m-86 -97 c3 -3 -7 -29 -23 -58 -41 -76 -70 -193 -70 -284 -1 -90 9 -153 23
-153 6 0 8 6 5 14 -16 40 -17 157 -3 234 15 88 74 228 99 238 19 7 130 -31
184 -63 63 -37 137 -106 175 -166 37 -55 64 -115 56 -122 -4 -4 -455 -145
-465 -145 -2 0 -1 -6 3 -12 6 -10 3 -9 -9 0 -9 8 -26 12 -39 10 -18 -2 -23 -9
-23 -33 0 -24 5 -31 23 -33 13 -2 30 2 39 10 28 23 486 159 494 146 15 -23 20
-136 9 -201 -18 -117 -70 -225 -139 -291 l-29 -28 -64 33 c-86 46 -204 165
-248 251 -19 38 -38 68 -42 68 -13 0 -9 -11 23 -69 64 -114 156 -207 264 -267
l57 -32 -34 -25 c-119 -89 -291 -127 -440 -96 -47 10 -198 75 -198 85 0 3 20
28 44 58 60 74 81 133 81 229 l0 78 75 24 c61 19 74 27 72 42 -6 27 -6 27 -73
4 -77 -26 -96 -26 -104 -2 -22 71 -131 161 -220 182 -27 6 -55 13 -62 15 -16
4 7 61 47 120 103 149 270 239 451 243 31 1 58 -1 61 -4z m1163 -212 c3 -10 9
-57 12 -104 12 -180 -50 -342 -182 -475 -44 -45 -94 -89 -112 -98 l-32 -16
-55 77 c-72 101 -147 238 -187 338 -33 85 -36 91 -44 84 -2 -3 5 -29 16 -58
48 -127 131 -280 212 -390 38 -52 39 -55 21 -68 -30 -22 -140 -53 -213 -59
-65 -6 -186 7 -235 26 l-26 9 54 76 c81 112 101 180 101 343 0 72 3 132 8 132
4 0 7 7 7 16 0 14 1 14 16 0 28 -28 63 -13 65 29 0 16 2 17 7 4 6 -14 43 -5
272 67 146 45 270 83 276 83 7 1 15 -7 19 -16z m-1769 -205 c-16 -101 -18
-129 -12 -182 11 -85 23 -67 18 27 -2 46 1 109 8 141 l12 58 41 -6 c64 -11
128 -43 175 -89 45 -43 88 -113 74 -120 -4 -3 -61 -21 -127 -41 -66 -20 -122
-41 -123 -47 -3 -6 -9 -6 -17 1 -23 19 -60 8 -63 -19 -3 -15 -7 -20 -11 -12
-6 8 -18 8 -52 -4 -43 -16 -44 -16 -59 7 -26 41 -62 68 -111 85 l-48 17 15 35
c41 97 163 184 268 190 16 1 18 -4 12 -41z m-324 -273 c-2 -39 0 -65 6 -65 6
0 11 27 11 61 0 34 2 64 5 66 3 3 21 2 41 -1 37 -7 115 -68 115 -91 0 -6 -27
-20 -60 -30 -39 -12 -60 -23 -60 -33 0 -13 -2 -13 -13 2 -20 28 -61 18 -65
-16 -4 -35 26 -53 54 -34 15 11 145 56 160 56 2 0 4 -16 4 -35 0 -52 -46 -135
-74 -135 -6 0 -27 22 -46 50 -19 27 -38 49 -43 50 -11 0 18 -52 48 -88 l25
-30 -31 -11 c-35 -12 -72 -14 -106 -5 -21 6 -21 6 -3 37 28 48 34 91 15 107
-8 7 -15 25 -15 39 0 31 -31 64 -74 81 l-29 11 23 24 c24 26 76 54 100 55 12
0 14 -12 12 -65z m666 -27 c-3 -60 -11 -96 -27 -128 -25 -50 -88 -120 -107
-120 -19 0 -106 103 -142 168 -26 49 -30 62 -19 71 16 12 252 89 281 90 17 1
18 -6 14 -81z m-838 -45 c-5 -20 -7 -41 -4 -45 3 -4 -2 -15 -10 -24 -15 -14
-19 -13 -47 10 -17 14 -35 26 -40 26 -6 0 -5 8 1 20 13 24 57 49 86 50 20 0
21 -3 14 -37z m80 21 c27 -19 50 -44 50 -55 0 -5 -16 -11 -35 -15 -19 -3 -38
-10 -41 -15 -9 -15 -44 10 -44 31 0 30 18 70 33 70 7 0 24 -7 37 -16z m466
-59 c15 -31 55 -85 87 -121 l59 -64 -45 -20 c-95 -42 -217 -34 -305 20 l-34
21 31 34 c31 35 51 89 51 138 0 24 5 29 45 39 25 7 45 16 45 20 0 24 41 -18
66 -67z m-674 -37 c8 27 39 29 62 3 17 -18 16 -20 -6 -27 -13 -4 -35 -7 -49
-5 -14 1 -31 -5 -38 -13 -14 -17 -6 -56 12 -56 13 0 57 -40 57 -52 0 -12 -68
-10 -91 2 -50 28 -59 108 -16 147 35 32 51 33 57 4 6 -25 6 -26 12 -3z m228
-19 c45 15 50 14 50 -11 0 -27 -35 -88 -50 -88 -6 0 -22 11 -36 25 -14 14 -30
25 -36 25 -7 0 4 -16 22 -35 29 -30 32 -37 20 -45 -16 -10 -103 -14 -112 -4
-3 3 1 19 9 35 8 17 13 41 11 54 -4 20 -2 22 12 13 23 -15 51 -3 57 23 4 14 8
17 13 8 6 -9 15 -9 40 0z m-159 -49 c22 0 25 -27 6 -54 -12 -16 -14 -16 -26
-2 -8 9 -21 16 -30 16 -14 1 -14 2 2 11 9 5 17 20 18 32 0 12 3 16 6 10 2 -7
13 -13 24 -13z m2329 -322 c186 -133 435 -241 656 -285 88 -18 74 -18 -1096
-21 -652 -1 -1190 0 -1196 2 -6 2 -73 118 -149 258 -76 139 -139 256 -141 260
-2 3 20 -3 49 -14 71 -27 202 -22 265 11 l44 22 66 -34 c99 -52 173 -71 277
-71 130 0 256 44 346 119 l27 22 68 -18 c130 -34 301 -22 418 29 l40 18 116
-116 c63 -63 158 -145 210 -182z m-1950 237 c11 -13 5 -15 -41 -14 -54 1 -54
1 -24 14 39 18 50 18 65 0z m-175 -5 c15 -7 10 -9 -23 -9 -26 -1 -41 3 -37 9
7 12 32 12 60 0z"/>
<path d="M5156 2255 c-38 -14 -71 -27 -74 -29 -2 -3 0 -19 6 -35 13 -36 14
-35 -58 -16 -30 8 -60 15 -67 15 -8 0 -2 -30 18 -87 16 -47 31 -88 33 -90 2
-3 23 23 45 56 23 34 44 61 47 61 3 0 10 -13 15 -29 l10 -29 77 25 c42 14 81
29 85 33 12 11 -38 145 -54 147 -8 1 -45 -9 -83 -22z"/>
</g>
</svg>
