<?xml version="1.0" standalone="no"?>
<!DOCTYPE svg PUBLIC "-//W3C//DTD SVG 20010904//EN"
 "http://www.w3.org/TR/2001/REC-SVG-20010904/DTD/svg10.dtd">
<svg version="1.0" xmlns="http://www.w3.org/2000/svg"
 width="800.000000pt" height="566.000000pt" viewBox="0 0 800.000000 566.000000"
 preserveAspectRatio="xMidYMid meet">

<g transform="translate(0.000000,566.000000) scale(0.100000,-0.100000)"
fill="#000000" stroke="none">
<path d="M3585 5210 l-168 -300 -333 0 c-214 0 -334 -4 -334 -10 0 -5 74 -142
165 -304 l165 -294 -160 -285 c-88 -156 -163 -292 -166 -301 -6 -15 24 -16
328 -16 l335 0 167 -300 c93 -165 171 -300 175 -300 4 0 82 134 173 298 l166
297 336 3 c185 1 336 5 336 7 0 3 -75 139 -166 302 -127 226 -164 300 -157
312 27 44 314 561 319 575 6 15 -24 16 -332 16 l-339 1 -164 295 c-91 162
-168 297 -172 299 -4 3 -82 -130 -174 -295z m335 -10 c84 -151 157 -281 163
-287 7 -10 87 -13 339 -13 310 0 330 -1 324 -17 -4 -10 -77 -142 -162 -294
-84 -151 -154 -280 -154 -286 0 -11 22 -51 223 -410 54 -94 97 -174 97 -177 0
-3 -148 -6 -329 -6 l-329 0 -163 -295 c-90 -162 -166 -294 -169 -295 -3 0 -72
120 -154 268 -82 147 -158 279 -168 295 l-19 27 -326 0 c-296 0 -325 1 -319
16 4 9 74 137 156 284 82 147 152 274 155 282 4 9 -62 137 -154 301 -89 158
-161 291 -161 297 0 7 113 10 328 10 l327 0 165 294 c91 162 168 292 171 288
4 -4 75 -131 159 -282z"/>
<path d="M6160 5410 l-54 -99 -112 -3 -113 -3 56 -98 55 -98 -54 -97 -55 -97
-105 -3 -106 -3 -54 98 c-30 53 -59 98 -64 100 -5 1 -34 -41 -64 -95 l-55 -97
-108 -3 c-60 -1 -107 -6 -105 -11 2 -5 25 -51 52 -103 l50 -94 -56 -94 c-31
-52 -54 -98 -51 -102 2 -5 52 -8 111 -8 l107 0 50 -92 c28 -51 50 -98 50 -103
0 -6 -22 -50 -50 -98 l-50 -87 -107 0 c-59 0 -110 -4 -113 -10 -3 -5 17 -52
45 -105 l52 -95 -56 -96 c-31 -52 -56 -97 -56 -100 0 -2 49 -4 110 -4 l109 0
53 -100 c29 -55 57 -98 63 -97 5 2 34 45 63 95 l54 92 106 0 c122 0 102 15
177 -128 l37 -71 -56 -95 c-31 -52 -56 -97 -56 -100 0 -3 50 -7 112 -8 l111
-3 53 -100 c29 -55 57 -101 62 -103 6 -2 37 47 71 108 l62 110 109 0 c74 0
110 4 110 11 0 6 -22 51 -50 100 -27 49 -50 91 -50 95 0 3 24 48 53 100 l52
94 107 0 107 0 56 -100 c31 -55 58 -100 60 -100 2 0 29 45 60 100 l56 100 110
0 c60 0 109 3 109 6 0 4 -22 46 -50 94 -27 48 -50 93 -50 100 0 7 23 52 50
102 28 49 48 93 45 98 -4 6 -54 10 -113 10 l-107 0 -51 93 -52 92 45 85 c25
47 50 91 56 98 6 8 43 12 118 12 67 0 109 4 109 10 0 6 -22 50 -50 99 -27 49
-50 93 -50 99 0 5 22 49 50 98 27 49 50 92 50 96 0 4 -48 9 -107 10 l-107 3
-56 97 c-30 54 -58 98 -61 98 -4 0 -32 -45 -64 -100 l-56 -100 -104 0 -104 0
-56 99 -56 99 55 99 55 98 -112 5 -112 5 -55 97 c-30 54 -57 98 -60 98 -3 0
-30 -45 -60 -100z m118 -20 l47 -85 108 -5 107 -5 -50 -89 c-28 -49 -50 -93
-50 -98 0 -13 102 -192 114 -200 14 -10 208 -10 222 0 5 4 32 46 59 95 27 48
51 87 54 87 3 0 29 -42 57 -93 l51 -92 105 -3 106 -3 -49 -87 c-27 -48 -49
-95 -49 -105 0 -10 20 -53 45 -97 25 -44 45 -84 45 -89 0 -6 -44 -11 -106 -13
l-107 -3 -54 -97 -55 -98 48 -87 c69 -129 61 -123 176 -123 54 0 98 -2 98 -5
0 -3 -23 -46 -50 -95 l-51 -89 51 -88 c27 -49 50 -92 50 -96 0 -4 -47 -7 -104
-7 l-104 0 -53 -95 c-59 -108 -49 -109 -118 18 l-43 78 -116 -3 -117 -3 -52
-90 c-29 -49 -52 -97 -53 -106 0 -9 20 -53 45 -97 25 -44 45 -85 45 -91 0 -7
-35 -11 -103 -11 l-104 0 -58 -105 c-36 -65 -63 -101 -68 -96 -5 5 -31 49 -57
98 l-47 88 -107 3 c-58 1 -106 5 -106 8 0 3 23 44 50 91 28 47 50 90 50 96 0
7 -24 55 -53 107 l-52 95 -117 3 -116 3 -52 -91 c-29 -51 -56 -88 -60 -83 -5
4 -28 44 -51 88 -24 44 -48 83 -53 87 -6 4 -55 8 -108 8 -54 0 -98 2 -98 4 0
2 23 42 50 89 28 47 50 90 50 97 0 7 -20 49 -45 94 -25 46 -45 86 -45 90 0 3
44 6 98 6 53 0 102 4 108 8 6 4 35 49 64 101 l54 94 -54 103 -55 104 -107 0
c-60 0 -108 3 -108 6 0 3 23 43 50 90 28 47 50 92 50 101 0 9 -20 53 -45 99
-25 45 -45 85 -45 88 0 3 46 7 102 8 l102 3 50 87 c28 48 54 90 57 93 4 3 26
-29 49 -72 64 -118 57 -113 174 -113 56 0 106 4 112 8 14 9 114 186 114 201 0
6 -22 51 -49 99 l-50 87 107 5 107 5 50 88 c27 48 53 86 57 85 5 -2 30 -41 56
-88z"/>
<path d="M307 4904 c-3 -3 7 -27 23 -52 65 -109 970 -1732 970 -1742 0 -5 3
-10 8 -10 4 0 85 141 181 313 292 523 628 1123 727 1297 51 91 96 173 99 183
7 16 -45 17 -997 17 -553 0 -1007 -3 -1011 -6z m1993 -11 c0 -3 -27 -54 -59
-112 -33 -58 -160 -286 -283 -506 -123 -220 -318 -568 -433 -773 -165 -296
-211 -370 -220 -360 -18 20 -975 1735 -975 1747 0 8 286 11 985 11 542 0 985
-3 985 -7z"/>
<path d="M2311 2945 c-18 -30 -24 -34 -49 -29 -39 8 -48 -9 -25 -46 16 -28 16
-33 3 -58 -12 -20 -25 -28 -50 -30 -30 -2 -38 2 -53 28 -22 37 -28 37 -49 0
-14 -24 -24 -30 -53 -30 -39 0 -44 -13 -19 -48 14 -21 14 -25 -5 -57 l-20 -35
34 0 c59 0 91 -56 60 -104 -13 -20 -26 -26 -51 -26 -38 0 -43 -13 -19 -48 14
-19 14 -24 0 -52 -13 -25 -22 -30 -50 -30 -28 0 -37 5 -50 30 -9 17 -20 30
-25 30 -5 0 -16 -13 -25 -30 -21 -41 -74 -43 -100 -4 -16 25 -16 29 -1 61 21
44 22 43 -19 43 -29 0 -39 6 -53 30 -9 16 -21 30 -27 30 -5 0 -18 -14 -27 -30
-14 -24 -24 -30 -53 -30 -40 0 -40 -1 -20 -40 14 -27 14 -33 0 -60 -13 -25
-22 -30 -50 -30 -28 0 -37 5 -50 30 -9 17 -20 30 -25 30 -5 0 -16 -13 -25 -30
-12 -24 -22 -30 -49 -30 -44 0 -48 -6 -28 -46 15 -32 15 -37 -1 -63 -23 -40
-22 -41 23 -41 34 0 42 -4 55 -30 14 -27 14 -33 0 -60 -13 -26 -21 -30 -55
-30 -45 0 -46 -1 -23 -41 16 -27 16 -31 0 -64 l-17 -35 35 0 c30 0 39 -6 56
-35 12 -19 24 -35 27 -35 4 0 17 16 30 36 30 46 67 44 95 -3 17 -30 17 -34 3
-55 -25 -35 -19 -47 21 -50 29 -2 41 -9 53 -31 13 -24 13 -30 0 -55 -12 -21
-24 -28 -53 -30 -40 -3 -46 -15 -22 -50 14 -19 14 -24 0 -52 -13 -25 -22 -30
-51 -30 -28 0 -38 6 -52 30 -21 37 -28 37 -47 0 -12 -24 -22 -30 -49 -30 -44
0 -48 -6 -29 -46 14 -29 15 -37 3 -61 -8 -16 -16 -31 -18 -35 -2 -5 15 -8 37
-8 35 0 43 -4 56 -30 14 -27 14 -33 0 -60 -12 -24 -22 -30 -49 -30 -44 0 -48
-6 -28 -46 15 -32 15 -37 -2 -64 l-17 -30 36 0 c30 0 39 -5 56 -35 12 -19 24
-35 28 -35 3 0 15 16 26 35 16 31 23 36 49 33 22 -2 35 -12 49 -35 17 -30 17
-34 3 -55 -25 -35 -20 -48 19 -48 29 0 39 -6 53 -30 21 -37 27 -37 49 0 14 25
24 30 55 30 21 0 38 2 38 5 0 2 -7 20 -16 38 -15 31 -15 36 0 65 13 25 23 32
47 32 23 0 34 -7 50 -35 12 -19 24 -35 28 -35 4 0 15 16 24 35 14 29 22 35 47
35 23 0 35 -7 50 -32 19 -32 19 -33 1 -64 -23 -38 -19 -44 26 -44 28 0 36 -5
49 -34 15 -31 15 -35 -1 -60 -13 -19 -26 -26 -49 -26 -44 0 -48 -7 -26 -43 17
-27 17 -33 4 -58 -21 -41 -18 -49 21 -49 28 0 37 -5 50 -30 20 -38 30 -38 50
0 21 41 76 43 101 4 16 -24 16 -28 1 -60 -10 -19 -17 -37 -17 -39 0 -3 17 -5
39 -5 33 0 40 -4 51 -30 16 -38 26 -38 48 0 14 25 23 30 55 30 20 0 37 2 37 5
0 2 -7 20 -17 39 -15 32 -15 36 1 60 25 39 80 37 101 -4 19 -37 26 -37 47 0
14 24 24 30 53 30 38 0 43 10 21 50 -12 21 -12 29 0 52 21 40 18 46 -22 50
-26 2 -40 10 -52 31 -15 25 -15 29 0 55 11 17 27 28 45 30 52 5 54 9 33 44
-19 33 -19 34 0 66 15 25 27 32 50 32 25 0 33 -6 47 -35 9 -19 20 -35 25 -35
5 0 16 16 25 35 14 29 22 35 48 35 26 0 35 -6 50 -33 16 -31 16 -35 1 -65 -22
-42 -21 -42 22 -42 31 0 40 -5 54 -30 22 -38 32 -38 48 0 11 26 18 30 51 30
43 0 49 12 23 49 -15 21 -15 25 2 57 15 27 25 34 49 34 25 0 34 -7 49 -35 11
-19 23 -35 28 -35 4 0 16 16 25 35 15 31 21 35 55 35 l37 0 -19 33 c-19 32
-19 33 0 65 22 35 19 39 -33 44 -18 2 -34 13 -45 31 -15 25 -15 29 0 55 11 17
27 28 45 30 52 5 55 9 34 43 -18 29 -18 35 -5 60 21 41 18 49 -20 49 -28 0
-38 6 -53 30 -9 17 -20 30 -23 30 -3 0 -14 -13 -23 -30 -24 -40 -78 -43 -103
-4 -16 24 -16 28 -1 60 10 19 17 37 17 39 0 3 -17 5 -37 5 -31 0 -41 5 -54 28
-14 25 -14 31 -1 60 14 28 21 32 54 32 43 0 44 0 22 42 -15 30 -15 34 1 65 26
47 68 46 96 -2 12 -19 24 -35 28 -35 4 0 15 16 24 35 14 30 21 35 52 35 40 0
40 1 21 39 -13 25 -13 31 5 60 10 17 19 33 19 36 0 2 -18 5 -41 7 -32 2 -44 9
-57 31 -15 25 -15 29 0 55 11 17 27 28 45 30 52 5 55 9 34 43 -18 29 -18 35
-5 60 21 41 18 49 -19 49 -26 0 -36 6 -50 30 -23 38 -33 38 -52 0 -12 -24 -22
-30 -48 -30 -26 0 -36 6 -51 30 -17 30 -17 31 4 65 19 31 20 36 6 41 -9 4 -28
4 -42 1 -20 -3 -28 1 -40 24 -19 37 -31 36 -52 -1 -14 -25 -23 -30 -55 -30
-21 0 -37 -3 -35 -7 2 -5 10 -20 17 -35 11 -22 11 -33 1 -58 -11 -26 -18 -30
-49 -30 -30 0 -39 5 -53 30 -21 38 -29 38 -51 0 -25 -42 -75 -42 -98 -2 -15
27 -15 31 3 65 l18 37 -40 0 c-36 0 -42 4 -57 35 -16 34 -16 36 4 63 13 18 32
29 57 32 l36 5 -19 31 c-16 27 -17 34 -5 55 21 39 17 49 -21 49 -28 0 -37 5
-50 30 -9 17 -20 30 -25 30 -5 0 -16 -13 -25 -30 -13 -25 -22 -30 -50 -30 -28
0 -37 5 -50 30 -14 27 -14 33 0 60 22 43 19 50 -25 50 -34 0 -42 4 -55 30 -9
17 -17 30 -19 30 -2 0 -13 -16 -25 -35z m47 -20 c9 -19 19 -25 43 -25 26 0 30
-3 24 -17 -16 -39 -16 -52 -1 -82 15 -28 21 -31 61 -31 39 0 47 4 57 25 6 14
14 25 18 25 4 0 12 -11 18 -25 9 -20 19 -25 47 -25 l36 0 -16 -30 c-14 -27
-14 -33 0 -60 l16 -30 -31 0 c-23 0 -35 -7 -50 -32 -25 -42 -25 -59 1 -92 14
-17 30 -26 50 -26 l30 0 -16 -31 c-15 -28 -15 -33 2 -62 16 -27 26 -33 61 -35
37 -3 43 0 54 22 14 32 21 32 42 1 13 -20 25 -25 55 -25 33 0 42 5 59 32 19
29 19 35 6 59 -19 38 -18 39 16 39 23 0 35 7 49 31 l19 31 13 -23 c16 -31 28
-39 62 -39 l28 0 -17 -29 c-17 -29 -17 -31 1 -65 18 -33 24 -36 62 -36 37 0
45 4 55 25 6 14 15 25 20 25 5 0 14 -11 20 -25 8 -18 19 -25 38 -25 37 0 42
-8 23 -37 -14 -20 -14 -28 -2 -51 7 -15 15 -30 17 -34 2 -5 -13 -8 -32 -8 -32
0 -39 -5 -53 -35 -16 -33 -16 -37 0 -70 14 -30 21 -35 52 -35 40 0 41 -2 18
-36 -15 -24 -15 -27 1 -55 l17 -29 -31 0 c-24 0 -35 -7 -48 -30 -9 -16 -19
-30 -22 -30 -3 0 -13 14 -22 30 -14 25 -24 30 -53 30 -29 0 -39 -6 -56 -32
-19 -32 -20 -53 -4 -90 5 -13 0 -17 -26 -20 -25 -2 -38 -11 -52 -35 -18 -32
-18 -34 0 -65 14 -25 27 -34 51 -36 31 -3 43 -24 22 -37 -15 -9 -12 -43 6 -70
13 -20 25 -25 60 -25 38 0 46 4 56 25 6 14 14 25 18 25 4 0 12 -11 18 -25 9
-20 19 -25 47 -25 40 0 41 -2 19 -36 -15 -21 -15 -28 -3 -52 7 -15 15 -30 17
-34 2 -5 -13 -8 -32 -8 -32 0 -39 -5 -53 -35 -16 -33 -16 -37 0 -70 13 -28 22
-35 45 -35 39 0 44 -8 25 -37 -16 -24 -16 -28 0 -54 l16 -29 -30 0 c-23 0 -34
-7 -47 -30 -9 -16 -19 -30 -22 -30 -3 0 -13 14 -22 30 -14 25 -24 30 -53 30
-29 0 -39 -6 -55 -32 -11 -18 -18 -41 -15 -50 3 -10 8 -27 11 -38 5 -17 2 -20
-25 -20 -22 0 -35 -7 -48 -26 l-17 -26 -19 26 c-13 18 -28 26 -49 26 -25 0
-29 3 -23 17 17 41 16 63 -5 92 -17 24 -29 31 -56 31 -28 0 -38 -6 -53 -31
l-19 -30 -22 31 c-19 26 -28 31 -58 28 -29 -2 -40 -10 -55 -36 -19 -32 -19
-36 -4 -68 l17 -34 -35 0 c-28 0 -37 -5 -50 -30 -19 -37 -19 -55 1 -85 12 -19
25 -25 50 -25 l35 0 -17 -32 c-15 -29 -15 -34 0 -65 l16 -33 -35 0 c-28 0 -38
-5 -47 -25 -14 -31 -22 -31 -36 0 -10 21 -18 25 -56 25 -66 0 -90 -44 -61
-113 6 -14 2 -17 -24 -17 -22 0 -35 -7 -48 -26 l-17 -26 -19 26 c-13 18 -28
26 -48 26 -31 0 -36 10 -17 40 10 15 9 26 -5 54 -15 33 -20 36 -62 36 -39 0
-47 -4 -57 -25 -14 -31 -22 -31 -36 0 -9 20 -19 25 -47 25 -40 0 -41 2 -18 36
15 23 15 28 0 60 l-17 34 35 0 c30 0 38 5 52 35 16 33 16 37 0 70 -14 30 -21
35 -53 35 -19 0 -34 3 -32 8 2 4 10 19 17 34 12 24 11 30 -9 62 -18 30 -27 36
-56 36 -26 0 -39 -7 -56 -30 l-22 -30 -19 30 c-15 24 -26 30 -52 30 -60 0 -88
-58 -60 -122 6 -15 2 -18 -24 -18 -22 0 -35 -7 -47 -25 -20 -31 -28 -31 -42 0
-9 20 -19 25 -47 25 l-35 0 17 34 c15 32 15 36 -4 68 -15 27 -26 34 -56 36
-33 3 -39 -1 -55 -27 -9 -17 -19 -31 -22 -31 -3 0 -14 14 -23 30 -14 23 -25
30 -48 30 -29 0 -29 0 -15 28 12 23 12 31 0 52 -20 36 -18 40 21 40 31 0 38 5
52 35 16 34 16 38 -2 70 -15 29 -24 35 -52 35 -38 0 -39 2 -17 35 14 21 14 26
0 54 -21 40 -21 41 19 41 27 0 37 6 48 26 l14 26 16 -26 c15 -22 25 -26 62
-26 40 0 46 3 61 32 15 29 15 34 0 65 l-16 33 34 0 c28 0 38 6 55 34 l21 34
-21 36 c-18 30 -26 36 -56 36 l-34 0 18 30 c17 30 17 32 -2 68 -17 31 -26 37
-58 40 -33 3 -39 -1 -55 -27 -9 -17 -19 -31 -22 -31 -3 0 -13 14 -22 30 -13
23 -24 30 -48 30 -28 0 -30 2 -19 21 11 21 9 46 -6 82 -6 14 -2 17 27 17 30 0
38 5 54 35 18 34 18 36 0 70 -16 29 -25 35 -53 35 -37 0 -40 6 -18 38 14 19
14 24 0 51 -20 40 -20 41 20 41 28 0 38 5 47 25 6 14 14 25 18 25 4 0 12 -11
18 -25 10 -21 18 -25 57 -25 40 0 46 3 61 31 15 30 15 43 -1 82 -6 14 -2 17
24 17 24 0 34 7 47 31 l16 31 19 -31 c14 -24 26 -31 50 -31 26 0 30 -3 24 -17
-16 -39 -16 -52 -1 -82 15 -28 21 -31 61 -31 39 0 47 4 57 25 6 14 14 25 18
25 4 0 12 -11 18 -25 10 -21 18 -25 55 -25 39 0 46 3 62 33 16 31 16 35 1 65
l-17 32 36 0 c30 0 37 5 54 39 l20 39 -22 33 c-17 25 -31 35 -55 37 l-32 3 16
28 c15 26 15 30 0 59 l-17 32 36 0 c28 0 38 5 47 25 6 14 14 25 18 25 4 0 15
-11 24 -25 13 -20 25 -25 56 -25 34 0 42 4 56 31 15 30 15 43 -1 82 -6 14 -2
17 24 17 22 0 35 7 47 25 9 14 20 25 24 25 4 0 12 -11 18 -25z"/>
<path d="M5085 2940 c-13 -25 -20 -29 -53 -27 -39 2 -40 0 -20 -50 18 -47 -3
-83 -49 -83 -27 0 -37 6 -51 30 -22 38 -36 38 -52 0 -11 -26 -18 -30 -51 -30
-44 0 -45 -1 -22 -41 16 -27 16 -31 0 -58 -23 -39 -23 -39 20 -43 29 -2 41
-10 55 -34 18 -30 18 -33 1 -63 -15 -26 -24 -31 -55 -31 -43 0 -43 0 -22 -41
13 -26 13 -35 2 -60 -11 -25 -19 -29 -50 -29 -32 0 -40 5 -53 30 -9 17 -20 30
-25 30 -5 0 -16 -13 -25 -30 -13 -25 -22 -30 -50 -30 -28 0 -37 5 -50 31 -15
28 -15 33 -1 54 24 36 20 45 -18 45 -28 0 -38 6 -53 30 -22 38 -30 38 -51 0
-14 -25 -23 -30 -55 -30 -21 0 -37 -3 -35 -7 2 -5 10 -20 17 -35 11 -22 11
-33 1 -58 -11 -26 -17 -30 -51 -30 -33 0 -41 5 -54 30 -19 37 -26 37 -47 0
-13 -23 -24 -30 -47 -30 -38 0 -45 -12 -27 -47 12 -24 12 -32 0 -53 -21 -39
-17 -49 22 -52 49 -4 73 -42 54 -87 -11 -27 -17 -31 -50 -31 -48 0 -52 -6 -30
-43 17 -27 17 -33 4 -58 -19 -38 -19 -39 19 -39 28 0 37 -6 53 -35 10 -19 22
-35 25 -35 4 0 16 16 28 35 16 28 27 35 50 35 24 0 34 -7 47 -32 15 -29 15
-34 0 -65 -9 -18 -16 -36 -16 -38 0 -3 17 -5 38 -5 31 0 40 -5 55 -31 16 -29
16 -32 0 -60 -14 -24 -24 -29 -55 -29 -21 0 -38 -2 -38 -5 0 -2 7 -20 17 -39
15 -32 15 -36 -1 -60 -25 -39 -80 -37 -101 4 -19 38 -26 38 -48 0 -15 -24 -25
-30 -53 -30 -38 0 -41 -8 -19 -51 14 -27 14 -32 0 -51 -23 -34 -18 -47 21 -50
49 -4 73 -42 54 -87 -11 -27 -17 -31 -50 -31 -20 0 -39 -3 -43 -6 -3 -3 4 -21
15 -40 18 -31 18 -35 4 -56 -23 -32 -20 -38 17 -38 27 0 36 -6 51 -35 11 -19
23 -35 28 -35 4 0 16 16 25 35 14 30 22 35 50 35 28 0 36 -5 49 -33 15 -31 15
-36 0 -65 -22 -42 -21 -42 22 -42 31 0 41 -5 55 -30 23 -38 31 -38 47 0 11 26
18 30 51 30 43 0 47 8 22 46 -16 24 -15 28 2 60 15 28 24 34 50 34 26 0 34 -6
48 -35 9 -19 21 -35 25 -35 5 0 17 16 28 35 15 28 24 35 49 35 24 0 34 -7 49
-34 17 -32 17 -36 2 -57 -26 -37 -20 -49 23 -49 33 0 40 -4 51 -30 10 -24 10
-36 0 -60 -11 -26 -18 -30 -51 -30 -44 0 -46 -6 -22 -48 16 -28 16 -31 0 -55
-25 -39 -21 -47 22 -47 33 0 40 -4 51 -30 7 -17 16 -30 21 -30 5 0 15 13 24
30 13 25 22 30 52 30 56 0 81 -50 48 -94 -23 -30 -18 -36 25 -36 34 0 42 -4
55 -31 13 -24 19 -28 30 -19 8 7 17 20 20 31 5 14 16 19 46 19 44 0 46 6 22
48 -16 28 -16 31 0 56 26 39 82 37 105 -4 21 -37 28 -37 47 0 12 24 22 30 49
30 44 0 49 8 26 44 -19 32 -19 32 0 61 27 41 26 45 -20 45 -34 0 -42 4 -55 30
-14 27 -14 33 0 60 13 26 21 30 55 30 22 0 40 3 40 6 0 4 -9 21 -20 38 -19 32
-19 32 0 64 15 25 27 32 50 32 25 0 33 -6 47 -35 9 -19 20 -35 24 -35 4 0 17
16 29 35 17 27 28 35 51 35 24 0 33 -7 46 -35 14 -30 15 -38 3 -62 -8 -16 -16
-31 -18 -35 -2 -5 15 -8 37 -8 35 0 43 -4 56 -30 19 -37 26 -37 47 0 14 24 24
30 51 30 45 0 49 6 26 44 -18 31 -18 32 1 64 15 25 27 32 50 32 25 0 33 -6 47
-35 9 -19 20 -35 24 -35 4 0 16 16 28 35 17 29 26 35 56 35 l35 0 -19 31 c-19
31 -19 32 0 63 26 43 25 46 -21 46 -34 0 -42 4 -55 30 -14 27 -14 33 0 60 13
26 21 30 55 30 46 0 47 4 20 45 -19 29 -19 29 0 61 23 36 18 44 -26 44 -27 0
-37 6 -49 30 -20 38 -29 38 -45 0 -11 -26 -18 -30 -50 -30 -30 0 -41 6 -55 27
-16 24 -16 28 -1 54 24 40 20 49 -23 49 -33 0 -40 4 -51 30 -10 24 -10 36 0
60 11 26 18 30 51 30 43 0 49 12 23 48 -14 21 -14 25 3 55 14 23 27 33 49 35
26 3 33 -2 49 -33 11 -19 23 -35 26 -35 4 0 16 16 28 35 17 30 26 35 57 35
l36 0 -19 33 c-19 31 -19 33 -1 62 25 42 23 45 -22 45 -34 0 -42 4 -55 30 -14
27 -14 33 0 60 13 26 21 30 55 30 46 0 47 4 21 44 -15 23 -17 34 -10 49 6 10
8 21 6 23 -4 5 -41 -54 -88 -141 -15 -28 -15 -32 3 -67 17 -33 25 -38 54 -38
37 0 39 -2 23 -31 -9 -17 -13 -18 -27 -7 -12 9 -10 2 6 -25 12 -21 22 -42 22
-48 0 -5 -46 -9 -104 -9 l-104 0 -56 -102 c-31 -57 -55 -110 -54 -118 2 -8 27
-58 57 -110 l53 -95 110 3 109 3 -26 -47 c-15 -27 -20 -42 -12 -35 13 10 17 9
26 -8 15 -28 14 -31 -14 -31 -14 0 -25 6 -25 13 0 6 -14 -11 -30 -39 l-30 -51
50 -89 49 -89 -100 -5 -101 -5 -23 -39 c-23 -38 -23 -39 -4 -59 25 -28 24 -37
-6 -37 -14 0 -25 6 -25 13 0 6 -10 -3 -21 -20 -25 -39 -32 -40 -48 -10 -10 19
-19 22 -47 19 -37 -5 -41 3 -19 32 15 20 15 20 31 0 8 -10 4 1 -11 26 -15 25
-29 53 -32 63 -5 15 -20 17 -127 17 l-121 0 -57 -103 -58 -104 31 -56 c32 -60
40 -70 32 -37 -4 16 0 20 21 20 31 0 33 -9 7 -36 -16 -18 -17 -24 -5 -45 7
-13 13 -27 14 -31 0 -5 -47 -8 -105 -8 l-104 0 -48 -90 c-26 -49 -51 -90 -55
-90 -4 0 -29 39 -56 88 l-49 87 -107 3 c-58 1 -106 5 -106 8 0 3 7 18 15 33
13 26 13 30 0 41 -8 7 -15 19 -15 26 0 17 37 19 42 2 2 -6 17 10 32 36 l27 47
-57 104 -57 105 -116 0 -116 0 -29 -53 c-16 -28 -25 -49 -21 -45 10 10 35 -10
35 -28 0 -8 -11 -14 -26 -14 -19 0 -25 4 -20 15 11 30 -4 14 -24 -25 -11 -22
-22 -40 -25 -40 -3 0 -14 18 -25 40 -20 39 -35 55 -24 25 5 -11 -1 -15 -20
-15 -29 0 -31 3 -15 31 5 11 15 17 21 13 6 -4 -2 16 -18 45 l-29 51 -99 0
c-74 0 -97 3 -93 13 3 6 25 47 50 91 l44 79 -23 41 c-21 37 -26 40 -60 37
l-37 -3 21 35 c18 31 19 38 7 54 -8 10 -15 21 -15 26 0 4 49 7 109 7 l109 0
56 101 55 101 -60 109 -61 109 -104 0 c-57 0 -104 3 -104 6 0 4 23 46 50 95
l50 89 -51 95 c-49 92 -50 95 -27 95 30 0 44 10 52 38 10 30 23 28 41 -8 13
-25 21 -30 53 -30 36 0 38 2 92 95 l55 95 17 -22 c10 -13 18 -25 18 -28 0 -4
17 -4 37 -2 l37 5 -16 -24 c-9 -13 -21 -23 -27 -22 -6 2 2 -19 18 -45 28 -48
50 -59 96 -48 13 3 25 16 29 31 8 33 22 32 41 -5 13 -25 21 -30 54 -30 43 0
46 2 91 85 18 33 42 75 52 94 11 19 15 37 10 40 -5 3 -17 21 -26 39 -13 25
-23 32 -46 32 -33 0 -37 7 -16 35 12 17 12 23 0 47 -19 37 -19 38 20 38 28 0
36 5 47 32 l13 31 14 -31 c13 -27 20 -31 63 -34 l48 -3 46 83 c25 45 50 80 55
77 5 -3 29 -40 52 -83 l43 -77 52 3 c45 3 52 6 57 27 8 32 23 32 38 0 8 -18
19 -25 40 -25 30 0 34 -10 17 -41 -8 -16 -7 -26 5 -44 21 -32 20 -35 -9 -35
-27 0 -32 9 -13 28 6 6 9 14 6 17 -3 4 -22 -24 -43 -62 l-36 -68 24 -45 c85
-160 85 -160 149 -160 21 0 32 8 46 35 l18 36 17 -36 c15 -31 21 -35 56 -35
36 0 41 4 64 45 14 25 22 45 18 45 -4 0 -13 11 -19 25 -11 24 -10 25 22 25 25
0 36 6 46 25 17 32 25 31 39 -3 10 -25 16 -27 47 -24 35 4 36 4 24 -19 -7 -13
-16 -26 -21 -29 -4 -3 4 -24 18 -48 23 -38 29 -42 64 -42 33 0 41 4 55 32 17
34 18 34 49 -16 11 -18 74 -27 75 -11 0 6 -15 11 -34 13 -27 2 -37 9 -46 33
-16 37 -34 37 -50 -1 -11 -26 -18 -30 -49 -30 -30 0 -39 5 -53 30 -17 29 -17
32 2 62 24 39 19 48 -29 48 -31 0 -40 5 -49 25 -15 33 -28 32 -47 -5 -13 -26
-21 -30 -55 -30 l-40 0 19 -38 c18 -35 18 -39 3 -65 -13 -21 -24 -27 -53 -27
-31 0 -38 4 -49 30 -18 44 -28 45 -47 6 -15 -32 -21 -36 -54 -36 -31 0 -38 4
-49 31 -11 26 -11 35 3 59 23 39 22 40 -23 40 -36 0 -42 4 -57 34 -15 33 -15
35 6 65 18 25 30 31 58 31 19 0 33 3 31 8 -2 4 -10 19 -17 35 -12 23 -12 31 0
55 7 15 15 30 17 35 2 4 -14 7 -35 7 -32 0 -42 5 -56 30 -10 17 -22 30 -27 30
-5 0 -16 -13 -25 -30 -13 -25 -22 -30 -50 -30 -28 0 -37 5 -50 30 -15 29 -15
33 4 64 25 39 20 46 -31 46 -32 0 -40 4 -48 25 -13 33 -26 32 -45 -5z m-25
-46 c0 -3 -5 -14 -11 -25 -10 -20 -11 -20 -24 -2 -20 26 -18 33 10 33 14 0 25
-3 25 -6z m140 -14 c-6 -11 -15 -20 -20 -20 -5 0 -14 9 -20 20 -10 18 -8 20
20 20 28 0 30 -2 20 -20z m-810 -386 c0 -3 -5 -15 -11 -26 -11 -21 -12 -21
-25 -3 -20 27 -17 35 11 35 14 0 25 -3 25 -6z m438 -20 c-11 -24 -13 -25 -25
-8 -19 26 -16 34 12 34 23 0 24 -2 13 -26z m602 20 c0 -3 -5 -15 -11 -26 -11
-21 -12 -21 -25 -3 -20 27 -17 35 11 35 14 0 25 -3 25 -6z m-1272 -229 c11
-24 10 -25 -18 -25 -28 0 -29 1 -18 25 6 14 14 25 18 25 4 0 12 -11 18 -25z
m1942 -17 c0 -4 -11 -8 -25 -8 -27 0 -33 18 -13 38 10 10 15 9 25 -5 7 -9 13
-20 13 -25z m-1940 -160 c0 -7 -5 -20 -10 -28 -8 -13 -11 -12 -24 5 -21 28
-20 35 9 35 14 0 25 -6 25 -12z m68 -143 c-6 -14 -14 -25 -18 -25 -4 0 -12 11
-18 25 -11 24 -10 25 18 25 28 0 29 -1 18 -25z m1790 0 c-6 -14 -14 -25 -18
-25 -4 0 -12 11 -18 25 -11 24 -10 25 18 25 28 0 29 -1 18 -25z m-1628 -97 c0
-4 -11 -8 -25 -8 -28 0 -30 3 -14 32 11 21 12 21 25 3 8 -10 14 -22 14 -27z
m1478 17 c11 -24 10 -25 -18 -25 -34 0 -35 2 -18 30 17 26 22 25 36 -5z
m-1478 -171 c0 -3 -5 -15 -11 -26 -11 -21 -12 -21 -25 -3 -20 27 -17 35 11 35
14 0 25 -3 25 -6z m1478 -19 c-13 -29 -23 -32 -32 -9 -10 27 -7 34 19 34 23 0
24 -2 13 -25z m-1640 -80 c11 -24 10 -25 -18 -25 -28 0 -29 1 -18 25 6 14 14
25 18 25 4 0 12 -11 18 -25z m1802 -17 c0 -5 -11 -8 -25 -8 -28 0 -29 3 -14
31 10 20 11 20 24 2 8 -10 15 -21 15 -25z m-1870 -297 c0 -28 -19 -36 -35 -15
-20 27 -18 34 10 34 18 0 25 -5 25 -19z m1940 13 c0 -3 -5 -14 -11 -25 -8 -16
-13 -18 -25 -8 -22 18 -17 39 11 39 14 0 25 -3 25 -6z m-1872 -149 c-6 -14
-14 -25 -18 -25 -4 0 -12 11 -18 25 -11 24 -10 25 18 25 28 0 29 -1 18 -25z
m450 0 c-6 -14 -14 -25 -18 -25 -4 0 -12 11 -18 25 -11 24 -10 25 18 25 28 0
29 -1 18 -25z m902 19 c0 -3 -5 -15 -11 -26 -11 -21 -12 -21 -25 -3 -20 27
-17 35 11 35 14 0 25 -3 25 -6z m450 0 c0 -3 -5 -15 -11 -26 -11 -21 -12 -21
-25 -3 -20 27 -17 35 11 35 14 0 25 -3 25 -6z m-1206 -90 c10 -27 7 -34 -19
-34 -23 0 -24 2 -13 25 13 29 23 32 32 9z m606 -26 c0 -4 -11 -8 -25 -8 -27 0
-33 18 -13 38 10 10 15 9 25 -5 7 -9 13 -20 13 -25z m-520 -284 c0 -3 -5 -15
-11 -26 -11 -21 -12 -21 -25 -3 -20 27 -17 35 11 35 14 0 25 -3 25 -6z m438
-19 c-6 -14 -14 -25 -18 -25 -4 0 -12 11 -18 25 -11 24 -10 25 18 25 28 0 29
-1 18 -25z m-288 -97 c0 -4 -11 -8 -25 -8 -28 0 -30 3 -14 32 11 21 12 21 25
3 8 -10 14 -22 14 -27z m125 -6 c-35 -4 -39 1 -23 27 l13 22 19 -23 c18 -23
18 -23 -9 -26z"/>
</g>
</svg>
